<?xml version="1.0" encoding="UTF-8"?>
<svg version="1.1" xmlns="http://www.w3.org/2000/svg" width="627" height="602">
<path d="M0 0 C206.91 0 413.82 0 627 0 C627 198.66 627 397.32 627 602 C420.09 602 213.18 602 0 602 C0 403.34 0 204.68 0 0 Z " fill="#FEFDFE" transform="translate(0,0)"/>
<path d="M0 0 C1.10730469 0.26554687 2.21460938 0.53109375 3.35546875 0.8046875 C28.69002524 8.14297283 52.38056259 26.89843057 71 45 C71.85271484 45.82201904 71.85271484 45.82201904 72.72265625 46.66064453 C80.36520924 54.05353529 87.43452166 61.62022713 94 70 C94.92873038 71.14116528 95.85986156 72.2803795 96.79296875 73.41796875 C123.90358082 106.58870453 154.95126698 147.88631219 166.38671875 189.76953125 C167.02501474 192.09097718 167.77810259 194.34908831 168.5625 196.625 C174.60503602 214.65769912 176.12391358 235.45973205 168 253 C161.2556061 266.0795406 150.29165926 274.91088019 136.375 279.8125 C110.66878926 287.09418017 85.3817573 282.20938538 62.01171875 269.9609375 C58.7162107 268.38677249 55.26259909 267.26464655 51.8203125 266.0546875 C49.151561 265.05667793 46.63024767 263.91905296 44.0625 262.6875 C38.80055266 260.23849569 33.41132239 258.28707827 27.9375 256.375 C27.11064697 256.08584717 26.28379395 255.79669434 25.43188477 255.4987793 C-21.88436589 239.18977375 -64.90178639 250.32939524 -110 268 C-134.0879462 277.3428243 -167.81750127 289.47950296 -193.3125 279.24609375 C-194.199375 278.83488281 -195.08625 278.42367188 -196 278 C-196.9075 277.59910156 -197.815 277.19820312 -198.75 276.78515625 C-215.51170085 268.57097046 -225.53400159 254.01215441 -231.79345703 236.82080078 C-233.91401931 230.45408593 -234.45924985 224.68382141 -234.375 218 C-234.39240234 216.61941406 -234.39240234 216.61941406 -234.41015625 215.2109375 C-234.38669425 209.65826349 -233.6278631 204.97554936 -231.87841797 199.71582031 C-230.87260066 196.60611721 -230.06923957 193.47458062 -229.2734375 190.3046875 C-217.4042612 143.63432073 -195.93338568 102.42456623 -167 64 C-166.50338867 63.33967773 -166.00677734 62.67935547 -165.49511719 61.99902344 C-141.86767368 30.78320392 -107.7331562 9.56220056 -70 0 C-69.23429688 -0.20189941 -68.46859375 -0.40379883 -67.6796875 -0.61181641 C-45.3853502 -6.36961242 -22.26133376 -5.46247825 0 0 Z " fill="#FF00FA" transform="translate(351,316)"/>
<path d="M0 0 C5.41128773 3.75999219 10.0734175 8.24808142 14.7265625 12.89453125 C15.38527344 13.54164062 16.04398438 14.18875 16.72265625 14.85546875 C37.60126244 36.93953719 40.48013326 68.3117435 39.94140625 97.21484375 C38.88603822 134.39950228 25.01899805 169.87814611 -1.6796875 196.2734375 C-9.87982039 203.94159974 -18.83500113 209.35523344 -28.8984375 214.20703125 C-29.59074463 214.54484619 -30.28305176 214.88266113 -30.99633789 215.23071289 C-43.34605879 220.99625079 -55.41768349 221.43010982 -68.3125 217.01953125 C-90.18925073 208.70752042 -104.3188797 191.3084225 -113.90014648 170.55834961 C-120.58204642 155.42529631 -122.67701168 139.87108234 -122.5859375 123.45703125 C-122.58378235 122.75621429 -122.5816272 122.05539734 -122.57940674 121.33334351 C-122.39095567 82.97919339 -110.76095116 44.2107678 -83.2734375 16.45703125 C-72.01125682 5.42364655 -58.60232107 -2.93652552 -43.2734375 -7.10546875 C-42.6959375 -7.28722656 -42.1184375 -7.46898437 -41.5234375 -7.65625 C-27.3210015 -10.4918058 -12.3698601 -7.20662941 0 0 Z " fill="#FF00FA" transform="translate(447.2734375,10.10546875)"/>
<path d="M0 0 C2.46846527 1.89698778 4.76562669 3.88243646 7.0546875 5.9921875 C7.993125 6.83910156 8.9315625 7.68601562 9.8984375 8.55859375 C36.39725685 33.26730124 50.51620793 71.03473905 52 106.8203125 C52.01804687 107.86703125 52.03609375 108.91375 52.0546875 109.9921875 C52.09335937 111.18328125 52.13203125 112.374375 52.171875 113.6015625 C52.69205514 141.4600987 45.27926484 169.89866764 26.73828125 191.26171875 C22.58280683 195.48977788 18.03084172 198.79876766 13.0546875 201.9921875 C12.18457031 202.60320312 12.18457031 202.60320312 11.296875 203.2265625 C0.28440683 210.42063719 -13.91654707 211.50236709 -26.6171875 209.58984375 C-52.65254808 202.90626964 -75.49722589 181.17918066 -88.8984375 158.71875 C-96.77173788 144.70550793 -102.76643185 130.20095646 -106.6328125 114.6171875 C-106.84776367 113.76721191 -107.06271484 112.91723633 -107.28417969 112.04150391 C-112.43488624 90.33024566 -112.01798925 64.69592471 -106.9453125 42.9921875 C-106.7896582 42.30415039 -106.63400391 41.61611328 -106.47363281 40.90722656 C-102.78886371 25.36647384 -94.29008372 12.15029886 -82.9453125 0.9921875 C-82.31238281 0.36054688 -81.67945313 -0.27109375 -81.02734375 -0.921875 C-56.00479557 -24.34504381 -25.90763102 -17.66117022 0 0 Z " fill="#FF00FA" transform="translate(236.9453125,20.0078125)"/>
<path d="M0 0 C15.76762127 12.08066506 25.56481395 31.34124593 28.73046875 50.7421875 C32.82671493 88.41911852 21.73369246 127.4883421 -1.83203125 157.2421875 C-19.69341878 178.42241393 -39.79356429 191.7026071 -67.64453125 195.8046875 C-82.69763319 196.8873449 -94.71508816 192.5424365 -106.1953125 182.99609375 C-119.97447191 170.66737218 -129.92131671 152.3632546 -131.64453125 133.8046875 C-132.6361581 114.05160774 -130.98106823 95.82404879 -125.64453125 76.8046875 C-125.13986328 74.98324219 -125.13986328 74.98324219 -124.625 73.125 C-115.00473753 41.51070989 -92.91836101 14.59715466 -64.2578125 -1.5390625 C-43.01175536 -12.55862848 -20.15758449 -13.8750877 0 0 Z " fill="#FF00FA" transform="translate(587.64453125,191.1953125)"/>
<path d="M0 0 C0.96550781 0.66773438 1.93101563 1.33546875 2.92578125 2.0234375 C21.412419 15.3069619 34.65061341 32.88208825 45 53 C45.49113281 53.94101562 45.98226562 54.88203125 46.48828125 55.8515625 C50.08742723 63.22814033 52.35263436 71.0143858 54.44775391 78.92578125 C54.93579417 80.75884495 55.4557564 82.58334496 55.98046875 84.40625 C61.65712875 107.21949394 60.5131142 137.05288928 49 158 C40.06837017 172.31279811 28.42878654 182.4930675 12.03125 187.33203125 C-5.76208053 191.25298424 -25.88647508 183.25214953 -41 174 C-48.94364831 168.71676881 -56.06673203 162.53216982 -63 156 C-63.74894531 155.32710937 -64.49789062 154.65421875 -65.26953125 153.9609375 C-83.63155839 136.78874399 -95.0923399 110.29738393 -100 86 C-100.18022705 85.12730469 -100.3604541 84.25460937 -100.54614258 83.35546875 C-102.05805017 75.32408714 -102.26821756 67.53172177 -102.1875 59.375 C-102.18685547 58.12976563 -102.18621094 56.88453125 -102.18554688 55.6015625 C-102.1407387 46.16197288 -102.08335657 37.14210883 -98.80859375 28.2109375 C-98.275411 26.75305615 -97.78695067 25.27792861 -97.34765625 23.7890625 C-92.9073784 8.81297745 -83.32162916 -1.13268538 -70.00390625 -8.703125 C-46.29297813 -21.14758664 -21.16443082 -14.84258784 0 0 Z " fill="#FF00FA" transform="translate(104,209)"/>
</svg>
