<?xml version="1.0" encoding="UTF-8"?>
<svg width="419.14468" height="403.60483" xmlns="http://www.w3.org/2000/svg" xmlns:svg="http://www.w3.org/2000/svg">
 <title>yellow paw print</title>

 <metadata id="metadata1655">image/svg+xml</metadata>
 <g>
  <title>Layer 1</title>
  <g id="layer1">
   <path d="m277.69064,1.99573c-0.86425,0.01112 -1.75079,0.05387 -2.63153,0.12347c-35.07734,6.1078 -54.36426,43.5249 -57.15899,76.52034c-4.08384,29.94032 8.99568,68.42246 41.58407,75.13132c4.72699,0.90784 9.63858,0.49293 14.25916,-0.77168c39.24209,-13.27388 56.80334,-60.15746 51.13101,-98.99184c-1.6489,-25.08153 -20.39179,-52.35628 -47.18372,-52.01161zm-148.71135,1.6051c-21.81093,0.54009 -38.80113,22.85513 -42.25727,43.83175c-7.2859,41.55921 11.45466,93.19675 54.37449,106.33828c4.02017,0.88196 8.17852,0.97279 12.23963,0.33955c29.00926,-4.87706 41.29843,-37.68677 40.08474,-64.17339c-0.87312,-34.93945 -18.86457,-75.33938 -54.83348,-85.16322c-3.28786,-0.87951 -6.49226,-1.25012 -9.60811,-1.17297zm243.75197,118.03704c-37.7316,2.27716 -63.59961,40.25483 -67.28729,75.7178c-4.99338,25.5767 8.52356,59.78556 37.45322,61.82743c40.33853,-0.50158 67.85748,-43.98339 69.00085,-81.39738c2.55152,-24.74461 -11.89789,-54.78158 -39.16678,-56.14785zm-330.25545,8.4268c-16.0525,-0.13932 -31.84022,9.56031 -37.08604,26.02124c-13.99497,44.03325 14.10875,99.8012 60.34131,109.05462c19.29512,3.33081 36.24919,-11.61685 41.03332,-29.60187c10.13891,-38.46801 -10.68602,-83.13487 -45.92916,-100.59692c-5.74177,-3.25064 -12.07802,-4.82256 -18.35943,-4.87707zm169.15151,78.95887c-31.46991,0.06771 -63.4333,16.17768 -83.81078,40.15853c-22.00918,27.95077 -40.03848,60.47693 -47.09193,95.75076c-8.56911,25.39179 10.85252,54.61353 37.75922,54.78967c32.37025,0.90708 60.19026,-21.51629 92.37851,-23.18142c27.30912,-4.19968 51.7619,10.12964 76.31402,19.50821c20.90457,9.0195 49.79105,5.56298 60.46369,-17.13144c8.39502,-23.13199 -3.96161,-47.79761 -14.19797,-68.34049c-20.87802,-33.34372 -43.24509,-68.38817 -77.47676,-89.20685c-13.72101,-8.57934 -28.969,-12.38002 -44.338,-12.34697z" id="path1575" fill="#0000ff"/>
  </g>
 </g>
</svg>