<svg version="1.1"
      xmlns="http://www.w3.org/2000/svg"
      xmlns:xlink="http://www.w3.org/1999/xlink"  id="snapshot-47770" width="250" height="250" viewBox="0 0 250 250"><desc>This image was made on Patterninja.com</desc><defs>
<!-- image 89404 -->
<g id="transformed-89404" data-image="89404" transform="translate(-125, -125) rotate(0, 125, 125)"><g><svg version="1.1" width="250px" height="250px" viewBox="0 0 250 250"><g id="original-89404"><svg xmlns="http://www.w3.org/2000/svg" viewBox="0 0 500 500" xmlns:xlink="http://www.w3.org/1999/xlink" version="1.1" preserveAspectRatio="xMidYMid meet">
  <path d="M293 4v2h2c2.83 5.42 5.156 10.757 7.063 16.563l.778 2.353c4.288 13.347 6.356 26.897 6.347 40.897l.001 2.936c-.048 6.578-.478 12.867-2.189 19.251l-4 1 1.813 2.563c4.858 8.644 5.453 19.146 5.562 28.874l.042 2.22c-.046 5.364-1.198 9.45-3.417 14.343-2.188 1.5-2.188 1.5-4 2l1.5 2.125c1.702 3.263 1.83 5.246 1.5 8.875l-1 1c.448 4.65.448 4.65 2 9 .353 6.47.353 6.47-2 10-.272 2.21-.272 2.21-.313 4.625-.383 4.971-1.978 8.086-4.546 12.285-1.625 2.977-1.893 5.736-2.141 9.09-.645 6.454-.645 6.454-2.059 8.629-2.941 2.077-6.138 2.203-9.628 2.559l-2.127.248c-1.728.2-3.457.383-5.186.564l1.855 1.602c2.55 2.85 3.33 5.125 4.457 8.773l.618 1.957c.453 1.437.9 2.875 1.343 4.315.77 2.491 1.56 4.975 2.356 7.458 4.996 15.614 4.996 15.614 7.094 22.633 2.89 9.553 5.917 18.55 10.876 27.254 1.558 2.81 2.433 4.571 2.198 7.82C309 292 309 292 307.75 293.938L307 296c.98 2.01 1.986 4.007 3 6 .31 1.764.577 3.537.813 5.313.667 4.275 1.762 6.944 4.312 10.437 2.174 2.993 2.885 4.302 3.625 8.063-.75 3.187-.75 3.187-3.188 5.5-4.137 1.96-8.069 2.928-12.562 3.687l1.46 2.781c6.816 13.143 10.124 25.66 6.603 40.531C307.416 388.416 299.45 395.47 290 400l-2.773 1.363c-13.666 6.21-28.316 7.237-43.083 8.387-2.12.247-4.081.717-6.144 1.25a68.304 68.304 0 0 1-4.25.063L230 411l-.875 1.938C228 415 228 415 226 416c-5.675.59-10.206.335-15-3-2.532-2.517-4.917-5.097-7-8v-2l-2.375 1.5c-4.63 1.916-8.672 1.963-13.625 1.5l-2-1-.75 2.625c-1.535 4.145-3.238 8.106-7.09 10.535-2.434.947-4.244 1.075-6.847 1.027l-2.387-.019C167 419 167 419 166 418c-1.5-.022-3 .01-4.5.063-16.883.13-34.373-3.253-50.5-8.063l-3.21-.902c-8.2-2.38-15.668-5.35-22.79-10.098v-2l-2.188-.625C76.939 393.503 73.947 387.609 71 382l-1.102-2.047c-2.97-5.683-4.038-10.299-3.96-16.765l.027-2.958L66 358c-.592-.315-1.183-.63-1.793-.953A322.015 322.015 0 0 1 57 353l-3.063-1.75c-2.63-3.055-2.085-5-1.863-8.89-.126-4.011-2.13-6.942-4.074-10.36-3.228-6.276-4.858-12.325-6.094-19.277-.596-2.826-.596-2.826-2.75-3.727L37 308c-3.664-4.519-5.026-8.827-6.25-14.375l-.523-2.23A555.02 555.02 0 0 1 29 286l-1.766 1.52C25 289 25 289 21.25 288.688L18 288c-3.396-8.065-3.307-15.383-3-24l-2.36.547C10 265 10 265 7.75 264.25 6 263 6 263 5 260c-.115-1.804-.178-3.61-.21-5.418l-.081-3.281-.084-3.488C4.285 236.617 3.567 225.702 0 215c-.723-7.346 1.076-12.72 3.707-19.566 1.102-2.926 1.99-5.793 2.793-8.809 1.36-4.658 3.303-8.93 6.5-12.625l2.035-.969c2.127-.87 2.127-.87 2.938-3.008 1.364-2.687 2.743-3.17 5.465-4.398a209.691 209.691 0 0 0 11.5-5.813l2.714-1.48c1.827-1.036 3.6-2.167 5.348-3.332 5.124-.57 5.124-.57 8 0 3.633 3.346 5.812 7.302 6.159 12.277.038 2.681.015 5.354-.034 8.036l-.027 2.822A879.058 879.058 0 0 1 57 185l1.938.875C61 187 61 187 62 189c-.169 6.758-1.558 13.418-3 20l1.922 1.207c2.477 2.137 2.776 3.308 3.328 6.48.15.809.3 1.617.453 2.45L65 221l2.25-.625c3.073-.42 4.178.006 6.75 1.625.183 4.675-.267 7.72-2 12-.46 2.99-.75 5.986-1 9l2.375.25C76 244 76 244 77.16 245.732c.972 2.623 1.006 4.52.903 7.311-.109 5.822.343 11.482.937 17.27 1.142 11.37 1.142 11.37 1 16.687h2l.805-2.18c2.978-7.026 7.742-13.272 12.257-19.382C103.806 253.518 110.43 240.21 117 227l-2.414.07c-10.524.18-10.524.18-15.586-2.07v-2l-3-1c-1.747-3.493-3-6.068-3-10l-1.75-.188c-3.276-1.182-4.362-2.917-6.25-5.812-.857-2.325-1.43-4.58-2-7l-2.875-.25C77 198 77 198 75.625 196.375c-.834-3.17-.75-6.114-.625-9.375h-2c-2.793-2.578-3.002-4.025-3.25-7.875.127-3.44.673-6.733 1.25-10.125.263-4.915-.368-8.393-2-13-1.269-6.593-1.184-13.179-1.188-19.875l-.037-3.434C67.75 117.377 67.75 117.377 72 111h4c-.158-4.624-.158-4.624-2.444-8.346-5.87-6.24-5.354-21.63-6.064-30.04-.18-2.114-.375-4.225-.572-6.337-2.223-24.623-2.223-24.623.642-30.465 3.539-4.082 6.552-5.42 11.739-6.124 12.603-.612 25.055 3.857 36.699 8.187l2.605.955c6.029 2.332 11.16 5.39 16.395 9.17l2.563-1.875C145.023 41.248 153.33 41.457 162 41c1.555-3.531 2.325-6.683 2.813-10.5.854-5.15 2.066-7.355 6.187-10.5l7 3v2l3 1 .438 1.938c.358 2.241.358 2.241 2.5 3.25L186 32l2 1 1.188-2.438C191 28 191 28 193.375 27c3.497 0 4.892.827 7.625 3 4 5.19 4 5.19 4 9l2.563-.07c6.584-.105 12.128.235 18.437 2.07h4c1.869-1.83 1.869-1.83 3.563-4.313C244.357 22.614 256.91 13.294 273 6l3.07-1.48 3.18-1.457 2.89-1.34C286.38.65 289.21 2.105 293 4z" fill="rgba(71, 70, 70, 1)" stroke="none"/>
  <path d="M76 110l1 2h2a3476.415 3476.415 0 0 0-.11 17.133c-.01 1.94-.024 3.881-.04 5.822a1505.11 1505.11 0 0 0-.045 8.393l-.032 2.608c0 5.061.71 9.171 2.227 14.044.18 2.475.18 2.475.09 4.7l-.06 2.474c-.062 1.687-.127 3.375-.196 5.062-.107 4.67-.136 7.19 3.166 10.764l.313 3.563L85 190a201.065 201.065 0 0 0 6 3c1.897 3.54 3 5.975 3 10l2.25.75c3.14 1.427 4.699 2.466 6.75 5.25.621 2.702.814 5.216 1 8l2.86-.43c9.912-1.134 15.42.227 24.14 5.43 3.518 1.576 7 2.56 10.75 3.438 3.607.86 6.998 1.812 10.438 3.187 5.169 1.844 10.525 1.855 15.961 1.997 3.786.122 5.625.228 8.851 2.378.188 3.125.188 3.125 0 6-2.785.777-5.336 1.15-8.223 1.246l-2.38.1c-1.644.061-3.287.118-4.93.172l-2.377.103-2.16.076c-2.253.216-2.253.216-4.93 2.303-3.294 1.192-6.587 2.212-10 3l-2-6-6 1 1-8-9-3-.777 2.586c-1.287 3.594-2.92 6.712-4.785 10.039-2.833 4.954-2.833 4.954-4.438 10.375h-2l-.817 2.207c-1.157 2.73-2.485 5.01-4.117 7.48l-1.716 2.618-1.787 2.695c-1.167 1.77-2.332 3.541-3.497 5.313l-1.564 2.363a95.367 95.367 0 0 0-3.069 5.117L96 283h-2l-1 4 2.063.938C97 290 97 290 97.112 292.027c-.555 5.47-1.116 10.29-5.488 13.972L89 308l-2.188 2.75L85 313h-2v2c1.454-.03 1.454-.03 2.938-.063C89 315 89 315 90 316c.04 1.666.043 3.334 0 5l-4 2 2 3c-.39 3.862-1.799 7.235-3.25 10.813-7.338 17.878-7.338 17.878-6.875 36.75.881 2.575.881 2.575 3.125 3.437 1.268 2.443 2.37 4.942 3.488 7.457C89.784 393.365 104.271 398.524 114 401c2.606.57 5.211 1.095 7.836 1.57C124 403 124 403 127 404c2.5.341 4.994.652 7.5.938 6.554.778 13.02 1.796 19.5 3.062l-.886-1.541a1610.601 1610.601 0 0 1-3.989-7.022c-.46-.8-.92-1.6-1.395-2.423-2.597-4.61-4.476-8.833-5.73-14.014l-.965-3.148c-3.856-12.79-6.086-25.448-6.847-38.79l-.161-2.639c-.095-2.139-.071-4.282-.027-6.423 2-2 2-2 5.063-2.188C142 330 142 330 143 331c.18 1.663.3 3.333.395 5.004.714 11.216 1.566 21.874 4.703 32.691.936 3.43 1.428 6.785 1.902 10.305 1.5 6.696 4.66 11.964 8.477 17.617C160 399 160 399 161 402c2.316 1.9 2.316 1.9 5.063 3.688l2.785 1.886L171 409c2.633-.99 3.784-1.607 5.16-4.11 5.415-15.846 6.463-30.776 6.965-47.39.144-4.302.294-8.604.445-12.906l.109-3.102c.936-26.107.936-26.107 4.321-29.492 2.375-.25 2.375-.25 5 0 1.813 1.5 1.813 1.5 3 3 2.217-2.82 2.217-2.82 2.313-6 .643-5.431 3.302-10.148 5.687-15l1.219-2.484c.915-1.845 1.846-3.681 2.781-5.516h2l.625-2c1.58-3.446 3.618-6.152 5.938-9.133 2.7-3.506 3.721-5.68 4.062-10.055l.227-2.73L221 260l-3-1c.478-4.298 2.869-6.204 6-9 3.34-1.844 3.34-1.844 6.938-3.5 5.073-2.341 9.104-4.584 13.062-8.5v-4c-5.58.353-9.198 1.015-14 4-5.186.407-5.186.407-8-1v-6l4-1v-2l2.273-.918A661.35 661.35 0 0 0 238 223c.847-.36 1.694-.722 2.566-1.094 7.014-3.235 12.822-7.865 18.829-12.635 9.164-7.257 15.95-11.044 27.605-12.271l-.188-3.063c.238-4.978 1.503-8.94 4.754-12.792 1.795-2.684 1.895-4.568 2.059-7.77.293-5.212.293-5.212 1.375-7.375h2l-.988-2.914c-1.284-4.498-1.271-8.814-1.2-13.461l.002-2.48c.045-6.004.045-6.004 1.186-7.145 3.563-.396 5.376-.427 8.375 1.625 2.052 2.999 2.02 4.812 1.625 8.375l-1 1c.448 4.65.448 4.65 2 9 .353 6.47.353 6.47-2 10-.272 2.21-.272 2.21-.313 4.625-.383 4.971-1.978 8.086-4.546 12.285-1.625 2.977-1.893 5.736-2.141 9.09-.645 6.454-.645 6.454-2.059 8.629-2.941 2.077-6.138 2.203-9.628 2.559l-2.127.248c-1.728.2-3.457.383-5.186.564l1.855 1.602c2.55 2.85 3.33 5.125 4.457 8.773l.618 1.957c.453 1.437.9 2.875 1.343 4.315.77 2.491 1.56 4.975 2.356 7.458 4.996 15.614 4.996 15.614 7.094 22.633 2.89 9.553 5.917 18.55 10.876 27.254 1.558 2.81 2.433 4.571 2.198 7.82C309 292 309 292 307.75 293.938L307 296c.98 2.01 1.986 4.007 3 6 .31 1.764.577 3.537.813 5.313.667 4.275 1.762 6.944 4.312 10.437 2.174 2.993 2.885 4.302 3.625 8.063-.75 3.187-.75 3.187-3.188 5.5-4.137 1.96-8.069 2.928-12.562 3.687l1.46 2.781c6.816 13.143 10.124 25.66 6.603 40.531C307.416 388.416 299.45 395.47 290 400l-2.773 1.363c-13.666 6.21-28.316 7.237-43.083 8.387-2.12.247-4.081.717-6.144 1.25a68.304 68.304 0 0 1-4.25.063L230 411l-.875 1.938C228 415 228 415 226 416c-5.675.59-10.206.335-15-3-2.532-2.517-4.917-5.097-7-8v-2l-2.375 1.5c-4.63 1.916-8.672 1.963-13.625 1.5l-2-1-.75 2.625c-1.535 4.145-3.238 8.106-7.09 10.535-2.434.947-4.244 1.075-6.847 1.027l-2.387-.019C167 419 167 419 166 418c-1.5-.022-3 .01-4.5.063-16.883.13-34.373-3.253-50.5-8.063l-3.21-.902c-8.2-2.38-15.668-5.35-22.79-10.098v-2l-2.188-.625C76.939 393.503 73.947 387.609 71 382l-1.102-2.047c-2.97-5.683-4.038-10.299-3.96-16.765l.027-2.958L66 358c-.592-.315-1.183-.63-1.793-.953A322.015 322.015 0 0 1 57 353l-3.063-1.75c-2.63-3.055-2.085-5-1.863-8.89-.126-4.011-2.13-6.942-4.074-10.36-3.228-6.276-4.858-12.325-6.094-19.277-.596-2.826-.596-2.826-2.75-3.727L37 308c-3.664-4.519-5.026-8.827-6.25-14.375l-.523-2.23A555.02 555.02 0 0 1 29 286l-1.766 1.52C25 289 25 289 21.25 288.688L18 288c-3.396-8.065-3.307-15.383-3-24l-2.36.547C10 265 10 265 7.75 264.25 6 263 6 263 5 260c-.115-1.804-.178-3.61-.21-5.418l-.081-3.281-.084-3.488C4.285 236.617 3.567 225.702 0 215c-.723-7.346 1.076-12.72 3.707-19.566 1.102-2.926 1.99-5.793 2.793-8.809 1.36-4.658 3.303-8.93 6.5-12.625l2.035-.969c2.127-.87 2.127-.87 2.938-3.008 1.364-2.687 2.743-3.17 5.465-4.398a209.691 209.691 0 0 0 11.5-5.813l2.714-1.48c1.827-1.036 3.6-2.167 5.348-3.332 5.124-.57 5.124-.57 8 0 3.633 3.346 5.812 7.302 6.159 12.277.038 2.681.015 5.354-.034 8.036l-.027 2.822A879.058 879.058 0 0 1 57 185l1.938.875C61 187 61 187 62 189c-.169 6.758-1.558 13.418-3 20l1.922 1.207c2.477 2.137 2.776 3.308 3.328 6.48.15.809.3 1.617.453 2.45L65 221l2.25-.625c3.073-.42 4.178.006 6.75 1.625.183 4.675-.267 7.72-2 12-.46 2.99-.75 5.986-1 9l2.375.25C76 244 76 244 77.16 245.732c.972 2.623 1.006 4.52.903 7.311-.109 5.822.343 11.482.937 17.27 1.142 11.37 1.142 11.37 1 16.687h2l.805-2.18c2.978-7.026 7.742-13.272 12.257-19.382C103.806 253.518 110.43 240.21 117 227l-2.414.07c-10.524.18-10.524.18-15.586-2.07v-2l-3-1c-1.747-3.493-3-6.068-3-10l-1.75-.188c-3.276-1.182-4.362-2.917-6.25-5.812-.857-2.325-1.43-4.58-2-7l-2.875-.25C77 198 77 198 75.625 196.375c-.834-3.17-.75-6.114-.625-9.375h-2c-2.793-2.578-3.002-4.025-3.25-7.875.127-3.44.673-6.733 1.25-10.125.263-4.915-.368-8.393-2-13-1.269-6.593-1.184-13.179-1.188-19.875l-.037-3.434C67.75 117.377 67.75 117.377 72 111c2.125-.688 2.125-.688 4-1z" fill="rgba(71, 71, 70, 1)" stroke="none"/>
  <path d="M76 110l1 2h2a3476.415 3476.415 0 0 0-.11 17.133c-.01 1.94-.024 3.881-.04 5.822a1505.11 1505.11 0 0 0-.045 8.393l-.032 2.608c0 5.061.71 9.171 2.227 14.044.18 2.475.18 2.475.09 4.7l-.06 2.474c-.062 1.687-.127 3.375-.196 5.062-.107 4.67-.136 7.19 3.166 10.764l.313 3.563L85 190a201.065 201.065 0 0 0 6 3c1.897 3.54 3 5.975 3 10l2.25.75c3.14 1.427 4.699 2.466 6.75 5.25.621 2.702.814 5.216 1 8l2.86-.43c9.912-1.134 15.42.227 24.14 5.43 3.518 1.576 7 2.56 10.75 3.438 3.607.86 6.998 1.812 10.438 3.187 5.169 1.844 10.525 1.855 15.961 1.997 3.786.122 5.625.228 8.851 2.378.188 3.125.188 3.125 0 6-2.785.777-5.336 1.15-8.223 1.246l-2.38.1c-1.644.061-3.287.118-4.93.172l-2.377.103-2.16.076c-2.253.216-2.253.216-4.93 2.303-3.294 1.192-6.587 2.212-10 3l-2-6-6 1 1-8-9-3-.777 2.586c-1.287 3.594-2.92 6.712-4.785 10.039-2.833 4.954-2.833 4.954-4.438 10.375h-2l-.817 2.207c-1.157 2.73-2.485 5.01-4.117 7.48l-1.716 2.618-1.787 2.695c-1.167 1.77-2.332 3.541-3.497 5.313l-1.564 2.363a95.367 95.367 0 0 0-3.069 5.117L96 283h-2l-1 4 2.063.938C97 290 97 290 97.112 292.027c-.555 5.47-1.116 10.29-5.488 13.972L89 308l-2.188 2.75L85 313h-2v2c1.454-.03 1.454-.03 2.938-.063C89 315 89 315 90 316c.04 1.666.043 3.334 0 5l-4 2 2 3c-.39 3.862-1.799 7.235-3.25 10.813-7.338 17.878-7.338 17.878-6.875 36.75.881 2.575.881 2.575 3.125 3.437 1.268 2.443 2.37 4.942 3.488 7.457C89.784 393.365 104.271 398.524 114 401c2.606.57 5.211 1.095 7.836 1.57C124 403 124 403 127 404c2.5.341 4.994.652 7.5.938 6.554.778 13.02 1.796 19.5 3.062l-.886-1.541a1610.601 1610.601 0 0 1-3.989-7.022c-.46-.8-.92-1.6-1.395-2.423-2.597-4.61-4.476-8.833-5.73-14.014l-.965-3.148c-3.856-12.79-6.086-25.448-6.847-38.79l-.161-2.639c-.095-2.139-.071-4.282-.027-6.423 2-2 2-2 5.063-2.188C142 330 142 330 143 331c.18 1.663.3 3.333.395 5.004.714 11.216 1.566 21.874 4.703 32.691.936 3.43 1.428 6.785 1.902 10.305 1.5 6.696 4.66 11.964 8.477 17.617C160 399 160 399 161 402c2.316 1.9 2.316 1.9 5.063 3.688l2.785 1.886L171 409c2.633-.99 3.784-1.607 5.16-4.11 5.415-15.846 6.463-30.776 6.965-47.39.144-4.302.294-8.604.445-12.906l.109-3.102c.936-26.107.936-26.107 4.321-29.492 2.5-.125 2.5-.125 5 0 1 1 1 1 1.13 3.058-.035 10.903-.484 21.789-.93 32.68-.137 3.386-.27 6.771-.401 10.157l-.264 6.55-.117 3.019c-.416 9.987-.868 19.12-4.418 28.536h13v9c-2.963.988-4.971 1.134-8.063 1.125l-2.66.008C188 406 188 406 186 405l-.75 2.625c-1.535 4.145-3.238 8.106-7.09 10.535-2.434.947-4.244 1.075-6.848 1.027l-2.386-.019C167 419 167 419 166 418c-1.5-.022-3 .01-4.5.063-16.883.13-34.373-3.253-50.5-8.063l-3.21-.902c-8.2-2.38-15.668-5.35-22.79-10.098v-2l-2.188-.625C76.938 393.503 73.946 387.609 71 382l-1.102-2.047c-2.97-5.683-4.038-10.299-3.96-16.765l.027-2.958L66 358c-.592-.315-1.183-.63-1.793-.953A322.015 322.015 0 0 1 57 353l-3.063-1.75c-2.63-3.055-2.085-5-1.863-8.89-.126-4.011-2.13-6.942-4.074-10.36-3.228-6.276-4.858-12.325-6.094-19.277-.596-2.826-.596-2.826-2.75-3.727L37 308c-3.664-4.519-5.026-8.827-6.25-14.375l-.523-2.23A555.02 555.02 0 0 1 29 286l-1.766 1.52C25 289 25 289 21.25 288.688L18 288c-3.396-8.065-3.307-15.383-3-24l-2.36.547C10 265 10 265 7.75 264.25 6 263 6 263 5 260c-.115-1.804-.178-3.61-.21-5.418l-.081-3.281-.084-3.488C4.285 236.617 3.567 225.702 0 215c-.723-7.346 1.076-12.72 3.707-19.566 1.102-2.926 1.99-5.793 2.793-8.809 1.36-4.658 3.303-8.93 6.5-12.625l2.035-.969c2.127-.87 2.127-.87 2.938-3.008 1.364-2.687 2.743-3.17 5.464-4.398a209.691 209.691 0 0 0 11.5-5.813l2.715-1.48c1.827-1.036 3.6-2.167 5.348-3.332 5.124-.57 5.124-.57 8 0 3.633 3.346 5.812 7.302 6.159 12.277.038 2.681.015 5.354-.034 8.036l-.027 2.822A879.058 879.058 0 0 1 57 185l1.937.875C61 187 61 187 62 189c-.169 6.758-1.558 13.418-3 20l1.922 1.207c2.477 2.137 2.776 3.308 3.328 6.48.15.809.3 1.617.453 2.45L65 221l2.25-.625c3.073-.42 4.178.006 6.75 1.625.183 4.675-.267 7.72-2 12-.46 2.99-.75 5.986-1 9l2.375.25C76 244 76 244 77.16 245.732c.972 2.623 1.006 4.52.902 7.311-.108 5.822.344 11.482.938 17.27 1.142 11.37 1.142 11.37 1 16.687h2l.805-2.18c2.978-7.026 7.742-13.272 12.257-19.382C103.806 253.518 110.43 240.21 117 227l-2.414.07c-10.524.18-10.524.18-15.586-2.07v-2l-3-1c-1.747-3.493-3-6.068-3-10l-1.75-.188c-3.276-1.182-4.362-2.917-6.25-5.812-.857-2.325-1.43-4.58-2-7l-2.875-.25C77 198 77 198 75.625 196.375c-.834-3.17-.75-6.114-.625-9.375h-2c-2.793-2.578-3.002-4.025-3.25-7.875.127-3.44.673-6.733 1.25-10.125.263-4.915-.368-8.393-2-13-1.269-6.593-1.184-13.179-1.188-19.875l-.037-3.434C67.75 117.377 67.75 117.377 72 111c2.125-.688 2.125-.688 4-1z" fill="rgba(17, 16, 16, 1)" stroke="none"/>
  <path d="M180 275h3v2l4 1-.938 2.188c-1.39 3.68-2.062 6.88-2.062 10.812l-3 2-.313 3.25c-.729 3.978-.964 4.315-3.812 6.75-1.68 1.39-1.68 1.39-2.875 3 .328 2.334.66 4.668 1 7a119.178 119.178 0 0 1-6 5c-.963 3.176-.963 3.176-1 6l3 2c.188 3.625.188 3.625 0 7 3.443.422 5.992.71 8.916-1.35l1.83-1.673 1.861-1.678L185 327a6343.84 6343.84 0 0 1-.8 28.352c-.131 4.275-.247 8.551-.348 12.828-.37 12.592-1.248 29.232-8.852 39.82-2.125 1.223-2.125 1.223-4 2-8.418-5.227-12.838-10.077-17-19l-1.531-2.367c-1.803-3.232-2.645-6.496-3.469-10.07l-.51-2.155c-.34-1.454-.679-2.91-1.012-4.365-.417-1.781-.87-3.554-1.33-5.324-2.868-11.705-3.361-23.73-4.148-35.719-2-.043-4-.04-6 0-1.439 1.204-1.439 1.204-1.02 4.734.536 15.381 2.748 30.295 7.322 45.01a238.213 238.213 0 0 1 1.886 6.506c1.67 5.054 4.393 9.51 7.12 14.054C154 405.812 154 405.812 154 408c-4.827.205-8.85-.35-13.531-1.496-3.607-.736-7.22-.946-10.89-1.16-2.8-.374-4.974-1.275-7.579-2.344a106.65 106.65 0 0 0-5-.813c-12.062-2.07-24.432-7.22-33-16.187-2.024-3.33-3-5.113-3-9l-3-1c-4.322-8.871-1.752-18.291 1.25-27.125l.91-2.84c1.426-4.337 2.956-8.424 5.09-12.465 2.137-4.36 1.894-5.995.75-10.57l3-2c.25-2.584.25-2.584 0-5l-6-1c0-2 0-2 2.313-4.563C88 308 88 308 91 307l1-3h2l.375-2c.77-3.697 1.695-7.34 2.625-11 3.639-.958 7.27-1.498 11-2v3c2.593 1.217 2.593 1.217 6 1 2.269-1.908 4.146-3.962 6.07-6.215C122 285 122 285 126 285l2 7c6.165-.377 9.174-2.159 14-6l2 3c2.563.73 2.563.73 5 1l.785-1.703c1.35-2.55 2.907-4.75 4.653-7.047l1.808-2.422L158 277h3l1 2c3.03.658 3.03.658 6 1v-2c3.855-1.434 6.899-2.117 11-2l1-1z" fill="rgba(71, 70, 70, 1)" stroke="none"/>
  <path d="M298.813 139.688c3.187.312 3.187.312 5.562 1.937 2.052 2.999 2.02 4.812 1.625 8.375l-1 1c.448 4.65.448 4.65 2 9 .353 6.47.353 6.47-2 10-.272 2.21-.272 2.21-.313 4.625-.383 4.971-1.978 8.086-4.546 12.285-1.625 2.977-1.893 5.736-2.141 9.09-.645 6.454-.645 6.454-2.059 8.629-2.941 2.077-6.138 2.203-9.628 2.559l-2.127.248c-1.728.2-3.457.383-5.186.564l1.855 1.602c2.55 2.85 3.33 5.125 4.457 8.773l.618 1.957c.453 1.437.9 2.875 1.343 4.315.77 2.491 1.56 4.975 2.356 7.458 4.996 15.614 4.996 15.614 7.094 22.633 2.89 9.553 5.917 18.55 10.876 27.254 1.558 2.81 2.433 4.571 2.198 7.82C309 292 309 292 307.75 293.938L307 296c.98 2.01 1.986 4.007 3 6 .31 1.764.577 3.537.813 5.313.667 4.275 1.762 6.944 4.312 10.437 2.174 2.993 2.885 4.302 3.625 8.063-.75 3.187-.75 3.187-3.188 5.5-4.137 1.96-8.069 2.928-12.562 3.687l1.46 2.781c6.816 13.143 10.124 25.66 6.603 40.531C307.416 388.416 299.45 395.47 290 400l-2.773 1.363c-13.666 6.21-28.316 7.237-43.083 8.387-2.12.247-4.081.717-6.144 1.25a68.304 68.304 0 0 1-4.25.063L230 411l-.875 1.938C228 415 228 415 226 416c-7.082.737-11.789-.447-17.438-4.938L207 409c.438-2.063.438-2.063 1-4-1.375-1.709-1.375-1.709-3-3v-1l-2-3c-2.508-5.28-3.457-10.172-3.434-16.023l-.02-2.241c-.014-2.371-.002-4.74.017-7.111l.007-2.449c.055-11.884.866-22.78 4.43-34.176.358-1.354.708-2.71 1.05-4.066 2.797-10.764 2.797-10.764 5.95-12.934h4c2.239 5.348 2.239 5.348 1.184 8.227L215 330c-.729 2.56-1.42 5.107-2.063 7.688l-.536 2.135c-1.16 4.774-1.934 9.443-2.225 14.357C210 356 210 356 209 358c-1.04 14.75-2.374 33.683 7 46 2.737 2.24 2.737 2.24 5.438 1.941 3.447-1.266 4.505-2.989 6.562-6.003l2.082-3.032L232 394l1.45-2.156c5.173-7.964 8.875-16.203 11.655-25.278C246 364 246 364 248 361c1.063-3.463 1.975-6.955 2.902-10.457 1.06-3.42 2.406-6.395 4.098-9.543 2.375.188 2.375.188 5 1 1.313 2.563 1.313 2.563 2 5h2l.781-1.793c3.821-6.92 12.626-12.175 19.219-16.207h2v-2a273.618 273.618 0 0 1 4.688-2.563l2.636-1.44c3.06-1.14 4.595-.924 7.676.003v2h5l-1.375-3.125c-2-4.696-3.524-9.299-4.5-14.313-.656-3.185-1.535-5.47-3.313-8.187-2.168-4.037-1.882-6.005-.812-10.375l3-1-1.625-3c-2.456-4.886-4.31-9.97-6.18-15.1-1.169-3.198-2.38-6.319-3.754-9.44-1.482-3.56-2.494-7.036-3.441-10.772-.345-1.331-.692-2.662-1.04-3.993L282 242c-1.286-4.764-2.746-9.4-4.555-13.992l-.842-2.157a263.794 263.794 0 0 0-1.71-4.232c-1.555-3.934-2.248-6.548-.893-10.619-4.174 2.716-8.306 5.477-12.328 8.414-6.989 5.103-13.933 9.664-21.672 13.586l-2.691 1.473c-8.064 4.314-8.064 4.314-13.309 3.527l-2-1v-6l4-1v-2l2.273-.918A661.35 661.35 0 0 0 238 223c.847-.36 1.694-.722 2.566-1.094 7.014-3.235 12.822-7.865 18.829-12.635 9.164-7.257 15.95-11.044 27.605-12.271l-.188-3.063c.238-4.978 1.503-8.94 4.754-12.792 1.795-2.684 1.895-4.568 2.059-7.77.293-5.212.293-5.212 1.375-7.375h2l-.988-2.914c-1.284-4.498-1.271-8.814-1.2-13.461l.002-2.48c.053-7.02.053-7.02 3.998-7.458z" fill="rgba(19, 17, 17, 1)" stroke="none"/>
  <path d="M126 230c3.735.498 5.812.875 9 3 .188 3.625.188 3.625 0 7l2.375-.625L140 239c2 2 2 2 2.125 4.625L142 246l2.125-1.375c2.91-1.645 5.692-2.635 8.875-3.625l2-1c2.04-.07 4.083-.084 6.125-.063l3.32.028L167 240l-1 4 5 4 2-2.625c3.546-4.232 7.936-9.038 13.625-9.664C189 236 189 236 191 238c.125 2.625.125 2.625 0 5l3.813.125 2.144.07c2.357-.062 2.357-.062 5.043-2.195 2.625-.188 2.625-.188 5 0l1 1a176.79 176.79 0 0 1-1 7c2.205.972 2.205.972 5 1a50.08 50.08 0 0 0 5.75-5.188c4.725-4.641 8.902-7.674 15.25-9.812l2.688-1.25c2.849-.924 5.337-.888 8.312-.75l1 5c-5.038 4.915-10.415 8.006-16.668 11.107-3.699 1.869-6.737 3.621-9.332 6.893v3l2 1c.822 6.134.397 10.133-3.25 15.25A539.62 539.62 0 0 1 214 280a158.955 158.955 0 0 0-2.313 3.625L210 286h-2c-2.04 5.048-3.955 10.142-5.879 15.234C201 304 201 304 200 305l-.313 3.313c-.747 4.006-1.584 5.184-4.687 7.687l-2-3c-2.584-.25-2.584-.25-5 0-1.3 3.47-2.01 6.206-2.188 9.938-.49 4.453-2.578 6.881-5.824 9.851C178 334 178 334 174.063 333.938L171 333l-.313-3.375L170 326l-3-2c.125-2.688.125-2.688 1-6l3.125-2.438c.949-.845 1.898-1.69 2.875-2.562l-.5-3.438L173 306c1.365-1.731 2.903-3.024 4.578-4.453 2.256-2.454 2.051-5.334 2.422-8.547 2.063-1.438 2.063-1.438 4-2l-.75-3.125c-.303-4.698.858-6.282 3.75-9.875l-4-1v-2l-1.563 1c-3.22 1.321-5.98 1.062-9.437 1-2.31.429-2.31.429-4 1v2h-6l-1-3h-3l-.793 1.703c-1.327 2.525-2.827 4.75-4.52 7.047l-1.738 2.422C149 290 149 290 146.383 290.359c-2.797-.421-3.656-1.177-5.383-3.359l-2.563 2.438c-3.31 2.768-6.074 3.478-10.437 3.562-2-2-2-2-2.125-5.125L126 285c-4.76 1.298-7.123 4.029-10.254 7.637C114 294 114 294 111.91 293.77 110 293 110 293 108 292v-3l-3 2c-6.986.676-6.986.676-11-2l-2-2 2-4h2l.785-2.16c1.29-3.017 2.847-5.553 4.656-8.29l2.018-3.068 2.104-3.17c1.377-2.086 2.753-4.173 4.128-6.261l1.85-2.792c1.46-2.171 1.46-2.171 2.459-4.259h2l.25-1.988c1.01-4.056 2.836-7.501 4.75-11.2l1.117-2.193c.956-1.875 1.92-3.747 2.883-5.619l1-2z" fill="rgba(186, 163, 128, 1)" stroke="none"/>
  <path d="M48 165l.06 2.34c.095 3.49.205 6.981.315 10.473.03 1.214.062 2.43.094 3.681l.117 3.526.095 3.253c.135 2.943.135 2.943 2.319 5.727.313 2.723.133 5.244 0 8l-1 1a153.02 153.02 0 0 0-.063 6.563l.028 3.628L50 216l1.96.695C54 218 54 218 54.54 220.242c.027.869.056 1.738.085 2.633.138 3.552.386 6.114 2.375 9.125 2.555.812 2.555.812 5 1l-.496 2.723c-.792 5.546-.61 11.124-.566 16.714l.013 3.374c.012 2.73.028 5.46.049 8.189l9 2 .148 3.438.227 4.562c.03.744.062 1.488.094 2.254.197 3.779.58 7.288 1.547 10.953.856 3.3 1.23 6.099 1.359 9.48.337 4.575 1.166 7.077 4.625 10.313-2 4-2 4-3.063 5.813-1.284 2.996-1.565 5.965-1.937 9.187l1.75.313c2.573.786 4.147 2.039 6.25 3.687l-1.68 3.254-2.195 4.308-1.105 2.135c-2.22 4.378-3.83 8.54-5.02 13.303-2.169-.506-4-1-6-2a477.198 477.198 0 0 1-1.375-5.816c-.977-3.413-2.751-6.196-4.625-9.184-3.194-5.277-5.274-10.332-6.895-16.29l-.917-3.335-.895-3.352C48.777 305.48 47.09 304.222 44 302c-1.869-2.803-2.374-4.063-2.965-7.238l-.486-2.487c-.322-1.713-.642-3.426-.961-5.14C38.648 282.349 37.62 278.2 35 274c-2.843-.995-4.99-1-8-1v2h-4v-26l-9-2-.26-2.599c-.32-3.19-.642-6.381-.967-9.571-.14-1.38-.278-2.759-.416-4.138-.198-1.986-.4-3.972-.603-5.958l-.365-3.618c-.31-2.476-.779-4.71-1.389-7.116-.604-6.401.468-11.61 2.75-17.563l.766-2.13C16.508 186.174 19.38 178.725 27 174c2.22-.842 4.442-1.501 6.727-2.145 3.333-1.254 5.771-3.34 8.449-5.648C44 165 44 165 48 165z" fill="rgba(72, 70, 69, 1)" stroke="none"/>
  <path d="M88 118c4.664 1.738 7.241 3.862 10 8v2l2.438-.063C103 128 103 128 104 129c.114 1.89.221 3.782.29 5.675.263 7.187.581 13.737 3.71 20.325l1.25 2.7c6.221 12.391 13.981 17.649 26.75 22.3l3.008 1.148c8.674 2.469 18.383 1.074 26.992-1.148v-2l3-1.5c4.762-2.688 8.295-6.535 12-10.5l2 1c.277 2.734.277 2.734 0 6-1.934 2.266-1.934 2.266-4.438 4.25-3.273 2.476-3.273 2.476-5.562 5.75l-3.375 1.625c-2.218 1.205-3.383 1.864-4.473 4.168l-.59 2.02c-1.556 5.226-5.18 8.14-9.562 11.187l-3 1a86.75 86.75 0 0 0-2 4 123.168 123.168 0 0 1-2.5 3.75l-1.281 1.86L145 214h-2l-.688 1.75c-1.715 2.94-3.44 4.423-6.312 6.25-4.502.418-7.052-.29-10.938-2.5-6.994-3.43-13.432-2.963-21.062-2.5l-.41-2.047c-.676-2.799-1.395-5.33-2.59-7.953-3.122-1.907-3.122-1.907-5.305-2.809-2.999-2.107-3.53-5.574-4.656-8.933-1.495-3.249-3.896-3.791-7.039-5.258-.688-3.438-.688-3.438-1-7l-1.516-1.64c-2.331-3.707-1.72-7.398-1.546-11.673.06-1.662.111-3.325.152-4.988l.09-2.224c-.103-2.652-.103-2.652-1.167-5.78-1.073-3.915-1.32-7.503-1.314-11.527l-.013-2.175a673.385 673.385 0 0 1-.002-4.51c.004-2.307-.02-4.612-.045-6.919-.003-1.465-.003-2.93-.002-4.396l-.028-2.09c.019-1.933.019-1.933.391-5.078 3.742-2.495 5.562-2.376 10-2z" fill="rgba(187, 164, 129, 1)" stroke="none"/>
  <path d="M153 101c1.768.817 3.517 1.673 5.25 2.563l2.703 1.378L163 106v2l1.563.688c6.325 3.405 10.696 7.152 14.437 13.312l2.105 3.219c2.18 3.86 2.587 7.522 2.52 11.906l-.019 2.233c-.383 9.98-4.39 17.842-11.606 24.642l-2.375 2.563c-6.526 6.06-13.804 8.932-22.652 8.753-10.926-1.163-20.509-6.843-27.434-15.191-6.714-9.27-7.626-18.983-6.539-30.125 2.264-10.25 8.162-20.108 17-26 5.045-1.479 9.884-2.307 15.117-2.754 6.173-.807 6.173-.807 7.883-.246z" fill="rgba(245, 245, 245, 1)" stroke="none"/>
  <path d="M273 210l2 1-.688 2.02c-.428 4.083 1.079 7.012 2.688 10.667 3.22 7.728 5.536 15.523 7.625 23.625 3.062 11.79 6.537 22.709 12.36 33.47 1.11 2.427 1.706 4.567 2.015 7.218-.979 1.021-1.98 2.02-3 3-.425 3.944.333 6.073 2.438 9.375 2.34 3.962 2.989 7.037 3.562 11.625.961 2.35 2.026 4.615 3.16 6.887C306 321 306 321 306 325h-5l-1-2c-4.44.516-7.232 1.658-11 4h-3v2c-1.652 1.262-1.652 1.262-3.938 2.688-6.835 4.42-13.11 8.776-18.062 15.312h-2l-1 2-2-7h-4l-2 4h-2c-2.41-5.81-1.965-10.104 0-16h-2c-.771-6.5.21-9.84 3.563-15.5 2.992-5.129 3.848-7.571 2.59-13.262-.327-4.787 2.74-9.081 4.847-13.238a200.75 200.75 0 0 0 2-4.938c2.249-5.723 4.623-11.391 7-17.062l-5-2c-1.04-8.71 1.69-14.533 6-22h2v-2l-2.25.688c-2.75.312-2.75.312-4.875-.657-2.803-3.036-2.55-6.283-2.625-10.219l-.09-2.271c-.07-1.846-.117-3.694-.16-5.541h-2c2.192-5.58 7.025-8.098 12-11l1-1z" fill="rgba(186, 163, 128, 1)" stroke="none"/>
  <path d="M246 96v2l1.563.25c7.464 2.297 11.721 6.773 16.437 12.75l1.598 1.977c5.112 7.377 5.589 17.403 4.402 26.023-1.486 4.078-3.53 7.446-6 11l-1.605 2.504c-4.079 5.88-8.38 9.695-15.395 11.496-11.468 1.594-21.253.658-31-6l-1.848-1.125c-5.699-3.965-9.286-11.142-10.82-17.754-.68-5.758-.297-10.682 1.668-16.121l.676-2.176c3.767-10.337 13.663-16.953 23.164-21.754 5.701-2.62 10.947-3.218 17.16-3.07z" fill="rgba(245, 245, 245, 1)" stroke="none"/>
  <path d="M82 40c6.847-.296 12.31.6 18.813 2.688l2.638.821C121.61 49.27 121.61 49.27 127 54v2l7-2v-5l2-1 1 7c2.332-.376 4.542-.816 6.738-1.7 6.111-2.432 11.898-2.723 18.41-2.745 2.422-.017 2.422-.017 5.852-.555 1.84-1.93 1.84-1.93 3-4h3c.662 9.108-7.415 17.393-13 24a140.075 140.075 0 0 1-5 5l-2.188 2.313C152 79 152 79 150 79v2c-4.875-.875-4.875-.875-6-2-.235-5.53-.235-5.53 1-8-3.07-.43-5.03-.67-8 0-2.778 2.304-4.795 5.159-7 8-4.594 5-9.493 9.211-14.914 13.281-1.987 1.638-3.49 3.27-5.086 5.281-3.735 4.561-8.358 8.524-14.18 9.985-3.904.265-5.698-.45-8.757-2.86-3.49-4.547-3.329-8.96-3.563-14.476l-.123-2.603c-.174-3.678-.338-7.356-.502-11.035-.121-2.683-.248-5.366-.375-8.05l-.107-2.54c.17-3.805.17-3.805-1.393-6.983-.1-2.248-.13-4.5-.125-6.75l-.008-3.734C80.98 45.53 81.304 42.894 82 40z" fill="rgba(251, 209, 203, 1)" stroke="none"/>
  <path d="M293 4v2h2c2.83 5.42 5.156 10.757 7.063 16.563l.778 2.353c4.287 13.346 6.357 26.897 6.347 40.897v2.938C309.05 85.95 309.05 85.95 306 89c-6.72-.72-6.72-.72-8-2-.064-2.43-.066-4.833-.027-7.262l.037-4.584c.024-2.4.052-4.8.086-7.2.19-14.267-.746-27.45-5.596-41.017l-.934-2.716c-1.423-4.115-2.894-8.2-4.566-12.221-5.496 1.372-10.183 3.436-15.188 6.062a856.73 856.73 0 0 1-4.167 2.16l-1.833.962c-1.914.862-3.766 1.367-5.812 1.816v2c-3.462 3-3.462 3-6 3l-.758 1.79c-1.407 2.503-2.886 3.792-5.117 5.585-2.611 2.19-4.693 4.168-6.5 7.062L240 45h-2l-2 6c-2.062.054-4.125.093-6.188.125l-3.48.07c-3.32-.194-5.299-.944-8.332-2.195a108.46 108.46 0 0 0-6.813-.625l-3.519-.227L205 48v-2l-2.188.062C200 46 200 46 197.313 45.375L195 45l-2 2c-2.625.125-2.625.125-5 0v-3l-2.188-.25c-5.027-1.34-8.278-5.085-11.812-8.75l-.25 3c-.625 4.502-2.472 9.722-5.75 13-2.669.16-5.329.278-8 .375-6.497.297-11.943 1.17-18 3.625-3 .75-3 .75-5 1-1-1-1-1-1.375-4.875.035-2.188.035-2.188.375-4.125 6.733-6.121 17.488-5.551 26-6 1.555-3.531 2.325-6.683 2.813-10.5.854-5.15 2.066-7.355 6.187-10.5l7 3v2l3 1 .438 1.937c.358 2.242.358 2.242 2.5 3.25L186 32l2 1 1.188-2.438C191 28 191 28 193.375 27c3.497 0 4.892.827 7.625 3 4 5.19 4 5.19 4 9l2.563-.07c6.584-.105 12.128.235 18.437 2.07h4c1.869-1.83 1.869-1.83 3.563-4.313C244.357 22.613 256.91 13.293 273 6l3.07-1.48 3.18-1.458 2.89-1.34C286.38.653 289.21 2.106 293 4z" fill="rgba(21, 19, 19, 1)" stroke="none"/>
  <path d="M290 326l.48 1.836c1.275 4.577 2.718 8.81 4.895 13.039 5.624 10.975 10.238 20.795 7.043 33.426-1.283 3.204-3.082 6.16-5.418 8.699h-2l-.688 1.75c-1.685 2.889-3.539 4.401-6.312 6.25h-4v2c-14.774 4.886-29.54 6.618-45 8 1.456-4.643 3.283-7.964 6-12 1.804-3.27 3.404-6.625 5-10l.858-1.76c4.813-9.93 7.616-19.312 9.142-30.24h4l.781-1.793c3.821-6.92 12.626-12.175 19.219-16.207h2v-2c3-1 3-1 4-1z" fill="rgba(70, 70, 69, 1)" stroke="none"/>
  <path d="M161 95l1 2c2.025.652 2.025.652 4 1v2l2.125.684c3.49 1.597 6.09 3.797 8.875 6.379l1.61 1.49c4.22 4.038 7.088 8.053 9.39 13.447l1.176 2.43c4.105 9.057 3.726 18.137.824 27.57-4.38 10.13-12.01 19.606-21 26h-3v2c-12.805 4.957-23.986 3.793-36.406-1.297-11.574-5.485-17.796-13.5-23.594-24.703-1.003-3.01-1.129-5.039-1.133-8.184l-.004-3.06.012-3.193-.012-3.182.004-3.065.004-2.798c.119-2.32.474-4.297 1.129-6.518h2l-.23-2.586c.286-4.245 1.65-6.46 3.918-10.039l2.074-3.352c2.182-2.947 4.296-4.869 7.238-7.023l1.438-1.563c4.584-4.217 9.62-4.925 15.562-5.437v-2c8.062-2.687 15.59-.568 23 3zm-14 6c-1.89.341-3.788.65-5.688.938l-3.277.554c-2.258.378-4.52.73-6.785 1.07-7.193 3.182-11.558 9.96-14.363 17.102L116 123l-1.578 3.25c-1.738 4.048-1.92 7.761-1.86 12.125l.02 2.267c.165 5.851 1.258 10.365 4.418 15.358l1.75 3.125c5.315 6.792 11.22 10.871 19.25 13.875l2.875 1.25c9.582 2.3 16.808.49 25.098-4.418 4.112-2.698 6.43-5.6 9.027-9.832l2-1c5.918-9.2 8.236-19.224 6-30-2.656-6.33-6.836-11.498-12-16l-1.57-1.402c-2.808-2.728-2.808-2.728-6.43-3.598v-2a955.742 955.742 0 0 0-4.75-2.438l-2.672-1.37c-4.254-2.139-4.254-2.139-8.578-1.192z" fill="rgba(10, 9, 9, 1)" stroke="none"/>
  <path d="M240 85.625c5.064.062 8.852 2.708 13 5.375l2.898 1.844c7.94 5.52 15.88 12.322 20.102 21.156l1.813 3.5c2.941 8.554 2.467 19.976-1.434 28.078L275 148l-1.66 2.922c-5.558 8.992-12.493 18.13-23.027 21.203-11.11 2.008-22.167 2.338-32.313-3.125v-2l-3.438-.813L211 165l-1-3a177.537 177.537 0 0 0-4-2c-3.36-2.94-5.228-5.944-7.188-9.938l-1.542-3.09c-3.276-7.67-3.448-17.943-1.27-25.972 2.864-7.1 6.032-13.117 12-18h2v-2c5.412-4 5.412-4 8-4v-2c3.418-2.54 5.758-3.364 10-3v-2l1.715-.621 2.222-.817 2.215-.808c4.94-2.015 4.94-2.015 5.848-2.129zM211 112c-6.465 7.468-7.987 15.302-8 25 1.252 7.386 4.732 14.57 10.688 19.25 1.422.94 2.86 1.856 4.312 2.75l2.07 1.477c8.734 5.447 20.28 5.032 30.063 2.812C257.6 160.176 261.745 153.594 266 147l1.45-2.066c4.49-7.295 3.464-17.142 1.613-25.184-2.088-6.08-6.574-10.315-11.063-14.75l-2.125-2.18C252.818 99.852 250.317 98 246 98v-2c-13.937-.697-25.17 6.829-35 16z" fill="rgba(9, 9, 9, 1)" stroke="none"/>
  <path d="M48 165l.06 2.34c.095 3.49.205 6.981.315 10.473.03 1.214.062 2.43.094 3.681l.117 3.526.095 3.253c.135 2.943.135 2.943 2.319 5.727.313 2.723.133 5.244 0 8l-1 1a153.02 153.02 0 0 0-.063 6.563l.028 3.628L50 216l4 2v8c-7.429.286-7.429.286-11-2v-2h-2c-1.513-7.567-.283-14.451 1-22-3.883 1.411-5.76 2.464-8 6l-7-1-.875 2.25A81.918 81.918 0 0 1 23 214l3 1c.042 2.333.04 4.667 0 7l-1 1a271.218 271.218 0 0 0-.5 8.438c-.366 8.293-.366 8.293-1.5 10.562l2.438.438C28 243 28 243 29 244c.145 1.574.227 3.154.281 4.734l.114 2.93.105 3.086c.07 1.995.142 3.99.219 5.984l.092 2.695c.19 2.593.625 5.035 1.189 7.571l-5 1v2h-2l-1-25-9-2-.26-2.599c-.32-3.19-.642-6.381-.967-9.571-.14-1.38-.278-2.759-.416-4.138-.198-1.986-.4-3.972-.603-5.958l-.365-3.618c-.31-2.476-.779-4.71-1.389-7.116-.604-6.401.468-11.61 2.75-17.563l.766-2.13C16.508 186.174 19.38 178.725 27 174c2.22-.842 4.442-1.501 6.727-2.145 3.333-1.254 5.771-3.34 8.449-5.648C44 165 44 165 48 165z" fill="rgba(184, 162, 128, 1)" stroke="none"/>
  <path d="M281 23v3h2c3.386 6.188 5.328 12.164 7 19l.629 2.105c1.427 5.16 1.61 10.261 1.683 15.583l.054 2.197C292.358 71.2 290.384 76.321 286 81c-4.035 1.515-8.127.765-12.048-.836C266.818 76.804 260.06 73.07 254 68l-2.625-1.563c-4.14-2.505-5.933-4.777-7.375-9.437-.747-4.854 1.19-7.134 4-11 1.852-2.112 3.809-4.095 5.813-6.063l1.603-1.586C264.998 29 264.998 29 269 29v-2c4.09-3.312 6.736-4.501 12-4z" fill="rgba(249, 208, 203, 1)" stroke="none"/>
  <path d="M200 166l3 2c.336 2.93.513 5.689.563 8.625.135 6.083.53 11.56 2.437 17.375 3.228 2.152 4.284 2.2 8 2 .11-5.605.11-5.605-.688-11.125-.41-3.769.758-5.683 2.688-8.875 1-1 1-1 3.563-1.063L222 175l2 5h2c3.763 5.644 3.792 11.37 3 18-1.525 4.832-4.011 8.809-8 12h-2v2c-5.322.665-8.907.544-13.25-2.813-1.252-1.06-2.503-2.121-3.75-3.187-1.648-1.03-3.306-2.047-5-3l-.625 1.688c-1.981 3.332-3.877 5.65-7.375 7.312-6.26 1.099-12.181 1.185-17.563-2.5-4.194-3.777-6.875-8.002-7.777-13.613-.209-4.443.6-7.41 3.34-10.887 2.982-1.491 5.716-1.12 9-1 1 1 1 1 1.098 3.941l-.036 3.621-.027 3.63L177 198c3.024.653 5.9 1.118 9 1 3.885-3.205 4.437-6.157 5-11 .114-3.793.094-7.58.063-11.375l-.014-3.098c-.012-2.509-.028-5.018-.049-7.527 3.119-1.56 5.655-.646 9 0z" fill="rgba(5, 4, 4, 1)" stroke="none"/>
  <path d="M76 110l1 2h2l-.032 3.653c-.036 4.493-.059 8.986-.078 13.48-.01 1.94-.024 3.881-.04 5.822a1505.11 1505.11 0 0 0-.045 8.393l-.032 2.608c0 5.061.71 9.171 2.227 14.044.18 2.475.18 2.475.09 4.7l-.06 2.474c-.062 1.687-.127 3.375-.196 5.062-.107 4.67-.136 7.19 3.166 10.764l.313 3.563L85 190a201.065 201.065 0 0 0 6 3c1.897 3.54 3 5.975 3 10l2.25.75c3.14 1.427 4.699 2.466 6.75 5.25.621 2.702.814 5.216 1 8 1.036-.095 2.073-.19 3.14-.29l4.11-.335 2.066-.195c3.807-.296 6.462-.356 9.684 1.82v2h-2v-2h-5l1 7h2c-.573 2.867-.861 3.861-3 6l1-4-2.414.07c-10.524.18-10.524.18-15.586-2.07v-2l-3-1c-1.747-3.493-3-6.068-3-10l-1.75-.188c-3.276-1.182-4.362-2.917-6.25-5.812-.857-2.325-1.43-4.58-2-7l-2.875-.25C77 198 77 198 75.625 196.375c-.834-3.17-.75-6.114-.625-9.375h-2c-2.793-2.578-3.002-4.025-3.25-7.875.127-3.44.673-6.733 1.25-10.125.263-4.915-.368-8.393-2-13-1.269-6.593-1.184-13.179-1.188-19.875l-.037-3.434C67.75 117.377 67.75 117.377 72 111c2.125-.688 2.125-.688 4-1z" fill="rgba(25, 22, 23, 1)" stroke="none"/>
  <path d="M116.063 37.875l2.63.955c5.691 2.193 10.915 4.852 15.307 9.17 1.125 3.25 1.125 3.25 1 6-2 2-2 2-5.125 2.125L127 56v-2c-8.319-4.236-16.922-7.448-25.813-10.25l-2.365-.782C91.314 40.678 83.798 40.326 76 40c.382 5.799.773 11.597 1.172 17.395.134 1.969.266 3.937.395 5.906.188 2.846.384 5.69.581 8.535l.168 2.627a100.756 100.756 0 0 0 2.258 15.219c.787 4.28 1.414 9.341-.574 13.318l-7-1c-2.22-5.953-3.539-11.489-4.063-17.813l-.464-5-.23-2.582c-.243-2.6-.52-5.196-.81-7.793-2.943-26.643-2.943-26.643.13-33 11.464-13.228 34.935-2.956 48.5 2.063z" fill="rgba(27, 25, 25, 1)" stroke="none"/>
  <path d="M76 40h6l-.016 1.728c-.02 2.57-.034 5.14-.047 7.71l-.025 2.72-.01 2.588-.016 2.396C81.795 59.016 81.795 59.016 83 60c.195 2.81.33 5.603.43 8.418.073 1.747.148 3.493.222 5.24.114 2.76.223 5.52.322 8.282.098 2.66.213 5.319.33 7.978l.077 2.482c.229 4.868.942 8.378 3.619 12.6 3.215 1.608 6.512 1.47 10 1 3.205-1.609 3.205-1.609 6-4l3-2.313c2.88-2.434 5.21-5.213 7.617-8.105C116.24 89.726 117.892 88.28 120 87h2l1 8 3 1v2l-1.938.313L122 99l-1 3-2.328 1.82c-2.987 2.437-4.507 4.725-6.422 8.055l-1.797 3.055c-1.463 3.09-2.07 5.688-2.453 9.07h-2l-1 22h-1l-1-17-5-1a748.858 748.858 0 0 1-4-6c-4.887-3.41-9.27-3.344-15-3v-7h-2l-3-10 6 1c.056-1.625.093-3.25.125-4.875l.07-2.742c-.163-2.822-.54-5.232-1.132-7.977-1.261-5.977-1.75-11.945-2.188-18.031l-.257-3.439C76.006 57.272 75.764 48.683 76 40z" fill="rgba(74, 71, 69, 1)" stroke="none"/>
  <path d="M175 351c2.343.256 4.678.593 7 1 5.452 10.905 1.548 32.126-1.86 43.61-3.934 11.696-3.934 11.696-7.265 13.613L171 410c-8.4-5.217-12.86-10.07-17-19l-2-3c-.125-3.188-.125-3.188 0-6h3v2h2l.875-2.188L161 374h2c.26-.853.518-1.707.785-2.586 1.269-3.566 2.844-6.717 4.653-10.039l1.808-3.352c1.453-2.505 2.952-4.763 4.754-7.023z" fill="rgba(186, 164, 129, 1)" stroke="none"/>
  <path d="M82 40c6.847-.296 12.31.6 18.813 2.688l2.638.821C121.61 49.27 121.61 49.27 127 54v2l7-2v-5l2-1 1 7c2.332-.376 4.542-.816 6.738-1.7 6.111-2.432 11.898-2.723 18.41-2.745 2.422-.017 2.422-.017 5.852-.555 1.84-1.93 1.84-1.93 3-4h3c.662 9.108-7.415 17.393-13 24a140.075 140.075 0 0 1-5 5l-2.188 2.313C152 79 152 79 150 79v2c-4.875-.875-4.875-.875-6-2-.235-5.53-.235-5.53 1-8-1.423.03-1.423.03-2.875.063C139 71 139 71 137 70l-.375-2.438c-.348-2.683-.348-2.683-2.5-3.812-1.702-.6-3.412-1.18-5.125-1.75v-2l-1.652-.445c-4.415-1.313-7.85-2.77-11.535-5.555-4.897-3.501-9.912-4.363-15.774-5.36C97 48 97 48 94 46c-2.325-.387-4.66-.718-7-1-1.67-.32-3.337-.647-5-1v-4z" fill="rgba(186, 163, 130, 1)" stroke="none"/>
  <path d="M262 24v3c-1.43 1.197-2.865 2.387-4.34 3.527-1.816 1.611-3.052 3.279-4.41 5.285L251 39h-2l-.262 2.078c-.915 3.624-2.603 6.527-4.55 9.672l-1.042 1.785c-2.627 4.289-2.627 4.289-5.345 5.211L236 58a103.73 103.73 0 0 0-2 5c-1.75 2.313-1.75 2.313-4 4-3.25.25-3.25.25-6 0v-2h-2v-2l-3 1c-4.46 1.281-9.727 2.136-14 0l-1 3-7-1 1-10h-4c-2.25-2.25-2.25-2.25-4-5v-4c2.188-1.813 2.188-1.813 5-3 2.5.25 2.5.25 5 1l2.813.563L205 46v2l2.668-.07 3.52-.055 3.48-.07c3.315.194 5.293.98 8.332 2.195 3.355.24 3.355.24 6.813.125l3.519-.055L236 50l2-5h2l.809-1.766C244.187 36.898 254.342 24 262 24z" fill="rgba(183, 162, 129, 1)" stroke="none"/>
  <path d="M212 347c3.297.33 4.623.623 7 3-.375 2.625-.375 2.625-1 5h-2l-.313 1.688c-.818 2.752-2.213 4.855-3.687 7.312-.696 2.191-.696 2.191-1 4l3 1c1.322 2.645 1.097 4.678 1.063 7.625l-.028 3.04L215 382l2.875-.625L221 381l2 2c2.318.72 4.651 1.391 7 2l5-9h6c-1.293 11.867-10.36 22.335-18 31-4.458-.775-6.813-1.645-10-5-4.666-9.812-5.327-20.894-5.25-31.563l-.023-3.248c.039-15.955.039-15.955 4.273-20.189z" fill="rgba(184, 163, 130, 1)" stroke="none"/>
  <path d="M215 319c2.239 5.348 2.239 5.348 1.184 8.227L215 330c-.729 2.56-1.42 5.107-2.063 7.688l-.536 2.135c-1.16 4.774-1.934 9.443-2.225 14.357C210 356 210 356 209 358c-.249 3.806-.19 7.624-.188 11.438l-.001 3.382c.061 9.825.89 19.449 2.189 29.18l-4 2-2-2v-1l-2-3c-2.508-5.28-3.457-10.172-3.434-16.023l-.02-2.241c-.014-2.371-.002-4.74.017-7.111l.007-2.449c.055-11.884.866-22.78 4.43-34.176.358-1.354.708-2.71 1.05-4.066C208.41 319 208.41 319 215 319z" fill="rgba(7, 6, 6, 1)" stroke="none"/>
  <path d="M139.063 329.813C142 330 142 330 143 331c.18 1.663.3 3.333.395 5.004.714 11.216 1.566 21.874 4.703 32.691.936 3.43 1.428 6.785 1.902 10.305 1.482 6.613 4.556 11.775 8.379 17.324 1.71 2.823 2.692 5.518 3.621 8.676l-4 4-3-1v-3l-3-1a85.176 85.176 0 0 1-4.063-6.625c-.35-.605-.702-1.21-1.064-1.832-2.3-4.078-3.712-7.98-4.873-12.543l-.965-3.148c-3.856-12.79-6.086-25.448-6.847-38.79l-.161-2.639c-.095-2.139-.071-4.282-.027-6.423 2-2 2-2 5.063-2.188z" fill="rgba(10, 7, 7, 1)" stroke="none"/>
  <path d="M157.438 116.188c6.255 4.424 8.771 10.529 10.562 17.812.343 4.03.41 7.973 0 12-1 1-1 1-3.438 1.188C162 147 162 147 160 145c-.563-2.61-.563-2.61-1-5.75-.935-7.663-.935-7.663-4.75-14.125-3.083-1.542-4.818-1.587-8.25-1.125-5.533 1.924-10.06 4.757-13 10-.544 2.79-.436 5.423-.25 8.25.327 7.597.327 7.597-.75 9.75h-6c-3.154-6.625-3.522-15.57-1.125-22.547 6.828-11.589 19.503-17.777 32.563-13.266z" fill="rgba(11, 11, 11, 1)" stroke="none"/>
  <path d="M254 117c4.128 5.057 5.15 8.955 5.188 15.375l.042 3.398c-.226 3.176-.876 5.37-2.23 8.227-2.875.125-2.875.125-6 0-2-2-2-2-2.09-5.082.101-2.48.206-4.958.313-7.438-.243-3.79-.81-5.571-3.223-8.48-1.914-.843-1.914-.843-4-.875l-2.063-.18c-2.157-.032-2.157-.032-4.937 1.055-2.468 3.487-2.648 7.617-3.125 11.75l-.262 2.113A823.55 823.55 0 0 0 231 142l-7 1c-2.76-4.852-2.69-9.74-1.547-15.14.465-1.636 1-3.25 1.547-4.86h2v-3c8.241-9.333 17.644-9.37 28-3z" fill="rgba(22, 22, 22, 1)" stroke="none"/>
  <path d="M279.316 176.414C281 178 281 178 281.688 180.313c-1.124 4.39-3.978 6.43-7.688 8.687-8.514 3.89-16.671 6.885-25.938 4.125C246 192 246 192 244 190c-.44-3.892-.488-6.191 1.559-9.582 3.009-2.98 5.858-3.891 9.879-4.793l2.13-.502c6.995-1.496 15.402-2.583 21.748 1.291z" fill="rgba(244, 207, 202, 1)" stroke="none"/>
  <path d="M54 229l1.188 1.438c2.22 1.914 3.946 2.175 6.812 2.562l-.496 2.723c-.792 5.546-.61 11.124-.566 16.714l.013 3.374c.012 2.73.028 5.46.049 8.189l9 2c.335 4.377.656 8.755.964 13.135.107 1.49.218 2.98.332 4.47.164 2.139.314 4.278.462 6.418l.285 3.904C72 297 72 297 70 299c-3.125.125-3.125.125-6 0-2.57-4.369-2.802-8.958-3.438-13.906-.37-2.993-.37-2.993-1.624-4.992-1.473-3.3-1.065-6.687-.938-10.227.094-2.65.093-5.218 0-7.875l-2-2a139.936 139.936 0 0 1-1-8.313c-.455-4.97-1.054-9.05-3-13.687.28-3.294.516-6.031 2-9z" fill="rgba(175, 159, 135, 1)" stroke="none"/>
  <path d="M275 208c2.75-.063 2.75-.063 6 1 3.779 5.308 5.178 12.522 6.973 18.691.749 2.414 1.547 4.723 2.453 7.075 1.805 4.737 3.257 9.564 4.699 14.422.264.875.529 1.751.8 2.654 1.207 4.039 2.291 8.012 3.075 12.158l-3-2-3 1c-2.688-.438-2.688-.438-5-1-3.611-11.6-3.611-11.6-5.168-17.086l-1.207-4.226-.615-2.15c-1.729-5.897-3.84-11.608-6.218-17.274-2.121-5.281-1.53-8.048.208-13.264z" fill="rgba(26, 23, 23, 1)" stroke="none"/>
  <path d="M144.875 188.25c4.766 2.669 4.766 2.669 6.125 5.75-.195 2.488-.195 2.488-1 5-5.296 4.37-12.642 4.38-19.188 4.438l-2.302.03c-5.943-.091-10.968-1.164-15.51-5.28-1.378-3.015-.788-5.037 0-8.188l3.313-.938c8.834-2.545 19.576-3.914 28.562-.812z" fill="rgba(250, 209, 200, 1)" stroke="none"/>
  <path d="M197 203c3.056.582 4.819 1.423 7.125 3.5 2.588 2.46 2.588 2.46 4.875 3.5.414 2.504.414 2.504.625 5.563l.227 3.066L210 221l-6 1-.375 1.875C203 226 203 226 201 228c-3.125.125-3.125.125-6 0l-1-2c-2.49-.277-2.49-.277-5.375-.313-5.34-.394-5.34-.394-7.813-2.937-.844-2.857-1.277-4.803-.812-7.75 1-1.688 1-1.688 3-3l3.813-.75c5.04-1.062 7.315-4.181 10.187-8.25z" fill="rgba(181, 161, 129, 1)" stroke="none"/>
  <path d="M298 92h7c3.412 9.417 5.179 18.108 5.313 28.125l.053 2.28c-.007 5.477-1.002 9.63-3.366 14.595-3.063 1.063-3.063 1.063-6 1l-2-1c.01-.76.02-1.52.032-2.304.042-3.503.067-7.006.093-10.509.017-1.195.034-2.39.05-3.623.037-6.628-.33-12.77-1.779-19.248-.572-3.346-.128-6.022.604-9.316z" fill="rgba(27, 26, 27, 1)" stroke="none"/>
  <path d="M76 40h6l-.016 1.728c-.02 2.57-.034 5.14-.047 7.71l-.025 2.72-.01 2.588-.016 2.396C81.795 59.016 81.795 59.016 83 60c.595 5.922.925 11.858 1.26 17.8.118 2.004.249 4.007.393 6.009.207 2.882.373 5.763.53 8.648l.217 2.712c.108 2.425.155 4.467-.4 6.831-3.011 2.596-3.011 2.596-6 4l2 6h-4l-3-10 6 1c.056-1.625.093-3.25.125-4.875l.07-2.742c-.163-2.822-.54-5.232-1.132-7.977-1.261-5.977-1.75-11.945-2.188-18.031l-.257-3.439C76.006 57.272 75.764 48.683 76 40z" fill="rgba(70, 67, 67, 1)" stroke="none"/>
  <path d="M59 268c6.75-.125 6.75-.125 9 1 .312 2.55.513 5.004.625 7.563l.117 2.154c.095 1.76.177 3.522.258 5.283h1v10h2c-.875 3.875-.875 3.875-2 5-2 .04-4 .043-6 0-2.034-3.455-2.532-6.676-3.063-10.625-.491-4.334-.491-4.334-1.937-8.375-.07-2.04-.084-4.083-.063-6.125l.028-3.32L59 268z" fill="rgba(187, 164, 127, 1)" stroke="none"/>
  <path d="M138 370c1.828 2.743 2.565 4.52 3.438 7.625l.796 2.71c.462 1.606.913 3.215 1.344 4.83 1.72 5.889 4.59 10.906 7.73 16.139C154 405.812 154 405.812 154 408c-6.625.125-6.625.125-10-1a502.64 502.64 0 0 1-2-6 173.788 173.788 0 0 0-4-5v-2h-2c-.426-5.537 1.095-9.897 3-15h-2c-.625-3.375-.625-3.375-1-7l2-2z" fill="rgba(177, 157, 130, 1)" stroke="none"/>
  <path d="M144 336l5 1c.925 4.716 1.23 7.673-1 12l2.938-.063C154 349 154 349 155 350c-.244 4.071-.91 7.159-3 10.625-1.78 3.003-2.587 4.967-3 8.375h2v7h-2l-4-16-.555-1.945c-.505-2.33-.558-4.438-.543-6.82l.01-2.696.025-2.789.014-2.836c.012-2.305.028-4.61.049-6.914z" fill="rgba(176, 158, 128, 1)" stroke="none"/>
  <path d="M181 166l2 1c.277 2.734.277 2.734 0 6-1.934 2.266-1.934 2.266-4.438 4.25-3.273 2.476-3.273 2.476-5.562 5.75-1.777 1.105-1.777 1.105-3.938 2.188l-2.152 1.105L165 187l-2-1v-3l-1.75.438L159 184l-1.89.522c-3.534.8-7.063.704-10.673.728l-2.326.063c-5.678.04-5.678.04-7.845-1.723L135 182c-2.26-.994-2.26-.994-4.688-1.688-.808-.25-1.616-.502-2.449-.761L126 179v-2c3.916.412 6.973 1.415 10.5 3.063 9.385 3.886 19.89 2.417 29.5-.063v-2l3-1.5c4.762-2.688 8.295-6.535 12-10.5z" fill="rgba(174, 156, 132, 1)" stroke="none"/>
  <path d="M262 24v3c-1.43 1.197-2.865 2.387-4.34 3.527-1.816 1.611-3.052 3.279-4.41 5.285L251 39h-2l-.34 2.2c-.69 2.926-1.715 5.023-3.222 7.612l-1.38 2.395L243 53l-1-2h-2l-2 4-2-1v-2l-3.25.625C229 53 229 53 225 51l11-1 2-5h2l.809-1.766C244.187 36.898 254.342 24 262 24z" fill="rgba(174, 155, 126, 1)" stroke="none"/>
  <path d="M212 347c3.297.33 4.623.623 7 3-.375 2.625-.375 2.625-1 5h-2l-.313 1.688c-.818 2.752-2.213 4.855-3.687 7.312-.696 2.191-.696 2.191-1 4l3 1-1 2-4-1v13h-1c-.059-3.98-.094-7.958-.125-11.938-.017-1.116-.034-2.233-.05-3.384-.04-6.556.325-12.37 2.175-18.678l2-2z" fill="rgba(174, 157, 130, 1)" stroke="none"/>
  <path d="M135 233c4.854.857 9.362 2.42 14 4.063 5.8 1.67 12.009 1.621 18 1.937v1l-2.52.148-3.292.227c-1.08.07-2.158.14-3.27.21-3.104.227-3.104.227-5.918 2.415-3.294 1.192-6.587 2.212-10 3l-2-6-6 1 1-8z" fill="rgba(71, 67, 64, 1)" stroke="none"/>
  <path d="M130.375 180.688l2.336-.051c2.289.363 2.289.363 3.969 1.84 3.723 2.444 7.708 2.098 12.07 2.21l2.691.104c2.186.082 4.372.152 6.559.209v1h-9v5l-3.438-1.5c-9.236-3.113-20.076-2.044-29.562-.5 4.419-2.946 6.678-3.099 12-3v-2l-4-1c2.405-2.405 3.082-2.296 6.375-2.313z" fill="rgba(197, 171, 139, 1)" stroke="none"/>
  <path d="M76 40h6l-.016 1.728c-.02 2.57-.034 5.14-.047 7.71l-.025 2.72-.01 2.588-.016 2.396C81.795 59.016 81.795 59.016 83 60c1.209 10.624 1.118 21.325 1 32h-1l-.152-2.551c-.191-3.152-.39-6.303-.593-9.455a990.23 990.23 0 0 1-.25-4.076c-.116-1.964-.244-3.927-.372-5.89l-.222-3.571C80.97 62.753 80.114 59.55 79 56h-3V40z" fill="rgba(127, 112, 110, 1)" stroke="none"/>
  <path d="M265 27l4 1-2.125 1.66c-3.059 2.49-5.978 5.105-8.875 7.777l-1.54 1.409C249.538 44.582 249.538 44.582 245 52a97.595 97.595 0 0 0 0 7l-7-1 1.688-1.938c3.924-5.197 7.13-10.911 9.312-17.062h2l.688-1.688c1.757-3.096 3.523-5.081 6.312-7.312 3.813-.313 3.813-.313 7 0v-3z" fill="rgba(102, 85, 75, 1)" stroke="none"/>
  <path d="M59 244h1l1 20 9 2 2 28h-2l-1-8h-1v-17l-5-1-1 2v-2h-3v10h-1l.035-3.43.028-4.445.025-2.262c.119-4.061.119-4.061-1.088-7.863h2v-16z" fill="rgba(166, 151, 127, 1)" stroke="none"/>
  <path d="M270 242h2c.688 2.188.688 2.188 1 5-1.375 2.5-1.375 2.5-3 5-.707 2.693-.707 2.693-1 5h-2l-1 7 4-1v2l2 1v2h-2v3h-2l1-5-5-2c-1.04-8.71 1.69-14.533 6-22z" fill="rgba(176, 160, 133, 1)" stroke="none"/>
  <path d="M48 165c.168 4.27.334 8.542.5 12.813l.145 3.681.136 3.526.127 3.253c.064 1.908.092 3.818.092 5.727l-4-2 1-3c.08-1.481.108-2.966.098-4.45l-.01-2.568-.025-2.67-.014-2.705A1649.38 1649.38 0 0 0 46 170h-4l-1.5 1.563L39 173c-2.094-.41-2.094-.41-4-1a374.655 374.655 0 0 1 4.25-3.5l2.39-1.969C44 165 44 165 48 165z" fill="rgba(169, 155, 135, 1)" stroke="none"/>
  <path d="M135 48h1l.25 3.375c.329 3.683.329 3.683 2.813 5.063L141 57l-2 3-2.082-.473-2.73-.59-2.708-.597c-2.606-.543-2.606-.543-5.48.66l-4-4-1.75-1.625C119 52 119 52 119 50c3.342.597 5.464 1.736 8 4v2l7-2-.063-2.438C134 49 134 49 135 48z" fill="rgba(162, 145, 125, 1)" stroke="none"/>
  <path d="M42 216l2 1c.625 2.563.625 2.563 1 5l6 2v-3h-3v-2h2v-2l4 1v8c-7.429.286-7.429.286-11-2v-2h-2l1-6z" fill="rgba(178, 164, 137, 1)" stroke="none"/>
  <path d="M48 205h1l.148 2.371.227 3.066.21 3.06c.138.825.274 1.652.415 2.503l2 1h-2v2h-2v2h3v3c-5.875-.875-5.875-.875-7-2-.04-2.333-.042-4.667 0-7l3-1 1-9z" fill="rgba(186, 165, 125, 1)" stroke="none"/>
  <path d="M171 55l1 2 2 1-4 1-.188 2.25c-1.064 3.603-2.865 4.505-5.812 6.75l-1.313 2.313C160.224 74.237 156.895 77.47 153 80l-3-1 3.063-2.5c7.224-6.221 12.63-13.628 17.937-21.5z" fill="rgba(90, 79, 68, 1)" stroke="none"/>
  <path d="M262 24v3a152.507 152.507 0 0 1-4.332 3.527c-2.777 2.452-4.62 5.401-6.668 8.473l-3-2-2-1 1.355-1.137c2.928-2.477 5.743-4.96 8.458-7.675C259 24 259 24 262 24z" fill="rgba(157, 145, 128, 1)" stroke="none"/>
  <path d="M135 353h1c1.206 4.672 1.094 9.215 1 14-4.875-.875-4.875-.875-6-2 .366-4.758 1.178-8.12 4-12z" fill="rgba(168, 153, 129, 1)" stroke="none"/>
  <path d="M69 284h1v10h2c-.875 3.875-.875 3.875-2 5-2 .04-4 .043-6 0-1.784-3.062-2.229-5.22-2.125-8.75l.055-2.422L62 286c1.991 2.986 2.941 5.597 4 9l2-1c.468-2.356.468-2.356.625-5.063l.227-2.785L69 284z" fill="rgba(181, 164, 137, 1)" stroke="none"/>
  <path d="M22 232h1c.143 7.429.143 7.429-1 11h5c-1 2-1 2-3 5l-9-2v-8c2 3 2 3 2 7l3-2c.318-2.001.63-4.007.79-6.027C21 235 21 235 22 232z" fill="rgba(185, 166, 139, 1)" stroke="none"/>
  <path d="M57 207c4.295 2.894 6.27 4.662 7.375 9.813.232 1.392.448 2.787.625 4.187l2.25-.625c3.073-.42 4.178.006 6.75 1.625v7h-1l-1-6-10 1-.078-2.336-.172-3.039-.14-3.023c-.332-2.755-.332-2.755-2.657-3.954L57 211v-4z" fill="rgba(145, 140, 140, 1)" stroke="none"/>
  <path d="M175 351c2.343.256 4.678.593 7 1 1.41 2.818 1.112 5.173 1.098 8.32l-.01 3.809-.025 3.996c-.006 1.34-.01 2.68-.014 4.02-.012 3.285-.028 6.57-.049 9.855h-1v-25l-2-1-1.938-1.063c-2.14-1.144-2.14-1.144-5.062-.937l2-3z" fill="rgba(164, 149, 128, 1)" stroke="none"/>
  <path d="M156 240h11l-1 4 1 2c-3.982 1.718-7.965 3.41-12 5 0-2 0-2 1.25-3.563 1.927-1.582 3.318-2.018 5.75-2.437l-1-3h-5v-2z" fill="rgba(177, 163, 135, 1)" stroke="none"/>
  <path d="M19 182c1.284 3.852.292 5.196-1 9-.442 2.664-.722 5.312-1 8h-2l-.313 1.938L14 203l-3 1c5.617-19.617 5.617-19.617 8-22z" fill="rgba(160, 144, 122, 1)" stroke="none"/>
  <path d="M208 358l1 2h2c.981 3.053.981 4.947 0 8l3 1-1 2-4-1v13h-1v-25z" fill="rgba(151, 137, 117, 1)" stroke="none"/>
  <path d="M158 381l3 1-2 5h-4l3 5-3 1c-2.706-3.833-3.326-6.325-3-11h3v2h2l1-3z" fill="rgba(171, 154, 128, 1)" stroke="none"/>
  <path d="M222 63v2h2v2c4.607-1.21 4.607-1.21 9-3l-1 4c-6.814 1.053-12.368.938-19-1v-2c5.625-2 5.625-2 9-2z" fill="rgba(88, 79, 66, 1)" stroke="none"/>
  <path d="M156 201v5h-2l-.805 1.766c-1.228 2.296-2.598 4.038-4.32 5.984l-1.633 1.86L146 217c-.703-1.68-.703-1.68-1-4 1.328-2.508 1.328-2.508 3.25-5.125l1.89-2.633C153.66 201 153.66 201 156 201z" fill="rgba(83, 78, 66, 1)" stroke="none"/>
  <path d="M59 244h1l1 20 3 1-4 1-1 12h-1l.035-3.43.028-4.445.025-2.262c.119-4.061.119-4.061-1.088-7.863h2v-16z" fill="rgba(138, 123, 103, 1)" stroke="none"/>
  <path d="M263 254h1l.078 2.117.172 2.758.14 2.742c.366 2.554.366 2.554 2.657 3.703L269 266c-.547 3.375-1.055 5.082-3 8v-6l-1.945-.723C262 266 262 266 261.32 263.941l-.195-2.378-.242-2.372C261 257 261 257 263 254z" fill="rgba(79, 71, 60, 1)" stroke="none"/>
  <path d="M82 40c6.069-.253 11.162.302 17 2v1h-8v2l-9-1v-4z" fill="rgba(168, 149, 132, 1)" stroke="none"/>
  <path d="M228.293 238.305L230 239c-3.389 3.588-6.761 6.457-11 9h-2l-1 2c.325-3.18.709-4.689 2.926-7.055l2.387-1.82 2.363-1.867C226 238 226 238 228.293 238.305z" fill="rgba(171, 154, 130, 1)" stroke="none"/>
  <path d="M85 190l8 1v5h2l1-2 .367 1.934.508 2.504.492 2.496L98 203l2 1-1 2c-3.079-1.197-4.692-2.307-6.047-5.355a134.22 134.22 0 0 1-1.766-5.368c-1.03-2.52-1.03-2.52-3.812-3.586L85 191v-1z" fill="rgba(162, 146, 122, 1)" stroke="none"/>
  <path d="M248 36l2 1c-1.002 3.793-1.81 6.715-4 10h-3c-.75-1.625-.75-1.625-1-4 3.178-5.589 3.178-5.589 6-7z" fill="rgba(184, 163, 133, 1)" stroke="none"/>
  <path d="M160.375 238.875l3.773.055L167 239v1l-2.52.148-3.292.227c-1.08.07-2.158.14-3.27.21-3.104.227-3.104.227-5.918 2.415-3.294 1.192-6.587 2.212-10 3v-4c3-1 3-1 5-1l2.664-.992c3.742-1.13 6.812-1.207 10.711-1.133z" fill="rgba(101, 91, 76, 1)" stroke="none"/>
  <path d="M61 234v3h-2l-.375 3.438L58 244l-2 1-2-10c2.463-1.231 4.28-1.072 7-1z" fill="rgba(188, 166, 133, 1)" stroke="none"/>
  <path d="M171 20l4 2-5 1-1 6h-2l.063 3.313C167 36 167 36 166 39h-2c.202-2.232.438-4.46.688-6.688l.386-3.761c1.086-4.166 2.68-5.809 5.926-8.551z" fill="rgba(90, 86, 90, 1)" stroke="none"/>
  <path d="M147 396c3.285 2.792 5.013 6.232 7 10v2c-6.75.125-6.75.125-9-1l1-3 4 1v-3h-2l-1-6z" fill="rgba(154, 139, 120, 1)" stroke="none"/>
  <path d="M76 40h6l-.938 1.813C79.34 45.358 78.838 47.257 80 51l-2-1-1 6h-1V40z" fill="rgba(69, 64, 65, 1)" stroke="none"/>
  <path d="M127 287l1 2h5l1-2 3 1v3c-3.123 1.85-5.38 2.294-9 2-1-1-1-1-1.063-3.563L127 287z" fill="rgba(177, 161, 135, 1)" stroke="none"/>
  <path d="M91 43h10l1 2-2 1 6 2c-3.153 1.577-5.605.679-9 0-3.438-1.563-3.438-1.563-6-3v-2z" fill="rgba(198, 173, 147, 1)" stroke="none"/>
  <path d="M166 242l2 1c1.99-.097 1.99-.097 4.125-.438L176 242l-5 8-1.813-1.875c-2.195-2.262-2.195-2.262-5.187-4.125h2v-2z" fill="rgba(87, 78, 66, 1)" stroke="none"/>
  <path d="M244 233l1 5-5 4c0-3 0-3 1.5-4.688L243 236l-7-1v2l-4-1c4.23-2.417 7.123-3.348 12-3z" fill="rgba(157, 145, 123, 1)" stroke="none"/>
  <path d="M138 370c1.903 2.855 2.462 4.42 3.125 7.688l.508 2.449L142 382h-3v-3h-2c-.625-3.375-.625-3.375-1-7l2-2z" fill="rgba(146, 135, 122, 1)" stroke="none"/>
  <path d="M126 285c-.336 3.135-1.027 4.025-3.375 6.25C120 293 120 293 117 293c.79-5.534 3.473-8 9-8z" fill="rgba(83, 76, 64, 1)" stroke="none"/>
  <path d="M294 279c3.254 2.834 4.52 4.686 5 9l-4 3c-1.414-3.8-2.349-6.93-2-11l1-1z" fill="rgba(181, 166, 147, 1)" stroke="none"/>
  <path d="M54 229l1.188 1.438c2.22 1.914 3.946 2.175 6.812 2.562l-1 3v-2l-7 1 1 8c-2.18-3.27-2.69-5.12-3-9 .938-2.875.938-2.875 2-5z" fill="rgba(160, 146, 126, 1)" stroke="none"/>
  <path d="M273 210l2 1-.563 2.313c-.665 2.777-.665 2.777.563 5.687h-2l-1-4-2.875 1.563L266 218l-2-1c2.37-2.62 4.955-4.237 8-6l1-1zm-11 8l2 1-4 3 2-4z" fill="rgba(156, 145, 127, 1)" stroke="none"/>
  <path d="M248 43l2 2-1.375 1.25c-2.949 3.176-3.603 5.093-3.75 9.5L245 59l-7-1 1.688-1.938c2.455-3.252 4.344-6.586 6.261-10.171C247 44 247 44 248 43z" fill="rgba(108, 90, 80, 1)" stroke="none"/>
  <path d="M134 217l4 1-2 4c-4.219.196-7.17-.198-11-2 2.572-1.62 3.677-2.044 6.75-1.625L134 219v-2z" fill="rgba(182, 164, 130, 1)" stroke="none"/>
  <path d="M213 99l2 1-14 14c0-3.74.934-4.453 3.375-7.188l1.898-2.167C208 103 208 103 210 103v-2l3-2z" fill="rgba(21, 21, 21, 1)" stroke="none"/>
  <path d="M265 27l4 1c-3.54 2.916-7.163 5.501-11 8v-3l-3-1c3.644-2.43 5.712-2.162 10-2v-3z" fill="rgba(99, 86, 82, 1)" stroke="none"/>
  <path d="M249 20l2 1-3.809 4.395c-1.4 1.712-1.4 1.712-2.191 4.605-2.938 1.75-2.938 1.75-6 3l-2-1 12-12z" fill="rgba(106, 103, 105, 1)" stroke="none"/>
  <path d="M214 378l1 4 6-1c-2 2-2 2-4.625 2.125L214 383l1 8-4-1c.857-8.571.857-8.571 3-12z" fill="rgba(177, 154, 123, 1)" stroke="none"/>
  <path d="M47 165h1c.168 4.27.334 8.542.5 12.813l.145 3.681a572228910.497 572228910.497 0 0 1 .263 6.779c.064 1.908.092 3.818.092 5.727l-4-2 1-3c.149-1.845.248-3.694.316-5.543l.127-3.252.12-3.393.13-3.427c.106-2.795.209-5.59.307-8.385z" fill="rgba(103, 93, 78, 1)" stroke="none"/>
  <path d="M177 170c1.6 3.2.032 5.723-1 9l-4 1v-3h-3l8-7z" fill="rgba(160, 144, 118, 1)" stroke="none"/>
  <path d="M191 376h1v16c.315 1.338.646 2.672 1 4h-5l.938-3.813C190.14 386.83 190.612 381.47 191 376z" fill="rgba(60, 60, 61, 1)" stroke="none"/>
  <path d="M264 254h1l1 10 4-1v2l2 1v2h-2v3h-2l1-5-5-2v-10z" fill="rgba(162, 146, 122, 1)" stroke="none"/>
  <path d="M278 176l3 2c.375 2.438.375 2.438 0 5-1.5 1.813-1.5 1.813-3 3l-3-1-1-3h3l1-6z" fill="rgba(225, 197, 195, 1)" stroke="none"/>
  <path d="M221 262h1c.653 3.69 1.137 7.249 1 11-2.313 3.188-2.313 3.188-5 5h-2c1.125-2.972 2.223-5.334 4-8 .451-2.05.451-2.05.625-4.188L221 262z" fill="rgba(84, 78, 66, 1)" stroke="none"/>
  <path d="M27 262h2c1.498 3.371 2 5.204 2 9l-5-1c-.042-2.333-.04-4.667 0-7l1-1z" fill="rgba(181, 163, 131, 1)" stroke="none"/>
  <path d="M275 210h4l1 3-6 5c-.625-2.875-.625-2.875-1-6l2-2z" fill="rgba(18, 14, 12, 1)" stroke="none"/>
  <path d="M80 160h1l-.016 1.697c-.02 2.538-.034 5.077-.047 7.616l-.025 2.67-.01 2.568-.016 2.364c.033 2.281.033 2.281 1.114 5.085-3-1-3-1-4.313-3.375L77 176l2-3c.46-3.198.46-3.198.625-6.688l.227-3.574L80 160z" fill="rgba(43, 33, 26, 1)" stroke="none"/>
  <path d="M189 50a105.022 105.022 0 0 1 5 4v2h4v5h-2v-3l-1.875-.25C192 57 192 57 190.875 55L190 53l-2-1 1-2z" fill="rgba(82, 76, 65, 1)" stroke="none"/>
  <path d="M302 321c-2 2-2 2-4.75 2.438-3.537.612-6.118 1.847-9.25 3.562v-4c4.643-3.095 8.649-3.416 14-2z" fill="rgba(174, 155, 130, 1)" stroke="none"/>
  <path d="M258 286h3c-1.855 5.72-3.931 11.356-6 17h-1v-6h2l-.125-3.25c.114-3.407.338-4.957 2.125-7.75z" fill="rgba(93, 86, 73, 1)" stroke="none"/>
  <path d="M171 46h3c.262 3.146.248 4.618-1.5 7.313L171 55c-2-1-2-1-2.813-2.813C168 50 168 50 169.25 47.75L171 46z" fill="rgba(167, 154, 129, 1)" stroke="none"/>
  <path d="M83 43c2.602.242 2.602.242 5.625.875l3.04.617L94 45v1l-2.152-.035-2.785-.028-2.778-.035c-2.25-.161-2.25-.161-3.285 1.098a144.504 144.504 0 0 0-.563 6.063l-.253 3.347L82 59h-1a730.672 730.672 0 0 1-.125-6.875l-.07-3.867C81 45 81 45 83 43z" fill="rgba(224, 194, 182, 1)" stroke="none"/>
  <path d="M264 31l2 1-8 9-4-1 10-9z" fill="rgba(229, 200, 201, 1)" stroke="none"/>
  <path d="M139.18 69.758c2.195.305 2.195.305 5.82 1.242l-1 2-2.375-.125c-2.786-.162-2.786-.162-4.625 2.125l-1 3-3 1-2-2c4.499-6.833 4.499-6.833 8.18-7.242z" fill="rgba(105, 90, 83, 1)" stroke="none"/>
  <path d="M42 200h1c.054 2.604.094 5.208.125 7.813.017.737.034 1.475.05 2.236.036 3.863.019 5.66-2.175 8.951-1.191-4.357-.767-7.88-.063-12.313l.59-3.8L42 200z" fill="rgba(169, 153, 128, 1)" stroke="none"/>
  <path d="M203 240h6c2.143 7.429 2.143 7.429 3 11l-5-2v-7l-4-2z" fill="rgba(93, 83, 72, 1)" stroke="none"/>
  <path d="M185 225h9l1 3h6l-1 2-7-1v-2l-2.875.125C187 227 187 227 185 225z" fill="rgba(85, 78, 66, 1)" stroke="none"/>
  <path d="M222 401h3l1 3c-1.188 1.563-1.188 1.563-3 3-3.342-.245-4.605-.605-7-3l4-1v2h2v-4z" fill="rgba(164, 146, 126, 1)" stroke="none"/>
  <path d="M274 336l2 1-7 8-4-1 9-8z" fill="rgba(90, 82, 69, 1)" stroke="none"/>
  <path d="M126 230l6 1-1.813.625c-2.978 1.872-3.664 4.264-5.187 7.375l-3 1c1.002-3.793 1.81-6.715 4-10z" fill="rgba(164, 150, 129, 1)" stroke="none"/>
  <path d="M202 396l3 4 2-1v4l2 2-3 3c-4.571-7.286-4.571-7.286-4-12z" fill="rgba(52, 50, 52, 1)" stroke="none"/>
  <path d="M241 395l1 3h16v1l-19 2 2-6z" fill="rgba(51, 51, 51, 1)" stroke="none"/>
  <path d="M138 382c1 2 1 2 .441 4.164l-.879 2.461-.87 2.477L136 393l-3-2c.25-3.375.25-3.375 1-7 2.063-1.438 2.063-1.438 4-2z" fill="rgba(87, 80, 72, 1)" stroke="none"/>
  <path d="M259 290l.375 1.938L260 294l2 1-2.375 2.25c-2.19 2.294-3.452 3.872-4.625 6.75-.68-5.273 1.752-9.394 4-14z" fill="rgba(172, 156, 131, 1)" stroke="none"/>
  <path d="M35 162c-2.97 4.456-6.89 4.551-11.938 5.625L21 168c2.273-2.543 4.45-3.876 7.563-5.25l2.378-1.078C33 161 33 161 35 162z" fill="rgba(116, 108, 109, 1)" stroke="none"/>
  <path d="M122 87v3a112.535 112.535 0 0 1-5 3 89.165 89.165 0 0 0-4 4l-2-2a819.413 819.413 0 0 1 4.375-4l2.46-2.25C120 87 120 87 122 87z" fill="rgba(108, 91, 89, 1)" stroke="none"/>
  <path d="M178 361c1.305 3.916.322 5.039-1.438 8.688l-1.433 3.011L174 375h-2c1.016-5.082 3.138-9.707 6-14z" fill="rgba(136, 117, 83, 1)" stroke="none"/>
  <path d="M98 278c1 2 1 2 .441 4.164l-.879 2.461-.87 2.477L96 289l-4-2 2-4h2l2-5z" fill="rgba(155, 141, 121, 1)" stroke="none"/>
  <path d="M110 260c2 3 2 3 1.625 5.688L111 268l-6 1c1.25-3.46 2.675-6.147 5-9z" fill="rgba(162, 145, 118, 1)" stroke="none"/>
  <path d="M117 248l2 3c-1.443 3.366-3.333 5.51-6 8l-2-1c1.375-2.5 1.375-2.5 3-5h2l1-5z" fill="rgba(167, 149, 127, 1)" stroke="none"/>
  <path d="M100 206c2.034 1.415 2.904 2.55 3.422 4.98.24 2.002.413 4.011.578 6.02l-2 1v-5h-2c-1.125-4.75-1.125-4.75 0-7z" fill="rgba(42, 32, 25, 1)" stroke="none"/>
  <path d="M148 363l2 1-1 5h2v7h-2c-2.429-8.429-2.429-8.429-1-13z" fill="rgba(161, 149, 134, 1)" stroke="none"/>
  <path d="M144 337l4 1v6h-4v-7z" fill="rgba(185, 166, 132, 1)" stroke="none"/>
  <path d="M62 286c1.903 2.855 2.462 4.42 3.125 7.688l.508 2.449L66 298l-2 1c-1.784-3.062-2.229-5.22-2.125-8.75l.055-2.422L62 286z" fill="rgba(173, 157, 135, 1)" stroke="none"/>
  <path d="M141 286l1.25 1.438c1.932 1.725 3.232 2.128 5.75 2.562v2l-6-1v-2l-5 4-2-2 6-5z" fill="rgba(93, 83, 68, 1)" stroke="none"/>
  <path d="M215 278l1 2c-1.978 4.065-4.737 6.914-8 10l-1-2 1-2h2l.813-2.313c1.131-2.56 2.1-3.884 4.187-5.687z" fill="rgba(89, 83, 67, 1)" stroke="none"/>
  <path d="M287 260c2.322 2.85 3.94 5.464 5 9-.375 2.313-.375 2.313-1 4v-3l-4-1v-9z" fill="rgba(150, 134, 113, 1)" stroke="none"/>
  <path d="M163 243c3 1 3 1 4 3-3.982 1.718-7.965 3.41-12 5 0-2 0-2 1.25-3.563 1.939-1.592 3.346-1.876 5.75-2.437l1-2z" fill="rgba(163, 141, 109, 1)" stroke="none"/>
  <path d="M142 72h2l.25 3.313c.387 3.72.387 3.72 2.813 5.624L149 82c-2.875-.313-2.875-.313-6-1-2.148-3.222-2.294-4.278-2-8l1-1z" fill="rgba(91, 81, 66, 1)" stroke="none"/>
  <path d="M205 64l6 2c-2 2-2 2-4.602 2.195l-3.023-.07-3.04-.055L198 68l-1-2h7l1-2z" fill="rgba(95, 85, 71, 1)" stroke="none"/>
  <path d="M190 29c1 3 1 3 0 6-6.75.125-6.75.125-9-1l1-3c3 0 3 0 6 2l2-4z" fill="rgba(88, 87, 88, 1)" stroke="none"/>
  <path d="M24 263h2l.438 3.375c.346 3.446.346 3.446 1.562 5.625h-2v2h-2v-11z" fill="rgba(163, 147, 129, 1)" stroke="none"/>
  <path d="M168 246c2 1 2 1 2.813 3.188.244 3.668-.993 5.682-2.813 8.812h-2l2-12z" fill="rgba(166, 143, 108, 1)" stroke="none"/>
  <path d="M116 218h5l1 3-5 3c-1-1-1-1-1.063-3.563L116 218z" fill="rgba(5, 2, 4, 1)" stroke="none"/>
  <path d="M44.973 154.602c2.013.022 4.023.207 6.027.398l2 3H40c3-3 3-3 4.973-3.398z" fill="rgba(89, 83, 87, 1)" stroke="none"/>
  <path d="M263 150c1.044 3.133.934 3.99 0 7l-6 1 6-8z" fill="rgba(43, 43, 43, 1)" stroke="none"/>
  <path d="M215 372h1l1 6 6 2c-2 2-2 2-5.125 2.125L215 382v-10z" fill="rgba(85, 77, 69, 1)" stroke="none"/>
  <path d="M55 255h1c2.185 6.554 3.002 10.206 2 17h-1l-.148-1.898-.227-2.477c-.07-.812-.14-1.624-.21-2.46-.244-2.368-.244-2.368-2.415-4.165.375-3.125.375-3.125 1-6z" fill="rgba(96, 85, 73, 1)" stroke="none"/>
  <path d="M50 193h2c.587 3.344 1.059 6.6 1 10-1.938 2.625-1.938 2.625-4 4l.5-1.938c.66-4.038.58-7.98.5-12.062z" fill="rgba(30, 22, 15, 1)" stroke="none"/>
  <path d="M126 177c5.053.632 9.296 2.135 14 4v1c-4.97-.514-9.29-1.234-14-3v-2z" fill="rgba(149, 135, 113, 1)" stroke="none"/>
  <path d="M199 309c-.564 3.27-1.5 4.826-4 7l-2-5c3-2 3-2 6-2z" fill="rgba(168, 155, 133, 1)" stroke="none"/>
  <path d="M248 227l2 1-1.438 1.313c-1.799 1.71-1.799 1.71-2.562 4.687l-6-1c2.366-2.615 4.86-4.39 8-6z" fill="rgba(62, 61, 57, 1)" stroke="none"/>
  <path d="M88 118c2.938 1 2.938 1 5 2-4.01 1.337-7.82 1.202-12 1l-2-2c3.03-1.515 5.651-1.17 9-1z" fill="rgba(153, 139, 118, 1)" stroke="none"/>
  <path d="M287 78l4 1v2l-6 3v-2h-6v-1l3.438-.375L286 80l1-2z" fill="rgba(98, 87, 86, 1)" stroke="none"/>
  <path d="M252 65h4c2.125 2.438 2.125 2.438 4 5l2 1-1 2c-1.505-.95-3.004-1.91-4.5-2.875l-2.531-1.617L252 67v-2z" fill="rgba(222, 195, 191, 1)" stroke="none"/>
  <path d="M169 55l2 2-5 6-3-2 6-6z" fill="rgba(175, 158, 131, 1)" stroke="none"/>
  <path d="M106 45l11 3v1l-8 1v-3h-3v-2z" fill="rgba(164, 147, 125, 1)" stroke="none"/>
  <path d="M216 359c1.606 3.212.058 5.709-1 9l-1 2-3-2c1.498-3.112 3.2-6.053 5-9z" fill="rgba(76, 67, 58, 1)" stroke="none"/>
  <path d="M167 359l2 1c-1.156 3.912-2.355 6.875-5 10 .468-4.056.88-7.466 3-11z" fill="rgba(85, 76, 64, 1)" stroke="none"/>
  <path d="M171 315h2l-2 4h-2l.625 1.875L170 323l-2 2c-.75-2.188-.75-2.188-1-5 1.813-2.813 1.813-2.813 4-5z" fill="rgba(157, 142, 122, 1)" stroke="none"/>
  <path d="M163 187l2 1c-.813 3.438-.813 3.438-2 7l-3 1v-3h2l-.063-2.438C162 188 162 188 163 187z" fill="rgba(172, 157, 130, 1)" stroke="none"/>
  <path d="M167 185l2 4h-2v2h-2v7h-1c-.274-5.394-.36-8.52 3-13z" fill="rgba(44, 37, 29, 1)" stroke="none"/>
  <path d="M141 125l3 1c-1.125 1.938-1.125 1.938-3 4-3.188.75-3.188.75-6 1 3.75-4.875 3.75-4.875 6-6z" fill="rgba(219, 219, 219, 1)" stroke="none"/>
  <path d="M237 47h1v6l-2 1v-2l-3.25.625C229 53 229 53 225 51l11-1 1-3z" fill="rgba(145, 129, 106, 1)" stroke="none"/>
  <path d="M81 41c1.532 4.084.63 7.795 0 12-1.884-3.265-2.493-6.281-3-10h2l1-2z" fill="rgba(106, 89, 88, 1)" stroke="none"/>
  <path d="M156 393h2a124.837 124.837 0 0 1 4 6l2 3h-4l-4-9z" fill="rgba(166, 151, 126, 1)" stroke="none"/>
  <path d="M140 381l2 1c.625 3.063.625 3.063 1 6l-3-2-3 2c1.875-5.875 1.875-5.875 3-7z" fill="rgba(176, 159, 138, 1)" stroke="none"/>
  <path d="M124 215v2l2 1c-4.084 0-7.123-.807-11-2v-1c3.378-.845 5.675-1.108 9 0z" fill="rgba(172, 156, 131, 1)" stroke="none"/>
  <path d="M178 176l2 1c-2.462 4.8-2.462 4.8-5.188 5.813L173 183c1.293-2.884 2.66-4.872 5-7z" fill="rgba(95, 88, 68, 1)" stroke="none"/>
  <path d="M38 158l2 1-1 4h-2v2l-3-1c1.75-4.875 1.75-4.875 4-6z" fill="rgba(54, 49, 54, 1)" stroke="none"/>
  <path d="M148 349c2-.043 4-.04 6 0l1 1a176.79 176.79 0 0 1-1 7c-1.063-1.813-1.063-1.813-2-4l1-3h-5v-1z" fill="rgba(166, 154, 133, 1)" stroke="none"/>
  <path d="M270 337l3 1-8 7-1-3h2l.875-1.938C268 338 268 338 270 337z" fill="rgba(172, 158, 130, 1)" stroke="none"/>
  <path d="M173 306l1 2 3 1-1 5h-3v-8z" fill="rgba(173, 156, 127, 1)" stroke="none"/>
  <path d="M105 250l1 2c-1.25 3.563-1.25 3.563-3 7l-3 1c1.335-3.594 2.96-6.755 5-10z" fill="rgba(87, 84, 87, 1)" stroke="none"/>
  <path d="M105 214l10 1c-2 2-2 2-5.625 2.125L106 217l-1-3z" fill="rgba(181, 164, 141, 1)" stroke="none"/>
  <path d="M48 205h1l.148 2.371.227 3.066c.07 1.01.14 2.02.21 3.06.138.825.274 1.652.415 2.503l2 1-4 1v-13z" fill="rgba(110, 98, 79, 1)" stroke="none"/>
  <path d="M25 209c2.68 4.019 2.156 6.242 2 11h-1l-.375-2.438L25 215l-2-1 2-5z" fill="rgba(94, 86, 70, 1)" stroke="none"/>
  <path d="M275 208c2.875.313 2.875.313 6 1l2 3-1 3c-1.5-1.375-1.5-1.375-3-3v-2h-4v-2z" fill="rgba(118, 112, 116, 1)" stroke="none"/>
  <path d="M115 152c2.325 2.853 3.75 5.54 5 9h-2l-1 2-2-4h2l-2-3v-4z" fill="rgba(32, 33, 33, 1)" stroke="none"/>
  <path d="M158 403h4c-.813 2.438-.813 2.438-2 5l-3 1 1-6z" fill="rgba(4, 2, 5, 1)" stroke="none"/>
  <path d="M144 344h2c1.03 4.534 1.178 5.645-1 10l-1-10z" fill="rgba(176, 160, 136, 1)" stroke="none"/>
  <path d="M281 330c-1.464 4.392-3.978 4.88-8 7l1-3h2l1-3c2-1 2-1 4-1z" fill="rgba(173, 159, 135, 1)" stroke="none"/>
  <path d="M150 284l1 3-2 3c-2.625.188-2.625.188-5 0l1-3h4l1-3z" fill="rgba(175, 161, 138, 1)" stroke="none"/>
  <path d="M204 248l9 2v2l-10-1 1-3z" fill="rgba(171, 151, 122, 1)" stroke="none"/>
  <path d="M202 241c-1.188 1.5-1.188 1.5-3 3-2.688.188-2.688.188-5 0l1-3c2.944-1.178 3.9-1.033 7 0z" fill="rgba(85, 74, 62, 1)" stroke="none"/>
  <path d="M86 200c2.296 3.445 2.54 5.938 3 10-2.063-1.625-2.063-1.625-4-4 .25-3.25.25-3.25 1-6z" fill="rgba(39, 35, 37, 1)" stroke="none"/>
  <path d="M25 175h2c-.125 1.875-.125 1.875-1 4-3.063 1.25-3.063 1.25-6 2a158.814 158.814 0 0 1 5-6z" fill="rgba(152, 137, 117, 1)" stroke="none"/>
  <path d="M147 77h6l-1 2h-2v2l-5-1 2-1v-2z" fill="rgba(166, 150, 132, 1)" stroke="none"/>
  <path d="M127 78l3 1-7 6-1-3c2.313-2.063 2.313-2.063 5-4z" fill="rgba(235, 206, 199, 1)" stroke="none"/>
  <path d="M290 69c.688 1.688.688 1.688 1 4-1.438 2.75-1.438 2.75-3 5-.688-1.688-.688-1.688-1-4 1.438-2.75 1.438-2.75 3-5z" fill="rgba(233, 202, 201, 1)" stroke="none"/>
  <path d="M248 43l2 2-1.375 1.25c-1.685 1.814-2.618 3.503-3.625 5.75h-2c1.25-3.46 2.675-6.147 5-9z" fill="rgba(130, 108, 92, 1)" stroke="none"/>
  <path d="M281 23v1l-5 1 1 2c-1.875.625-1.875.625-4 1l-2-2c3.318-3.063 5.552-3.303 10-3z" fill="rgba(216, 188, 186, 1)" stroke="none"/>
  <path d="M178 390c2 3 2 3 1.75 6.063C179 399 179 399 177 401l1-11z" fill="rgba(169, 153, 131, 1)" stroke="none"/>
  <path d="M77 387h3l1 3h-2l1 4-4-3 1-4z" fill="rgba(69, 62, 63, 1)" stroke="none"/>
  <path d="M79 305h2c-.188 2.313-.188 2.313-1 5-2.563 1.813-2.563 1.813-5 3 1.75-5.75 1.75-5.75 4-8z" fill="rgba(22, 21, 21, 1)" stroke="none"/>
  <path d="M111 290h6l-3 4-4-1 1-3z" fill="rgba(168, 155, 133, 1)" stroke="none"/>
  <path d="M158 277h3l-1 2-.75 2.063C158 283 158 283 155.375 283.75L153 284c.758-1.175 1.532-2.34 2.313-3.5l1.3-1.969L158 277z" fill="rgba(104, 92, 77, 1)" stroke="none"/>
  <path d="M205 242h3l-1 7-2-1v-6z" fill="rgba(182, 161, 140, 1)" stroke="none"/>
  <path d="M132 233h3v9h-2l-1-9z" fill="rgba(172, 155, 135, 1)" stroke="none"/>
  <path d="M55 229h4v3h4l-1 3v-2h-5l-2-4z" fill="rgba(27, 20, 15, 1)" stroke="none"/>
  <path d="M180 215l3 1v8c-2.097-2.36-2.97-3.546-3.188-6.75L180 215z" fill="rgba(167, 152, 131, 1)" stroke="none"/>
  <path d="M157 69l1 4-5 4c.498-3.688 1.1-5.605 4-8z" fill="rgba(176, 158, 129, 1)" stroke="none"/>
  <path d="M235 408c2.34.287 4.674.62 7 1-3.9 2.6-7.474 2.15-12 2l1.938-.938c1.998-.897 1.998-.897 3.062-2.062z" fill="rgba(72, 69, 69, 1)" stroke="none"/>
  <path d="M236 383l2 1c-1.074 2.915-1.778 4.778-4 7 .875-6.875.875-6.875 2-8z" fill="rgba(166, 150, 124, 1)" stroke="none"/>
  <path d="M184 327c1 2 1 2 .375 4.063C183 333 183 333 180.375 333.75L178 334l6-7z" fill="rgba(86, 78, 64, 1)" stroke="none"/>
  <path d="M304 320l2 1v4h-5v-2h2l1-3z" fill="rgba(153, 144, 130, 1)" stroke="none"/>
  <path d="M180 293l3 3-3 6-2-1 1-1c.368-2.328.702-4.662 1-7z" fill="rgba(162, 147, 126, 1)" stroke="none"/>
  <path d="M262 276h2c-.75 5.75-.75 5.75-3 8-.042-2.333-.04-4.667 0-7l1-1z" fill="rgba(78, 72, 60, 1)" stroke="none"/>
  <path d="M127 218c2.125.375 2.125.375 4 1v2h5v1c-4.219.196-7.17-.198-11-2l2-2z" fill="rgba(159, 144, 122, 1)" stroke="none"/>
  <path d="M163 195l-1 3h-2v3l-4-1c4.75-5 4.75-5 7-5z" fill="rgba(92, 85, 68, 1)" stroke="none"/>
  <path d="M116 53h6l1 4c-3.27-.564-4.826-1.5-7-4z" fill="rgba(204, 173, 146, 1)" stroke="none"/>
  <path d="M193 46c.934 3.01 1.044 3.867 0 7l-3-2v-4l3-1z" fill="rgba(158, 143, 123, 1)" stroke="none"/>
  <path d="M255 33h3v2h-2l-2 4h-2c.573-2.867.861-3.861 3-6z" fill="rgba(78, 69, 56, 1)" stroke="none"/>
</svg>
</g></svg></g></g>
<!-- /image 89404 -->
</defs><rect x="0" y="0" width="250" height="250" fill="rgba(71, 70, 70, 1)"></rect><use xlink:href="#transformed-89404" transform="translate(-250, -250)"></use><use xlink:href="#transformed-89404" transform="translate(0, -250)"></use><use xlink:href="#transformed-89404" transform="translate(250, -250)"></use><use xlink:href="#transformed-89404" transform="translate(-250, 0)"></use><use xlink:href="#transformed-89404" transform="translate(0, 0)"></use><use xlink:href="#transformed-89404" transform="translate(250, 0)"></use><use xlink:href="#transformed-89404" transform="translate(-250, 250)"></use><use xlink:href="#transformed-89404" transform="translate(0, 250)"></use><use xlink:href="#transformed-89404" transform="translate(250, 250)"></use></svg>