<svg version="1.1"
      xmlns="http://www.w3.org/2000/svg"
      xmlns:xlink="http://www.w3.org/1999/xlink"  id="snapshot-19022" width="250" height="250" viewBox="0 0 250 250"><desc>This image was made on Patterninja.com</desc><defs>
<!-- image 28468 -->
<g id="transformed-28468" data-image="28468" transform="translate(-125, -125) rotate(0, 125, 125)"><g><svg version="1.1" width="250px" height="250px" viewBox="0 0 250 250"><g id="original-28468"><svg xmlns="http://www.w3.org/2000/svg" viewBox="0 0 500 500" xmlns:xlink="http://www.w3.org/1999/xlink" version="1.1" preserveAspectRatio="xMidYMid meet">
  <path d="M244.188 1.5L247 3v2l1.871.805c3.651 2.05 4.794 5.414 6.129 9.195 3.784 13.978 3.513 28.189 3.625 42.563.044 3.7.093 7.4.143 11.1.032 2.427.063 4.856.092 7.284.114 9.315.358 18.619.702 27.928.363 10.049.572 20.07.438 30.125 2.73.108 5.456.187 8.188.25l2.33.102c5.236.09 7.559-.628 11.482-4.352 2.316-1.23 2.316-1.23 4.563-2.188l2.253-.98C298 123.332 307.911 124.78 317 128c3.333 2.02 6.182 4.316 9 7l1.637 1.41c4.637 5.408 4.91 14.663 4.715 21.457-.746 6.646-1.872 13.795-6.872 18.508C323 178 323 178 321 178v3c-1.95 1.543-1.95 1.543-4.688 3.188l-3.03 1.855a5795.277 5795.277 0 0 1-6.626 3.945c-10.21 6.143-17.41 11.2-22.656 22.012l-1.719 3.266c-3.359 6.462-6.081 12.812-8.254 19.777-2.136 6.148-4.821 12.591-9.289 17.383-2.072 2.497-2.072 2.497-1.508 5.746l.957 3.578c2.022 8.42 2.649 16.608 2.813 25.25l.113 3.309c-.245 15.416-6.669 31.519-13.425 45.191l-.985 1.994C250.4 341.866 250.4 341.866 247 343l-.438 1.75c-1.395 5.584-6.222 8.678-10.75 11.75l-3.23 2.219c-7.58 4.905-14.663 8.279-23.457 10.469l-3.048.77c-20.36 4.934-41.005 4.705-61.803 3.398-4.503-.272-8.97-.369-13.481-.34-9.037.029-18.057-.286-27.086-.65a839.104 839.104 0 0 0-5.892-.21C80.45 371.6 59.604 370.71 45 360v-2h-3c-11.534-9.886-17.07-21.145-19.688-35.813l-.642-3.369c-5.96-32.13.814-58.82 11.146-89.275a369.055 369.055 0 0 0 4.137-13.05c2.034-6.682 4.576-13.102 7.234-19.555.892-2.178 1.782-4.356 2.668-6.536l1.177-2.86c1.868-4.7 1.868-4.7.968-9.542l-3.25 1.875c-2.548 1.457-5.103 2.854-7.75 4.125v2c-4.47 4-4.47 4-7 4l-.819 1.759c-2.023 3.84-4.839 7.062-7.556 10.429l-1.75 2.232c-.565.7-1.13 1.401-1.71 2.123l-1.55 1.938C15.738 210.247 14.564 210.79 12 211c-2-2-2-2-2.355-4.281C10.588 199.5 17.907 192.818 23 188c.888-1.03 1.762-2.073 2.625-3.125 2.873-3.478 5.073-5.759 9-7.938 3.408-1.542 3.408-1.542 4.375-3.937h3l-5-6c-6.94 1.87-12.165 4.871-18 9l-5 3-2 1.75c-2 1.25-2 1.25-4.75.938L5 181c.172-4.409.352-6.389 3.625-9.477A96.584 96.584 0 0 1 12 169.375l1.775-1.146A244.03 244.03 0 0 1 19 165l2.723-1.684C25.599 161.032 27.37 160 32 160l-5-13c-6.591.673-11.679 2.375-17.125 6.188C6.851 155.094 5.489 155.498 2 155c-1-1-1-1-1.375-3.25.55-4.035 2.217-5.25 5.375-7.75 2.59-1.286 5.238-2.159 8-3l2.738-.848A611.967 611.967 0 0 1 24 138l-.818-2.739c-2.624-9.22-4.077-18.12-4.807-27.698l-.359-4.326c-.303-3.696-.585-7.393-.858-11.09-.151-2.058-.307-4.115-.463-6.172-1.134-15.294-1.905-30.606-2.42-45.932a805.73 805.73 0 0 0-.189-5.03 602.504 602.504 0 0 1-.23-7.044l-.094-2.086c-.135-6.37 1.417-11.646 5.425-16.57C27.13 2.782 33.635-.005 44 1c9.11 2.046 15.954 8.237 23 14l2.887 2.188L72 19v2h2c2.993 2.763 5.763 5.585 8 9v2l3.004-.93c3.931-1.118 7.878-1.731 11.933-2.195l2.206-.266c6.592-.726 13.046-.617 19.662-.289 3.228.006 3.228.006 5.043-2.07 1.08-2.108 1.967-4.129 2.715-6.375.906-2.716 1.359-3.797 3.437-5.875 4.681.407 8.361 1.338 11.703 4.727l1.547 1.898 1.578 1.914L146 24l1.816-.969C150.848 21.6 152.683 21.458 156 22c2.15 1.83 3.382 3.621 5 6v2c8.07 1.574 16.006 2.343 24.195 2.781 4.62.266 9.208.7 13.805 1.219l.305-2.168C202.279 19.716 214.07 8.801 224 2c6.276-3.068 13.74-3.27 20.188-.5z" fill="rgba(21, 20, 20, 1)" stroke="none"/>
  <path d="M131.574 75.324C136.514 76.7 139.397 80.78 142 85c.75 3.875.75 3.875 1 7 1.96 1.637 1.96 1.637 4 3 .75 2.688.75 2.688 1 5l2.313-.5c5.017-.934 5.017-.934 7.66.777l2.09 1.66c2.832 2.246 2.832 2.246 5.937 4.063.625 2.563.625 2.563 1 5h6c1.388 4.163.557 6.174-1.293 10.035-1.682 4.673-1.242 10.287.293 14.965 1.731 1.16 1.731 1.16 4 2l2.688 1.625c4.244 1.762 7.775 2.01 12.312 1.375 3.301-1.4 3.301-1.4 6-3h3v-2h2l.938-2.438C204 131 204 131 205 130c.368-2.328.702-4.662 1-7l3.418.875c14.447 3.484 28.855 4.573 43.582 2.125v10l-3.762.148-4.925.227c-.817.03-1.634.062-2.475.094-4.395.213-7.79.68-11.838 2.531-2.666.493-5.298.725-8 1v5l3.77-.875c8.798-1.983 17.146-3.86 26.23-3.125-.585 3.217-1.334 6.196-2.5 9.25l-.781 2.078C248 154 248 154 247 155c-9.03.406-18.016-.063-27-1 .267 1.985.267 1.985 1 4 2.706.902 4.853 1.266 7.668 1.535l2.705.264 2.815.263 2.85.276c2.32.224 4.64.444 6.962.662a753.227 753.227 0 0 1-1.39 4.336l-.783 2.439c-1.108 2.981-2.093 4.554-4.827 6.225-5.793.223-8.858-2.064-13.008-5.723-2.48-1.59-4.101-1.512-6.992-1.277 1.506 4.1 3.962 5.535 7.625 7.75l3.04 1.86L230 178c-2.985 3.307-5.865 5.15-9.875 7.063l-3.055 1.472L214 188l-2.93 1.55c-8.62 4.07-18.584 6.004-28.07 6.45v4c17.09-1.947 17.09-1.947 33-8h3a1201039708370586.5 1201039708370586.5 0 0 0 3.906 6.64C224 201 224 201 224 205l-1.723.227c-6.199 1.055-10.02 3.138-14.277 7.773-2.461 3.692-2.286 6.602-2.375 10.875-.202 5.706-.841 10.56-2.75 16-3.04 8.907-1.748 16.426 1.938 24.96 1.65 3.008 3.636 4.897 6.187 7.165v2l3.125.375c2.751.765 3.695 1.37 5.36 3.738l1.39 2.575c3.903 7.22 10.391 12.471 18.125 15.312 6.653 1.42 10.999 1.184 17-2l3-1c.43 6.543-.505 11.054-2.938 17.117-1.079 2.928-1.737 5.769-2.375 8.82-1.618 6.81-4.88 12.248-8.687 18.063l-1.496 2.309c-1.095 1.615-2.289 3.163-3.504 4.691h-2v2c-21.249 18.584-50.374 23.336-77.874 22.143-5.1-.343-10.116-1.136-15.126-2.143l.984-2.855c1.367-4.803 1.309-9.497 1.266-14.457l.023-2.686c-.018-6.222-.865-11.951-2.273-18.002l-.64-3.074c-1.647-7.06-4.109-13.64-6.887-20.313-1.28-3.138-2.4-6.276-3.473-9.488-1.883-5.3-4.702-9.603-8-14.125l-2-3c-2.563-.73-2.563-.73-5-1 1.24 3.369 2.644 6.101 4.75 9 3.86 5.643 6.534 11.747 9.25 18l1.48 3.238c1.981 4.64 3.286 9.474 4.645 14.325.264.92.529 1.839.8 2.787 2.286 8.069 3.256 15.399 3.262 23.775l.038 2.707.005 2.613.013 2.36c-.275 2.487-.921 4.08-2.243 6.195-3.29 1.645-6.46 1.653-10 1-3.28-1.648-6.26-3.551-9-6v-2l-1.75-.75c-5.196-2.887-7.48-7.208-9.938-12.438-1.752-4.186-1.752-4.186-4.312-7.812.664-6.51 1.909-12.812 4.688-18.75 1.474-3.651 1.244-3.73.312-7.25a362.98 362.98 0 0 1-.518-10.244c-.183-3.728-.366-5.582-2.482-8.756-2.983-.512-2.983-.512-6.375-.563-4.183-.155-6.972-.428-10.625-2.437a74.717 74.717 0 0 0-4.625-.938c-1.792-.35-3.584-.705-5.375-1.062l-2.805-.547C75.6 282.836 73.363 282.241 71 281c-1.493-3.273-2-5.445-2-9l-5-1c.19-9.023.19-9.023 3.125-12.563 3.33-1.665 6.193-2.028 9.875-2.437l3-2c2.262-.633 2.262-.633 4.688-1.125l2.449-.508L89 252c.752-21.22-7.162-36.784-18.422-54.2l-1.39-2.175-1.27-1.96C67 192 67 192 67 190l3.75 1.25c5.515 1.666 11.105 2.813 16.75 3.938l2.718.541c4.36.923 4.36.923 8.782 1.271l-1-3c-1.889-.896-1.889-.896-4.234-1.43l-2.662-.713-2.854-.732C64.875 184.765 64.875 184.765 59 178c-3.166-1.793-3.166-1.793-6-3v-3l1.934-.734 2.504-1.016 2.496-.984c2.251-1.085 2.251-1.085 2.851-3.407L63 164c-3.725.968-6.77 1.878-10.188 3.688C50 169 50 169 47.813 168.938 45.43 167.704 44.38 166.276 43 164v-2l8-1v-3H39c-5-10.75-5-10.75-5-13 5.773-.248 10.834.663 16.438 2l2.505.578c2.02.467 4.04.944 6.057 1.422v-5l-2.11-.406c-3.065-.63-6.098-1.36-9.14-2.094A108.753 108.753 0 0 0 32 139l-1.938-5.313-1.09-2.988c-1.328-3.687-2.091-6.477-2.035-10.387l.028-2.449L27 116l1.85.127c18.013 1.055 36.984-.788 53.315-9.249C84 106 84 106 87 106v-2c2.23-1.621 2.23-1.621 5.188-3.437l2.917-1.81L98 97l2.613-1.785C103 94 103 94 104.944 94.256c2.288.828 3.55 1.79 5.333 3.432l1.807 1.617c1.234 1.128 2.465 2.258 3.695 3.39 4.453 3.986 4.453 3.986 10.221 5.305-.557-3.647-1.808-5.058-4.625-7.375l-2.164-1.809L117 97a1229.3 1229.3 0 0 1-4-3.437L110 91c2.192-4.822 5.693-7.294 9.844-10.352 2.15-1.542 2.15-1.542 3.676-3.312 2.487-2.245 4.815-2.112 8.054-2.012z" fill="rgba(251, 251, 251, 1)" stroke="none"/>
  <path d="M230 6h9v2h2.188c3.704 1.317 4.66 3.165 6.699 6.406 3.294 7.674 3.482 15.666 3.675 23.907l.11 3.8c.435 15.63.67 31.268.951 46.903.28 15.337.673 30.66 1.377 45.984h-1v-9l-2.887.977c-4.635 1.313-9.132 1.405-13.925 1.398l-2.753.004c-9.14-.14-17.652-1.977-26.435-4.379-.3 1.094-.598 2.189-.906 3.316-1.003 3.376-2.032 5.849-4.094 8.684h-2v2c-5.88 3.114-11.295 5.497-18 4-4.275-1.904-8.645-3.93-11.266-7.934-2.317-6.52-.547-12.089 2.266-18.066v-4l-6-1-.188-2.375L166 106c-2.262-1.073-2.262-1.073-5-2-2.115-1.559-4.028-3.257-6-5l-3 2c-2.688-.375-2.688-.375-5-1l-.25-2.313c-.476-2.813-.476-2.813-2.75-4.062L142 92l-.313-3.188c-.964-5.348-3.353-8.557-7.687-11.812-3.302-1.207-5.68-1.127-9 0-3.392 2.314-6.17 5.039-9 8-1.02 1-2.04 2.001-3.063 3L111 90c3.375 3.478 6.874 6.621 10.645 9.668L123 101v2l3 1v4c-3.401.413-4.686.23-7.5-1.828l-2.5-2.422c-4.758-4.669-4.758-4.669-10-8.75-3.451.114-6.069 2.13-8.938 3.938C93.784 101 90.638 102.653 87 104v2c-20.362 7.734-38.085 12.943-60 10v7h-1c-1.442-12.933-2.237-25.78-2.603-38.788-.201-6.47-.609-12.799-1.46-19.212-1.08-8.715-1.254-17.458-1.345-26.23-.02-1.623-.047-3.246-.084-4.869-.328-15.69-.328-15.69 4.17-21.564 4.068-4.112 8.044-4.594 13.634-4.9C45.178 7.578 48.791 9.818 54 14l2.39 1.383c3.098 1.92 5.699 4.215 8.36 6.68l1.615 1.44c2.64 2.403 4.675 4.557 6.678 7.548C75.18 34.237 76.652 36.09 80 38c5.097.366 10.092-.905 15.059-1.918 6.346-1.276 12.607-1.54 19.066-1.707 2.023-.052 4.047-.107 6.07-.164l2.595-.053c2.385-.079 2.385-.079 5.21-1.158v-2h2l2-9c4.576 1.144 5.938 2.524 9 6l1 3c4.548.178 7.88-.002 12-2l.5 2.313c1.828 3.275 3.577 3.838 7.035 5.042 4.666 1.22 9.417 1.458 14.215 1.77 2.037.146 4.073.294 6.11.445.891.06 1.783.12 2.702.18 2.242.23 4.263.683 6.438 1.25 1.749.066 3.5.086 5.25.063l2.703-.028L201 40l2-4h2l.77-2.66C209.438 23.383 218.328 14.022 227 8h3V6z" fill="rgba(135, 135, 135, 1)" stroke="none"/>
  <path d="M59 186l2.25 1.438c2.552 1.656 2.552 1.656 4.938 1.937L68 190c1 2.188 1 2.188 2 5l1.816 2.719c2.287 3.436 4.216 6.939 6.121 10.594 2.584 4.918 5.21 9.788 8.055 14.562 2.746 5.79 3.393 11.58 3.695 17.875l.143 2.285c.18 3.306.226 5.796-.83 8.965-2.703 1.802-4.079 2.394-7.125 3.063-3.634.523-3.634.523-4.875 1.937-2.28.53-4.572.963-6.871 1.402-2.322.465-2.322.465-4.129 2.598-.46 2.203-.46 2.203-.625 4.625l-.227 2.477L65 270l1.96.754L69 272l.625 3.938c.37 2.176.37 2.176 1.375 4.062 3.126 1.8 6.485 2.322 10 3 2.355.536 4.71 1.078 7.063 1.625l3.347.727C94 286 94 286 95 287c3.299.204 6.595.32 9.898.426 3.102.574 3.102.574 4.977 2.117 1.57 3.427 1.656 6.75 1.75 10.457.091 5.173.091 5.173 1.012 10.234.515 2.503-.305 3.767-1.45 6.016-1.469 3.055-2.57 5.879-3.312 9.188C107 329 107 329 105 331c-3.567-5.733-5.83-11.618-8-18h-3c.537 5.325 1.897 9.745 4.125 14.625l.941 2.098c6.457 16.283 6.457 16.283 17.934 28.277v2l1.688.75c2.71 1.465 4.928 3.305 7.312 5.25-6.704-.042-13.407-.115-20.111-.208-2.274-.028-4.548-.049-6.822-.063-12.943-.085-24.776-.4-37.067-4.729l-2.931-.975c-5.603-1.92-9.658-4.792-14.061-8.732-1.933-1.551-1.933-1.551-4.266-.992L39 351l.207-2.152c-.263-3.612-1.539-5.396-3.52-8.41-3.675-6.05-5.3-11.556-6.687-18.438l-.805-3.188C24.157 302.815 23.7 286.163 27 270l.473-2.71c.465-2.478.465-2.478 1.527-6.29l3-1 .313-3.625c.249-2.894.798-4.588 2.164-7.207 1.687-3.509 2.153-6.374 2.586-10.23.493-4.332 1.124-7.96 2.937-11.938h2l.516-1.95C50.193 196.424 50.193 196.424 55 192l1.688-1.688L58 189l2 2-1-5zM36 351h3l1 4-4-4z" fill="rgba(99, 99, 99, 1)" stroke="none"/>
  <path d="M244.188 1.5L247 3v2l1.871.805c3.651 2.05 4.794 5.414 6.129 9.195 3.784 13.978 3.513 28.189 3.625 42.563.044 3.697.093 7.395.143 11.093.032 2.427.063 4.854.092 7.282.129 10.511.43 21.01.836 31.513.305 8.189.349 16.356.304 24.549h-2v4l1.688-.035c5.21-.062 10.156.285 15.312 1.035-2 3-2 3-3 4-2.533.073-5.031.092-7.563.063L257 141l-4 16 11 1 1-5c2.22-3.329 3.347-3.75 7-5l-.438 3.688-.261 2.21C271 156 271 156 270.25 158.813L270 161c1.396 1.646 1.396 1.646 3 3v3h-7l-.586 2.3-.789 3.012-.773 2.989C263 178 263 178 261 181l-2-3-2 2c.611-5.804 2.762-10.658 5-16l-12-2-1 5c-1.305 2.387-1.305 2.387-2.875 4.688l-1.555 2.324C243 176 243 176 240 178l-2 3c-2.023 1.246-2.023 1.246-4.375 2.438-3.428 1.821-6.077 3.57-8.625 6.562l.91 1.68 1.153 2.195 1.16 2.18L229 198l-1 2h-2l-2 3a804.91 804.91 0 0 1-2.5-4.375l-1.406-2.46C219 194 219 194 219 192l-3.438 1.75c-10.14 4.492-21.494 6.953-32.562 6.25v-4l3.402-.77c15.232-3.482 29.105-8.071 42.598-16.23l-1.703-1.27a542.33 542.33 0 0 1-7.047-5.417l-2.422-1.887L216 169l1-3c2.891-.235 4.512-.313 6.992 1.277l1.883 1.66c3.661 2.909 6.298 4.249 11.125 4.063 3.303-2.11 4.32-4.6 5.61-8.16l.795-2.18L244 161l-1.772-.06c-2.66-.096-5.319-.205-7.978-.315l-2.79-.094-2.694-.117-2.476-.095c-2.458-.342-4.148-1.093-6.29-2.319v-4h27c2.628-6.453 2.628-6.453 5-13-2.668.285-5.334.578-8 .875l-2.254.238c-5.065.573-9.812 1.611-14.746 2.887-3 .125-3 .125-5 0v-5c10.393-3.948 19.985-4.753 31-5l-.076-1.653c-.706-15.908-1.075-31.813-1.362-47.733-.161-8.894-.334-17.788-.506-26.683-.051-2.68-.1-5.361-.149-8.042-.077-4.151-.177-8.301-.282-12.452l-.057-3.446c-.25-8.71-1.144-16.947-6.568-23.991V9l-5-1V6h-9v2a176.56 176.56 0 0 1-5 3c-7.716 6.042-15.427 13.495-19.094 22.766C205 36 205 36 203 37c-1.134 2.017-1.134 2.017-2 4-1.583.027-3.167.046-4.75.063l-2.672.035C191 41 191 41 189.158 40.518c-2.443-.587-4.755-.762-7.263-.913-.985-.068-1.969-.137-2.983-.209a601.908 601.908 0 0 0-6.14-.382C166.37 38.543 160.45 37.624 155 34c-1.063-2.75-1.063-2.75-1-5l-2.063 1.563c-3.828 1.873-5.87 1.567-9.937.437-1.938-1.938-1.938-1.938-3-4v-2c-2.332-1.206-4.496-2.165-7-3l-2 9h-2v2c-3.208 2.139-4.107 2.255-7.805 2.309l-2.926.073-3.144.056c-6.452.125-12.648.323-18.96 1.746-13.014 2.928-13.014 2.928-17.055.839-3.58-2.893-6.165-6.499-8.79-10.247-4.995-6.717-12.004-12.118-19.445-15.838C48 11 48 11 45 9c-2.998-.319-2.998-.319-6.313-.25l-3.363-.016C31.89 9.01 29.178 9.684 26 11c-1.333 1.833-1.333 1.833-2 4l-1.03 1.658c-1.36 3.284-1.255 6.443-1.236 9.94l-.008 2.248a914.24 914.24 0 0 0 .024 7.216l.006 2.489c.03 9.584.196 19.042 1.462 28.555.894 6.911 1.084 13.807 1.282 20.769.423 23.807.423 23.807 6.477 46.605C32 137 32 137 32 139l3.688-.188C43.682 138.8 51.67 140.879 59 144v5c-5.709-.668-11.345-1.538-17-2.563l-2.348-.42c-1.884-.337-3.768-.677-5.652-1.017l1.094 2.336 1.406 3.039 1.406 3.023C39 156 39 156 39 158l1.5-.5c3.534-.707 6.897-.56 10.5-.5.563 1.938.563 1.938 1 4-1 1-1 1-2.848 1.098L43 162l4 6c2.643-.508 4.478-1.26 6.875-2.563 3.348-1.54 5.49-1.697 9.125-1.437-.125 2.313-.125 2.313-1 5-3.207 2.022-5.192 3-9 3v3l2.688.688C59 177 59 177 61.062 179.313c7.03 6.431 17.75 8.3 26.747 10.773 3.833 1.098 7.49 2.434 11.191 3.914v3c-2.967.915-4.986 1.023-8.012.363l-2.284-.495-2.391-.555-2.45-.554c-4.981-1.175-9.516-2.64-14.101-4.946-2.508-1.157-5.038-1.48-7.762-1.813l-2-1 1 3h-5l-2 4h-2l-.813 3.395c-1.207 4.826-2.676 9.554-4.187 14.292-.26.829-.52 1.657-.79 2.51-1.267 4-2.572 7.936-4.21 11.803h-2c-1.107 5.135-1.68 10.316-2.305 15.527-.722 3.61-1.982 6.236-3.695 9.473-.676 2.238-.676 2.238-1.063 4.313L32 260l-2 1c-1.027 3.145-1.524 6.437-2.125 9.688l-.54 2.894C25.994 281.19 25.527 288.272 26 296l.133 3.285c.43 7.832 1.951 15.127 3.867 22.715l.617 3.063c1.483 7.027 4.057 12.273 8.055 18.246 1.542 3.125 1.391 4.436.328 7.691-2.27-.168-2.27-.168-5-1-1.95-2.363-1.95-2.363-3.688-5.313l-1.761-2.925c-2.364-4.21-3.883-7.677-4.805-12.453l-.65-3.366-.659-3.505c-.22-1.13-.442-2.26-.67-3.424-6.133-32.189.695-58.949 11.05-89.471a369.055 369.055 0 0 0 4.136-13.05c2.034-6.682 4.576-13.102 7.234-19.555.892-2.178 1.782-4.356 2.668-6.536l1.177-2.86c1.868-4.7 1.868-4.7.968-9.542l-3.25 1.875c-2.548 1.457-5.103 2.854-7.75 4.125v2c-4.47 4-4.47 4-7 4l-.819 1.759c-2.023 3.84-4.839 7.062-7.556 10.429l-1.75 2.232c-.565.7-1.13 1.401-1.71 2.123l-1.55 1.938C15.738 210.247 14.564 210.79 12 211c-2-2-2-2-2.355-4.281C10.588 199.5 17.907 192.818 23 188c.888-1.03 1.762-2.073 2.625-3.125 2.873-3.478 5.073-5.759 9-7.938 3.408-1.542 3.408-1.542 4.375-3.937h3l-5-6c-6.94 1.87-12.165 4.871-18 9l-5 3-2 1.75c-2 1.25-2 1.25-4.75.938L5 181c.172-4.409.352-6.389 3.625-9.477A96.584 96.584 0 0 1 12 169.375l1.775-1.146A244.03 244.03 0 0 1 19 165l2.723-1.684C25.599 161.032 27.37 160 32 160l-5-13c-6.591.673-11.679 2.375-17.125 6.188C6.851 155.094 5.489 155.498 2 155c-1-1-1-1-1.375-3.25.55-4.035 2.217-5.25 5.375-7.75 2.59-1.286 5.238-2.159 8-3l2.738-.848A611.967 611.967 0 0 1 24 138l-.818-2.739c-2.624-9.22-4.077-18.12-4.807-27.698l-.359-4.326c-.303-3.696-.585-7.393-.858-11.09-.151-2.058-.307-4.115-.463-6.172-1.134-15.294-1.905-30.606-2.42-45.932a805.73 805.73 0 0 0-.189-5.03 602.504 602.504 0 0 1-.23-7.044l-.094-2.086c-.135-6.37 1.417-11.646 5.425-16.57C27.13 2.782 33.635-.005 44 1c9.11 2.046 15.954 8.237 23 14l2.887 2.188L72 19v2h2c2.993 2.763 5.763 5.585 8 9v2l3.004-.93c3.931-1.118 7.878-1.731 11.933-2.195l2.206-.266c6.592-.726 13.046-.617 19.662-.289 3.228.006 3.228.006 5.043-2.07 1.08-2.108 1.967-4.129 2.715-6.375.906-2.716 1.359-3.797 3.437-5.875 4.681.407 8.361 1.338 11.703 4.727l1.547 1.898 1.578 1.914L146 24l1.816-.969C150.848 21.6 152.683 21.458 156 22c2.15 1.83 3.382 3.621 5 6v2c8.07 1.574 16.006 2.343 24.195 2.781 4.62.266 9.208.7 13.805 1.219l.305-2.168C202.279 19.716 214.07 8.801 224 2c6.276-3.068 13.74-3.27 20.188-.5z" fill="rgba(21, 20, 21, 1)" stroke="none"/>
  <path d="M319.727 129.652A77.985 77.985 0 0 1 326 135l1.637 1.41c4.64 5.41 4.9 14.656 4.722 21.453-.752 6.566-2.03 14.724-7.359 19.137l-2-1 1-3c-.39-2.143-.39-2.143-1-4h-2l-.727 1.797c-1.54 2.666-3.091 3.749-5.648 5.453l-2.688 1.805L309 180l-3.188 2.195c-9.034 6.178-9.034 6.178-12.812 6.805v2a87.157 87.157 0 0 1-4.063 2.875c-5.809 4.398-8.656 9.73-11.937 16.125l-1.625 2.95c-3.437 6.435-5.609 12.732-7.32 19.823-1.17 3.58-2.893 6.164-5.055 9.227-.77 2.226-.77 2.226-1 4h-2l-1 2c-5.333-8.757-6.853-15.393-6.125-25.563.07-1.227.14-2.455.21-3.72 1.22-18.464 6.209-34.544 12.915-51.717h7l-1.438-2.313c-2.417-4.157-2.64-6.273-1.625-10.875l.59-2.73L271 149c-2.338.956-3.716 1.532-5.047 3.727l-.703 1.898L264 158c-1.458.027-2.917.046-4.375.063l-2.46.035C255 158 255 158 253 157c.601-5.65 2.075-10.662 4-16l2.957-.148 3.856-.227 3.832-.21c3.483-.176 3.483-.176 6.355-2.415l-16-2v-4h2v2c2.73.108 5.456.187 8.188.25l2.33.102c5.236.09 7.559-.628 11.482-4.352 2.316-1.23 2.316-1.23 4.563-2.188l2.253-.98c9.628-3.669 22.097-2.52 30.91 2.82z" fill="rgba(71, 71, 71, 1)" stroke="none"/>
  <path d="M244.188 1.5L247 3v2l1.871.805c3.651 2.05 4.794 5.414 6.129 9.195 3.784 13.978 3.513 28.189 3.625 42.563.044 3.697.093 7.395.143 11.093.032 2.427.063 4.854.092 7.282.129 10.511.43 21.01.836 31.513.305 8.189.349 16.356.304 24.549h-2v4l1.688-.035c5.21-.062 10.156.285 15.312 1.035-2 3-2 3-3 4-2.533.073-5.031.092-7.563.063L257 141l-4 16 11 1 1-5c2.22-3.329 3.347-3.75 7-5l-.438 3.688-.261 2.21C271 156 271 156 270.25 158.813L270 161c1.396 1.646 1.396 1.646 3 3v3h-7l-.586 2.3-.789 3.012-.773 2.989C263 178 263 178 261 181l-2-3-2 2c.611-5.804 2.762-10.658 5-16l-12-2-1 5c-1.305 2.387-1.305 2.387-2.875 4.688l-1.555 2.324C243 176 243 176 240 178l-2 3c-2.023 1.246-2.023 1.246-4.375 2.438-3.428 1.821-6.077 3.57-8.625 6.562l.91 1.68 1.153 2.195 1.16 2.18L229 198l-1 2h-2l-2 3a804.91 804.91 0 0 1-2.5-4.375l-1.406-2.46C219 194 219 194 219 192l-3.438 1.75c-10.14 4.492-21.494 6.953-32.562 6.25v-4l3.402-.77c15.232-3.482 29.105-8.071 42.598-16.23l-1.703-1.27a542.33 542.33 0 0 1-7.047-5.417l-2.422-1.887L216 169l1-3c2.891-.235 4.512-.313 6.992 1.277l1.883 1.66c3.661 2.909 6.298 4.249 11.125 4.063 3.303-2.11 4.32-4.6 5.61-8.16l.795-2.18L244 161l-1.772-.06c-2.66-.096-5.319-.205-7.978-.315l-2.79-.094-2.694-.117-2.476-.095c-2.458-.342-4.148-1.093-6.29-2.319v-4h27c2.628-6.453 2.628-6.453 5-13-2.668.285-5.334.578-8 .875l-2.254.238c-5.065.573-9.812 1.611-14.746 2.887-3 .125-3 .125-5 0v-5c10.393-3.948 19.985-4.753 31-5l-.076-1.653c-.706-15.908-1.075-31.813-1.362-47.733-.161-8.894-.334-17.788-.506-26.683-.051-2.68-.1-5.361-.149-8.042-.077-4.151-.177-8.301-.282-12.452l-.057-3.446c-.25-8.71-1.144-16.947-6.568-23.991V9l-5-1V6h-9v2a176.56 176.56 0 0 1-5 3c-7.716 6.042-15.427 13.495-19.094 22.766C205 36 205 36 203 37c-1.134 2.017-1.134 2.017-2 4-1.583.027-3.167.046-4.75.063l-2.672.035C191 41 191 41 189.158 40.518c-2.443-.587-4.755-.762-7.263-.913-.985-.068-1.969-.137-2.983-.209a601.908 601.908 0 0 0-6.14-.382C166.37 38.543 160.45 37.624 155 34c-1.063-2.75-1.063-2.75-1-5l-2.063 1.563c-3.828 1.873-5.87 1.567-9.937.437-1.938-1.938-1.938-1.938-3-4v-2c-2.332-1.206-4.496-2.165-7-3l-2 9h-2v2c-3.208 2.139-4.107 2.255-7.805 2.309l-2.926.073-3.144.056c-6.452.125-12.648.323-18.96 1.746-13.014 2.928-13.014 2.928-17.055.839-3.58-2.892-6.158-6.495-8.78-10.243C64.382 21.155 57.395 15.615 50 12l1-5c1.813.25 1.813.25 4 1l1.313 2c1.605 2.367 1.605 2.367 4.937 2.375 4.807.801 7.571 2.982 10.75 6.625v2h2c2.993 2.763 5.763 5.585 8 9v2l3.004-.93c3.931-1.118 7.878-1.731 11.933-2.195l2.206-.266c6.592-.726 13.046-.617 19.662-.289 3.228.006 3.228.006 5.043-2.07 1.08-2.108 1.967-4.129 2.715-6.375.906-2.716 1.359-3.797 3.437-5.875 4.681.407 8.361 1.338 11.703 4.727l1.547 1.898 1.578 1.914L146 24l1.816-.969C150.848 21.6 152.683 21.458 156 22c2.15 1.83 3.382 3.621 5 6v2c8.07 1.574 16.006 2.343 24.195 2.781 4.62.266 9.208.7 13.805 1.219l.305-2.168C202.279 19.716 214.07 8.801 224 2c6.276-3.068 13.74-3.27 20.188-.5z" fill="rgba(29, 26, 27, 1)" stroke="none"/>
  <path d="M224 203c2.873 2.422 3.708 4.597 4.688 8.188l.761 2.73L230 216h2a104.53 104.53 0 0 1 4.625 5.875l1.273 1.684C241 227.738 241 227.738 241 230l3 1c11.828 11.505 15.877 34.188 16.313 49.977A369.141 369.141 0 0 1 260 299h-1v-6l-2.438 1.938c-4.641 3.05-9.51 3.677-14.93 2.585-4.76-1.458-8.651-3.494-12.632-6.523l-1.781-1.309c-3.415-2.67-5.498-4.871-7.219-8.878-1.964-4.449-4.512-5.033-9-6.813-6.714-5.613-9.756-13.851-11-22.313-.357-5.554 1.195-9.9 3.04-15.085 1.124-4.218 1.18-8.016 1.21-12.352.105-5.603.77-9.35 4.563-13.688 3.81-3.653 6.608-5.51 11.937-5.687L224 205v-2z" fill="rgba(113, 113, 113, 1)" stroke="none"/>
  <path d="M231.324 291.863l2.363 1.45c5.524 3 11.13 4.866 17.391 3.101 1.682-.714 3.308-1.557 4.922-2.414l3-1c.43 6.543-.505 11.054-2.938 17.117-1.079 2.928-1.737 5.769-2.375 8.82-1.618 6.81-4.88 12.248-8.687 18.063l-1.496 2.309c-1.095 1.615-2.289 3.163-3.504 4.691h-2v2c-21.249 18.584-50.374 23.336-77.874 22.143-5.1-.343-10.116-1.136-15.126-2.143l2-7 .563 1.938c1.364 2.434 1.364 2.434 4.812 2.937 3.616.125 4.617-.215 7.625-1.875 2.308.34 3.915.958 6 2 7.313.488 11.123-1.063 17.25-5.188C186 357 186 357 188 357l1-3h2l.75-2.133c1.416-3.248 3.193-5.855 5.25-8.742.815-1.157 1.629-2.314 2.441-3.473l1.278-1.817c6.241-8.944 12.148-18.106 17.882-27.381l1.172-1.895 1.123-1.817c1.078-1.7 2.211-3.365 3.346-5.027 1.74-2.688 2.387-4.565 2.758-7.715l-3-1c4.334-2.247 4.334-2.247 7.324-1.137z" fill="rgba(249, 249, 249, 1)" stroke="none"/>
  <path d="M119 277c2.281-.238 2.281-.238 5 0 7.913 6.79 11.548 17.892 14.258 27.621.723 2.317 1.626 4.383 2.68 6.567 5.43 11.717 7.24 24.52 7.312 37.312l.063 2.762c.032 5.712-.663 9.661-3.313 14.738 7.615.766 15.163 1.107 22.813 1.125l2.385.014c3.683-.01 7.257-.146 10.907-.643 3.85-.49 7.518-.596 11.395-.558l3.719.027L199 366l-1 4h-8l-1 3c-14.758 1.936-29.908 1.29-44.724.356a201.952 201.952 0 0 0-13.483-.34c-9.037.029-18.057-.286-27.086-.65a839.104 839.104 0 0 0-5.892-.21C80.45 371.6 59.604 370.71 45 360v-2h-3c-1.813-2.25-1.813-2.25-3-5 .813-2.313.813-2.313 2-4 2.972 1.399 5.57 3.043 8.25 4.938 4.082 2.728 8.055 4.637 12.75 6.062l2.85.983c12.081 3.756 24.022 3.685 36.587 3.767 2.196.028 4.392.058 6.588.09A2226 2226 0 0 0 124 365l-1.531-1.023-1.969-1.352-1.969-1.336L117 360v-2l-1.788-.726c-7.561-4.356-11.51-15.439-15.024-23.024l-1.444-3.035C92.345 317.625 92.345 317.625 94 312c1.832.094 1.832.094 4 1 1.387 2.781 1.387 2.781 2.688 6.5 2.246 6.095 4.874 11.834 7.937 17.563l1.128 2.125C113.11 345.406 116.268 350.7 122 355l2 2.063c4.006 3.88 6.74 5.117 12.313 5.125A215.88 215.88 0 0 0 141 362c3.27-11.61 1.456-25.697-2-37-.38-1.308-.758-2.617-1.137-3.926-5.843-21.032-5.843-21.032-17.574-38.695C119 281 119 281 119 277z" fill="rgba(23, 21, 22, 1)" stroke="none"/>
  <path d="M63 164c-.125 2.313-.125 2.313-1 5-3.207 2.022-5.192 3-9 3v3l2.688.688C59 177 59 177 61.062 179.313c7.03 6.431 17.75 8.3 26.747 10.773 3.833 1.098 7.49 2.434 11.191 3.914v3c-2.967.915-4.986 1.023-8.012.363l-2.284-.495-2.391-.555-2.45-.554c-4.981-1.175-9.516-2.64-14.101-4.946-2.508-1.157-5.038-1.48-7.762-1.813l-2-1 1 3h-5l-2 4h-2l-.813 3.395c-1.207 4.826-2.676 9.554-4.187 14.292-.26.829-.52 1.657-.79 2.51-1.267 4-2.572 7.936-4.21 11.803h-2c-1.107 5.135-1.68 10.316-2.305 15.527-.722 3.61-1.982 6.236-3.695 9.473-.676 2.238-.676 2.238-1.063 4.313L32 260l-2 1c-1.027 3.145-1.524 6.437-2.125 9.688l-.54 2.894C25.994 281.19 25.527 288.272 26 296l.133 3.285c.43 7.832 1.951 15.127 3.867 22.715l.617 3.063c1.483 7.027 4.057 12.273 8.055 18.246 1.542 3.125 1.391 4.436.328 7.691-2.27-.168-2.27-.168-5-1-1.95-2.363-1.95-2.363-3.688-5.313l-1.761-2.925c-2.364-4.21-3.883-7.677-4.805-12.453-.215-1.11-.43-2.221-.65-3.366l-.659-3.505c-.22-1.13-.442-2.26-.67-3.424-6.133-32.189.695-58.949 11.05-89.471a369.055 369.055 0 0 0 4.136-13.05c2.034-6.682 4.576-13.102 7.234-19.555.892-2.178 1.782-4.356 2.668-6.536l1.177-2.86c1.225-3.208 1.225-3.208 1.968-6.542-1.352-2.248-1.352-2.248-3-4l-8 2v-3l4-2v-6c3-1 3-1 4.75-.313 3.18.442 4.817-1.117 7.434-2.761 2.63-1.34 4.929-1.208 7.816-.926z" fill="rgba(41, 37, 38, 1)" stroke="none"/>
  <path d="M140.139 140.545c6.433.153 9.47 2.026 13.861 6.455a737.538 737.538 0 0 0 4.25 3.625L162 154l2.562 2.125C166 158 166 158 165.875 160.625 165 163 165 163 163 165c-3.625-.375-3.625-.375-7-1l-.875 1.875C154 168 154 168 152 170c-2.023.266-2.023.266-4.375.25l-2.336.016c-2.527-.294-4.139-.92-6.289-2.266l-1-2c-2.69 1.22-2.69 1.22-5 3-5.285.352-8.71.486-13-3v-2h-3v2c-5.429.362-5.429.362-7.875-1.187-1.642-2.645-1.839-3.744-1.125-6.813a36.074 36.074 0 0 1 7-6h2v-2c1.574-1.184 1.574-1.184 3.687-2.437l2.204-1.325L125 145c5.722-3.409 8.197-4.396 15.139-4.455z" fill="rgba(173, 173, 173, 1)" stroke="none"/>
  <path d="M258 141l-5 16 11 1 1-5c2.22-3.329 3.347-3.75 7-5l-.438 3.688-.261 2.21C271 156 271 156 270.25 158.813L270 161c1.396 1.646 1.396 1.646 3 3v3h-7l-.586 2.3-.789 3.012-.773 2.989C263 178 263 178 261 181l-2-3-2 2c.611-5.804 2.762-10.658 5-16l-12-2-1 5c-1.305 2.387-1.305 2.387-2.875 4.688l-1.555 2.324C243 176 243 176 240 178l-2 3c-2.023 1.246-2.023 1.246-4.375 2.438-3.428 1.821-6.077 3.57-8.625 6.562l.91 1.68c.38.724.76 1.449 1.153 2.195l1.16 2.18L229 198l-1 2h-2l-2 3a804.91 804.91 0 0 1-2.5-4.375l-1.406-2.46C219 194 219 194 219 192l-3.438 1.75c-10.14 4.492-21.494 6.953-32.562 6.25v-4l3.402-.77c15.232-3.482 29.105-8.071 42.598-16.23l-1.703-1.27a542.33 542.33 0 0 1-7.047-5.417l-2.422-1.887L216 169l1-3c2.891-.235 4.512-.313 6.992 1.277l1.883 1.66c3.661 2.909 6.298 4.249 11.125 4.063 3.303-2.11 4.32-4.6 5.61-8.16l.795-2.18L244 161l-1.772-.06c-2.66-.096-5.319-.205-7.978-.315l-2.79-.094-2.694-.117-2.476-.095c-2.458-.342-4.148-1.093-6.29-2.319v-4h27c2.628-6.453 2.628-6.453 5-13 2-1 2-1 6 0z" fill="rgba(15, 15, 15, 1)" stroke="none"/>
  <path d="M170 270c2.063.438 2.063.438 4 1l-.445 2.185c-.515 2.614-.98 5.232-1.434 7.858-1.114 6.152-2.563 12.2-4.059 18.27-1.928 7.927-3.83 15.847-5.472 23.84-.375 1.81-.776 3.616-1.211 5.413-1.947 8.364-3.347 18.539.621 26.434 2.088 2.504 2.088 2.504 5 4 6.118.118 11.277-2.255 16-6 5.866-6.522 10.678-13.804 15.29-21.25 4.206-6.762 8.69-13.345 13.335-19.813 3.098-4.373 5.648-8.932 8.113-13.687C221 296 221 296 223 294h4c.549 4.77-1.259 7.535-3.875 11.313-.83 1.24-1.658 2.48-2.484 3.722l-1.315 1.958c-2.227 3.37-4.33 6.818-6.451 10.257-3.223 5.187-6.532 10.273-10.086 15.242a399.766 399.766 0 0 0-4.078 5.828l-1.205 1.753-3.393 4.947c-3.166 4.465-5.919 8.173-10.55 11.168l-2.247 1.48c-4.962 2.853-9.568 4.338-15.316 3.332-5.746-2.242-8.841-5.447-11.309-11.035-1.35-3.84-1.85-7.195-1.879-11.277l-.042-2.739c.275-3.519 1.223-6.567 2.23-9.949.645-2.884 1.193-5.785 1.75-8.688a2292.56 2292.56 0 0 1 5.25-25.875l.718-3.528c3.908-18.535 3.908-18.535 7.282-21.909z" fill="rgba(23, 23, 23, 1)" stroke="none"/>
  <path d="M106.125 104.75c4.439 1.93 7.196 4.232 9.875 8.25.936 7.35.536 13.974-4 20-3.223 3.816-6.417 6.255-11.375 7.25-5.68.282-9.534-2.57-13.625-6.25-3.39-4.259-6.168-8.372-5.813-13.938 1.98-7.46 5.209-10.868 11.688-14.812 4.684-1.874 8.391-1.666 13.25-.5z" fill="rgba(11, 11, 11, 1)" stroke="none"/>
  <path d="M193.613 109.465c4.209 1.195 7.915 2.802 10.578 6.46 1.851 4.748 1.555 10.11.809 15.075-1.406 2.902-1.406 2.902-3 5h-2v2c-5.88 3.114-11.295 5.497-18 4-4.275-1.904-8.645-3.93-11.266-7.934-1.786-5.027-1.152-9.872.578-14.816 5.458-10.51 10.665-11.855 22.301-9.785z" fill="rgba(9, 9, 9, 1)" stroke="none"/>
  <path d="M149.445 59.066c3.917 2.653 6.755 5.666 8.16 10.309.923 6.136.939 12.453.395 18.625l-2 2c-.604 2.132-.604 2.132-1 4.5-.778 4.278-.778 4.278-3 6.5-2.625-.375-2.625-.375-5-1l-.25-2.313c-.476-2.813-.476-2.813-2.75-4.062-2.95-2.397-2.493-4.952-3-8.625a349.422 349.422 0 0 0-4-5v-5h-15c-1-7-1-7-.313-9.375 1.643-2.034 2.803-2.14 5.313-2.625l1-2c6.466-3.736 14.43-4.993 21.445-1.934z" fill="rgba(80, 80, 80, 1)" stroke="none"/>
  <path d="M40 27c20.633 9.266 20.633 9.266 24 16 .454 4.013.597 6.176-1.813 9.5-5.817 5.03-12.889 10.031-20.624 10.875C38 63 38 63 35.82 60.918c-2.202-3.53-2.38-5.846-2.508-9.98C33.17 47.108 32.965 43.696 32 40a89.235 89.235 0 0 1-.313-5.563l-.113-2.878C32 29 32 29 33.77 27.098c2.725-1.342 3.412-1.003 6.23-.098z" fill="rgba(12, 12, 12, 1)" stroke="none"/>
  <path d="M244.84 185.086c2.786 1.179 5.465 2.542 8.16 3.914-.309 2.605-.622 5.209-.938 7.813l-.263 2.236c-.381 3.118-.803 5.962-1.799 8.951-.226 2.393-.408 4.79-.563 7.188l-.253 3.855L249 222c-2.893.12-4.366.086-7-1-5.356-5.117-9.045-11.276-12-18a7836.943 7836.943 0 0 0-3.25-7c-.918-2-1.835-4-2.75-6 7.716-7.845 10.843-8.65 20.84-4.914z" fill="rgba(245, 245, 245, 1)" stroke="none"/>
  <path d="M228 21c1.813.063 1.813.063 4 1 3.57 4.624 5.443 9.354 7.25 14.875l.813 2.316c2.015 6.057 2.928 11.483 1.062 17.746C240 59 240 59 238 60c-7.686.223-12.853-2.528-18.61-7.348-2.616-2.638-3.84-5.222-4.265-8.84.313-6.556 5.366-11.458 9.875-15.812h2l-.063-2.938C227 22 227 22 228 21z" fill="rgba(11, 11, 11, 1)" stroke="none"/>
  <path d="M63 164c-.125 2.313-.125 2.313-1 5-3.207 2.022-5.192 3-9 3v3l2.688.688C59 177 59 177 61.062 179.313c7.03 6.431 17.75 8.3 26.747 10.773 3.833 1.098 7.49 2.434 11.191 3.914v3c-2.967.915-4.986 1.023-8.012.363l-2.284-.495-2.391-.555-2.45-.554c-4.981-1.175-9.516-2.64-14.101-4.946-2.508-1.157-5.038-1.48-7.762-1.813l-2-1 1 3h-5l-2 4h-2l-.875 3.813c-.698 3.04-1.33 4.494-3.125 7.187v-6l-2-1c-.302-5.776 1.297-9.902 3.418-15.195.916-2.84.916-2.84-.805-5.172L47 177l-8 2v-3l4-2v-6c3-1 3-1 4.75-.313 3.18.442 4.817-1.117 7.434-2.761 2.63-1.34 4.929-1.208 7.816-.926z" fill="rgba(29, 27, 29, 1)" stroke="none"/>
  <path d="M257 304h1v8h2l2-2a369.756 369.756 0 0 1-2 9l-.555 2.367c-1.954 7.36-5.235 14.29-9.445 20.633l-3 1-.438 1.75c-1.395 5.584-6.222 8.678-10.75 11.75l-3.23 2.219A326.802 326.802 0 0 1 229 361l-2.023 1.278c-5.943 3.54-11.913 5.384-18.602 7.035l-3.023.798c-5.256 1.338-9.93 2.216-15.352 1.889v-2l8-1v-2l-7-1v-1l1.844-.262c14.972-2.4 30.423-6.677 41.562-17.383C236 346 236 346 238 346v-2a954.1 954.1 0 0 1 4-4c5.867-8.353 9.955-16.143 12.305-26.074.795-3.345 1.721-6.63 2.695-9.926z" fill="rgba(44, 42, 43, 1)" stroke="none"/>
  <path d="M310 126c1.125 4.75 1.125 4.75 0 7l-2.746-.36c-7.707-.815-13.676-1.112-20.254 3.36a64.182 64.182 0 0 0-3 3h4v5h-12l-1 4a200.157 200.157 0 0 1-3 6c-1-2-1-2-1-5-2.395.743-3.708 1.47-4.934 3.691-.738 1.75-1.406 3.528-2.066 5.309-1.458.027-2.917.046-4.375.063l-2.46.035C255 158 255 158 253 157c.601-5.65 2.075-10.662 4-16l2.957-.148 3.856-.227 3.832-.21c3.483-.176 3.483-.176 6.355-2.415l-16-2v-4h2v2c2.73.108 5.456.187 8.188.25l2.33.102c5.236.09 7.559-.628 11.482-4.352 2.316-1.23 2.316-1.23 4.563-2.188l2.253-.98c6.943-2.645 13.967-2.312 21.184-.832z" fill="rgba(22, 19, 21, 1)" stroke="none"/>
  <path d="M41 349c2.972 1.399 5.57 3.043 8.25 4.938 4.083 2.728 8.056 4.633 12.75 6.062l2.78.983c12.682 4.008 25.464 3.688 38.657 3.767 2.39.028 4.778.058 7.167.09 5.798.073 11.597.125 17.396.16v2h-2l-1 3 3 1v2c-6.792-.187-13.583-.402-20.374-.635a1286.52 1286.52 0 0 0-6.906-.209C60.03 371.023 60.03 371.023 45 360v-2h-3c-1.813-2.25-1.813-2.25-3-5 .813-2.313.813-2.313 2-4z" fill="rgba(33, 31, 31, 1)" stroke="none"/>
  <path d="M23 269l3 1-.016 2.18c-.108 17.144-.2 33.12 4.016 49.82l.617 3.063c1.483 7.027 4.057 12.273 8.055 18.246 1.542 3.125 1.391 4.436.328 7.691-2.27-.168-2.27-.168-5-1-1.95-2.363-1.95-2.363-3.688-5.313l-1.761-2.925c-2.364-4.21-3.883-7.677-4.805-12.453l-.65-3.366-.659-3.505-.67-3.424c-1.88-9.872-2.958-19.59-2.892-29.639l.006-2.199c.041-5.131.381-10.102 1.119-15.176h2l1-3z" fill="rgba(27, 25, 26, 1)" stroke="none"/>
  <path d="M321 169h2c1.125 2.813 1.125 2.813 2 6l-2 3h-2v3c-1.95 1.543-1.95 1.543-4.688 3.188l-3.03 1.855a5795.277 5795.277 0 0 1-6.626 3.945C296.466 196.12 289.211 201.183 284 212a1966.53 1966.53 0 0 1-2.74 5.478 921.643 921.643 0 0 0-2.71 5.483C277 226 277 226 275 229v-8c-3.167 1.833-3.167 1.833-5 5 2.08-12.372 9.668-25.942 19.3-33.89C291 191 291 191 293 191v-2l1.617-.848C300.742 184.857 306.38 181.09 312 177c.784-.565 1.567-1.13 2.375-1.71 3.896-2.628 3.896-2.628 6.625-6.29z" fill="rgba(21, 19, 20, 1)" stroke="none"/>
  <path d="M51 7c1.813.25 1.813.25 4 1l1.313 2c1.605 2.367 1.605 2.367 4.937 2.375 4.807.801 7.571 2.982 10.75 6.625v2h2c2.993 2.763 5.763 5.585 8 9v2l2.723-.988c5.483-1.562 11.06-1.263 16.715-1.2l3.314.002c4.697.026 9.26.113 13.908.823L122 31l2-2 3 1c-.875 3.875-.875 3.875-2 5-1.533.122-3.072.18-4.61.21l-2.946.084c-2.153.055-4.306.107-6.459.158-5.415.18-10.535.543-15.829 1.735-13.008 2.924-13.008 2.924-17.046.836-3.58-2.892-6.158-6.495-8.78-10.243C64.382 21.155 57.395 15.615 50 12l1-5z" fill="rgba(34, 32, 33, 1)" stroke="none"/>
  <path d="M130 14c4.681.407 8.361 1.338 11.703 4.727l1.547 1.898 1.578 1.914L146 24l1.816-.969C150.848 21.6 152.683 21.458 156 22c2.15 1.83 3.382 3.621 5 6v2c9.322 1.818 18.536 2.544 28 3v1h-16l1 3 12 1v1c-23.108.607-23.108.607-31-5-.875-2.688-.875-2.688-1-5l-2.063 1.563c-3.828 1.873-5.87 1.567-9.937.437-1.938-1.938-1.938-1.938-3-4v-2c-2.332-1.206-4.496-2.165-7-3l-2 9h-2l-1 2v-2l-3-1-3 2c-2.36.043-2.36.043-5.105-.242l-2.979-.293-3.104-.34-3.138-.316c-2.56-.26-5.117-.53-7.674-.809v-1c6.975-.682 13.72-1.087 20.723-.645 2.412-.143 2.412-.143 3.988-2.109a33.565 33.565 0 0 0 2.852-6.371c.906-2.716 1.359-3.797 3.437-5.875z" fill="rgba(40, 38, 39, 1)" stroke="none"/>
  <path d="M36 162c2.188-.313 2.188-.313 5 0 2.813 2.5 2.813 2.5 5 5l-3 1 .25 2.75C43 174 43 174 41 176.375L39 178l9-2 1 2c-7.429 4.286-7.429 4.286-11 6v2c-4.47 4-4.47 4-7 4l-.819 1.759c-2.023 3.84-4.839 7.062-7.556 10.429l-1.75 2.232-1.71 2.123-1.55 1.938C15.738 210.247 14.564 210.79 12 211c-2-2-2-2-2.355-4.281C10.588 199.5 17.907 192.818 23 188c.888-1.03 1.762-2.073 2.625-3.125 2.873-3.478 5.073-5.759 9-7.938 3.408-1.542 3.408-1.542 4.375-3.937h3c-2.31-3.184-2.31-3.184-5-6-2.713-.504-2.713-.504-5 0l2-2h3l-1-3z" fill="rgba(68, 63, 65, 1)" stroke="none"/>
  <path d="M136 146l5 1 .113 2.703.2 3.547.175 3.516c.53 3.342 1.25 4.784 3.512 7.234l5-1v-10h5c2.484 3.726 2.38 5.587 2 10-1.405 2.873-2.745 4.745-5 7-2.023.266-2.023.266-4.375.25l-2.336.016c-2.527-.294-4.139-.92-6.289-2.266l-1-2c-2.69 1.22-2.69 1.22-5 3-5.283.352-8.755.517-13-3-2.606-3.415-3.367-5.722-3-10l5-1 3 7c2.874.334 2.874.334 6 0 1.774-1.92 1.774-1.92 3-4h2v-12z" fill="rgba(19, 19, 19, 1)" stroke="none"/>
  <path d="M103 341c3.585 3.226 5.722 7.308 8.184 11.406 1.755 2.506 3.368 3.83 5.816 5.594v2l1.688.75C121 362 121 362 126 366l-36-1c2.121-7.424 2.121-7.424 5.559-11.18 3.07-3.877 5.174-8.442 7.441-12.82z" fill="rgba(245, 245, 245, 1)" stroke="none"/>
  <path d="M38 33c8.504 2.462 15.86 5.633 21 13-1.47 3.84-3.401 5.141-6.938 7.125l-2.652 1.508L47 56l-3 2h-4c-.338-2.854-.67-5.708-1-8.563-.095-.8-.19-1.6-.29-2.423-.537-4.709-.812-9.275-.71-14.014z" fill="rgba(74, 74, 74, 1)" stroke="none"/>
  <path d="M310 127c7.008.15 10.875 3.451 16 8l1.66 1.418c5.293 6.25 4.934 16.892 4.34 24.582a59.825 59.825 0 0 1-1 4h-3l-2 2c-1.564-1.564-1.2-3.16-1.281-5.332l-.114-2.67-.105-2.81c-.07-1.82-.142-3.639-.219-5.458l-.092-2.456c-.182-2.193-.59-4.16-1.189-6.274h-2l-1.125-2.313c-2.696-3.864-5.43-4.302-9.875-5.687v-7z" fill="rgba(30, 27, 28, 1)" stroke="none"/>
  <path d="M227 180l2 1-1.715 1.172-2.222 1.578-2.215 1.547c-2.056 1.895-2.475 2.977-2.848 5.703l4-2a431.773 431.773 0 0 1 2.563 4.375l1.44 2.46L229 198l-1 2h-2l-2 3a804.91 804.91 0 0 1-2.5-4.375l-1.406-2.46C219 194 219 194 219 192l-3.438 1.75c-10.14 4.492-21.494 6.953-32.562 6.25v-4l3.402-.77c13.449-3.075 26.548-6.503 38.364-13.98L227 180z" fill="rgba(16, 16, 16, 1)" stroke="none"/>
  <path d="M250 162c1.625.141 3.25.288 4.875.438.905.08 1.81.162 2.742.246C260 163 260 163 262 164c-.705 2.397-1.42 4.79-2.148 7.18a236.825 236.825 0 0 0-1.579 5.453l-.71 2.43-.622 2.222C256 183 256 183 254.016 183.825c-2.889.251-3.775-1.032-6.016-2.825-2.298-1.107-4.632-2.044-7-3l1.46-2.23 1.915-2.958 1.898-2.917c1.547-2.593 2.702-5.064 3.727-7.895z" fill="rgba(235, 235, 235, 1)" stroke="none"/>
  <path d="M104.947 94.267c2.217.792 3.518 1.697 5.287 3.237l1.739 1.494 1.777 1.565 1.824 1.576c1.48 1.28 2.954 2.57 4.426 3.861l-2 2c-1.938 2.773-1.938 2.773-3 5l-1.812-2.375c-3.998-4.797-7.462-5.304-13.375-6-5.282.52-9.238 2.797-13.813 5.375l-1-2h2v-4c2.23-1.816 2.23-1.816 5.188-3.562.962-.58 1.925-1.158 2.917-1.754L98 97l2.613-1.777C103 94 103 94 104.947 94.267z" fill="rgba(240, 240, 240, 1)" stroke="none"/>
  <path d="M130 14c4.681.407 8.361 1.338 11.703 4.727l1.547 1.898 1.578 1.914L146 24l4-1-1 3-3.313-.063c-3.63-.122-3.63-.122-6.687 1.063v-2c-2.332-1.206-4.496-2.165-7-3l-2 9h-2l-1 2v-2l-3-1-3 2c-2.36.043-2.36.043-5.105-.242l-2.979-.293-3.104-.34-3.138-.316c-2.56-.26-5.117-.53-7.674-.809v-1c6.975-.682 13.72-1.087 20.723-.645 2.412-.143 2.412-.143 3.988-2.109a33.565 33.565 0 0 0 2.852-6.371c.906-2.716 1.359-3.797 3.437-5.875z" fill="rgba(59, 57, 58, 1)" stroke="none"/>
  <path d="M31 153l3 1v7h-5v3h-5l4 1v2l4 1-2.125 1.102c-5.397 2.86-10.419 5.818-15.219 9.601-1.497 1.173-3.074 2.242-4.656 3.297-2.688-.375-2.688-.375-5-1 .172-4.409.352-6.389 3.625-9.477A96.584 96.584 0 0 1 12 169.375l1.775-1.146A244.03 244.03 0 0 1 19 165l2.723-1.684C25.599 161.032 27.37 160 32 160l-1-7z" fill="rgba(70, 66, 69, 1)" stroke="none"/>
  <path d="M231 32c5.731 13.873 5.731 13.873 6 21l-1 2c-5.227-1.158-10.08-3.254-14.063-6.875-1.44-3.265-1.11-4.735.063-8.125 5.79-8 5.79-8 9-8z" fill="rgba(73, 73, 73, 1)" stroke="none"/>
  <path d="M257 141h15a139.798 139.798 0 0 1-5.125 11.313l-1.633 3.238L264 158c-1.458.027-2.917.046-4.375.063l-2.46.035C255 158 255 158 253 157c.605-5.685 2.092-10.607 4-16z" fill="rgba(241, 240, 241, 1)" stroke="none"/>
  <path d="M56.406 6.602C58.316 8.02 60.176 9.472 62 11l-4 2c-1.708-1.634-2.935-2.87-4-5h-3v3c-2.169-.506-4-1-6-2-8.698-.424-17.547-.24-26 2 1.252-3.755 2.456-4.169 5.813-6.125l2.644-1.57C37.093-1.64 47.725.824 56.407 6.602z" fill="rgba(37, 36, 36, 1)" stroke="none"/>
  <path d="M217 166c4.11-.33 5.95.273 9.125 2.875l2.008 1.617L230 172c3.88 2.587 5.53 1.798 10 1h3v3l-3 2-2 3c-1.918 1.21-1.918 1.21-4.188 2.375-3.09 1.64-5.94 3.354-8.75 5.438C222 191 222 191 220 191c.498-3.689 1.024-5.685 4-8l2.125-1c2.228-.912 2.228-.912 2.875-4l-2.082-1.207-2.73-1.606-2.708-1.582c-2.148-1.39-3.774-2.717-5.48-4.605l1-3z" fill="rgba(15, 15, 15, 1)" stroke="none"/>
  <path d="M193.988 86.156L196 87c-.372 2.58-.734 3.753-2.67 5.552l-2.154 1.471-2.37 1.657c-.822.56-1.645 1.119-2.494 1.695-6.704 4.56-6.704 4.56-12.644 10.04C171 110 171 110 167 110c-.366-4.507-.366-4.507 1.188-6.598A403.143 403.143 0 0 1 175 98l3.918-3.152c1.422-1.118 2.845-2.234 4.27-3.348l2.087-1.676c5.048-3.86 5.048-3.86 8.713-3.668z" fill="rgba(13, 13, 13, 1)" stroke="none"/>
  <path d="M36 162c2.188-.313 2.188-.313 5 0 2.813 2.5 2.813 2.5 5 5l-3 1 .25 2.75C43 174 43 174 41 176.375L39 178l9-2 1 2c-7.429 4.286-7.429 4.286-11 6v2c-4.47 4-4.47 4-7 4l-1 2-3-7c2.649-2.727 5.298-5.291 8.25-7.688 2.767-2.016 2.767-2.016 3.75-4.312h3c-2.31-3.184-2.31-3.184-5-6-2.713-.504-2.713-.504-5 0l2-2h3l-1-3z" fill="rgba(58, 52, 56, 1)" stroke="none"/>
  <path d="M226 199c1.938.176 1.938.176 4 1 1.125 1.855 1.125 1.855 2 4.188 1.966 4.857 4.47 8.9 7.75 13C241 219 241 219 241 222l3 1c1.188 2.063 1.188 2.063 2 4h-2l1 3-2 1c-4.174-3.928-7.894-8.165-11-13v-2h-2a479.647 479.647 0 0 1-2.5-5.188l-1.406-2.917c-1.096-2.9-1.399-4.832-1.094-7.895l1-1z" fill="rgba(15, 15, 15, 1)" stroke="none"/>
  <path d="M98 86l8 1v2h3v2l1.672.75c2.78 1.492 5.11 3.287 7.578 5.25l2.703 2.125L123 101v2l3 1v4c-3.295.38-4.635.266-7.36-1.723l-2.39-2.34C107.851 95.962 107.851 95.962 98 90v-4z" fill="rgba(20, 20, 20, 1)" stroke="none"/>
  <path d="M257 304h1v8h2l2-2a369.756 369.756 0 0 1-2 9l-.555 2.367c-1.99 7.491-5.619 13.945-9.445 20.633a84.76 84.76 0 0 1-2-7l-2 1a66.363 66.363 0 0 1 3.938-8.563c2.657-5.216 3.751-10.767 5.062-16.437.634-2.345 1.312-4.67 2-7zm-8 28l1 2z" fill="rgba(34, 31, 31, 1)" stroke="none"/>
  <path d="M94 312c1.813.055 1.813.055 4 1a58.187 58.187 0 0 1 3 7.125c1.458 4.053 2.908 7.86 5.14 11.559 1.715 3.058 2.4 4.826 2.61 8.253l.172 2.34L109 344h-4c-1.63-3.372-3.254-6.748-4.875-10.125l-1.395-2.883c-6.392-13.34-6.392-13.34-4.73-18.992z" fill="rgba(13, 13, 13, 1)" stroke="none"/>
  <path d="M45 195l.313 1.938L46 199l3 1c-3.975 22.975-3.975 22.975-8 27l.125-3.375c.286-3.669.286-3.669-2.125-5.625l-3 3c1.524-8.974 5.259-17.73 9-26z" fill="rgba(46, 43, 44, 1)" stroke="none"/>
  <path d="M63 164c-.125 2.313-.125 2.313-1 5-3.664 2.361-5.598 3-10 3l-1 6-1.734-.559c-2.554-.497-4.032-.207-6.516.496L39 179v-3l4-2v-6c3-1 3-1 4.75-.313 3.18.442 4.817-1.117 7.434-2.761 2.63-1.34 4.929-1.208 7.816-.926z" fill="rgba(5, 3, 5, 1)" stroke="none"/>
  <path d="M241 2l-1 5-10-1v2a223.731 223.731 0 0 1-5 3 142.06 142.06 0 0 0-4.813 4.188l-2.394 2.167L216 19l-2-2c.333-5.315 3.118-7.706 6.824-11.195C226.19 1.355 234.361-1.32 241 2z" fill="rgba(10, 7, 8, 1)" stroke="none"/>
  <path d="M24 327l2 1v3c3.075-.776 3.075-.776 5-3 .315.797.63 1.593.953 2.414 2.641 6.817 2.641 6.817 6.422 13.024C40 346 40 346 39.75 348.875L39 351c-2.27-.168-2.27-.168-5-1-1.95-2.363-1.95-2.363-3.688-5.313l-1.761-2.925c-2.93-5.22-3.955-8.806-4.551-14.762z" fill="rgba(48, 44, 45, 1)" stroke="none"/>
  <path d="M36 151c2.36 2.36 2.491 3.779 3 7l1.5-.5c3.534-.707 6.897-.56 10.5-.5.563 1.938.563 1.938 1 4-1 1-1 1-2.848 1.098L43 162v2l-6-1v2c-3.371 1.498-5.204 2-9 2v-2l-4 1v-2h5v-3h5l-.688-2.188c-.396-3.568.644-4.95 2.688-7.812z" fill="rgba(14, 13, 14, 1)" stroke="none"/>
  <path d="M250 136l-1 3 3 2-3.438.367-4.562.508-2.254.238c-5.065.573-9.812 1.611-14.746 2.887-3 .125-3 .125-5 0v-5c9.696-3.663 17.775-4.51 28-4z" fill="rgba(23, 23, 23, 1)" stroke="none"/>
  <path d="M189 349l2 1c-1.817 6.056-4.33 8.403-9.648 11.738-3.93 2.109-7.16 3.54-11.665 3.387L166 365l-1-4 2.379-.7c6.477-2.01 11.325-4.085 16.621-8.3 2.813-1.875 2.813-1.875 5-3z" fill="rgba(18, 18, 18, 1)" stroke="none"/>
  <path d="M321 169h2c1.125 2.813 1.125 2.813 2 6l-2 3h-2v3c-1.563 1.688-1.563 1.688-4 3-2.333.04-4.667.042-7 0l-3 2-3-2c3.818-4.2 8.066-7.22 12.793-10.352 2.434-1.626 2.434-1.626 4.207-4.648z" fill="rgba(10, 8, 8, 1)" stroke="none"/>
  <path d="M124 29l3 1c-.875 3.875-.875 3.875-2 5-1.998.158-4 .251-6.004.316l-3.682.127-3.876.12-3.89.13c-3.182.107-6.365.209-9.548.307a88.406 88.406 0 0 1-1-5c1.754-1.754 4.038-1.132 6.373-1.138l2.19.013 2.205.001c3.756.025 7.388.17 11.107.749L122 31l2-2z" fill="rgba(7, 5, 5, 1)" stroke="none"/>
  <path d="M13 143l-4 3c3.435.625 6.49 1 10 1v-2c3.473-1.158 6.36-1.069 10-1l1 8c-2-2-2-2-3-5-6.591.673-11.679 2.375-17.125 6.188C6.851 155.094 5.489 155.498 2 155c-1-1-1-1-1.375-3.25.54-3.954 2.346-5.26 5.375-7.75 4.448-2.276 4.448-2.276 7-1z" fill="rgba(60, 52, 56, 1)" stroke="none"/>
  <path d="M221 4l2 1-1.75 1.504c-2.265 2.073-4.34 4.09-6.25 6.496v3.313c0 6.103-4.274 10.088-8 14.687l-2-4-1 2h-2v2h-2c1.267-4.488 2.882-7.499 5.875-11.063l2.055-2.472L210 15l2.023-2.602c1.791-2.172 3.564-3.922 5.727-5.71l1.86-1.551L221 4z" fill="rgba(30, 28, 29, 1)" stroke="none"/>
  <path d="M303 183l2.313 1.125L308 185l3-2 4 2c-2.749 1.627-5.5 3.251-8.25 4.875l-2.355 1.395-2.286 1.347-2.094 1.238A108.05 108.05 0 0 1 294 197v-3l-2-1 2-2-1-2 1.934-1.059 2.503-1.379 2.497-1.37c1.99-1.029 1.99-1.029 3.066-2.192z" fill="rgba(22, 18, 18, 1)" stroke="none"/>
  <path d="M227 180l2 1-1.715 1.172-2.222 1.578-2.215 1.547c-2.056 1.895-2.475 2.977-2.848 5.703l4-2a431.773 431.773 0 0 1 2.563 4.375l1.44 2.46L229 198l-1 2h-2l-2 3a804.91 804.91 0 0 1-2.5-4.375l-1.406-2.46C219 194 219 194 219 192l-6 2 1-4-3-2 2.23-.988 2.958-1.325 2.917-1.3c2.93-1.334 2.93-1.334 5.633-3.117L227 180z" fill="rgba(27, 27, 27, 1)" stroke="none"/>
  <path d="M26 309c3.578 6.674 4.272 13.53 4 21l-4 1c-2.967-5.687-3.844-10.595-3-17 1.5-3.125 1.5-3.125 3-5z" fill="rgba(18, 16, 16, 1)" stroke="none"/>
  <path d="M20 169l-2 6h-2l-.75 1.813c-1.474 2.58-2.637 3.769-5.25 5.187-2.75-.313-2.75-.313-5-1 .485-6.423.485-6.423 2.563-8.75C16.91 167.456 16.91 167.456 20 169z" fill="rgba(51, 47, 50, 1)" stroke="none"/>
  <path d="M150 153c2.375-.188 2.375-.188 5 0 2.484 3.726 2.38 5.587 2 10-1.405 2.873-2.745 4.745-5 7-2.625.125-2.625.125-5 0 1.875-5.875 1.875-5.875 3-7 .072-1.686.084-3.375.063-5.063l-.028-2.785L150 153z" fill="rgba(30, 30, 30, 1)" stroke="none"/>
  <path d="M119 277c2.273-.258 2.273-.258 5 0 1.914 1.758 1.914 1.758 3.625 4.125l1.793 2.48C134 290.541 134 290.541 134 294h-2v-3h-2l-1 5c-2.33-3.496-4.435-7.1-6.563-10.723-1.371-2.358-1.371-2.358-3.437-4.277v-4z" fill="rgba(27, 27, 27, 1)" stroke="none"/>
  <path d="M118 153l-.098 5.957c.015 2.246.015 2.246 1.098 5.043h-2v2c-5.429.362-5.429.362-7.875-1.188-1.607-2.59-1.768-3.813-1.125-6.812 4.889-5 4.889-5 10-5z" fill="rgba(173, 173, 173, 1)" stroke="none"/>
  <path d="M39 217l3 1c-.454 7.03-2.12 12.585-5 19h-4c.146-7.987.948-13.662 6-20z" fill="rgba(13, 10, 11, 1)" stroke="none"/>
  <path d="M60 180l15 6-3 1v2l2 1 1 2c-4.468-.654-8.751-1.447-13-3-1.25-2.063-1.25-2.063-2-4l-3-1 3-4z" fill="rgba(40, 40, 40, 1)" stroke="none"/>
  <path d="M41.723 296.902l3.34.036 3.347.027L51 297v2h2v2c-7.818 2.745-14.679 4.676-23 4v-2l3.027-.402 3.91-.536 3.903-.527c3.015-.197 3.015-.197 4.16-1.535l-15 1v-2l6.152-.684c2.673-.457 2.555-1.305 5.57-1.414z" fill="rgba(80, 80, 80, 1)" stroke="none"/>
  <path d="M205 26l2 1c-.281 1.481-.575 2.96-.875 4.438l-.492 2.496L205 36l-2 1c-1.134 2.017-1.134 2.017-2 4-1.583.054-3.166.093-4.75.125l-2.672.07C191 41 191 41 187 39l12 1v-4l-2.875.125C193 36 193 36 191 34h8v-3h3v-2h2l1-3z" fill="rgba(29, 27, 28, 1)" stroke="none"/>
  <path d="M238 160c5.023-.295 7.895.015 12 3-1.566 4.308-3.683 8.062-6 12l-3-2-3 2c-2.688.125-2.688.125-5 0l1.75-.75c5.75-3.194 7.253-7.259 9.25-13.25h-6v-1z" fill="rgba(39, 39, 39, 1)" stroke="none"/>
  <path d="M142 152c3.909 1.303 6.46 2.708 9 6 .375 2.625.375 2.625 0 5l-2 2c-3.297-.33-4.623-.623-7-3-.195-2.383-.195-2.383-.125-5.125l.055-2.758L142 152z" fill="rgba(245, 245, 245, 1)" stroke="none"/>
  <path d="M244.188 1.5L247 3v2l4 2-1 2-3-2-2 4-1-2c-2.527-.656-2.527-.656-5-1l2-6c-6.406-.209-11.93-.158-18 2 5.189-5.683 14.407-5.44 21.188-2.5z" fill="rgba(58, 55, 57, 1)" stroke="none"/>
  <path d="M118 155c1.675.286 3.344.618 5 1l2 6c4.79.234 4.79.234 9-2l-2 5-2.117-.035-2.758-.028-2.742-.035c-2.4-.064-2.4-.064-4.383 1.098-2.39-3.486-3.473-5.745-3-10l1-1z" fill="rgba(34, 34, 34, 1)" stroke="none"/>
  <path d="M150 23l4 1v3h-2v3c-3.85 2.567-5.586 1.833-10 1l-2-5c3.153-.7 5.727-1 9-1l1-2z" fill="rgba(9, 7, 7, 1)" stroke="none"/>
  <path d="M147 359l.563 1.938c1.364 2.434 1.364 2.434 4.812 2.937 3.616.125 4.617-.215 7.625-1.875 2.25.375 2.25.375 4 1l-3 3 16 1v1c-10.898.207-21.271.157-32-2l2-7z" fill="rgba(190, 183, 186, 1)" stroke="none"/>
  <path d="M28 10l-2 1c-1.05 1.85-1.05 1.85-2 4l-1.023 1.84c-1.076 2.38-1.373 4.316-1.602 6.91l-.227 2.422L21 28h-1v-8h-3l-1 2c.257-1.44.53-2.877.813-4.313l.457-2.425C18.087 12.729 18.96 11.67 21 10c2.667-1.333 4.167-.671 7 0z" fill="rgba(13, 11, 12, 1)" stroke="none"/>
  <path d="M209 364l-1 4-2.938.375L202 369l-1 2c-3.565 1.371-7.234 1.072-11 1v-2l8-1v-2l-7-1v-1c1.875-.17 3.75-.336 5.625-.5l3.164-.281c3.082-.21 6.123-.256 9.211-.219z" fill="rgba(38, 35, 38, 1)" stroke="none"/>
  <path d="M51 157h2l3 9c-5.314 3.02-5.314 3.02-8.188 2.938C45.43 167.704 44.38 166.276 43 164v-2l8-1v-4z" fill="rgba(225, 226, 226, 1)" stroke="none"/>
  <path d="M257 304h1v8h2l2-2c-1.15 5.398-2.424 10.71-4 16h-1l-2-7 1-1-2-1c.656-4.485 1.7-8.67 3-13z" fill="rgba(61, 58, 58, 1)" stroke="none"/>
  <path d="M321 169h2c1.125 2.813 1.125 2.813 2 6l-2 3h-2v3c-3.333 3-3.333 3-6 3v-2h2v-2h2c-1.722-3.248-1.722-3.248-5-4l4.59-3.71c1.543-1.257 1.543-1.257 2.41-3.29z" fill="rgba(31, 29, 29, 1)" stroke="none"/>
  <path d="M180 117c3-.313 3-.313 6 0l2 2c-.367 2.935-.864 3.864-3 6-3.125.125-3.125.125-6 0-.625-2.313-.625-2.313-1-5l2-3z" fill="rgba(229, 229, 229, 1)" stroke="none"/>
  <path d="M41 349c2.954 1.372 5.44 2.989 8 5-1 3-1 3-2 4l3 3c-3 0-3 0-5-1v-2h-3c-1.813-2.25-1.813-2.25-3-5 .813-2.313.813-2.313 2-4z" fill="rgba(60, 56, 57, 1)" stroke="none"/>
  <path d="M63 164c-.125 2.313-.125 2.313-1 5-4.862 3-4.862 3-8 3l-1-2-2 1-3-2c9.226-5.74 9.226-5.74 15-5z" fill="rgba(27, 27, 27, 1)" stroke="none"/>
  <path d="M18 11l1 2-.912 2.555c-1.35 4.273-1.44 8.11-1.502 12.562l-.059 2.598c-.06 2.72-.106 5.44-.152 8.16-.038 1.852-.077 3.703-.117 5.555A3461.2 3461.2 0 0 0 16 58h-1c-.218-5.265-.415-10.53-.592-15.796a811.658 811.658 0 0 0-.207-5.365 795.672 795.672 0 0 1-.275-7.745l-.113-2.394c-.15-5.59.906-9.583 3.187-14.7l1-1z" fill="rgba(147, 142, 144, 1)" stroke="none"/>
  <path d="M232.094.77l2.406.042 2.406.02C239 1 239 1 241 2l-1 5h-13c1.458-5.83 1.458-5.83 5.094-6.23z" fill="rgba(6, 2, 3, 1)" stroke="none"/>
  <path d="M133 153h2c-.599 6.345-.599 6.345-2.188 8.938-2.618 1.535-4.841 1.26-7.812 1.062v-5c1.79-1.01 3.58-2.018 5.371-3.027 1.608-.87 1.608-.87 2.629-1.973z" fill="rgba(245, 245, 245, 1)" stroke="none"/>
  <path d="M130 28l1 2 2 1-2 4h-2l-1 4-4-1v-2h-23v-1l2.156-.076c3.219-.116 6.438-.239 9.657-.362l3.392-.119 3.252-.127 3-.11c2.665-.114 2.665-.114 5.543-1.206v-2h2v-3z" fill="rgba(113, 115, 114, 1)" stroke="none"/>
  <path d="M137 18c3.208.844 5.067 2.056 7.625 4.188L147 24l3-1-1 3-3.313-.063c-3.63-.122-3.63-.122-6.687 1.063v-2l-1.938-.813C135 23 135 23 134 20l3-2z" fill="rgba(59, 56, 57, 1)" stroke="none"/>
  <path d="M77 343l1 4c-6.75 3-6.75 3-9 3v-2l-5 1v-2c8.262-4.592 8.262-4.592 13-4z" fill="rgba(80, 80, 80, 1)" stroke="none"/>
  <path d="M138 308h2l3 10-4 1 1 2.188c1.006 2.829 1.17 4.841 1 7.812-1.465-2.796-2.622-5.57-3.625-8.563-.26-.764-.52-1.528-.79-2.316C136 316 136 316 136 313h2l-.563-1.938L137 309l1-1z" fill="rgba(34, 34, 34, 1)" stroke="none"/>
  <path d="M227 180l2 1-1.715 1.066c-4.329 2.738-4.329 2.738-7.039 6.891-.312 2.112-.312 2.112-.246 5.043l-1-2-6 2 1-4-3-2 2.23-.988 2.958-1.325 2.917-1.3c2.93-1.334 2.93-1.334 5.633-3.117L227 180z" fill="rgba(45, 45, 45, 1)" stroke="none"/>
  <path d="M71.375 19.938C75.368 21.553 76.131 24.192 78 28l-4 4c-2.748-2.373-3.71-4.648-5-8l-2-2c2-2 2-2 4.375-2.063z" fill="rgba(20, 19, 19, 1)" stroke="none"/>
  <path d="M216 249h2v6l3 1v2h-2v3h2v2c-3.147-.7-6.026-1.76-9-3v-3h4v-8z" fill="rgba(89, 89, 89, 1)" stroke="none"/>
  <path d="M76 24c4.875 4.625 4.875 4.625 6 8l4 1-8 4c-1.563-1.75-1.563-1.75-3-4 .313-2.063.313-2.063 1-4v-3-2z" fill="rgba(56, 54, 55, 1)" stroke="none"/>
  <path d="M34 178l3 1v3l-3 1v6l-3 1-1 2-3-7 7-7z" fill="rgba(36, 30, 34, 1)" stroke="none"/>
  <path d="M165 32l24 1v1h-16l1 3 12 1v1h-14v-2h-2v-2l-5-2v-1z" fill="rgba(56, 54, 54, 1)" stroke="none"/>
  <path d="M324 164l2 2 2-2 2 1c-.257 1.44-.53 2.877-.813 4.313l-.457 2.425c-.806 2.496-1.75 3.586-3.73 5.262l-2-1 1-3c-.328-2.334-.66-4.668-1-7l1-2z" fill="rgba(52, 50, 50, 1)" stroke="none"/>
  <path d="M36 162c2.188-.313 2.188-.313 5 0 2.813 2.5 2.813 2.5 5 5l-3 1v3c-1.875-.313-1.875-.313-4-1l-2-3c-2.584-.25-2.584-.25-5 0l2-2h3l-1-3z" fill="rgba(40, 39, 40, 1)" stroke="none"/>
  <path d="M158 31c4.571.549 8.674 1.417 13 3l-1 3 2 1c-9.359.317-9.359.317-13-2-.813-2.625-.813-2.625-1-5z" fill="rgba(7, 6, 6, 1)" stroke="none"/>
  <path d="M130 14c3.756.327 6.736 1.117 10 3-1.275 2.55-2.434 2.868-5 4l-3 1v-2l-2-1v-2l-3 3c.573-2.867.861-3.861 3-6z" fill="rgba(73, 68, 69, 1)" stroke="none"/>
  <path d="M239 176c3 1 3 1 5 3 1.317.697 2.65 1.37 4 2l-4 4-9-3 3-1 1-5z" fill="rgba(37, 37, 37, 1)" stroke="none"/>
  <path d="M51 7c1.813.25 1.813.25 4 1l3 4c2.094.796 2.094.796 4 1l-3 3c-7.065-2.041-7.065-2.041-9-5 .313-2.188.313-2.188 1-4z" fill="rgba(12, 10, 10, 1)" stroke="none"/>
  <path d="M51 190l3 2-5 14h-1v-6l-2-1c0-4 0-4 2.5-6.75L51 190z" fill="rgba(10, 8, 10, 1)" stroke="none"/>
  <path d="M285 129l2 1c-4.125 4.278-8.137 6.145-14.05 6.398-4.99.043-9.97-.118-14.95-.398v-4h2v2c2.73.108 5.456.187 8.188.25l2.33.102c5.214.09 7.582-.616 11.482-4.352l3-1z" fill="rgba(125, 121, 123, 1)" stroke="none"/>
  <path d="M277 215h2c1.07 2.764 1.163 4.539.176 7.336A155.905 155.905 0 0 1 276 229h-1v-8l-2-1 2-1c1.134-2.017 1.134-2.017 2-4zm-6 6l2 1-3 4 1-5z" fill="rgba(49, 46, 46, 1)" stroke="none"/>
  <path d="M225 3c3 1 3 1 4.188 3.063L230 8c-2.947 1.8-5.888 3.502-9 5l1-5-2-1c2.313-2.063 2.313-2.063 5-4z" fill="rgba(18, 15, 16, 1)" stroke="none"/>
  <path d="M191 342l4 3c-1.25 3.46-2.675 6.147-5 9l-1-4-4 2c1.652-3.579 3.783-6.748 6-10z" fill="rgba(33, 33, 33, 1)" stroke="none"/>
  <path d="M101 114c2.375-.125 2.375-.125 5 0l2 2c-.125 2-.125 2-1 4-1.938 1.313-1.938 1.313-4 2l-2-1v-7z" fill="rgba(210, 210, 210, 1)" stroke="none"/>
  <path d="M310 183c1.675.286 3.344.618 5 1-2.676 3.14-6.086 4.818-9.688 6.688l-1.837.97A936.49 936.49 0 0 1 299 194l1-4 5-1v-4l1.938-.438c2.037-.372 2.037-.372 3.062-1.562z" fill="rgba(80, 75, 77, 1)" stroke="none"/>
  <path d="M29 144l1 8c-2-2-2-2-3-5-5.65.601-10.662 2.075-16 4l1-3 7-1v-2c3.473-1.158 6.36-1.069 10-1z" fill="rgba(99, 94, 98, 1)" stroke="none"/>
  <path d="M119 99l4 2v2l3 1v4c-2.375.125-2.375.125-5 0-2-2-2-2-2.125-5.625L119 99z" fill="rgba(29, 29, 29, 1)" stroke="none"/>
  <path d="M250 261c-1.503 3.827-3.835 5.484-7 8l-1 3h-3c.084-2.847.591-4.551 2.52-6.668C246.407 261 246.407 261 250 261z" fill="rgba(84, 84, 84, 1)" stroke="none"/>
  <path d="M249 208h1c.054 2.604.094 5.208.125 7.813.017.737.034 1.475.05 2.236.036 3.863.019 5.66-2.175 8.951-2.884-1.293-4.872-2.66-7-5l1-2 7 2v-14z" fill="rgba(120, 109, 114, 1)" stroke="none"/>
  <path d="M60 180l7 4-1 4c-3.147-.7-6.026-1.76-9-3l3-5z" fill="rgba(9, 9, 9, 1)" stroke="none"/>
  <path d="M233 235v3h-17v-2c2.083-.169 4.167-.335 6.25-.5l3.516-.281c2.407-.163 4.821-.219 7.234-.219z" fill="rgba(80, 80, 80, 1)" stroke="none"/>
  <path d="M216 226l13 1v3c-1.417.027-2.833.047-4.25.063l-2.39.035c-2.267-.094-4.189-.466-6.36-1.098v-3z" fill="rgba(84, 84, 84, 1)" stroke="none"/>
  <path d="M57 332c-1 2-1 2-3.11 2.852l-2.64.773c-1.292.39-1.292.39-2.61.79-2.637.584-4.948.692-7.64.585v-2c10.374-3.444 10.374-3.444 16-3z" fill="rgba(80, 80, 80, 1)" stroke="none"/>
  <path d="M243 256c-1.285 2.867-2.571 4.976-5 7h-2v2h-3v-3h2v-2c4.353-4 4.353-4 8-4z" fill="rgba(85, 85, 85, 1)" stroke="none"/>
  <path d="M221 4l2 1-2.809 2.773-3.629 3.602-1.853 1.828-1.768 1.758-1.634 1.619c-1.415 1.407-1.415 1.407-2.307 3.42h-2c2.883-6.815 8.394-11.444 14-16z" fill="rgba(135, 130, 132, 1)" stroke="none"/>
  <path d="M50 331v2c-3.83 1.802-6.781 2.196-11 2 1-3 1-3 3.25-4.25 3.032-.827 4.761-.604 7.75.25z" fill="rgba(110, 110, 110, 1)" stroke="none"/>
  <path d="M277 209l3 1-2 1c-.687 2.118-.687 2.118-1.125 4.563l-.508 2.503L276 220l-4 1c.45-1.627.91-3.252 1.375-4.875l.773-2.742C275 211 275 211 277 209z" fill="rgba(17, 16, 16, 1)" stroke="none"/>
  <path d="M56 185l4 1 1 5h-5l-2 4c-1.392-4.176.177-6.135 2-10z" fill="rgba(64, 64, 64, 1)" stroke="none"/>
  <path d="M257 141h15l-1 2-1.793-.035c-4.21-.048-8.1-.025-12.207 1.035l-1 6c-1.486-4.012-.807-4.481 1-9z" fill="rgba(185, 181, 184, 1)" stroke="none"/>
  <path d="M48 3c5.315 2.061 9.448 4.563 14 8l-4 2c-1.708-1.634-2.935-2.87-4-5-2.025-.652-2.025-.652-4-1V5h-2V3z" fill="rgba(87, 83, 84, 1)" stroke="none"/>
  <path d="M49 327v3c-3.823 1.423-6.913 2.24-11 2v-3c7.625-2 7.625-2 11-2z" fill="rgba(81, 81, 81, 1)" stroke="none"/>
  <path d="M168.125 364.438l3.32.308L174 365v2h-13l-1-2c2.836-1.418 4.99-.863 8.125-.563z" fill="rgba(244, 242, 243, 1)" stroke="none"/>
  <path d="M24 136l3 4c-3.062 1.784-5.22 2.229-8.75 2.125l-2.422-.055L14 142c3.285-2.19 6.207-2.998 10-4v-2z" fill="rgba(66, 61, 65, 1)" stroke="none"/>
  <path d="M137 18l3 1c.75 1.938.75 1.938 1 4l-1 2c-1.875-.25-1.875-.25-4-1-1.25-2.063-1.25-2.063-2-4l3-2z" fill="rgba(10, 8, 9, 1)" stroke="none"/>
  <path d="M41 349l4 2v4h-5c-.625-1.875-.625-1.875-1-4l2-2z" fill="rgba(9, 6, 6, 1)" stroke="none"/>
  <path d="M248 334l2 2c-.375 3.125-.375 3.125-1 6l-2-1-2 2c-.75-1.688-.75-1.688-1-4 1.938-2.75 1.938-2.75 4-5z" fill="rgba(10, 6, 7, 1)" stroke="none"/>
  <path d="M85 308v3c-4.177 1.591-7.532 2.213-12 2 1.283-2.565 2.228-2.665 4.875-3.625.699-.26 1.397-.52 2.117-.79C82 308 82 308 85 308z" fill="rgba(81, 81, 81, 1)" stroke="none"/>
  <path d="M258 305l4 1-1 6h-4l1-7z" fill="rgba(5, 4, 4, 1)" stroke="none"/>
  <path d="M223 294h4v5l-3-2-1.875 3-2.125 3h-2c1.237-3.427 2.451-6.353 5-9z" fill="rgba(42, 42, 42, 1)" stroke="none"/>
  <path d="M162 355c2.438.375 2.438.375 5 1l1 2a84.76 84.76 0 0 0 7-2l3 1c-6.887 3.844-6.887 3.844-11 3-2.813-2.5-2.813-2.5-5-5z" fill="rgba(197, 197, 197, 1)" stroke="none"/>
  <path d="M242 215l1 3c2.015.733 2.015.733 4 1v2l2 1c-6.523-.492-6.523-.492-8.938-3.063L239 217l3-2z" fill="rgba(234, 226, 230, 1)" stroke="none"/>
  <path d="M43 162h5v4l3 1-1 2c-2.798-.386-3.82-.801-5.75-2.938C43 164 43 164 43 162z" fill="rgba(207, 207, 207, 1)" stroke="none"/>
  <path d="M267 162l5 1 1 4h-7l1-5z" fill="rgba(10, 10, 10, 1)" stroke="none"/>
  <path d="M150 153h5c.125 2.875.125 2.875 0 6l-2 2v-3h-3v-5z" fill="rgba(18, 18, 18, 1)" stroke="none"/>
  <path d="M246 6l7 4-1 3-3-3v3l-4-1 1-6z" fill="rgba(35, 32, 33, 1)" stroke="none"/>
  <path d="M35 344l4 1c1.125 3.75 1.125 3.75 0 6h-3l-1-7z" fill="rgba(9, 6, 6, 1)" stroke="none"/>
  <path d="M253 329l2 1c-.576 4.755-2.55 7.97-5 12-.976-2.928-1.082-4.956-1-8h4v-5z" fill="rgba(103, 94, 96, 1)" stroke="none"/>
  <path d="M201 328l4 2c-.573 2.867-.861 3.861-3 6-2-2-2-2-2.188-4.563C200 329 200 329 201 328z" fill="rgba(17, 17, 17, 1)" stroke="none"/>
  <path d="M26 309h1v10l-4-3c1.875-5.875 1.875-5.875 3-7z" fill="rgba(8, 5, 6, 1)" stroke="none"/>
  <path d="M216 314h1c.438 2.625.438 2.625 0 6-2.095 2.331-4.46 4.173-7 6 1.566-4.308 3.683-8.062 6-12z" fill="rgba(216, 216, 216, 1)" stroke="none"/>
  <path d="M141 312c2.5 2.063 2.5 2.063 5 5 .25 3.375.25 3.375 0 7 .297 2.338.62 4.674 1 7-2.075-3.112-2.71-5.33-3.563-8.938l-.753-3.152L142 316c-.33-1.334-.663-2.668-1-4z" fill="rgba(168, 168, 168, 1)" stroke="none"/>
  <path d="M213 309l2 2 3-2c0 4.268-.376 4.939-3 8l-1-3-3-2 2-3z" fill="rgba(33, 33, 33, 1)" stroke="none"/>
  <path d="M46 210c1.154 3.462.796 4.527-.25 7.938l-.766 2.59c-1.012 2.542-2.248 4.37-3.984 6.472-.324-4.367.75-7.332 2.5-11.313l1.406-3.238L46 210z" fill="rgba(55, 54, 55, 1)" stroke="none"/>
  <path d="M47 176l2 2c-6.75 3.875-6.75 3.875-9 5v-2l-2-1 9-4z" fill="rgba(72, 66, 71, 1)" stroke="none"/>
  <path d="M144 360h3c-.506 2.169-1 4-2 6h5v1h-6l-2-5 2-2z" fill="rgba(47, 44, 45, 1)" stroke="none"/>
  <path d="M20 114l2 1v2l2 1h-2v10h-1c-1.206-4.672-1.094-9.215-1-14z" fill="rgba(78, 75, 76, 1)" stroke="none"/>
  <path d="M28 3l2 1-9 7-2-1c5.482-5.787 5.482-5.787 9-7z" fill="rgba(105, 103, 103, 1)" stroke="none"/>
  <path d="M49 355c2.625.938 2.625.938 5 2l-2 1v2l-5-1v-3l2-1z" fill="rgba(6, 4, 4, 1)" stroke="none"/>
  <path d="M36 239h1c.316 5.26-.334 8.446-3 13-1.184-3.552-.695-4.698.438-8.188l.87-2.73L36 239z" fill="rgba(60, 62, 61, 1)" stroke="none"/>
  <path d="M144 165h5l-2 5h-4l1-5z" fill="rgba(10, 10, 10, 1)" stroke="none"/>
  <path d="M292 197l2 1-7 8-2-4c1.963-1.963 3.539-2.809 6-4l1-1z" fill="rgba(126, 120, 121, 1)" stroke="none"/>
  <path d="M130 155l2 1-1.5 1.313c-1.832 1.684-1.832 1.684-1.5 4.687l-4 1c-.313-2.313-.313-2.313 0-5 2.375-1.875 2.375-1.875 5-3z" fill="rgba(235, 235, 235, 1)" stroke="none"/>
  <path d="M130 16l2 1-6 9-1-2c.742-1.691.742-1.691 1.875-3.563l1.117-1.878C129 17 129 17 130 16z" fill="rgba(40, 36, 37, 1)" stroke="none"/>
  <path d="M125 359l5 2-4 1v3c-4.875-1.75-4.875-1.75-6-4l5 1v-3z" fill="rgba(34, 34, 34, 1)" stroke="none"/>
  <path d="M204 333l1 2c-1.522 3.578-3.03 6.454-6 9l-2-1 7-10z" fill="rgba(208, 208, 208, 1)" stroke="none"/>
  <path d="M41 307v2c-3.473 1.158-6.36 1.069-10 1v-2c3.435-.625 6.49-1 10-1z" fill="rgba(79, 80, 79, 1)" stroke="none"/>
  <path d="M86 304c-1.974 2.523-2.967 2.993-6.188 3.688L77 308v-3c3.073-.91 5.801-1.089 9-1z" fill="rgba(82, 82, 82, 1)" stroke="none"/>
  <path d="M121 164c2.875-.125 2.875-.125 6 0l2 2-1 2h-5l-2-4z" fill="rgba(12, 12, 12, 1)" stroke="none"/>
  <path d="M220 154l1.176 1.426c2.299 1.984 4.037 2.26 7.012 2.762l2.73.48L233 159v1c-1.416.054-2.833.093-4.25.125l-2.39.07c-2.567-.212-4.152-.908-6.36-2.195v-4z" fill="rgba(88, 88, 88, 1)" stroke="none"/>
  <path d="M242 1l5 2v2l4 2-1 2c-2.438-.813-2.438-.813-5-2l-1-3-2-1V1z" fill="rgba(117, 107, 108, 1)" stroke="none"/>
  <path d="M150 361c4.75.75 4.75.75 7 3-3.053.981-4.947.981-8 0l1-3z" fill="rgba(249, 232, 240, 1)" stroke="none"/>
  <path d="M254 317l3 1v5l-4 1c-.043-2-.04-4 0-6l1-1z" fill="rgba(12, 11, 12, 1)" stroke="none"/>
  <path d="M213 258c3.375.547 5.082 1.055 8 3v2c-2.929-.628-5.361-1.586-8-3v-2z" fill="rgba(81, 81, 81, 1)" stroke="none"/>
  <path d="M20 192l4 1v2c-2.273 1.495-4.568 2.784-7 4 .613-2.962 1.254-4.38 3-7z" fill="rgba(24, 18, 21, 1)" stroke="none"/>
  <path d="M6 176l6 1-1 3-5-1v-3z" fill="rgba(12, 5, 9, 1)" stroke="none"/>
  <path d="M282 144l-8 7c0-3.129.425-4.374 2-7 2-1 2-1 6 0z" fill="rgba(54, 54, 54, 1)" stroke="none"/>
  <path d="M178 107c2.729.033 5.297.564 8 1v1l-3.25.375c-3.129.521-5.085 1.026-7.75 2.625 1-3 1-3 3-5z" fill="rgba(114, 114, 114, 1)" stroke="none"/>
  <path d="M91 103c-.25 2.375-.25 2.375-1 5-2.063 1.313-2.063 1.313-4 2l-1-2h2v-4c2-1 2-1 4-1z" fill="rgba(233, 233, 233, 1)" stroke="none"/>
  <path d="M130 28l1 2 2 1c-1.313 2-1.313 2-3 4-3 0-3 0-5-1l3-1v-2h2v-3z" fill="rgba(120, 122, 121, 1)" stroke="none"/>
  <path d="M162.188 362.375L164 363l-3 4-4-1v-2c3-2 3-2 5.188-1.625z" fill="rgba(227, 219, 222, 1)" stroke="none"/>
  <path d="M121 357l4 1v4l-5-1 1-4z" fill="rgba(7, 7, 7, 1)" stroke="none"/>
  <path d="M257 304h1c-.087 1.605-.196 3.21-.313 4.813l-.175 2.707c-.575 2.786-1.333 3.721-3.512 5.48.656-4.485 1.7-8.67 3-13z" fill="rgba(53, 52, 52, 1)" stroke="none"/>
  <path d="M310 183c1.675.286 3.344.618 5 1-2.174 2.5-3.73 3.436-7 4 .875-3.875.875-3.875 2-5z" fill="rgba(96, 91, 93, 1)" stroke="none"/>
  <path d="M103 117h4c-.313 1.938-.313 1.938-1 4l-3 1c-.563-1.938-.563-1.938-1-4l1-1z" fill="rgba(235, 235, 235, 1)" stroke="none"/>
  <path d="M156 164l6 1-1.688.75c-2.712 1.466-4.948 3.28-7.312 5.25 0-3.517.824-4.371 3-7z" fill="rgba(225, 225, 225, 1)" stroke="none"/>
  <path d="M40 155l11 1v1l-12 1 1-3z" fill="rgba(213, 213, 213, 1)" stroke="none"/>
  <path d="M61 262l3 1v7l-3-1 1-2a75.68 75.68 0 0 0-1-5z" fill="rgba(76, 76, 76, 1)" stroke="none"/>
  <path d="M258 141l-2 3-4-1v-2c2.49-1.245 3.41-.777 6 0z" fill="rgba(18, 16, 18, 1)" stroke="none"/>
  <path d="M194 119h3l1 5-4-1v-4z" fill="rgba(188, 188, 188, 1)" stroke="none"/>
  <path d="M83 33h3l-1 2c-2.063.625-2.063.625-4 1l2-3zm-4 2l4 4-4-1v-3z" fill="rgba(18, 16, 16, 1)" stroke="none"/>
  <path d="M210 17l2 2-3 1 1-3zm-4 3l3 1c-1.375 1.5-1.375 1.5-3 3h-2l2-4z" fill="rgba(77, 73, 74, 1)" stroke="none"/>
</svg>
</g></svg></g></g>
<!-- /image 28468 -->
</defs><rect x="0" y="0" width="250" height="250" fill="rgba(140, 140, 140, 1)"></rect><use xlink:href="#transformed-28468" transform="translate(-250, -250)"></use><use xlink:href="#transformed-28468" transform="translate(0, -250)"></use><use xlink:href="#transformed-28468" transform="translate(250, -250)"></use><use xlink:href="#transformed-28468" transform="translate(-250, 0)"></use><use xlink:href="#transformed-28468" transform="translate(0, 0)"></use><use xlink:href="#transformed-28468" transform="translate(250, 0)"></use><use xlink:href="#transformed-28468" transform="translate(-250, 250)"></use><use xlink:href="#transformed-28468" transform="translate(0, 250)"></use><use xlink:href="#transformed-28468" transform="translate(250, 250)"></use></svg>