<svg version="1.1"
      xmlns="http://www.w3.org/2000/svg"
      xmlns:xlink="http://www.w3.org/1999/xlink"  id="snapshot-15184" width="250" height="250" viewBox="0 0 250 250"><desc>This image was made on Patterninja.com</desc><defs>
<!-- image 55429 -->
<g id="transformed-55429" data-image="55429" transform="translate(-125, -125) rotate(0, 125, 125)"><g><svg version="1.1" width="250px" height="250px" viewBox="0 0 250 250"><g id="original-55429"><svg xmlns="http://www.w3.org/2000/svg" viewBox="0 0 500 500" xmlns:xlink="http://www.w3.org/1999/xlink" version="1.1" preserveAspectRatio="xMidYMid meet">
  <path d="M218.621 2.215c9.84 5.98 11.722 14.895 14.395 25.463 1.818 7.473 3.35 14.926 4.39 22.549 1.033 6.566 2.415 13.066 3.742 19.579l.633 3.108.637 3.066c.387 2.006.724 4.023 1.01 6.046.867 5.991 1.816 9.353 6.51 13.537l2.652 2.44c2.439 2.091 2.439 2.091 5.41 3.997.404 3.082.62 5.04 0 8-2.443 3.037-4.766 4.844-8 7l2.5 1.375L255 120v2h2c1.293 2.938.93 4.237 0 7.375-1.953 4.206-5.158 7.098-9 9.625h-2v2l1.875.125c2.125.875 2.125.875 3.563 3.563.699 4.117-.28 5.825-2.438 9.312h-2l-1 3a65.25 65.25 0 0 1-6.813 2.688l-3.769 1.324C232 162 232 162 228 162l-.25 2.5c-1.516 7.074-4.596 11.486-9.75 16.5-.861 2.173-.861 2.173-1 4h2c4 5.294 4 5.294 4 9h2c4.824 10.831 8.982 21.848 13 33 2.876-9.04 3.99-18.367 4.937-27.777 1.847-17.9 5.075-35.446 14.063-51.223.599-1.263 1.188-2.53 1.77-3.8 4.536-9.658 9.158-14.743 19.218-19.052 9.216-2.96 19.66-2.031 28.317 1.977L308 128v2h2c3.698 7.318 6.933 13.728 7 22l.113 3.172c.476 22.549-5.96 41.612-18.05 60.39l-1.514 2.381c-3.445 5.4-6.98 10.738-10.549 16.057l-2 3h-2l-.75 1.688c-1.48 2.736-3.185 4.989-5.25 7.312h-2l-2 5h-2v2c-1.469 1.48-1.469 1.48-3.5 3.188l-2.203 1.87L263 260a1725.668 1725.668 0 0 0-4.25 3.75c-1.983 1.754-3.598 3.175-5.977 4.355-2.585 2.763-2.125 5.09-2.022 8.763l.124 2.695c.316 14.094-1.748 26.818-11.875 37.437-11.413 9.24-24.236 9.277-38.313 10.063l-2.411.136c-15.304.847-30.575.964-45.898.815-16.905-1.22-16.905-1.22-32.378 2.986-2.832.27-5.561.423-8.398.477l-2.578.058c-2.8.05-5.599.074-8.399.09l-2.893.02c-14.12.031-27.467-1.241-41.232-4.395l-2.31-.528c-29.347-6.853-29.347-6.853-38.143-18.253-7.836-12.63-9.12-27.75-5.883-42.098C11.611 260.532 13.262 254.758 15 249l.678-2.266C18.474 237.542 22.045 228.75 26 220l.853-1.892c2.88-6.366 5.827-12.648 9.272-18.733 2.837-5.058 4.897-10.286 6.895-15.723C44 181 44 181 45 179l-3-1c-1.43-1.672-1.43-1.672-2.875-3.75-2.458-3.415-5.104-6.31-8.125-9.25l-1.258-2.078c-2.449-2.701-4.35-2.586-7.93-2.922-6.807-.873-12.139-2.084-16.875-7.25C3.65 148.973 3.742 145.738 5 142c2.438-3 2.438-3 5-5h2v-2l-2.188-.313C6.723 133.933 4.604 132.81 2 131c-1.558-3.115-1.565-6.604-1-10 2.037-2.667 4.39-3.82 7.438-5.125l2.308-1.008c2.074-.798 4.088-1.383 6.254-1.867v-2l-1.828-.55c-9.272-2.917-9.272-2.917-12.485-7.2C1.663 99.898 2.204 97.374 3 94c2.151-2.735 4.28-3.665 7.563-4.688.785-.25 1.57-.502 2.378-.761C15 88 15 88 17 88v-2c1.375-1.625 1.375-1.625 3-3h2l.152-3.402c.191-4.252.39-8.503.593-12.754.085-1.824.169-3.648.25-5.472C24.938 17.804 24.938 17.804 35 6c4.193-3.569 7.49-4.91 13-5 7.412 1.27 13.654 4.036 20 8v2l1.875.75C72 13 72 13 72.938 15c1.46 2.75 3.175 3.088 6.062 4v2l1.82.793c2.314 1.281 3.435 2.455 5.055 4.52 2.702 3.435 5.48 6.24 9.125 8.687 2.866-.107 4.857-.404 7.563-1.125 9.32-2.067 18.437-2.46 27.954-2.773 2.985-.123 5.957-.342 8.935-.575 10.07-.771 19.703-.577 29.486 2.035 3.763.749 3.763.749 7.085-.898C177.935 29.552 179.465 27.4 181 25l1.617-2.367a282.57 282.57 0 0 0 3.035-4.578c1.638-2.497 3.346-4.838 5.348-7.055h2l.75-1.938C195 7 195 7 197.063 6.438L199 6l1-3c6.43-3.75 11.845-3.926 18.621-.785z" fill="rgba(251, 251, 251, 1)" stroke="none"/>
  <path d="M218.621 2.215c9.84 5.98 11.722 14.895 14.395 25.463 1.818 7.473 3.35 14.926 4.39 22.549 1.033 6.566 2.415 13.066 3.742 19.579l.633 3.108.637 3.066c.387 2.006.724 4.023 1.01 6.046.867 5.991 1.816 9.353 6.51 13.537l2.652 2.44c2.439 2.091 2.439 2.091 5.41 3.997.404 3.082.62 5.04 0 8-2.443 3.037-4.766 4.844-8 7l2.5 1.375L255 120v2h2c1.293 2.938.93 4.237 0 7.375-1.953 4.206-5.158 7.098-9 9.625h-2v2l1.875.125c2.125.875 2.125.875 3.563 3.563.699 4.117-.28 5.825-2.438 9.312h-2l-1 3a65.25 65.25 0 0 1-6.813 2.688l-3.769 1.324C232 162 232 162 228 162l-.25 2.5c-1.516 7.074-4.596 11.486-9.75 16.5-.861 2.173-.861 2.173-1 4h2c4 5.294 4 5.294 4 9h2c4.824 10.831 8.982 21.848 13 33 2.876-9.04 3.99-18.367 4.937-27.777 1.847-17.9 5.075-35.446 14.063-51.223.599-1.263 1.188-2.53 1.77-3.8 4.536-9.658 9.158-14.743 19.218-19.052 9.216-2.96 19.66-2.031 28.317 1.977L308 128v2h2c3.698 7.318 6.933 13.728 7 22l.113 3.172c.476 22.549-5.96 41.612-18.05 60.39l-1.514 2.381c-3.445 5.4-6.98 10.738-10.549 16.057l-2 3h-2l-.75 1.688c-1.48 2.736-3.185 4.989-5.25 7.312h-2l-2 5h-2v2c-1.469 1.48-1.469 1.48-3.5 3.188l-2.203 1.87L263 260a1725.668 1725.668 0 0 0-4.25 3.75c-1.983 1.754-3.598 3.175-5.977 4.355-2.585 2.763-2.125 5.09-2.022 8.763l.124 2.695c.316 14.094-1.748 26.818-11.875 37.437-11.413 9.24-24.236 9.277-38.313 10.063l-2.411.136c-15.304.847-30.575.964-45.898.815-16.905-1.22-16.905-1.22-32.378 2.986-2.832.27-5.561.423-8.398.477l-2.578.058c-2.8.05-5.599.074-8.399.09l-2.893.02c-14.12.031-27.467-1.241-41.232-4.395l-2.31-.528c-29.347-6.853-29.347-6.853-38.143-18.253-7.836-12.63-9.12-27.75-5.883-42.098C11.611 260.532 13.262 254.758 15 249l.678-2.266C18.474 237.542 22.045 228.75 26 220l.853-1.892c2.88-6.366 5.827-12.648 9.272-18.733 2.837-5.058 4.897-10.286 6.895-15.723C44 181 44 181 45 179l-3-1c-1.43-1.672-1.43-1.672-2.875-3.75-2.458-3.415-5.104-6.31-8.125-9.25l-1.258-2.078c-2.449-2.701-4.35-2.586-7.93-2.922-6.807-.873-12.139-2.084-16.875-7.25C3.65 148.973 3.742 145.738 5 142c2.438-3 2.438-3 5-5h2v-2l-2.188-.313C6.723 133.933 4.604 132.81 2 131c-1.558-3.115-1.565-6.604-1-10 2.037-2.667 4.39-3.82 7.438-5.125l2.308-1.008c2.074-.798 4.088-1.383 6.254-1.867v-2l-1.828-.55c-9.272-2.917-9.272-2.917-12.485-7.2C1.663 99.898 2.204 97.374 3 94c2.151-2.735 4.28-3.665 7.563-4.688.785-.25 1.57-.502 2.378-.761C15 88 15 88 17 88v-2c1.375-1.625 1.375-1.625 3-3h2l.152-3.402c.191-4.252.39-8.503.593-12.754.085-1.824.169-3.648.25-5.472C24.938 17.804 24.938 17.804 35 6c4.193-3.569 7.49-4.91 13-5 7.412 1.27 13.654 4.036 20 8v2l1.875.75C72 13 72 13 72.938 15c1.46 2.75 3.175 3.088 6.062 4v2l1.82.793c2.314 1.281 3.435 2.455 5.055 4.52 2.702 3.435 5.48 6.24 9.125 8.687 2.866-.107 4.857-.404 7.563-1.125 9.32-2.067 18.437-2.46 27.954-2.773 2.985-.123 5.957-.342 8.935-.575 10.07-.771 19.703-.577 29.486 2.035 3.763.749 3.763.749 7.085-.898C177.935 29.552 179.465 27.4 181 25l1.617-2.367a282.57 282.57 0 0 0 3.035-4.578c1.638-2.497 3.346-4.838 5.348-7.055h2l.75-1.938C195 7 195 7 197.063 6.438L199 6l1-3c6.43-3.75 11.845-3.926 18.621-.785zM117 60c-2.652 3.805-3.842 7.535-5 12l-1 3-5 1-2-5-7 2v-8c-5.463 1.524-9.714 3.295-14.207 6.75-2.595 1.809-5.375 2.935-8.285 4.148-2.854 1.254-5.567 2.705-8.32 4.165-8.49 4.255-16.594 5.8-26 6.624-5.227.616-7.986 1.262-11.438 5.313l-1.453 2.125C26 96 26 96 23 98v2l1.898.586 2.477.789 2.46.773C32 103 32 103 34 105c.53 8.206.53 8.206-2 12h-2a141.4 141.4 0 0 0-5 5c1.309 3.122 1.309 3.122 4 5 .776 6.081-.902 9.005-4.492 13.887-1.41 1.976-2.486 3.916-3.508 6.113l2.3-.035 3.012-.028 2.989-.035C32 147 32 147 35 148c1.063 1.875 1.063 1.875 2 4 1.676 3.155 1.676 3.155 4.445 3.895 3.22 1.393 3.837 2.715 5.43 5.792C53.709 173.756 64.045 178.996 77 183c4.13 1.001 8.07 1.167 12.313 1.246l4.257.1c2.219.047 4.437.092 6.656.13 2.154.04 4.308.092 6.462.145l3.886.076c3.237.286 5.514.911 8.426 2.303l-2 9c-38.965.598-38.965.598-54.996-6.758-3.078-1.497-3.078-1.497-7.004-1.242l-2.688 5.813-1.675 3.625a918.09 918.09 0 0 0-4.012 8.875c-2.724 6.012-5.69 11.9-8.66 17.792l-.974 1.938a415.47 415.47 0 0 1-2.05 3.994C30.765 238.152 27.848 246.881 27 256c5.309-.582 5.309-.582 10-3 2.043-.195 2.043-.195 4.188-.125L45 253c.484 6.411.484 6.411-1.438 8.75-6.34 3.093-12.559 4.613-19.562 5.25l-1 7h10c1.125 7.75 1.125 7.75 0 10-2.285.414-2.285.414-5.063.625l-2.785.227L23 285c-.598 5.405-.761 9.702 2.5 14.25A76.848 76.848 0 0 0 29 303l1.688 1.723c3.947 3.462 7.582 4.734 12.714 5.714 4.925.992 9.78 2.09 14.633 3.387l3.514.928c2.349.625 4.695 1.26 7.039 1.906 7.955 2.076 15.2 2.748 23.412 2.342-.548-3.453-1.148-6.837-2.05-10.215l-.613-2.305-.65-2.418-.67-2.54a550.308 550.308 0 0 0-3.165-11.538C81.78 279.133 79.157 267.346 80 256c3-2 3-2 5-1.813 2.304.936 3.443 1.885 5 3.813 1.046 3.138 1.172 5.58 1.313 8.875.415 5.818 1.654 10.747 3.515 16.25 1.904 5.925 3.029 12.09 4.245 18.185 1.16 5.463 2.465 9.288 5.927 13.69l1.813 2.375c2.195 1.848 2.195 1.848 5.437 2.438 5.846-1.267 8.463-4.997 11.75-9.813 4.77-8.8 5.16-17.985 5.133-27.805l.003-2.438c0-1.689-.001-3.378-.006-5.067-.005-2.552 0-5.103.007-7.655.001-7.735-.034-15.33-1.118-23.008C128 242 128 242 130 239c2.343.256 4.678.593 7 1 1.21 2.42 1.303 4.31 1.535 7.008l.264 2.988.263 3.129.276 3.152c.224 2.574.445 5.148.662 7.723h2l.148-3.621c.713-15.68.713-15.68 2.852-23.379 6.75.75 6.75.75 9 3 .347 6.642-.365 12.996-1.313 19.563l-.407 2.903c-1.423 9.9-3.096 19.75-5.467 29.471-1.646 7.323-1.517 13.45 2.187 20.063 1.883 2.246 3.113 2.893 6.012 3.242 4.914.15 9.498-.129 13.988-2.242 2.151-3.004 4-6.245 4-10h2c3.806-12.998 7.218-25.925 8.625-39.438C184 260 184 260 185 259c2.333-.04 4.667-.042 7 0 5.443 10.887-.9 30.176-4 41-1.367 3.759-3.056 7.285-4.96 10.805L182 313l1 2c4.178-.045 8.354-.115 12.53-.208 1.415-.027 2.83-.049 4.245-.063 10.497-.112 21.755-.463 30.35-7.166 5.923-8.096 7.218-15.472 7.125-25.313l.023-2.535-.007-2.45-.007-2.194c-.298-2.38-1.158-3.956-2.259-6.071-.357-2.49-.642-4.938-.875-7.438-1.14-10.408-4.412-19.865-8.074-29.636a162.333 162.333 0 0 1-2.133-6.383C219.47 211.335 213.309 198.686 204 187c-1.918.283-3.834.577-5.75.875l-3.234.492c-2.931.48-2.931.48-5.063 1.664-6.97 3.457-17.887 2.112-25.578 2.219l-2.658.065-2.506.013-2.24.028c-2.543-.46-3.403-1.338-4.971-3.356-.688-2.688-.688-2.688-1-5 3.425-2.07 6.188-2.287 10.156-2.379l3.598-.103 3.746-.08c2.448-.06 4.896-.124 7.344-.192l3.287-.072c2.45-.149 4.529-.472 6.869-1.174v-2l1.8.176c8.483.461 14.848-2.25 21.825-6.942 2.85-2.681 4.028-5.147 5.563-8.734l1.48-3.406c.767-1.781 1.51-3.574 2.187-5.39 1.668-2.483 3.424-2.724 6.27-3.454l2.758-.734L230 149l-2.375-1.813c-4.094-3.411-4.94-6.044-5.625-11.187h2v-2l13-3v-3l-2.152-.883-2.786-1.242-2.777-1.195C227 123 227 123 226.184 119.82L226 117c1.561-1.106 3.124-2.21 4.688-3.313l2.636-1.863c2.509-1.71 5.057-3.29 7.676-4.824-2.63-5.52-5.631-10.618-11-13.75a73.736 73.736 0 0 0-4-1.25l-3.066-.883a1331.08 1331.08 0 0 0-7.153-2.008C209.757 87.342 203.878 85.207 198 83l-2.777-.836c-2.964-1.552-3.055-3.097-4.223-6.164-2.335-2.233-2.335-2.233-5.063-4.188-4.85-3.64-4.85-3.64-5.937-5.812-4.746-.44-4.746-.44-8.938 1.375-1.244 1.58-1.244 1.58-1.062 3.625l-6-1-2-7c-3.5 2.333-3.633 3.208-4.688 7.125-.25.91-.502 1.82-.761 2.758L156 75h-4v-4h-2l-2 6h-3l-1-5h-2a977.892 977.892 0 0 0-3 5.813l-1.688 3.269c-1.517 2.84-1.517 2.84-1.312 5.918l-5 1V69h-3c-1.464 1.463-1.464 1.463-2.688 3.375l-1.324 1.898c-1.154 1.685-1.154 1.685-.988 3.727h-4l-1-18h-1z" fill="rgba(13, 12, 13, 1)" stroke="none"/>
  <path d="M46 14c6.567 0 10.112 2.88 15 7l1.664 1.332C65.996 25.023 69.011 27.938 72 31c1.186 1.189 2.374 2.376 3.563 3.563l1.792 1.812c1.294 1.278 2.647 2.495 4.02 3.688 2.131 2.54 2.33 4.685 2.625 7.937 5.888.992 10.558.87 16.375-.375l2.152-.422c3.846-.763 3.846-.763 7.473-2.203 1.892-.155 3.79-.25 5.688-.316l3.53-.128c1.249-.04 2.496-.078 3.782-.118l3.844-.125c3.718-.114 7.437-.217 11.156-.313l2.89-.075c10.415-.236 20.25.388 30.415 2.888 3.605.666 6.109.999 9.695.187 3.918-3.89 6.3-8.222 9-13a162.628 162.628 0 0 1 4-5 617.407 617.407 0 0 0 2.875-3.938c6.995-9.28 6.995-9.28 12.188-11.187C212 14 212 14 214.688 15.375c7.23 8.207 7.654 22.622 9.125 33 1.303 8.928 3.045 17.495 5.53 26.163 1.897 6.81 2.53 13.38 2.657 20.462-3.665-.555-6.749-1.71-10.126-3.215-3.17-1.328-6.457-2.249-9.749-3.222C196.401 83.766 196.401 83.766 192 79c-3.38-3.475-6.879-6.625-10.645-9.668L180 68v-2c-5.035.234-5.035.234-8.938 3.063L170 71c-2.813-.125-2.813-.125-6-1-1.875-3.063-1.875-3.063-3-6l-5 11h-4v-4h-2l.125 2.375C150 76 150 76 148 78c-2.125-.375-2.125-.375-4-1v-5h-2c-.182.58-.364 1.16-.55 1.758C138.352 83.38 138.352 83.38 136 87l-5 1V69h-3l-.813 2.25c-1.158 2.682-2.162 4.647-4.187 6.75h-4c-1.054-3.162-1.313-5.87-1.563-9.188l-.253-3.292L117 63c-2.293 1.955-2.293 1.955-2.875 5.375-1.16 3.737-2.043 5.29-5.125 7.625h-3l-2-4-7 1v-8l-2.063 1.313C92 68 92 68 88.438 69.5c-3.302 1.277-3.302 1.277-5.312 2.938-2.67 1.963-5.47 3.096-8.512 4.39-2.88 1.292-5.636 2.757-8.425 4.234C55.349 86.49 43.89 87.718 32 89c1.875-3.875 1.875-3.875 3-5 .136-1.47.206-2.946.25-4.421l.091-2.855.089-3.119.222-6.525c.113-3.431.222-6.863.322-10.295.099-3.31.214-6.62.33-9.93l.077-3.05c.31-8.287 2-15.947 4.619-23.805h2l.375-1.875C44 16 44 16 46 14z" fill="rgba(140, 140, 140, 1)" stroke="none"/>
  <path d="M185 81c6.76 5.496 11.168 10.618 12.305 19.336.47 8.765-2.22 16.59-7.868 23.289-2.249 2.454-3.213 3.3-6.437 4.375v2l-2.938 1.438c-2.867 1.264-2.867 1.264-4.062 2.562-2.373.1-4.75.13-7.125.125l-3.945.008c-3.753-.127-7.233-.528-10.93-1.133l2.375 2.5c3.407 4.124 4.683 8.308 4.586 13.648-.589 5.866-1.475 8.586-5.934 12.383-4.415 3.087-8.563 3.461-13.84 3.781l-2.772.206c-2.804.191-5.608.342-8.415.482l-2.585.153c-9.029.496-17.024.898-24.415-5.153v-2h-2c-1.376-14.953-1.376-14.953 1.934-19.875 6.377-5.55 10.667-6.249 18.86-5.998 5.512.087 10.204-.626 15.206-3.127 1.704-.226 3.413-.409 5.125-.563l2.758-.253L147 129l-1.46-1.426c-.633-.622-1.264-1.245-1.915-1.886l-1.898-1.864c-4.94-5.22-4.927-10.372-4.805-17.207L137 104l.016-2.367c.307-6.346 2.796-9.984 6.984-14.633l2.25-2.5C148 83 148 83 150 83v-2c9.636-7.975 25.286-6.537 35 0z" fill="rgba(14, 14, 14, 1)" stroke="none"/>
  <path d="M290.375 136.813l2.836-.043c3.155.26 5.073.572 7.789 2.23 3.628 5.894 3.47 11.724 3.375 18.5l-.037 3.24C304.002 176.657 300.05 188.4 292 202l-1.085 1.854C284.102 215.427 276.595 227.506 267 237a525.117 525.117 0 0 0-3.063 3.625c-3.63 4.19-7.64 7.835-11.8 11.492A89.973 89.973 0 0 0 248 256h-3c-1.578-4.142-2.579-7.562-2-12l4-4c6.7-13.05 7.813-27.652 9.079-41.996 1.303-14.512 3.918-28.687 10.984-41.629l.986-1.902c.96-1.838 1.953-3.655 2.951-5.473l1.011-1.931c4.011-7.454 9.944-10.199 18.364-10.256z" fill="rgba(143, 143, 143, 1)" stroke="none"/>
  <path d="M108 80l2.305 1.625C116.67 86.634 120.07 92.133 122 100c.826 7.537.8 13.31-3 20h-2v3a66.64 66.64 0 0 1-5.688 4.563l-3.199 2.378c-5.736 3.793-10.13 4.445-16.863 4.434l-2.423.004c-6.133-.11-10.49-1.217-15.827-4.379v-2l-1.84-.309c-4.209-1.347-6.17-5.825-8.144-9.546-3.291-7.53-2.923-15.208-.328-22.895C66.028 87.076 69.927 81.877 78 78c9.543-3.455 21.541-4.23 30 2z" fill="rgba(11, 11, 11, 1)" stroke="none"/>
  <path d="M117 60h1l1 18h4l.813-1.688c1.303-2.538 2.557-4.965 4.187-7.312h3v18l-2-2c-3.583-.167-3.583-.167-7 0l-.438 3.75A56.847 56.847 0 0 1 120 97l-.742-1.906c-3.525-8.07-8.749-13.335-16.653-17.293C94.212 75.22 83.947 76.384 76 80c-1.335.998-2.669 1.997-4 3h-2l-.84 1.688a526.443 526.443 0 0 1-2.414 4.75c-.432.845-.864 1.69-1.308 2.562l-1.317 2.563c-2.91 6.327-3.195 13.498-1.367 20.203 1.765 4.623 3.703 8.691 7.246 12.234l3 1v2l5 1v1l-1.88.535-8.433 2.403-2.958.841-2.842.81-2.619.747A149.939 149.939 0 0 0 54 139a137.98 137.98 0 0 1-6.2.098l-3.661-.01-3.827-.025-3.86-.014C33.3 139.037 30.15 139.02 27 139l.977-2.273c1.3-3.466 1.431-6.054 1.023-9.727-1.861-1.982-1.861-1.982-4-3 1.285-2.867 2.571-4.976 5-7h2c2.63-3.945 2.436-7.417 2-12-2.808-3.37-6.858-3.964-11-5 1.092-3.277 1.827-3.916 4.437-6 2.45-1.964 3.777-3.32 5.563-6 1.828-.568 1.828-.568 4.035-.844l2.455-.34 2.572-.316c10.04-1.276 18.533-4.099 27.625-8.5l2.182-1.04c2.048-.977 4.09-1.966 6.131-2.96l3.406-1.656c2.567-1.214 2.567-1.214 4.406-2.844C89.216 67.167 93.075 66.183 97 65v8l7-2 2 5c2.445-.188 2.445-.188 5-1 1.714-2.346 2.198-4.692 3-7.5.79-2.767 1.606-5.01 3-7.5z" fill="rgba(180, 180, 180, 1)" stroke="none"/>
  <path d="M161 63c2.36 2.36 2.491 3.779 3 7l6 1 .938-1.938C172 67 172 67 173 66c3.25-.375 3.25-.375 7 0 2.5 2.125 2.5 2.125 5 5a232.623 232.623 0 0 0 5.547 4.473C192 77 192 77 192.457 79.09L193 81c1.742 1.002 1.742 1.002 3.938 1.5 3.356.976 6.533 2.069 9.75 3.438 4.101 1.679 8.23 2.94 12.5 4.124 2.271.643 4.542 1.288 6.812 1.938l2.238.637c5.967 2.077 9.14 7.234 11.93 12.617L241 107l-3.027 1.793c-1.304.797-2.608 1.596-3.91 2.394l-1.999 1.174c-3.915 2.386-3.915 2.386-6.1 6.307-.182 2.448-.182 2.448 1.536 4.457 3.054 2.29 5.94 3.506 9.5 4.875v3l-13 3v2h-2l-1 4-3.402-.805-2.186-.515c-1.572-.371-3.143-.744-4.714-1.118-3.93-.93-7.856-1.8-11.823-2.562-4.164-.892-7.232-2.828-10.875-5-2.771-.775-2.771-.775-5-1l2.25-2.188c6.694-6.845 10.822-14.15 11.25-23.937-.385-7.844-3.708-14.034-9.453-19.3-6.592-5.07-12.74-7.632-21.047-6.575-5.62.783-10.765 1.759-16 4v2l-3 1v-4l-1.688.438c-2.421.589-4.868 1.073-7.312 1.562l4-10h2l1 5 4-1 1-5h2v4h4l.586-2.117.789-2.758.773-2.742C159 65 159 65 161 63z" fill="rgba(181, 181, 181, 1)" stroke="none"/>
  <path d="M126 242c3.549 5.914 3.15 12.995 3.133 19.68l.003 2.46c0 1.71-.001 3.42-.006 5.129-.005 2.591 0 5.183.007 7.774 0 1.67-.002 3.341-.004 5.012l.006 2.311c-.055 12.787-1.862 23.394-11.06 32.95C116 319 116 319 112.437 320.063 107.2 318.443 104.763 315.67 102 311c-1.795-4.559-2.941-9.226-4-14l-.519-2.314c-1.43-6.405-1.43-6.405-2.087-9.557-.646-3.057-1.28-5.855-2.48-8.75-1.518-3.952-1.374-8.03-1.57-12.223-.596-5.466-2.28-8.498-6.344-12.156 4.234-5.686 4.234-5.686 7.438-7 6.667 0 11.846 3.556 16.562 8 1.313 2.813 1.313 2.813 2 5l3 1a86.32 86.32 0 0 1 4.188 6.375l1.115 1.79c1.714 2.824 2.697 4.473 2.697 7.835h3l2 4c.222-18.527.222-18.527-1-37z" fill="rgba(125, 125, 125, 1)" stroke="none"/>
  <path d="M78 257h1c.32 1.603.63 3.207.938 4.813l.527 2.707c.438 2.85.671 5.574.855 8.445.62 7.17 2.625 13.893 4.618 20.785l1.091 3.863c1.33 4.695 2.665 9.386 4.09 14.052C92 315 92 315 92 319c-10.268.604-19.257-1.162-29.062-3.813l-4.143-1.08a1013.79 1013.79 0 0 1-8.03-2.125c-4.41-1.15-8.85-2.144-13.31-3.082-2.934-1.075-4.414-2.572-6.455-4.9 1.75-4.875 1.75-4.875 4-6 2-.04 4-.043 6 0l.813-1.625L43 294l1.5-3.125C46 288 46 288 48 286l2.25-.688c3.956-1.888 6.034-4.951 8.75-8.312 2.4-2.554 4.955-4.91 7.563-7.25l1.753-1.578C70 267 70 267 73 267l.875-1.875C75 263 75 263 77 261c.643-2.069.643-2.069 1-4z" fill="rgba(180, 180, 180, 1)" stroke="none"/>
  <path d="M157 132l-3 1 2.375 2.5c3.407 4.124 4.683 8.308 4.586 13.648-.589 5.866-1.475 8.586-5.934 12.383-4.415 3.087-8.563 3.461-13.84 3.781l-2.772.206c-2.804.191-5.608.342-8.415.482l-2.585.153c-9.029.496-17.024.898-24.415-5.153v-2h-2c-1.376-14.953-1.376-14.953 1.934-19.875 6.377-5.55 10.667-6.249 18.86-5.998 5.512.087 10.204-.626 15.206-3.127 7.39-1.364 13.108-1.012 20 2z" fill="rgba(202, 202, 202, 1)" stroke="none"/>
  <path d="M53 193c7.662-.295 7.662-.295 11 2 4.369 7.163 6.194 14.698 5 23-1.94 6.064-6.725 10.428-11 15l-2.375 2.75C48.427 241.92 38.772 244.769 30 248c-1.351-2.702-.684-3.768.188-6.625l.73-2.477C32.332 235.11 34.148 231.59 36 228c.633-1.25 1.264-2.502 1.895-3.754l.946-1.878a726.739 726.739 0 0 0 10.714-22.259A216.592 216.592 0 0 1 53 193z" fill="rgba(182, 182, 182, 1)" stroke="none"/>
  <path d="M290.375 136.813l2.836-.043c3.155.26 5.073.572 7.789 2.23 3.699 5.963 3.42 11.893 3.313 18.75l.01 3.094c-.049 6.907-.866 13.408-2.323 20.156h-1v-5l-1.688-.332C288.976 173.52 275.932 169.516 269 161v-2l-3-1a531.808 531.808 0 0 1 4.063-7.75c.37-.73.74-1.46 1.123-2.21 4.218-7.8 10.214-11.166 19.189-11.227z" fill="rgba(140, 140, 140, 1)" stroke="none"/>
  <path d="M257 198c3.356.715 4.595 1.595 7 4 2.103.714 2.103.714 4 1v2l2.375.25c4.803.994 9.123 2.837 13.625 4.75-1.184 7.842-5.147 12.874-10 19l-2.07 2.645c-1.57 1.917-3.166 3.624-4.93 5.355a525.117 525.117 0 0 0-3.063 3.625c-3.63 4.19-7.64 7.835-11.8 11.492A89.973 89.973 0 0 0 248 256h-3c-1.578-4.142-2.579-7.562-2-12l4-4c3.548-6.91 5.32-14.463 7-22l.594-2.633c1.228-5.76 1.932-11.499 2.406-17.367z" fill="rgba(205, 205, 205, 1)" stroke="none"/>
  <path d="M51 34c4.506.515 6.6 2.064 10 5a734.499 734.499 0 0 0 4.438 3.438c12.193 9.49 12.193 9.49 12.933 13.648l.067 2.289.12 2.273C77.709 64.225 75.785 65.67 73 68c-3.191 1.766-3.191 1.766-6.563 3.25l-3.378 1.516C58.165 74.74 54.32 75.29 49 75l-3-2c-.34-2.706-.34-2.706-.293-6.102l.03-3.671.075-3.852.042-3.875c.035-3.167.084-6.333.146-9.5h2l-.188-3.75c-.016-3.032.081-4.072 1.688-6.75L51 34z" fill="rgba(5, 5, 5, 1)" stroke="none"/>
  <path d="M76 79l2 1-2.438 2.625C72.975 85.711 72.573 88.002 72 92l-2.063 3.125C66.94 100.09 67.287 105.398 68 111c1.724 6.44 4.601 10.196 10 14l1-1-1.938-3.25c-2.713-4.552-3.187-8.217-3.124-13.5l.027-2.984L74 102l5-2v3h2l2 3c1.977.363 1.977.363 4.125.188L91 106l-.176 2.668c-.384 7.14-.384 7.14 2.114 13.644 5.425 2.99 11.182 2.205 17.062.688-.125 2.75-.125 2.75-1 6-7.827 6.295-17.386 5.922-27 5-3.484-.978-5.87-2.145-9-4v-2l-1.84-.309c-4.209-1.347-6.17-5.825-8.144-9.546-3.291-7.53-2.923-15.208-.328-22.895C65.692 87.86 69.08 83.023 76 79z" fill="rgba(9, 9, 9, 1)" stroke="none"/>
  <path d="M208 31l5 1c2.465 34.777 2.465 34.777-3 44-4.375.375-6.368-.635-10-3-1.31-.587-2.623-1.17-3.938-1.75-5.505-2.732-8.882-6.609-11.375-12.188.51-4.985 3.928-7.587 7.313-11.062a213.758 213.758 0 0 0 2.813-3.5L197 42h2v-2c1.662-1.339 3.33-2.671 5-4a115.013 115.013 0 0 0 4-5z" fill="rgba(5, 5, 5, 1)" stroke="none"/>
  <path d="M161 63c2.36 2.36 2.491 3.779 3 7l6 1 .938-1.938C172 67 172 67 173 66c3.25-.375 3.25-.375 7 0 2.5 2.125 2.5 2.125 5 5a232.623 232.623 0 0 0 5.547 4.473C192 77 192 77 192.457 79.09L193 81c1.742 1.002 1.742 1.002 3.938 1.5 3.356.976 6.533 2.069 9.75 3.438 5.244 2.147 10.624 3.607 16.082 5.113 3.588 1.054 6.859 2.344 10.23 3.949l-1 4c-4.542-.081-9.083-.194-13.625-.313l-3.895-.068-3.77-.107-3.459-.08c-7.3-.97-11.245-5.101-15.99-10.358-5.204-5.538-10.796-10.173-18.511-11.445-7.69-.234-15.704 1.355-22.75 4.371v2l-3 1v-4l-1.688.438c-2.421.589-4.868 1.073-7.312 1.562l4-10h2l1 5 4-1 1-5h2v4h4l.586-2.117.789-2.758.773-2.742C159 65 159 65 161 63z" fill="rgba(179, 179, 179, 1)" stroke="none"/>
  <path d="M100 246c1.688 1.375 1.688 1.375 3 3l2.5 1.438c2.584 1.615 3.918 2.98 5.5 5.562v2l3 1a89.607 89.607 0 0 1 4.188 6.438l1.115 1.814C122 271.721 122 271.721 122 274c-7.982 1.829-15.82 3.453-24 4v2c-1.875-.188-1.875-.188-4-1-2.465-4.798-2.41-9.554-2.656-14.844-.596-5.466-2.28-8.498-6.344-12.156 4.857-6.008 6.94-7.899 15-6z" fill="rgba(183, 183, 183, 1)" stroke="none"/>
  <path d="M64 117l.7 1.645c2.114 4.639 3.597 7.003 8.3 9.355v2l5 1v1l-1.88.535-8.433 2.402-2.958.842a374750637.354 374750637.354 0 0 0-5.46 1.557A149.939 149.939 0 0 0 54 139a137.98 137.98 0 0 1-6.2.098l-3.661-.01-3.827-.025-3.86-.014C33.3 139.037 30.15 139.02 27 139a223.656 223.656 0 0 1 1.71-4.887c.319-.907.636-1.814.963-2.748C31 129 31 129 33.29 127.809c1.65-.44 3.315-.827 4.987-1.176 5.958-1.385 11.31-4.746 16.473-7.945 3.447-1.79 5.43-2.06 9.25-1.688z" fill="rgba(182, 182, 182, 1)" stroke="none"/>
  <path d="M61 101l.184 2.23.254 2.957c.08.963.162 1.926.246 2.918.293 2.681.743 5.261 1.316 7.895l-2.875.625c-3.347.943-5.994 2.409-8.938 4.25C44.876 125.801 38.594 129.349 31 129l-1 3-.25-2.313c-.896-3.21-1.966-3.98-4.75-5.687 1.285-2.867 2.571-4.976 5-7h2v-2l3-1c.802-1.874.802-1.874 1.188-4.063L37 106h15v-2c6.75-3 6.75-3 9-3z" fill="rgba(182, 182, 182, 1)" stroke="none"/>
  <path d="M193 118h2l4 4c4.684 2.912 9.662 2.404 15 2a100.38 100.38 0 0 0 6-2c4.673-.467 6.435.083 10 3 2.298 1.107 4.632 2.044 7 3v3l-13 3v2h-2l-1 4-3.402-.805-2.186-.515c-1.572-.371-3.143-.744-4.714-1.118-3.93-.93-7.856-1.8-11.823-2.562-4.164-.892-7.232-2.828-10.875-5-2.771-.775-2.771-.775-5-1l2.188-2.125c1.981-1.965 3.76-4.007 5.5-6.188L193 118z" fill="rgba(183, 183, 183, 1)" stroke="none"/>
  <path d="M126 242c3.607 6.011 3.142 13.21 3.098 19.996l-.005 2.526c-.005 2.639-.018 5.277-.03 7.916-.006 1.798-.01 3.597-.014 5.396-.011 4.389-.028 8.777-.049 13.166l-3-1c-8.472-.78-16.89.51-25 3l-1 2h-2a658.899 658.899 0 0 1-1.5-5.188l-.844-2.917c-.623-2.748-.779-5.091-.656-7.895l3 1v-2c2.685-.677 5.373-1.341 8.063-2l2.279-.578c5.694-1.38 10.958-2.322 16.658-.422 1.188 2.063 1.188 2.063 2 4 .222-18.527.222-18.527-1-37z" fill="rgba(130, 130, 130, 1)" stroke="none"/>
  <path d="M266 159h3v2l3 1v2l2.188.82c2.77 1.162 5.226 2.533 7.812 4.055 6.064 3.375 12.323 5.32 19 7.125.027 1.48.046 2.958.063 4.438l.035 2.496C301 185 301 185 300 186c-5.497.444-9.531-.695-14.438-3l-1.927-.867c-1.55-.7-3.094-1.415-4.635-2.133v-2l-2.203-.3c-4.814-1.204-8.33-4.233-11.797-7.7-1.399-3.68-1.271-5.168-.063-8.875L266 159z" fill="rgba(201, 201, 201, 1)" stroke="none"/>
  <path d="M191 284l.875 1.875c1.062 2.258 1.062 2.258 3.125 4.125 2 2 2 2 2.938 3.938 1.072 2.339 1.072 2.339 3.687 4.687C204 301 204 301 204 303h2c2.034 3.73 3 5.67 3 10h5v1l-32 1c2-7 2-7 3.938-10.438 3.325-6.264 3.953-13.64 5.062-20.562z" fill="rgba(181, 181, 181, 1)" stroke="none"/>
  <path d="M127 134c1.675.286 3.344.618 5 1l.621 2.152.816 2.786.81 2.777c.543 2.225.543 2.225 1.753 3.285 1.666.04 3.334.043 5 0v-8c1.813-.688 1.813-.688 4-1 2.6 1.637 2.991 2.968 3.813 5.938.199 3.258.076 4.454-1.813 7.062-1.867 2.09-3.28 2.886-6.05 3.324-5.63.275-8.614-.766-12.95-4.324l-.938 1.938C126 153 126 153 125 154c-3.75.553-7.42.756-10.895-.906-2.703-2.053-4.045-3.933-5.23-7.094.16-3.848 1.49-5.286 4.125-8l4 1v8h6c1.807-3.975 2.42-7.69 3-12l1-1z" fill="rgba(18, 18, 18, 1)" stroke="none"/>
  <path d="M258 182l1 3a75.226 75.226 0 0 0 4 2l2.875 2.75c7.41 6.5 17.376 9.914 27.125 10.25a1516.709 1516.709 0 0 1-3.875 6.938l-1.105 1.998c-2.793 4.95-2.793 4.95-5.02 6.064l1-5-3.5-.813c-4.316-1.07-8.363-2.562-12.5-4.187v-2l-2.313-.313c-2.93-.75-3.702-1.522-5.687-3.687l-3-1v10h-1c-.332-8.863.679-17.258 2-26z" fill="rgba(142, 142, 142, 1)" stroke="none"/>
  <path d="M160 100c3.427 2.311 5.441 4.187 7 8 .6 4.355.464 7.988-1.375 12-1.828 2.25-2.752 2.895-5.613 3.238-4.084.13-6.408.114-10.012-1.988-2.999-3.373-3.14-6.403-3.125-10.813l-.008-2.316C147 106 147 106 148 103h2v-2c3.771-1.832 5.998-2.4 10-1z" fill="rgba(242, 242, 242, 1)" stroke="none"/>
  <path d="M33 299c7.136-.664 13.291 1.772 20 4 5.248 1.72 10.06 2.35 15.547 2.656C71 306 71 306 74 308c.257 3.08.394 5.211-1 8l6 1c-3.72 1.34-6.322.651-10.094-.328l-3.625-.926-3.781-.996-3.688-.95c-2.427-.624-4.853-1.256-7.277-1.896a223.748 223.748 0 0 0-6.976-1.668l-3.215-.72-2.838-.601c-2.964-1.082-4.448-2.561-6.506-4.915l2-5z" fill="rgba(123, 123, 123, 1)" stroke="none"/>
  <path d="M78 257h1c1.28 6.422 2.263 12.765 2.754 19.297.296 3.254.764 6.471 1.246 9.703-2.73.081-5.457.14-8.188.188l-2.33.076c-4.667.06-7.688-.225-11.482-3.264-1.087-2.33-1.002-3.934-.938-6.5 1.35-3.6 3.706-4.56 6.938-6.5l1.688-1.75C70 267 70 267 73 267l.875-1.875C75 263 75 263 77 261c.643-2.069.643-2.069 1-4z" fill="rgba(125, 125, 125, 1)" stroke="none"/>
  <path d="M180 79c6.594 2.213 11.612 7.13 15.246 13.02 3.45 8.106 2.273 16.372-.902 24.355-2.573 5.025-5.871 9.8-11.344 11.625v2l-5 1 2-1-1-3 2-2v-3l2.313-2.25c4.979-5.095 5.885-9.302 6.125-16.25-.146-5.776-.868-8.965-4.438-13.5-3.096-2.937-5.973-4.62-10-6l1.938-.813C179.33 82.114 179.33 82.114 180 79z" fill="rgba(20, 20, 20, 1)" stroke="none"/>
  <path d="M92 82.625l2.926.082c2.36.07 4.716.168 7.074.293l1 2-2.746.227C92.233 86.092 85.92 87.248 80 93c-1.708 2.294-2.79 4.377-4 7l-1 2c-.586 6.797-.191 11.972 3 18l1.688 3.438L81 126c-4.816-.92-7.754-3.417-11-7-3.757-5.899-4.053-13.25-3-20 4.566-11.908 12.565-17.044 25-16.375z" fill="rgba(230, 230, 230, 1)" stroke="none"/>
  <path d="M50.125 286.875L53 287v2c4.222.51 8.396.97 12.645 1.184l3.793.191 3.62.148L76 291c2.29 3.435 2.178 4.985 2 9-7.665 4.443-17.034 1.805-25.152-.148-2.503-.749-4.62-1.498-6.848-2.852-1.381-2.763-1.19-4.947-1-8 2-2 2-2 5.125-2.125z" fill="rgba(128, 128, 128, 1)" stroke="none"/>
  <path d="M101.84 103.5c2.16.5 2.16.5 5.222 2.313 2.853 4.693 2.773 8.834 1.938 14.187-1.438 3.188-1.438 3.188-4 5-3.15.7-5.852.724-9 0-3-2.438-3-2.438-5-5l-1-1c-.666-4.522-.743-8.712 1.938-12.563 3.574-2.844 5.438-3.295 9.902-2.937z" fill="rgba(243, 243, 243, 1)" stroke="none"/>
  <path d="M76 79l2 1-2.438 2.625C72.975 85.711 72.573 88.002 72 92l-2.063 3.125C66.94 100.09 67.287 105.398 68 111c1.721 6.43 4.56 10.26 10 14 2.216 1.279 2.216 1.279 4 2-1.75 3.875-1.75 3.875-4 5-2.625-.938-2.625-.938-5-2v-2l-1.84-.309c-4.209-1.347-6.17-5.825-8.144-9.546-3.291-7.53-2.923-15.208-.328-22.895C65.692 87.86 69.08 83.023 76 79z" fill="rgba(17, 17, 17, 1)" stroke="none"/>
  <path d="M174 82c6.358 2.477 11.224 6.31 15 12 1.996 5.988 2.174 14-.188 19.938-2.009 3.394-4.172 6.137-6.812 9.062l-1-3 1-2c.753-9.805 1.177-18.776-5-27-3.727-3.929-7.965-5.293-13-7 3.826-2.55 5.443-2.515 10-2z" fill="rgba(245, 245, 245, 1)" stroke="none"/>
  <path d="M194 91l4 2v2c4.315 1.625 8.004 2.285 12.605 2.414l3.729.117 3.854.094 3.888.117c6.461.192 6.461.192 12.924.258 1.64 1.426 1.64 1.426 3.25 3.313l1.64 1.863L241 105l-1 3h-2v-2l-2.313.125C233 106 233 106 230 104c-2.698-.228-2.698-.228-5.734-.09l-3.43.06c-2.375.062-4.75.127-7.125.196-11.562.19-11.562.19-16.711-3.166-1.34-2.48-1.34-2.48-1.938-5.188l-.652-2.73L194 91z" fill="rgba(143, 143, 143, 1)" stroke="none"/>
  <path d="M110 260c2.262.16 2.262.16 5 1 2.02 2.434 2.02 2.434 3.813 5.438l1.832 2.996C122 272 122 272 122 274c-7.982 1.829-15.82 3.453-24 4v2l-4-1v-6h2v-2l13-2-.063-3.375C109 262 109 262 110 260z" fill="rgba(184, 184, 184, 1)" stroke="none"/>
  <path d="M43 252c1.875 1.188 1.875 1.188 3 3 .5 2.438.5 2.438 0 5-4.157 4.559-10.284 6.71-16.36 7.184-1.88.003-3.762-.082-5.64-.184l-1 3c.515-5.853 1.454-11.33 3-17l1 3a205400104.425 205400104.425 0 0 1 6.055-2.246c3.68-1.426 5.868-2.087 9.945-1.754z" fill="rgba(129, 129, 129, 1)" stroke="none"/>
  <path d="M62 112l1 5-2.875.625c-3.347.943-5.994 2.409-8.938 4.25C44.876 125.801 38.594 129.349 31 129l-1 3-.25-2.313c-.896-3.21-1.966-3.98-4.75-5.687 1.285-2.867 2.571-4.976 5-7h2l1-2c-.25 1.875-.25 1.875-1 4-2.063 1.25-2.063 1.25-4 2v2c8.678-1.83 16.456-3.538 23.887-8.633C55.53 112.01 57.767 110.59 62 112z" fill="rgba(146, 146, 146, 1)" stroke="none"/>
  <path d="M95.938 92.375C99 93 99 93 101.438 95.813 103 99 103 99 102 102h4v3l-2.266-.105-2.984-.082-2.953-.106c-3.172.332-4.467 1.18-6.797 3.293l-1-1-3.375.188C83 107 83 107 81 105.25c-1-2.25-1-2.25-.75-4.438C81 99 81 99 82 98c2.34.287 4.674.62 7 1l1-2c1.718-3.075 2.424-3.877 5.938-4.625z" fill="rgba(24, 24, 24, 1)" stroke="none"/>
  <path d="M64 92l-2 9-10 3v2H37l-1 8h-3l1-1c.23-2.856.411-5.204 0-8-1.654-1.99-1.654-1.99-4-3l-4-2 2.12.02C40.857 100.053 54.196 92 64 92z" fill="rgba(141, 141, 141, 1)" stroke="none"/>
  <path d="M125 302c1 3 1 3 .434 4.832-2.394 4.758-4.913 9.161-9.434 12.168-3.438.875-3.438.875-7 0-3.932-3.33-7.09-6.825-8-12l3 .625c5.063.73 9.627-.405 14.188-2.75 2.345-1.132 4.243-1.018 6.812-.875v-2z" fill="rgba(124, 124, 124, 1)" stroke="none"/>
  <path d="M260 180c4.808 2.246 9.16 5.258 13.613 8.125 3.532 1.955 6.493 2.927 10.387 3.875v2l10 2-1 4c-9.741 1.008-18.6-2.574-26.344-8.402A171.939 171.939 0 0 1 259 185l1-5z" fill="rgba(193, 193, 193, 1)" stroke="none"/>
  <path d="M255 224c2.915 1.074 4.778 1.778 7 4v3l3 1c0 3 0 3-1 6l-2 2h-2l-2 2a248.794 248.794 0 0 1-4 3l-2-1a280.14 280.14 0 0 1-1-4l-2-2 1-2c.34-1.999.673-3.999 1-6l1-3h2l1-3z" fill="rgba(209, 209, 209, 1)" stroke="none"/>
  <path d="M196 108h1v7l1.875.938L203 118c5.252.38 10.346.356 15.438-1.063 3.433-.903 4.376-.938 7.562.063v5c-17.809 5.221-17.809 5.221-25.465 1.945-2.022-1.2-3.826-2.329-5.535-3.945v-2l-2-1 3-9z" fill="rgba(144, 144, 144, 1)" stroke="none"/>
  <path d="M91 260c2.438-.027 4.875-.047 7.313-.063l2.091-.025c3.144-.015 5.59.086 8.596 1.088v8c-4.497 2.248-8.079 2.167-13 2v2h-2l-1 4c-1.156-3.467-1.328-6.541-1.563-10.188l-.253-3.855L91 260z" fill="rgba(126, 126, 126, 1)" stroke="none"/>
  <path d="M249 234c2 3 2 3 2 5l2 3-1 2c3.003.332 3.003.332 4.688-1.5L258 241l3 3a935.677 935.677 0 0 1-5.75 5.438l-1.633 1.564c-2.822 2.633-4.827 4.28-8.617 4.998-1.578-4.142-2.579-7.562-2-12a90.488 90.488 0 0 1 4-4c1.268-3.134 1.268-3.134 2-6z" fill="rgba(204, 204, 204, 1)" stroke="none"/>
  <path d="M22 272l1 2 2.117-.105 2.758-.082 2.742-.106L33 274c2 3 2 3 1.688 6.625C34 284 34 284 33 285a91.472 91.472 0 0 1-5.063.063l-2.785-.028L23 285v6h-1v-19z" fill="rgba(133, 133, 133, 1)" stroke="none"/>
  <path d="M120.688 299.938l3.011.027L126 300c-.246 1.898-.246 1.898-1 4-1.785.977-1.785.977-4.063 1.625-.812.235-1.624.47-2.46.71-.818.22-1.635.44-2.477.665l-2.164.664c-4.282 1.24-7.522 1.493-11.836.336-1-1-1-1-1.063-3.563L101 302l2.3-.184 3.013-.253 2.988-.247c3.998-.468 7.285-1.427 11.386-1.378z" fill="rgba(178, 178, 178, 1)" stroke="none"/>
  <path d="M127 134a613.01 613.01 0 0 1-.875 5.313l-.492 2.988C125 145 125 145 123 148c-3.125.188-3.125.188-6 0-.7-3.153-1-5.727-1-9l-3-2c5.01-3.006 8.327-3.293 14-3z" fill="rgba(195, 195, 195, 1)" stroke="none"/>
  <path d="M123 286v2l2 1-2.457.367c-3.516.532-7.03 1.08-10.543 1.633l-3.277.508-2.973.492-2.703.438L101 293l-1 2h-2v-7c8.39-1.253 16.497-2.36 25-2z" fill="rgba(178, 178, 178, 1)" stroke="none"/>
  <path d="M74 264l.875 1.938c.953 2.214.953 2.214 3.125 3.062v2h2v4c-5.458.111-10.615-.083-16-1l-1 2-2-2 2.813-1.813c3.074-1.952 3.074-1.952 4.874-3.937C70 267 70 267 73 267l1-3z" fill="rgba(181, 181, 181, 1)" stroke="none"/>
  <path d="M174 82c4.612 1.963 8.191 3.787 11 8h-3l-1 6-1.688-2.25c-4.509-5.362-8.804-7.544-15.312-9.75 3.826-2.55 5.443-2.515 10-2z" fill="rgba(226, 226, 226, 1)" stroke="none"/>
  <path d="M126 242c3.607 6.011 3.142 13.21 3.098 19.996l-.005 2.526c-.005 2.639-.018 5.277-.03 7.916-.006 1.798-.01 3.597-.014 5.396-.011 4.389-.028 8.777-.049 13.166l-6-3v-4h3v-5h1c.222-18.527.222-18.527-1-37z" fill="rgba(151, 151, 151, 1)" stroke="none"/>
  <path d="M157 132l-3 1c-.733 2.015-.733 2.015-1 4l-2-1v4l-3 1-4-5 3-3-10-2v-1c7.47-1.159 13.028-1.047 20 2z" fill="rgba(200, 200, 200, 1)" stroke="none"/>
  <path d="M85.887 82.707l2.842.03c.976.024 1.952.05 2.959.076l2.994.04c2.44.036 4.879.085 7.318.147l1 2-2.852.332-3.773.48-3.727.458c-3.667.734-6.343 2.039-9.648 3.73l-2-1 1-4-4 1c2.458-3.049 4.03-3.363 7.887-3.293z" fill="rgba(216, 216, 216, 1)" stroke="none"/>
  <path d="M24 43h1c.074 5.642.129 11.283.165 16.925.015 1.92.035 3.84.061 5.759.037 2.758.054 5.515.067 8.273.015.86.03 1.719.047 2.604v2.427l.02 2.133C24.898 83.539 23.849 84.439 22 86l-3-1 1-2h2l2-40z" fill="rgba(64, 63, 64, 1)" stroke="none"/>
  <path d="M88 304c2.672 4.771 4 9.54 4 15H79v-1l9-1-3-3c-.667-4.221.634-6.55 3-10z" fill="rgba(121, 121, 121, 1)" stroke="none"/>
  <path d="M84.438 97.813C87 98 87 98 89 100c.125 3.125.125 3.125 0 6-3.375.188-3.375.188-7 0-2-3-2-3-1.688-5.125 1.004-2.738 1.132-2.832 4.126-3.063z" fill="rgba(218, 218, 218, 1)" stroke="none"/>
  <path d="M275 208l9 2-1 6h-5v-2l-4-1 1-5z" fill="rgba(212, 212, 212, 1)" stroke="none"/>
  <path d="M56 187l10 4-2 4-10-1c.875-5.875.875-5.875 2-7z" fill="rgba(219, 219, 219, 1)" stroke="none"/>
  <path d="M52 2v1h-8l-1 2-3-1v3c-5.349 5-5.349 5-8 5l-.375 1.938L31 16l-2 1c2.033-7.284 5.441-11.252 12-15 3.93-1.277 6.986-.84 11 0z" fill="rgba(100, 95, 96, 1)" stroke="none"/>
  <path d="M228 125l9 3v3l-9 2v-8z" fill="rgba(171, 171, 171, 1)" stroke="none"/>
  <path d="M32 115l1 3c-1.375 1.5-1.375 1.5-3 3h-2v2h6v5c-3.821-.53-6.062-1.497-9-4 1.285-2.867 2.571-4.976 5-7h2v-2z" fill="rgba(134, 133, 134, 1)" stroke="none"/>
  <path d="M204 2v2l-3 2a210.028 210.028 0 0 0-4 5c-2 2-2 2-5 4l-3-1 2-3h2l.75-1.938C195 7 195 7 197.063 6.438L199 6l1-3c2-1 2-1 4-1z" fill="rgba(75, 71, 73, 1)" stroke="none"/>
  <path d="M118.688 132.875l3.574.055L125 133v1l-2.875.813c-4.723 1.347-9.423 2.768-14.125 4.187.313-1.875.313-1.875 1-4 3.632-2.421 5.383-2.21 9.688-2.125z" fill="rgba(211, 211, 211, 1)" stroke="none"/>
  <path d="M126 147l3 1c-.938 2.5-.938 2.5-3 5-3.038.458-5.95.288-9 0l1-3c2.938-1.125 2.938-1.125 6-2l2-1z" fill="rgba(7, 7, 7, 1)" stroke="none"/>
  <path d="M240 71h1l.304 1.665c.467 2.51.956 5.016 1.446 7.522l.477 2.62c1.005 5.048 2.044 8.41 5.773 12.193a56.54 56.54 0 0 1-7-4c-.477-2.348-.477-2.348-.625-5.063.065-3.275.065-3.275-1.375-5.937a74.456 74.456 0 0 1-.063-4.563l.028-2.503L240 71z" fill="rgba(129, 111, 113, 1)" stroke="none"/>
  <path d="M208 31l5 1v5l-2-2c-3.205.11-4.243 1.226-6.625 3.438L202 41l-2 2-3-1h2v-2c1.662-1.339 3.33-2.671 5-4a115.013 115.013 0 0 0 4-5z" fill="rgba(26, 26, 26, 1)" stroke="none"/>
  <path d="M173 98h3c1.354 2.709 1.065 5.01 1 8h-5c-.625-2.313-.625-2.313-1-5l2-3z" fill="rgba(222, 222, 222, 1)" stroke="none"/>
  <path d="M94 93h5c.625 2.375.625 2.375 1 5l-2 2c-2.125-.375-2.125-.375-4-1-1.125-3.75-1.125-3.75 0-6z" fill="rgba(236, 236, 236, 1)" stroke="none"/>
  <path d="M174 82c2.438 1.5 2.438 1.5 4 3l-3 1v2c-3.724-1.213-7.378-2.509-11-4 3.71-2.473 5.61-2.385 10-2z" fill="rgba(222, 222, 222, 1)" stroke="none"/>
  <path d="M139 246l3 2c.221 2.789.281 5.347.188 8.125l-.042 2.285A475.62 475.62 0 0 1 142 264h-2l-1-18z" fill="rgba(181, 181, 181, 1)" stroke="none"/>
  <path d="M280 193c4.869.596 9.328 1.57 14 3l-1 3c-4.788.748-7.567-1.305-11.426-3.809L280 194v-1z" fill="rgba(209, 209, 209, 1)" stroke="none"/>
  <path d="M157 132l-3 1v2l-4-1v-2l-13-1v-1c7.47-1.159 13.028-1.047 20 2z" fill="rgba(223, 223, 223, 1)" stroke="none"/>
  <path d="M183 103h1l1 12 3-1c-1.35 4.419-3.261 6.343-7 9l.465-2.012c.643-3.59.885-7.166 1.097-10.8l.131-2.1c.106-1.696.207-3.392.307-5.088z" fill="rgba(191, 191, 191, 1)" stroke="none"/>
  <path d="M98 288h8l-2 2 4 2-3.438.375L101 293l-1 2h-2v-7z" fill="rgba(170, 170, 170, 1)" stroke="none"/>
  <path d="M256 101l2 1c.492 7.385.492 7.385-2 10.5l-2 1.5c-2-3-2-3-2-6l4-2v-5z" fill="rgba(74, 70, 73, 1)" stroke="none"/>
  <path d="M164 91c3.692.692 3.692.692 5 2 .04 1.666.043 3.334 0 5h-5a128.624 128.624 0 0 1-1-6l1-1z" fill="rgba(242, 242, 242, 1)" stroke="none"/>
  <path d="M23 62h1c.058 3.625.094 7.25.125 10.875.017 1.033.034 2.065.05 3.129l.02 2.988.032 2.761C24 84 24 84 22 86l-3-1 1-2h2l1-21z" fill="rgba(122, 119, 120, 1)" stroke="none"/>
  <path d="M75 117c2.4 2.88 4.473 5.564 6 9-4.379-.505-6.817-3.178-10-6l3-1 1-2z" fill="rgba(192, 192, 192, 1)" stroke="none"/>
  <path d="M93 93c1 2 1 2 1 6h-3l.063 3.438C91 106 91 106 90 107c-2.333.04-4.667.042-7 0v-1h6l-.625-3.375L88 99l2-2a248.794 248.794 0 0 0 3-4z" fill="rgba(56, 56, 56, 1)" stroke="none"/>
  <path d="M139 240c2.063.438 2.063.438 4 1-.75 6.75-.75 6.75-3 9a543.754 543.754 0 0 1-1.063-4.438l-.597-2.496L138 241l1-1z" fill="rgba(239, 239, 239, 1)" stroke="none"/>
  <path d="M117 139l1 3h2l1-2v7l-4 1c-.845-3.378-1.108-5.675 0-9z" fill="rgba(183, 183, 183, 1)" stroke="none"/>
  <path d="M248 117l7 3v2h2l1 4h-2l-2-2-2 1-1-5-3-1v-2z" fill="rgba(87, 81, 85, 1)" stroke="none"/>
  <path d="M9 117l-1 3H6l-1 3v-2H3l-1 8H1c-.368-7.482-.368-7.482 1.375-9.938C4.895 117.415 5.885 117 9 117z" fill="rgba(85, 81, 85, 1)" stroke="none"/>
  <path d="M180 26l2 4-2.438 1.375c-2.65 1.372-2.65 1.372-3.562 3.625h-7v-2l2.125.438c4.479-.682 6.275-3.935 8.875-7.438z" fill="rgba(93, 89, 92, 1)" stroke="none"/>
  <path d="M247 303c-.615 3.995-2.706 6.745-5 10-1.231-2.463-1.072-4.28-1-7h2v-2c2-1 2-1 4-1z" fill="rgba(86, 80, 81, 1)" stroke="none"/>
  <path d="M80 100h5v2h3l-1 3h-6l-1-5z" fill="rgba(234, 234, 234, 1)" stroke="none"/>
  <path d="M90 83h12l1 2-13 1v-3z" fill="rgba(225, 225, 225, 1)" stroke="none"/>
  <path d="M81 74c-1.392 2.784-3.156 2.979-6 4v3l-3 1-2-4a417.885 417.885 0 0 1 3.813-2l2.144-1.125C78 74 78 74 81 74z" fill="rgba(170, 170, 170, 1)" stroke="none"/>
  <path d="M9 90l2 1-2.938 1.813C4.77 94.71 4.77 94.71 4 98l2 1-3 3-1-1c.464-6.27.464-6.27 2.375-8.875C6 91 6 91 9 90z" fill="rgba(92, 83, 88, 1)" stroke="none"/>
  <path d="M188 15c0 4.162-.191 6.118-3.063 9.25L183 26l-2-1c.978-1.48 1.957-2.96 2.938-4.438l1.652-2.496C187 16 187 16 188 15z" fill="rgba(97, 93, 94, 1)" stroke="none"/>
  <path d="M77 261l.375 1.625c.747 2.839 1.678 5.597 2.625 8.375h-2v-2l-3-1c-.125-2.375-.125-2.375 0-5l2-2z" fill="rgba(136, 136, 136, 1)" stroke="none"/>
  <path d="M282 216c-1.372 2.954-2.989 5.44-5 8l-1-3-2-2c4.625-3 4.625-3 8-3z" fill="rgba(189, 188, 188, 1)" stroke="none"/>
  <path d="M254 153c1.033 2.788 1.045 3.868.063 6.75L253 162h6l1 2h-9c.551-3.95 1.39-7.35 3-11z" fill="rgba(91, 89, 91, 1)" stroke="none"/>
  <path d="M10 137l2 1-1.438 1.188C8.649 141.407 8.387 143.133 8 146H6l-2 3c.262-4.457.577-6.515 3.563-9.938L10 137z" fill="rgba(101, 99, 100, 1)" stroke="none"/>
  <path d="M82 85l-1 4 2 1-4 2-2-2c.25-2.063.25-2.063 1-4 2-1 2-1 4-1z" fill="rgba(245, 245, 245, 1)" stroke="none"/>
  <path d="M228 114l2 1-.438 1.688c-.59 2.426-1.085 4.861-1.562 7.312-1.563-1.188-1.563-1.188-3-3 .245-3.342.605-4.605 3-7z" fill="rgba(35, 35, 35, 1)" stroke="none"/>
  <path d="M175 299l2 4-1.438 1.75c-1.51 2.176-2.102 3.676-2.562 6.25h-3c1.875-5.75 1.875-5.75 3-8h2v-4z" fill="rgba(46, 46, 46, 1)" stroke="none"/>
  <path d="M58 279l1 3c-4.185 4.923-4.185 4.923-8.313 5.313L48 287l1.625-.625c3.377-1.955 5.68-4.557 8.375-7.375z" fill="rgba(204, 204, 204, 1)" stroke="none"/>
  <path d="M188.563 257.938L192 258v3l-1-2-2.875 2C185 263 185 263 183 263c1.126-4.985 1.126-4.985 5.563-5.063z" fill="rgba(53, 53, 53, 1)" stroke="none"/>
  <path d="M56 187l5 2v3h-6l1-5z" fill="rgba(230, 230, 230, 1)" stroke="none"/>
  <path d="M74 264v3zm-4 3l3 1c-2.528 2.799-4.204 4.458-8 5l5-6z" fill="rgba(200, 200, 200, 1)" stroke="none"/>
  <path d="M71 128h2v2l5 1v1l-8 1-1-3 2-2z" fill="rgba(169, 169, 169, 1)" stroke="none"/>
  <path d="M115 123c0 3 0 3-1.426 4.64l-1.886 1.61-1.864 1.64L108 132l-3-1 1.934-1.496 2.504-1.941c.823-.639 1.647-1.277 2.496-1.934 1.941-1.465 1.941-1.465 3.066-2.629z" fill="rgba(196, 196, 196, 1)" stroke="none"/>
  <path d="M32 115l1 3c-1.375 1.5-1.375 1.5-3 3h-2v2l2 1h-5c1.285-2.867 2.571-4.976 5-7h2v-2z" fill="rgba(146, 147, 147, 1)" stroke="none"/>
  <path d="M167 108h1l-.035 2.117-.028 2.758-.035 2.742c-.064 2.4-.064 2.4 1.098 4.383l-4 3c0-4 0-4 1-6 .225-1.537.408-3.08.563-4.625l.253-2.477L167 108z" fill="rgba(35, 35, 35, 1)" stroke="none"/>
  <path d="M173 97l-2 7-2-3c-2.584-.25-2.584-.25-5 0 1-2 1-2 3.938-3.125C171 97 171 97 173 97z" fill="rgba(20, 20, 20, 1)" stroke="none"/>
  <path d="M191 284c2 4 2 4 2 8l-4 4 2-12z" fill="rgba(148, 148, 148, 1)" stroke="none"/>
  <path d="M93 270h11v1h-8v2h-2l-1 4v-7z" fill="rgba(154, 154, 154, 1)" stroke="none"/>
  <path d="M257 241l4 2-4 4-3-2 3-4z" fill="rgba(177, 177, 177, 1)" stroke="none"/>
  <path d="M287 225h5l-4 7c-1.063-1.813-1.063-1.813-2-4l1-3z" fill="rgba(59, 56, 57, 1)" stroke="none"/>
  <path d="M215 161c2 2 2 2 3 5l-2 2v-2h-2l-1 3-1-2a100.644 100.644 0 0 1 3-6z" fill="rgba(46, 46, 46, 1)" stroke="none"/>
  <path d="M151.563 98.938L155 99c-3 2-3 2-5 2v2h-2l-1 3c-.043-2-.04-4 0-6 1-1 1-1 4.563-1.063z" fill="rgba(27, 27, 27, 1)" stroke="none"/>
  <path d="M231 95h2l-1 4-14-1v-1l2.59-.184 3.347-.254c1.103-.08 2.205-.162 3.34-.246 2.634-.02 2.634-.02 3.723-1.316z" fill="rgba(168, 168, 168, 1)" stroke="none"/>
  <path d="M135 312c3 3.75 3 3.75 3 6h-5c.875-4.875.875-4.875 2-6z" fill="rgba(184, 184, 184, 1)" stroke="none"/>
  <path d="M17 308l6 2 1 5c-5.875-3.625-5.875-3.625-7-7z" fill="rgba(92, 81, 81, 1)" stroke="none"/>
  <path d="M27 251l7 3c-2.647 1.46-3.894 2-7 2v-5z" fill="rgba(225, 226, 226, 1)" stroke="none"/>
  <path d="M249 234c2 3 2 3 2 5l2 3h-6l2-8z" fill="rgba(182, 182, 182, 1)" stroke="none"/>
  <path d="M21 232c1 4 1 4 0 6l2 1-2 2h-3l3-9z" fill="rgba(84, 78, 80, 1)" stroke="none"/>
  <path d="M17 88v2l-3 2-2 3c-1.063-1.875-1.063-1.875-2-4l1-2c2.089-.674 3.804-1 6-1z" fill="rgba(46, 42, 44, 1)" stroke="none"/>
  <path d="M174 85h6l-2 5-3-1c-.688-2.063-.688-2.063-1-4z" fill="rgba(242, 242, 242, 1)" stroke="none"/>
  <path d="M126 273l2 1v11h-1a558.162 558.162 0 0 1-1.063-4.875l-.597-2.742C125 275 125 275 126 273z" fill="rgba(241, 241, 241, 1)" stroke="none"/>
  <path d="M80 252l3 2-6 5c-1.125-3.75-1.125-3.75 0-6l3 1v-2z" fill="rgba(230, 230, 230, 1)" stroke="none"/>
  <path d="M30 97v2l-7 1 1-3c2.49-1.245 3.41-.777 6 0z" fill="rgba(209, 209, 209, 1)" stroke="none"/>
  <path d="M240 71h1c2.286 8.429 2.286 8.429 2 13-2.048-1.963-2.95-3.428-3.2-6.27.011-2.25.07-4.484.2-6.73z" fill="rgba(74, 70, 71, 1)" stroke="none"/>
  <path d="M263 237l2 1-2 4h-4l1-3h2l1-2z" fill="rgba(198, 197, 197, 1)" stroke="none"/>
  <path d="M118 187h1c.37 5.538.37 5.538-1.5 7.875L116 196l-2-4 3-2 1-3z" fill="rgba(25, 25, 25, 1)" stroke="none"/>
  <path d="M31 164h2l2 3c2.06.724 2.06.724 4 1l-1 4c-5.875-4.625-5.875-4.625-7-8z" fill="rgba(117, 114, 116, 1)" stroke="none"/>
  <path d="M71 114l4 1-1 5-3-1v-5z" fill="rgba(247, 247, 247, 1)" stroke="none"/>
  <path d="M189 35l2 3-5 5-2-1 5-7z" fill="rgba(118, 118, 118, 1)" stroke="none"/>
  <path d="M40 155c1.875.25 1.875.25 4 1 1.25 2.063 1.25 2.063 2 4h-2l-2 2v-6l-2-1z" fill="rgba(57, 58, 58, 1)" stroke="none"/>
  <path d="M92 101l2 2c-.25 2.063-.25 2.063-1 4l-2 1c-.625-2.375-.625-2.375-1-5l2-2z" fill="rgba(17, 17, 17, 1)" stroke="none"/>
</svg>
</g></svg></g></g>
<!-- /image 55429 -->
</defs><rect x="0" y="0" width="250" height="250" fill="rgba(140, 140, 140, 1)"></rect><use xlink:href="#transformed-55429" transform="translate(-250, -250)"></use><use xlink:href="#transformed-55429" transform="translate(0, -250)"></use><use xlink:href="#transformed-55429" transform="translate(250, -250)"></use><use xlink:href="#transformed-55429" transform="translate(-250, 0)"></use><use xlink:href="#transformed-55429" transform="translate(0, 0)"></use><use xlink:href="#transformed-55429" transform="translate(250, 0)"></use><use xlink:href="#transformed-55429" transform="translate(-250, 250)"></use><use xlink:href="#transformed-55429" transform="translate(0, 250)"></use><use xlink:href="#transformed-55429" transform="translate(250, 250)"></use></svg>