<svg version="1.1"
      xmlns="http://www.w3.org/2000/svg"
      xmlns:xlink="http://www.w3.org/1999/xlink"  id="snapshot-71695" width="250" height="250" viewBox="0 0 250 250"><desc>This image was made on Patterninja.com</desc><defs>
<!-- image 82218 -->
<g id="transformed-82218" data-image="82218" transform="translate(-125, -125) rotate(0, 125, 125)"><g><svg version="1.1" width="250px" height="250px" viewBox="0 0 250 250"><g id="original-82218"><svg xmlns="http://www.w3.org/2000/svg" viewBox="0 0 500 500" xmlns:xlink="http://www.w3.org/1999/xlink" version="1.1" preserveAspectRatio="xMidYMid meet">
  <path d="M278 0c2.525 1.146 4.665 2.475 7 4v2l3 1c2.493 3.46 2.446 7.384 2.625 11.5l.104 2.246c.067 1.592.128 3.185.183 4.777.059 1.652.128 3.303.207 4.954.58 12.535-1 22.705-5.119 34.523a766.122 766.122 0 0 0-2 7l-1 3c1.112 3.132 1.112 3.132 2.75 6.563 4.17 9.363 6.844 17.102 6.25 27.437l-5 1 .875 1.809c3.715 8.68 3.77 16.912 3.125 26.191-1 1-1 1-3.563 1.063L285 139l.625 2.875L286 145l-2 2c.003 1.95.003 1.95.46 4.156l.432 2.574.483 2.77c1.142 7.19 1.939 14.214 1.938 21.5l.015 2.225c-.052 4.015-.556 7.16-2.328 10.775l-5-1-1-4h-2c-1.29-1.68-1.29-1.68-2.625-3.875l-1.352-2.18C272 178 272 178 272 176h-2c-1.042 1.602-1.042 1.602-2.063 3.625C262.894 187.962 253.65 191.346 245 195c1.303 5.069 3.043 9.438 5.438 14.125l.908 1.8c1.363 2.68 2.779 5.276 4.365 7.829 1.503 2.62 1.544 4.274 1.289 7.246l-4 2v2h2c4.047 6.197 4.047 6.197 3.813 10.188.256 5.224 2.615 8.33 5.324 12.722 2.729 4.526 4.8 9.233 6.863 14.09l.845 1.943c.937 2.16 1.86 4.327 2.78 6.495l.877 2.022c4.333 10.384 6.009 20.379 5.935 31.603l.061 3.314c-.005 8.878-1.435 17.741-7.498 24.623h-2v2c-13.641 12.306-34.966 13.886-52.48 14.14l-3.338.06c-2.258.033-4.516.051-6.774.054-6.332.141-10.604.651-15.669 4.611-2.73 1.782-5.302 1.882-8.497 1.678-4.22-1.022-7.493-3.21-10.242-6.543-1.17-2.632-2.079-5.264-3-8-.645.01-1.291.02-1.956.032-2.931.041-5.863.067-8.794.093l-3.078.05-2.969.02-2.73.032c-2.612-.24-4.23-.904-6.473-2.227l-.875 2.313C144 348 144 348 142 351h-2v2c-5.153 3.328-8.817 4.902-15 5-3.5-1.438-3.5-1.438-6-3v-2l-3.77-.148c-17.144-.735-33.771-2.003-46.19-15.372C68 336 68 336 68 334h-2c-4.641-5.458-7.858-11.195-10-18l-2.02.027c-9.511-.306-15.722-4.253-22.73-10.464L29 303l-1.602-1.734C18.697 291.682 11.876 280.986 7 269l-1.258-2.926-1.367-3.199c-.425-.993-.85-1.985-1.29-3.008-2-5.285-2.244-10.278-2.253-15.887l-.01-2.352c-.005-1.645-.007-3.29-.007-4.934-.002-2.46-.02-4.92-.04-7.38-.057-15.801.357-32.019 8.162-46.126l1.053-1.983c3.341-6.16 3.341-6.16 6.01-8.205h2l.762-1.61c1.543-2.98 3.258-5.802 5.05-8.64l2.02-3.266C28 157 28 157 30.699 156.578 33 157 33 157 34 158c.25 1.588.444 3.186.613 4.785l.338 3.026.361 3.251C37.056 190.457 37.056 190.457 47.5 208c3.019 2.415 3.954 4.721 5.523 8.18 1.231 2.294 2.894 3.312 4.977 4.82.906 3.342 1.089 6.357.914 9.8l-.133 2.714-.156 2.798-.133 2.764c-.214 4.159-.51 8.227-1.156 12.342-.325 3.464-.308 4.798 1.664 7.582 8.418-10.978 8.418-10.978 13.813-23.438 1.6-4.802 4.453-8.172 8.187-11.562h2v-2h2l-2-3c-.157-3.385.408-5.321 2.645-7.887a331.4 331.4 0 0 1 4.234-4.047c3.144-3.063 5.616-6.475 8.121-10.066.55-.768 1.1-1.537 1.668-2.328 3.972-5.35 3.972-5.35 5.332-11.672-1.45-2.565-3.324-4.717-5.25-6.938-2.875-3.393-5.439-6.433-7.422-10.44-1.102-2.937-1.102-2.937-4.328-3.622l-.773 1.703c-1.384 2.59-3.026 4.748-4.852 7.047l-1.914 2.422L79 175c-4.875-.875-4.875-.875-6-2-.607-6.922.772-12.81 2.665-19.414.986-3.555 1.685-6.092.335-9.586-1.273-3.69-.669-6.033.438-9.75l.87-2.984L78 129l-2-2c.358-5.015 2.164-9.371 4-14l-3-1c.354-9.913 3.746-21.227 10-29.063 3.21-4.69 1.74-9.62.816-14.93A614.62 614.62 0 0 0 87 64c-.26-1.281-.518-2.563-.785-3.883a8965.15 8965.15 0 0 0-1.547-7.554c-2.623-13.99-1.95-27.096 3.457-40.313 3.485-4.182 7.793-7.438 13.113-8.84 7.442-.542 12.962 3.573 18.563 8.02 4.85 4.468 8.568 9.98 12.38 15.328l1.366 1.914 1.214 1.722c1.297 1.681 2.708 3.137 4.239 4.606l1.688-.77c9.929-4.478 18.117-7.432 29.187-7.292l2.086.013c1.68.012 3.36.03 5.039.049l-.035-3.684-.028-4.753-.025-2.432c-.009-2.044.036-4.088.088-6.131 1-1 1-1 3.875-1.375L184 9c1.75 2.25 1.75 2.25 3 5l1.188 2.313L189 18l2.125-2c3.31-2.302 4.937-2.366 8.875-2l2 5 3-2a97.813 97.813 0 0 1 7 0c1.369 4.517.47 7.588-1 12 1.206.63 2.415 1.254 3.625 1.875l2.04 1.055c4.89 2.24 9.645 3.392 14.96 4.133 3.517.495 6.948.993 10.375 1.937 1.845-2.81 3.09-5.283 4.125-8.5 3.604-10.014 12.405-22.239 21.375-28C271.47-.201 273.728-.61 278 0z" fill="rgba(154, 153, 142, 1)" stroke="none"/>
  <path d="M278 0c2.525 1.146 4.665 2.475 7 4v2l3 1c2.493 3.46 2.446 7.384 2.625 11.5l.104 2.246c.067 1.592.128 3.185.183 4.777.059 1.652.128 3.303.207 4.954.58 12.535-1 22.705-5.119 34.523a766.122 766.122 0 0 0-2 7l-1 3c1.112 3.132 1.112 3.132 2.75 6.563 4.17 9.363 6.844 17.102 6.25 27.437l-5 1 .875 1.809c3.715 8.68 3.77 16.912 3.125 26.191-1 1-1 1-3.563 1.063L285 139l.625 2.875L286 145l-2 2c.003 1.95.003 1.95.46 4.156l.432 2.574.483 2.77c1.142 7.19 1.939 14.214 1.938 21.5l.015 2.225c-.052 4.015-.556 7.16-2.328 10.775l-5-1-1-4h-2c-1.29-1.68-1.29-1.68-2.625-3.875l-1.352-2.18C272 178 272 178 272 176h-2c-1.042 1.602-1.042 1.602-2.063 3.625C262.894 187.962 253.65 191.346 245 195c1.303 5.069 3.043 9.438 5.438 14.125l.908 1.8c1.363 2.68 2.779 5.276 4.365 7.829 1.503 2.62 1.544 4.274 1.289 7.246l-4 2v2h2c4.047 6.197 4.047 6.197 3.813 10.188.256 5.224 2.615 8.33 5.324 12.722 2.729 4.526 4.8 9.233 6.863 14.09l.845 1.943c.937 2.16 1.86 4.327 2.78 6.495l.877 2.022c4.333 10.384 6.009 20.379 5.935 31.603l.061 3.314c-.005 8.878-1.435 17.741-7.498 24.623h-2v2c-13.641 12.306-34.966 13.886-52.48 14.14l-3.338.06c-2.258.033-4.516.051-6.774.054-6.332.141-10.604.651-15.669 4.611-2.73 1.782-5.302 1.882-8.497 1.678-4.22-1.022-7.493-3.21-10.242-6.543-1.17-2.632-2.079-5.264-3-8-.645.01-1.291.02-1.956.032-2.931.041-5.863.067-8.794.093l-3.078.05-2.969.02-2.73.032c-2.612-.24-4.23-.904-6.473-2.227l-.875 2.313C144 348 144 348 142 351h-2v2c-5.153 3.328-8.817 4.902-15 5-3.5-1.438-3.5-1.438-6-3v-2l-3.77-.148c-17.144-.735-33.771-2.003-46.19-15.372C68 336 68 336 68 334h-2c-4.641-5.458-7.858-11.195-10-18l-2.02.027c-9.511-.306-15.722-4.253-22.73-10.464L29 303l-1.602-1.734C18.697 291.682 11.876 280.986 7 269l-1.258-2.926-1.367-3.199c-.425-.993-.85-1.985-1.29-3.008-2-5.285-2.244-10.278-2.253-15.887l-.01-2.352c-.005-1.645-.007-3.29-.007-4.934-.002-2.46-.02-4.92-.04-7.38-.057-15.801.357-32.019 8.162-46.126l1.053-1.983c3.341-6.16 3.341-6.16 6.01-8.205h2l.762-1.61c1.543-2.98 3.258-5.802 5.05-8.64l2.02-3.266C28 157 28 157 30.699 156.578 33 157 33 157 34 158c.25 1.588.444 3.186.613 4.785l.338 3.026.361 3.251C37.056 190.457 37.056 190.457 47.5 208c3.019 2.415 3.954 4.721 5.523 8.18 1.231 2.294 2.894 3.312 4.977 4.82.906 3.342 1.089 6.357.914 9.8l-.133 2.714-.156 2.798-.133 2.764c-.214 4.159-.51 8.227-1.156 12.342-.325 3.464-.308 4.798 1.664 7.582 8.418-10.978 8.418-10.978 13.813-23.438 1.6-4.802 4.453-8.172 8.187-11.562h2v-2h2l-2-3c-.157-3.385.408-5.321 2.645-7.887a331.4 331.4 0 0 1 4.234-4.047c3.144-3.063 5.616-6.475 8.121-10.066.55-.768 1.1-1.537 1.668-2.328 3.972-5.35 3.972-5.35 5.332-11.672-1.45-2.565-3.324-4.717-5.25-6.938-2.875-3.393-5.439-6.433-7.422-10.44-1.102-2.937-1.102-2.937-4.328-3.622l-.773 1.703c-1.384 2.59-3.026 4.748-4.852 7.047l-1.914 2.422L79 175c-4.875-.875-4.875-.875-6-2-.607-6.922.772-12.81 2.665-19.414.986-3.555 1.685-6.092.335-9.586-1.273-3.69-.669-6.033.438-9.75l.87-2.984L78 129l-2-2c.358-5.015 2.164-9.371 4-14l-3-1c.354-9.913 3.746-21.227 10-29.063 3.21-4.69 1.74-9.62.816-14.93A614.62 614.62 0 0 0 87 64c-.26-1.281-.518-2.563-.785-3.883a8965.15 8965.15 0 0 0-1.547-7.554c-2.623-13.99-1.95-27.096 3.457-40.313 3.485-4.182 7.793-7.438 13.113-8.84 7.442-.542 12.962 3.573 18.563 8.02 4.85 4.468 8.568 9.98 12.38 15.328l1.366 1.914 1.214 1.722c1.297 1.681 2.708 3.137 4.239 4.606l1.688-.77c9.929-4.478 18.117-7.432 29.187-7.292l2.086.013c1.68.012 3.36.03 5.039.049l-.035-3.684-.028-4.753-.025-2.432c-.009-2.044.036-4.088.088-6.131 1-1 1-1 3.875-1.375L184 9c1.75 2.25 1.75 2.25 3 5l1.188 2.313L189 18l2.125-2c3.31-2.302 4.937-2.366 8.875-2l2 5 3-2a97.813 97.813 0 0 1 7 0c1.369 4.517.47 7.588-1 12 1.206.63 2.415 1.254 3.625 1.875l2.04 1.055c4.89 2.24 9.645 3.392 14.96 4.133 3.517.495 6.948.993 10.375 1.937 1.845-2.81 3.09-5.283 4.125-8.5 3.604-10.014 12.405-22.239 21.375-28C271.47-.201 273.728-.61 278 0zm-19.934 20.984c-1.3 2.078-1.3 2.078-1.066 5.016h-2a700.774 700.774 0 0 0-3.438 6.563l-.986 1.845c-2.18 4.248-3.141 7.834-3.576 12.592-2.997-.658-5.585-1.676-8.375-2.938-5.354-2.2-10.6-2.935-16.328-3.57-5.48-.818-9.61-2.628-14.297-5.492h-2l-1-10-10 1v-3h-3v2l-7 1v-2h-2l-.875 3.438L181 31c-2.222 1.11-3.717 1.236-6.184 1.43l-2.545.216-2.708.229c-9.15.853-17.652 1.893-25.813 6.375-2.893 1.524-4.042 1.765-7.5 1.938-3.835-1.402-4.294-2.766-6.152-6.234-1.802-3.207-4.019-6.064-6.286-8.954l-1.447-1.847C118.455 19.301 114.218 15.435 109 12l-3-2c-3.682.136-6.375.695-9.688 2.313-7.858 9.132-7.088 21.892-6.51 33.252C90.234 50.885 91.566 55.88 93 61c.422 1.953.819 3.911 1.188 5.875l.48 2.492c.787 6.243.362 10.42-2.48 16.07C89.228 91.507 86.572 97.409 85 104l3 1c-.522 2.87-1.168 5.485-2.125 8.25-.795 3.408-.851 5.04-.375 8.375.552 3.865.161 5.79-1.5 9.375-.82 3.304-1.568 6.622-2 10l1 1c.364 6.555-.68 12.59-2 19l1.875-2.375c3.65-4.51 3.65-4.51 6.438-5.188C92 154 92 154 94.563 157.063c1.535 2.37 2.892 4.769 4.25 7.25 7.95 14.176 20.082 22.182 35.062 27.758L136 193c.813 2.125.813 2.125 1 4h-6v-2l-2.703-.988-3.547-1.325-3.516-1.3c-2.842-1.219-4.827-2.504-7.234-4.387-2.058-.232-2.058-.232-3.282 1.242-4.807 6.7-4.317 13.215-3.906 21.196l.087 2.017c.67 14.999 3.792 27.507 13.101 39.545l1.207 1.844c2.764 4.214 6.026 7.299 9.879 10.531 2.443 2.074 4.649 4.36 6.914 6.625 1.033.885 2.075 1.76 3.125 2.625C144 275 144 275 145.469 276.492c2.574 2.535 5.556 4.474 8.531 6.508l2.438 1.688c4.788 2.452 9.254 4.01 14.492 2.44 1.325-.494 2.64-1.017 3.945-1.565.701-.28 1.403-.56 2.125-.85 4.887-2.035 9.094-4.503 13.305-7.729 3.475-2.558 7.134-4.745 10.82-6.984 8.57-5.202 8.57-5.202 15.875-12v-2l2.063-.5c3.705-1.892 5.678-4.38 8.3-7.559C229 246 229 246 231.25 244.062c2.302-2.713 3.02-5.455 4.027-8.835C236 233 236 233 237.625 230c1.557-3.397 1.826-6.19 2.125-9.875.306-2.603 1.112-4.773 2.25-7.125h2c-.503-2.617-1.274-4.537-2.5-6.938-1.367-2.791-1.899-5.055-2.5-8.062-2.667-1.334-4.349-.915-7.313-.625-1.063.1-2.126.199-3.222.3L225 198c-2.416.192-4.833.38-7.25.563l-3.328.253L212 199v-4l1.769-.228c2.703-.353 5.405-.719 8.106-1.084l2.781-.358c9.477-1.301 17.952-3.728 26.344-8.33l2.39-1.262c5.308-2.716 5.308-2.716 9.61-6.738.534-2.009.534-2.009.625-4.125C264 169 264 169 265 168c2.75-.375 2.75-.375 6 0 2.625 2.313 2.625 2.313 5 5a136.902 136.902 0 0 0 4 3c.514-9.266-.354-16.722-3.027-25.527A59.85 59.85 0 0 1 275 140l1-1c.235-2.183.414-4.372.563-6.563l.253-3.628L277 126l8 1c-.545-6.247-2.582-11.433-5-17.188-.731-1.763-1.46-3.527-2.188-5.292l-.98-2.341C276 100 276 100 275 96l8 2v2h2c-.672-3.806-1.727-7.352-3-11h-2l-1-8h-2l-.375-3.563c-.49-3.978-1.43-7.615-2.625-11.437h5l.332-1.688.48-2.312.458-2.25c.73-2.75.73-2.75 2.244-6.378 1.664-4.411 1.97-8.39 1.99-13.071l.03-2.419c.015-1.673.022-3.346.022-5.019.007-2.555.061-5.107.118-7.662.009-1.633.015-3.267.017-4.9l.066-2.298c-.038-2.928-.168-5.283-2.066-7.603-3.572-3.059-6.077-4.33-10.68-4.005-6.444 1.94-10.407 9.306-13.945 14.59z" fill="rgba(152, 153, 142, 1)" stroke="none"/>
  <path d="M162 124h1l1 18 8.563 1.5 2.654.475c8.437 1.44 14.404 1.595 21.783-2.975 1.707-1.28 3.394-2.595 5-4l1.617 1.426c7.76 6.483 14.977 9.116 25.11 8.812 2.95-.309 5.545-1.09 8.273-2.238v4h2c1.433 2.866 1.155 5.493 1.25 8.688.423 6.451 1.172 9.734 5.75 14.312 3.61 1.771 6.821 2.336 10.813 2.625l2.957.227L262 175c-1.49 4.59-1.49 4.59-3.707 6.371A471.496 471.496 0 0 1 251 185l-2.887 1.543C236.696 192.345 224.64 193.851 212 195v4c1.917-.145 3.833-.291 5.75-.438l3.566-.269c2.385-.19 4.768-.394 7.149-.617l3.222-.301c.974-.095 1.947-.19 2.95-.29C237 197 237 197 239 198c.694 1.99 1.356 3.993 2 6l1.625 3.188C244 210 244 210 244 213h-2c-1.502 3.105-2.105 5.728-2.313 9.125-.453 4.95-2.262 8.863-4.43 13.297-1.04 2.132-1.92 4.238-2.757 6.453-1.715 3.573-3.54 5.501-6.5 8.125l-1.809 1.64C219.292 256 219.292 256 217 256l-.785 1.813c-4.93 8.876-18.512 14.562-26.944 19.772-1.48.922-2.951 1.857-4.413 2.807-6.183 3.995-13.418 7.963-21.014 7.467-2.169-.716-3.89-1.668-5.844-2.859l-3.2-1.82c-5.553-3.245-10.331-6.506-14.8-11.18l-3-2.5c-14.53-12.109-26.904-29.036-29.495-48.153-.295-3.869-.457-7.719-.567-11.597l-.217-3.969c-.27-7.935.225-12.549 5.279-18.781 3.087 1.158 6.01 2.494 8.938 4 3.276 1.666 6.534 2.941 10.062 4v2h6c-.153-1.957-.153-1.957-1-4-2.002-1.186-2.002-1.186-4.5-1.938-14.286-5.23-24.078-13.428-32.5-26.062v-3l2.875-1.438c6.338-3.608 13.393-9.22 17.125-15.562.756-3.426.756-3.426 1.125-7.125.796-6.717.796-6.717 1.875-8.875 2.479 1.102 4.325 2.266 6.438 4 5.576 4.352 11.123 4.662 18.035 4.582 5.751-.949 8.995-4.114 12.527-8.582a696.331 696.331 0 0 0 3-5z" fill="rgba(251, 251, 251, 1)" stroke="none"/>
  <path d="M278 0c2.525 1.146 4.665 2.475 7 4v2l3 1c2.493 3.46 2.446 7.384 2.625 11.5l.104 2.246c.067 1.592.128 3.185.183 4.777.059 1.652.128 3.303.207 4.954.58 12.535-1 22.705-5.119 34.523a766.122 766.122 0 0 0-2 7l-1 3c1.112 3.132 1.112 3.132 2.75 6.563 4.17 9.363 6.844 17.102 6.25 27.437l-5 1 .875 1.809c3.715 8.68 3.77 16.912 3.125 26.191-1 1-1 1-3.563 1.063L285 139l.625 2.875L286 145l-2 2c.003 1.95.003 1.95.46 4.156l.432 2.574.483 2.77c1.142 7.19 1.939 14.214 1.938 21.5l.015 2.225c-.052 4.015-.556 7.16-2.328 10.775l-5-1-1-4h-2c-1.29-1.68-1.29-1.68-2.625-3.875l-1.352-2.18C272 178 272 178 272 176h-2c-1.042 1.602-1.042 1.602-2.063 3.625C262.894 187.962 253.65 191.346 245 195c1.303 5.069 3.043 9.438 5.438 14.125l.908 1.8c1.363 2.68 2.779 5.276 4.365 7.829 1.503 2.62 1.544 4.274 1.289 7.246l-4 2v2h2c3.308 5.066 4.33 7.826 4 14 .297 2.338.62 4.674 1 7l-4 2c-.818-1.413-1.63-2.83-2.438-4.25l-1.37-2.39c-2.278-4.51-2.289-8.327-2.192-13.36h-2c-2.54-3.418-3.364-5.758-3-10l4-1c-3.935-8.106-3.935-8.106-8.375-15.938-1.628-3.067-2.037-4.66-1.625-8.062-5.93-.228-11.31.504-17.145 1.555-3.364.524-6.461.6-9.855.445a88.406 88.406 0 0 1-1-5c1.546-1.546 3.195-1.38 5.34-1.648l2.724-.36c1.88-.24 3.76-.477 5.641-.71 11.186-1.49 20.474-4.874 30.17-10.532C258 180 258 180 260 180l1-3h2l-.125-3.875c-.07-2.18-.07-2.18.125-4.125 2-2 2-2 4.813-2.438 4.219.58 5.456 2.264 8.187 5.438a268.596 268.596 0 0 0 3 3c.536-8.823-.506-16.123-3.027-24.492A61.025 61.025 0 0 1 274 140l1-1c.209-1.808.368-3.622.5-5.438.39-5.342.39-5.342 1.5-7.562 5.75-.125 5.75-.125 8 1a162.782 162.782 0 0 0-8.828-24.004C275 100 275 100 275 96c3.716-.2 4.772-.152 8 2v2h2l-1.5-3.25c-1.387-3.004-1.5-4.21-1.5-7.75h-2l-1-8h-2a498.676 498.676 0 0 1-1.5-4.688l-.844-2.636c-.655-2.67-.774-4.94-.656-7.676h5l-.25-2.875c-.024-3.304.737-5.284 2.23-8.203 2.972-7.192 2.655-14.604 2.596-22.265-.014-2.548.02-5.093.059-7.641 0-1.628-.001-3.256-.006-4.883l.04-2.295c-.067-3.792-.339-5.486-2.974-8.292-2.857-1.64-5.175-2.484-8.508-2.32-6.394 2.261-10.806 9.595-13.75 15.399L257 26h-2l-.75 1.938c-.708 1.733-1.438 3.46-2.238 5.152-2.219 4.72-3.57 8.707-4.012 13.91-1.688.688-1.688.688-4 1a87.756 87.756 0 0 1-5-3c-4.318-1.652-8.42-2.438-13-3-7.553-.928-16.462-2.577-21.5-8.875-.685-2.91-.156-5.24.5-8.125l-1.625 1.063c-3.108 1.226-5.17.666-8.375-.063v-3h-3v2l-7 1v-2h-2l-.313 3.375L182 31c-2.997 1.998-3.877 2.282-7.281 2.527l-2.536.207-2.683.203c-9.144.811-17.594 1.834-25.75 6.313-2.788 1.451-4.09 1.78-7.375 2.063-4.316-1.679-5.325-3.626-7.652-7.504C123.523 26.33 117.536 18.303 109 13l-3-2c-4.088.076-6.392.571-9.75 2.938-5.072 6.903-5.757 15.028-5.625 23.374l.022 2.775C90.795 47.378 92.035 53.983 94 61c.422 1.953.819 3.911 1.188 5.875l.48 2.492c.787 6.243.362 10.42-2.48 16.07-1.795 3.674-3.548 7.279-4.938 11.126-.95 2.61-1.93 5.002-3.25 7.437l4 1c-.522 2.87-1.168 5.485-2.125 8.25-.795 3.408-.851 5.04-.375 8.375.552 3.865.161 5.79-1.5 9.375-.82 3.304-1.568 6.622-2 10l1 1c.321 5.993-.498 11.207-2 17l2.188-3c1.714-2.352 2.372-2.927 5.296-3.41C92 153 92 153 93.66 154.504l1.403 2.059 1.542 2.23c1.503 2.377 2.851 4.825 4.211 7.285 7.729 12.55 17.318 17.689 30.184 23.922 2.001.997 4.002 1.996 6 3v4h-6v-2l-3.875-.625c-5.756-1.244-10.267-4.15-15.125-7.375l-.7 2.063c-1.623 3.667-3.765 6.7-6.112 9.937l-1.292 1.828c-2.078 2.893-4.12 5.396-6.658 7.922-2.442 2.122-2.442 2.122-3.238 5.25h2c.2 3.716.152 4.772-2 8h-2l-.75 1.75c-1.433 2.58-3.034 4.311-5.25 6.25h-2l-.313 3.625c-.49 3.944-1.599 6.95-3.687 10.375l-2 1-1 3h-3c-.26.728-.52 1.457-.79 2.207-1.24 2.863-2.706 4.998-4.585 7.48-3.487 4.898-5.772 9.609-7.625 15.313l-.906 2.629c-3.645 12.134-4.467 25.43 1.468 36.871 1.41 2.545 2.911 5.023 4.438 7.5l1.809 3.191c6.452 10.953 14.916 17.004 26.879 21.059 6.287 1.38 12.897 1.433 19.312 1.75l-1.059-2.422c-2.756-6.654-4.38-12.339-4.695-19.523-.36-4.48-1.489-8.708-2.625-13.047-.637-3.087-.729-5.866-.621-9.008l4-1c1.669 3.815 2.599 7.476 3.375 11.563l.38 1.927c.76 3.88 1.468 7.765 2.151 11.658l.969 5.29.416 2.508c1.075 5.774 2.967 10.465 6.709 15.054 2.74 2.273 2.74 2.273 5.44 1.809 7.229-2.284 11.513-8.646 14.871-15.082l1.314-2.664 1.41-2.769C149.97 322.41 153.2 314.35 156 306h5c-.85 9.348-4.066 18.08-8.95 26.063-1.289 2.185-1.289 2.185-2.05 5.937h22l-1.5-6c-2.414-10.829-1.767-21.978-1.5-33a99.984 99.984 0 0 1 5 0c1.643 1.643 1.148 3.564 1.176 5.828.223 10.783.665 21.309 2.699 31.922l.49 2.61c.897 4.35 1.803 8.095 4.635 11.64 3.48.949 5.853 1.372 9.313.25 1.976-1.316 1.976-1.316 3.687-4.25 1.766-.996 3.534-1.99 5.32-2.95 2.123-1.327 3.287-2.997 4.68-5.05h2l.75-2.625C210 333 210 333 211.89 330.277c2.32-3.604 3.704-7.068 5.11-11.09 1.597-4.426 3.195-8.794 5.188-13.062 2.107-4.56 3.48-9.29 4.812-14.125l5-1c1.384 4.153-.155 6.95-1.625 10.875l-.848 2.314a939.259 939.259 0 0 1-1.725 4.65 335.566 335.566 0 0 0-2.001 5.575c-2.345 6.5-5.221 12.602-8.426 18.711-.385.735-.77 1.47-1.165 2.229l-1.124 2.091-.999 1.86C213 341 213 341 211.432 342.535c-1.692 1.518-1.692 1.518-2.432 4.465 3.951-.261 7.902-.528 11.853-.8 1.344-.091 2.689-.181 4.033-.27 1.932-.128 3.863-.261 5.794-.395l3.523-.238c2.748-.127 2.748-.127 4.797-1.297l3.813-.25c10.178-1.082 19.964-5.462 27.187-12.75 7.71-11.805 4.151-29.76 1.51-42.845-1.186-5.014-3.298-9.53-5.51-14.155a747.02 747.02 0 0 1-2.688-6.5c-1.077-2.61-2.132-5.162-3.457-7.656C259 258 259 258 259 255h2v-2h2v2l1.887.746c2.603 1.545 2.942 2.49 3.925 5.316 1.225 3.357 2.482 6.675 3.891 9.958l.927 2.173a571.147 571.147 0 0 0 1.82 4.213c4.384 10.4 6.06 20.401 5.988 31.656l.06 3.315c-.005 8.878-1.435 17.741-7.498 24.623h-2v2c-13.641 12.306-34.966 13.886-52.48 14.14l-3.338.06c-2.258.033-4.516.051-6.774.054-6.332.141-10.604.651-15.669 4.611-2.73 1.782-5.302 1.882-8.497 1.678-4.22-1.022-7.493-3.21-10.242-6.543-1.17-2.632-2.079-5.264-3-8-.645.01-1.291.02-1.956.032-2.931.041-5.863.067-8.794.093l-3.078.05-2.969.02-2.73.032c-2.612-.24-4.23-.904-6.473-2.227l-.875 2.313C144 348 144 348 142 351h-2v2c-5.153 3.328-8.817 4.902-15 5-3.5-1.438-3.5-1.438-6-3v-2l-3.77-.148c-17.144-.735-33.771-2.003-46.19-15.372C68 336 68 336 68 334h-2c-4.641-5.458-7.858-11.195-10-18l-2.02.027c-9.511-.306-15.722-4.253-22.73-10.464L29 303l-1.602-1.734C18.697 291.682 11.876 280.986 7 269l-1.258-2.926-1.367-3.199c-.425-.993-.85-1.985-1.29-3.008-2-5.285-2.244-10.278-2.253-15.887l-.01-2.352c-.005-1.645-.007-3.29-.007-4.934-.002-2.46-.02-4.92-.04-7.38-.057-15.801.357-32.019 8.163-46.126l1.052-1.983c3.341-6.16 3.341-6.16 6.01-8.205h2l.762-1.61c1.543-2.98 3.258-5.802 5.05-8.64l2.02-3.266C28 157 28 157 30.699 156.578 33 157 33 157 34 158c.25 1.588.444 3.186.613 4.785l.338 3.026.362 3.251C37.055 190.457 37.055 190.457 47.5 208c3.019 2.415 3.954 4.721 5.523 8.18 1.231 2.294 2.894 3.312 4.977 4.82.906 3.342 1.089 6.357.914 9.8l-.133 2.714-.156 2.798-.133 2.764c-.214 4.159-.51 8.227-1.156 12.342-.325 3.464-.308 4.798 1.664 7.582 8.418-10.978 8.418-10.978 13.813-23.438 1.6-4.802 4.453-8.172 8.187-11.562h2v-2h2l-2-3c-.157-3.385.408-5.321 2.645-7.887a331.4 331.4 0 0 1 4.234-4.047c3.144-3.063 5.616-6.475 8.121-10.066.55-.768 1.1-1.537 1.668-2.328 3.972-5.35 3.972-5.35 5.332-11.672-1.45-2.565-3.324-4.717-5.25-6.938-2.875-3.393-5.439-6.433-7.422-10.44-1.102-2.937-1.102-2.937-4.328-3.622l-.773 1.703c-1.384 2.59-3.026 4.748-4.852 7.047l-1.914 2.422L79 175c-4.875-.875-4.875-.875-6-2-.607-6.922.772-12.81 2.665-19.414.986-3.555 1.685-6.092.335-9.586-1.273-3.69-.669-6.033.438-9.75l.87-2.984L78 129l-2-2c.358-5.015 2.164-9.371 4-14l-3-1c.354-9.913 3.746-21.227 10-29.063 3.21-4.69 1.74-9.62.816-14.93A614.62 614.62 0 0 0 87 64c-.26-1.281-.518-2.563-.785-3.883a8965.15 8965.15 0 0 0-1.547-7.554c-2.623-13.99-1.95-27.096 3.457-40.313 3.485-4.182 7.793-7.438 13.113-8.84 7.442-.542 12.962 3.573 18.563 8.02 4.85 4.468 8.568 9.98 12.38 15.328l1.366 1.914 1.214 1.722c1.297 1.681 2.708 3.137 4.239 4.606l1.688-.77c9.929-4.478 18.117-7.432 29.187-7.292l2.086.013c1.68.012 3.36.03 5.039.049l-.035-3.684c-.01-1.584-.019-3.169-.027-4.753l-.026-2.432c-.009-2.044.036-4.088.088-6.131 1-1 1-1 3.875-1.375L184 9c1.75 2.25 1.75 2.25 3 5l1.188 2.313L189 18l2.125-2c3.31-2.302 4.937-2.366 8.875-2l2 5 3-2a97.813 97.813 0 0 1 7 0c1.369 4.517.47 7.588-1 12 1.206.63 2.415 1.254 3.625 1.875l2.04 1.055c4.89 2.24 9.645 3.392 14.96 4.133 3.517.495 6.948.993 10.375 1.937 1.845-2.81 3.09-5.283 4.125-8.5 3.604-10.014 12.405-22.239 21.375-28C271.47-.201 273.728-.61 278 0z" fill="rgba(18, 18, 18, 1)" stroke="none"/>
  <path d="M278 0c2.525 1.146 4.665 2.475 7 4v2l3 1c2.493 3.46 2.446 7.384 2.625 11.5l.104 2.246c.067 1.592.128 3.185.183 4.777.059 1.652.128 3.303.207 4.954.58 12.535-1 22.705-5.119 34.523a766.122 766.122 0 0 0-2 7l-1 3c1.112 3.132 1.112 3.132 2.75 6.563 4.17 9.363 6.844 17.102 6.25 27.437l-5 1 .875 1.809c3.715 8.68 3.77 16.912 3.125 26.191-1 1-1 1-3.563 1.063L285 139l.625 2.875L286 145l-2 2c.003 1.95.003 1.95.46 4.156l.432 2.574.483 2.77c1.142 7.19 1.939 14.214 1.938 21.5l.015 2.225c-.052 4.015-.556 7.16-2.328 10.775l-5-1-1-4h-2c-1.29-1.68-1.29-1.68-2.625-3.875l-1.352-2.18C272 178 272 178 272 176h-2c-1.042 1.602-1.042 1.602-2.063 3.625C262.894 187.962 253.65 191.346 245 195c1.303 5.069 3.043 9.438 5.438 14.125l.908 1.8c1.363 2.68 2.779 5.276 4.365 7.829 1.503 2.62 1.544 4.274 1.289 7.246l-4 2v2h2c3.308 5.066 4.33 7.826 4 14 .297 2.338.62 4.674 1 7l-4 2c-.818-1.413-1.63-2.83-2.438-4.25l-1.37-2.39c-2.278-4.51-2.289-8.327-2.192-13.36h-2c-2.54-3.418-3.364-5.758-3-10l4-1c-3.935-8.106-3.935-8.106-8.375-15.938-1.628-3.067-2.037-4.66-1.625-8.062-5.93-.228-11.31.504-17.145 1.555-3.364.524-6.461.6-9.855.445a88.406 88.406 0 0 1-1-5c1.546-1.546 3.195-1.38 5.34-1.648l2.724-.36c1.88-.24 3.76-.477 5.641-.71 11.186-1.49 20.474-4.874 30.17-10.532C258 180 258 180 260 180l1-3h2l-.125-3.875c-.07-2.18-.07-2.18.125-4.125 2-2 2-2 4.813-2.438 4.219.58 5.456 2.264 8.187 5.438a268.596 268.596 0 0 0 3 3c.536-8.823-.506-16.123-3.027-24.492A61.025 61.025 0 0 1 274 140l1-1c.209-1.808.368-3.622.5-5.438.39-5.342.39-5.342 1.5-7.562 5.75-.125 5.75-.125 8 1a162.782 162.782 0 0 0-8.828-24.004C275 100 275 100 275 96c3.716-.2 4.772-.152 8 2v2h2l-1.5-3.25c-1.387-3.004-1.5-4.21-1.5-7.75h-2l-1-8h-2a498.676 498.676 0 0 1-1.5-4.688l-.844-2.636c-.655-2.67-.774-4.94-.656-7.676h5l-.25-2.875c-.024-3.304.737-5.284 2.23-8.203 2.972-7.192 2.655-14.604 2.596-22.265-.014-2.548.02-5.093.059-7.641 0-1.628-.001-3.256-.006-4.883l.04-2.295c-.067-3.792-.339-5.486-2.974-8.292-2.857-1.64-5.175-2.484-8.508-2.32-6.394 2.261-10.806 9.595-13.75 15.399L257 26h-2l-.75 1.938c-.708 1.733-1.438 3.46-2.238 5.152-2.219 4.72-3.57 8.707-4.012 13.91-1.688.688-1.688.688-4 1a87.756 87.756 0 0 1-5-3c-4.318-1.652-8.42-2.438-13-3-7.553-.928-16.462-2.577-21.5-8.875-.685-2.91-.156-5.24.5-8.125l-1.625 1.063c-3.108 1.226-5.17.666-8.375-.063v-3h-3v2l-7 1v-2h-2l-.313 3.375L182 31c-2.997 1.998-3.877 2.282-7.281 2.527l-2.536.207-2.683.203c-9.144.811-17.594 1.834-25.75 6.313-2.788 1.451-4.09 1.78-7.375 2.063-4.316-1.679-5.325-3.626-7.652-7.504C123.523 26.33 117.536 18.303 109 13l-3-2c-4.088.076-6.392.571-9.75 2.938-5.072 6.903-5.757 15.028-5.625 23.374l.022 2.775C90.795 47.378 92.035 53.983 94 61c.422 1.953.819 3.911 1.188 5.875l.48 2.492c.787 6.243.362 10.42-2.48 16.07-1.795 3.674-3.548 7.279-4.938 11.126-.95 2.61-1.93 5.002-3.25 7.437l4 1c-.522 2.87-1.168 5.485-2.125 8.25-.795 3.408-.851 5.04-.375 8.375.552 3.865.161 5.79-1.5 9.375-.82 3.304-1.568 6.622-2 10l1 1c.321 5.993-.498 11.207-2 17l2.188-3c1.714-2.352 2.372-2.927 5.296-3.41C92 153 92 153 93.66 154.504l1.403 2.059 1.542 2.23c1.503 2.377 2.851 4.825 4.211 7.285 7.729 12.55 17.318 17.689 30.184 23.922 2.001.997 4.002 1.996 6 3v4h-6v-2l-3.875-.625c-5.756-1.244-10.267-4.15-15.125-7.375l-.7 2.063c-1.623 3.667-3.765 6.7-6.112 9.937l-1.292 1.828c-2.078 2.893-4.12 5.396-6.658 7.922-2.442 2.122-2.442 2.122-3.238 5.25h2c.2 3.716.152 4.772-2 8h-2l-.75 1.75c-1.433 2.58-3.034 4.311-5.25 6.25h-2l-.313 3.625c-.49 3.944-1.599 6.95-3.687 10.375l-2 1-1 3h-3l-.625 2c-1.887 4.116-4.58 7.459-7.375 11l-3-2-3 1-1 3h-2c.38-2.655.817-3.821 2.762-5.723 2.69-2.737 4.74-5.75 6.8-8.964l1.219-1.886c2.534-4.033 4.158-7.78 5.41-12.384 1.58-3.991 4.62-7.222 7.809-10.043h2v-2h2l-2-3c-.157-3.385.408-5.321 2.645-7.887a331.4 331.4 0 0 1 4.234-4.047c3.144-3.063 5.616-6.475 8.121-10.066.55-.768 1.1-1.537 1.668-2.328 3.972-5.35 3.972-5.35 5.332-11.672-1.45-2.565-3.324-4.717-5.25-6.938-2.875-3.393-5.439-6.433-7.422-10.44-1.102-2.937-1.102-2.937-4.328-3.622l-.773 1.703c-1.384 2.59-3.026 4.748-4.852 7.047l-1.914 2.422L79 175c-4.875-.875-4.875-.875-6-2-.607-6.922.772-12.81 2.665-19.414.986-3.555 1.685-6.092.335-9.586-1.273-3.69-.669-6.033.438-9.75l.87-2.984L78 129l-2-2c.358-5.015 2.164-9.371 4-14l-3-1c.354-9.913 3.746-21.227 10-29.063 3.21-4.69 1.74-9.62.816-14.93A614.62 614.62 0 0 0 87 64l-.785-3.883a8965.15 8965.15 0 0 0-1.547-7.554c-2.623-13.99-1.95-27.096 3.457-40.313 3.485-4.182 7.793-7.438 13.113-8.84 7.442-.542 12.962 3.573 18.563 8.02 4.85 4.468 8.568 9.98 12.38 15.328l1.366 1.914 1.214 1.722c1.297 1.681 2.708 3.137 4.239 4.606l1.688-.77c9.929-4.478 18.117-7.432 29.187-7.292l2.086.013c1.68.012 3.36.03 5.039.049l-.035-3.684-.028-4.753-.025-2.432c-.009-2.044.036-4.088.088-6.131 1-1 1-1 3.875-1.375L184 9c1.75 2.25 1.75 2.25 3 5l1.188 2.313L189 18l2.125-2c3.31-2.302 4.937-2.366 8.875-2l2 5 3-2a97.813 97.813 0 0 1 7 0c1.369 4.517.47 7.588-1 12 1.206.63 2.415 1.254 3.625 1.875l2.04 1.055c4.89 2.24 9.645 3.392 14.96 4.133 3.517.495 6.948.993 10.375 1.937 1.845-2.81 3.09-5.283 4.125-8.5 3.604-10.014 12.405-22.239 21.375-28C271.47-.201 273.728-.61 278 0z" fill="rgba(31, 30, 30, 1)" stroke="none"/>
  <path d="M27 170h2l.332 2.605c2.568 22.303 2.568 22.303 14.168 40.77 1.921 2.082 3.064 4.388 4.34 6.906 1.09 1.882 1.09 1.882 3.27 2.953C53 225 53 225 53.425 228.547a146.387 146.387 0 0 1-.114 4.203l-.029 2.094C53.021 246.979 53.021 246.979 51 249c-.662 7.132.06 13.45 3 20l1 1c.141 2.67.042 5.324 0 8h-2c-.03 4.396-.047 8.792-.063 13.188l-.025 3.775-.01 3.642-.016 3.349c.046 3.397.046 3.397 1.114 8.046l-11-3v-2l-1.703-.223c-3.136-1.061-4.742-2.86-7.047-5.214l-2.422-2.434C30 295 30 295 30 293l-3 2c-.25 2.584-.25 2.584 0 5-9.163-8.33-15.378-19.637-20-31l-1.258-2.926-1.367-3.199c-.425-.993-.85-1.985-1.29-3.008-2.075-5.48-2.22-10.636-2.183-16.449l.005-2.467c.005-2.588.018-5.176.03-7.763A5792.822 5792.822 0 0 1 1 215h1l2 39h3a2874.032 2874.032 0 0 1-.11-15.784c-.01-1.782-.023-3.564-.04-5.346-.205-21.355.192-40.282 15.15-56.87a433.631 433.631 0 0 0 2.938-3.688L27 170z" fill="rgba(98, 98, 95, 1)" stroke="none"/>
  <path d="M224 292c1.742 1.516 1.742 1.516 3 3-2.715 8.686-5.718 16.977-9.66 25.203-1.038 2.166-2 4.323-2.903 6.547-1.876 4.242-4.13 8.23-6.437 12.25h-2l-.688 1.75c-2.222 3.81-5.17 5.87-9.312 7.25l-1.75 2c-3.047 2.708-5.22 2.928-9.25 3-2.633-1.024-3.573-2.123-4.8-4.645-4.821-12.928-5.597-26.456-5.734-40.101l-.06-3.152-.021-2.834L174 300l-3-2c2.64-2.64 4.56-3.224 8.188-3.25C183 295 183 295 184 296c10.068 1.053 19.946-1.49 29.719-3.582 3.56-.652 6.654-.652 10.281-.418z" fill="rgba(98, 98, 96, 1)" stroke="none"/>
  <path d="M27 170h2l.332 2.605c2.568 22.303 2.568 22.303 14.168 40.77 1.53 1.657 2.425 3.213 3.5 5.188 1.75 3.589 1.75 3.589 5 5.437.293 3.04.293 3.04.188 6.625l-.083 3.602L52 237l-3 .332c-7.039.829-13.444 1.84-20 4.668h-2v2l-1.941.883c-5.209 2.468-9.506 4.993-13.684 8.98C10 255 10 255 8 255c-.077-6.883-.129-13.765-.165-20.648a1468.48 1468.48 0 0 0-.061-7.009C7.548 206.599 8.389 192.429 22 176l1.563-1.977c1.098-1.38 2.26-2.708 3.437-4.023z" fill="rgba(98, 99, 96, 1)" stroke="none"/>
  <path d="M230.184 98.922c6.17 4.09 10.068 10.309 12.816 17.078.611 3.79.423 7.2 0 11l-.04 2.406c-.237 6.32-2.744 10.016-6.96 14.594l-2.25 2.5c-6.015 3.28-12.515 1.807-18.875.063-6.784-2.425-11.648-7.109-14.875-13.563-.838-8.487-.913-15.593 4.148-22.777 6.92-8.307 14.423-16.204 26.036-11.301z" fill="rgba(14, 14, 14, 1)" stroke="none"/>
  <path d="M147 89c7.888 3.564 13.514 9.484 17.05 17.332 1.925 5.408 2.002 10.947-.077 16.324-3.388 6.08-7.762 12.008-13.973 15.344-7.006 1.3-14.185 1.037-20.387-2.734-4.63-3.633-7.047-7.57-8.613-13.266-.266-3.219-.266-3.219-.25-6.5l-.016-3.281c.277-3.355 1.075-6.082 2.266-9.219h2l.688-2.188C129.4 92.855 138.11 87.032 147 89z" fill="rgba(14, 14, 13, 1)" stroke="none"/>
  <path d="M140 301.875l3.543.238c5.746.43 11.002 1 16.457 2.887l-4 1-.34 1.738C152.193 322.671 144.21 342.205 131 351c-2.625 1.188-2.625 1.188-5 1-7.782-6.264-9.802-13-11.563-22.438l-.633-3.216c-.417-2.125-.83-4.25-1.236-6.377-.64-3.34-1.308-6.675-1.984-10.008-.536-2.652-1.06-5.306-1.584-7.961 7.875-3.937 22.565-.717 31-.125z" fill="rgba(99, 99, 96, 1)" stroke="none"/>
  <path d="M192 23h3v3c3.522.08 6.62.04 10-1l-.063 2.75c.025 3.744.025 3.744 1.063 7.25 1.984 1.284 1.984 1.284 4 2h-2l-.371 2.57c-.651 3.55-1.603 6.865-2.691 10.305l-1.098 3.492L203 56h-2l-.25 3c-.526 3.816-1.958 6.759-3.813 10.105-1.017 1.868-1.017 1.868-1.402 3.965-.945 3.407-3.61 5.222-6.535 6.93-2.996 1.071-4.684 1.105-8 1-3.56-2.65-4.861-4.118-5.559-8.547.012-1.401.054-2.803.121-4.203l.062-2.307c.09-2.65.23-5.295.376-7.943l.154-3.22c.17-3.387.376-6.77.596-10.155l.186-3.296.236-3.102.19-2.764c.806-3.113 2.311-4.31 4.638-6.463.797-2.642.797-2.642 1-5h2v2l7-1v-2z" fill="rgba(98, 99, 96, 1)" stroke="none"/>
  <path d="M1 215h1l2 39h3v-39h1v40l8-6c1.42-.984 2.853-1.95 4.313-2.875l1.925-1.242C24 244 24 244 27 244v-2c8.754-3.578 15.424-5.647 25-5v-12h1c.027 2.52.047 5.042.063 7.563l.025 2.134c.02 4.523-.266 8.837-1.088 13.303l-1 1a123.141 123.141 0 0 0-.563 5.563l-.253 3.066L50 260h-1v-6c-10.308 2.914-17.906 6.165-26.3 12.828C21 268 21 268 19 268l-1 3h-2l1.313 2.555 1.687 3.32 1.688 3.305C22 283 22 283 22 285h2c1.688 1.75 1.688 1.75 3 4-.265 3.004-.833 3.833-3 6-4.567-3.453-7.472-6.796-10.188-11.875l-.998-1.777C10.598 277.338 8.756 273.234 7 269l-1.352-3.133-1.273-2.992-1.29-3.008c-2.075-5.48-2.22-10.636-2.183-16.449l.005-2.467c.005-2.588.018-5.176.03-7.763A5792.822 5792.822 0 0 1 1 215z" fill="rgba(99, 99, 95, 1)" stroke="none"/>
  <path d="M211 37l3 2c6.095 1.9 12.584 2.576 18.887 3.438 3.178.574 6.078 1.47 9.113 2.562-1.375 2.5-1.375 2.5-3 5h-2l-.297 2.055C235.345 60.509 233.321 68.168 228 75a87.796 87.796 0 0 0-2 4h-2v2c-1.84 2.08-3.396 2.896-6.129 3.367-3.981.223-6.157.155-9.434-2.242-2.573-5.594-2.013-11.257-.5-17.125 1.396-5.465 1.495-11.007 1.721-16.617.164-3.896.42-7.574 1.342-11.383z" fill="rgba(99, 99, 96, 1)" stroke="none"/>
  <path d="M101.813 22.188C104.739 23.274 106.71 24.9 109 27v2h2c2.125 1.875 2.125 1.875 4 4v2h2v2l3 1 3 3 2.688 1.563L128 44v2l3 1c.262 2.305.262 2.305 0 5-1.793 1.695-1.793 1.695-4.188 3.125l-2.484 1.516L122 58l-2.938 1.875C117 61 117 61 115 61v2a262.496 262.496 0 0 1-5 4l-1 2h-2l-1 3c-2.875.188-2.875.188-6 0-2.476-3.715-2.33-6.652-2.379-10.957l-.051-2.365c-.054-2.497-.094-4.994-.132-7.49-.045-2.487-.092-4.973-.143-7.458a714.045 714.045 0 0 1-.08-4.638C97.135 34.969 96.791 31.048 96 27h2v-4c2-1 2-1 3.813-.813z" fill="rgba(221, 157, 163, 1)" stroke="none"/>
  <path d="M89 18l3 1-.484 3.363C89.893 35.447 90.446 48.312 94 61c.422 1.953.819 3.911 1.188 5.875l.48 2.492c.787 6.243.362 10.42-2.48 16.07-1.795 3.674-3.548 7.279-4.938 11.126-.95 2.61-1.93 5.002-3.25 7.437l4 1c-.522 2.87-1.168 5.485-2.125 8.25-.795 3.408-.851 5.04-.375 8.375.552 3.865.161 5.79-1.5 9.375-.82 3.304-1.568 6.622-2 10l1 1c.235 7.294.235 7.294-1 11l-5 1 1-9-3-1c-1.589-3.481-.617-6.206.438-9.75l.87-2.984L78 129l-2-2c.358-5.015 2.164-9.371 4-14l-3-1c.354-9.913 3.746-21.227 10-29.063 3.193-4.62 1.73-9.525.809-14.765-.441-2.289-.888-4.577-1.334-6.864-1.38-7.558-1.841-14.882-1.85-22.558l-.074-3.39C84.526 28.414 85.339 23.932 89 18z" fill="rgba(15, 12, 15, 1)" stroke="none"/>
  <path d="M173 33c1.783 3.565.877 7.262 0 11-1.792 4.441-3.84 8.727-6 13h-2l-3 10h-2l-.875 2.313C158 72 158 72 156 75c-4.13.382-7.58.533-11-2-2.25-3.448-2.24-6.384-2.188-10.438l.02-3.37c.15-2.854.583-5.405 1.168-8.192.11-1.56.174-3.124.188-4.688l.042-2.324c-.048-2.22-.048-2.22-2.23-3.988 4.708-2.592 9.186-4.001 14.375-5.188l2.172-.537c4.926-1.151 9.397-1.44 14.453-1.275z" fill="rgba(99, 99, 96, 1)" stroke="none"/>
  <path d="M261 253h2v2l1.887.746c2.603 1.545 2.942 2.49 3.925 5.316 1.225 3.357 2.482 6.675 3.891 9.958l.927 2.173a571.147 571.147 0 0 0 1.82 4.213c4.384 10.4 6.06 20.401 5.988 31.657l.06 3.314c-.005 8.878-1.435 17.741-7.498 24.623h-2v2c-11.774 10.622-29.682 13.61-45 13v-4h-20l1-3 1 2c3.951-.261 7.902-.528 11.853-.8 1.344-.091 2.689-.181 4.033-.27 1.932-.128 3.863-.261 5.794-.395l3.523-.238c2.748-.127 2.748-.127 4.797-1.297l3.813-.25c10.178-1.082 19.964-5.462 27.187-12.75 7.71-11.805 4.151-29.76 1.51-42.845-1.186-5.014-3.298-9.53-5.51-14.155a747.02 747.02 0 0 1-2.687-6.5c-1.078-2.61-2.133-5.162-3.458-7.656C259 258 259 258 259 255h2v-2z" fill="rgba(36, 35, 35, 1)" stroke="none"/>
  <path d="M224 292l3 3-5 15-3.688.375c-6.94.77-13.949 1.654-20.769 3.172-3.184.567-6.247.66-9.48.703l-3.59.078c-3.914-.37-6.256-1.062-9.473-3.328-.7-2.629-.7-2.629-.688-5.563.046-2.873.046-2.873-.312-5.437l-3-2c2.64-2.64 4.56-3.224 8.188-3.25C183 295 183 295 184 296c10.068 1.053 19.946-1.49 29.719-3.582 3.56-.652 6.654-.652 10.281-.418z" fill="rgba(99, 100, 96, 1)" stroke="none"/>
  <path d="M270 283c2.579 3.868 2.932 7.277 3.625 11.813l.4 2.553c1.063 7.261 1.298 14.295.975 21.634h-1l-1-10a114.582 114.582 0 0 0-9.625 6.313C246.942 326.933 246.942 326.933 239 326c-3.635-2.608-4.834-4.07-5.625-8.5.796-4.456 2.247-5.547 5.625-8.5a122.486 122.486 0 0 1 6.813-3.875c6.688-3.663 12.272-7.781 17.312-13.563 2.618-2.181 4.574-1.862 7.875-1.562l-1-7z" fill="rgba(101, 101, 97, 1)" stroke="none"/>
  <path d="M248 233h2l.438 3.25c.672 4.484 1.543 7.972 3.625 12l1.097 2.14.84 1.61 4-1-1-6c1.743 2.297 3.4 4.599 5 7l-1 3v-2h-2v2l-4 1v-2h-2l-.742 1.668c-4.6 8.527-12.32 16.917-20.758 21.77-3.779.85-6.602.995-10.5.562-3-2.55-3.855-4.129-4.5-8 .628-3.77 1.811-5.311 4.5-8 4.345-3 4.345-3 7-3l.75-1.734c1.443-2.616 3.132-4.414 5.25-6.516l2.125-2.14C240 247 240 247 242 247l.375-2.25c.596-2.623 1.117-4.528 2.625-6.75 2.125-.75 2.125-.75 4-1l-1-4z" fill="rgba(99, 100, 96, 1)" stroke="none"/>
  <path d="M140 301.875l3.543.238c5.746.43 11.002 1 16.457 2.887l-4 1-.586 2.23-.789 2.957-.773 2.918c-.8 2.717-1.755 5.286-2.852 7.895l-1-2-1.738.035c-6.372.068-12.713-.15-19.075-.473l-2.46-.118c-4.31-.232-8.479-.63-12.727-1.444l-1 3-4-19c7.875-3.937 22.565-.717 31-.125z" fill="rgba(99, 99, 95, 1)" stroke="none"/>
  <path d="M230.184 98.922c6.17 4.09 10.068 10.309 12.816 17.078.611 3.79.423 7.2 0 11l-.04 2.406c-.237 6.32-2.744 10.016-6.96 14.594l-2.25 2.5c-6.015 3.28-12.515 1.807-18.875.063-6.784-2.425-11.648-7.109-14.875-13.563-.838-8.487-.913-15.593 4.148-22.777 6.92-8.307 14.423-16.204 26.036-11.301zM215 104l-.25 2.75c-.75 3.25-.75 3.25-2.688 5.125-2.985 3.076-3.229 5.958-4.062 10.125l-4 1c-.196 4.219.198 7.17 2 11h2l.563 1.75c2.185 3.42 4.658 5.023 8.437 6.25 5.446.803 11.286 1.593 16.203-1.293 3.781-4.01 4.729-8.285 4.797-13.707l.184-2.52c.281-5.688-.213-9.068-4.184-13.48-2.1-1.389-2.1-1.389-4-2v-2c-5.36-2.257-9.198-3.363-15-3z" fill="rgba(12, 12, 11, 1)" stroke="none"/>
  <path d="M262 263c1.611 3.177 3.134 6.39 4.625 9.625l1.352 2.914C269 278 269 278 269 280c-1.875 2.125-1.875 2.125-4 4h-2l-.695 1.715c-1.65 2.888-3.682 4.657-6.18 6.848l-2.617 2.316L251 297l-2.008 1.762c-2.498 1.553-4.072 1.577-6.992 1.488-.846-.015-1.691-.03-2.563-.047-2.256-.188-4.266-.58-6.437-1.203l-3 4c1-7.429 1-7.429 2-11h2l.438-1.813c1.048-4.076 1.833-5.654 5.25-8.062l2.195-1.594L244 279c4.38-3.397 7.789-6.987 11.191-11.328 2.212-2.045 3.86-2.33 6.809-2.672v-2z" fill="rgba(100, 100, 96, 1)" stroke="none"/>
  <path d="M272 20c2.137.251 3.46.46 5 2 .198 3.436.342 6.176-.99 9.385-1.118 2.896-1.293 5.118-1.354 8.213l-.09 3.177-.132 6.586-.09 3.174-.057 2.887c-.294 2.639-.948 4.308-2.287 6.578-5.323.487-7.96-.805-12.313-3.813l-3.175-2.144C254 54 254 54 253 51l-3-1c.468-4.992 2.917-9.13 6-13h2l1-3h2l.063-2.125c1.208-3.707 3.144-5.08 6.148-7.445 1.83-1.394 1.83-1.394 3.383-3.125L272 20z" fill="rgba(219, 157, 163, 1)" stroke="none"/>
  <path d="M60 273l1 4h2c1.34 1.827 2.597 3.714 3.813 5.625C72.573 291.417 76.844 296.615 87 300c1.727 7.85 1.727 7.85-.938 12.063-3.825 2.42-6.715 2.798-11.062 1.937-5.952-2.033-13.11-6.22-16-12l-2 2c-.304-10.758-.469-20.656 3-31z" fill="rgba(99, 99, 96, 1)" stroke="none"/>
  <path d="M92 222l1 2 1.945.805c2.839 1.65 3.021 3.212 3.93 6.32 1.608 4.895 3.652 8.387 6.953 12.316C107 245 107 245 107 247h2c2.68 4.019 2.156 6.242 2 11h-2l-1 3-10 1v-2h-2v-2h-2l-2-5h-2c-3-5.75-3-5.75-3-8h-2l-2-4h-2c1.304-6.98 2.545-11.662 8.477-15.879 1.682-1.06 1.682-1.06 2.523-3.121z" fill="rgba(99, 100, 97, 1)" stroke="none"/>
  <path d="M73 250l1.75 2.25c2.119 2.697 2.119 2.697 4.25 4.688 2 2.062 2 2.062 4.063 5.187 1.792 3.053 1.792 3.053 4.937 4.875v2l1.813.813C93.567 271.85 93.567 271.85 95 274c.65 6.826.65 6.826-1.227 10.215-2.249 2.264-3.366 2.38-6.523 2.41-5.782-.227-8.437-2.521-12.25-6.625l-2.875-2.625C70.098 275.109 69.33 273.971 69 271h-2a105.022 105.022 0 0 1-4-5c2.609-5.83 6.273-10.833 10-16z" fill="rgba(99, 100, 96, 1)" stroke="none"/>
  <path d="M282 134c2.618 2.782 3.922 4.337 4.375 8.188C286 145 286 145 284 147c.003 1.95.003 1.95.46 4.156l.432 2.574.483 2.77c1.142 7.19 1.939 14.214 1.938 21.5l.015 2.225c-.052 4.015-.556 7.16-2.328 10.775l-5-1-1-4h-2c-1.29-1.68-1.29-1.68-2.625-3.875l-1.352-2.18C272 178 272 178 272 176h-2c-1.183 1.732-1.183 1.732-2.313 3.875-1.742 2.936-2.411 3.978-5.5 5.625L260 186l-.375-1.938L259 182l-2-1 3-1 1-3h2l-.125-3.875c-.07-2.18-.07-2.18.125-4.125 2-2 2-2 4.813-2.438 4.219.58 5.456 2.264 8.187 5.438a268.596 268.596 0 0 0 3 3c.027-2.083.046-4.167.063-6.25l.035-3.516c-.081-2.683-.406-4.683-1.098-7.234-.122-2.675-.045-5.32 0-8h3l1-3h-3l1-10h2v-3z" fill="rgba(33, 31, 32, 1)" stroke="none"/>
  <path d="M52 224v13l-3 .332c-7.039.829-13.444 1.84-20 4.668h-2v2l-1.941.883c-5.209 2.468-9.506 4.993-13.684 8.98C10 255 10 255 8 255c-1.05-4.65-1.327-8.388 0-13 8.001-8.803 22.54-13.896 34.063-14.719C46.008 226.71 47.932 224 52 224z" fill="rgba(151, 152, 142, 1)" stroke="none"/>
  <path d="M228 291h4c1.384 4.153-.155 6.95-1.625 10.875l-.848 2.314a939.259 939.259 0 0 1-1.725 4.65 335.566 335.566 0 0 0-2.001 5.575c-2.307 6.394-5.11 12.436-8.238 18.461l-1.09 2.127c-2.726 5.114-5.55 8.42-9.473 12.998h20l1 3c-2.76 2.76-4.392 2.258-8.25 2.266l-3.781.007-3.969-.023-3.969.023-3.781-.007-3.484-.007C198 353 198 353 196 351v-4l3.313-1.75c3.023-1.707 4.723-3.355 6.687-6.25h2l.75-2.625C210 333 210 333 211.89 330.277c2.32-3.604 3.704-7.068 5.11-11.09 1.597-4.426 3.195-8.794 5.188-13.062 1.826-3.943 3.043-7.972 4.199-12.156C227 292 227 292 228 291z" fill="rgba(14, 14, 12, 1)" stroke="none"/>
  <path d="M159.707 143.746L162 144c.813 1.688.813 1.688 1 4l-2.438 2.25c-2.717 2.917-2.93 3.286-2.937 7-.046 3.54-.046 3.54 1.375 4.75 4.732.332 9.393.189 14-1v-2h2l1-9 5-1 3 10 3.875.625 2.18.352L192 160c2.243-1.812 2.243-1.812 2.195-4.383l-.07-2.742-.055-2.758L194 148l5-1c2.476 3.714 2.54 6.696 2 11-1.76 4.166-3.834 6.24-8 8-6.454.729-9.64-.427-15-4l-1 3c-5.59 3.929-11.277 4.839-18 4-3.495-1.716-5.386-2.967-7.375-6.313-1.362-5.856-1.079-9.48 2.063-14.625 2.58-3.993 2.58-3.993 6.019-4.316z" fill="rgba(32, 32, 32, 1)" stroke="none"/>
  <path d="M78 145c2.047 3.719 2.047 3.719 1.625 6.25L79 153h3v6l2.188-3c1.714-2.352 2.372-2.927 5.296-3.41C92 153 92 153 93.66 154.504l1.403 2.059 1.53 2.218c1.913 3.018 3.653 6.106 5.407 9.219 1.616 2.375 3.299 4.684 5 7l-2 2c.405 2.782.405 2.782 2 5 .235 5.53.235 5.53-1 8h-2l.828-3.059c.232-5.325-1.658-7.171-5.078-11.004a551.385 551.385 0 0 1-3.016-3.535l-1.45-1.711C94 169 94 169 92.327 165.629c-1.1-2.944-1.1-2.944-4.328-3.629l-.773 1.703c-1.384 2.59-3.026 4.748-4.852 7.047l-1.914 2.422L79 175c-4.875-.875-4.875-.875-6-2-.38-6.832.621-12.517 2.5-19.063l.723-2.623A822.887 822.887 0 0 1 78 145z" fill="rgba(34, 32, 34, 1)" stroke="none"/>
  <path d="M223.5 104.875l2.406.555C228 106 228 106 230 107v2l1.75.625c3.297 2.015 4.518 3.91 6.25 7.375 1.088 7.697.055 16.33-3.75 23.125-5.465 3.153-11.117 2.752-17.25 1.875-3.117-1.205-5.656-2.602-8-5l-1-3h-2l-1-7 1.11 1.313c3.78 3.888 6.544 5.163 12.015 5.312 3.79-.199 5.647-.497 9-2.375 3.354-4.025 4.374-6.741 4.172-12.156-.525-3.7-1.555-6.49-4.297-9.094-3.256-1.44-6.515-2.302-10-3v-2c2.6-1.3 3.706-.787 6.5-.125z" fill="rgba(236, 236, 236, 1)" stroke="none"/>
  <path d="M149 97c4.905 1.927 7.163 5.744 10 10 .956 7.355.694 13.452-3.613 19.61C154 128 154 128 151 129l-1 3c-3.862 1.93-7.58 1.435-11.578.21-5.036-1.928-8.66-3.404-11.594-8.077-.985-2.538-1.094-4.541-1.078-7.258l-.016-2.633C126 112 126 112 128 110l.805 1.934 1.07 2.504 1.055 2.496c.894 2.223.894 2.223 3.07 3.066v2l13 1 1-3 2.563-1.813c2.365-2.175 2.45-3.332 2.765-6.624A185.633 185.633 0 0 0 153 101h-2l-2-4z" fill="rgba(238, 238, 238, 1)" stroke="none"/>
  <path d="M89 18l3 1-.484 3.363C89.893 35.447 90.446 48.312 94 61c.422 1.953.819 3.911 1.188 5.875l.48 2.492c.815 6.464.237 10.7-2.668 16.57l-1.688 3.465L90 92c-2.097-3.146-2.253-3.912-2.188-7.5l.02-2.344C88 80 88 80 89 77a88.223 88.223 0 0 0-.813-5.938c-.17-1.04-.342-2.08-.519-3.152-.374-2.19-.758-4.38-1.176-6.562-1.388-7.574-1.858-14.905-1.867-22.598l-.074-3.39C84.526 28.414 85.339 23.932 89 18z" fill="rgba(20, 19, 18, 1)" stroke="none"/>
  <path d="M221 309a7961.562 7961.562 0 0 1-2.246 7.52A215.647 215.647 0 0 1 217 322c-4.542.058-9.083.094-13.625.125l-3.895.05-3.77.02-3.459.032c-3.398-.237-6.07-1.045-9.251-2.227-2.667-.473-5.302-.72-8-1v-8l2.574.984c7.736 2.294 16.383 1.627 24.137-.406 2.827-.714 5.665-1.213 8.539-1.703l2.953-.508c2.639-.346 5.14-.435 7.797-.367z" fill="rgba(148, 150, 141, 1)" stroke="none"/>
  <path d="M10 181l3 1c.241 4.423.216 7.85-1.375 12-4.696 12.926-4.008 27.924-4.25 41.5l-.117 5.418A3608.7 3608.7 0 0 0 7 254H5l-1 2c-4.191-8.382-2.217-22.856-2.24-32.205-.01-2.424-.041-4.848-.073-7.272-.075-11.012.61-21.367 6-31.273l1.325-2.484L10 181z" fill="rgba(17, 16, 17, 1)" stroke="none"/>
  <path d="M108 4c8.017 3.51 15.31 9.55 20 17v2l-6 2-1.215-1.54C116.54 18.32 112.141 13.81 106 11c-4.646-.232-6.267.38-9.813 3.375C93.931 16.988 93.931 16.988 92 20l-3-1c-3.312 6.26-3.535 11.933-3.688 18.938l-.103 3.228A843.373 843.373 0 0 0 85 49h-1c-1.502-13.03-.868-24.545 4.125-36.75C93.257 6.092 99.891 1.97 108 4z" fill="rgba(41, 41, 40, 1)" stroke="none"/>
  <path d="M49 254l1 8-1.828.367-2.422.508-2.39.492c-2.328.625-4.25 1.481-6.36 2.633v2c-1.394.918-2.792 1.83-4.207 2.715-2.755 1.975-4.971 4.422-7.277 6.894C24 279 24 279 22 279v2l-3-1c-.95-2.066-.95-2.066-1.688-4.563-.25-.826-.502-1.652-.761-2.503L16 271c6.032-5.189 11.68-9.83 19-13l3.25-1.688C42.18 254.436 44.611 254 49 254z" fill="rgba(150, 151, 142, 1)" stroke="none"/>
  <path d="M178 335l3.84.96c5.239 1.165 10.372 1.477 15.722 1.665l2.768.117c2.223.093 4.446.18 6.67.258-2.804 4.924-5.49 8.163-11 10l-1.75 2c-3.047 2.708-5.22 2.928-9.25 3-2.804-1.09-3.676-2.287-4.906-4.996-1.61-4.418-2.46-8.257-2.094-13.004z" fill="rgba(148, 149, 139, 1)" stroke="none"/>
  <path d="M179 130.75l2.195-.023c3.799.014 5.573.119 8.805 2.273.265 4.177.319 7.043-1 11l3 1c-7.797 2.599-18.164.034-26-2l-2-1 1-2 5 1v2l2-1-2.563-2.25C167 137 167 137 167 134.812c2.655-4.811 7.212-4.113 12-4.062z" fill="rgba(221, 157, 164, 1)" stroke="none"/>
  <path d="M60 310c1.682 2.523 3.125 5.07 4.563 7.735C69.83 327.365 75.778 336.215 86 341l-1 5h2v2c-7.647-1.13-14.037-6.237-19-12v-2h-2c-1.656-2.012-1.656-2.012-3.5-4.688l-1.844-2.636C57.566 321.684 56.653 318.79 58 313h2v-3z" fill="rgba(32, 30, 30, 1)" stroke="none"/>
  <path d="M195 15c3.188-.25 3.188-.25 6 0l1 4 3-2a97.813 97.813 0 0 1 7 0c1.369 4.517.47 7.588-1 12l5 4-4 2v2c-5.545-1.447-5.545-1.447-7.438-3.75-.745-2.981-.236-5.283.438-8.25l-1.625 1.063c-3.108 1.226-5.17.666-8.375-.063v-3h-3l-1 2c-1.5-1.375-1.5-1.375-3-3v-2l1.813-.25c2.364-.563 2.364-.563 3.562-2.813L195 15z" fill="rgba(16, 15, 15, 1)" stroke="none"/>
  <path d="M104 175c3.344 1.045 5.747 2.518 8.438 4.688C118.094 184.083 124.57 186.92 131 190c2.002.996 4.002 1.995 6 3v4h-6v-2l-3.875-.625c-5.756-1.244-10.267-4.15-15.125-7.375l-.867 2.324c-1.283 3.031-3 5.187-5.133 7.676l-4-1 1-6h3c.295-6.291.295-6.291-2-12v-3z" fill="rgba(23, 22, 22, 1)" stroke="none"/>
  <path d="M218 99l1 5-3 2a312.212 312.212 0 0 0-2 5l-1.488 1.367c-1.897 2.049-2.187 3.599-2.7 6.32l-.48 2.45L209 123h-5c.095.915.19 1.83.29 2.773.11 1.189.22 2.377.335 3.602l.352 3.586L205 136l-2 2c-4.384-6.138-3.894-12.819-3-20 2.35-6.439 10.253-19 18-19z" fill="rgba(11, 10, 9, 1)" stroke="none"/>
  <path d="M154 94c5.774 2.727 7.579 6.845 10.082 12.402 1.929 5.458 1.99 11.03-.25 16.395-2.643 4.593-5.313 8.279-9.832 11.203l-2-2-2-1 1.242-1.39 1.633-1.86 1.617-1.828c4.52-5.76 4.271-11.822 3.508-18.922-1.884-3.328-1.884-3.328-4-6-.25-3.875-.25-3.875 0-7z" fill="rgba(21, 21, 19, 1)" stroke="none"/>
  <path d="M36 204c2 3 2 3 2 7l-2.86.664c-7.781 1.893-14.651 4.236-21.75 8.066C11 221 11 221 8 222v-8l2.438-.625c3.91-1.51 6.92-3.516 10.316-5.938 5.173-3.31 9.226-3.93 15.246-3.437z" fill="rgba(148, 149, 141, 1)" stroke="none"/>
  <path d="M5 263l6 2 1-2c5.176 10.352 5.176 10.352 6.096 12.2.864 1.72 1.749 3.428 2.634 5.136C22 283 22 283 22 285h2c1.688 1.75 1.688 1.75 3 4-.265 3.004-.833 3.833-3 6-4.567-3.453-7.472-6.796-10.188-11.875l-.998-1.777C9.564 275.466 7.034 269.413 5 263z" fill="rgba(34, 32, 33, 1)" stroke="none"/>
  <path d="M195 142l2 1-1 3 2 1-3 1 .105 2.082.083 2.73.105 2.708C195 158 195 158 193.641 159.797 192 161 192 161 189.563 161.437c-3.38-.577-4.436-1.796-6.563-4.437-1.935-3.096-2-4.14-2-8h-3l-1-4 2.414.105c6.084.156 10.242.13 15.586-3.105z" fill="rgba(241, 241, 240, 1)" stroke="none"/>
  <path d="M205 131l1 3h2l5 5c5.227 3.422 12.046 2.844 18 2 2.691-1.784 3.43-3.103 5-6l.375 1.875c.497 2.316.497 2.316 2.625 4.125-3.007 3.292-5.918 6.46-10.336 7.605-7.664.26-16.951-1.917-22.976-6.855-2.446-3.986-1.679-6.253-.688-10.75z" fill="rgba(23, 23, 23, 1)" stroke="none"/>
  <path d="M177 337c1.889 3.55 3.002 7.128 4.121 10.977.812 2.37.812 2.37 3.879 4.023 4.594-.25 7.58-.854 11-4l.875 1.875c1.062 2.258 1.062 2.258 3.125 4.125-4.704 3.589-8.713 5.936-14.758 5.54-4.302-1.035-7.373-3.207-10.242-6.54-1.42-2.932-2.321-5.819-3-9h5v-7z" fill="rgba(41, 38, 40, 1)" stroke="none"/>
  <path d="M52 278l-1 3a118.704 118.704 0 0 0-.063 5.688l.028 3.011L51 292l-1.715.332-2.222.48-2.215.458L43 294l-1 3h-2v2c-2.25.75-2.25.75-5 1-2.313-1.813-2.313-1.813-4-4 0-2 0-2 1.469-3.48l2.031-1.707 2.2-1.868L39 287c1.44-1.269 2.877-2.54 4.313-3.813C49.165 278 49.165 278 52 278z" fill="rgba(149, 151, 140, 1)" stroke="none"/>
  <path d="M252 344v2h6c-5.96 5.96-18.526 6.04-26.5 6.063-1.5-.016-3-.035-4.5-.063v-4h-20l1-3 1 2c3.951-.261 7.902-.528 11.853-.8 1.344-.091 2.689-.181 4.033-.27 1.932-.128 3.863-.261 5.794-.395l3.523-.238c2.748-.127 2.748-.127 4.797-1.297a78.567 78.567 0 0 1 4.375-.625c.77-.095 1.542-.19 2.336-.29 2.317-.086 4.082.24 6.289.915z" fill="rgba(37, 35, 35, 1)" stroke="none"/>
  <path d="M28 293h2c1.621 1.645 1.621 1.645 3.438 3.813 4.034 5.123 4.034 5.123 9.562 8.187v2l2.875.938C49 309 49 309 51 310v2h-2v2h7c-3.03 1.797-4.74 2.253-8.188 1.5-8.546-2.182-15.55-8.041-20.687-15.063C26 298 26 298 26.25 295.75 27 294 27 294 28 293z" fill="rgba(48, 45, 47, 1)" stroke="none"/>
  <path d="M29 170l2 17c-13.625 4-13.625 4-17 4 1.177-5.295 3.044-9.378 6.438-13.625l1.808-2.29C26.522 170 26.522 170 29 170z" fill="rgba(148, 149, 141, 1)" stroke="none"/>
  <path d="M114 318c3.938.141 7.875.289 11.813.438l3.333.119c6.979.267 13.906.731 20.854 1.443l-1 6c-1.938.563-1.938.563-4 1l-1-1a275.02 275.02 0 0 0-8.563-1.063l-2.443-.275c-1.997-.224-3.996-.444-5.994-.662v-2h-13v-4z" fill="rgba(145, 146, 139, 1)" stroke="none"/>
  <path d="M73 233h1v7h2l2 2h3l-1.438 1.313c-1.799 1.71-1.799 1.71-2.562 4.687h-3l-.625 2c-1.887 4.116-4.58 7.459-7.375 11l-3-2-3 1-1 3h-2c.379-2.651.816-3.82 2.758-5.719 2.711-2.758 4.777-5.798 6.867-9.031l1.195-1.766C70.667 242.1 71.95 238.122 73 233z" fill="rgba(37, 36, 35, 1)" stroke="none"/>
  <path d="M83 122l3 1c-.603 5.423-1.508 10.67-2.695 15.996L83 141l1 1c.235 7.294.235 7.294-1 11l-5 1 1-9-3-1c-1.374-2.854-.953-4.163-.063-7.25L77 134h2v-3l2-2-2-4c1.813-1.563 1.813-1.563 4-3z" fill="rgba(42, 39, 40, 1)" stroke="none"/>
  <path d="M30.762 156.64L33 157l1 5-1-3h-5l-.438 2.375C27.06 163.726 26.71 165.29 25 167l4 2h-2l-1 4h-2l-.742 1.672c-1.515 2.804-3.369 5.109-5.383 7.578l-2.195 2.703L14 187l-2-1 1-4h-2c.476-4.288 1.659-6.266 5-9h2l.762-1.61c1.543-2.98 3.258-5.802 5.05-8.64l2.02-3.266C28 157 28 157 30.762 156.641z" fill="rgba(12, 10, 12, 1)" stroke="none"/>
  <path d="M269 5c-.52 4.013-1.49 5.942-4.313 8.813-3.52 3.803-5.58 7.466-7.687 12.187h-2l-.938 2.438C253 31 253 31 252 32c-1.666.04-3.334.043-5 0 1.152-2.468 2.048-4.048 4-6a84.3 84.3 0 0 0 1.188-4.563C253.83 15.56 257.01 11.525 261 7l1 3 2.375-2.5C267 5 267 5 269 5z" fill="rgba(31, 30, 30, 1)" stroke="none"/>
  <path d="M118 339l21 3c-1.864 3.728-2.722 4.915-5.875 7.313l-2.055 1.613C129 352 129 352 126.906 351.813c-3.689-1.573-6.146-4.582-8.219-7.938C118 342 118 342 118 339z" fill="rgba(148, 149, 140, 1)" stroke="none"/>
  <path d="M1 215h1l2 39h3v-39h1l.06 3.684c.076 4.52.165 9.04.257 13.558.039 1.955.073 3.91.105 5.864.046 2.812.104 5.625.164 8.437l.035 2.64c.108 4.443.529 7.716 2.379 11.817v4c-4.75-.875-4.75-.875-7-2-4.328-9.37-3.34-20.143-3.188-30.188.016-1.732.03-3.464.042-5.197.032-4.205.084-8.41.146-12.615z" fill="rgba(77, 75, 77, 1)" stroke="none"/>
  <path d="M39 196c1.839 2.276 3.148 4.324 4.375 7 1.435 3.114 1.435 3.114 4.125 5 2.955 2.364 4.067 4.531 5.5 8v2l-6 3c-3-5.75-3-5.75-3-8l-1.75-.563c-3.354-2.143-4.43-4.925-6.25-8.437l1.5-2.313c1.744-2.61 1.744-2.61 1.5-5.687z" fill="rgba(35, 35, 35, 1)" stroke="none"/>
  <path d="M94 159c3.886 1.25 5.073 3.547 6.918 7.047 1.761 3.18 3.932 6.026 6.082 8.953l-2 2c.405 2.782.405 2.782 2 5 .235 5.53.235 5.53-1 8h-2l.828-3.063c.232-5.316-1.65-7.127-5.078-10.937-3.922-4.494-6.657-8.38-8.75-14l2-1 1 2v-4z" fill="rgba(42, 40, 42, 1)" stroke="none"/>
  <path d="M212 111c3.306-.431 5.352-.307 8.375 1.125C222 114 222 114 222.438 116.938c-.489 3.416-.788 4.84-3.438 7.062-3.5.5-3.5.5-7 0-2-1.625-2-1.625-3-4 .237-3.877.827-5.74 3-9z" fill="rgba(230, 230, 230, 1)" stroke="none"/>
  <path d="M84 224l3 2-1 4h-2l-.188 3.688c-.524 4.47-2.318 6.445-5.812 9.312l-2-1v-2h-2c-.433-3.087-.696-5.02 0-8 2.784-3.343 6.104-6.052 10-8z" fill="rgba(9, 8, 8, 1)" stroke="none"/>
  <path d="M142 99l3 2c.408 2.712.133 5.244 0 8h-2l-1 3h-8c-1.587-8.074-1.587-8.074.625-11.563 2.79-1.688 4.17-1.93 7.375-1.437z" fill="rgba(229, 229, 229, 1)" stroke="none"/>
  <path d="M101.285 4.336L103 5c-2 2-2 2-5 3l-2 1v2l4-2 1 2-2.875 1.688C94.911 15.066 94.045 16.24 93 20l-4-1c-3.312 6.26-3.535 11.933-3.688 18.938l-.103 3.228A843.374 843.374 0 0 0 85 49h-1c-1.502-13.03-.868-24.545 4.125-36.75 3.068-3.682 8.09-8.66 13.16-7.914z" fill="rgba(88, 85, 86, 1)" stroke="none"/>
  <path d="M218 98c5.69-.63 9.825-.67 14.563 2.813 2.6 2.118 3.35 2.924 4.437 6.187-2.375 1.563-2.375 1.563-5 3l-2-1v-2l-11-3-1-6z" fill="rgba(12, 12, 11, 1)" stroke="none"/>
  <path d="M137 345v3l1 2 4-1v-2l2 1-2 3h-2v2c-5.153 3.328-8.817 4.902-15 5-3.5-1.438-3.5-1.438-6-3 2.878-2.704 4.459-3.931 8.438-4.438 4.631-.73 6.214-2.378 9.562-5.562z" fill="rgba(34, 31, 34, 1)" stroke="none"/>
  <path d="M195 15c3.188-.25 3.188-.25 6 0l1 3-1 2 5-1 1 2c-2.177 3.266-3.276 4.797-7.125 5.875C197 27 197 27 195 26v-3h-3l-1 2c-1.5-1.375-1.5-1.375-3-3v-2l1.813-.25c2.364-.563 2.364-.563 3.562-2.813L195 15z" fill="rgba(12, 10, 12, 1)" stroke="none"/>
  <path d="M179 130.75l2.195-.023c3.799.014 5.573.119 8.805 2.273.265 4.177.319 7.043-1 11l3 1c-7.797 2.599-18.164.034-26-2l-2-1 1-2 5 1v2c2.084-.142 4.167-.288 6.25-.438 1.16-.08 2.32-.162 3.516-.246 2.544-.248 4.794-.597 7.234-1.316l1-7c-3.083-1.028-5.331-1.166-8.563-1.188l-2.94-.042c-2.671-.022-2.671-.022-4.497 2.23h-3v2h-2c.313-1.875.313-1.875 1-4 3.737-2.491 6.679-2.296 11-2.25z" fill="rgba(205, 164, 165, 1)" stroke="none"/>
  <path d="M261 253h2v2l1.875.688c2.842 1.755 3.117 3.148 4.125 6.312.281 2.263.487 4.536.625 6.813l.227 3.519L270 275h-3c-2.186-4.277-4.258-8.52-6-13l-1.125-2.125C259 258 259 258 259 255h2v-2z" fill="rgba(29, 27, 27, 1)" stroke="none"/>
  <path d="M280 72l3 1a89.402 89.402 0 0 1 2.125 8.375c.335 1.55.67 3.1 1.008 4.648l.434 2.092c.45 2.093.45 2.093 1.433 4.885l-5 2-1-6h-2l-1-8h-2l-1-6 3-1 1-2z" fill="rgba(21, 20, 21, 1)" stroke="none"/>
  <path d="M254 230c3.708 3.948 4.554 6.646 5 12 .184 1.646.371 3.292.563 4.938.146 1.354.293 2.708.437 4.062l-4 2c-.818-1.413-1.63-2.83-2.438-4.25l-1.37-2.39c-1.1-2.179-1.868-3.946-2.192-6.36.98-1.348 1.98-2.682 3-4l-1-3h2v-3z" fill="rgba(25, 23, 25, 1)" stroke="none"/>
  <path d="M252 20c1 2 1 2 .313 4.875-1.35 3.213-2.706 4.865-5.313 7.125h5l-.875 2.438C249.816 38.58 248.888 42.75 248 47l-4 1v-3l-2-1c1.787-9.244 4.32-16.39 10-24z" fill="rgba(20, 20, 19, 1)" stroke="none"/>
  <path d="M267 333l2 1c-1.918 8.312-1.918 8.312-6 11-3.637.919-7.282 1.513-11 2l-2-4c2.507-1.671 4.624-2.739 7.375-3.875 3.69-1.601 6.617-3.408 9.625-6.125z" fill="rgba(28, 27, 26, 1)" stroke="none"/>
  <path d="M131 131c5.75.875 5.75.875 8 2 5.237.262 9.062-.025 14-2l1 4c-3.51 3.318-6.205 3.378-10.938 3.313l-3.652-.012c-3.232-.285-5.5-.915-8.41-2.301v-5z" fill="rgba(11, 11, 11, 1)" stroke="none"/>
  <path d="M73 334c3.498.634 5.84 2.052 8.75 4.063l2.422 1.66L86 341l-1 5h2v2c-6.81-1.009-12.039-4.8-16.563-9.875L69 336h3l1-2z" fill="rgba(33, 31, 32, 1)" stroke="none"/>
  <path d="M265 167c2 3 2 3 2 6l3 1c-1.746 5.514-2.873 8.845-8 12h-2l-.375-1.938L259 182l-2-1 3-1 1-3h2l-.125-3.875c-.07-2.18-.07-2.18.125-4.125l2-2z" fill="rgba(47, 45, 46, 1)" stroke="none"/>
  <path d="M156 306h5c-.568 5.455-1.946 9.91-4 15h-2l-1 3-2 2c-1-1-1-1-1.219-3.633.25-3.848 1.265-6.68 2.719-10.242l1.406-3.492L156 306z" fill="rgba(10, 10, 10, 1)" stroke="none"/>
  <path d="M223.5 104.875l2.406.555C228 106 228 106 230 107v2l1.75.625c3.297 2.015 4.518 3.91 6.25 7.375.321 3.363.24 6.634 0 10h-1l-.332-2.117-.48-2.758-.458-2.742c-.56-2.727-.56-2.727-3.73-4.383l-1 2-1.375-3.313c-2-3.606-3.962-4.483-7.875-5.624A124.7 124.7 0 0 0 217 107v-2c2.6-1.3 3.706-.787 6.5-.125z" fill="rgba(211, 211, 211, 1)" stroke="none"/>
  <path d="M28 293c2 0 2 0 3.656 1.645l1.844 2.168 1.844 2.144C37 301 37 301 39 304l-3 3c-3.465-1.54-6.276-3.35-9-6-.938-3.125-.938-3.125-1-6l2-2z" fill="rgba(30, 29, 28, 1)" stroke="none"/>
  <path d="M87 82c2.965 4.447 2.526 8.781 2 14-1.5 3.188-1.5 3.188-3 5l-1.375-1.5C83.124 97.774 83.124 97.774 81 98c.476-6.028 3.197-10.767 6-16z" fill="rgba(36, 33, 34, 1)" stroke="none"/>
  <path d="M28 159h5c1.095 3.285 1.1 5.737 1.063 9.188l-.028 3.292L34 174l-2-1v-2h-2l-1-2c-2.527-.656-2.527-.656-5-1v-2h2l2-7z" fill="rgba(7, 5, 6, 1)" stroke="none"/>
  <path d="M177 149h4l3 10-2 1-1 2h-3l-1 3h-2l.5-2.438c.51-3.638.536-7.044.438-10.707C176 150 176 150 177 149z" fill="rgba(20, 21, 20, 1)" stroke="none"/>
  <path d="M274 18c2.14.945 2.14.945 4 2 .184 7.655.308 14.898-1.496 22.379-.87 4.526-.96 9.118-1.16 13.715C275 59 275 59 273 61c.11-4.396.24-8.792.375-13.188.03-1.245.062-2.491.094-3.775l.117-3.642.095-3.349c.32-3.054 1.14-5.236 2.319-8.046a97.315 97.315 0 0 0 0-7l-1.875-.438C272 21 272 21 270 20c1.75-1.125 1.75-1.125 4-2z" fill="rgba(176, 151, 146, 1)" stroke="none"/>
  <path d="M86 114v3c.151 1.564.319 3.127.5 4.688l.281 2.449L87 126c-2.078-1.877-3.74-3.481-5-6 0-2 0-2 1.938-4.25L86 114zm-8 3l2 3h2l1 4-3 1 3 5-1.938.313L79 131l-1 3 .125-2.375c.162-2.786.162-2.786-2.125-4.625.37-3.412 1.109-6.689 2-10z" fill="rgba(34, 33, 33, 1)" stroke="none"/>
  <path d="M282 134c2.618 2.782 3.922 4.337 4.375 8.188C286 145 286 145 284 147c-.242 1.981-.242 1.981-.125 4.125L284 155h-3l1-8h-3l1-10h2v-3z" fill="rgba(50, 46, 48, 1)" stroke="none"/>
  <path d="M278 0l-4 2 2 2-2 1 4 2-9 1V5l-8 6c.582-3.13 1.269-5.337 3.668-7.512C269.275.378 272.484-.575 278 0z" fill="rgba(17, 14, 15, 1)" stroke="none"/>
  <path d="M105.688 3.813L108 4v4l3-1-1 4-2.3-.254-3.013-.309-2.988-.316C98.901 9.834 98.901 9.834 96 11l-1-3 2.313-.313c2.717-.443 2.717-.443 4.187-2.25C103 4 103 4 105.688 3.813z" fill="rgba(14, 13, 13, 1)" stroke="none"/>
  <path d="M73 233h1v7h2l2 2h3l-1.438 1.313c-1.799 1.71-1.799 1.71-2.562 4.687h-3v-2l-6 2c.926-2.382 1.832-4.694 3.063-6.938C72.26 238.425 72.61 235.858 73 233z" fill="rgba(76, 74, 74, 1)" stroke="none"/>
  <path d="M195 348l5 5c-3.137 3.362-5.644 5.805-10.36 6.195l-2.39-.07-2.422-.055L183 359v-1l6-1 .25-2.375C190 352 190 352 192 350.812l2-.812 1-2z" fill="rgba(54, 53, 55, 1)" stroke="none"/>
  <path d="M225 194h-3l-.375 2.438L221 199c-2.957 1.478-5.742 1.06-9 1a88.406 88.406 0 0 1-1-5c1.544-1.544 3.176-1.38 5.313-1.625.78-.095 1.56-.19 2.363-.29 2.333-.085 4.103.234 6.324.915z" fill="rgba(42, 42, 42, 1)" stroke="none"/>
  <path d="M232 115c4 2 4 2 5 4a95.33 95.33 0 0 1 .063 5.125l-.028 2.758L237 129l-5 1v-15z" fill="rgba(247, 247, 246, 1)" stroke="none"/>
  <path d="M137 345v3l1 2 4-1v-2l2 1-2 3h-2v2c-5.176 3.223-5.176 3.223-7 4l-3-1h2l-.875-2.688C131 350 131 350 132.27 348.488c1.516-1.24 3.12-2.371 4.73-3.488z" fill="rgba(60, 59, 59, 1)" stroke="none"/>
  <path d="M16 173l2 1c.615 7.262.615 7.262-2.5 11l-2.5 2-1-3 1-2h-2c.48-4.314 1.746-6.166 5-9z" fill="rgba(48, 46, 47, 1)" stroke="none"/>
  <path d="M78 139h2c2.117 2.194 2.946 3.524 3.293 6.578l-.106 2.672-.082 2.703L83 153l-5 1 .625-2.688c.409-3.612-.25-5.047-1.625-8.312.375-2.313.375-2.313 1-4z" fill="rgba(7, 5, 5, 1)" stroke="none"/>
  <path d="M102 192l.313 1.875c.562 2.49.562 2.49 3.687 4.125-2.25 2.5-2.25 2.5-5 5h-4c-2.2.933-2.2.933-4 2 1.52-5.405 5.274-8.985 9-13z" fill="rgba(31, 29, 31, 1)" stroke="none"/>
  <path d="M127 123l1.375 2.25c4.818 5.047 11.771 7.029 18.625 7.75v1c-6.21.333-10.283-.55-16-3v4c-3.161-1.37-3.993-1.99-6-5l2-1v-6z" fill="rgba(71, 71, 70, 1)" stroke="none"/>
  <path d="M98 35h1l.076 2.12c.117 3.231.24 6.462.362 9.693l.119 3.333c.267 6.979.731 13.906 1.443 20.854l6-1-1 2c-2.875.188-2.875.188-6 0-2.461-3.692-2.256-6.466-2.195-10.73l.008-2.274c.011-2.395.037-4.79.062-7.184.01-1.624.02-3.248.027-4.873.022-3.98.057-7.96.098-11.939z" fill="rgba(204, 161, 161, 1)" stroke="none"/>
  <path d="M253 20h3l1 6h-2l-.938 2.438C253 31 253 31 252 32c-1.666.04-3.334.043-5 0 1.152-2.468 2.048-4.048 4-6a126.235 126.235 0 0 0 2-6z" fill="rgba(9, 9, 9, 1)" stroke="none"/>
  <path d="M175 157c2 3.75 2 3.75 2 6h-2l-.125 1.875C174 167 174 167 171.5 168.25c-4.239.908-8.186.923-12.5.75 4.033-2.234 7.45-2.545 12-3v-2l-3-2 5-1v-2h2v-2z" fill="rgba(53, 53, 53, 1)" stroke="none"/>
  <path d="M284 110c2.624 3.061 3 3.732 3 8h2v5l-4 1c-3.069-6.383-3.069-6.383-2.75-9.25L283 113l1-3z" fill="rgba(7, 5, 5, 1)" stroke="none"/>
  <path d="M83 122l3 1c-.714 8.571-.714 8.571-4 12l-3-1c0-3 0-3 2-5l-2-4c1.813-1.563 1.813-1.563 4-3z" fill="rgba(5, 5, 4, 1)" stroke="none"/>
  <path d="M90 77l2 1v2h2c-.665 4.389-2.188 7.981-4 12-2.081-3.122-2.274-3.933-2.25-7.5l-.016-2.344C88 80 88 80 90 77z" fill="rgba(28, 26, 25, 1)" stroke="none"/>
  <path d="M236 246c.438 2.875.438 2.875 0 6-1.875 2.375-1.875 2.375-4 4h-2l2-6h-2v-2h-2l1-3c3.371-1.46 3.781-1.146 7 1z" fill="rgba(157, 159, 150, 1)" stroke="none"/>
  <path d="M243 205c4.845 1.585 4.845 1.585 7 3 .938 3.188.938 3.188 1 6l-4 3a562.649 562.649 0 0 1-2-4.313l-1.125-2.425C243 208 243 208 243 205z" fill="rgba(16, 15, 15, 1)" stroke="none"/>
  <path d="M98 201l3 1c-.953 4.192-1.633 5.72-5.125 8.375L93 212c-1-3-1-3-.313-5.5 1.451-2.763 2.582-4.01 5.313-5.5z" fill="rgba(15, 14, 13, 1)" stroke="none"/>
  <path d="M244 197l.813 1.688c1.19 2.41 1.19 2.41 2.875 4.937L249 206l-1 2-4-2-1 4c-2.034-3.73-3-5.67-3-10h3l1-3z" fill="rgba(40, 40, 41, 1)" stroke="none"/>
  <path d="M205 127l1.18 1.277c4.942 4.84 8.997 5.696 15.82 5.723v1h-10l1 4c-1.938-.813-1.938-.813-4-2l-1-3h-2l-1-7z" fill="rgba(210, 210, 209, 1)" stroke="none"/>
  <path d="M30.762 156.64L33 157l1 5-1-3h-5l-.438 2.375C27 164 27 164 26 166h-2l-.313 1.813c-.785 2.5-1.656 3.562-3.687 5.187h-2c1.693-3.577 3.7-6.905 5.813-10.25l2.019-3.266C28 157 28 157 30.762 156.641z" fill="rgba(114, 113, 115, 1)" stroke="none"/>
  <path d="M101.293 4.332L103 5c-2 2-2 2-5 3l-2 1v2l4-2 1 2c-4.43 2.092-4.43 2.092-7.313 1.625L92 12l-1 2h-2c.358-2.787.805-3.824 2.926-5.738l2.386-1.575 2.364-1.613C99 4 99 4 101.293 4.332z" fill="rgba(48, 45, 45, 1)" stroke="none"/>
  <path d="M172 164l-1 3-11 1-1-4c8.429-1.286 8.429-1.286 13 0z" fill="rgba(4, 4, 4, 1)" stroke="none"/>
  <path d="M101.813 22.188C104.7 23.26 106.68 25.003 109 27l-1 2-4-2v-2c-2.539 1.156-2.539 1.156-5 3-.887 2.591-.887 2.591-1 5l-2-2v-4h2v-4c2-1 2-1 3.813-.813z" fill="rgba(203, 162, 162, 1)" stroke="none"/>
  <path d="M276 333l-2 4h-2v2a125.024 125.024 0 0 1-6 4l-2-1 3-1-.25-2.313c.25-2.687.25-2.687 1.938-4.5 2.654-1.363 4.368-1.432 7.312-1.187z" fill="rgba(71, 69, 70, 1)" stroke="none"/>
  <path d="M251 211c2.463 2.463 2.998 4.707 4 8l-1.938.313L251 220l-1 3-4-1h3l-.688-3.25C248 215 248 215 249.438 212.562L251 211z" fill="rgba(47, 46, 47, 1)" stroke="none"/>
  <path d="M122 15c4.875 4.625 4.875 4.625 6 8l-6 2-3-5 3-1v-4z" fill="rgba(57, 56, 54, 1)" stroke="none"/>
  <path d="M251 175h11c-2 5-2 5-4.625 6.313L255 182l1-5-5-1v-1z" fill="rgba(230, 228, 230, 1)" stroke="none"/>
  <path d="M272 20l3 1c-4.625 4.875-4.625 4.875-8 6l-.938 1.938c-1.296 2.517-2.484 3.03-5.062 4.062.56-3.504 1.616-4.88 4.375-7.063 2.344-1.88 4.535-3.776 6.625-5.937z" fill="rgba(205, 160, 160, 1)" stroke="none"/>
  <path d="M130 190l7 3v4h-6v-2h-2l1-5z" fill="rgba(20, 20, 20, 1)" stroke="none"/>
  <path d="M78 145c1.43 2.354 2.087 3.48 1.625 6.25L79 153h3c-.347 3.24-.976 3.98-3.55 6.14L76 161c.141-2.104.288-4.209.438-6.313.08-1.171.162-2.343.246-3.55C77 148 77 148 78 145z" fill="rgba(28, 25, 28, 1)" stroke="none"/>
  <path d="M269 266c3.325 2.692 4.525 6.065 6 10v3h-2v-3l-2 2h-3l.5-3.188c.396-3.017.592-5.783.5-8.812z" fill="rgba(61, 59, 60, 1)" stroke="none"/>
  <path d="M84 143h1c2.675 9.423 2.675 9.423 1.02 13.29-1.395 1.898-1.395 1.898-4.02 4.71-1.291-3.874-.411-6.82.438-10.688l.447-2.126c.365-1.73.739-3.458 1.115-5.186z" fill="rgba(143, 145, 138, 1)" stroke="none"/>
  <path d="M127 110c2.686 2.686 3.06 5.376 4 9l-3 1-1 3c-1-1-1-1-1.133-3.215l.008-2.722-.008-2.715C126 112 126 112 127 110z" fill="rgba(200, 200, 198, 1)" stroke="none"/>
  <path d="M212 17c1.263 4.293.63 6.878-1 11-.934-3.01-1.044-3.867 0-7-2.075-1.224-2.075-1.224-5-1a92.764 92.764 0 0 1-4-1c3.644-2.43 5.712-2.162 10-2z" fill="rgba(58, 56, 57, 1)" stroke="none"/>
  <path d="M184 353h7l-2 5h-6l1-5z" fill="rgba(6, 5, 5, 1)" stroke="none"/>
  <path d="M261 253h2c1.188 2.75 1.188 2.75 2 6-1.375 2.375-1.375 2.375-3 4-3-4.625-3-4.625-3-8h2v-2z" fill="rgba(13, 13, 12, 1)" stroke="none"/>
  <path d="M195 16l3 1c-.75 2.438-.75 2.438-2 5-2.063.688-2.063.688-4 1l-1 2c-1.5-1.375-1.5-1.375-3-3v-2l1.813-.313c2.47-.776 3.51-1.758 5.187-3.687z" fill="rgba(7, 4, 6, 1)" stroke="none"/>
  <path d="M119 344l1.875 2.375c2.024 2.593 2.024 2.593 4.125 4.625-3.75 3-3.75 3-6 3-.75-3.663-1.238-6.424 0-10z" fill="rgba(13, 13, 11, 1)" stroke="none"/>
  <path d="M259 245c1.743 2.297 3.4 4.599 5 7l-1 3v-2h-2v2l-4 1 1-5h2l-1-6z" fill="rgba(62, 62, 63, 1)" stroke="none"/>
  <path d="M270 276h3v3h2v3l-4 4c-1.837-3.782-2.158-5.946-1-10z" fill="rgba(8, 6, 6, 1)" stroke="none"/>
  <path d="M179.188 130.875l2.271.027c1.847.024 3.694.06 5.541.098v1l-2.773.148-3.602.227-3.586.21c-3.145.117-3.145.117-5.039 2.415h-3v2h-2c.313-1.875.313-1.875 1-4 3.792-2.528 6.809-2.224 11.188-2.125z" fill="rgba(193, 159, 158, 1)" stroke="none"/>
  <path d="M104 175c3.653 1.25 4.78 1.671 7 5l-2 3c-1.938-.75-1.938-.75-4-2-.799-2.13-1-3.733-1-6z" fill="rgba(11, 9, 11, 1)" stroke="none"/>
  <path d="M101 174l3 1c1.125 3 1.125 3 2 6l1 1c.235 5.53.235 5.53-1 8h-2l.75-3.188c.659-3.846.659-3.846-1.688-6.5L101 178v-4z" fill="rgba(93, 88, 93, 1)" stroke="none"/>
  <path d="M196 148l4 1v7l-3 1c-1-1-1-1-1.098-2.848L196 148z" fill="rgba(8, 8, 8, 1)" stroke="none"/>
  <path d="M282 117c2.296 3.445 2.54 5.938 3 10l-8-1-1 2v-3h5l1-8z" fill="rgba(139, 139, 134, 1)" stroke="none"/>
  <path d="M94 159l4 2-1 3-3-1v-4zm-2 2c2.523 1.974 2.993 2.967 3.688 6.188L96 170c-2.757-2.49-4.607-4.205-5-8l1-1z" fill="rgba(56, 56, 57, 1)" stroke="none"/>
  <path d="M281 89l2 4 1.125 2.063C285 97 285 97 285 100h-2v-2l-7-2 4-1 1-6z" fill="rgba(109, 110, 105, 1)" stroke="none"/>
  <path d="M253 30c.687 2.49 1 4.379 1 7-1.875 2.688-1.875 2.688-4 5h-2c1.31-4.234 2.944-8.074 5-12z" fill="rgba(131, 132, 125, 1)" stroke="none"/>
  <path d="M139 343l3 1 1 3c-1.392 2.784-3.156 2.979-6 4l-1-3c1.438-2.688 1.438-2.688 3-5z" fill="rgba(7, 7, 8, 1)" stroke="none"/>
  <path d="M73 334c1.938.375 1.938.375 4 1l1 2-4 1 1 4-6-5 3-1 1-2z" fill="rgba(53, 52, 51, 1)" stroke="none"/>
  <path d="M97 163c4.875 4.75 4.875 4.75 6 7l-7-1-1-5 2-1z" fill="rgba(25, 25, 27, 1)" stroke="none"/>
  <path d="M91 23c2 3.75 2 3.75 2 6h-2v19h-1c-.03-3.417-.047-6.833-.063-10.25l-.025-2.934-.01-2.832-.016-2.602c.109-2.269.478-4.208 1.114-6.382z" fill="rgba(115, 114, 109, 1)" stroke="none"/>
  <path d="M274 1l5 1v2l2 1-1 2-7-1c0-3 0-3 1-5z" fill="rgba(6, 4, 5, 1)" stroke="none"/>
  <path d="M278 0l-1.813.875C273.808 2.047 273.808 2.047 271 4c-3.195 1.198-5.576 2-9 2 5.661-4.718 8.508-6.288 16-6z" fill="rgba(116, 111, 115, 1)" stroke="none"/>
  <path d="M255 254h2v2h2v2l-1.688.188c-3.262 1.146-4.999 3.306-7.312 5.812l-2-1a622.4 622.4 0 0 1 3.375-4.5l1.898-2.531L255 254z" fill="rgba(139, 140, 133, 1)" stroke="none"/>
  <path d="M46 220l5 4c-7.286 4.571-7.286 4.571-12 4l1.813-.625c2.997-1.884 3.8-4.186 5.187-7.375z" fill="rgba(106, 107, 102, 1)" stroke="none"/>
  <path d="M245 215h2c1.46 2.647 2 3.894 2 7l-5 1-1-2h2l-.563-1.875C244 217 244 217 245 215z" fill="rgba(145, 147, 139, 1)" stroke="none"/>
  <path d="M177 145h5l1 4h2c-1 2-1 2-4 4v-4h-3l-1-4z" fill="rgba(223, 220, 219, 1)" stroke="none"/>
  <path d="M174 132h11v1l-12 1 1-2zm-5 3l3 1-2 4-2-1 1-4z" fill="rgba(211, 164, 166, 1)" stroke="none"/>
  <path d="M113 63l2 1-1.313 1.188c-1.84 1.794-1.84 1.794-2.937 4.437C109 72 109 72 105.312 72.813L102 73l1.938-.875c2.214-.953 2.214-.953 3.062-3.125h2l.875-1.875C111 65 111 65 113 63z" fill="rgba(177, 152, 146, 1)" stroke="none"/>
  <path d="M248 343l4 1v2h6c-2.762 2.762-5.207 2.579-9 3l-1-6z" fill="rgba(74, 72, 73, 1)" stroke="none"/>
  <path d="M10 181l3 1v8h-3c-1.125-2.25-1.125-2.25-2-5 .875-2.313.875-2.313 2-4z" fill="rgba(33, 26, 32, 1)" stroke="none"/>
  <path d="M279 149l3 2c.188 3.625.188 3.625 0 7l-4-2c-.043-2-.04-4 0-6l1-1z" fill="rgba(5, 4, 3, 1)" stroke="none"/>
  <path d="M252 20c1 2 1 2 .375 4.875-1.563 3.552-3.21 4.96-6.375 7.125.675-4.218 2.98-8.98 6-12z" fill="rgba(124, 121, 124, 1)" stroke="none"/>
  <path d="M192 23h3c-1 3-1 3-3 4-2.333.04-4.667.043-7 0v2h-2v-5h2v2l7-1v-2z" fill="rgba(71, 70, 69, 1)" stroke="none"/>
  <path d="M200 14v1h-5l-.875 1.875C193 19 193 19 191 21c-2.125-.375-2.125-.375-4-1 2.608-5.215 7.575-6.517 13-6z" fill="rgba(99, 95, 97, 1)" stroke="none"/>
  <path d="M21 289h6c-.573 2.867-.861 3.861-3 6l-2-1c-.625-2.563-.625-2.563-1-5z" fill="rgba(11, 9, 11, 1)" stroke="none"/>
  <path d="M112 187l5 2-3 1c-1.209 2-1.209 2-2 4h-3c1.875-4.75 1.875-4.75 3-7z" fill="rgba(218, 218, 218, 1)" stroke="none"/>
  <path d="M188 141l1 3 3 1c-3.473 1.158-6.36 1.069-10 1v-2l6-3z" fill="rgba(180, 163, 159, 1)" stroke="none"/>
  <path d="M67 329l4 2v2h2l-1 4-3-1v-2l-2-1v-4z" fill="rgba(5, 3, 5, 1)" stroke="none"/>
  <path d="M225 250c0 3 0 3-1.813 5.188C221 257 221 257 218 257l-2 4-2-1c3.494-3.596 7.111-6.835 11-10z" fill="rgba(175, 175, 168, 1)" stroke="none"/>
  <path d="M15 185c0 3 0 3-1 6h3v2h-4v2h-2c.565-3.958 1.809-6.666 4-10z" fill="rgba(114, 115, 110, 1)" stroke="none"/>
  <path d="M98 61h1l2 10 6-1-1 2c-2.875.188-2.875.188-6 0-2.68-4.019-2.156-6.242-2-11z" fill="rgba(191, 160, 155, 1)" stroke="none"/>
  <path d="M173 33h5l-1 4-1-1-.375 3.438L175 43l-2 1V33z" fill="rgba(143, 144, 139, 1)" stroke="none"/>
  <path d="M68 325c2.387 2.963 4.735 5.943 7 9-3.298-.569-4.8-1.5-7-4l-2-2 2-3z" fill="rgba(26, 25, 22, 1)" stroke="none"/>
  <path d="M114 318c2.813-.188 2.813-.188 6 0l3 3h-9v-3z" fill="rgba(152, 152, 147, 1)" stroke="none"/>
  <path d="M29 291l-1 1.688c-1.131 2.615-1.157 4.493-1 7.312l-5-5c4.75-4 4.75-4 7-4z" fill="rgba(91, 90, 91, 1)" stroke="none"/>
  <path d="M205 127l6 5-2 4-1-2h-2l-1-7z" fill="rgba(200, 200, 199, 1)" stroke="none"/>
  <path d="M162 124h1l1 16-2-1v-10h-2l2-5z" fill="rgba(213, 214, 210, 1)" stroke="none"/>
  <path d="M161 94c1.063 1.813 1.063 1.813 2 4l-1 3-3-2v-2l-3-1 3-1 2-1z" fill="rgba(141, 142, 135, 1)" stroke="none"/>
  <path d="M124 53l3 1c-8.448 7-8.448 7-12 7 .688-1.875.688-1.875 2-4 2.5-1.125 2.5-1.125 5-2l2-2z" fill="rgba(204, 161, 161, 1)" stroke="none"/>
  <path d="M258 28l2 2-5 5-2-1c.25-1.875.25-1.875 1-4 2.063-1.25 2.063-1.25 4-2z" fill="rgba(156, 153, 146, 1)" stroke="none"/>
  <path d="M250 342h5l1 4-4 1c-2-3.875-2-3.875-2-5z" fill="rgba(11, 10, 10, 1)" stroke="none"/>
  <path d="M275 328l3 1-1 4c-1.875.625-1.875.625-4 1l-2-2 4-2v-2z" fill="rgba(38, 37, 37, 1)" stroke="none"/>
  <path d="M50 278h2l-2 11h-1l-1-7-4 1 2.438-1.938c1.837-1.468 1.837-1.468 3.562-3.062z" fill="rgba(136, 137, 129, 1)" stroke="none"/>
  <path d="M67 248l1 3c-3.213 5.738-3.213 5.738-7 7 1.37-3.995 3.257-6.8 6-10z" fill="rgba(99, 96, 99, 1)" stroke="none"/>
  <path d="M96 216l.438 1.813c.45 1.749.99 3.474 1.562 5.187l-2 3-3-2 .938-2.313A110.556 110.556 0 0 0 96 216z" fill="rgba(135, 135, 129, 1)" stroke="none"/>
  <path d="M251 219h4v5h-5l1-5z" fill="rgba(5, 3, 6, 1)" stroke="none"/>
  <path d="M109 177h6l2 6c-3.914-1.27-5.79-2.512-8-6z" fill="rgba(205, 206, 206, 1)" stroke="none"/>
  <path d="M281 145l4 1-.5 1.688c-.54 2.499-.57 4.762-.5 7.312h-3v-10z" fill="rgba(74, 70, 71, 1)" stroke="none"/>
  <path d="M130 119c1.125 1.75 1.125 1.75 2 4-.875 2.25-.875 2.25-2 4l-2-1v-6l2-1z" fill="rgba(244, 244, 242, 1)" stroke="none"/>
  <path d="M255 219c2 2 2 2 2.438 4.438C257 226 257 226 254.5 227.813L252 229l3-10z" fill="rgba(134, 133, 134, 1)" stroke="none"/>
  <path d="M241 206c3 3.625 3 3.625 3 7h-2l-1 3c-1.231-3.694-.644-6.206 0-10z" fill="rgba(221, 222, 219, 1)" stroke="none"/>
  <path d="M277 169h3v7l-5-5h2v-2z" fill="rgba(141, 143, 135, 1)" stroke="none"/>
  <path d="M120 113h1l1 13h-3l1-13z" fill="rgba(115, 114, 109, 1)" stroke="none"/>
  <path d="M149 97c3.795 1.491 5.61 3.757 8 7l-1 2-3-2v-3h-2l-2-4z" fill="rgba(174, 174, 175, 1)" stroke="none"/>
  <path d="M97 12l2 1c-1.875 4.75-1.875 4.75-3 7h-3c.498-3.688 1.1-5.605 4-8z" fill="rgba(137, 138, 132, 1)" stroke="none"/>
  <path d="M93 206h4c-.313 1.875-.313 1.875-1 4l-3 2c-1-3-1-3 0-6z" fill="rgba(7, 6, 4, 1)" stroke="none"/>
  <path d="M251 175h11l-2 5-2-4h-7v-1z" fill="rgba(208, 206, 204, 1)" stroke="none"/>
  <path d="M225 105l-1 3-7-1v-2c2.862-1.43 4.934-.6 8 0z" fill="rgba(187, 187, 187, 1)" stroke="none"/>
  <path d="M103 5c-2.914 2.914-6.065 3.256-10 4 5.25-5.425 5.25-5.425 10-4z" fill="rgba(80, 78, 80, 1)" stroke="none"/>
  <path d="M273 325h1c.255 3.064.219 4.632-1.375 7.313L271 334h-2c1.199-3.083 2.477-6.063 4-9z" fill="rgba(13, 13, 10, 1)" stroke="none"/>
  <path d="M233 293l2 4-1.375 1.313C231.8 300.108 231.8 300.108 230 303c.75-6.625.75-6.625 3-10z" fill="rgba(124, 125, 120, 1)" stroke="none"/>
  <path d="M73 250h1c.125 2.875.125 2.875 0 6l-2 2-3-2a250 250 0 0 1 4-6z" fill="rgba(93, 93, 89, 1)" stroke="none"/>
  <path d="M9 215l4 1v4l-4 1v-6z" fill="rgba(153, 154, 149, 1)" stroke="none"/>
  <path d="M164 140l6 1v2h6v1c-8.571.286-8.571.286-12-2v-2z" fill="rgba(196, 187, 180, 1)" stroke="none"/>
  <path d="M78 117l2 3 2 1-6 6c.537-3.377 1.11-6.697 2-10z" fill="rgba(80, 79, 81, 1)" stroke="none"/>
  <path d="M285 82c3.15 3.423 3.562 6.443 4 11-2.034-1.415-2.904-2.55-3.422-4.98-.24-2.002-.413-4.011-.578-6.02z" fill="rgba(130, 129, 131, 1)" stroke="none"/>
  <path d="M87 82l2 3-2 4h-3c1.875-5.875 1.875-5.875 3-7z" fill="rgba(94, 90, 91, 1)" stroke="none"/>
  <path d="M147 32l-2 5-6-1c2.426-2.657 4.24-4 8-4z" fill="rgba(92, 90, 92, 1)" stroke="none"/>
  <path d="M85 342c2.063.438 2.063.438 4 1v3l1 2h-3v-2h-2l-1-3 1-1z" fill="rgba(10, 9, 8, 1)" stroke="none"/>
  <path d="M34 302l5 1-3 4-3-1 1-4z" fill="rgba(16, 16, 15, 1)" stroke="none"/>
  <path d="M23 164c.75 1.688.75 1.688 1 4-1.813 2.75-1.813 2.75-4 5h-2c1.498-3.112 3.2-6.053 5-9z" fill="rgba(96, 95, 98, 1)" stroke="none"/>
  <path d="M187 131l5 1 1 3c-1.438 2.188-1.438 2.188-3 4l-.375-2.875c-.342-3.212-.342-3.212-2.625-5.125z" fill="rgba(175, 153, 147, 1)" stroke="none"/>
  <path d="M275 67l4 2v3l-4 1v-6z" fill="rgba(5, 5, 4, 1)" stroke="none"/>
  <path d="M212 17c-2.188 2.063-2.188 2.063-5 4-2.813-.25-2.813-.25-5-1 2.705-3.818 5.62-3.248 10-3z" fill="rgba(73, 71, 74, 1)" stroke="none"/>
  <path d="M63 328l4 1v4l3 1-2 2v-2h-2l-3-6z" fill="rgba(81, 76, 80, 1)" stroke="none"/>
  <path d="M180 279l4 1c-2.174 2.5-3.73 3.436-7 4l3-5z" fill="rgba(240, 239, 236, 1)" stroke="none"/>
  <path d="M212 261l2 1-4 6-4-2 6-5z" fill="rgba(181, 182, 175, 1)" stroke="none"/>
  <path d="M80 226l1 3-5 4-2-1 6-6z" fill="rgba(83, 81, 81, 1)" stroke="none"/>
  <path d="M97 198l2 3-5 4c0-3.517.824-4.371 3-7z" fill="rgba(108, 106, 108, 1)" stroke="none"/>
  <path d="M103 192h3v5l-4-1 1-4z" fill="rgba(6, 4, 7, 1)" stroke="none"/>
  <path d="M207 122l1 2c-1.472 3.736-1.472 3.736-4 5v-6l3-1z" fill="rgba(42, 42, 44, 1)" stroke="none"/>
  <path d="M77 107l1 4 5-1-2 5-1-2-3-1v-5z" fill="rgba(94, 94, 96, 1)" stroke="none"/>
  <path d="M225 105h7l1 5-3-1v-2l-5-1v-1z" fill="rgba(67, 67, 67, 1)" stroke="none"/>
  <path d="M259 34l1 2-5 6-2-1c1.375-2 1.375-2 3-4h2l1-3z" fill="rgba(200, 159, 159, 1)" stroke="none"/>
  <path d="M123 22l5 1v2h-2v2h-3v-5z" fill="rgba(9, 9, 6, 1)" stroke="none"/>
</svg>
</g></svg></g></g>
<!-- /image 82218 -->
</defs><rect x="0" y="0" width="250" height="250" fill="rgba(154, 153, 142, 1)"></rect><use xlink:href="#transformed-82218" transform="translate(-250, -250)"></use><use xlink:href="#transformed-82218" transform="translate(0, -250)"></use><use xlink:href="#transformed-82218" transform="translate(250, -250)"></use><use xlink:href="#transformed-82218" transform="translate(-250, 0)"></use><use xlink:href="#transformed-82218" transform="translate(0, 0)"></use><use xlink:href="#transformed-82218" transform="translate(250, 0)"></use><use xlink:href="#transformed-82218" transform="translate(-250, 250)"></use><use xlink:href="#transformed-82218" transform="translate(0, 250)"></use><use xlink:href="#transformed-82218" transform="translate(250, 250)"></use></svg>