<svg version="1.1"
      xmlns="http://www.w3.org/2000/svg"
      xmlns:xlink="http://www.w3.org/1999/xlink"  id="snapshot-54537" width="250" height="250" viewBox="0 0 250 250"><desc>This image was made on Patterninja.com</desc><defs>
<!-- image 87617 -->
<g id="transformed-87617" data-image="87617" transform="translate(-125, -125) rotate(0, 125, 125)"><g><svg version="1.1" width="250px" height="250px" viewBox="0 0 250 250"><g id="original-87617"><svg xmlns="http://www.w3.org/2000/svg" viewBox="0 0 500 500" xmlns:xlink="http://www.w3.org/1999/xlink" version="1.1" preserveAspectRatio="xMidYMid meet">
  <path d="M187 0c5.04 4.023 7.611 8.419 10.188 14.25.34.76.681 1.519 1.033 2.301A447.375 447.375 0 0 1 201 23l1.176 2.664c5.265 14.125 2.739 35.818-3.069 49.428a129.792 129.792 0 0 1-2.92 5.47c-4.052 7.317-3.635 12.679-1.64 20.613 1.572 6.728 1.372 12.618.578 19.45l-.316 3.043c-.257 2.446-.526 4.89-.809 7.332l1.021-2.154c6.473-13.342 17.495-24.446 30.948-30.772 8.318-2.681 21.149-2.458 29.199.82 4.608 2.781 7.206 6.29 8.945 11.333.934 3.974 1.415 7.834 1.637 11.898l.124 2.233c.353 8.416.362 17.66-4.874 24.642-6.72 4.636-14.687 7.065-22.48 9.264-7.976 2.288-12.74 6.058-17.52 12.736-1.739 3.227-2.897 6.51-4 10l-1.094 3.305c-2.429 8.068-3.41 15.507-3.49 23.91-.134 6.859-1.307 13.149-5.666 18.597C204 229 204 229 200.312 230.5c-1.889.888-1.889.888-3.312 2.5-.867 3.183-1.211 6.28-1.566 9.559-1.283 10.176-6.12 17.58-12.434 25.441l-1.57 2c-3.691 4.518-7.942 8.29-12.43 12l-2.172 1.89c-3.794 2.83-7.831 4.977-12.016 7.173l-2.423 1.314c-5.649 2.98-11.238 4.951-17.389 6.623l-3.688 1.188c-3.67.9-6.55 1.23-10.312.812-2.938-2-2.938-2-5-4l-1 1c-7.924 1.455-15.976 1.088-24 1v2c-3.644 2.43-5.599 2.33-9.938 2.375l-3.714.086C74 303 74 303 71.934 300.914L70 299c-2.913.168-2.913.168-6 1-12.328.768-22.58-.357-32.64-7.902-4.031-3.584-7.285-7.681-10.36-12.098l-1.586-2.238c-12.448-24.312-5.178-60.936 2.303-85.422 1.431-4.377 3.21-8.44 5.349-12.517 1.473-2.874 2.684-5.846 3.934-8.823l1-2h2v-3l-1.7-.277c-8.847-2.78-17.293-12.67-21.612-20.66-3.302-7.411-4.094-15.365-4.75-23.375l-.254-2.963c-.74-9.223-1.064-18.455-1.255-27.705-.145-5.658-.536-11.101-1.44-16.692C1.78 66.453 1.662 58.69 1.683 50.74c.004-2.435-.02-4.87-.045-7.304C1.567 26.164 1.567 26.164 5 19c5.996-3.997 15.197-2.64 22.113-1.277C33.9 19.279 38.887 21.114 44 26c3.026 1.828 6.099 3.548 9.195 5.254C56 33 56 33 58.094 35.223c1.738 1.974 1.738 1.974 4.054 2.02l2.227-.368 2.41-.383c2.344-.473 2.344-.473 5.028-1.492 9.27-2.908 19.767-2.214 29.422-2.24 2.13-.01 4.26-.041 6.39-.072 8.229-.062 15.582.677 23.604 2.665 2.784.76 2.784.76 5.771.647 1.09-1.794 2.177-3.59 3.25-5.395C149.163 17.335 169.4-2.887 187 0zm4 136l1 3zm-2 5l1 2zm-1 2l-1.25 1.941c-3.977 5.957-8.115 10.639-13.75 15.059.533 3.358 1.196 5.63 3.188 8.375 3.98 6.028 6.265 12.904 8.812 19.625h1l-.016-1.813c-.225-29.701-.225-29.701 2.118-36.28.905-2.93.975-4.106-.102-6.907z" fill="rgba(159, 158, 138, 1)" stroke="none"/>
  <path d="M158 97l3 1 .875 2.438c.874 2.71.874 2.71 3.25 3.687L168 105a220.946 220.946 0 0 1 14.945 6.082A150.04 150.04 0 0 0 190 114c.027 1.583.046 3.167.063 4.75l.035 2.672c-.09 2.36-.429 4.323-1.098 6.578h-2l-1.375-1.438c-3.534-3.398-8.23-2.668-12.875-2.624l-3.828.027L166 124c1.117 3.613 1.117 3.613 3.7 6.223l1.988.84C181.44 135.44 181.44 135.44 184 138c.469 3.317.19 4.708-1.66 7.543C166.728 162.729 147.66 169.807 125 173h-3v2l-5 1c6.63-.433 13.084-1.05 19.578-2.477a99.036 99.036 0 0 1 4.844-.921c10.123-1.71 18.96-5.885 27.52-11.465C171 160 171 160 174 160v5l-3-1 .563 3.375C172 171 172 171 171 173h4c9.694 22.964 9.694 22.964 9 33-4.686 6.15-11.784 8.835-19 11l3 1c-.589 5.792-1.703 11.118-3.375 16.688l-.633 2.22c-1.218 4.118-2.666 7.452-4.992 11.092-1.294 2.52-2.513 5.077-3.75 7.625A161.574 161.574 0 0 1 144 275l-2 3h-2v-2l-2.438-.188c-3.282-.748-4.902-1.525-7.687-3.25-4.683-2.78-9.105-3.489-14.469-4.105L113 268c-1.515-3.03-1.17-5.651-1-9l.945-2.355c1.155-2.896 1.65-5.566 2.118-8.645.899-5.827.899-5.827 1.492-8.512.503-2.814.542-5.444.507-8.3l-.027-2.958L117 226l-.297 1.73c-3.236 17.549-3.236 17.549-6.863 23.02-2.855 1.94-6.022 2.56-9.34 3.313-.718.17-1.437.34-2.177.517-6.821 1.594-13.678 2.832-20.593 3.947l-3.293.536-3.003.472c-2.43.35-2.43.35-4.434 1.465l23 1v2l-2.3.402-3.013.536-2.988.527c-2.78.492-2.78.492-5.699 1.535-2.739.07-5.45.094-8.188.063l-2.271-.014c-1.847-.012-3.694-.03-5.541-.049l-.313-3.75c-.545-5.05-1.758-9.845-3.066-14.746C56 246 56 246 56 244l-3 1-3-2v-3l-1.758 1.059c-4.42 2.574-8.045 4.616-13.242 4.941l-2.262.152c-6.225.251-6.225.251-8.508-1.543C23 243 23 243 23 241h-2c-.204-13.673-.065-26.137 5-39 3.558-.93 5.536-1.121 8.875.438 5.466 2.254 10.428 1.943 16.125.562l-1-2-17-1v-2l-6-1c1.035-9.521 4.316-18.21 8-27l-3 1v-2h2v-3l-1.938-.375L30 165l-1-2c2.776.9 5.533 1.817 8.25 2.883C49.424 170.597 61.868 173.91 75 173l-1-3 2-1-1.645-.7c-4.6-2.096-7.269-3.502-9.355-8.3l-1.094-2.191C61.021 151.58 60.145 146.665 62 140c3.255-8.417 6.666-13.685 14.313-18.438 2.418-2.239 2.403-4.37 2.687-7.562 6.434-1.917 12.246-2.276 18.938-2.188l2.9.002c7.021.045 7.021.045 8.162 1.186-.176 2.69-.618 5.329-1 8 2.647 1.46 3.894 2 7 2l-1-2c4.151.714 5.675 2.537 8.34 5.625 3.417 2.83 7.899 2.533 12.16 2.563l2.781.042c2.951-.25 5.077-.905 7.719-2.23l1-2h2l.871-1.75a183.751 183.751 0 0 1 2.164-4.188c3.12-6.265 3.73-12.117 3.965-19.062l3-1v-2z" fill="rgba(160, 159, 138, 1)" stroke="none"/>
  <path d="M191 83l2 1-.102 3.523c-.001 3.508.476 6.683 1.27 10.11 2.583 11.274 1.334 22.003-.168 33.367l.89-1.95c6.662-13.418 17.445-24.564 31.079-30.976 8.318-2.681 21.149-2.458 29.199.82 4.608 2.781 7.206 6.29 8.945 11.333.934 3.974 1.415 7.834 1.637 11.898l.124 2.233c.353 8.416.362 17.66-4.874 24.642-6.72 4.636-14.687 7.065-22.48 9.264-7.976 2.288-12.74 6.058-17.52 12.736-1.739 3.227-2.897 6.51-4 10l-1.094 3.305c-2.429 8.068-3.41 15.507-3.49 23.91-.134 6.859-1.307 13.149-5.666 18.597C204 229 204 229 200.312 230.5c-1.889.888-1.889.888-3.312 2.5-.867 3.183-1.211 6.28-1.566 9.559-1.283 10.176-6.12 17.58-12.434 25.441l-1.57 2c-3.691 4.518-7.942 8.29-12.43 12l-2.172 1.89c-3.794 2.83-7.831 4.977-12.016 7.173l-2.423 1.314c-5.649 2.98-11.238 4.951-17.389 6.623l-3.688 1.188c-3.67.9-6.55 1.23-10.312.812-2.938-2-2.938-2-5-4l-1 1c-7.924 1.455-15.976 1.088-24 1v2c-3.644 2.43-5.599 2.33-9.938 2.375l-3.714.086C74 303 74 303 71.934 300.914L70 299c-2.913.168-2.913.168-6 1-12.328.768-22.58-.357-32.64-7.902-4.031-3.584-7.285-7.681-10.36-12.098l-1.586-2.238c-12.448-24.312-5.178-60.936 2.303-85.422 1.432-4.38 3.214-8.437 5.367-12.51.944-1.887 1.675-3.794 2.416-5.768L31 171c2.094-.691 2.094-.691 4-1a1784.751 1784.751 0 0 1-6.133 20.117A118.891 118.891 0 0 0 27 197l6 1v2h17l1 3c-4.738 2.297-9.038 2.88-14.156 1.36-2.69-.995-5.28-2.078-7.844-3.36l-1 2-2-1-.402 2.117-.535 2.758-.528 2.742C24 212 24 212 23 214a155.48 155.48 0 0 0-.535 6.102l-.264 3.671-.264 3.852-.275 3.875c-.224 3.166-.445 6.333-.662 9.5h2l1 4c10.525.348 17.736-1.037 27-6l-1 4 6 1c2.486 7.802 4.57 14.736 4 23 2.543-.115 5.083-.241 7.625-.375l2.16-.094C74.201 266.288 77.8 265.48 82 264c2.71-.227 5.271-.094 8 0v-2H65c3.881-2.91 4.934-3.422 9.438-4.027 6.57-.965 13.053-2.219 19.562-3.536l3.348-.67C103.7 252.5 103.7 252.5 110 251l.586-2.195.789-2.93.773-2.883a103.116 103.116 0 0 1 1.883-5.93c1.048-3.31 1.603-6.501 2.094-9.937l.508-3.492L117 221h1c.352 16.114.352 16.114-2 24a139.12 139.12 0 0 0-.5 4.688c-.246 2.629-.52 4.357-1.563 6.812-1.417 3.78-1.094 7.507-.937 11.5l2.938-.188c6.99.015 13.271 3.101 19.335 6.32 1.892 1.003 1.892 1.003 4.727 1.868v2h2l.86-1.747a165.652 165.652 0 0 1 3.382-6.3l1.293-2.312 2.656-4.735a270.834 270.834 0 0 0 6.91-13.15C158 248 158 248 159.59 245.52c1.935-3.459 2.912-7.03 3.972-10.833.209-.72.417-1.442.631-2.185 1.376-4.809 2.616-9.644 3.807-14.502h-6c3.1-2.067 5.953-3.203 9.438-4.5 2.193-.818 4.38-1.65 6.562-2.5l2.352-.914c2.126-1.132 2.126-1.132 2.585-4.961.631-9.631-3.39-18.755-6.949-27.508C175 175 175 175 175 173h-4v-9c3.377.944 4.736 1.599 6.695 4.574l1.43 3.113 1.445 3.075A810.81 810.81 0 0 1 185 185l-.035-3.7c-.17-25.4-.17-25.4 3.035-36.3l-1.32 1.793c-5.278 7.002-10.556 11.825-18.336 15.898-2.485 1.339-2.485 1.339-5.223 3.297-8.74 5.633-18.526 7.502-28.7 8.61-2.91.342-5.64.835-8.483 1.527-3.371.817-6.453 1.054-9.938.875l1-2h5v-2l2-.411c3.023-.626 6.043-1.264 9.063-1.901l3.146-.647c5.615-1.194 10.592-2.62 15.791-5.041l3.188-.688c10.298-2.8 21.87-12.524 27.812-21.312.917-2.455.917-2.455 0-5-3.504-3-7.648-4.917-11.875-6.688C168 130 168 130 166 128v-4c5.805-1.935 12.53-1.953 18.188.5L187 126v2h2l1-14-5-1a76.55 76.55 0 0 1-4.313-1.875c-2.928-1.347-5.844-2.59-8.875-3.688-6.861-2.566-6.861-2.566-9.812-4.437-1.063-2.5-1.063-2.5-1-5 1.43-2.223 2.508-2.863 5.043-3.57 4.059-.59 8.049-.575 12.144-.555l2.483-.012c6.077.01 6.077.01 8.33 1.137l-1-10h2l1-2zm0 53l1 3zm-2 5l1 2z" fill="rgba(40, 37, 37, 1)" stroke="none"/>
  <path d="M35 170a1784.751 1784.751 0 0 1-6.133 20.117A118.891 118.891 0 0 0 27 197l6 1v2h17l1 3c-4.738 2.297-9.038 2.88-14.156 1.36-2.69-.995-5.28-2.078-7.844-3.36l-1 2-2-1-.402 2.117-.535 2.758-.528 2.742C24 212 24 212 23 214a155.48 155.48 0 0 0-.535 6.102l-.264 3.671-.264 3.852-.275 3.875c-.224 3.166-.445 6.333-.662 9.5h2l1 4c10.525.348 17.736-1.037 27-6l-1 4 6 1c2.486 7.802 4.57 14.736 4 23 2.543-.115 5.083-.241 7.625-.375.713-.03 1.426-.062 2.16-.094C74.201 266.288 77.8 265.48 82 264c2.71-.227 5.271-.094 8 0v-2H65c3.881-2.91 4.934-3.422 9.438-4.027 6.57-.965 13.053-2.219 19.562-3.536 1.105-.22 2.21-.442 3.348-.67C103.7 252.5 103.7 252.5 110 251l.586-2.195.789-2.93.773-2.883a103.116 103.116 0 0 1 1.883-5.93c1.048-3.31 1.603-6.501 2.094-9.937l.508-3.492L117 221h1c.352 16.114.352 16.114-2 24a139.12 139.12 0 0 0-.5 4.688c-.246 2.629-.52 4.357-1.563 6.812-1.417 3.78-1.094 7.507-.937 11.5l2.938-.188c6.99.015 13.271 3.101 19.335 6.32 1.892 1.003 1.892 1.003 4.727 1.868v2h2l.86-1.747a165.652 165.652 0 0 1 3.382-6.3l1.293-2.312 2.656-4.735a270.36 270.36 0 0 0 6.91-13.15C158 248 158 248 159.59 245.526c1.95-3.496 2.913-7.12 3.972-10.964 4.02-14.246 4.02-14.246 6.75-16.313C173 217 173 217 175.5 216.125c3.258-1.466 5.156-3.456 7.5-6.125l1-3h3c1.92 8.398 2.226 16.404 2 25-12.375 4.125-12.375 4.125-16.688 4.063l-2.449-.028L168 236l-1 2c3.739 1.87 7.93 1.558 12 1 2.35-1.11 4.317-2.365 6.406-3.906C187 234 187 234 189 234c1.014 10.186-2.536 18.516-8 27a281.771 281.771 0 0 1-5 5 312.38 312.38 0 0 0-4.668 5.645L170 273h-2l-1 3c-6.431 6.123-15.45 14.365-24.254 16.563L141 293l-1 2h5c-3.254 2.17-6.001 3.039-9.75 4.125l-3.61 1.07c-3.714.821-6.85 1.09-10.64.805-2.938-2-2.938-2-5-4l-1 1c-7.924 1.455-15.976 1.088-24 1v2c-3.644 2.43-5.599 2.33-9.938 2.375l-3.714.086C74 303 74 303 71.934 300.914L70 299c-2.913.168-2.913.168-6 1-12.328.768-22.58-.357-32.64-7.902-4.031-3.584-7.285-7.681-10.36-12.098l-1.586-2.238c-12.448-24.312-5.178-60.936 2.303-85.422 1.431-4.377 3.211-8.436 5.355-12.51.958-1.89 1.76-3.804 2.553-5.768C31.449 170 31.449 170 35 170z" fill="rgba(78, 77, 59, 1)" stroke="none"/>
  <path d="M97.938 111.813l2.9.001c7.021.045 7.021.045 8.162 1.186-.176 2.69-.618 5.329-1 8l1.875.938L114 124v2l1.625.75c2.957 1.557 5.672 3.284 8.375 5.25v2h2c3.921 8.822 3.275 17.542 3 27l-3 1-1 3c-7.278 6.54-18.003 8.571-27.516 8.223C87.065 172.289 73.704 170.546 66 163c-3.551-6.33-6.034-13.176-4.773-20.453 2.848-9.38 6.788-15.827 15.086-20.984 2.418-2.24 2.403-4.37 2.687-7.563 6.434-1.917 12.246-2.276 18.938-2.188z" fill="rgba(205, 203, 178, 1)" stroke="none"/>
  <path d="M170 8c-1.503 4.208-4.233 5.803-8 8h-2v2c-3.462 3-3.462 3-6 3l-.809 1.742c-1.232 2.335-2.64 4.297-4.254 6.383-2.17 2.811-2.17 2.811-3.937 5.875h-2l-.75 3.25c-1.297 3.89-2.404 4.993-5.25 7.75-1.542 3.598-2.208 7.168-2.875 11-.888 4.451-1.826 7.701-5.125 11-3.104.86-4.68.58-8 0-2.831-3.124-3.913-7.269-5.254-11.23-.703-1.978-.703-1.978-2.746-3.77l-.113 3.805c-.784 21.69-.784 21.69-5.395 26.898-3.037 2.48-5.279 3.26-9.18 3.922C95 87 95 87 92.689 84.937 87.377 75.695 87.797 64.379 88 54h-3l-.809 1.707c-1.272 2.45-2.713 4.69-4.254 6.98l-1.597 2.387C77 67 77 67 76 68c-5.841.37-5.841.37-8 0-2.016-3.024-2.255-3.627-2.266-7.02l-.007-2.35.023-2.443-.023-2.408c.015-4.652.498-8.404 2.273-12.779l-2.047.176c-2.722.137-5.248.17-7.953-.176-2.313-2.25-2.313-2.25-4-5a115.013 115.013 0 0 0-5-4c6.563.505 6.563.505 8.875 3.125 1.908 2.074 1.908 2.074 4.156 1.984 3.447-.344 6.513-.947 9.782-2.109 9.27-2.908 19.767-2.214 29.422-2.24 2.13-.01 4.26-.041 6.39-.073 8.229-.06 15.582.678 23.604 2.666 2.784.76 2.784.76 5.771.647 1.087-1.789 2.17-3.58 3.234-5.383C145.58 22.695 159.464 4.488 170 8z" fill="rgba(96, 94, 70, 1)" stroke="none"/>
  <path d="M35 170a1784.751 1784.751 0 0 1-6.133 20.117A118.891 118.891 0 0 0 27 197l6 1v2h17l1 3c-4.738 2.297-9.038 2.88-14.156 1.36-2.69-.995-5.28-2.078-7.844-3.36l-1 2-2-1-.402 2.117-.535 2.758-.528 2.742C24 212 24 212 23 214a155.48 155.48 0 0 0-.535 6.102l-.264 3.671-.264 3.852-.275 3.875c-.224 3.166-.445 6.333-.662 9.5h2l1 4c10.525.348 17.736-1.037 27-6l-1 4 6 1 .184 3.078c.172 2.87.357 5.74.546 8.61.167 2.544.296 5.075.383 7.625.476 10.218 4.22 18.78 9.969 27.164C68 292 68 292 68 294c-14.756.405-24.885-2.392-37-11l1 3h-2c2.914 3.231 5.577 4.969 9.563 6.688l2.878 1.261c3.791 1.557 6.809 2.21 10.883 2.367l3.115.127 3.248.12 3.284.13c2.676.106 5.352.209 8.029.307l1 2c-13.234 2.117-26.601 2.415-38.188-5.063C28.611 290.038 24.7 285.315 21 280l-1.586-2.238c-12.448-24.312-5.178-60.936 2.303-85.422 1.431-4.377 3.211-8.436 5.355-12.51.958-1.89 1.76-3.804 2.553-5.768C31.449 170 31.449 170 35 170z" fill="rgba(158, 158, 137, 1)" stroke="none"/>
  <path d="M210 118c4.548.551 8.366 2.244 12 5 2.188 3 2.188 3 4 6l2.063 2.063c4.954 4.954 7.699 12.045 8.125 19L236 152l-1.652.594c-9.689 3.842-16.468 9.95-21.067 19.34-4.762 11.397-5.78 21.904-5.866 34.147-.087 6.137-.195 12.495-3.415 17.919-2.108 1.242-2.108 1.242-4 2v2l-5 1-.262-2.21c-1.05-7.807-2.815-15.154-5.061-22.696l-.654-2.223-.596-1.97C188 198 188 198 188 194h2l-.032-2.149c-.25-19.479.01-35.89 8.032-53.851l1.469-3.566c1.482-3.324 3.144-6.302 5.094-9.371l1.816-2.903L208 120h2v-2z" fill="rgba(95, 94, 75, 1)" stroke="none"/>
  <path d="M257 100c4.63 3.887 6.966 8 8 14 .135 3.01.123 5.99 0 9h-1v-5h-3l-.148 3.184c-1 19.507-1 19.507-4.16 23.446-1.922 1.556-3.537 2.219-5.887 2.975l-2.418.791-2.512.792-2.535.826C237.197 152 237.197 152 236 152l-.332-1.758c-1.22-6.01-3.133-10.74-6.356-15.992C228 132 228 132 228 130l-1.875-.75C224 128 224 128 223.113 126.086c-1.342-2.515-2.602-3.297-5.05-4.711l-2.09-1.227L214 119l-3-2c1.375-1.5 1.375-1.5 3-3h2v-2l2.938-1.813c3.263-1.869 3.263-1.869 3.937-4.937L223 103l-3-1c8.167-7.487 27.719-7.6 37-2z" fill="rgba(94, 93, 69, 1)" stroke="none"/>
  <path d="M126 85h3v2c1.423-.03 1.423-.03 2.875-.063C135 87 135 87 137 88v-3c6.197 1.2 11.217 5.501 15 10.438 3.375 6.001 3.008 12.939 2 19.562-1.51 3.75-3.273 6.998-6 10h-2l-1 3c-5.999 3.163-12.893 2.633-19.375 1.313-4.006-2.004-6.732-4.533-8.75-8.555-2.297-7.241-2.14-17.736 1.125-24.758 4.911-7.911 4.911-7.911 8-11z" fill="rgba(11, 10, 9, 1)" stroke="none"/>
  <path d="M87 125v2l2.938-.563L93 126c1.956 1.956 1.185 5.586 1.188 8.25l.037 2.027c.014 4.956-.394 8.725-3.81 12.453l-1.79 1.458-1.773 1.48c-3.96 2.849-6.912 3.95-11.852 3.332-2.375-1.375-2.375-1.375-4-4-.828-4.932-.833-9.376 2-13.625L75 135c-4.47 3.422-4.47 3.422-6.469 8.45-.053 4.477.174 8.597 2.469 12.55l2 1 1 3h14l1-3 1 5 1-2v3l1.68-.438 2.195-.562 2.18-.563C99 161 99 161 101 161l2.125-.5c6.507-1.132 11.701-.558 17.875 1.5l-3 1 1.5 1.375C121 166 121 166 121 168c-16.025 7.501-30.544 5.023-47.055.195-4.506-1.829-7.167-3.809-9.562-8.078-3.357-8.653-4.572-14.497-1.172-23.226 3.05-6.616 5.906-11.755 12.789-14.766 4.356-.272 7.379.46 11 2.875z" fill="rgba(206, 204, 178, 1)" stroke="none"/>
  <path d="M191 83l2 1-.102 3.523c-.001 3.507.476 6.682 1.27 10.11 2.429 10.6 1.408 20.472-.05 31.163-.233 2.208-.233 2.208.444 4.289.72 3.145-1.034 5.225-2.562 7.915h-2a91.522 91.522 0 0 0-3.125 5.062c-4.843 7.796-10.472 12.545-18.602 16.7-2.428 1.271-2.428 1.271-5.144 3.218-8.74 5.641-18.531 7.51-28.707 8.618-2.911.342-5.642.835-8.484 1.527-3.371.817-6.453 1.054-9.938.875l1-2h5v-2l2-.411c3.023-.626 6.043-1.264 9.063-1.902l3.146-.646c5.615-1.194 10.592-2.62 15.791-5.041l3.188-.688c10.298-2.8 21.87-12.524 27.812-21.312.917-2.455.917-2.455 0-5-3.504-3-7.648-4.917-11.875-6.688C168 130 168 130 166 128v-4c5.805-1.935 12.53-1.953 18.188.5L187 126v2h2l1-14-5-1a76.55 76.55 0 0 1-4.312-1.875c-2.929-1.347-5.845-2.59-8.875-3.688-6.862-2.566-6.862-2.566-9.813-4.437-1.062-2.5-1.062-2.5-1-5 1.43-2.223 2.508-2.863 5.043-3.57 4.059-.59 8.049-.575 12.145-.555l2.482-.012c6.077.01 6.077.01 8.33 1.137l-1-10h2l1-2zm0 53l1 3z" fill="rgba(97, 96, 74, 1)" stroke="none"/>
  <path d="M108 251l2 1c-2.547 9.155-5.816 17.48-10 26h-2v3h-2l-.266 1.656c-.966 3.086-2.579 5.237-4.484 7.844l-2.047 2.844C87.011 295.987 84.752 297.96 82 300c-1.938-.813-1.938-.813-4-2l-1-3-3-1c-2.075-2.92-3-4.375-3-8h-2c-3.612-6.103-6.713-11.954-8-19l3.07-.148 4.055-.227c.665-.03 1.33-.062 2.016-.094C74.423 266.28 77.97 265.404 82 264c2.71-.227 5.271-.094 8 0v-2H65c3.88-2.91 4.93-3.422 9.43-4.027 6.613-.972 13.142-2.221 19.695-3.536 1.121-.22 2.243-.442 3.398-.67l3.235-.646 2.91-.58c2.338-.447 2.338-.447 4.332-1.541z" fill="rgba(158, 157, 136, 1)" stroke="none"/>
  <path d="M224 103c-1.467 5.5-1.467 5.5-4 7.875-2 1.125-2 1.125-4 1.125v2a262.496 262.496 0 0 1-5 4l-1 2h-2l-.828 1.734c-1.18 2.282-2.522 4.364-3.922 6.516-9.961 16.48-12.175 34.437-12.813 53.313l-.13 3.634c-.106 2.934-.208 5.869-.307 8.803h-2l.643 2.244c.964 3.394 1.91 6.794 2.857 10.193l1.012 3.53c1.812 6.564 2.896 12.223 2.488 19.033l2.313-1.063C200 227 200 227 203 228c-4.625 3-4.625 3-8 3l-1 12-5-1v-8l-1.836 1.313c-6.026 4.004-10.877 6.077-18.164 4.687l-3-2 1-6 1 4c1.813-.288 3.625-.58 5.438-.875l3.058-.492c4.192-.757 8.346-1.709 12.504-2.633l-2-25h-3l-.188 1.688c-1.474 4.195-4.533 6.673-8.437 8.625C173 218 173 218 170 218l-1 4-1-4h-6c3.1-2.067 5.953-3.203 9.438-4.5 2.193-.818 4.38-1.65 6.562-2.5l2.352-.914c2.126-1.132 2.126-1.132 2.585-4.961.631-9.631-3.39-18.755-6.949-27.508C175 175 175 175 175 173h-4v-9c3.377.944 4.736 1.599 6.695 4.574l1.43 3.113 1.445 3.075A810.81 810.81 0 0 1 185 185l-.035-3.7c-.2-28.842-.2-28.842 5.035-40.3l2-1c1.423-2.846 2-4.994 2.188-8.188 2.205-10.349 12.597-21.076 20.98-27.082 5.532-3.38 5.532-3.38 8.832-1.73z" fill="rgba(13, 12, 9, 1)" stroke="none"/>
  <path d="M189 234c1.014 10.186-2.536 18.516-8 27a281.771 281.771 0 0 1-5 5 312.38 312.38 0 0 0-4.668 5.645L170 273h-2l-1 3c-6.431 6.123-15.45 14.365-24.254 16.563L141 293l-1 2h5c-2.855 1.903-4.42 2.462-7.688 3.125l-2.449.508L133 299c.58-3.661 2.013-5.366 4.563-8 7.011-7.651 12.293-16.371 17.113-25.527C156 263 156 263 157.469 260.797c2.197-4.014 3.4-8.241 4.719-12.61l.826-2.677c.668-2.168 1.33-4.338 1.986-6.51l2.781.176c7.074.26 12.066.379 17.766-4.082C187 234 187 234 189 234z" fill="rgba(154, 155, 137, 1)" stroke="none"/>
  <path d="M5 72c6.258 9.387 4.626 24.082 5 35 3.112.224 3.112.224 6-1.5 4.733-2.124 9.912-2.326 15-1.5 2.391 1.812 2.925 2.497 3.375 5.5-.464 3.094-.94 3.574-3.375 5.5a129.05 129.05 0 0 1-7.438 3.063c-3.944 1.51-7.777 3.044-11.562 4.937l1 9c4.215 1.075 4.215 1.075 7.813-.438C24.77 129.93 27.747 129.734 32 130l1 5-1.61.594c-5.17 2.19-7.505 4.33-9.894 9.406-.6 2.417-.381 3.685.504 6 2.428 2.766 4.653 4.792 7.813 6.688L32 159v2l3.29.781c6.429 1.607 12.727 3.66 19.046 5.653 5.568 1.725 11.028 3.128 16.788 4.056L73 172l1 2c-15.96 1.241-37.8-4.256-50.563-13.945C10.64 148.61 7.23 137.827 6 121c-.173-3.93-.252-7.86-.316-11.793l-.063-3.249c-.065-3.381-.124-6.763-.184-10.145l-.13-6.932C5.2 83.254 5.098 77.627 5 72z" fill="rgba(95, 95, 71, 1)" stroke="none"/>
  <path d="M183.188 24.938L187 25v2l3 1c.192 3.652-.142 6.825-.977 10.355-1.585 7.683-1.449 15.457-1.59 23.272l-.09 3.525-.056 3.188C187 71 187 71 185 74c-2.948 1.028-4.962 1.415-7.914.234-4.79-2.64-4.79-2.64-6.086-5.234h3v-2l-1.688-.813L170 65l-2.5-1.25c-3.068-2.148-4.567-4.574-6.5-7.75l-1-1c.05-1.89.05-1.89.313-4.25l.238-2.328c.935-5.043 2.868-8.235 6.324-11.984l2.055-2.254a166.635 166.635 0 0 1 4.265-4.336c1.873-1.73 1.873-1.73 2.805-3.848 2.75-.917 4.36-1.109 7.188-1.063z" fill="rgba(227, 198, 147, 1)" stroke="none"/>
  <path d="M17 35c5.645.32 8.433 2.694 12.188 6.625l1.576 1.543c3.987 4.064 6.895 8.246 7.45 14.09C37.517 61.963 36.177 64.526 33 68l-1 3h-2l-1 3c-2.258 2.297-2.258 2.297-5.125 4.75l-2.82 2.484c-3.841 2.22-5.83 1.798-10.055.766-2.436-6.504-2.368-12.439-2.375-19.313l-.074-3.591C8.518 49.34 10.372 42.338 17 35z" fill="rgba(225, 197, 148, 1)" stroke="none"/>
  <path d="M59 77c-4.75 4-4.75 4-7 4-1.52 4.916-1.52 4.916-2 10l-2 2h5l-1 10 5-1v-7h-3v-2c2-1.625 2-1.625 4-3l.813 2.75c1.083 2.965 2.17 4.867 4.187 7.25 3.29-.379 3.29-.379 6-2 .421-5.671.421-5.671-1-11-2.996-1.305-2.996-1.305-6-2l1-2h4l-2-1v-2c3.68.56 5.217 1.903 7.625 4.688l1.79 2.011C79.054 93.431 78.587 101.152 78 109c-.984 4.559-2.415 8.123-5 12h-2l-1 3c-5.724 3.105-11.643 3.303-18 3v-4l1.906-.262C60.136 121.716 65.06 120.025 70 116l1-2-2.938 2c-4.279 2.422-8.235 3.058-13.062 2-2.992-2.244-4.572-3.782-5.813-7.313L49 109h-4v2h-2c-2.323-6.97-1.894-16.189 1-23 3.768-6.86 6.615-11.466 15-11z" fill="rgba(11, 11, 11, 1)" stroke="none"/>
  <path d="M117 237h1v7l1.688.375c2.312.625 2.312.625 4.437 1.563 2.593.958 4.918 1.497 7.625 2 3.387.63 6.515 1.443 9.75 2.625 4.765 1.687 9.477 2.133 14.5 2.437-9.706 20.077-9.706 20.077-14 25h-2v-2l-2.438-.188c-3.282-.748-4.902-1.525-7.687-3.25-4.683-2.78-9.105-3.489-14.469-4.105L113 268c-1.515-3.03-1.17-5.651-1-9l.945-2.355c1.155-2.896 1.65-5.566 2.118-8.645.569-3.688 1.178-7.346 1.937-11z" fill="rgba(156, 155, 134, 1)" stroke="none"/>
  <path d="M117 221h1c.352 16.114.352 16.114-2 24a139.12 139.12 0 0 0-.5 4.688c-.33 3.454-1.149 6.103-2.5 9.312-.381 2.326-.725 4.66-1 7h-2l-.207 1.95c-1.132 4.353-3.275 7.963-5.48 11.863l-1.28 2.33C100.128 287.336 97.061 292.613 93 297h-2l-.938 2.438C89 302 89 302 88 303c-2.286.205-4.58.314-6.875.375l-3.805.148L74 303l-1.262-2.492c-1.45-2.716-1.45-2.716-3.92-2.932-2.925-.115-5.83-.114-8.755-.076-11.885-.165-20.414-2.264-30.063-9.5l1-5c2.938 1.037 5.278 2.188 7.875 3.938 6.609 4.361 12.293 5.606 20.063 6.25l2.65.248c2.136.198 4.274.382 6.412.564l-1.137-1.766C57.395 277.065 54.737 262.69 55 245c2 1 2 1 2.816 3.406 2.255 9.349 2.255 9.349 2.621 14.219.653 7.338 4.25 13.907 7.563 20.375l1 3h2c3 5.75 3 5.75 3 8h6l-3 1 3 4c6.668-2.717 11.134-9.152 15-15l1-3h2v-3h2l.25-2c.75-3 .75-3 2.54-6.398 2.805-5.508 4.516-11.336 6.335-17.227l2.07-6.602.907-2.924a269.677 269.677 0 0 1 1.971-5.995c1.05-3.233 1.572-6.366 2.052-9.729l.508-3.492L117 221z" fill="rgba(17, 16, 13, 1)" stroke="none"/>
  <path d="M210 118c4.548.551 8.366 2.244 12 5 2.188 3 2.188 3 4 6l2.063 2.063c4.954 4.954 7.699 12.045 8.125 19L236 152c-1.41.702-2.828 1.386-4.25 2.063l-2.39 1.16c-2.648.872-3.834.934-6.36-.223l-1-3-3-1-1-2c-6.76-3.938-13.208-5.814-21-6 1.182-8.01 4.415-13.404 9-20l2-3h2v-2z" fill="rgba(159, 158, 137, 1)" stroke="none"/>
  <path d="M35 170a1784.751 1784.751 0 0 1-6.133 20.117A118.891 118.891 0 0 0 27 197l6 1v2h17l1 3c-4.738 2.297-9.038 2.88-14.156 1.36-2.69-.995-5.28-2.078-7.844-3.36l-1 2-2-1-.402 2.117-.535 2.758-.528 2.742C24 212 24 212 23 214a210.65 210.65 0 0 0-.5 6.813c-.395 6.697-.395 6.697-1.016 9.597-1.915 10.239-.774 21.553.766 31.778l.331 2.316C23.49 269.94 25.352 274.17 28 279l-4 3c-5.188-8.832-9.442-16.567-10-27l-.124-1.998c-1.306-24.034 1.86-51.624 13.196-73.173.958-1.889 1.76-3.803 2.553-5.767C31.449 170 31.449 170 35 170z" fill="rgba(24, 20, 19, 1)" stroke="none"/>
  <path d="M196 142c9.19.036 17.876 2.266 24.797 8.66 1.328 1.59 1.328 1.59 3.203 4.34l2 2-1.54 1.145c-7.077 5.659-12.033 12.769-13.46 21.855l-1-4h-2v-2l-1.719-.84c-3.085-1.569-6.065-3.31-9.062-5.039-2.088-1.055-3.935-1.66-6.219-2.121.277-8.705 1.547-15.986 5-24z" fill="rgba(160, 160, 139, 1)" stroke="none"/>
  <path d="M170 8c-1.503 4.208-4.233 5.803-8 8h-2v2c-3.462 3-3.462 3-6 3l-.809 1.742c-1.232 2.335-2.64 4.297-4.254 6.383-2.17 2.811-2.17 2.811-3.937 5.875h-2l-.938 3.438C141 42 141 42 140 43c-3.585.527-4.869.09-7.912-1.981-5.142-3.019-10.552-2.622-16.365-2.628l-3.535-.05c-3.709-.049-7.417-.07-11.126-.091-2.521-.028-5.042-.058-7.564-.09-6.166-.074-12.332-.125-18.498-.16 4.346-3.45 6.533-3.273 12-3v-2c4.443-.075 8.886-.13 13.33-.165 1.505-.015 3.01-.035 4.515-.061 9.19-.157 17.45.338 26.41 2.576 2.761.765 2.761.765 5.745.65 1.087-1.789 2.17-3.58 3.234-5.383C145.58 22.695 159.464 4.488 170 8z" fill="rgba(62, 58, 53, 1)" stroke="none"/>
  <path d="M224 103c-1.467 5.5-1.467 5.5-4 7.875-2 1.125-2 1.125-4 1.125v2a262.496 262.496 0 0 1-5 4l-1 2h-2l-.828 1.734c-1.18 2.282-2.522 4.364-3.922 6.516-2.69 4.45-4.676 8.962-6.5 13.813l-.745 1.963c-3.86 10.609-4.718 21.365-5.63 32.536l-.406 4.792c-.33 3.881-.651 7.763-.969 11.646h-1c-1.978-38.895-1.978-38.895 2-52l2-1c1.423-2.846 2-4.994 2.188-8.188 2.205-10.349 12.597-21.076 20.98-27.082 5.532-3.38 5.532-3.38 8.832-1.73z" fill="rgba(16, 13, 12, 1)" stroke="none"/>
  <path d="M189 234c.806 8.098-.647 15.044-5 22-5.177 2.9-12.122 2.59-18 2-2.836-1.016-2.836-1.016-5-2 .55-6.048 1.904-11.306 4-17l2.781.176c7.074.26 12.066.379 17.766-4.082C187 234 187 234 189 234z" fill="rgba(160, 159, 139, 1)" stroke="none"/>
  <path d="M187 0c4.914 4.202 7.595 8.382 10.188 14.25.51 1.14.51 1.14 1.033 2.301A447.375 447.375 0 0 1 201 23l1.176 2.664c4.323 11.597 2.27 25.625.074 37.461l-.475 2.581C200.583 71.528 198.615 76.671 196 82h-3c.475-3.61 1.287-6.848 2.488-10.266 1.906-6.293 2.16-12.53 2.33-19.074.057-2.026.145-4.05.237-6.074.358-11.407-1.291-21.037-6.618-31.148l-1.816-3.504C188.02 8.939 188.02 8.939 186 6l-3.063.438L172 8V5l6-2V1c3.418-1.14 5.418-1.492 9-1z" fill="rgba(67, 62, 61, 1)" stroke="none"/>
  <path d="M27.113 17.723C33.867 19.274 39.121 20.989 44 26c2.216 1.279 2.216 1.279 4 2v4c-3.482-.61-6.571-1.52-9.844-2.848C27.756 25.062 19.288 21.802 8 23c-.579 7.713-1.061 15.408-1.246 23.14l-.05 2.025c-.067 2.73-.13 5.459-.18 8.188-.04 2.034-.092 4.067-.145 6.1l-.076 3.599C6 69 6 69 4 72c-2.155-4.366-2.307-8.422-2.3-13.195l-.014-2.388a826.266 826.266 0 0 1-.002-4.998c.003-2.515-.02-5.029-.045-7.544C1.567 26.092 1.567 26.092 5 19c5.996-3.997 15.197-2.64 22.113-1.277z" fill="rgba(25, 21, 18, 1)" stroke="none"/>
  <path d="M193 25c1.875.5 1.875.5 4 2 2.61 7.068 2.132 14.208 1.833 21.628-.083 2.13-.145 4.26-.204 6.392a5758997233.74 5758997233.74 0 0 0-.278 7.808c-.325 2.937-.816 4.687-2.351 7.172v-2h-2l-1 3-3-1-1 2-2-1c-.059-4.292-.094-8.583-.125-12.875l-.05-3.648c-.04-7.093.421-13.6 2.175-20.477l.503-2.085c.773-2.98 1.284-4.702 3.497-6.915z" fill="rgba(158, 158, 137, 1)" stroke="none"/>
  <path d="M96.313 275.938L100 276v2h-2v3h-2l-.266 1.656c-.966 3.086-2.579 5.237-4.484 7.844l-2.047 2.844C87.011 295.987 84.752 297.96 82 300c-1.938-.813-1.938-.813-4-2l-1-3-3-1c-2.075-2.92-3-4.375-3-8h-2c-3-3.462-3-3.462-3-6h2v-2c1.97-.09 1.97-.09 3.98-.184l5.207-.253 2.62-.12c5.545-.276 10.984-1.6 16.505-1.505z" fill="rgba(94, 93, 71, 1)" stroke="none"/>
  <path d="M65 182c2.649 1.013 5.135 2.074 7.625 3.438 18.354 8.497 41.468 7.603 60.215 1.105 1.387-.513 2.774-1.027 4.16-1.543a975.466 975.466 0 0 1 6-2c-1.778 5.334-7.416 7.63-12.21 10.172-8.968 4.208-17.875 6.589-27.79 5.828l-3.727-.281c-9.151-.85-16.84-2.935-25.273-6.719v-2l-1.688-.188c-3.303-1.16-5.03-3.214-7.312-5.812v-2z" fill="rgba(97, 97, 72, 1)" stroke="none"/>
  <path d="M184 207h3c1.92 8.398 2.226 16.404 2 25-12.375 4.125-12.375 4.125-16.688 4.063l-2.449-.028L168 236c-.464-12.529-.464-12.529 2-18 1.963-1.27 3.702-1.784 5.96-2.363 3.224-1.007 4.938-3.089 7.04-5.637l1-3z" fill="rgba(160, 159, 139, 1)" stroke="none"/>
  <path d="M94 123c3.533 3.098 3.508 6.017 3.813 10.5.696 7.372 2.493 13.564 7.187 19.5 4.566 1.522 8.399 1.747 12.813-.313 2.712-2.092 4.031-3.754 4.601-7.167l.211-2.708.227-2.73L123 138c2.477 3.715 2.435 6.696 2 11-1 3-1 3-2 5h-2l-1 3c-3.842 2.55-7.735 2.644-12.234 2.59-4.902-1.045-7.13-4.57-9.766-8.59l-2-3-.938 2.125c-3.435 4.789-7.85 8.2-13.699 9.43-4.577.232-6.698-.053-10.425-2.868-3.054-4.235-3.438-8.007-3.438-13.101.87-4.496 3.994-6.885 7.5-9.586 0 3 0 3-1.477 4.871-1.854 2.591-1.927 4.038-1.898 7.191l-.023 2.598c.474 2.787 1.152 3.67 3.398 5.34 5.094.948 8.053-.91 12.168-3.613 3.403-2.576 4.987-4.16 5.832-8.387.141-1.513.245-3.03.316-4.547l.127-2.558.12-2.645.13-2.691c.106-2.186.208-4.373.307-6.559z" fill="rgba(16, 15, 10, 1)" stroke="none"/>
  <path d="M178.188 93.875l2.482-.012c6.077.01 6.077.01 8.33 1.137 1.39 6.259 1.094 12.62 1 19-3.372-.579-6.221-1.417-9.313-2.875-2.928-1.347-5.844-2.59-8.875-3.688-6.861-2.566-6.861-2.566-9.812-4.437-1.063-2.5-1.063-2.5-1-5 1.43-2.223 2.508-2.863 5.043-3.57 4.059-.59 8.049-.575 12.144-.555z" fill="rgba(98, 97, 74, 1)" stroke="none"/>
  <path d="M261 117l3 1v5h2c-.717 20.16-.717 20.16-4 25-7.06 6.437-19.86 10.757-29.36 11.133L230 159h-2v2l-5-2c3.751-4.281 6.827-5.985 12.25-7.625l4-1.238L243 149c1.752-.598 3.503-1.2 5.25-1.813C252 146 252 146 255 146l1-3h2c.819-6.552 1.283-13.085 1.607-19.678.285-5.214.285-5.214 1.393-6.322z" fill="rgba(39, 35, 35, 1)" stroke="none"/>
  <path d="M115 253l1.54 1.207 2.085 1.606 2.04 1.582c5.729 3.938 10.952 5.306 17.71 6.293l2.52.392c2.033.316 4.069.62 6.105.92-.624 5.413-1.536 8.696-5 13h-2v-2l-2.438-.188c-3.282-.748-4.902-1.525-7.687-3.25-4.683-2.78-9.105-3.489-14.469-4.105L113 268c-1.536-3.072-1.227-5.602-1-9 1.5-3.438 1.5-3.438 3-6z" fill="rgba(159, 159, 138, 1)" stroke="none"/>
  <path d="M110 267c2.071 3.107 2.445 4.76 3 8.375.591 3.833 1.56 7.035 3 10.625.125 3.313.125 3.313 0 6h-7v2l-4 2 8 1v-2l3 1-1 2c-7.851 1.602-16.023 1.087-24 1l-1 2v-5l3 1 .805-1.7c1.294-2.49 2.773-4.77 4.32-7.113 4.398-6.832 8.132-13.983 11.875-21.187z" fill="rgba(154, 155, 139, 1)" stroke="none"/>
  <path d="M96.5 111.875l2.492.027c2.003.024 4.006.06 6.008.098 1.915 3.576 2.587 5.894 2 10-2.125 2.938-2.125 2.938-5 5-3.25-.063-3.25-.063-6-1l-1-2-2 3c-3.125.188-3.125.188-6 0v-2l-1.898-.402-2.477-.535-2.46-.528C78 123 78 123 76 122l2-2c.398-1.988.738-3.99 1-6 5.997-1.747 11.274-2.257 17.5-2.125z" fill="rgba(225, 197, 149, 1)" stroke="none"/>
  <path d="M188 129c.934 3.01 1.044 3.867 0 7l2 1c-1.571 9.603-7.163 16.357-15 22a157.517 157.517 0 0 1-6.656 3.691c-2.485 1.339-2.485 1.339-5.223 3.297-8.74 5.633-18.526 7.502-28.7 8.61-2.91.342-5.64.835-8.483 1.527-3.371.817-6.453 1.054-9.938.875l1-2h5v-2l2-.411c3.023-.626 6.043-1.264 9.063-1.902l3.146-.646c5.615-1.194 10.592-2.62 15.791-5.041l3.188-.688c10.03-2.727 21.358-12.1 27.312-20.562 1.27-2.328 2.1-4.147 2.5-6.75h2l1-8z" fill="rgba(31, 30, 25, 1)" stroke="none"/>
  <path d="M73 207c2.98.474 5.959.954 8.938 1.438l2.576.408 2.45.4 2.27.365C91 210 91 210 92 211c5.979 1.857 12.038 2.21 18.25 2.25l2.04.028c4.297-.026 7.698-.806 11.71-2.278 2.667-.473 5.302-.72 8-1v2l-12 6v14h3v2l-5 2-1-10-1 8h-1a511.569 511.569 0 0 1-.063-4.188l-.035-2.355c.103-2.578.531-4.944 1.098-7.457l-3.656.14c-1.615.038-3.23.075-4.844.11l-2.398.102c-5.244.086-8.67-.772-13.23-3.34-3.715-2.008-7.87-2.867-11.919-3.985-2.867-.997-4.743-1.962-6.953-4.027v-2z" fill="rgba(95, 94, 73, 1)" stroke="none"/>
  <path d="M31 104c2.382 1.818 2.925 2.5 3.375 5.5-.464 3.094-.94 3.574-3.375 5.5a129.05 129.05 0 0 1-7.438 3.063C17.677 120.29 17.677 120.29 12 123v6h-1l-2-22 2 1c1.867-.788 1.867-.788 3.938-1.938C20.15 103.63 25.313 102.966 31 104z" fill="rgba(93, 93, 70, 1)" stroke="none"/>
  <path d="M110 266h3v4h2l.519 1.665c.783 2.508 1.57 5.015 2.356 7.522l.816 2.62c1.298 4.13 2.608 8.206 4.309 12.193h6v-2c4.353-4 4.353-4 8-4 .247 2.96.27 4.562-1.313 7.125L134 297l-1.5 1.688c-2.484 2.173-4.698 2.326-7.938 2.562-3.69-.259-5.035-.622-7.562-3.25v-2l-4-1v2h-9l3-3h2v-2h7a589.337 589.337 0 0 0-.875-4.75l-.492-2.672c-.517-2.538-.517-2.538-1.633-4.515-1.32-2.723-1.67-5.328-2.125-8.313l-.508-3.266L110 266z" fill="rgba(21, 18, 17, 1)" stroke="none"/>
  <path d="M23 267l1.875 2.438c1.867 2.6 1.867 2.6 4.125 3.562v2c7.126.354 12.47-.043 19-3-1.762 3.931-3.445 6.201-7.313 8.188-3.015.911-5.553.958-8.687.812v5h-2c2.914 3.231 5.577 4.969 9.563 6.688l2.878 1.261c3.791 1.557 6.809 2.21 10.883 2.367l3.115.127 3.248.12 3.284.13c2.676.106 5.352.209 8.029.307l1 2c-13.234 2.117-26.601 2.415-38.188-5.063-7.004-5.253-14.676-13.463-16.5-22.25L17 269c2.938 1.47 3.329 3.594 4.625 6.563l1.352 3.066L24 281l3-3-2-3.25c-1.883-3.06-2-3.884-2-7.75z" fill="rgba(76, 71, 72, 1)" stroke="none"/>
  <path d="M63 84v1l2.938.75C69 87 69 87 69.874 88.688L70 91l.25 3.563C70 98 70 98 68.812 100c-1.812 1-1.812 1-4.25 1-3.352-1.308-4.586-3.036-6.562-6l-1-3-3 1v2h3c.38 2.326.713 4.66 1 7l-1 1h-5l1-10-4 2-2-1 1-3h2l.375-2.375C51 86 51 86 53 84c3.655-.874 6.42-1.24 10 0z" fill="rgba(15, 15, 16, 1)" stroke="none"/>
  <path d="M35 170a1784.751 1784.751 0 0 1-6.133 20.117A118.891 118.891 0 0 0 27 197l6 1v2h17l1 3c-4.738 2.297-9.038 2.88-14.156 1.36-2.69-.995-5.28-2.078-7.844-3.36l-1 2-2-1-1 6h-1l-1-6-2 3h-2c2.083-8.93 4.152-17.633 8-26l1.07-2.348C31.238 170 31.238 170 35 170z" fill="rgba(56, 51, 49, 1)" stroke="none"/>
  <path d="M117 237h1v7l1.688.375c2.312.625 2.312.625 4.437 1.563 2.506.925 4.701 1.454 7.313 1.937 6.648 1.247 13.084 3.202 19.562 5.125v1c-19.532.766-19.532.766-28-4v-2l-1.813-.438c-1.749-.45-3.474-.99-5.187-1.562v6a298799212.301 298799212.301 0 0 0 6.64 2.246A84.887 84.887 0 0 0 129 256v2l2.125.332c5.966.997 11.288 2.349 16.875 4.668v1c-13.052.358-21.528-.895-31.742-9.46-1.857-2.273-1.596-4.503-1.496-7.333.38-3.526 1.264-6.799 2.238-10.207z" fill="rgba(101, 100, 78, 1)" stroke="none"/>
  <path d="M191 166c5.417.903 7.499 1.585 11.875 4.438l2.93 1.87L208 174v2h2a763.515 763.515 0 0 1-.438 4.375c-.08.812-.162 1.624-.246 2.46C209 185 209 185 208 187c-2.753-1.052-5.332-2.177-7.938-3.563-3.424-1.775-3.424-1.775-9.062-2.437v-15z" fill="rgba(159, 158, 138, 1)" stroke="none"/>
  <path d="M190 182c6.323 3.161 13.452 7.011 16 14 .406 5.04.292 9.957 0 15-2.2-2.196-4.39-4.4-6.563-6.625-2.395-2.48-2.395-2.48-5.437-4.375v-2l-5-1 1-15z" fill="rgba(157, 157, 135, 1)" stroke="none"/>
  <path d="M18 148c2.704 2.086 5.173 4.178 7.563 6.625 2.14 2.085 3.708 3.263 6.437 4.375v2l3.29.781c6.429 1.607 12.727 3.66 19.046 5.653 5.568 1.725 11.028 3.128 16.788 4.056L73 172l1 2c-16.355 1.272-38.897-4.512-51.813-14.688-2.75-2.405-3.675-4.057-4.125-7.687L18 148z" fill="rgba(25, 23, 19, 1)" stroke="none"/>
  <path d="M191 204h2v2l2.813.875C199 208 199 208 202 210v2l3 1c1.34 6.216 1.34 6.216-.25 9.875C203 225 203 225 200 226v2l-5 1-.367-2.563c-1.096-7.555-1.096-7.555-2.758-15C191 208 191 208 191 204z" fill="rgba(157, 157, 139, 1)" stroke="none"/>
  <path d="M5 72c4.894 7.34 4.307 17.51 4.5 26.063.242 7.808.616 15.548 1.5 23.312l.252 2.23c.357 2.943.808 5.575 1.748 8.395.04 2.333.044 4.667 0 7l-2 1-1-7-3-1c-.793-7.605-1.19-15.15-1.316-22.793l-.063-3.249c-.065-3.381-.124-6.763-.184-10.145l-.13-6.932C5.2 83.254 5.098 77.627 5 72z" fill="rgba(8, 5, 3, 1)" stroke="none"/>
  <path d="M96 147c2 1 2 1 3.375 3.813 2.092 4.242 2.092 4.242 5.625 7.187 5.792.716 10.659.423 16-2l-2 6-2.152-.488c-2.86-.514-5.508-.68-8.41-.7l-2.817-.042c-2.696.237-4.315.857-6.621 2.23v-2l-2.125 1.063c-3.378 1.1-5.456.732-8.875-.063v-2h-2l-1 2-2-1a77.923 77.923 0 0 0-4.625-.063l-2.477.028L74 161v-3l1.941.176c6.879.359 9.799-.793 15.059-5.176h2l.938-2.438C95 148 95 148 96 147z" fill="rgba(198, 197, 175, 1)" stroke="none"/>
  <path d="M8 21c.028 1.333.047 2.667.063 4l.035 2.25C8 30 8 30 7.523 33.324c-.993 7.48-.862 15.107-1 22.645-.04 2.08-.09 4.159-.144 6.238l-.076 3.734C6 69 6 69 4 72c-2.211-4.43-2.276-8.561-2.23-13.406v-2.432c.004-1.69.012-3.382.024-5.073.018-2.58.02-5.16.02-7.741.005-1.647.011-3.295.018-4.942l.003-2.327C1.87 32.266 2.081 28.708 3 25h2v-3c2-1 2-1 3-1z" fill="rgba(6, 3, 3, 1)" stroke="none"/>
  <path d="M23 35c3.647 2.085 6.875 4.404 10.125 7.063C35.709 44.17 38.223 46.148 41 48c1.773 4.107 2.682 7.567 2 12-3.26 7.23-7.806 12.185-14 17l-2.875 2.438C24 81 24 81 22 81c1.499-3.816 3.799-5.537 7-8l1-2h2l.25-1.563C33 67 33 67 35.125 63.813c2.056-3.592 2.478-6.323 1.82-10.407-2.335-5.944-7.685-10.269-12.238-14.574C23 37 23 37 23 35z" fill="rgba(32, 25, 20, 1)" stroke="none"/>
  <path d="M191 83l2 1-.098 3.48c0 4.434.756 8.509 1.66 12.832 1.728 8.98 1.943 17.041-1.562 25.688l-3-1-1 3 .016-2.117c.089-13.668.047-27.252-1.016-40.883h2l1-2z" fill="rgba(61, 57, 55, 1)" stroke="none"/>
  <path d="M108 251l2 1c-2.503 4.537-6.331 5.524-11 7l-2.177.79c-6.9 2.353-13.204 2.57-20.448 2.398l-3.332-.042A785.54 785.54 0 0 1 65 262c3.097-2.678 5.395-3.484 9.43-4.027 6.613-.972 13.142-2.221 19.695-3.536 1.121-.22 2.243-.442 3.398-.67l3.235-.646 2.91-.58c2.338-.447 2.338-.447 4.332-1.541z" fill="rgba(98, 98, 72, 1)" stroke="none"/>
  <path d="M261 117l3 1v5h2c-.313 8.804-.61 16.747-4 25-4.75-.875-4.75-.875-7-2l1-3h2c.819-6.552 1.283-13.085 1.607-19.678.285-5.214.285-5.214 1.393-6.322z" fill="rgba(32, 29, 28, 1)" stroke="none"/>
  <path d="M174 28l2 1-2.082 1.828-2.73 2.422-2.708 2.39c-5.164 4.913-7 9.36-7.855 16.485.474 3.634 1.978 5.178 4.375 7.875v2l2.313.75c2.923 1.36 3.987 2.566 5.687 5.25-4.382-.527-6.79-2.043-10.188-4.813l-2.605-2.082c-3.312-3.16-4.505-5.8-4.644-10.355.203-7.765 5.273-13.127 10.664-18.27 2.42-2.02 4.822-3.382 7.773-4.48z" fill="rgba(42, 30, 21, 1)" stroke="none"/>
  <path d="M87 33h33v2l5 1v1l-50 1c4.906-3.68 6.175-3.291 12-3v-2z" fill="rgba(32, 30, 29, 1)" stroke="none"/>
  <path d="M45 109h4l1.313 2.875C51.792 115.2 51.792 115.2 55 117c5.462.788 9.47.294 14-3h2c-1.839 4.754-4.958 5.93-9.379 8.027-3.48 1.292-5.957 1.371-9.621.973l-1 3c-5.187-4.206-6.473-8.605-8-15h2v-2z" fill="rgba(19, 18, 16, 1)" stroke="none"/>
  <path d="M31 283c2.938 1.037 5.278 2.188 7.875 3.938 6.949 4.586 12.881 5.64 21.063 6.25l2.939.248c2.374.198 4.748.386 7.123.564-2 3-2 3-3.873 3.42-2.502.054-4.998.097-7.502.08l-2.739-.01c-9.978-.247-17.94-3.531-25.886-9.49l1-5z" fill="rgba(11, 8, 6, 1)" stroke="none"/>
  <path d="M187 0c6.074 4.555 9.174 11.055 12 18v3h-3l-1 2-1.46-2.957-1.915-3.855-.96-1.948c-1.43-2.872-2.883-5.567-4.665-8.24l-3.063.438L172 8V5l6-2V1c3.418-1.14 5.418-1.492 9-1z" fill="rgba(58, 53, 53, 1)" stroke="none"/>
  <path d="M123 138c2.477 3.715 2.435 6.696 2 11-1 3-1 3-2 5h-2l-1 3c-3.842 2.55-7.734 2.648-12.234 2.582-4.208-.885-5.97-3.106-8.457-6.477-1.45-2.331-2.677-4.418-3.309-7.105l1-2h3l.988 1.934 1.325 2.504 1.3 2.496c1.287 2.372 1.287 2.372 4.387 3.066 5.004.37 7.983.099 12-3 2.108-3.162 2.338-4.507 2.625-8.188l.227-2.73L123 138z" fill="rgba(20, 18, 13, 1)" stroke="none"/>
  <path d="M196 142c9.19.036 17.876 2.266 24.797 8.66 1.328 1.59 1.328 1.59 3.203 4.34l2 2-5 3c-7.605-5.617-7.605-5.617-11.125-8.688-4.314-3.47-8.388-5.505-13.875-6.312v-3z" fill="rgba(100, 100, 76, 1)" stroke="none"/>
  <path d="M140 92l3 2c.396 4.094.558 6.759-1.125 10.5-1.875 1.5-1.875 1.5-4.813 2-3.062-.5-3.062-.5-5.437-2.125-2.112-3.087-2.237-4.703-1.625-8.375 2.81-4.106 5.16-4.618 10-4z" fill="rgba(233, 233, 234, 1)" stroke="none"/>
  <path d="M168 220h1c.34 9.203-1.388 17.026-4.996 25.48-1.029 2.583-1.777 5.151-2.504 7.833-1.133 3.973-2.582 6.669-5.5 9.687l-4-1c1.733-5.777 4.137-11.185 7.469-16.219 1.986-3.607 3.004-7.263 4.094-11.219.416-1.478.834-2.956 1.253-4.433l.599-2.12c.785-2.696 1.672-5.354 2.585-8.009z" fill="rgba(13, 13, 8, 1)" stroke="none"/>
  <path d="M103 263v2c-1.727.65-3.457 1.295-5.188 1.938l-2.917 1.09c-4.618 1.55-8.767 2.096-13.633 2.07l-3.233-.01-3.341-.026-3.4-.013A2576.3 2576.3 0 0 1 63 270l-1 2-1-5 3.176-.184 4.136-.253 2.092-.12c3.068-.192 5.666-.466 8.596-1.443 1.505-.212 3.015-.386 4.527-.535l2.65-.264 2.76-.264 2.749-.275C95.492 263.29 99.169 263 103 263z" fill="rgba(97, 97, 72, 1)" stroke="none"/>
  <path d="M20 233h1v8h2l1 4c10.525.348 17.736-1.037 27-6-2.698 5.994-7.949 9.7-14 12-5.405.792-9.317-.03-14-3l-1-2-1 6h-1v-19z" fill="rgba(97, 96, 75, 1)" stroke="none"/>
  <path d="M191 143h3c.165 3.884.037 6.85-.906 10.656-1.735 7.504-2.094 15.247-2.719 22.906l-.406 4.792c-.33 3.881-.651 7.763-.969 11.646h-1c-2.01-39.51-2.01-39.51 3-50z" fill="rgba(9, 6, 5, 1)" stroke="none"/>
  <path d="M184 253l1 3c1.975-.348 1.975-.348 4-1l1-2h2c-1.262 4.452-2.846 7.46-5.813 11l-2.144 2.586L182 269l-3 3.625-2 2.375-1-2 1-3-4 2-2-2a732.347 732.347 0 0 1 3.875-4.5l2.18-2.531L179 261h2c1.075-2.652 2.095-5.284 3-8z" fill="rgba(46, 43, 41, 1)" stroke="none"/>
  <path d="M255.363 100.832C257 102 257 102 259 105l-3 3-1.406-.84c-7.58-3.974-15.22-3.955-23.594-4.16l-1-4c8.025-2.675 17.844-1.906 25.363 1.832z" fill="rgba(7, 5, 6, 1)" stroke="none"/>
  <path d="M146 95c3.28 2.995 4.168 5.676 4.375 10.063-.09 6.853-3.252 13.21-8.063 18.062-4.53 2.565-8.219 2.657-13.312 1.875-3.24-1.35-4.52-2.2-6.313-5.188L122 118l6 3c4.362.523 7.893.59 11.813-1.5 6.689-7.645 6.691-14.524 6.187-24.5z" fill="rgba(240, 240, 241, 1)" stroke="none"/>
  <path d="M84 234l3.875.5c9.116.996 18.019.376 27.125-.5l-1 6c-9.353 1.627-20.072 2.47-28.563-2.5C84 236 84 236 84 234z" fill="rgba(101, 101, 80, 1)" stroke="none"/>
  <path d="M170 8c-1.503 4.208-4.233 5.803-8 8h-2v2c-3.462 3-3.462 3-6 3l-.809 1.742c-1.232 2.335-2.64 4.297-4.254 6.383-2.17 2.811-2.17 2.811-3.937 5.875h-2l-1 3c-1-3-1-3 .375-6.563 4.426-8.273 11.35-14.627 18.875-20.062 1.877-1.273 1.877-1.273 2.75-3.375 3-1 3-1 6 0z" fill="rgba(22, 18, 14, 1)" stroke="none"/>
  <path d="M192 153h1c1.25 7.625 1.25 7.625-1 11 .583-.07 1.165-.14 1.766-.21 7.98-.528 13.423 2.278 20.234 6.21l-3 10-1-4h-2v-2l-1.719-.84c-3.085-1.569-6.065-3.31-9.062-5.039-2.43-1.33-2.43-1.33-6.219-2.121l1-13z" fill="rgba(108, 108, 89, 1)" stroke="none"/>
  <path d="M108 254c1 2 1 2 .004 5.04l-1.442 3.585-1.433 3.602L104 269l-1-2-5 3v-2l-4-1 9-2v-2l-1.8.438C94.712 264.89 88.633 265.226 82 265v-1h8l-1-3 2.887-.77 3.8-1.043 3.762-1.019c3.232-1.063 5.735-2.289 8.551-4.168z" fill="rgba(144, 146, 127, 1)" stroke="none"/>
  <path d="M67 87c2.773 2.39 2.99 3.9 3.375 7.563C70 98 70 98 68.812 100c-1.812 1-1.812 1-4.312.938-3.078-1.155-4.002-2.02-5.5-4.938-.392-3.202-.56-5.116 1.188-7.875C62.68 86.578 64.12 86.495 67 87z" fill="rgba(237, 237, 237, 1)" stroke="none"/>
  <path d="M188 129c.934 3.01 1.044 3.867 0 7l2 1c-1.591 9.725-7.286 16.167-15 22-.839-2.349-1.183-3.542-.242-5.898 1.359-2.3 2.906-4.04 4.742-5.977 2.891-3.21 4.534-5.832 5.5-10.125h2l1-8z" fill="rgba(35, 32, 29, 1)" stroke="none"/>
  <path d="M27 286c2.453 1.223 4.901 2.455 7.348 3.691l3.715 1.872 1.892.958c4.632 2.329 8.2 3.595 13.37 3.795l3.114.127 3.248.12 3.284.13c2.676.106 5.352.209 8.029.307l1 2c-15.07 2.411-28.355 1.863-41.004-7.184-2.02-1.838-2.976-3.307-3.996-5.816z" fill="rgba(143, 136, 133, 1)" stroke="none"/>
  <path d="M193 25l3 3-1 2h2c-.54 3.786-2.117 5.554-5 8h-2c-.647 7.809-1.053 15.52-.969 23.355-.039 3.307-.44 6.396-1.031 9.645h-1c-.059-4.292-.094-8.583-.125-12.875l-.05-3.648c-.04-7.093.421-13.6 2.175-20.477l.503-2.085c.773-2.98 1.284-4.702 3.497-6.915z" fill="rgba(171, 163, 136, 1)" stroke="none"/>
  <path d="M81 72h2l.184 3.613.254 4.7.119 2.38.127 2.295.11 2.11c.162 2.124.162 2.124 1.206 4.902l-3-1v-2h-3l-1 6c-2.228-2.228-2.692-3.658-3.625-6.625-.26-.817-.52-1.635-.79-2.477L73 84l5 1-.188-3.125c.2-4.11 1.133-6.364 3.188-9.875z" fill="rgba(150, 151, 134, 1)" stroke="none"/>
  <path d="M27 197l6 1v2h17l1 3c-4.738 2.297-9.038 2.88-14.156 1.36-2.69-.995-5.28-2.078-7.844-3.36l-1 2-2-1-1 6c-.955-2.17-1.144-3.563-.398-5.824.757-1.744 1.574-3.462 2.398-5.176z" fill="rgba(102, 102, 78, 1)" stroke="none"/>
  <path d="M172 154l3 1c-.356 2.748-.738 3.779-2.89 5.598l-2.36 1.464-2.328 1.473L165 165l-2.441 1.543c-2.691 1.532-5.34 2.644-8.246 3.707l-2.887 1.078C149 172 149 172 147 171l1.938-1.875c2.1-1.951 2.1-1.951 3.062-4.125l2.813-.625c6.092-1.54 12.76-5.949 17.187-10.375z" fill="rgba(22, 20, 15, 1)" stroke="none"/>
  <path d="M248 98c5.403.22 8.525 1.405 12.488 5.137 4.728 5.827 4.854 12.676 4.512 19.863h-1v-5h-3l-2 2a894.533 894.533 0 0 1-1.5-4.813l-.844-2.707C256 110 256 110 256 107l2-3c-3.245-2.04-6.406-3.665-10-5v-1z" fill="rgba(59, 55, 56, 1)" stroke="none"/>
  <path d="M189 221h1v21h-1v-8l-1.836 1.313c-6.026 4.004-10.877 6.077-18.164 4.687l-3-2 1-6 1 4c7.06-1.123 14.038-2.376 21-4v-11z" fill="rgba(107, 107, 89, 1)" stroke="none"/>
  <path d="M5 72c5.937 8.906 4.203 21.727 4 32H8v28H7c-.793-7.605-1.19-15.15-1.316-22.793l-.063-3.249c-.065-3.381-.124-6.763-.184-10.145l-.13-6.932C5.2 83.254 5.098 77.627 5 72z" fill="rgba(72, 68, 64, 1)" stroke="none"/>
  <path d="M49 32c6.563.505 6.563.505 8.875 3.125 1.908 2.074 1.908 2.074 4.156 1.984 3.474-.347 6.51-.935 9.782-2.172C76.808 33.468 81.829 33.85 87 34v1l-2.152.367-2.785.508-2.778.492L77 37l-1 2c-2.766.633-2.766.633-6.25 1.125l-3.453.508c-5.513.614-5.513.614-8.297.367-2-2.25-2-2.25-4-5a115.013 115.013 0 0 0-5-4z" fill="rgba(85, 78, 76, 1)" stroke="none"/>
  <path d="M194 237h1c.236 5.778-.132 10.513-2 16h-3l-1 5-1-2h-3c-.68-5.273 1.752-9.394 4-14l3 1 2-6z" fill="rgba(30, 26, 25, 1)" stroke="none"/>
  <path d="M77 109l1 2 2 1c.178 3.198.025 5.95-1 9-3.271 3.158-7.132 5.133-11.23 7.035-1.947.843-1.947.843-2.77 2.965l-3-2c-2.05-.451-2.05-.451-4.188-.625L54 128v-1l2.484-.367 3.266-.508 3.234-.492C68.387 124.499 70.946 122.63 74 118c1.165-2.956 2.122-5.948 3-9z" fill="rgba(151, 148, 132, 1)" stroke="none"/>
  <path d="M160 254l2 2c6.428 2.218 14.479 1.41 21 0l-2 5c-7.795 1.356-15.546 2.139-23-1l2-6z" fill="rgba(103, 104, 83, 1)" stroke="none"/>
  <path d="M187 35l2 1-.473 3.137c-.93 7.417-.884 14.927-1.045 22.392l-.103 3.553-.076 3.226C187 71 187 71 185 74c-2.948 1.028-4.962 1.415-7.914.234-4.79-2.64-4.79-2.64-6.086-5.234l4-1v2c4.615 1.042 4.615 1.042 9 0 1.179-5.77 1.276-11.629 1.5-17.5.225-5.902.539-11.668 1.5-17.5z" fill="rgba(211, 193, 153, 1)" stroke="none"/>
  <path d="M94 123c3.375 3.375 3.375 3.375 3.73 7.23l.245 2.432.213 2.525.248 2.561c.2 2.083.383 4.167.564 6.252h-2l-2 5-2-1 1-25z" fill="rgba(45, 41, 32, 1)" stroke="none"/>
  <path d="M55 76c4.245-.333 6.355-.439 9.938 2L67 80h-2v2l3 1c-4.063 1.354-8.024 1.327-12.285 1.523L53 85l-2 3h-2c1.313-3.938 2.875-6.266 6-9l2-1-2-2z" fill="rgba(76, 74, 70, 1)" stroke="none"/>
  <path d="M184 201h1l1 6h-2l-.188 1.688c-1.474 4.195-4.533 6.673-8.437 8.625C173 218 173 218 170 218l-1 4-1-4h-6c3.1-2.067 5.953-3.203 9.438-4.5 2.193-.818 4.38-1.65 6.562-2.5l2.332-.898c1.832-.99 1.832-.99 2.496-3.047l.422-2.18L184 201z" fill="rgba(100, 100, 79, 1)" stroke="none"/>
  <path d="M176 187h2c-.417 4.863-2.37 6.865-6 10-3.853 2.746-6.471 3.389-11.188 3.313l-3.167-.012C155 200 155 200 153 198l3.375-.188c5.47-.661 9.85-3.206 14.625-5.812l2.234-.973c2.114-.97 2.114-.97 2.766-4.027z" fill="rgba(101, 101, 78, 1)" stroke="none"/>
  <path d="M48 110l1.813 2.375c2.196 2.636 3.78 4.422 7.273 4.926 4.898.025 7.828-.33 11.914-3.301h2c-1.214 3.777-3.534 5.43-7.004 7.219-3.461 1.354-6.409 1.999-9.996.781-2.595-2.336-4.485-4.856-6-8v-4z" fill="rgba(237, 237, 239, 1)" stroke="none"/>
  <path d="M109 294l-4 2 8 1v-2l3 1-1 2c-7.851 1.602-16.023 1.087-24 1l-1 2v-5c14.915-3.414 14.915-3.414 19-2z" fill="rgba(42, 39, 36, 1)" stroke="none"/>
  <path d="M22 214l2 4c4.372 4.372 10.57 5.114 16.5 5.125L44 223c-2.3 2.718-3.847 3.457-7.375 3.813-3.76.304-6.251.019-9.625-1.813l-2.313-1.125L23 223l-1 3v-12z" fill="rgba(106, 105, 84, 1)" stroke="none"/>
  <path d="M92 146l3 4c-8.255 8.74-8.255 8.74-13.605 9.246-2.479.004-4.923-.07-7.395-.246v-1l8-1-6-1v-1l1.723-.445C83.69 152.82 87.603 150.369 92 146z" fill="rgba(30, 28, 25, 1)" stroke="none"/>
  <path d="M2 30h1l1 30 1-13h1c.058 3.604.094 7.208.125 10.813l.05 3.103.02 2.979.032 2.745C6 69 6 69 4 72c-2.253-4.479-2.26-8.681-2.195-13.582l.008-2.467c.011-2.588.037-5.176.062-7.764.01-1.76.02-3.519.027-5.279C1.924 38.605 1.96 34.303 2 30z" fill="rgba(65, 62, 62, 1)" stroke="none"/>
  <path d="M248 97v1l-3.21.148-4.165.227-2.117.094c-4.21.126-4.21.126-7.508 2.531l3 3-11 3c-1-3-1-3-1-4l-2-1c7.467-6.845 18.62-5.205 28-5z" fill="rgba(64, 59, 60, 1)" stroke="none"/>
  <path d="M188 147c.95 2.85 1.079 4.28.93 7.196l-.122 2.547-.148 2.737-.139 2.813c-.147 2.965-.303 5.93-.458 8.894l-.303 6.03c-.248 4.928-.502 9.855-.76 14.783-1.52-1.38-1.52-1.38-3-3 .309-1.932.309-1.932 1-4 .067-1.362.085-2.727.063-4.09l-.026-2.358-.037-2.49c-.136-20.43-.136-20.43 3-29.062z" fill="rgba(118, 116, 116, 1)" stroke="none"/>
  <path d="M222 102l2 1c-1.467 5.5-1.467 5.5-4 7.875-2 1.125-2 1.125-4 1.125v2c-2.561 2.296-3.48 3-7 3l-1 2v-2l-2-1 1.68-1.426 2.195-1.886 2.18-1.864c2.137-1.865 2.137-1.865 3.945-4.824 2.125-.688 2.125-.688 4-1v-2l2-1z" fill="rgba(11, 7, 5, 1)" stroke="none"/>
  <path d="M162 9l2 1-2.598 2.09C151.405 20.253 144.387 28.11 139 40h-2v-2l-2-1 1.25-1.125c1.885-1.909 1.885-1.909 3.5-4.586 2.429-3.55 5.078-6.644 8-9.789l1.59-1.721C153.24 15.636 157.27 12.184 162 9z" fill="rgba(159, 154, 157, 1)" stroke="none"/>
  <path d="M171 164c3.174.939 4.684 1.538 6.582 4.313l1.23 2.687 1.27 2.688C181 176 181 176 181 178l-4 2-2-7h-4v-9z" fill="rgba(122, 120, 114, 1)" stroke="none"/>
  <path d="M110 266h3v4h2a886.164 886.164 0 0 1 2 5.75l1.125 3.234C119 282 119 282 119 286h-4c-2.776-6.561-4.003-12.96-5-20z" fill="rgba(29, 27, 20, 1)" stroke="none"/>
  <path d="M154 285l2 1-1 2 3 1c-11.337 6.888-11.337 6.888-18 6l1-3c1.678-.757 3.362-1.505 5.078-2.172 2.913-1.255 5.337-3 7.922-4.828z" fill="rgba(47, 42, 40, 1)" stroke="none"/>
  <path d="M179 261l2 3h4c-1.364 2.992-2.95 5.29-5.125 7.75l-1.633 1.86L177 275l-1-2 1-3-4 2-2-2 8-9z" fill="rgba(53, 50, 49, 1)" stroke="none"/>
  <path d="M193 121h1l-.035 2.047-.028 2.703-.035 2.672c-.004 2.531-.004 2.531.692 4.703.675 3.115-1.084 5.218-2.594 7.875h-3c-1.084-6.068-.79-10.101 1-16h2l1-4zm-2 15l1 3z" fill="rgba(72, 67, 70, 1)" stroke="none"/>
  <path d="M146 95c2.697 2.463 3.833 4.317 4.203 8.05.106 5.122-.442 8.464-3.203 12.95h-2a105.022 105.022 0 0 0-4 5l-2-1 3.71-4.2c3.272-4.568 3.518-8.58 3.415-14.112l-.055-3.801L146 95z" fill="rgba(200, 200, 201, 1)" stroke="none"/>
  <path d="M167 276v6l-1.938.813c-2.393 1.074-2.393 1.074-3.062 4.187l-7 1c1.172-4.836 6.592-12 12-12z" fill="rgba(27, 23, 22, 1)" stroke="none"/>
  <path d="M25 185c1.43 2.862.6 4.934 0 8h2c-.75 7.625-.75 7.625-3 11l-1-2-2 3h-2c.62-2.585 1.245-5.168 1.875-7.75l.527-2.21c.877-3.573 1.725-6.834 3.598-10.04z" fill="rgba(74, 69, 69, 1)" stroke="none"/>
  <path d="M174 28l2 1-2.082 1.828-2.73 2.422-2.708 2.39c-4.404 4.19-5.997 7.428-7.48 13.36-.553-2.076-1-3.844-1-6l-2-1c10.09-12.03 10.09-12.03 16-14z" fill="rgba(42, 33, 26, 1)" stroke="none"/>
  <path d="M203 228c-4.625 3-4.625 3-8 3l-1 12-4-1 1-13c4.273-1.424 7.654-2.449 12-1z" fill="rgba(11, 9, 7, 1)" stroke="none"/>
  <path d="M65 182c2.707 1.035 5.252 2.135 7.813 3.5 3.715 1.748 7.186 2.603 11.187 3.5-2.386 2.888-4.29 3.62-8 4l-2-1v-2l-1.688-.188c-3.303-1.16-5.03-3.214-7.312-5.812v-2z" fill="rgba(104, 103, 82, 1)" stroke="none"/>
  <path d="M91.078 110.121l3.516.147 3.656.17 3.703.158c3.016.13 6.032.264 9.047.404 1.277 6.518 1.277 6.518-1 10h-2v-8c-3.333-.03-6.667-.047-10-.063l-2.832-.025c-5.49-.02-10.737.275-16.168 1.088 2-3 2-3 3.745-3.695 2.825-.382 5.484-.31 8.333-.184z" fill="rgba(182, 171, 136, 1)" stroke="none"/>
  <path d="M190 168h1v13h6c2.875 1.125 2.875 1.125 5 3 .313 3.188.313 3.188 0 6-4.98-2.734-4.98-2.734-7-4l-2.719-1.688C190 182 190 182 189.511 178.548l.177-3.797.136-3.828L190 168z" fill="rgba(104, 103, 83, 1)" stroke="none"/>
  <path d="M63 143h2l1 4 2-4 2 12h-2l-1-2-5 1a271.487 271.487 0 0 1-.625-4.375l-.352-2.46L61 145l2-2z" fill="rgba(191, 190, 169, 1)" stroke="none"/>
  <path d="M55 245c2 1 2 1 2.852 3.477C59.236 254.11 60.396 259.193 60 265h-2c.656 3.61.656 3.61 2 7l-2 2c-1.117-2.234-1.286-3.845-1.535-6.324l-.264-2.62-.264-2.743-.275-2.686C55.18 254.724 54.9 249.926 55 245z" fill="rgba(48, 48, 37, 1)" stroke="none"/>
  <path d="M73 207l18 3-2 1v4a536.82 536.82 0 0 1-5.75-1.313l-3.234-.738c-2.959-.93-4.772-1.83-7.016-3.949v-2z" fill="rgba(110, 109, 88, 1)" stroke="none"/>
  <path d="M11 43l1 2-.925 1.704c-1.454 3.105-1.3 5.61-1.27 9.03l.02 3.926.05 4.09A1937.467 1937.467 0 0 0 10 78H8c-.789-7.184-1.13-14.34-1.188-21.563l-.039-2.38C6.767 50.175 6.797 48.304 9 45l2-2z" fill="rgba(181, 171, 141, 1)" stroke="none"/>
  <path d="M23 35c3.647 2.085 6.875 4.404 10.125 7.063C35.709 44.17 38.223 46.148 41 48l-1 3v-2l-4 2c-.603-.675-1.207-1.35-1.828-2.047L31.75 46.25l-2.39-2.672a102.555 102.555 0 0 0-4.657-4.781C23 37 23 37 23 35z" fill="rgba(50, 42, 31, 1)" stroke="none"/>
  <path d="M211 168l3 3-3 9-1-4h-2v-2l-1.938-.813C204 172 204 172 203 169c2.799-1.4 4.905-1.253 8-1z" fill="rgba(96, 97, 72, 1)" stroke="none"/>
  <path d="M205 220l3 1 2-1c-.871 3.736-1.344 5.549-4.566 7.766l-2.996 1.484c-4.197 2.347-4.197 2.347-6.383 6.418-.219 2.499-.271 4.835-.055 7.332h-1v-12l6-3-1-2 1.938-1.313c2.33-1.6 2.33-1.6 3.062-4.687z" fill="rgba(95, 89, 88, 1)" stroke="none"/>
  <path d="M59 77c-4.75 4-4.75 4-7 4-1.52 4.916-1.52 4.916-2 10l-3 1v-4l-1 2h-2c1.459-5.227 3.345-9.201 7.938-12.313 2.446-.815 4.5-.83 7.062-.687z" fill="rgba(47, 47, 43, 1)" stroke="none"/>
  <path d="M15.688 16.875l2.126.027c1.73.024 3.458.06 5.186.098v1c-.957.09-.957.09-1.934.184l-2.503.253-2.497.247c-2.053.105-2.053.105-3.066 1.316l5 1v1c-1.603.196-3.208.381-4.813.563l-2.707.316C8 23 8 23 5 22l-1 3c.313-2.875.313-2.875 1-6 3.68-2.454 6.444-2.228 10.688-2.125z" fill="rgba(95, 90, 90, 1)" stroke="none"/>
  <path d="M190 9c3.804 1.522 5.672 2.475 7.875 6C199 18 199 18 199 21h-3l-1 2a485.856 485.856 0 0 1-2.5-4.75l-1.406-2.672C190 13 190 13 190 9z" fill="rgba(36, 32, 30, 1)" stroke="none"/>
  <path d="M123 138c2.477 3.715 2.435 6.696 2 11-1 3-1 3-2 5h-2l-1 3-3-1c-2.333-.04-4.667-.044-7 0v-1l1.863-.516 2.45-.734 2.425-.703c2.772-1.283 3.768-2.394 5.262-5.047.57-2.579.57-2.579.688-5.25l.199-2.703L123 138z" fill="rgba(50, 47, 36, 1)" stroke="none"/>
  <path d="M170 33h1c.25 2.25.25 2.25 0 5-1.875 2.313-1.875 2.313-4 4h-2v2h-2l-1 11h-2c.802-9.691 3.071-15.002 10-22z" fill="rgba(203, 183, 149, 1)" stroke="none"/>
  <path d="M74 293h15c-5.625 5.625-5.625 5.625-9 7-1.5-1.375-1.5-1.375-3-3v-2l-3-2z" fill="rgba(85, 85, 75, 1)" stroke="none"/>
  <path d="M34 66l3 1c0 3 0 3-1.574 4.684l-2.114 1.754-2.207 1.843L29 77l-2.875 2.438C24 81 24 81 22 81c1.499-3.816 3.799-5.537 7-8l1-2h2l.438-1.938C33 67 33 67 34 66z" fill="rgba(32, 25, 16, 1)" stroke="none"/>
  <path d="M23 18c8.734.772 14.489 2.063 21 8a254.689 254.689 0 0 0 4 3c-5.13-.698-9.258-3.054-13.74-5.473C30.5 21.563 27.218 20.464 23 20v-2z" fill="rgba(162, 156, 156, 1)" stroke="none"/>
  <path d="M47 272c0 3 0 3-1.688 5.063C40.635 280.983 35.889 281.4 30 282l-1-4 8 2v-2l-4-2 2.047-.367 2.703-.508 2.672-.492c2.447-.601 4.384-1.413 6.578-2.633z" fill="rgba(106, 105, 86, 1)" stroke="none"/>
  <path d="M23 267l1.875 2.438c1.867 2.6 1.867 2.6 4.125 3.562v2l9 2-1 3c-6.978.317-6.978.317-10-2-2.77-3.79-4-6.216-4-11z" fill="rgba(89, 88, 71, 1)" stroke="none"/>
  <path d="M53 168l1.836.367 2.539.508 2.738.555c1.91.377 3.825.737 5.742 1.078l2.707.492 2.504.438c.638.185 1.277.37 1.934.562l1 2c-1.73.027-3.458.047-5.188.063l-2.917.035c-2.75-.093-5.22-.477-7.895-1.098v-2l-5-1v-2z" fill="rgba(36, 36, 27, 1)" stroke="none"/>
  <path d="M261 117l3 1c.304 1.577.567 3.163.813 4.75l.457 2.672C265 128 265 128 262.512 130.328L260 132c-.027-2.312-.046-4.625-.063-6.938l-.035-3.902C260 118 260 118 261 117z" fill="rgba(9, 5, 5, 1)" stroke="none"/>
  <path d="M188 194l1 3 5 1v2l4 2v3l-7-1-1 2c-1.138-4.266-2-7.565-2-12z" fill="rgba(95, 95, 74, 1)" stroke="none"/>
  <path d="M8 133h2l2 6 2-1 3 9-3 1v-2h-3a894.533 894.533 0 0 1-1.5-4.813l-.844-2.707C8 136 8 136 8 133z" fill="rgba(59, 55, 54, 1)" stroke="none"/>
  <path d="M144 51c2 1 2 1 3.125 3.063 1.108 3.719 1.626 7.124.875 10.937-1.425 2.506-2.872 3.973-5 6h-2c1.875-4.875 1.875-4.875 3-6 .073-2.353.084-4.708.063-7.063l-.028-3.91L144 51z" fill="rgba(106, 106, 83, 1)" stroke="none"/>
  <path d="M63 270h24v1l-18 1-2 5-4-1v-6z" fill="rgba(149, 149, 128, 1)" stroke="none"/>
  <path d="M100 112v1l-3.648.621-4.727.817-2.406.408c-4.233.668-4.233.668-8.219 2.154-.656 2.527-.656 2.527-1 5l-4 1 2-3c.39-1.99.732-3.99 1-6 7.051-2.212 13.647-2.202 21-2z" fill="rgba(212, 195, 155, 1)" stroke="none"/>
  <path d="M94 287l4 1c-1.25 3.46-2.675 6.147-5 9l-4-1 1-5 3-1 1-3z" fill="rgba(8, 7, 4, 1)" stroke="none"/>
  <path d="M160 42c1.067 3.2.948 4.885.563 8.188l-.31 2.73L160 55h-2l-1 2c-1.721-3.442-1.515-7.236-1-11 2-2.563 2-2.563 4-4z" fill="rgba(22, 16, 13, 1)" stroke="none"/>
  <path d="M19 271c2.25.125 2.25.125 5 1 2.313 3.063 2.313 3.063 4 6l-4 4a804.91 804.91 0 0 1-2.5-4.375l-1.406-2.46C19 273 19 273 19 271z" fill="rgba(13, 9, 8, 1)" stroke="none"/>
  <path d="M20 233h1v8h2l1 4 10 1v1c-7.625 1-7.625 1-11 1l-1-2-1 6h-1v-19z" fill="rgba(123, 122, 105, 1)" stroke="none"/>
  <path d="M178 182c1.99 3.713 3.365 6.339 2.438 10.563-2.819 4.778-8.376 5.87-13.438 7.437 1-2 1-2 4.438-3.875 2.207-1.23 3.448-1.976 5-4 .727-2.748.624-5.294.562-8.125l1-2z" fill="rgba(151, 150, 129, 1)" stroke="none"/>
  <path d="M220 103l1 3h-5l-.625 1.625A28.193 28.193 0 0 1 208 116h-3c1.429-3.36 3.16-5.277 5.938-7.625l2.09-1.79C217.487 103 217.487 103 220 103z" fill="rgba(85, 77, 80, 1)" stroke="none"/>
  <path d="M97 144h3c.864 1.62 1.716 3.246 2.563 4.875l1.44 2.742L105 154l-1 2c-3.427-1.385-4.73-2.675-6.313-6l-1.05-2.125L96 146l1-2z" fill="rgba(20, 19, 16, 1)" stroke="none"/>
  <path d="M186 23c1.754 1.54 1.754 1.54 3 3-.583-.07-1.165-.14-1.766-.21-7.98-.528-13.423 2.278-20.234 6.21v-2c5.422-5.003 11.41-9.142 19-7z" fill="rgba(159, 147, 121, 1)" stroke="none"/>
  <path d="M140 288c1.333 2.667.671 4.167 0 7h5c-2.855 1.903-4.42 2.462-7.688 3.125l-2.449.508L133 299c.593-3.392 1.767-5.21 4.063-7.75l1.66-1.86L140 288z" fill="rgba(141, 137, 135, 1)" stroke="none"/>
  <path d="M99.625 236.938l3.602.027L106 237c-1 3-1 3-3 4a82.763 82.763 0 0 1-5.563-.313l-3.003-.238L92 240l-1-2c2.884-1.442 5.417-1.094 8.625-1.063z" fill="rgba(96, 95, 72, 1)" stroke="none"/>
  <path d="M88 148l2 1c-6.949 5.79-6.949 5.79-12.063 6.313-3.322-.354-3.812-.924-5.937-3.313l2.484-.367 3.266-.508 3.234-.492c2.97-.49 2.97-.49 5.282-1.766L88 148z" fill="rgba(198, 195, 182, 1)" stroke="none"/>
  <path d="M183.188 24.938L187 25v2l3 1v6h-1v-5l-3-1v-2c-4.332.86-4.332.86-8 3l1 2-1.875.375c-2.316.497-2.316.497-4.125 2.625l-2-2 1.938-1.875c2.1-1.951 2.1-1.951 3.062-4.125 2.75-.917 4.36-1.109 7.188-1.063z" fill="rgba(211, 190, 150, 1)" stroke="none"/>
  <path d="M55 165l2 2c2.221.023 2.221.023 4.625-.375l2.477-.336L66 166l1 2 3 1v2l2 1c-6.69-.54-12.635-1.887-19-4l2-3z" fill="rgba(139, 140, 126, 1)" stroke="none"/>
  <path d="M105 112l4 1-1 8 2 1a488.383 488.383 0 0 1-3.313 3.438l-1.863 1.933C103 129 103 129 100 130l1-4 4-1c.197-1.415.382-2.832.563-4.25l.316-2.39c.121-2.365-.183-4.111-.879-6.36z" fill="rgba(215, 203, 167, 1)" stroke="none"/>
  <path d="M8 21v9l-3 1-1 7H3V25h2v-3c2-1 2-1 3-1z" fill="rgba(28, 21, 22, 1)" stroke="none"/>
  <path d="M101 220h15l-1 14h-1l-.402-2.082-.535-2.73-.528-2.708c-.512-2.594-.512-2.594-1.535-5.48h-10v-1z" fill="rgba(149, 150, 132, 1)" stroke="none"/>
  <path d="M59.188 79.125L63 80l1 2-1.828.297C57.194 83.228 54.355 83.975 51 88h-2c1.866-5.6 3.826-9.512 10.188-8.875z" fill="rgba(217, 216, 216, 1)" stroke="none"/>
  <path d="M147 269l4 1c-.53 3.821-1.497 6.062-4 9v-3l-5 2c1.498-3.112 3.2-6.053 5-9z" fill="rgba(19, 19, 14, 1)" stroke="none"/>
  <path d="M179 178h3c1.604 3.508 2.22 6.144 2 10h-4a543.754 543.754 0 0 1-1.063-4.438l-.597-2.496L178 179l1-1z" fill="rgba(35, 32, 30, 1)" stroke="none"/>
  <path d="M128 82c4.219-.196 7.17.198 11 2l-2 1v3l-8-1-1-5z" fill="rgba(107, 104, 100, 1)" stroke="none"/>
  <path d="M115 105h1l.184 2.703.254 3.547c.08 1.16.162 2.32.246 3.516.248 2.544.597 4.794 1.316 7.234-2 1-3.831 1.494-6 2l-2-4 5-1v-14z" fill="rgba(139, 138, 123, 1)" stroke="none"/>
  <path d="M193 109h1c.027 1.896.046 3.792.063 5.688l.035 3.199c-.09 2.837-.449 5.357-1.098 8.113l-2-1a730.672 730.672 0 0 1-.125-6.875l-.07-3.867C191 111 191 111 193 109z" fill="rgba(8, 4, 5, 1)" stroke="none"/>
  <path d="M178 3l-6 2 1 2c2.025.652 2.025.652 4 1h-3v2l-6 1 1-3-4-1a407.78 407.78 0 0 1 4.813-2.563l2.707-1.44C175 2 175 2 178 3z" fill="rgba(103, 99, 96, 1)" stroke="none"/>
  <path d="M64 280c3.351 2.234 4.816 3.262 5.813 7.25L70 290l-2 1c-3.228-2.812-4.659-4.679-5-9l1-2z" fill="rgba(9, 8, 5, 1)" stroke="none"/>
  <path d="M61 267h13l1 3H63l-1 2-1-5z" fill="rgba(100, 99, 79, 1)" stroke="none"/>
  <path d="M116 246a84.76 84.76 0 0 1 7 2c.688 2.063.688 2.063 1 4-5.75 1.125-5.75 1.125-8 0v-6z" fill="rgba(158, 159, 138, 1)" stroke="none"/>
  <path d="M27 197l6 1 1 5-5-2-1 2-2-1-1 6c-.955-2.17-1.144-3.563-.398-5.824.757-1.744 1.574-3.462 2.398-5.176z" fill="rgba(115, 114, 95, 1)" stroke="none"/>
  <path d="M91 153l2 1c-3.625 4.875-3.625 4.875-7 6l-1 2-2-1a77.923 77.923 0 0 0-4.625-.063l-2.477.028L74 161v-3l1.941.176c6.812.355 9.913-.701 15.059-5.176z" fill="rgba(177, 174, 156, 1)" stroke="none"/>
  <path d="M38 49h2c2.845 3.72 3.323 6.374 3 11l-4 1a823.685 823.685 0 0 1-1.063-5.438l-.597-3.058L37 50l1-1z" fill="rgba(13, 8, 4, 1)" stroke="none"/>
  <path d="M185 2c-3.521 4.593-7.577 5.12-13 6V5c4.554-2.666 7.74-3.316 13-3z" fill="rgba(13, 10, 9, 1)" stroke="none"/>
  <path d="M29 180h1a1012.92 1012.92 0 0 1-.438 4.813c-.08.893-.162 1.786-.246 2.707C29 190 29 190 28 193h-3c-.55-5.635 1.05-8.39 4-13z" fill="rgba(12, 8, 6, 1)" stroke="none"/>
  <path d="M194 137h3c-.75 7.625-.75 7.625-3 11l-2-4-3 3 1-6 4-1v-3z" fill="rgba(32, 29, 29, 1)" stroke="none"/>
  <path d="M99 260h-3v2l3 2c-5.666 1.225-11.237 1.092-17 1v-1h8l-1-3c6.286-2.429 6.286-2.429 10-1z" fill="rgba(145, 145, 120, 1)" stroke="none"/>
  <path d="M184 207h3l1 9-4-2c-2.69.304-2.69.304-5 1l1.938-2.313c2.204-2.57 2.204-2.57 3.062-5.687z" fill="rgba(136, 135, 120, 1)" stroke="none"/>
  <path d="M140 92l4 1 1 7 2-3v12h-1v-5l-5 1 2-11-3-1v-1z" fill="rgba(35, 35, 35, 1)" stroke="none"/>
  <path d="M53 96h4c.381 1.991.713 3.993 1 6-1 1-1 1-3.563 1.063L52 103c-.043-2-.04-4 0-6l1-1z" fill="rgba(230, 230, 230, 1)" stroke="none"/>
  <path d="M199 69c.93 2.551 1.086 3.74.223 6.36l-1.16 2.39-1.153 2.422L196 82h-3c.738-5.539 2.672-8.613 6-13z" fill="rgba(88, 78, 75, 1)" stroke="none"/>
  <path d="M84 234l17 2v1c-2.08.418-4.164.808-6.25 1.188l-3.516.667C88 239 88 239 85.578 237.675 84 236 84 236 84 234z" fill="rgba(111, 110, 89, 1)" stroke="none"/>
  <path d="M187 175h1l1 8h1v11h-2l-1 3c-1.268-4.687-.911-9.033-.563-13.813l.159-2.388c.129-1.934.265-3.866.404-5.799z" fill="rgba(51, 48, 43, 1)" stroke="none"/>
  <path d="M35 162c2.763.523 5.326 1.109 8 2 .688 2.063.688 2.063 1 4-6.625-.75-6.625-.75-10-3l1-3z" fill="rgba(21, 19, 15, 1)" stroke="none"/>
  <path d="M8 125l2 4h2c1.158 3.473 1.069 6.36 1 10l-2 1-1-7H8v-8z" fill="rgba(20, 16, 14, 1)" stroke="none"/>
  <path d="M16 32c2.133.398 2.133.398 4 1l-1.39 1.574C15.315 38.317 12.07 42.07 9 46c.98-5.722 2.222-10.346 7-14z" fill="rgba(169, 159, 127, 1)" stroke="none"/>
  <path d="M228 157l5 2-2.375 1.875c-2.593 2.024-2.593 2.024-4.625 4.125h-3c-1.125-3.75-1.125-3.75 0-6l5 2-1-3 1-1z" fill="rgba(52, 48, 51, 1)" stroke="none"/>
  <path d="M41 145h2c-.318 5.4-3.2 7.523-7 11l-3-1 1-2h2l.813-1.75c1.216-2.306 2.49-4.27 4.187-6.25z" fill="rgba(110, 109, 86, 1)" stroke="none"/>
  <path d="M122 118l1.719.941c2.96 1.374 5.865 1.835 9.062 2.399 2.565.763 4.178 1.957 6.219 3.66-10.917.572-10.917.572-15-3-1.313-2.188-1.313-2.188-2-4z" fill="rgba(190, 190, 192, 1)" stroke="none"/>
  <path d="M255 101.25c2 .75 2 .75 4 3.75l-3 3-6-3 1-3c2-1 2-1 4-.75z" fill="rgba(16, 11, 11, 1)" stroke="none"/>
  <path d="M80 74h2v14c-2-1-2-1-3-4-.475-7.05-.475-7.05 1-10z" fill="rgba(105, 105, 81, 1)" stroke="none"/>
  <path d="M177 81c2.5 2.5 2.5 2.5 4 5l-5.188-.938-2.917-.527A462.466 462.466 0 0 1 165 83c3.678-2.452 7.725-2.902 12-2z" fill="rgba(106, 106, 84, 1)" stroke="none"/>
  <path d="M113 295l3 1-1 2c-7.554 1.51-15.329 1.09-23 1v-1c7.04-.939 13.903-1.108 21-1v-2z" fill="rgba(161, 158, 160, 1)" stroke="none"/>
  <path d="M167 275l5 1c-.556 3.6-1.749 5-4.563 7.25l-1.94 1.578L164 286l-1-2 3-2c.736-3.568.736-3.568 1-7z" fill="rgba(78, 71, 74, 1)" stroke="none"/>
  <path d="M22 214l2 4c2.835 2.64 5.187 3.47 9 4v1c-6.625 1.125-6.625 1.125-10 0l-1 3v-12z" fill="rgba(114, 114, 99, 1)" stroke="none"/>
  <path d="M151 117l1 2-4 6-2-3-5 2c1.625-2.938 1.625-2.938 4-6 3.25-.875 3.25-.875 6-1z" fill="rgba(33, 33, 30, 1)" stroke="none"/>
  <path d="M115 293v3l-2-1v2h-9c4.012-4.012 5.474-4.12 11-4z" fill="rgba(8, 4, 5, 1)" stroke="none"/>
  <path d="M110 267c2.43 3.644 2.162 5.712 2 10l-2-2-1.375 1.5C107 278 107 278 105 278c1.225-4.053 2.699-7.444 5-11z" fill="rgba(135, 136, 126, 1)" stroke="none"/>
  <path d="M160 254l2 2c2.193.457 4.406.82 6.625 1.125l3.602.508L175 258v1h-12v2l-5-1 2-6z" fill="rgba(117, 117, 99, 1)" stroke="none"/>
  <path d="M169.215 236.867l2.722.008 2.715-.008C177 237 177 237 179 238v2c-1.604.054-3.208.093-4.813.125l-2.707.07C169 240 169 240 166 238c1-1 1-1 3.215-1.133z" fill="rgba(99, 98, 78, 1)" stroke="none"/>
  <path d="M68 124v5h-2l-1 2-3-2c-2.05-.451-2.05-.451-4.188-.625L54 128v-1l2.555-.402 3.32-.535 3.305-.528c2.758-.39 2.758-.39 4.82-1.535z" fill="rgba(134, 133, 117, 1)" stroke="none"/>
  <path d="M14 38c.834 2.336 1.223 3.502.188 5.813L13 46l-1 3.5c-.79 2.767-1.606 5.01-3 7.5-.488-6.714.93-11.059 4-17l1-2z" fill="rgba(215, 195, 153, 1)" stroke="none"/>
  <path d="M150 258l3 1-5 10-1-4h-7v-1l3.375-.375c3.656-.272 3.656-.272 5.625-2.625l1-3z" fill="rgba(143, 143, 129, 1)" stroke="none"/>
  <path d="M142 183v3c-1.531 1.387-1.531 1.387-3.5 2.688l-1.969 1.324L135 191l-1-3-3-1 11-4z" fill="rgba(107, 106, 85, 1)" stroke="none"/>
  <path d="M146 121c.75 1.75.75 1.75 1 4-1.938 2.25-1.938 2.25-4 4l-3-1c.188-1.813.188-1.813 1-4 2.563-1.75 2.563-1.75 5-3z" fill="rgba(9, 9, 6, 1)" stroke="none"/>
  <path d="M69 114h2c-.995 2.624-2.004 4.003-4.125 5.875-4.209 1.647-6.625.493-10.875-.875v-1l2.336-.367 3.039-.508 3.023-.492c2.745-.429 2.745-.429 4.602-2.633z" fill="rgba(166, 166, 166, 1)" stroke="none"/>
  <path d="M191 83l2 1-.938 2.813c-1.44 4.966-1.709 10.05-2.062 15.187h-1l-1-17h2l1-2z" fill="rgba(61, 54, 45, 1)" stroke="none"/>
  <path d="M5 30l2 1-1 16H5c-.194-2.646-.38-5.291-.563-7.938l-.17-2.287C4.139 34.853 4.066 32.926 4 31l1-1z" fill="rgba(12, 10, 8, 1)" stroke="none"/>
  <path d="M159 255l1 3c-1.938 2.688-1.938 2.688-4 5l-4-1 2-6 2 1 3-2z" fill="rgba(23, 23, 18, 1)" stroke="none"/>
  <path d="M211 164l6 1-2 4c-4 0-4 0-7-2l3-1v-2z" fill="rgba(151, 153, 129, 1)" stroke="none"/>
  <path d="M119 74c3.292 4.39 3.587 5.72 3 11l-3 2V74z" fill="rgba(103, 102, 81, 1)" stroke="none"/>
  <path d="M57 49h2a716.06 716.06 0 0 1-1.375 4.813l-.773 2.707C56 59 56 59 54 62c-.445-8.76-.445-8.76 3-13z" fill="rgba(113, 112, 91, 1)" stroke="none"/>
  <path d="M154 285l2 1-1 2 3 1a431.773 431.773 0 0 1-4.375 2.563l-2.46 1.44L149 294l-2-1 1-2c2.063-.625 2.063-.625 4-1v-4l2-1z" fill="rgba(88, 85, 85, 1)" stroke="none"/>
  <path d="M58 265h2c2.094 3.402 2.18 6.053 2 10h-3l-1-10z" fill="rgba(7, 7, 4, 1)" stroke="none"/>
  <path d="M104 259v3c-3.473 1.158-6.36 1.069-10 1l2-1v-2c2.928-.976 4.956-1.082 8-1z" fill="rgba(161, 162, 137, 1)" stroke="none"/>
  <path d="M209 168l5 2-3 10-1-4h-2l1-8z" fill="rgba(103, 104, 87, 1)" stroke="none"/>
  <path d="M31 283l5 2-1 6-5-3 1-5z" fill="rgba(23, 18, 16, 1)" stroke="none"/>
  <path d="M57 257c1.945 2.918 2.453 4.625 3 8h-2c.656 3.61.656 3.61 2 7l-2 2c-1.533-3.065-1.103-6.268-1.063-9.625l.014-2.14c.012-1.745.03-3.49.049-5.235z" fill="rgba(30, 29, 25, 1)" stroke="none"/>
  <path d="M29 163c3.724 1.213 7.378 2.509 11 4l-3 1v3h-5v-2h2v-3l-1.938-.375L30 165l-1-2z" fill="rgba(138, 135, 131, 1)" stroke="none"/>
  <path d="M12 146h2v2l4-2c1.478 2.957 1.06 5.742 1 9-3.739-2.657-5.65-4.581-7-9z" fill="rgba(74, 70, 72, 1)" stroke="none"/>
  <path d="M75 134c0 3 0 3-1.438 4.625-2.33 3.541-2.304 7.215-2.562 11.375h-1l-.438-2.25c-.463-2.653-.463-2.653-1.312-4.688C68 141 68 141 69.434 139.078l2.004-1.828 1.996-1.86L75 134z" fill="rgba(88, 88, 73, 1)" stroke="none"/>
  <path d="M202 118c.64 1.77.64 1.77 1 4-.89 1.887-.89 1.887-2.25 3.688l-1.328 1.824C198 129 198 129 195 130c1.557-4.671 4.084-8.087 7-12z" fill="rgba(126, 123, 125, 1)" stroke="none"/>
  <path d="M81 72h2l.184 3.613.254 4.7.119 2.38.127 2.295.11 2.11c.162 2.124.162 2.124 1.206 4.902l-3-1c-1.223-3.67-.88-6.34-.563-10.188l.31-3.855L82 74l-2-1 1-1z" fill="rgba(139, 139, 116, 1)" stroke="none"/>
  <path d="M30 75l2 1c-4.578 5.4-8.002 7.098-15 8 2.654-2.938 4.226-4.085 8-5a95.035 95.035 0 0 0 5-4z" fill="rgba(133, 128, 110, 1)" stroke="none"/>
  <path d="M18 206h1c.185 9.41.185 9.41-1 14l2 1-2 1-2 3c.142-2.042.29-4.084.438-6.125.08-1.137.162-2.274.246-3.445.293-3.184.747-6.285 1.316-9.43z" fill="rgba(108, 102, 105, 1)" stroke="none"/>
  <path d="M120 156c0 3 0 3-1 6l-12-2v-1l1.828-.148 2.422-.227 2.39-.21c2.446-.43 4.208-1.201 6.36-2.415z" fill="rgba(182, 179, 162, 1)" stroke="none"/>
  <path d="M97 126l2 1v5l2 1-2 9h-1l-1-16z" fill="rgba(185, 181, 160, 1)" stroke="none"/>
  <path d="M118 73h3l-1 3c.047 3.068.194 6.123.355 9.188C120 88 120 88 117.988 89.874L116 91l.465-1.547c.704-3.228.884-6.407 1.097-9.703l.254-3.828L118 73z" fill="rgba(137, 136, 115, 1)" stroke="none"/>
  <path d="M74 293h15l-4 4v-2l-11-1v-1z" fill="rgba(58, 56, 44, 1)" stroke="none"/>
  <path d="M115 253l2 1c-.375 2.438-.375 2.438-1 5l-2 1c-.658 3.03-.658 3.03-1 6h-1c-.316-5.26.334-8.446 3-13z" fill="rgba(143, 142, 129, 1)" stroke="none"/>
  <path d="M118 219h1l1 13h3v2l-5 2v-17z" fill="rgba(113, 113, 99, 1)" stroke="none"/>
  <path d="M21 76h3c-1.39 3.358-2.825 5.186-6 7-2.75.188-2.75.188-5 0 2.688-2.252 4.646-3.882 8-5v-2z" fill="rgba(212, 190, 154, 1)" stroke="none"/>
  <path d="M59 77c-4.75 4-4.75 4-7 4l-1 3h-2c.25-2.375.25-2.375 1-5 2.904-2.178 5.451-2.197 9-2z" fill="rgba(28, 28, 21, 1)" stroke="none"/>
  <path d="M195 70c1.16 3.479.775 4.342-.438 7.688l-.87 2.449L193 82l2 1-3 4-1-11 2-1a78.037 78.037 0 0 0 2-5z" fill="rgba(141, 134, 125, 1)" stroke="none"/>
  <path d="M77 259c-1.708 2.106-2.521 2.938-5.262 3.293l-2.425-.106-2.45-.082L65 262c3.76-3.76 6.973-3.251 12-3z" fill="rgba(105, 105, 80, 1)" stroke="none"/>
  <path d="M23 201h1v11h-1l-1-6-2 5h-1v-6h2l2-4z" fill="rgba(35, 30, 28, 1)" stroke="none"/>
  <path d="M176 173h4l1 5-4 2-1-7z" fill="rgba(65, 61, 59, 1)" stroke="none"/>
  <path d="M152 165h5l-2 2 1 2-9 3 1.938-2.375c2.043-2.42 2.043-2.42 3.062-4.625z" fill="rgba(32, 32, 25, 1)" stroke="none"/>
  <path d="M162 163c-.875 3.875-.875 3.875-2 5-2 .04-4 .043-6 0l1-2h2v-2c2-1 2-1 5-1z" fill="rgba(17, 15, 12, 1)" stroke="none"/>
  <path d="M30 159h2v2l3 1-1 3a128.606 128.606 0 0 1-7-2l-1-2h4v-2z" fill="rgba(39, 36, 36, 1)" stroke="none"/>
  <path d="M107 111h4c1.23 5.415 1.23 5.415.063 8.375L110 121h-2l.098-6.055c.028-2.027.028-2.027-1.098-3.945z" fill="rgba(172, 165, 135, 1)" stroke="none"/>
  <path d="M162 47h1v8h2l.875 2.438c.858 2.695.858 2.695 3.125 3.562h-3v-2l-1.938-.875C162 57 162 57 161 55c.168-2.696.612-5.324 1-8z" fill="rgba(221, 197, 159, 1)" stroke="none"/>
  <path d="M154 17l2 4h-2l-2 4-4-2 6-6z" fill="rgba(33, 23, 24, 1)" stroke="none"/>
  <path d="M189 3c3.923 2.354 4.839 4.645 6 9l-7-3V7h2l-1-4z" fill="rgba(69, 61, 62, 1)" stroke="none"/>
  <path d="M110 252c-2.462 3.815-2.462 3.815-5.188 4.75L103 257v-2l-4-2c1.456-.363 2.915-.715 4.375-1.063l2.46-.597C108 251 108 251 110 252z" fill="rgba(105, 106, 86, 1)" stroke="none"/>
  <path d="M165 239c1.043 3.39 1.226 6.462 1 10l-2 3h-2c.656-4.485 1.7-8.67 3-13z" fill="rgba(122, 122, 111, 1)" stroke="none"/>
  <path d="M168 220h1c.286 8.571.286 8.571-2 12h-2c.6-4.195 1.575-8.01 3-12z" fill="rgba(46, 44, 34, 1)" stroke="none"/>
  <path d="M146 181c-1.186 3.375-2.276 5.647-5 8l-3-1 4-4-2-1c3.75-2 3.75-2 6-2z" fill="rgba(144, 143, 122, 1)" stroke="none"/>
  <path d="M141 29c1 2 1 2 .441 4.164l-.879 2.461-.87 2.477L139 40h-2v-2l-2-1 1.313-1.188c1.95-2.095 3.277-4.328 4.687-6.812z" fill="rgba(179, 171, 170, 1)" stroke="none"/>
  <path d="M116 290c1.523 2.937 2.801 5.917 4 9l-3-1-.813-2-1.187-2c-3.06-.816-3.06-.816-6-1v-1h7v-2z" fill="rgba(65, 62, 62, 1)" stroke="none"/>
  <path d="M162 279c0 4.055-1.549 5.848-4 9h-3c1.35-4.419 3.261-6.343 7-9z" fill="rgba(16, 14, 11, 1)" stroke="none"/>
  <path d="M179 261l2 3h4c-1.75 3.875-1.75 3.875-4 5v-2h-2v-2l-2-1 2-3z" fill="rgba(63, 57, 58, 1)" stroke="none"/>
  <path d="M217 169l2 2-2 4h-5c.25-1.875.25-1.875 1-4 2.063-1.25 2.063-1.25 4-2z" fill="rgba(12, 10, 9, 1)" stroke="none"/>
  <path d="M171 164l5 2v6l-3-2v-3h-2v-3z" fill="rgba(47, 42, 43, 1)" stroke="none"/>
  <path d="M172 154l3 1-1 4-5 1c.573-2.867.861-3.861 3-6z" fill="rgba(17, 15, 12, 1)" stroke="none"/>
  <path d="M177 152l3 1c-1.049 2.622-1.65 3.794-4.125 5.25L174 159c.75-4.75.75-4.75 3-7z" fill="rgba(48, 45, 44, 1)" stroke="none"/>
  <path d="M97 144h3l2 6-4 1c-1.063-2.375-1.063-2.375-2-5l1-2z" fill="rgba(30, 28, 26, 1)" stroke="none"/>
  <path d="M196 131h2v6h-2l-1 2-2 1c.557-3.344 1.352-6.033 3-9z" fill="rgba(6, 2, 2, 1)" stroke="none"/>
  <path d="M50 239c0 3 0 3-2.5 5.688L45 247l-2-1v-3l7-4z" fill="rgba(120, 119, 97, 1)" stroke="none"/>
  <path d="M35 170l-2 8-2-3-2 3c.376-2.782.673-4.588 2.438-6.813C33 170 33 170 35 170z" fill="rgba(93, 87, 82, 1)" stroke="none"/>
  <path d="M80 152l1 3c-5.538.37-5.538.37-7.875-1.5L72 152c3.29-1.097 4.713-.8 8 0z" fill="rgba(188, 187, 170, 1)" stroke="none"/>
  <path d="M114 121l4 1 1 5h2l-1 3c-3-1.75-3-1.75-6-4v-5z" fill="rgba(171, 169, 150, 1)" stroke="none"/>
  <path d="M204 116c2.34.287 4.674.62 7 1l-1 3h-2l-1 3-1-2-2-1 2-1-3-2 1-1z" fill="rgba(38, 36, 33, 1)" stroke="none"/>
  <path d="M105 112l4 1-1 8 2 1h-3l-2-10z" fill="rgba(211, 195, 159, 1)" stroke="none"/>
  <path d="M191 204h2v2l3 1-1 3h-2l-1 2-1-8z" fill="rgba(146, 145, 131, 1)" stroke="none"/>
  <path d="M176 187h2c-.547 3.375-1.055 5.082-3 8h-2v-2l-2-1 1.938-.813c2.393-1.074 2.393-1.074 3.062-4.187z" fill="rgba(108, 106, 86, 1)" stroke="none"/>
  <path d="M141 125l-1 5-3-1 1-3h-6v-1c6.75-1.125 6.75-1.125 9 0z" fill="rgba(28, 27, 26, 1)" stroke="none"/>
  <path d="M121 114c2 3.75 2 3.75 2 6h-2v-2l-4 2-1-4 1.938-.438c2.037-.372 2.037-.372 3.062-1.562z" fill="rgba(37, 36, 36, 1)" stroke="none"/>
  <path d="M124 100h3v5h-4l1-5z" fill="rgba(227, 225, 227, 1)" stroke="none"/>
  <path d="M65 80c2.886.398 3.822.79 5.75 3.063L72 85l-3 1-3-2 1-1-2-1v-2z" fill="rgba(24, 22, 21, 1)" stroke="none"/>
  <path d="M160 60l6 5-1 2-4-1-1-6z" fill="rgba(143, 140, 127, 1)" stroke="none"/>
  <path d="M37 51c2 3 2 3 2.5 5.625L40 59l2 1-2 4-2-1c-.414-2.723-.414-2.723-.625-6.063l-.227-3.347L37 51z" fill="rgba(56, 47, 38, 1)" stroke="none"/>
  <path d="M146 24c0 3.444-.796 4.748-2.5 7.688l-1.406 2.449L141 36l-1-2c1.435-3.947 2.678-7.311 6-10z" fill="rgba(135, 127, 126, 1)" stroke="none"/>
  <path d="M157 251l3 1c-.25 1.875-.25 1.875-1 4-2.063 1.25-2.063 1.25-4 2 .875-4.75.875-4.75 2-7z" fill="rgba(10, 10, 6, 1)" stroke="none"/>
  <path d="M25 156c1.938.813 1.938.813 4 2l1 3h-4v-2l-3-1 2-2z" fill="rgba(12, 9, 7, 1)" stroke="none"/>
  <path d="M23 154l3 2-2 2 2 1-1 2-6-5 4-2z" fill="rgba(65, 61, 61, 1)" stroke="none"/>
  <path d="M184 144l2 4-4 4c-.688-1.75-.688-1.75-1-4 1.438-2.25 1.438-2.25 3-4z" fill="rgba(52, 50, 50, 1)" stroke="none"/>
  <path d="M77 122l-9 6-1-2h2l1-3c2.943-1.962 3.52-2.16 7-1z" fill="rgba(165, 165, 147, 1)" stroke="none"/>
  <path d="M48 110l1.813 2.313c1.657 2.035 3.29 3.885 5.187 5.687l-4 1c-2.294-3.44-3-4.723-3-9z" fill="rgba(189, 190, 189, 1)" stroke="none"/>
  <path d="M26 93l-1 2c-2.066.633-2.066.633-4.563 1.125l-2.503.508L16 97v-2c3.402-2.094 6.053-2.18 10-2z" fill="rgba(114, 113, 93, 1)" stroke="none"/>
  <path d="M158 55c1.813.188 1.813.188 4 1 1.75 2.563 1.75 2.563 3 5-2 0-2 0-3.625-1.5L160 58l-1 2-1-5z" fill="rgba(50, 40, 31, 1)" stroke="none"/>
  <path d="M174 28l2 1c-3.288 2.912-5.599 4.497-10 5 4.625-4.875 4.625-4.875 8-6z" fill="rgba(82, 64, 47, 1)" stroke="none"/>
  <path d="M27 286c3.817 1.555 6.192 4.036 9 7-3 0-3 0-5.625-2.375C28 288 28 288 27 286z" fill="rgba(165, 159, 159, 1)" stroke="none"/>
  <path d="M153 287l-1 4-6 1v-2c4.385-3 4.385-3 7-3z" fill="rgba(15, 13, 11, 1)" stroke="none"/>
  <path d="M114 282c2.094 3.402 2.18 6.053 2 10l-4-1h3v-2h-2l1-7z" fill="rgba(119, 118, 109, 1)" stroke="none"/>
  <path d="M32 281h6l-1 5c-2.5-1.375-2.5-1.375-5-3v-2z" fill="rgba(149, 150, 135, 1)" stroke="none"/>
  <path d="M138 277l4 2h-2l-2 5-2-1 2-6z" fill="rgba(84, 85, 70, 1)" stroke="none"/>
  <path d="M153 261h3c-.75 4.75-.75 4.75-3 7a128.624 128.624 0 0 1-1-6l1-1z" fill="rgba(7, 6, 4, 1)" stroke="none"/>
  <path d="M116 242c1.238 3.576.75 6.337 0 10l4 2-3 1c-2-2-2-2-2.188-5.938.026-2.738.301-4.402 1.188-7.062z" fill="rgba(91, 91, 80, 1)" stroke="none"/>
  <path d="M117 237h1v7l4 1-2 3-3-2c-.293-2.164-.293-2.164-.188-4.625l.083-2.477L117 237z" fill="rgba(119, 121, 105, 1)" stroke="none"/>
  <path d="M166 229h1v9h-3l-1-2c.936-2.36 1.933-4.696 3-7z" fill="rgba(19, 19, 12, 1)" stroke="none"/>
  <path d="M206 215h3v6h-3v-6z" fill="rgba(12, 9, 7, 1)" stroke="none"/>
  <path d="M91 149l1 4-5 4c0-3.908 1.506-5.116 4-8z" fill="rgba(10, 7, 5, 1)" stroke="none"/>
  <path d="M210 118c3.375.547 5.082 1.055 8 3-1.813.688-1.813.688-4 1-1.75-1.438-1.75-1.438-3-3l-1 4-2-1v-2h2v-2z" fill="rgba(137, 136, 120, 1)" stroke="none"/>
  <path d="M27 74l2 3c-4.75 4-4.75 4-7 4 1.293-2.884 2.66-4.872 5-7z" fill="rgba(59, 49, 34, 1)" stroke="none"/>
  <path d="M140 36l2 4-2 3h-3v-3h2l1-4z" fill="rgba(50, 47, 39, 1)" stroke="none"/>
  <path d="M141.688 294.313L145 295c-3.644 2.43-5.712 2.162-10 2 2.107-3.099 2.82-3.015 6.688-2.688z" fill="rgba(99, 92, 92, 1)" stroke="none"/>
  <path d="M62 278c2.063.438 2.063.438 4 1l-1 2a176.3 176.3 0 0 0-1 5c-2.366-2.366-2.582-3.743-3-7l1-1z" fill="rgba(20, 19, 17, 1)" stroke="none"/>
  <path d="M118 254l11 2v1l-8-1-1 2-2-4z" fill="rgba(113, 113, 88, 1)" stroke="none"/>
  <path d="M45 245l-4 4-1-2c-2.527-.656-2.527-.656-5-1v-1c3.663-.75 6.424-1.238 10 0z" fill="rgba(107, 106, 85, 1)" stroke="none"/>
  <path d="M132 210v2c-4.386.702-8.558 1.108-13 1v-1c1.603-.337 3.208-.67 4.813-1l2.707-.563C129 210 129 210 132 210z" fill="rgba(109, 108, 87, 1)" stroke="none"/>
  <path d="M178 182c1.414 2.639 2.372 5.071 3 8h-3c-1.125-5.75-1.125-5.75 0-8z" fill="rgba(138, 135, 121, 1)" stroke="none"/>
  <path d="M229 155l2 1-1.5 1.375c-1.726 1.501-1.726 1.501-1.5 3.625l-5-2c2.052-2.248 3.007-3.002 6-4z" fill="rgba(10, 8, 7, 1)" stroke="none"/>
  <path d="M92 146l3 4-3 3-1-3h-3l4-4z" fill="rgba(49, 46, 42, 1)" stroke="none"/>
  <path d="M128 98h2l1 5h-3v3l-2-1 2-7z" fill="rgba(42, 42, 43, 1)" stroke="none"/>
  <path d="M59 41h9v5l-2-3-1.813.688L62 44l-3-3z" fill="rgba(148, 146, 129, 1)" stroke="none"/>
  <path d="M46 287c.625 2.063.625 2.063 1 4a128.606 128.606 0 0 1-7-2l-1-2c4.75-1.125 4.75-1.125 7 0z" fill="rgba(131, 131, 119, 1)" stroke="none"/>
  <path d="M49 270h2c-1.27 3.914-2.512 5.79-6 8l-2-1 1.875-1.25c2.193-1.806 3.053-3.16 4.125-5.75z" fill="rgba(143, 142, 121, 1)" stroke="none"/>
  <path d="M61 267h8c-1.313 1.5-1.313 1.5-3 3h-3l-1 2-1-5z" fill="rgba(123, 123, 106, 1)" stroke="none"/>
  <path d="M27 199l3 1-2 3-2-1-1 6c-.934-3.01-1.044-3.867 0-7h2v-2z" fill="rgba(133, 131, 118, 1)" stroke="none"/>
  <path d="M168 157l1 3 2 1-4 2-1-2-2-1 4-3z" fill="rgba(32, 30, 27, 1)" stroke="none"/>
  <path d="M195 145h6l-1.875.75c-2.503 1.472-2.955 2.66-4.125 5.25l-2 1 2-7z" fill="rgba(134, 134, 119, 1)" stroke="none"/>
  <path d="M125 140c1.5 1.125 1.5 1.125 3 3 .188 3.188.188 3.188 0 6l-2-1c-.594-2.649-.742-5.292-1-8z" fill="rgba(207, 206, 186, 1)" stroke="none"/>
  <path d="M117 123c3.161 1.37 3.993 1.99 6 5-3 0-3 0-6-2v-3z" fill="rgba(148, 146, 132, 1)" stroke="none"/>
  <path d="M40 54h3v6l-3-1v-5z" fill="rgba(14, 16, 13, 1)" stroke="none"/>
</svg>
</g></svg></g></g>
<!-- /image 87617 -->
</defs><rect x="0" y="0" width="250" height="250" fill="rgba(159, 158, 138, 1)"></rect><use xlink:href="#transformed-87617" transform="translate(-250, -250)"></use><use xlink:href="#transformed-87617" transform="translate(0, -250)"></use><use xlink:href="#transformed-87617" transform="translate(250, -250)"></use><use xlink:href="#transformed-87617" transform="translate(-250, 0)"></use><use xlink:href="#transformed-87617" transform="translate(0, 0)"></use><use xlink:href="#transformed-87617" transform="translate(250, 0)"></use><use xlink:href="#transformed-87617" transform="translate(-250, 250)"></use><use xlink:href="#transformed-87617" transform="translate(0, 250)"></use><use xlink:href="#transformed-87617" transform="translate(250, 250)"></use></svg>