<?xml version="1.0" standalone="no"?>
<svg xmlns="http://www.w3.org/2000/svg" xmlns:xlink="http://www.w3.org/1999/xlink" height="200px" width="200px">
  <defs>
    <pattern id="doodad" width="200" height="200" viewBox="0 0 40 40" patternUnits="userSpaceOnUse" patternTransform="rotate(135)">
      <rect width="100%" height="100%" fill="rgba(255, 165, 0,1)"/>
      <path d="M9.9 9.9a 10.1 10.1 0 0 1 20.2 0a 10.1 10.1 0 0 1 0 20.2a 10.1 10.1 0 0 1-20.2 0a 10.1 10.1 0 0 1 0-20.2M10 19a 1 1 0 0 0 0 2a 9 9 0 0 1 9 9a 1 1 0 0 0 2 0a 9-9 0 0 1 9-9a 1 1 0 0 0 0-2a-9-9 0 0 1-9-9a 1 1 0 0 0-2 0a-9 9 0 0 1-9 9z" fill="rgba(247, 250, 252,1)"/>
      <path d="M10 10a 10 10 0 0 1 20 0a 10 10 0 0 1 0 20a 10 10 0 0 1-20 0a 10 10 0 0 1 0-20M10 19a 1 1 0 0 0 0 2a 9 9 0 0 1 9 9a 1 1 0 0 0 2 0a 9-9 0 0 1 9-9a 1 1 0 0 0 0-2a-9-9 0 0 1-9-9a 1 1 0 0 0-2 0a-9 9 0 0 1-9 9z" fill="rgba(247, 250, 252,1)"/>
    </pattern>
  </defs>
  <rect fill="url(#doodad)" height="200%" width="200%"/>
</svg>
