<svg version="1.1"
      xmlns="http://www.w3.org/2000/svg"
      xmlns:xlink="http://www.w3.org/1999/xlink"  id="snapshot-46846" width="250" height="250" viewBox="0 0 250 250"><desc>This image was made on Patterninja.com</desc><defs>
<!-- image 41424 -->
<g id="transformed-41424" data-image="41424" transform="translate(-125, -125) rotate(0, 125, 125)"><g><svg version="1.1" width="250px" height="250px" viewBox="0 0 250 250"><g id="original-41424"><svg xmlns="http://www.w3.org/2000/svg" viewBox="0 0 500 500" xmlns:xlink="http://www.w3.org/1999/xlink" version="1.1" preserveAspectRatio="xMidYMid meet">
  <path d="M252 6c2.25 2 2.25 2 4 5l1.055 1.797c18.19 33.194 11.329 96.253 1.261 130.953-2.93 9.627-6.237 18.175-12.316 26.25l-1.656 2.305c-3.44 4.643-7.096 8.502-11.547 12.187-2.53 2.12-2.53 2.12-4.797 4.508a62.702 62.702 0 0 0 0 8.563l.16 2.566c1.066 13.506 5.795 25.934 10.378 38.577 2.603 7.329 4.24 14.616 5.462 22.294 10.834-19.594 14.202-42.176 18.188-63.938l.383-2.083c1.317-7.195 2.507-14.377 3.402-21.64.916-7.103 2.432-13.923 4.277-20.839l.946-3.554c3.986-14.634 9.024-26.298 18.465-38.204 1.422-1.85 2.736-3.755 4.054-5.68L296 102h2l.688-1.625c1.768-3.2 3.849-5.665 6.312-8.375h2l.563-1.75c2.45-3.835 6.427-5.245 10.437-7.25 9.791.065 16.86 2.208 24 9v2h2c2.51 2.012 3.84 3.25 4.521 6.437l.028 2.752.058 3.138-.005 3.384.026 3.514c.011 2.46.012 4.92.003 7.379-.006 3.723.04 7.443.092 11.166.087 16.06-.874 28.754-12.16 41.105l-1.451 1.627A356.518 356.518 0 0 1 331 179c-9.46 10.367-17.07 21.256-23 34a1647.49 1647.49 0 0 1-3.063 6 166.545 166.545 0 0 0-5.5 12.188 98.646 98.646 0 0 1-5.996 12.222c-1.878 3.375-3.597 6.82-5.316 10.278l-1.036 2.083-2.075 4.185c-1.56 3.143-3.13 6.281-4.702 9.419l-1.714 3.43c-4.8 9.597-4.8 9.597-9.598 19.195h-2l-.668 2.27c-1.67 3.424-3.403 4.465-6.645 6.418l-2.863 1.761C253.126 304.48 250.254 306 246 306l.504 2.633c1.828 12.41-2.08 25.693-8.629 36.305-11.053 13.438-31.251 22.253-48.322 24.365-9.246.785-17.094.908-24.74-4.99-1.845-1.606-1.845-1.606-4.813-1.313l-2 1c-5.443.357-8.494.347-13-3l-3-2c-2.788.8-2.788.8-5.75 2.25-3.41 1.532-6.595 2.955-10.25 3.75-3.679 1.226-4.829 2.864-7 6-2.688 1.344-4.812 1.132-7.813 1.125l-3.144.008C105 372 105 372 102.64 371.49c-2.734-.509-5.152-.558-7.93-.483-21.48.404-43.702.083-60.71-15.008-5.031-5.839-8.1-12.924-11-20-.3-.705-.598-1.41-.906-2.137C13.383 310.997 17.46 283.436 25 261l.746-2.277a537.9 537.9 0 0 1 1.414-4.23c.664-1.971 1.315-3.946 1.961-5.923 3.205-9.788 6.448-19.597 10.941-28.882C44.64 209.607 46.434 197.876 48 187l-2.5-1.875L43 183v-2l-2.281-.746c-6.539-3.016-10.301-10.856-13.535-17.027a69.357 69.357 0 0 0-2.461-4.266c-3.518-5.709-5.119-11.55-6.633-18.02-.77-3.062-1.843-5.895-3.05-8.812-1.988-4.842-3.411-9.662-4.603-14.754l-.637-2.72C7.382 103.87 6.11 92.985 5 82l-.316-2.95C3.272 65.64 2.799 52.286 2.75 38.813l-.016-2.26a668.99 668.99 0 0 1 0-6.408l.007-3.74C3.005 22.93 3.642 20.206 5 17c7.663-3.831 18.408-.214 26.062 2.125l3.286.974c2.192.652 4.383 1.312 6.57 1.978 2.755.825 5.516 1.593 8.293 2.337 10.434 2.891 18.908 7.225 27.934 13.195C80.35 39.666 83.213 41.257 87 42c2.913-.576 2.913-.576 5.75-1.813 8.646-3.46 17.64-3.349 26.832-3.171l2.958.05c2.051.037 4.102.077 6.154.121 3.1.063 6.2.104 9.3.145 12.852.226 24.357.694 36.006 6.668 3.436-.202 5.33-1.954 8-4h2v-2l2.437-.813L189 36l1-3a95.349 95.349 0 0 1 5.875-4.75l1.797-1.345A752.533 752.533 0 0 1 203 23l2.57-1.93C217.594 12.681 236.988 4.22 252 6z" fill="rgba(70, 70, 70, 1)" stroke="none"/>
  <path d="M252 6c2.25 2 2.25 2 4 5l1.055 1.797c18.19 33.194 11.329 96.253 1.261 130.953-2.93 9.627-6.237 18.175-12.316 26.25l-1.656 2.305c-3.44 4.643-7.096 8.502-11.547 12.187-2.53 2.12-2.53 2.12-4.797 4.508a62.702 62.702 0 0 0 0 8.563l.16 2.566c1.066 13.506 5.795 25.934 10.378 38.577 2.603 7.329 4.24 14.616 5.462 22.294 10.834-19.594 14.202-42.176 18.188-63.938l.383-2.083c1.317-7.195 2.507-14.377 3.402-21.64.916-7.103 2.432-13.923 4.277-20.839l.946-3.554c3.986-14.634 9.024-26.298 18.465-38.204 1.422-1.85 2.736-3.755 4.054-5.68L296 102h2l.688-1.625c1.768-3.2 3.849-5.665 6.312-8.375h2l.563-1.75c2.45-3.835 6.427-5.245 10.437-7.25 9.791.065 16.86 2.208 24 9v2h2c2.51 2.012 3.84 3.25 4.521 6.437l.028 2.752.058 3.138-.005 3.384.026 3.514c.011 2.46.012 4.92.003 7.379-.006 3.723.04 7.443.092 11.166.087 16.06-.874 28.754-12.16 41.105l-1.451 1.627A356.518 356.518 0 0 1 331 179c-9.46 10.367-17.07 21.256-23 34a1647.49 1647.49 0 0 1-3.063 6 166.545 166.545 0 0 0-5.5 12.188 98.646 98.646 0 0 1-5.996 12.222c-1.878 3.375-3.597 6.82-5.316 10.278l-1.036 2.083-2.075 4.185c-1.56 3.143-3.13 6.281-4.702 9.419l-1.714 3.43L269 292h-2l-.668 2.27c-1.67 3.424-3.403 4.465-6.645 6.418l-2.863 1.761C253.126 304.48 250.254 306 246 306l.504 2.633c1.828 12.41-2.08 25.693-8.629 36.305-11.053 13.438-31.251 22.253-48.322 24.365-9.246.785-17.094.908-24.74-4.99-1.845-1.606-1.845-1.606-4.813-1.313l-2 1c-5.443.357-8.494.347-13-3l-3-2c-2.788.8-2.788.8-5.75 2.25-3.41 1.532-6.595 2.955-10.25 3.75-3.679 1.226-4.829 2.864-7 6-2.688 1.344-4.812 1.132-7.813 1.125l-3.144.008C105 372 105 372 102.64 371.49c-2.734-.509-5.152-.558-7.93-.483-19.313.363-40.744.683-56.71-12.008-2.575-2.575-2.974-3.557-3.188-7.25L35 349c4 0 4 0 5.863 1.777L43 353c15.99 10.171 33.567 10.477 52 11l-1.906-2.43c-10.64-13.96-16.262-28.894-20.77-45.746-1.328-4.956-2.958-9.74-4.758-14.547-.623-2.507-.417-3.867.434-6.277l4-1c4.35 10.33 7.807 20.95 11 31.688 2.868 9.375 6.346 18.26 12 26.312l1.473 2.125c4.613 6.725 4.613 6.725 11.617 10.332 1.961.259 3.936.41 5.91.543 5.683-19.3 7.526-38.462 8.562-58.5a4335.154 4335.154 0 0 1 .863-15.644c.55-9.321 1.486-18.584 2.575-27.856a88.406 88.406 0 0 1 5-1c1 1 1 1 1.128 3.053-.03 7.286-.437 14.498-1.003 21.76-.58 7.622-1.143 15.241-1.563 22.875-1.94 34.448-1.94 34.448-6.562 48.312l2.703-1.059 3.547-1.378 3.516-1.372A61.187 61.187 0 0 1 140 352l-.048-2.408c-.491-28.665-.491-28.665 3.048-42.592.294-1.479.586-2.958.875-4.438 1.041-4.496 2.302-8.936 3.562-13.375l.623-2.25c1.124-3.867 2.187-6.879 4.94-9.937l5 1c-.69 3.816-1.704 7.43-2.875 11.125L153 296l-.824 2.625C147.222 315.4 146.404 332.617 146 350l3 1v5c3.49.509 5.775.763 8.824-1.137 2.158-1.868 4.163-3.84 6.176-5.863l2.86-2.715c5.976-5.73 11.11-11.654 15.976-18.379 9.263-12.44 9.263-12.44 15.164-14.906v-2c1.687-1.688 1.687-1.688 4-3 2.75.313 2.75.313 5 1 0 4 0 4-1.504 5.676l-2.059 1.637-2.23 1.855L199 320c-5.138 4.584-9.277 9.78-13.36 15.293-2.643 3.541-5.475 6.631-8.64 9.707a427.792 427.792 0 0 0-4.813 5.188l-2.394 2.605c-2.003 1.992-2.003 1.992-1.793 4.207 6.136 4.789 12.322 4.922 19.944 4.27 15.33-2.017 32.59-10.021 43.056-21.27 5.916-8.967 7.16-17.365 7.133-27.871l.003-2.546c0-1.774-.001-3.548-.006-5.322-.005-2.66 0-5.318.007-7.978.083-21.55.083-21.55-3.825-42.658l-.804-2.952c-2.096-7.556-4.521-14.985-7.055-22.403-4.171-12.22-7.245-23.273-7.453-36.27l-1.906.77c-2.695 1.083-5.395 2.156-8.094 3.23l-2.2.898-1.988.79-1.73.699c-6.527 1.922-13.222 1.766-19.957 1.738l-2.914.012-2.766-.004-2.515-.004C173 200 173 200 172 199a99.984 99.984 0 0 1 0-5c2.28-1.14 3.683-1.167 6.219-1.246l2.56-.095 2.721-.096c19.138-.858 36.322-6.517 50.309-20.352C247.359 156.938 252.458 137.85 255 118l.277-2.146c1.634-12.989 2.085-25.833 2.035-38.916l-.004-2.971c.025-30.044.025-30.044-7.308-58.967-6.593-.33-12.041.57-18.398 2.344C229 18 229 18 226 18v2l-3.094 1.29c-13.626 5.861-24.946 14.453-35.21 25.1C186 48 186 48 184 48v2c-1.39 1.543-1.39 1.543-3.25 3.188l-1.828 1.667C177 56 177 56 174.828 55.863L173 55l-1-3c-19.71-10.871-54.296-10.447-75.355-4.938-2.53.897-4.834 1.938-7.208 3.188C86 52 86 52 83 51.75L81 51l-1-7c3.94-1.149 7.936-1.526 12-2v-2c9.05-2.95 18.128-3.167 27.582-2.984l2.958.05c2.051.037 4.102.077 6.154.121 3.1.063 6.2.104 9.3.145 12.852.226 24.357.694 36.006 6.668 3.436-.202 5.33-1.954 8-4h2v-2l2.437-.813L189 36l1-3a95.349 95.349 0 0 1 5.875-4.75l1.797-1.345A752.533 752.533 0 0 1 203 23l2.57-1.93C217.594 12.681 236.988 4.22 252 6z" fill="rgba(34, 34, 34, 1)" stroke="none"/>
  <path d="M327 91c9.296 3.847 16.015 11.902 20 21 1.942 5.939 1.344 12.72 1.405 18.914.021 1.623.055 3.246.103 4.869.414 14.392-1.862 26.057-11.945 37.092l-1.44 1.607A474.747 474.747 0 0 1 331 179a1045.266 1045.266 0 0 0-3.875 4.5c-2.6 2.956-5.3 5.76-8.125 8.5l1-7c-2.358.045-2.358.045-5 1-1.736 1.974-2.977 3.706-4.312 5.938l-1.248 2.033c-6.717 11.41-11.954 23.689-17.481 35.702-3.193 6.901-6.588 13.695-10.024 20.477-1.327 2.626-2.642 5.258-3.956 7.89-.649 1.3-1.3 2.598-1.95 3.896-1.891 3.77-3.76 7.552-5.615 11.341l-1.34 2.722c-.863 1.752-1.721 3.507-2.574 5.264-3.165 6.408-5.88 11.374-12.562 14.55l-2.598 1.269C249 298 249 298 246 298c-1.998-19.09-1.998-19.09 2.406-26.945 2.162-4.143 3.594-8.45 5.094-12.868l1.805-5.28.874-2.56c1.078-3.08 2.27-6.114 3.446-9.16 5.584-15.77 7.878-32.614 10.625-49.062l.396-2.373c1.682-9.995 1.682-9.995 2.948-20.049.32-2.922.72-5.322 1.656-8.078a119.226 119.226 0 0 0 2.777-9.957c3.507-14.872 9.001-26.93 18.973-38.668 1.522-1.874 3.043-3.75 4.563-5.625 1.477-1.793 2.956-3.585 4.437-5.375l1.73-2.113c5.821-6.988 9.811-10.315 19.27-8.887z" fill="rgba(72, 72, 72, 1)" stroke="none"/>
  <path d="M127 262c1.675.286 3.344.618 5 1 .126 7.984-.255 15.854-.875 23.813-.58 7.622-1.143 15.241-1.563 22.875-1.94 34.448-1.94 34.448-6.562 48.312l2.703-1.059 3.547-1.378 3.516-1.372A61.187 61.187 0 0 1 140 352l-.048-2.408c-.491-28.665-.491-28.665 3.048-42.592.294-1.479.586-2.958.875-4.438 1.041-4.496 2.302-8.936 3.563-13.375l.622-2.25c1.124-3.867 2.187-6.879 4.94-9.937l5 1c-.69 3.816-1.704 7.43-2.875 11.125L153 296l-.824 2.625C147.222 315.4 146.404 332.617 146 350l3 1v5c3.49.509 5.775.763 8.824-1.137 2.158-1.868 4.163-3.84 6.176-5.863l2.86-2.715c5.976-5.73 11.11-11.654 15.976-18.379 9.263-12.44 9.263-12.44 15.164-14.906v-2c1.688-1.688 1.688-1.688 4-3 2.75.313 2.75.313 5 1 0 4 0 4-1.504 5.676l-2.059 1.637-2.23 1.855L199 320c-5.138 4.584-9.277 9.78-13.36 15.293-2.643 3.54-5.465 6.641-8.64 9.707a304.025 304.025 0 0 0-4.813 4.938l-2.394 2.464c-2.187 3.168-2.302 4.822-1.793 8.598l2 3-1 2c-2.972-1.125-5.334-2.223-8-4l-3 2c-5.453.44-8.492.349-13-3l-3-2c-2.788.8-2.788.8-5.75 2.25-3.41 1.532-6.595 2.955-10.25 3.75-3.679 1.226-4.829 2.864-7 6-2.688 1.344-4.812 1.132-7.813 1.125l-3.144.008C105 372 105 372 102.64 371.49c-2.734-.509-5.152-.558-7.93-.483-19.313.363-40.744.683-56.71-12.008-2.575-2.575-2.974-3.557-3.188-7.25L35 349c4 0 4 0 5.863 1.777L43 353c15.99 10.171 33.567 10.477 52 11l-1.906-2.43c-10.64-13.96-16.262-28.894-20.77-45.746-1.328-4.956-2.958-9.74-4.758-14.547-.623-2.507-.417-3.867.434-6.277l4-1c4.35 10.33 7.807 20.95 11 31.688 2.868 9.375 6.346 18.26 12 26.312l1.473 2.125c4.613 6.725 4.613 6.725 11.617 10.332 1.961.259 3.936.41 5.91.543 5.683-19.3 7.526-38.462 8.563-58.5 1.282-24 1.282-24 2.464-35.469l.247-2.435c.599-5.469.599-5.469 1.726-6.596z" fill="rgba(12, 12, 12, 1)" stroke="none"/>
  <path d="M6 21l4 2 .028 2.486c-.298 53.02-.298 53.02 13.062 103.448 1.295 2.94 1.963 5.937 2.66 9.066 5.298 21.52 17.477 37.346 36.332 48.883 6.54 3.734 13.759 5.892 20.918 8.117l3 1c2.393.226 4.79.408 7.188.563l3.855.253L100 197c.625 2.375.625 2.375 1 5-2 2-2 2-5.223 2.195-9.13-.472-17.75-2.984-26.277-6.132l-1.994-.73c-4.29-1.65-7.794-3.681-11.506-6.333l-.191 1.852c-1.858 13.883-6.487 27.856-12.57 40.441-5.295 11.573-8.56 23.996-11.88 36.24l-.843 3.108-.742 2.766C29 278 29 278 27.944 280.577c-5.662 14.536-3.482 38.038 2.626 52.017a193.768 193.768 0 0 0 3.32 6.664c1.167 2.882 1.271 3.92.11 6.742l-4 1-.812-2.437L28 342l-3-1c-10.647-16.975-8.947-44.478-4.922-63.312C21.49 272.043 23.147 266.514 25 261l.746-2.277a537.9 537.9 0 0 1 1.414-4.23c.664-1.971 1.315-3.946 1.961-5.923 3.205-9.788 6.448-19.597 10.942-28.882C44.639 209.608 46.434 197.877 48 187l-2.5-1.875L43 183v-2l-2.281-.746c-6.539-3.016-10.301-10.856-13.535-17.027a69.357 69.357 0 0 0-2.461-4.266c-3.518-5.709-5.119-11.55-6.633-18.02-.77-3.062-1.843-5.895-3.05-8.812C4.816 107.215 4.512 79.066 4.735 52.597c.02-2.763.023-5.526.026-8.29.006-3.309.02-6.618.035-9.928l.013-3.733.029-3.406.02-3.003C5 22 5 22 6 21z" fill="rgba(26, 26, 26, 1)" stroke="none"/>
  <path d="M89.023 95.773C95.34 95.363 99.2 96.94 104 101c9.276 8.759 13.795 17.985 14.445 30.71.236 8.715-1.302 13.748-7.445 20.29l-2.563 3c-4.38 3.594-8.725 4.415-14.355 4.254-5.873-.716-10.83-3.135-15.082-7.254v-2h-2c-7.072-7.368-11.175-14.82-11.438-25.063.181-5.616.864-9.966 3.438-14.937l1.031-2.34c2.467-5.14 4.75-7.841 10.067-10.02 3.025-1.018 5.762-1.512 8.925-1.867z" fill="rgba(4, 5, 4, 1)" stroke="none"/>
  <path d="M327 91c9.296 3.847 16.015 11.902 20 21 4.671 15.136-3.21 32.632-10 46l-2.25-1.375c-2.584-1.585-2.584-1.585-4.742-2.563-2.642-1.398-4.814-3.18-7.133-5.062l-2.633-2.125C318 145 318 145 316 143l-2.563-.938L311 141l-1-3-2.813-.188C304 137 304 137 302.125 134.625 301 132 301 132 301 129c-2.437.27-2.437.27-5 1l-2 3c-2.438.875-2.438.875-5 1-1.813-1.438-1.813-1.438-3-3 1.427-6.185 5.1-10.192 9-15 .923-1.246 1.84-2.495 2.75-3.75 2.818-3.767 5.795-7.392 8.813-11l1.391-1.683c5.95-7.05 9.8-9.963 19.046-8.567z" fill="rgba(71, 71, 71, 1)" stroke="none"/>
  <path d="M233 27c2.262.137 2.262.137 5 1 8.37 10.182 7.752 21.569 7 34-.063 1.58-.123 3.161-.18 4.742-.778 19.216-.778 19.216-4.82 23.258-2.375-.063-2.375-.063-5-1a95.035 95.035 0 0 1-4-5c-4.697-4.56-9.009-6.346-15.25-8.125l-2.555-.773a324.582 324.582 0 0 0-10.484-2.973c-5.1-1.364-8.56-2.566-11.711-7.129.49-8.255 9.299-14.468 15-19.688A508.935 508.935 0 0 1 211 41l2.246-1.941C218.474 34.744 225.937 29 233 29v-2z" fill="rgba(12, 10, 10, 1)" stroke="none"/>
  <path d="M297 128c1.813.063 1.813.063 4 1l1.375 3.438c1.25 3.817 1.25 3.817 4.688 4.812L310 138l2 3 2.188.813c3.936 1.662 6.664 4.345 9.812 7.187 3.89 3.83 3.89 3.83 9 5 1.688 1.5 1.688 1.5 3 3 2.239-3.359 3.552-6.804 4.938-10.563l.803-2.158c1.974-5.364 3.748-10.764 5.259-16.279h1c.91 18.917.043 31.902-12.886 46.512A920.75 920.75 0 0 1 331 179a1045.266 1045.266 0 0 0-3.875 4.5c-2.6 2.956-5.3 5.76-8.125 8.5l1-7-4-1 2.063-2.313L320 179c-.663-3.16-.663-3.16-3.25-4.14l-2.75-1.11c-2.742-1.277-2.742-1.277-5-2.75-1.125-3.813-1.125-3.813-1-7l-2.375-.938C303 162 303 162 301 161c-.625-2.563-.625-2.563-1-5l-1.813-.438c-1.749-.45-3.474-.99-5.187-1.562-.688-2.063-.688-2.063-1-4-5.68.94-9.724 1.862-14 6 3.07-19.05 3.07-19.05 8-25l1.75 1.063c2.162 1.094 2.162 1.094 4.313.812 2.49-1.125 3.474-2.608 4.937-4.875z" fill="rgba(71, 71, 71, 1)" stroke="none"/>
  <path d="M273 224v2l3.188-.188c4.104.202 5.478.965 8.812 3.188 1.99.695 3.99 1.366 6 2a618.682 618.682 0 0 1-11.516 24.055c-1.7 3.37-3.377 6.75-5.044 10.137-1.246 2.532-2.497 5.06-3.749 7.59a1259.01 1259.01 0 0 0-1.863 3.788c-.88 1.796-1.768 3.588-2.656 5.38l-1.56 3.166c-2.803 5.014-5.467 8.222-10.674 10.697l-2.598 1.269C249 298 249 298 246 298c-1.998-19.09-1.998-19.09 2.406-26.945 2.162-4.143 3.593-8.45 5.094-12.868l1.797-5.226.873-2.552c1.545-4.484 3.162-8.941 4.775-13.401.967-2.756 1.83-5.527 2.68-8.32L265 225c2.928-.976 4.956-1.082 8-1z" fill="rgba(71, 71, 71, 1)" stroke="none"/>
  <path d="M210 108c4.774 8.95 3.547 17.805.914 27.34-1.159 3.372-2.672 5.89-4.914 8.66l-2 2.938c-4.964 5.67-11.46 9.535-18.906 10.644-7.1.189-11.383-.088-17.094-4.582-4.77-4.634-6.131-8.527-6.24-15.158-.037-9.408.622-17.437 5.24-25.842 1.938-1.813 1.938-1.813 4-3l3 1 1 3-2 3a128.213 128.213 0 0 0-1 7h2l2 3c2.762.327 2.762.327 5.875.125 3.603-.133 6.669-.21 10.125.875v2l2.875-.5C198 128 198 128 200 128l2-1c-.14 7.602-3.005 12.347-8 18-4.026 3.793-7.552 5.392-13.125 5.25-3.982-.608-5.876-1.773-8.5-4.813A71.36 71.36 0 0 1 170 142a84.76 84.76 0 0 0 2 7c4.971 1.907 10.818 1.783 16 1 7.043-3.407 12.671-8.448 15.75-15.688 1.78-5.578 1.404-11.319 1.14-17.104-.196-5.823-.196-5.823 1.497-7.953C208 108 208 108 210 108z" fill="rgba(6, 6, 6, 1)" stroke="none"/>
  <path d="M43 181l7 1-2 1c1.622 1.703 3.075 3.047 5.08 4.299C55 189 55 189 55.52 191.259c-.114 7.593-1.76 14.08-4.208 21.241l-1.029 3.184c-2.029 6.136-4.406 11.984-7.143 17.837-5.28 11.479-8.485 23.857-11.78 36.013l-.844 3.107-.742 2.766C29 278 29 278 27.944 280.577c-5.662 14.536-3.482 38.038 2.626 52.017a193.768 193.768 0 0 0 3.32 6.664c1.167 2.882 1.271 3.92.11 6.742l-4 1-.813-2.437L28 342l-3-1c-10.647-16.975-8.947-44.478-4.922-63.312C21.49 272.043 23.147 266.514 25 261l.746-2.277a537.9 537.9 0 0 1 1.414-4.23c.664-1.971 1.315-3.946 1.961-5.923 3.205-9.788 6.448-19.597 10.941-28.882C44.64 209.608 46.434 197.877 48 187l-2.5-1.875L43 183v-2z" fill="rgba(43, 43, 43, 1)" stroke="none"/>
  <path d="M200.938 98.125c3.656 2.238 5.54 4.436 8.062 7.875l-.938 1.75c-2.153 4.56-2.067 8.283-1.875 13.313.101 8.062-.752 15.086-6.28 21.285-5.512 5.061-10.235 9.092-17.97 8.964l-3.097-.011c-3.572-.378-5.803-1.03-8.106-3.852-2.023-3.62-3.252-6.173-2.734-10.449a766.296 766.296 0 0 1 4 6.063c2.363 3.669 2.363 3.669 6.066 5.562 5.047.758 8.337.668 12.746-2.063 5.315-4.063 8.984-8.853 10-15.562l.188-3-3 2v-2l-6 1v-2h-16l-2-4h-2c-.167-4.345-.113-7.197 2-11l-1-2-5 2c1.285-2.867 2.571-4.976 5-7h2v-2c7.559-6.455 16.506-8.258 25.938-4.875z" fill="rgba(8, 8, 8, 1)" stroke="none"/>
  <path d="M69 294c1.938.132 1.938.132 4 1 1.125 2.11 1.125 2.11 2 4.89l.993 3.072L77 306.25l1.064 3.327c1.763 5.541 3.451 11.104 5.124 16.673 2.788 9.185 6.28 17.87 11.812 25.75l1.473 2.125c4.424 6.156 8.493 9.803 15.757 12.164C114 367 114 367 116 369c-2.546 2.546-4.211 2.258-7.685 2.304l-2.374-.003-2.478.013c-1.744.006-3.488.006-5.233.002-2.598-.003-5.196.02-7.794.045C72.624 371.43 52.55 370.566 38 359c-2.575-2.575-2.974-3.557-3.188-7.25L35 349c4 0 4 0 5.863 1.777L43 353c15.99 10.171 33.567 10.477 52 11l-1.906-2.43c-10.64-13.96-16.262-28.894-20.77-45.746-1.328-4.956-2.958-9.74-4.758-14.547-.628-2.527-.476-3.86.434-6.277l1-1z" fill="rgba(15, 15, 15, 1)" stroke="none"/>
  <path d="M235 35c3.313 5.344 3.397 9.612 3.25 15.688l-.033 2.758c-.146 9.196-.63 18.377-1.217 27.554l-1.504-1.172-2.059-1.578-2.003-1.547c-6.009-4.205-11.438-6.538-18.496-8.328-1.554-.407-3.108-.816-4.66-1.227-.73-.19-1.458-.382-2.208-.579-2.728-.75-5.4-1.638-8.07-2.569 1.67-4.291 4.79-7.134 8-10.313l1.767-1.751C214.253 45.622 225.367 35 235 35z" fill="rgba(181, 152, 158, 1)" stroke="none"/>
  <path d="M142 134c6.152-.098 6.152-.098 8 0 1 1 1 1 1.375 3.063-.551 4.316-2.713 7.54-5.375 10.937l-3 2c-1.188 3.565-1.169 6.491-1.188 10.25l-.042 3.89c.239 4.008.988 7.07 2.23 10.86 2.75.946 2.75.946 6 1 3.06-1.81 3.06-1.81 5-5 .41-2.808.242-5.14 0-8l-7-2-1-5c3.3-2.2 4.172-2.623 8-2 5.62 3.89 5.62 3.89 6.652 6.902.862 5.198 1.21 10.123-1.277 14.91-2.962 3.976-5.475 6.73-10.55 7.532-5.017.202-8.475-.667-12.825-3.344l-1.188 1.375c-3.754 3.367-7.803 4.124-12.812 4.02-3.625-.716-5.456-2.79-8-5.395-2.103-4.206-1.53-9.431-1-14 1.32-2.981 2.365-3.892 5-6 2.813-.375 2.813-.375 5 0v5l-3 1a757.916 757.916 0 0 0-.063 4.938l-.035 2.777c-.161 2.25-.161 2.25 1.098 3.285 2.67.141 5.324.042 8 0l2-5h2c.863-14.689.863-14.689-4.563-27.625l-1.94-1.79C126 141 126 141 126 137c3.644-2.43 5.712-2.162 10-2l1 6h-2l2 5h3c2.136-3.204 2.231-4.02 2.125-7.688l-.055-2.449L142 134z" fill="rgba(7, 6, 6, 1)" stroke="none"/>
  <path d="M327 91c8.458 3.5 14.923 10.63 19.102 18.68 1.46 3.773 1.706 7.29 1.898 11.32-16.319 2.449-16.319 2.449-23.5-2.75-2.928-2.452-4.287-3.611-5.5-7.25-2.767-2.47-5.582-3.65-9-5-2-2-2-2-2.125-4.688C310.86 92.523 318.213 89.225 327 91z" fill="rgba(93, 93, 93, 1)" stroke="none"/>
  <path d="M301.313 116.188c3.866 1.382 6.865 2.726 9.687 5.812.813 3.25.813 3.25 1 6h6l1 3 2.438 1.375c3.073 1.95 3.292 3.324 4.562 6.625 2.017 1.134 2.017 1.134 4 2l1 3 2.813.438C337 145 337 145 340 146c.348 4.877-.583 7.77-3 12l-2.25-1.375c-2.559-1.575-2.559-1.575-4.602-2.477-2.69-1.438-4.905-3.226-7.273-5.148l-2.633-2.125C318 145 318 145 316 143l-2.563-.938L311 141l-1-3-2.813-.188C304 137 304 137 302.125 134.625 301 132 301 132 301 129c-2.437.27-2.437.27-5 1l-2 3c-2.438.875-2.438.875-5 1-1.813-1.438-1.813-1.438-3-3 1.398-6.059 4.931-10.442 9-15 2.648-1.324 3.545-.729 6.313.188z" fill="rgba(93, 93, 93, 1)" stroke="none"/>
  <path d="M96 220c4.039-.47 5.541-.357 8.813 2.188 2.175 2.797 2.889 4.335 3.187 7.812l6 1v2l2.082.332 2.73.48 2.708.458c2.715.8 3.835 1.444 5.48 3.73.125 3.5.125 3.5-1 7-5.345 3.602-11.689 3.986-18 3l-1.879-1.45c-2.994-2.189-5.719-2.298-9.371-2.738l-3.828-.48L90 243v-2l-3-1c-1.125-5.75-1.125-5.75 0-8h2l.188-3.313C90 225 90 225 92.5 223.188L95 222l1-2z" fill="rgba(94, 94, 94, 1)" stroke="none"/>
  <path d="M119.582 37.016l2.958.05c2.051.037 4.102.077 6.154.121 3.1.063 6.2.104 9.3.145 25.167.442 25.167.442 33.006 5.668v2l7 2c-2.418 2.927-4.25 3.598-8 4-2.34-.707-2.34-.707-4.938-1.813-19.957-7.008-54.071-9.067-73.488-.062l-2.136 1.125C86 52 86 52 83 51.75L81 51l-1-7c3.94-1.149 7.936-1.526 12-2v-2c9.05-2.95 18.128-3.167 27.582-2.984z" fill="rgba(31, 31, 31, 1)" stroke="none"/>
  <path d="M28 42c7.046 1.31 12.22 4.207 18.25 8a4850.67 4850.67 0 0 0 5.266 3.25l2.32 1.453A76.02 76.02 0 0 0 60 58c-1.342 4.026-3.423 4.883-7 7h-2v2a85.49 85.49 0 0 1-4.625 3.75c-3.15 2.445-6.117 4.868-8.875 7.75L35 81h-2l-1.938-6.75-1.09-3.797L29 67l-.555-1.904c-.513-2.414-.558-4.613-.543-7.08l.01-2.832.026-2.934.013-2.98c.012-2.424.028-4.847.049-7.27z" fill="rgba(178, 150, 156, 1)" stroke="none"/>
  <path d="M331.07 84.563c4.347 1.715 7.586 4.256 10.93 7.437v2h2c2.11 1.422 2.11 1.422 4 4 .495 3.097.377 6.124.25 9.25l-.055 2.547A434.108 434.108 0 0 1 348 116a560.28 560.28 0 0 1-3.008-6.078c-3.642-7.08-8.325-12.37-14.867-16.922-4.96-1.587-10.186-2.5-15.008-.04-5.513 4.437-9.778 10.504-14.117 16.04l-1.988 2.535c-1.172 1.503-2.34 3.008-3.504 4.516A437.59 437.59 0 0 1 290 123l-2.313-.563c-2.777-.665-2.777-.665-5.687.563 1.626-5.153 4.78-9.063 8-13.313l1.656-2.244 1.594-2.119 1.453-1.935L296 102h2l.688-1.625c1.768-3.2 3.849-5.665 6.312-8.375h2l.563-1.75c5.214-8.162 15.135-7.962 23.507-5.688z" fill="rgba(35, 35, 35, 1)" stroke="none"/>
  <path d="M292 150l1 4 1.813.438c1.749.45 3.474.99 5.187 1.562l.188 2.375L301 161c2.376 1.184 2.376 1.184 5 2 1.813 1.313 1.813 1.313 3 3 .188 2.688.188 2.688 0 5l2.125.813c3.064 1.265 5.99 2.548 8.875 4.187l1 3c-1.404 2.264-3.197 4.02-5 6-12.882-3.865-12.882-3.865-16.5-9.125C298 173 298 173 298 171l-2.438-.875C293 169 293 169 292 167c-2.844-.606-5.137-1.067-8-1-2.19 1.372-2.19 1.372-4 3-2.75.188-2.75.188-5 0 .234-1.972.473-3.943.742-5.91.303-2.173.303-2.173.32-4.715 2.654-6.722 9.227-9.214 15.938-8.375z" fill="rgba(93, 93, 93, 1)" stroke="none"/>
  <path d="M79 106l2 1-2 3c-2.14 7.963-2.469 17.922 1 25.5 3.237 5.54 7.833 10.444 14 12.5 2.061.069 4.125.085 6.188.063l3.292-.028L106 148c-2.363 2.526-3.665 3.888-7 5-2.49.07-4.95.094-7.438.063l-3.996-.028L84 153h-4l-1-3h-2c-7.072-7.368-11.175-14.82-11.438-25.063.177-5.637.715-9.977 3.438-14.937 2.965-1.175 3.876-1.041 7 0l3-4z" fill="rgba(7, 9, 7, 1)" stroke="none"/>
  <path d="M31.625 19.313l3.195.935c2.077.61 4.152 1.23 6.224 1.858a463.68 463.68 0 0 0 5.78 1.708c4.26 1.234 8.285 2.442 12.176 4.623l2.188 1.184C63.3 31.228 64.127 32.505 65 35l-1 2c-3.289-.401-5.938-.972-8.965-2.352-5.143-2.262-10.587-3.408-16.035-4.71-2.104-.511-4.209-1.023-6.313-1.536l-3.007-.727a137.059 137.059 0 0 1-6.367-1.796C19.108 24.676 19.108 24.676 11 24v33h-1L9 23l-3-1-1 45H4c-1.036-8.321-1.186-16.58-1.185-24.951a961.5 961.5 0 0 0-.04-6.924c-.003-1.484-.005-2.969-.005-4.453l-.022-2.065C2.768 24.377 3.325 20.895 5 17c7.853-3.926 18.813-.078 26.625 2.313z" fill="rgba(52, 52, 52, 1)" stroke="none"/>
  <path d="M273 224v2l3.188-.188c4.104.202 5.478.965 8.812 3.188 1.99.695 3.99 1.366 6 2l-12 26c-2.707-3.338-3.512-5.704-4-10a658.899 658.899 0 0 0-5.188-1.5l-2.917-.844c-2.748-.623-5.091-.779-7.895-.656.73-2.964 1.483-5.92 2.25-8.875l.621-2.55.645-2.442.57-2.254c2-4.113 5.77-4.11 9.914-3.879z" fill="rgba(71, 71, 71, 1)" stroke="none"/>
  <path d="M89 265c5.625-.25 5.625-.25 9 2v3l3.313.438C105 271 105 271 108 272v2l2.75.813c3.034 1.108 5.02 1.87 7.25 4.187.375 2.563.375 2.563 0 5-2 2-2 2-4.652 2.266-7.333-.035-14.19-.66-21.348-2.266l-1-3-2 1c-3 .188-3 .188-6 0l-2-2c.184-5.607.751-9.001 5-13h3v-2z" fill="rgba(94, 94, 94, 1)" stroke="none"/>
  <path d="M289 186l3 .25c3 .75 3 .75 4.875 3.688C298 193 298 193 298 195l6 2c1.064 3.384 1.214 4.58-.438 7.813L302 207c-11.712-1.673-11.712-1.673-15-6l-1-3c-2.896-1.448-4.742-2-8-2l-.938 2.438C276 201 276 201 275 202c-1.666.04-3.334.043-5 0-.236-6.404.177-11.846 2-18 6.255-1.149 11.553-1.631 17 2z" fill="rgba(93, 93, 93, 1)" stroke="none"/>
  <path d="M179 229c.484 6.411.484 6.411-1.438 8.75-3.038 1.482-6.11 2.524-9.343 3.504-4.262 1.354-4.262 1.354-7.344 4.402L160 247.5c-1.17 2.175-1.858 3.388-3.813 4.938-4.04 1.039-7.742 1.155-11.625-.438L143 251c-.125-3.375-.125-3.375 0-7 2-2 2-2 5.125-2.125L151 242l.188-1.688c1.474-4.196 4.24-6.538 8.19-8.484 6.982-2.871 12.072-4.16 19.622-2.828z" fill="rgba(93, 93, 93, 1)" stroke="none"/>
  <path d="M172 258l1 3h2c-.313 2.375-.313 2.375-1 5-3.228 2.152-4.284 2.2-8 2l.375 3.25C166 275 166 275 163.437 277.5c-4.05 1.768-6.185 1.417-10.437.5l-1 1c-1.813.133-1.813.133-4 .125l-2.188.008C144 279 144 279 143 278c-.188-3.438-.188-3.438 0-7 2-2 2-2 4.602-2.195l3.023.07 3.04.055L156 269l.25-3.313c.75-3.687.75-3.687 2.563-5.562 4.434-2.28 8.211-2.22 13.187-2.125z" fill="rgba(94, 94, 94, 1)" stroke="none"/>
  <path d="M123 295c.419 3.425.605 6.591 0 10-2.715 3.255-6.046 4.682-10 6-2.581-.008-5.145-.13-7.723-.258L103 311l-2 3c-3.125.188-3.125.188-6 0v-2h-2c-.313-3.188-.313-3.188 0-7 2.375-2.813 2.375-2.813 5-5l2-2c4.214-.375 7.186.205 11 2l2.625-2.5c3.123-2.64 5.252-2.99 9.375-2.5z" fill="rgba(94, 94, 94, 1)" stroke="none"/>
  <path d="M267 211h5v2l2.3.078 3.012.172 2.989.14c3.354.758 3.781 1.882 5.699 4.61 2.032.689 2.032.689 4.188.75L294 219c.947 2.605 1.302 4.307.176 6.89-1.005 1.736-2.087 3.426-3.176 5.11-1.46-.282-2.918-.576-4.375-.875l-2.46-.492C282 229 282 229 280 227c-2.323-.4-4.657-.74-7-1v-2l-8 1c.142-1.584.289-3.167.438-4.75.08-.882.162-1.763.246-2.672A44.11 44.11 0 0 1 267 211z" fill="rgba(92, 92, 92, 1)" stroke="none"/>
  <path d="M171 313c2 3 2 3 2.25 5.813-1.756 4.476-4.623 5.44-8.738 7.671-3.396 2.05-5.15 4.366-7.512 7.516-3.445 2.296-5.938 2.54-10 3v-11l4-1c.674-1.664 1.34-3.33 2-5 4.914-4.774 11.037-7.972 18-7z" fill="rgba(94, 94, 94, 1)" stroke="none"/>
  <path d="M53 183c3.518.213 5.298 1.2 8.25 3.188C67.8 190.516 75.603 192.552 83 195l3 1c2.393.226 4.79.408 7.188.563l3.855.253L100 197c.625 2.375.625 2.375 1 5-2 2-2 2-5.223 2.195C78.704 203.313 62.913 197.005 50 186l3-3z" fill="rgba(9, 7, 8, 1)" stroke="none"/>
  <path d="M97.027 108.555c3.545.8 4.978 2.514 6.973 5.445.692 4.303.516 6.21-1.875 9.875C100 126 100 126 98 127c-2.094-.086-2.094-.086-4.5-.375l-2.406-.273C89 126 89 126 87 125l-1 3c-4.875-.875-4.875-.875-6-2a99.984 99.984 0 0 1 0-5l5-1 .75-3.25c2.075-6.224 4.401-8.58 11.277-8.195z" fill="rgba(248, 248, 248, 1)" stroke="none"/>
  <path d="M347 128h1c.773 16.08 1.078 29.022-9.063 42.375C336 173 336 173 333.125 173.438c-.701-.145-1.402-.29-2.125-.438v4l-2.25-.688c-2.81-.607-2.81-.607-5.063 1.125L322 179c1.352-2.939 2.9-5.292 5-7.75l1.563-1.86C330 168 330 168 332 168c6.463-12.62 11.64-26.233 15-40z" fill="rgba(28, 28, 28, 1)" stroke="none"/>
  <path d="M187 108l3 2c.398 2.68.398 2.68.375 5.875l.023 3.18c-.441 3.264-1.099 4.624-3.398 6.945-2.75.917-4.36 1.109-7.188 1.063L176 127l-2-4h-2c-.597-5.974-.597-5.974 1.008-8.73 4.327-5.247 7.24-6.752 13.992-6.27z" fill="rgba(242, 242, 242, 1)" stroke="none"/>
  <path d="M43 171c8.074.15 14.467.992 21 6a149.393 149.393 0 0 1 4 5 402.401 402.401 0 0 0 6 3c2.875 2.438 2.875 2.438 5 5v4c-13.991-2.582-25.839-11.323-36-21v-2z" fill="rgba(244, 223, 196, 1)" stroke="none"/>
  <path d="M164.563 291.75l2.378-.078L169 292c2.148 3.221 2.561 4.26 2 8-2.237 2.403-3.463 2.963-6.75 3.188L162 303l-.188 1.75c-1.178 3.263-2.926 4.39-5.812 6.25-3.313.75-3.313.75-6 1-.143-8.571-.143-8.571 1-12h2l.313-1.813c.793-2.525 1.643-3.536 3.687-5.187 2.777-.926 4.677-1.193 7.563-1.25z" fill="rgba(93, 93, 93, 1)" stroke="none"/>
  <path d="M79 106l2 1-2 3c-2.14 7.963-2.469 17.922 1 25.5 3.237 5.54 7.833 10.444 14 12.5 2.061.069 4.125.085 6.188.063l3.292-.028L106 148c-3.47 3.71-5.522 4.796-10.625 5.5-5.826-.117-9.428-3.512-13.375-7.5-7.484-8.998-10.575-14.779-9.55-26.535.858-5.402 2.625-9.54 6.55-13.465z" fill="rgba(104, 117, 100, 1)" stroke="none"/>
  <path d="M266.375 243.813l2.898.519c2.566.629 4.524 1.217 6.727 2.668 1.442 3.894 2 6.835 2 11-2.333.042-4.667.04-7 0l-1-1c-4.526-.15-8.583-.104-13 1-1.416-2.831-1.242-4.85-1-8 2.59-6.238 3.8-7.413 10.375-6.188z" fill="rgba(93, 93, 93, 1)" stroke="none"/>
  <path d="M110 169h3l.297 1.793c.957 5.055 1.95 8.455 5.703 12.207 2.645 1.322 4.678 1.097 7.625 1.063l3.04-.028L132 184c-3.361 3.658-6.33 6.211-11 8-1.926-.344-1.926-.344-4-1l-2.07-.648-2.055-.727c-.683-.235-1.366-.47-2.07-.71C109 188 109 188 107 185c-.3-4.711-.487-7.904 2-12a68.913 68.913 0 0 0 1-4z" fill="rgba(243, 224, 200, 1)" stroke="none"/>
  <path d="M319.234 90.469c8.386.104 12.984 2.682 18.954 8.344 3.353 3.47 5.659 6.88 7.812 11.187-6.293.363-6.293.363-9.313-1.188C335 107 335 107 334 104.439c-.794-2.523-.794-2.523-2.813-3.813-2.715-.776-4.495-.373-7.187.375l-1-4h-2v-2h-7c2.35-3.845 2.35-3.845 5.234-4.531z" fill="rgba(71, 71, 71, 1)" stroke="none"/>
  <path d="M121 326v10l-3.813 1.313c-3.176 1.093-4.857 2.305-7.187 4.687-2.5.5-2.5.5-5 0-1.98-2.377-3-3.93-3-7.063 1.442-2.794 3.431-4.183 6-5.937h2v-2l4.938-.5 2.777-.281C120 326 120 326 121 326z" fill="rgba(93, 93, 93, 1)" stroke="none"/>
  <path d="M54 231c3.321-.596 5.43-.324 8.367 1.348 3.713 2.698 6.221 4.525 7.82 8.902C70 244 70 244 68 247c-3.125.188-3.125.188-6 0l-1-3a103.73 103.73 0 0 0-5-2c-2.313-1.25-2.313-1.25-4-3-.25-3.188-.25-3.188 0-6h2v-2z" fill="rgba(93, 93, 93, 1)" stroke="none"/>
  <path d="M35 349c4 0 4 0 5.816 1.77L43 353a107.97 107.97 0 0 0 6.938 3.688l1.841.931c3.38 1.666 6.486 2.85 10.221 3.381l-2.438 1.875c-2.6 1.867-2.6 1.867-3.562 4.125-4.072-.63-7.369-1.938-11.063-3.75l-3.097-1.484c-3.101-1.928-4.842-3.723-6.84-6.766-.25-3.313-.25-3.313 0-6z" fill="rgba(36, 34, 32, 1)" stroke="none"/>
  <path d="M121.813 159.625L124 160v5l-3 1a757.916 757.916 0 0 0-.063 4.938l-.035 2.777c-.161 2.25-.161 2.25 1.098 3.285 2.328.368 4.662.702 7 1v1h-6v5h6v1c-7.768.67-7.768.67-11.438-2.375-4.24-4.343-3.96-7.723-3.91-13.625.593-5.111 2.701-8.647 8.16-9.375z" fill="rgba(24, 20, 18, 1)" stroke="none"/>
  <path d="M201 262c.625 2.813.625 2.813 1 6l-2 3c-1.945.293-1.945.293-4.125.188L192 271v2c-2.875.125-2.875.125-6 0-2-2-2-2-2.125-5.625L184 264c5.862-2.871 10.54-4.154 17-2z" fill="rgba(94, 94, 94, 1)" stroke="none"/>
  <path d="M321 185c-1.372 9.057-5.707 14.707-12 21-3.875-1.75-3.875-1.75-5-4 1.26-2.828 3.032-5.388 4.688-8l1.357-2.234 1.342-2.141 1.225-1.96c2.654-3.183 4.438-3.982 8.388-2.665z" fill="rgba(25, 25, 25, 1)" stroke="none"/>
  <path d="M204 112c2.867 2.867 2.334 4.934 2.375 8.938-.063 8.055-.949 15.22-6.469 21.41-5.511 5.061-10.234 9.092-17.969 8.964l-3.097-.011c-3.572-.378-5.803-1.03-8.106-3.852-2.023-3.62-3.252-6.173-2.734-10.449a766.296 766.296 0 0 1 4 6.063c2.363 3.669 2.363 3.669 6.066 5.562 5.047.758 8.337.668 12.746-2.063 7.584-5.83 10.452-13.348 12.188-22.562.477-3.996.797-7.981 1-12z" fill="rgba(106, 115, 103, 1)" stroke="none"/>
  <path d="M17 82c3.444.186 4.78.792 7.313 3.188C26 88 26 88 25.938 91.124L26 94c2.445 1.717 2.445 1.717 5 3v3c-7.206.48-7.206.48-10.375-1.438C18.305 94.906 17.75 91.216 17 87l-.613-2.219L16 83l1-1z" fill="rgba(244, 223, 191, 1)" stroke="none"/>
  <path d="M36 344c1.875.313 1.875.313 4 1l2 3a113.158 113.158 0 0 0 5 3l1 1c2.297-.009 4.578-.133 6.871-.258L57 352c2.152 3.228 2.2 4.284 2 8-7.224-.926-14.646-3.653-19.887-8.883C36 346.853 36 346.853 36 344z" fill="rgba(226, 212, 194, 1)" stroke="none"/>
  <path d="M194 330c2.063.438 2.063.438 4 1v2l2.188-1c2.87-1.02 4.797-1.326 7.812-1 2 2 2 2 2.125 4.625L210 338c-2.459.054-4.916.094-7.375.125l-2.117.05c-1.837.018-3.674-.072-5.508-.175-2-2-2-2-2.188-4.563C193 331 193 331 194 330z" fill="rgba(226, 212, 182, 1)" stroke="none"/>
  <path d="M121 167c1.525.09 3.047.245 4.563.438l2.503.308L130 168c2.082 4.41 2.082 4.41 1.688 7.25C131 177 131 177 130 178c-5.736.273-5.736.273-8 0-2-2-2-2-2.23-3.91.119-5.979.119-5.979 1.23-7.09z" fill="rgba(240, 219, 188, 1)" stroke="none"/>
  <path d="M333 172l2 1c-1.347 3.038-2.822 4.997-5.25 7.25-3.725 3.6-6.759 7.531-9.75 11.75v-7l-4-1c3.171-4.346 6.244-6.622 11-9 2.125.938 2.125.938 4 2v-4l2-1z" fill="rgba(57, 57, 57, 1)" stroke="none"/>
  <path d="M73.188 355.063c3.807 1.269 7.276 3.05 10.812 4.937v4c-5.447.097-10.639.129-16-1-.227-2.804-.34-4.462 1.188-6.875C71 355 71 355 73.188 355.062z" fill="rgba(241, 225, 197, 1)" stroke="none"/>
  <path d="M249 272l3 1v2l3 1c.242 2.906.162 4.667-1.125 7.313C252 285 252 285 248.812 285.25L246 285c-.856-2.926-1.387-5.082-.176-7.957.997-1.718 2.082-3.385 3.176-5.043z" fill="rgba(92, 92, 92, 1)" stroke="none"/>
  <path d="M143.188 132.938l2.73.027L148 133v1l-5 1a47813223607131576 47813223607131576 0 0 0-2 10.5l-2 1.5a90.488 90.488 0 0 1-4-4v-2h2l-1-1.813C135 137 135 137 135 134c3.015-1.005 5.042-1.103 8.188-1.063z" fill="rgba(21, 17, 18, 1)" stroke="none"/>
  <path d="M121.813 159.625L124 160v5l-3 1c-.806 2.106-.806 2.106-1.188 4.563l-.48 2.503L119 175l-1.938-1c-1.83-1.073-1.83-1.073-3.062-1-.423-4.232-.404-7.045 2.188-10.438C119 160 119 160 121.811 159.625z" fill="rgba(7, 6, 6, 1)" stroke="none"/>
  <path d="M150.375 146.813l2.336-.043c2.507.252 4.122.978 6.289 2.23l-1 4h-14v-5c2.326-1.163 3.787-1.166 6.375-1.188z" fill="rgba(241, 224, 198, 1)" stroke="none"/>
  <path d="M41 174c5.679 1.42 9.532 4.394 14 8l-1 3-5 1-2-3-3.063-.938C41 181 41 181 40.063 179.063 40 177 40 177 41 174z" fill="rgba(13, 11, 11, 1)" stroke="none"/>
  <path d="M55 173c2.813.625 2.813.625 6 2 1.688 3 1.688 3 3 6l3 2v2c-4.49 1.078-6.33 1.378-10.438-.938L54 182l2-1-1-8z" fill="rgba(235, 217, 189, 1)" stroke="none"/>
  <path d="M27 334c1.75.063 1.75.063 4 1 2.347 2.924 4.14 5.634 3.75 9.438L34 346l-4 1a206.28 206.28 0 0 1-2.625-4.25l-1.477-2.39C25 338 25 338 25.852 335.702L27 334z" fill="rgba(9, 8, 9, 1)" stroke="none"/>
  <path d="M56 62l1 2-1 2h-2l1 3c-1.25 2.625-1.25 2.625-3 5l-3 1v-2c-3.344.557-6.033 1.352-9 3 2.675-3.567 5.357-6.411 9-9h2v-2c2.5-1.625 2.5-1.625 5-3z" fill="rgba(19, 15, 15, 1)" stroke="none"/>
  <path d="M168 137a766.296 766.296 0 0 1 4 6.063c2.363 3.669 2.363 3.669 6.066 5.562 5.312.798 8.39.59 12.934-2.438a54.969 54.969 0 0 0 6-5.187l1 3c-6.321 5.482-10.903 7.786-19.336 7.441-3.413-.565-5.707-1.268-7.93-3.992-2.023-3.62-3.252-6.173-2.734-10.449z" fill="rgba(100, 105, 97, 1)" stroke="none"/>
  <path d="M305 92l2 1c-12.552 17.72-12.552 17.72-18 23h-2c1.343-3.78 3.03-6.657 5.5-9.813l1.844-2.394L296 102h2l.688-1.625c1.746-3.16 3.952-5.643 6.312-8.375z" fill="rgba(130, 130, 130, 1)" stroke="none"/>
  <path d="M227 184h5l-2.012 1.918c-2.769 4.292-2.259 7.443-1.8 12.394l.173 2.475c.378 5.094.969 10.15 1.639 15.213-4.021-6.032-4.37-11.837-4.625-18.875l-.117-2.664c-.094-2.153-.177-4.307-.258-6.461h2v-4z" fill="rgba(169, 169, 169, 1)" stroke="none"/>
  <path d="M27 342l3 4 6-1 2 4-2 1c-.2 3.716-.152 4.772 2 8-3.545-1.438-5.108-3.131-7.188-6.313l-1.542-2.3c-1.325-2.49-1.862-4.61-2.27-7.387z" fill="rgba(102, 101, 101, 1)" stroke="none"/>
  <path d="M86 115h1l.684 6.055c.229 2.019.229 2.019 1.316 3.945h-2l-1 3c-4.875-.875-4.875-.875-6-2a99.984 99.984 0 0 1 0-5l5-1 1-5z" fill="rgba(230, 229, 231, 1)" stroke="none"/>
  <path d="M53 352l5 1 1 7c-3.123-.486-5.996-.999-9-2-.688-2.063-.688-2.063-1-4h4v-2z" fill="rgba(239, 220, 194, 1)" stroke="none"/>
  <path d="M192 120c4.706.706 4.706.706 6 2 .188 2.438.188 2.438 0 5l-2 2h-4c-1.366-2.732-1.128-4.982-1-8l1-1z" fill="rgba(228, 227, 226, 1)" stroke="none"/>
  <path d="M129 324c3.875.875 3.875.875 5 2 .04 1.666.043 3.334 0 5l-3 1v2l-3 1c-.125-7.625-.125-7.625 1-11z" fill="rgba(94, 94, 94, 1)" stroke="none"/>
  <path d="M35 349h4c1.063 1.875 1.063 1.875 2 4l-1 2 3 1v2l-3 1c-2.688-1.563-2.688-1.563-5-4-.313-3.25-.313-3.25 0-6z" fill="rgba(11, 8, 7, 1)" stroke="none"/>
  <path d="M61 176c3.416 1.413 4.868 3.033 7 6l3 2-4 1v-2l-1.875-.688c-2.74-1.691-3.175-3.304-4.125-6.312zm3 8c3 2 3 2 3.688 4.125L68 190c-2.915-1.074-4.778-1.778-7-4l3-2z" fill="rgba(224, 208, 185, 1)" stroke="none"/>
  <path d="M194 330c2.063.438 2.063.438 4 1v2l3 1-2 1v2l2 1c-2.875.125-2.875.125-6 0-2-2-2-2-2.188-4.563C193 331 193 331 194 330z" fill="rgba(243, 226, 201, 1)" stroke="none"/>
  <path d="M189 330c2 1 2 1 2.75 2.875C192 335 192 335 190 338l-4-1-3 4-2-1 8-10z" fill="rgba(65, 66, 65, 1)" stroke="none"/>
  <path d="M111 180l4.395 3.906c1.694 1.376 1.694 1.376 4.605 1.094l-4 5-6-1c0-2 0-2 2-4l-2-1 1-4z" fill="rgba(249, 229, 198, 1)" stroke="none"/>
  <path d="M235 71h2v10c-6.25-4.395-6.25-4.395-8-6v-3c3 1 3 1 5 3l1-4z" fill="rgba(164, 141, 146, 1)" stroke="none"/>
  <path d="M25 94c2.438.75 2.438.75 5 2 .813 2.125.813 2.125 1 4-7.508.37-7.508.37-10-1.5L20 97h4l1-3z" fill="rgba(230, 217, 191, 1)" stroke="none"/>
  <path d="M26 88c-.875 6.75-.875 6.75-2 9h-4v-7c3.75-2 3.75-2 6-2z" fill="rgba(245, 228, 200, 1)" stroke="none"/>
  <path d="M197 327c2.063.938 2.063.938 4 2l2 1v2l-5 1-1-2h-3l-2 4v-3l-2-1v-2c2.647-1.46 3.894-2 7-2z" fill="rgba(94, 85, 80, 1)" stroke="none"/>
  <path d="M125.188 177.875L129 178v1h-6v5h6v1l-3.813.125-2.144.07C121 185 121 185 118 183v-3c3.089-2.06 3.71-2.239 7.188-2.125z" fill="rgba(50, 45, 40, 1)" stroke="none"/>
  <path d="M150.625 146.938l2.477.027L155 147v1l-5 1v4h-6v-5c2.405-1.203 3.95-1.1 6.625-1.063z" fill="rgba(224, 210, 186, 1)" stroke="none"/>
  <path d="M32 170l6 4 1-1a99.984 99.984 0 0 1 5 0v3l-2-1-2 4c-2 0-2 0-3.508-1.46-.533-.633-1.067-1.264-1.617-1.915l-1.633-1.898C32 172 32 172 32 170z" fill="rgba(106, 105, 104, 1)" stroke="none"/>
  <path d="M131 185l2 1c0 2 0 2-1.625 4.063-2.818 2.298-4.8 2.612-8.375 2.937l-1-3 2.25-.813c2.616-1.13 4.552-2.396 6.75-4.187z" fill="rgba(85, 77, 69, 1)" stroke="none"/>
  <path d="M205.438 330.813C208 331 208 331 210 333v4h-4c-2.25-2.5-2.25-2.5-4-5 1-1 1-1 3.438-1.188z" fill="rgba(240, 224, 197, 1)" stroke="none"/>
  <path d="M68 358l1 2c1.802.618 1.802.618 4 1l2.578.535a335985080.94 335985080.94 0 0 0 5.375 1.063L83 363l1-3v4c-5.447.097-10.639.129-16-1v-5z" fill="rgba(214, 203, 183, 1)" stroke="none"/>
  <path d="M70 184c3 5.75 3 5.75 3 8-4.875-1.75-4.875-1.75-6-4l-3-2c3.75-2 3.75-2 6-2z" fill="rgba(240, 219, 191, 1)" stroke="none"/>
  <path d="M106 149c-3.711 2.944-6.44 4.14-11.188 4.063L91 153v-1h6v-3c5.625-1.125 5.625-1.125 9 0z" fill="rgba(97, 107, 93, 1)" stroke="none"/>
  <path d="M151 135c1.125 1.625 1.125 1.625 2 4-.875 3.25-.875 3.25-2 6l5 1v1h-10l1.938-3.188c1.68-2.92 2.652-5.43 3.062-8.812z" fill="rgba(68, 65, 63, 1)" stroke="none"/>
  <path d="M43 171l12 1v1h-7l1 3c-3 0-3 0-4.688-1.375C43 173 43 173 43 171z" fill="rgba(202, 189, 173, 1)" stroke="none"/>
  <path d="M121 167l8 1-2 5-4-2-2 2v-6z" fill="rgba(245, 227, 204, 1)" stroke="none"/>
  <path d="M53 352l5 1 1 7h-4v-7l-2-1z" fill="rgba(228, 214, 193, 1)" stroke="none"/>
  <path d="M59 180c3.375.547 5.082 1.055 8 3v2l-6 1v-3h-2v-3z" fill="rgba(249, 230, 194, 1)" stroke="none"/>
  <path d="M196 141l2 3a971.577 971.577 0 0 1-4.875 3.5l-2.742 1.969C188 151 188 151 186 151v-2c1.934-1.438 1.934-1.438 4.438-3 3.372-1.953 3.372-1.953 5.562-5z" fill="rgba(93, 99, 91, 1)" stroke="none"/>
  <path d="M129 352l3 2v2l-9 2v-3l6-1v-2z" fill="rgba(62, 62, 62, 1)" stroke="none"/>
  <path d="M43 356l2 1c.625 3.063.625 3.063 1 6-3.375-1.186-5.647-2.276-8-5h5v-2z" fill="rgba(86, 86, 84, 1)" stroke="none"/>
  <path d="M41 174l6 2-2 1v2l-4 2c-.934-3.01-1.044-3.867 0-7z" fill="rgba(37, 36, 34, 1)" stroke="none"/>
  <path d="M129 172l1 3-2 3c-3.125.188-3.125.188-6 0l-1-4 6 2 2-4z" fill="rgba(245, 229, 204, 1)" stroke="none"/>
  <path d="M79 123l1.313 1.875C81.996 127.22 81.996 127.22 85 129l-7 2c-.625-2.313-.625-2.313-1-5l2-3z" fill="rgba(23, 27, 24, 1)" stroke="none"/>
  <path d="M142 140l-2 4h-4l-1-3c2.463-1.231 4.28-1.072 7-1z" fill="rgba(162, 147, 150, 1)" stroke="none"/>
  <path d="M213 47c0 3.215-.265 4.356-2 7-2.5 1.813-2.5 1.813-5 3l-2-1 9-9z" fill="rgba(151, 133, 137, 1)" stroke="none"/>
  <path d="M14 86l4 1v5l-4 1v-7z" fill="rgba(84, 79, 72, 1)" stroke="none"/>
  <path d="M200 25l2 1c-1.625 2.938-1.625 2.938-4 6-3.25.875-3.25.875-6 1 2.416-3.192 4.68-5.747 8-8z" fill="rgba(133, 133, 133, 1)" stroke="none"/>
  <path d="M89 107l2 1c-1.293 2.884-2.66 4.872-5 7-1-2-1-2-.188-4.563C87 108 87 108 89 107z" fill="rgba(20, 21, 20, 1)" stroke="none"/>
  <path d="M75 187c2 1.25 2 1.25 4 3v4l-5-1 1-6z" fill="rgba(214, 202, 185, 1)" stroke="none"/>
  <path d="M27 87l3 2-2 6-3-1 2-7z" fill="rgba(89, 79, 72, 1)" stroke="none"/>
  <path d="M201 59h2v5l-3 1-2-1c1.875-3.875 1.875-3.875 3-5z" fill="rgba(159, 137, 142, 1)" stroke="none"/>
  <path d="M45 349a98337777859174370 98337777859174370 0 0 0 3 4l-3-4z" fill="rgba(92, 81, 71, 1)" stroke="none"/>
  <path d="M129 168c1.945 2.918 2.453 4.625 3 8l-4 2 2-6h-2l1-4z" fill="rgba(229, 214, 195, 1)" stroke="none"/>
  <path d="M326 173c2.063.188 2.063.188 4 1l1 3-2.25-.688c-2.81-.607-2.81-.607-5.063 1.125L322 179c1.152-2.468 2.048-4.048 4-6z" fill="rgba(9, 9, 9, 1)" stroke="none"/>
  <path d="M39 166c3 0 3 0 4.688 1.5L45 169l-3 3c-1.5-1.313-1.5-1.313-3-3v-3z" fill="rgba(66, 66, 64, 1)" stroke="none"/>
  <path d="M235 71h2v10l-3-2 2-6-2-1 1-1z" fill="rgba(167, 149, 153, 1)" stroke="none"/>
  <path d="M107 181l6 4-3 3c-1.5-1.25-1.5-1.25-3-3v-4z" fill="rgba(225, 210, 184, 1)" stroke="none"/>
  <path d="M91 148l6 1v3h-6v-4z" fill="rgba(115, 130, 108, 1)" stroke="none"/>
  <path d="M18 93c2 3 2 3 2 5l2 1h-5v-3l-2-1 3-2z" fill="rgba(87, 81, 72, 1)" stroke="none"/>
  <path d="M204 67v4l-6-1v-3c3-1 3-1 6 0z" fill="rgba(3, 3, 1, 1)" stroke="none"/>
  <path d="M132 185l-6 4v-3l-3-1c5.625-1.125 5.625-1.125 9 0z" fill="rgba(213, 201, 188, 1)" stroke="none"/>
  <path d="M48 173h7l-1 2h-3l-1 2 2 1h-3l-1-5z" fill="rgba(246, 226, 203, 1)" stroke="none"/>
  <path d="M86 115h1l.684 6.055c.229 2.019.229 2.019 1.316 3.945h-2l-1 2c-.928-4.333-.928-7.667 0-12z" fill="rgba(162, 163, 161, 1)" stroke="none"/>
  <path d="M79 106l2 1-2 3a75.316 75.316 0 0 0-1 5l-3-2c1.074-2.915 1.778-4.778 4-7z" fill="rgba(96, 103, 96, 1)" stroke="none"/>
  <path d="M46 352l7 1-4 1 1 3-4-1v-4z" fill="rgba(216, 203, 181, 1)" stroke="none"/>
  <path d="M155 154h5l1 5a250 250 0 0 1-6-4v-1z" fill="rgba(67, 65, 60, 1)" stroke="none"/>
  <path d="M201 106l6 3-2 3h-2l-2-6z" fill="rgba(38, 38, 39, 1)" stroke="none"/>
  <path d="M17 85h2c2.037 4.074 2.026 6.59 1 11h-1l-2-11z" fill="rgba(228, 212, 185, 1)" stroke="none"/>
  <path d="M17 82l5 1v2l-6 1 1-4z" fill="rgba(234, 218, 197, 1)" stroke="none"/>
</svg>
</g></svg></g></g>
<!-- /image 41424 -->
</defs><rect x="0" y="0" width="250" height="250" fill="rgba(70, 70, 70, 1)"></rect><use xlink:href="#transformed-41424" transform="translate(-250, -250)"></use><use xlink:href="#transformed-41424" transform="translate(0, -250)"></use><use xlink:href="#transformed-41424" transform="translate(250, -250)"></use><use xlink:href="#transformed-41424" transform="translate(-250, 0)"></use><use xlink:href="#transformed-41424" transform="translate(0, 0)"></use><use xlink:href="#transformed-41424" transform="translate(250, 0)"></use><use xlink:href="#transformed-41424" transform="translate(-250, 250)"></use><use xlink:href="#transformed-41424" transform="translate(0, 250)"></use><use xlink:href="#transformed-41424" transform="translate(250, 250)"></use></svg>