<svg version="1.1"
      xmlns="http://www.w3.org/2000/svg"
      xmlns:xlink="http://www.w3.org/1999/xlink"  id="snapshot-03678" width="250" height="250" viewBox="0 0 250 250"><desc>This image was made on Patterninja.com</desc><defs>
<!-- image 85935 -->
<g id="transformed-85935" data-image="85935" transform="translate(-125, -125) rotate(0, 125, 125)"><g><svg version="1.1" width="250px" height="250px" viewBox="0 0 250 250"><g id="original-85935"><svg xmlns="http://www.w3.org/2000/svg" viewBox="0 0 500 500" xmlns:xlink="http://www.w3.org/1999/xlink" version="1.1" preserveAspectRatio="xMidYMid meet">
  <path d="M157 4l3 2v2l3 1c1.02.98 2.019 1.982 3 3 6.123 4.704 12.88 7.988 19.863 11.191 5.051 2.913 7.314 6.568 9.325 11.934l.98 2.57c2.697 7.47 3.297 15.781.144 23.242-2.678 5.148-5.75 9.844-11.312 12.063-2.797.414-2.797.414-5.75.625l-2.984.227L174 74l1.715 2.16c5.242 6.845 7.823 10.994 6.847 19.778L182 99l3.625-1.438c13.185-4.326 28.76-3.676 41.188 2.5 1.74.96 3.471 1.935 5.187 2.938l2 1-.485-1.535c-.689-3.298-.717-6.552-.753-9.906l-.025-2.191c-.014-1.53-.024-3.061-.032-4.592a393.565 393.565 0 0 0-.062-4.64C232.387 67.76 233.991 57.457 243 47l2-2.469c7.72-9.153 16.734-14.673 28-18.531l3.75-1.313c3.464-.732 5.833-.52 9.25.313 1.069 3.206 1.317 5.272-.047 8.402A130.966 130.966 0 0 1 282 40l3.438 1.063c14.168 5.366 20.849 18.125 26.779 31.14 5.956 13.669 3.072 30.054-1.217 43.797-.949 2.025-1.932 4.035-3 6l2.313-.188c2.687.188 2.687.188 4.355 1.434 1.697 2.234 1.64 3.246 1.332 6.004-1.434 9.074-7.784 13.482-14.672 18.832-2.39 1.705-2.39 1.705-3.328 3.918l1.938.438C302 153 302 153 303 154c.5 2.188.5 2.188 0 5-2.517 3.244-5.333 5.653-9.402 6.5-2.64.125-5.21.074-7.848-.063l-2.719-.056c-3.62-.1-6.574-.229-10.031-1.381l1.438 2.688c2.336 4.954 2.736 9.362 2.812 14.812l.078 3.344c-.465 4.47-2.196 7.024-5.328 10.156.466 1.876.94 3.75 1.462 5.61.987 4.384.866 8.791.85 13.265l.05 2.816c.006 9.531-2.231 20.447-8.706 27.844-6.685 6.098-15.07 5.893-23.61 5.735-5.248-.242-10.108-1.512-15.046-3.27v-2l-1.875-.688c-2.74-1.691-3.175-3.304-4.125-6.312l-3.313 1.875c-11.051 5.467-22.945 4.802-34.453 1.082-3.923-1.68-7.285-4.059-9.234-7.957-.522-6.144-.801-11.841 3-17 2.188-.875 2.188-.875 4-1v-2h-8l-.148 1.836c-1.116 12.496-3.125 26.263-12.118 35.766-8.55 6.894-20.234 7.415-30.734 6.398-6.639-2.035-11.09-5.325-15-11l-1-2-2 2.313c-4.935 4.885-11.203 6.056-17.902 6.155l-2.41-.03-2.52-.023c-7.22-.193-14.285-.987-19.902-5.946-3.092-3.543-4.722-6.58-4.692-11.317.893-4.513 3.633-8.555 6.426-12.152h2c-.426-5.677-1.163-10.596-3-16-1.033-5.074-2.023-10.075-1.96-15.266.251-2.772.251-2.772-1.54-4.484L65 186v-2l-3-1v-2l-3-1v-2h-2c-3.98-6.7-7.488-12.95-7-21l-6-1c-3.47-7.346-1.913-15.787.563-23.25.465-1.255.938-2.508 1.437-3.75l-2.25-.75c-3.023-1.374-4.69-2.656-6.75-5.25v-4l-1.758.324c-5.346.82-8.566.832-13.242-2.324-2.176-4.352-1.49-10.061-.328-14.66.72-2.142 1.479-4.247 2.328-6.34l-1.48-1.316C21 93 21 93 20.688 90.063c.296-2.908.798-4.603 2.312-7.063h2v-2l-1.758-.262c-7.85-1.412-11.882-4.601-16.43-10.988C2.38 62.72-.282 55.377 1 47c1.012-3.498 2.137-6.86 4-10l3-1 1-3h2l1-3h3v-2c1.645-1.254 1.645-1.254 3.813-2.563l2.144-1.316C23 23 23 23 26 22l1-3c7.238-6.989 15.625-13.18 25.938-13.5 6.696.3 13.171 1.742 19.292 4.508 6.246 2.707 9.898 1.218 16.165-1 8.762-2.45 18.278-2.046 26.703 1.383 3.25 1.04 5.645.491 8.902-.391l1-2h3l1-3c9.58-5.034 18.144-5.238 28-1zm-36 216l1 4z" fill="rgba(27, 27, 27, 1)" stroke="none"/>
  <path d="M157 4l3 2v2l3 1c1.02.98 2.019 1.982 3 3 6.123 4.704 12.88 7.988 19.863 11.191 5.051 2.913 7.314 6.568 9.325 11.934l.98 2.57c2.697 7.47 3.297 15.781.144 23.242-2.678 5.148-5.75 9.844-11.312 12.063-2.797.414-2.797.414-5.75.625l-2.984.227L174 74l1.715 2.16c5.242 6.845 7.823 10.994 6.847 19.778L182 99l3.625-1.438c13.175-4.323 28.698-3.623 41.188 2.376 3.498 1.845 4.965 2.729 7.187 6.062l-5 1v4c-2.644-.982-4.883-1.916-7.188-3.563-9.946-5.083-25.102-2.914-35.812-1.437l.188 3.313C186 113 186 113 184.813 114.936c-2.373 1.392-4.11 1.282-6.813 1.063.313.701.626 1.403.95 2.125 1.106 3.03 1.556 5.669 1.863 8.875l.332 3.063c-.172 3.491-.997 5.204-3.145 7.937-3.576.609-5.297.444-8.375-1.5L168 135l-.535 1.606-1.583 4.743c-.577 1.734-1.15 3.468-1.721 5.204a1129.03 1129.03 0 0 1-2.599 7.76l-.869 2.666c-2.808 8.238-2.808 8.238-6.693 11.021-3.75.75-3.75.75-7 1-.22.64-.438 1.281-.664 1.941-4.112 11.215-10.59 16.383-20.336 23.059l.812 3.563c.4 1.811.795 3.624 1.188 5.437l.8 3.691c.276 1.311.551 2.623.825 3.934.26 1.23.52 2.46.79 3.727 1.48 9.225 1.48 9.225-.946 13.082-.65.66-1.3 1.322-1.969 2.004l-1.969 2.058L124 233l-3-2v-2l-2-2 2-2c.648-2.57.648-2.57 1-5h-2l-1 4-6-1c.52-4.38 1.057-8.688 2-13-4.663-3.886-6.56-5.22-12.746-4.71-4.221-.542-7.437-3.343-10.836-5.759-2.363-1.799-2.363-1.799-5.418-1.531h-6c-1.158-4.054-.837-6.218 1-10h-2c-1.63-4.122-2.263-6.707-1-11 1.875-.625 1.875-.625 4-1 2.565 2.565 2.54 4.477 3 8l2.25.125c3.862 1.229 4.633 3.501 6.75 6.875 2.272 2.002 4.297 3.648 7 5l-.254-1.898-.309-2.477-.316-2.46C100 187 100 187 101 185c2.375.25 2.375.25 5 1 2.662 3.296 2.156 6.933 2 11l2.25.25c3.285.896 4.496 2.263 6.75 4.75l2 1v-6l-2.375.125C114 197 114 197 112 195c.031-1.95.031-1.95 1-4 2.406-1.457 2.406-1.457 5.5-2.813 9.127-4.335 15.775-8.583 19.5-18.187.655-1.63 1.322-3.255 2-4.875l.875-2.242C142 161 142 161 144.082 159.98L146 159c.494-2.738.8-5.249 1-8 .313-1.67.637-3.34 1-5l-3.438.563L141 147l-1-1c.698-6.395.698-6.395 2-9l-2.938.063C136 137 136 137 135 136c-.8-5.84 1.436-8.904 4.687-13.438l1.319-1.908a386.41 386.41 0 0 1 5.376-7.547c7.848-10.794 6.909-20.492 5.2-33.22-.77-4.44-1.505-7.454-4.582-10.887h-2l-.297 2.195C143.81 76.97 143.025 81.515 139 86c-4.21 2.646-9.175 2.67-14 2-3.787-1.347-6.425-3.207-8.813-6.5L115 79l-1.188-2.313L113 75l-1.605 1.941C107.047 80.68 101.52 80.161 96 80c-4.114-.738-6.444-2.35-9.188-5.563-1.523-2.889-2.518-5.493-3.562-8.562-1.413-3.665-2.52-5.597-6-7.5-5.016-1.941-9.435-2.589-14.46-.422-4.345 2.478-6.177 4.2-7.79 9.047l2.117-1.715 2.758-2.222 2.742-2.215C66.567 57.785 68.991 57.66 74 58c4.121 1.821 6.434 4.334 9 8 2.003 6.01 2.342 13.513.047 19.477-2.232 3.116-3.952 4.329-7.754 5.003-4.661.132-8.21-.112-12.293-2.48l2 3c.164 2.17.164 2.17.055 4.684l-.083 2.796-.097 2.957c-.162 8.599.218 15.732 4.125 23.563l1 1c.125 2.5.125 2.5 0 5-1.723 1.723-3.967 1.213-6.313 1.25l-2.925.078c-3.13-.372-4.453-1.244-6.762-3.328l-1.25 1.5C51 132 51 132 47 132l1-5-1.898-.113-2.477-.2-2.46-.175C39 126 39 126 37 123v-4l-1.758.324c-5.346.82-8.566.832-13.242-2.324-2.176-4.352-1.49-10.061-.328-14.66.72-2.142 1.479-4.247 2.328-6.34l-1.48-1.316C21 93 21 93 20.687 90.063c.297-2.908.8-4.603 2.313-7.063h2v-2l-1.758-.262c-7.85-1.412-11.882-4.601-16.43-10.988C2.38 62.72-.282 55.377 1 47c1.012-3.498 2.137-6.86 4-10l3-1 1-3h2l1-3h3v-2c1.645-1.254 1.645-1.254 3.812-2.563l2.145-1.316C23 23 23 23 26 22l1-3c7.238-6.989 15.625-13.18 25.937-13.5 6.697.3 13.172 1.742 19.293 4.508 6.246 2.707 9.898 1.218 16.165-1 8.762-2.45 18.278-2.046 26.703 1.383 3.25 1.04 5.645.491 8.902-.391l1-2h3l1-3c9.58-5.034 18.144-5.238 28-1z" fill="rgba(91, 88, 87, 1)" stroke="none"/>
  <path d="M77.25 57.5c4.496 2.494 5.928 5.857 7.75 10.5 1.758 4.384 2.997 7.296 6.938 10.063 6.138 2.099 14.03.948 20.062-1.063 1.209-2 1.209-2 2-4l.77 1.863 1.043 2.45 1.019 2.425c1.934 3.745 4.261 5.704 8.168 7.262 5.52.773 10.422.379 15-3 2.798-4.92 3.514-9.464 4-15h4c5.422 5.599 5.207 14.641 5.875 22l.367 3.875c-.01 10.614-7.585 19.425-13.46 27.621l-1.86 2.676-1.7 2.378c-1.487 2.982-1.445 5.16-1.222 8.45l6 1-1 9h7a978.719 978.719 0 0 1-.438 4.25l-.246 2.39c-.79 5.89-.79 5.89-3.629 8.423-2.712 2.964-3.45 4.65-4.687 8.375-3.622 10.582-11.52 15.797-21.336 20.738A86.611 86.611 0 0 1 113 192l1 4 5 1v6c-3.653-1.25-4.78-1.671-7-5-2.06-.724-2.06-.724-4-1l-.262-2.117-.425-2.758-.387-2.742L106 187l-5-2v11c-5.169-2.067-8.633-4.106-11.063-9.25L89 185l-1.938-.313L85 184c-1.75-3.563-1.75-3.563-3-7l-4 1 1 10c-5.253-2.626-6.94-5.587-9-11-.662-4.003-.925-7.946-1-12l-5-1-3 4c-2.737-7.363-3.673-14.146-3-22l1-1c.04-1.666.043-3.334 0-5-3.375.547-5.082 1.055-8 3 .285-1.418.578-2.834.875-4.25l.492-2.39c.625-2.328 1.481-4.25 2.633-6.36l3 1c1.895.069 3.792.085 5.688.063l3.011-.028L69 131c.129-3.367-.104-5.88-1.375-9l-.773-1.938a141.793 141.793 0 0 0-1.895-4.366c-1.01-2.847-1.175-4.886-1.117-7.891l.033-2.918.064-3.012c.035-1.982.065-3.963.09-5.945l.055-2.65c.02-2.446.02-2.446-1.082-5.28l1.66.473A36.133 36.133 0 0 0 78 89c3.544-2.339 3.544-2.339 5-6 .887-7.426.83-13.442-3-20-2.04-2.466-2.87-2.957-6-4-5.743-.542-8.51.408-13 4l-2.25 2.25L57 67h-2c.29-3.482.728-4.742 3.313-7.188L61 58l1.813-1.25c5.02-1.721 9.634-1.275 14.437.75z" fill="rgba(158, 158, 158, 1)" stroke="none"/>
  <path d="M157 4l3 2v2l3 1c1.02.98 2.019 1.982 3 3 6.123 4.704 12.88 7.988 19.863 11.191 5.051 2.913 7.314 6.568 9.325 11.934l.98 2.57c2.697 7.47 3.297 15.781.144 23.242-2.678 5.148-5.75 9.844-11.312 12.063-2.797.414-2.797.414-5.75.625l-2.984.227L174 74l1.715 2.16c5.242 6.845 7.823 10.994 6.847 19.778L182 99l3.625-1.438c13.175-4.323 28.698-3.623 41.188 2.376 3.498 1.845 4.965 2.729 7.187 6.062l-5 1v4c-2.644-.982-4.883-1.916-7.188-3.563-9.946-5.083-25.102-2.914-35.812-1.437l.188 3.313C186 113 186 113 184.813 114.936c-2.373 1.392-4.11 1.282-6.813 1.063.313.701.626 1.403.95 2.125 1.106 3.03 1.556 5.669 1.863 8.875l.332 3.063c-.172 3.491-.997 5.204-3.145 7.937-3.576.609-5.297.444-8.375-1.5L168 135l-.535 1.606-1.583 4.743c-.577 1.734-1.15 3.468-1.721 5.204a1129.03 1129.03 0 0 1-2.599 7.76l-.869 2.666c-2.808 8.238-2.808 8.238-6.693 11.021-3.75.75-3.75.75-7 1-.22.64-.438 1.281-.664 1.941-4.112 11.215-10.59 16.383-20.336 23.059l.812 3.563c.4 1.811.795 3.624 1.188 5.437l.8 3.691c.276 1.311.551 2.623.825 3.934.26 1.23.52 2.46.79 3.727 1.48 9.225 1.48 9.225-.946 13.082-.65.66-1.3 1.322-1.969 2.004l-1.969 2.058L124 233l-3-2v-2l-2-2 2-2c.648-2.57.648-2.57 1-5h-2l-1 4-6-1c.52-4.38 1.057-8.688 2-13-4.663-3.886-6.56-5.22-12.746-4.71-4.221-.542-7.437-3.343-10.836-5.759-2.363-1.799-2.363-1.799-5.418-1.531h-6c-1.158-4.054-.837-6.218 1-10h-2c-1.63-4.122-2.263-6.707-1-11 1.875-.625 1.875-.625 4-1 2.565 2.565 2.54 4.477 3 8l2.25.125c3.862 1.229 4.633 3.501 6.75 6.875 2.272 2.002 4.297 3.648 7 5l-.254-1.898-.309-2.477-.316-2.46C100 187 100 187 101 185c2.375.25 2.375.25 5 1 2.662 3.296 2.156 6.933 2 11l2.25.25c3.285.896 4.496 2.263 6.75 4.75l2 1v-6l-2.375.125C114 197 114 197 112 195c.031-1.95.031-1.95 1-4 2.406-1.457 2.406-1.457 5.5-2.813 9.149-4.345 15.74-8.586 19.5-18.187.702-1.628 1.41-3.253 2.125-4.875l.945-2.242C142 161 142 161 144 159c3.625.375 3.625.375 7 1l1.125-3.5c1.964-5.902 4.182-11.705 6.379-17.523A1055.11 1055.11 0 0 0 164 124c2.312-.188 2.312-.188 5 0l3 3-1-11-5-1a88.406 88.406 0 0 1-1-5c1-1 1-1 3.723-1.098l3.34.035 3.347.028L178 109l-1.46-2.082a441244371.51 441244371.51 0 0 0-3.813-5.438A330.128 330.128 0 0 1 169 96l-2.625-1.375L164 93c-.313-2.688-.313-2.688 0-5 3.434-.859 5.617-.976 9 0l-2.3-2.816a7420.12 7420.12 0 0 1-3.013-3.746l-1.513-1.846C162.94 75.545 160.942 71.789 159 67c-2.396-2.646-2.396-2.646-5-5-3.309-3.683-4.946-7-6.5-11.688l-1.281-3.734L145 43c-1.814-5.084-3.5-9.56-6.875-13.813L136 26c.687-2.938.687-2.938 2-5 2.986.31 4.578.58 6.738 2.73 4.797 7.487 7.686 15.333 10.51 23.74l.955 2.811.833 2.533c1.015 2.3 2.172 3.468 3.964 5.186v2l2.187.875a132.68 132.68 0 0 1 5.141 2.172c4.5 1.605 8.962 1.542 13.672.953 3.572-2.352 4.643-5.032 6-9 1.066-8.564.187-15.93-5-23-2.527-2.193-4.968-3.524-8.063-4.75-7.445-3.22-14.2-7.372-19.875-13.188-3.28-2.99-5.634-3.594-10.062-3.75-6.082.391-11.28 1.727-15.504 6.325l-1.434 1.675c-1.755 1.879-2.542 2.62-5.117 2.954-4.02-.362-7.604-1.453-11.383-2.828-4.936-1.76-9.374-1.772-14.562-1.438l-2.422.129c-3.748.296-6.297.73-9.703 2.433-3.6 1.8-5.889 1.865-9.875 1.438a133.473 133.473 0 0 1-6-3c-6.863-2.692-13.634-4.049-21-3-3.314 1.57-3.314 1.57-6 4-1.183.819-2.37 1.631-3.563 2.438-2.185 1.504-3.883 3.022-5.746 4.94-3.329 3.243-7.012 5.691-10.875 8.227C17.628 37.415 13.302 40.395 11 45c-.962 8.268-.202 14.688 4.234 21.809 3.135 3.89 6.208 4.856 11.036 5.488 3.685.22 6.104.023 9.417-1.672 7.806-8.86 12.043-20.073 14.75-31.438 1.639-6.33 4.577-11.381 10.25-14.812C63 24 63 24 66 26c-.335 3.017-.548 4.58-2.813 6.688-4.626 4.89-6.084 11.617-7.437 18.062C53.433 60.603 47.796 69.578 41 77c-2.813.875-2.813.875-5 1l-.188 2C34.68 84.187 32.404 87.426 30 91l5 1c-.556 4.312-2.205 7.84-4.063 11.719-.992 2.414-1.503 4.712-1.937 7.281l2.484-.36 3.266-.39 3.234-.422C41 110 41 110 43.391 111.61c2.012 2.99 1.93 4.859 1.609 8.391l2.484-.14 3.266-.11 3.234-.14c3.716.48 4.537 1.704 7.016 4.39 2.078.646 2.078.646 4.187.688C69 125 69 125 70 126c.125 2.5.125 2.5 0 5-1.723 1.723-3.967 1.213-6.313 1.25l-2.925.078c-3.13-.372-4.453-1.244-6.762-3.328l-1.25 1.5C51 132 51 132 47 132l1-5-1.898-.113-2.477-.2-2.46-.175C39 126 39 126 37 123v-4l-1.758.324c-5.346.82-8.566.832-13.242-2.324-2.176-4.352-1.49-10.061-.328-14.66.72-2.142 1.479-4.247 2.328-6.34l-1.48-1.316C21 93 21 93 20.687 90.063c.297-2.908.8-4.603 2.313-7.063h2v-2l-1.758-.262c-7.85-1.412-11.882-4.601-16.43-10.988C2.38 62.72-.282 55.377 1 47c1.012-3.498 2.137-6.86 4-10l3-1 1-3h2l1-3h3v-2c1.645-1.254 1.645-1.254 3.812-2.563l2.145-1.316C23 23 23 23 26 22l1-3c7.238-6.989 15.625-13.18 25.937-13.5 6.697.3 13.172 1.742 19.293 4.508 6.246 2.707 9.898 1.218 16.165-1 8.762-2.45 18.278-2.046 26.703 1.383 3.25 1.04 5.645.491 8.902-.391l1-2h3l1-3c9.58-5.034 18.144-5.238 28-1z" fill="rgba(18, 18, 18, 1)" stroke="none"/>
  <path d="M248 128c3.976 1.5 5.473 3.763 7.688 7.313l1.824 2.863c2.507 4.757 2.507 4.757 2.488 7.824a56.248 56.248 0 0 1-4.938 6.625c-1.02 1.241-2.04 2.483-3.058 3.727-.51.613-1.018 1.227-1.543 1.86-2.072 2.535-4.026 5.147-5.961 7.788l-1.844 2.5c-2.81 4.242-5.073 8.395-5.656 13.5 1.034 1.26 1.034 1.26 3.285 1.098l2.778-.036 2.785-.027L248 183v2h-2v7l2 1-.25 3.25c-.105 3.762-.105 3.762 2.125 6.125 3.599 2.752 5.752 2.735 10.25 2.688l3.32-.028L266 205c.467 24.026.467 24.026-4.125 29.563L260 236l-2.875-.875C247.118 232.32 237.338 231.487 227 231c.68-6.64.68-6.64 3.563-9.875 3.619-2.686 7.013-2.896 11.437-3.125-1.268-7.746-4.603-13.763-11.027-18.492-4.508-2.51-6.866-2.47-11.973-1.508-7.073.298-14.007.097-21-1-.151 3.629-.151 3.629 1 7-2.42 1.21-3.982 1.13-6.684 1.133l-2.81.004-2.943-.012-2.932.012-2.815-.004-2.58-.004C176 205 176 205 173 204l-.113-2.309c-.425-6.678-1.39-12.474-3.887-18.691h-4l.048 2.684c.619 40.157.619 40.157-7.048 54.316l-1 2-1.744-.363c-6.935-1.418-13.896-2.616-20.881-3.762l-3.332-.55c-2.68-.444-5.362-.885-8.043-1.325.912-4.195 2.684-5.973 5.723-8.926 3.5-5.685.483-14.147-.723-20.324-.377-1.963-.752-3.927-1.125-5.89l-.508-2.611C126 196 126 196 126 193c2.593-2.177 5.262-4.117 8.027-6.064 5.444-3.97 8.568-8.338 10.786-14.748.984-2.34.984-2.34 2.187-4.188 3.563-.875 3.563-.875 7-1 2.584-1.871 3.707-4.115 5-7h1l2 8c3.348.856 5.323 1.28 8.563-.063 2.977-2.366 5.063-4.969 7.437-7.937h1c.09 1.481.09 1.481.184 2.992l.254 3.883c.08 1.276.162 2.552.246 3.867.108 3.141.108 3.141 1.316 5.258l8-1v8c2.275.823 2.275.823 5 1 5.944-3.664 10.18-9.27 14-15h1c-.47 4.312-1.064 8.466-2.063 12.688-.741 3.176-1.149 6.03-.937 9.312l4 1 .883-1.652c2.233-4.108 4.546-8.026 7.242-11.848 2.916-4.261 4.537-8.535 5.875-13.5h2l2 5c2.33.419 2.33.419 5 0 10.272-9.96 13.439-28.39 15-42z" fill="rgba(250, 250, 239, 1)" stroke="none"/>
  <path d="M275 36l-3.125 5.078c-1.151 2.177-1.151 2.177-.875 5.922 2.681 1.34 5.142 1.327 8.125 1.625 9.252 1.406 13.245 5.964 18.625 13.25 7.94 11.937 11.113 24.035 8.563 38.29-4.129 20.379-4.129 20.379-12.313 25.835l1 5 9 2c-1.84 3.68-2.408 4.632-5.5 6.875-.701.512-1.402 1.024-2.125 1.55-3.362 2.229-6.891 4.126-10.469 5.985-2.208 1.467-2.208 1.467-2.187 4.274L284 154l5 2v1c-1.728.109-3.458.186-5.188.25l-2.917.14c-3.825-.515-5.197-1.64-7.895-4.39-1.668-2.447-3.057-5.007-4.438-7.625a6344.23 6344.23 0 0 0-2.375-4.328 1392.29 1392.29 0 0 1-3.75-6.969C258.161 126.448 252.305 119.87 245 115c-.914-2.574-.914-2.574-1.625-5.688l-.727-3.074c-1.591-7.949-1.831-15.589-1.835-23.675l-.038-3.604c-.023-14.185 3.758-22.392 13.537-32.709C259.262 41.463 267.767 33.589 275 36z" fill="rgba(241, 242, 230, 1)" stroke="none"/>
  <path d="M41 126l7 1v4h4l2-3c1.21 3.632.628 5.065-.438 8.688l-.87 3.011L52 142l1.332-1.52L55 139c2.688.313 2.688.313 5 1 .043 1.666.04 3.334 0 5l-1 1c-.48 6.987-.057 13.314 2 20l1.188-1.563C64 163 64 163 66.624 163.25 69 164 69 164 70 165c.08 1.812.139 3.625.188 5.438.48 6.49 2.433 11.67 6.812 16.562l4 1-1 9h2.813c5.282 0 7.039.418 11.374 3.5 4.627 3.14 4.627 3.14 10 3.563 5.37-.089 7.933 2.47 11.813 5.937-.822 4.383-1.902 8.68-3 13 2.916.25 2.916.25 6 0l2-3c.625 2.375.625 2.375 1 5l-2 2 2 2c.4 2.323.74 4.657 1 7l3.367-.117c5.065.002 9.818.948 14.758 1.992l2.629.527c4.534.932 8.886 2.011 13.246 3.598a634.163 634.163 0 0 0 4.625-14.063l.727-2.285c1.494-6.111 1.77-12.163 1.746-18.433l-.005-2.118c-.005-2.2-.018-4.4-.03-6.601A4131.31 4131.31 0 0 0 164 183c2.375-.625 2.375-.625 5-1 4.33 4.33 4.125 10.71 4.125 16.5L173 204l22 1v1h-8l2 5c6.028.502 10.11-.064 15.371-3.125C206 207 206 207 208 207v-2l16-1c-2.228 10.026-4.436 18.246-10 27-2.771-.812-5.542-1.624-8.313-2.438l-2.38-.697-2.295-.674-2.11-.618A176.017 176.017 0 0 1 194 225a165.577 165.577 0 0 0-5.688-.563l-3.011-.253L183 224c1.255-2.51 2.5-2.871 5-4l-3-2-1-3c-4.393 1.012-4.393 1.012-7.375 4.125L176 221c0-3 0-3 1.375-4.688C179 215 179 215 181 215v-2h-8l-.148 1.836c-1.116 12.496-3.125 26.263-12.118 35.766-8.55 6.894-20.234 7.415-30.734 6.398-6.639-2.035-11.09-5.325-15-11l-1-2-2 2.313c-4.935 4.885-11.203 6.056-17.902 6.155l-2.41-.03-2.52-.023c-7.22-.193-14.285-.987-19.902-5.946-3.092-3.543-4.722-6.58-4.692-11.317.893-4.513 3.633-8.555 6.426-12.152h2c-.426-5.677-1.163-10.596-3-16-1.033-5.074-2.023-10.075-1.96-15.266.251-2.772.251-2.772-1.54-4.484L65 186v-2l-3-1v-2l-3-1v-2h-2c-3.98-6.7-7.488-12.95-7-21l-6-1c-3.47-7.346-1.913-15.787.563-23.25.465-1.255.938-2.508 1.437-3.75l-5-2v-1z" fill="rgba(27, 27, 27, 1)" stroke="none"/>
  <path d="M209 104l2.559-.121c13.5-.023 27.174 13.356 36.441 22.121 1.608 3.216.436 6.458-.188 9.875l-.422 2.323C245.31 149.115 242.005 163.59 233 171c-2.563.375-2.563.375-5 0-2-3-2-3-2-6h-2l-.625 3.938c-1.037 4.697-2.996 7.916-5.793 11.78-2.095 3.022-3.694 6.234-5.309 9.532C211 192 211 192 208.977 192.875L207 193l-2-2c.358-5.108 1.374-9.957 2.598-14.922.529-2.38.529-2.38.402-6.078l-1.285 1.758C198.908 182.155 198.908 182.155 194 185c-2.938-.125-2.938-.125-5-1-.597-2.763-1-5.16-1-8l-7 1c-2.348-3.522-2.377-5.508-2.625-9.688l-.227-3.574L178 161l-1.285 1.715c-2.975 3.72-4.805 5.977-9.403 7.535C164 170 164 170 161.625 168.5c-2.121-3.263-2.358-5.619-2.625-9.5.855-3.648.855-3.648 2.188-7.375l.694-1.969c1.795-5.007 3.842-9.851 6.118-14.656l1.797.992c2.827 1.293 5.13 1.148 8.203 1.008 2.178-3.48 2.11-5.907 1.688-9.938-.15-1.529-.15-1.529-.301-3.09A97.092 97.092 0 0 0 178 116l2.938-.938c2.903-.757 2.903-.757 4.062-2.062.368-2.328.702-4.662 1-7 7.765-2.142 14.978-2.23 23-2z" fill="rgba(93, 89, 87, 1)" stroke="none"/>
  <path d="M73 137l2 3c.64-.095 1.281-.19 1.941-.29 5.658-.724 9.7-.69 15.059 1.29l1-3 1.688 2.063L97 142c2.532-.173 2.532-.173 5-1h4l2 5c3.814-1.168 3.814-1.168 6.313-4.125L115 140l2.5.438c7.304 1.474 7.304 1.474 14.5.562l2 3c1.666.042 3.334.042 5 0l2 2c3.583.167 3.583.167 7 0a978.719 978.719 0 0 1-.438 4.25l-.246 2.39c-.79 5.89-.79 5.89-3.629 8.423-2.712 2.964-3.45 4.65-4.687 8.375-3.622 10.582-11.52 15.797-21.336 20.738A86.611 86.611 0 0 1 113 192l1 4 5 1v6c-3.653-1.25-4.78-1.671-7-5-2.06-.724-2.06-.724-4-1l-.262-2.117-.425-2.758-.387-2.742L106 187l-5-2v11c-5.169-2.067-8.633-4.106-11.063-9.25L89 185l-1.938-.313L85 184c-1.75-3.563-1.75-3.563-3-7l-4 1 1 10c-5.253-2.626-6.94-5.587-9-11-.662-4.003-.925-7.946-1-12l-5-1-3 4c-2.706-7.282-3.911-14.224-3-22l2-3 2.688.188c4.789-.272 7.015-2.91 10.312-6.188z" fill="rgba(252, 252, 250, 1)" stroke="none"/>
  <path d="M157 4l3 2v2l3 1-1 2-3-1-1 3-2 2-1.75-2c-4.951-3.047-9.582-2.722-15.25-2-4.729 1.4-7.76 3.599-10.938 7.313-1.755 1.878-2.542 2.62-5.117 2.953-4.02-.362-7.604-1.453-11.382-2.828-4.937-1.76-9.375-1.772-14.563-1.438l-2.422.129c-3.748.296-6.297.73-9.703 2.433-3.6 1.8-5.889 1.865-9.875 1.438a133.473 133.473 0 0 1-6-3c-6.863-2.692-13.634-4.049-21-3-3.314 1.57-3.314 1.57-6 4-1.183.819-2.37 1.631-3.563 2.438-2.185 1.504-3.883 3.022-5.746 4.94-3.329 3.243-7.012 5.691-10.875 8.227C17.628 37.415 13.302 40.395 11 45c-.962 8.268-.202 14.688 4.234 21.809 3.135 3.89 6.208 4.856 11.036 5.488 3.685.22 6.104.023 9.418-1.672 7.805-8.86 12.042-20.073 14.75-31.438 1.638-6.33 4.576-11.381 10.25-14.812C63 24 63 24 66 26c-.335 3.017-.548 4.58-2.813 6.688-4.626 4.89-6.084 11.617-7.437 18.062C53.433 60.603 47.796 69.578 41 77c-2.813.875-2.813.875-5 1l-.188 2C34.68 84.187 32.404 87.426 30 91l5 1c-.556 4.312-2.205 7.84-4.063 11.719-.992 2.414-1.503 4.712-1.937 7.281l2.484-.36 3.266-.39 3.234-.422C41 110 41 110 43.391 111.61c2.012 2.99 1.93 4.859 1.609 8.391l2.484-.14 3.266-.11 3.234-.14c3.716.48 4.537 1.704 7.016 4.39 2.078.646 2.078.646 4.188.688C69 125 69 125 70 126c.125 2.5.125 2.5 0 5-1.723 1.723-3.967 1.213-6.313 1.25l-2.925.078c-3.13-.372-4.453-1.244-6.762-3.328l-1.25 1.5C51 132 51 132 47 132l1-5-1.898-.113-2.477-.2-2.46-.175C39 126 39 126 37 123v-4l-1.758.324c-5.346.82-8.566.832-13.242-2.324-2.176-4.352-1.49-10.061-.328-14.66.72-2.142 1.479-4.247 2.328-6.34l-1.48-1.316C21 93 21 93 20.688 90.063c.296-2.908.798-4.603 2.312-7.063h2v-2l-1.758-.262c-7.85-1.412-11.882-4.601-16.43-10.988C2.38 62.72-.282 55.377 1 47c1.012-3.498 2.137-6.86 4-10l3-1 1-3h2l1-3h3v-2c1.645-1.254 1.645-1.254 3.813-2.563l2.144-1.316C23 23 23 23 26 22l1-3c7.238-6.989 15.625-13.18 25.938-13.5 6.696.3 13.171 1.742 19.292 4.508 6.246 2.707 9.898 1.218 16.165-1 8.762-2.45 18.278-2.046 26.703 1.383 3.25 1.04 5.645.491 8.902-.391l1-2h3l1-3c9.58-5.034 18.144-5.238 28-1z" fill="rgba(25, 25, 25, 1)" stroke="none"/>
  <path d="M151 59l2.25 2.313c2.514 2.613 2.514 2.613 4.785 4.074 2.296 1.885 3 3.394 4.153 6.113C165.143 77.8 169.45 82.786 174 88c-3.069 1.534-5.7.55-9 0-.502 2.33-.502 2.33 0 5 1.401.934 2.811 1.858 4.27 2.7 4.19 3.15 7.095 8.395 8.73 13.3l-12 1 1 5 4 1c1.292 4.12 2.263 7.668 2 12l-1.688-1.438c-2.495-1.686-4.357-2.152-7.312-2.562l-.625 3.625c-1.233 5.633-3.583 10.671-5.918 15.922-1.59 3.767-2.78 7.515-3.816 11.465C153 157 153 157 151 160l-5-1c.52-4.38 1.057-8.688 2-13l-3.438.563L141 147l-1-1c.698-6.395.698-6.395 2-9l-2.938.063C136 137 136 137 135 136c-.8-5.84 1.436-8.904 4.688-13.438l1.318-1.908a386.41 386.41 0 0 1 5.376-7.547c7.859-10.809 6.838-20.413 5.235-33.15-.887-5.333-2.522-8.581-5.617-12.957l1-3h-6v-1l9-1 1-3z" fill="rgba(91, 88, 87, 1)" stroke="none"/>
  <path d="M165 182c1.675.286 3.344.618 5 1 3.038 7.16 3.267 13.25 3 21l22 1v1h-8l2 5c6.028.502 10.11-.064 15.371-3.125C206 207 206 207 208 207v-2l16-1c-2.228 10.026-4.436 18.246-10 27-2.771-.812-5.542-1.624-8.313-2.438l-2.38-.697a135949370.957 135949370.957 0 0 0-4.406-1.292A176.017 176.017 0 0 1 194 225a165.577 165.577 0 0 0-5.688-.563l-3.011-.253L183 224c1.255-2.51 2.5-2.871 5-4l-3-2-1-3c-4.393 1.012-4.393 1.012-7.375 4.125L176 221c0-3 0-3 1.375-4.688C179 215 179 215 181 215v-2h-8l-.148 1.836C171.613 228.714 169.056 241.71 159 252l-2-1 3-3-2-5-1.938 1.313c-8.002 4.409-15.925 5.951-25.062 4.687-3.76-1.54-7.14-3.281-9-7-.134-2.672-.043-5.323 0-8l1 2 3.367-.117c5.065.002 9.818.948 14.758 1.992l2.629.527c4.534.932 8.886 2.011 13.246 3.598a634.163 634.163 0 0 0 4.625-14.063l.727-2.285c1.493-6.109 1.767-12.13 1.71-18.398l-.011-2.11c-.012-2.195-.03-4.388-.051-6.582-.027-2.915-.046-5.83-.063-8.746l-.035-3.892C164 183 164 183 165 182z" fill="rgba(40, 40, 38, 1)" stroke="none"/>
  <path d="M147 180c2.534 1.918 4.707 3.59 6.563 6.188 1.704 2.148 2.77 2.444 5.437 2.812 1.004 5.278 1.424 10.522 1.75 15.875l.207 2.605c.354 5.978-.497 10.054-2.957 15.52l-15-1v2h-2v4l1.547-.496c3.266-.671 6.372-.597 9.703-.566l3.828.027L159 227l-.563 3.75c-.405 3.104-.222 5.224.563 8.25l-2 3-1.744-.363c-6.935-1.418-13.896-2.616-20.881-3.762l-3.332-.55c-2.68-.444-5.362-.885-8.043-1.325.912-4.195 2.684-5.973 5.723-8.926 3.5-5.685.483-14.147-.723-20.324-.377-1.963-.752-3.927-1.125-5.89l-.508-2.611C126 196 126 196 126 193l3.375-.375c3.656-.272 3.656-.272 5.625-2.625l2.188-.625c4.299-2.102 6.843-5.696 9.812-9.375z" fill="rgba(252, 252, 248, 1)" stroke="none"/>
  <path d="M47 69c4.307-.088 6.86 1.143 10 4 .906 2.305.906 2.305 1.5 4.875C59.623 82.113 61.015 84.716 64 88c.99 2.97 1.08 4.74.992 7.824l-.05 2.87a704.42 704.42 0 0 1-.157 5.929c-.093 6.28.783 10.603 3.215 16.377v4c-3.25.25-3.25.25-7 0l-1.844-1.969c-2.816-2.653-4.594-2.615-8.406-2.781l-3.266-.172L45 120l-.875-3.375c-.817-3.628-.817-3.628-3.125-5.625-2.899-.243-2.899-.243-6.125-.125l-3.32.055L29 111c.426-5.112 1.611-8.652 4.16-13.105 1.11-2.16 1.11-2.16.84-5.895l-4-1c.955-2.645 1.857-4.811 3.563-7.063 1.584-1.819 1.584-1.819 1.75-4C36.403 76.865 39.157 76.421 42 75c1.324-1.546 1.324-1.546 2.5-3.25L47 69z" fill="rgba(92, 89, 88, 1)" stroke="none"/>
  <path d="M151 158c.981 3.053.981 4.947 0 8l3 2-7 1c-.22.64-.438 1.281-.664 1.941-4.112 11.215-10.59 16.383-20.336 23.059l.813 3.563c.399 1.811.794 3.624 1.187 5.437l.8 3.691c.276 1.311.551 2.623.825 3.934.26 1.23.52 2.46.79 3.727 1.48 9.225 1.48 9.225-.946 13.082-.65.66-1.3 1.322-1.969 2.004l-1.969 2.058L124 233l-3-2v-2l-2-2 2-2c.648-2.57.648-2.57 1-5h-2l-1 4-6-1c.52-4.38 1.057-8.688 2-13-4.663-3.886-6.56-5.22-12.746-4.71-4.221-.542-7.437-3.343-10.836-5.759-2.363-1.799-2.363-1.799-5.418-1.531h-6c-1.158-4.054-.837-6.218 1-10h-2c-1.63-4.122-2.263-6.707-1-11 1.875-.625 1.875-.625 4-1 2.565 2.565 2.54 4.477 3 8l2.25.125c3.862 1.229 4.633 3.501 6.75 6.875 2.272 2.002 4.297 3.648 7 5l-.254-1.898-.308-2.477-.317-2.46C100 187 100 187 101 185c2.375.25 2.375.25 5 1 2.662 3.296 2.156 6.933 2 11l2.25.25c3.285.896 4.496 2.263 6.75 4.75l2 1v-6l-2.375.125C114 197 114 197 112 195c.031-1.95.031-1.95 1-4 2.406-1.457 2.406-1.457 5.5-2.813 9.149-4.345 15.74-8.586 19.5-18.187.702-1.628 1.41-3.253 2.125-4.875l.945-2.242C142 161 142 161 144 159c3.625.375 3.625.375 7 1v-2z" fill="rgba(16, 16, 15, 1)" stroke="none"/>
  <path d="M242 68l2 3c4.236-.69 4.236-.69 8.438-1.563 3.211-.548 6.31-.5 9.562-.437l1 2 3.5-.188c4.728-.016 8.19 1.298 12.5 3.188l1 1c1.812.048 3.625.037 5.438 0 4.9-.047 9.64.206 14.503.781 2.211.272 2.211.272 5.059.219 3.93 12.774 2.39 27.312-3.133 39.5L301 117l-4-1v-10h-2.688c-4.282-1.293-5.273-3.067-7.41-6.855-1.183-2.813-1.278-5.136-.902-8.145l-3-1c-.688-2.063-.688-2.063-1-4-4.914-1.092-8.516-1.562-13 1l-3-3-2.25 1.063c-2.882.982-3.962.97-6.75-.063v2h-3v-2l-3 2c-2.332.08-4.668.088-7 0l-1 4h-2a3036.86 3036.86 0 0 1-.063-10.938l-.025-3.154-.01-2.998-.016-2.777C241 69 241 69 242 68z" fill="rgba(251, 250, 233, 1)" stroke="none"/>
  <path d="M77 196l1.863.219 2.45.281 2.425.281c2.381.267 2.381.267 5.262.219a117.12 117.12 0 0 1 5.188 3.5c4.626 3.14 4.626 3.14 10 3.563 5.369-.089 7.932 2.47 11.812 5.937-.665 3.705-1.646 7.172-2.848 10.738l-1.084 3.233-1.13 3.341-1.143 3.4c-.929 2.764-1.86 5.527-2.795 8.288-3.81 0-5.468-.617-8.816-2.137-7.058-2.79-14.658-4.14-22.184-4.863 1.06-2.562 1.71-3.813 4.078-5.34 2.138-1.48 2.138-1.48 2.234-3.832-.86-7.101-2.497-13.78-4.472-20.64C77 199 77 199 77 196z" fill="rgba(249, 249, 245, 1)" stroke="none"/>
  <path d="M260 144c1.777 2.666 2.875 5.028 4 8h-6c.705 4.938 2.77 8.247 5.605 12.29 4.303 6.353 5.175 11.11 4.395 18.71h-7a315 315 0 0 0 .313 5.25l.175 2.953c.567 3.099 1.577 4.378 3.512 6.797.688 3.75.688 3.75 1 7-5.463 1.82-10.26 1.808-15.5-.625-2.5-2.375-2.5-2.375-3.438-5.438C247 196 247 196 248 193l-3-1 1-7h2v-2l-2.117.29c-.91.11-1.82.22-2.758.335l-2.742.352L238 184l-2-2c.54-6.49 4.344-11.716 8.188-16.75l2.394-3.145a521.613 521.613 0 0 1 8.691-10.851c1.78-2.324 3.269-4.718 4.727-7.254z" fill="rgba(93, 90, 87, 1)" stroke="none"/>
  <path d="M120 220l2 4-2 3 2 2c.918 3.122.974 5.853.813 9.063-.18 3.9-.18 3.9 1.937 6.312 6.164 4.452 11.8 4.202 19.25 3.625 5.37-1.16 10.173-3.4 15-6v5l2 1c-3.585 5.306-7.567 7.321-13.805 8.555-9.94 1.385-18.828 1.546-27.195-4.555-2.521-2.387-4.438-4.876-6-8l-2 2.313c-4.935 4.885-11.203 6.056-17.902 6.155l-2.41-.03-2.52-.023c-7.31-.195-14.168-1.1-19.973-5.911C67.75 244.938 67.75 244.938 66 242l1-3h2a105.022 105.022 0 0 0 4-5v5h2l1 2c4.722 2.71 9.786 2.296 15.063 2.25l2.72.023 2.627-.007 2.38-.007c2.493-.292 4.091-.923 6.21-2.259 1.249-2.313 1.249-2.313 2.063-5.063l.988-2.96L109 230c.582-1.73 1.166-3.459 1.75-5.188.418-1.27.836-2.54 1.25-3.812l1 2h6l1-3z" fill="rgba(29, 29, 29, 1)" stroke="none"/>
  <path d="M107 81c2.998 1.182 5.694 2.694 8 5 .375 3.25.375 3.25 0 7-2.625 3.208-5.62 5.621-9 8l1 6c5.603.576 5.603.576 10.375-1.813A124.34 124.34 0 0 0 121 100l3 1c-1.31 3.927-2.79 6.356-6 9a57.242 57.242 0 0 1-4 1l.07 1.793c.126 5.511.155 9.725-3.695 14.02-3.469 1.734-6.633 1.944-10.375 1.187-5.173-3.22-7.165-6.393-9-12v-4l-2.688-.625c-4.306-1.788-5.722-3.53-8.312-7.375l1-3h3l.75 2.375c1.03 2.646 1.03 2.646 2.938 4 3.878 1.048 7.735.413 11.312-1.375.652-2.025.652-2.025 1-4l-2.125-.5C93.76 99.353 91.15 96.101 89 92c-.348-2.59-.348-2.59 0-5 5.927-5.67 9.969-6.911 18-6z" fill="rgba(23, 15, 15, 1)" stroke="none"/>
  <path d="M138 144l3 2c2.332.08 4.668.088 7 0a978.719 978.719 0 0 1-.438 4.25l-.246 2.39c-.79 5.89-.79 5.89-3.629 8.423-2.712 2.964-3.45 4.65-4.687 8.375-3.622 10.582-11.52 15.797-21.336 20.738A86.611 86.611 0 0 1 113 192l1 4 5 1v6c-3.653-1.25-4.78-1.671-7-5-2.06-.724-2.06-.724-4-1l-.262-2.117-.425-2.758-.387-2.742L106 187l-5-2v11c-5.169-2.067-8.633-4.106-11.063-9.25L89 185l-1.945-.371C85 184 85 184 83.918 182.293l-.73-2.106-.77-2.082c-.48-2.416-.095-3.762.582-6.105v-4c3.107.336 4.604.59 6.813 2.875C91 173 91 173 91 176h-2c1.152 2.468 2.048 4.048 4 6 2.371.281 2.371.281 5 .188l2.688-.02c2.338-.022 2.338-.022 4.312-1.168l1.938.625L109 182c1.646-1.396 1.646-1.396 3-3h2v-3l-10 1-1-5h6v-2h7l2 4c3.586-1.198 3.586-1.198 6.375-3.625 2.626-2.222 5.332-1.561 8.625-1.375l.188-1.625C134 165 134 165 136.5 162.312c3.22-3.647 3.627-7.552 3.5-12.312l-1-3-3 1-1-3 3-1z" fill="rgba(245, 245, 221, 1)" stroke="none"/>
  <path d="M266 83l3 2v2l5-4 1.75.938c2.093.988 3.995 1.579 6.25 2.062l1 4 4 1-.25 2.625c.307 4.144 1.84 6.062 4.25 9.375v2l6 1v10l3 1c-1.074 2.915-1.778 4.778-4 7-6.44-4.044-10.757-7.469-13-15-1.911-3.075-2.494-3.831-6-5-2.188-1.938-2.188-1.938-4-4v-2c-8.285-.147-15.54.726-23.5 3-2.488.71-4.99 1.372-7.5 2l-1-12h2l1-4 3.313-.438c3.618-.445 3.618-.445 6.687-1.562v2h3v-2l2.813.125c3.345.146 3.345.146 6.187-2.125z" fill="rgba(234, 235, 222, 1)" stroke="none"/>
  <path d="M248 105l1 2c1.656.382 3.325.714 5 1l2 1v2l3 1v2l10 1 .875 3.438L271 122l2 1v2l5 1c.182.808.364 1.616.55 2.45.252 1.068.504 2.136.762 3.238l.739 3.199c.822 3.157.822 3.157 2.605 5.832L284 143c-.813 2.813-.813 2.813-2 5l2 1v5l5 2v1c-1.728.109-3.458.186-5.188.25l-2.917.14c-3.825-.515-5.197-1.64-7.895-4.39-1.668-2.447-3.057-5.007-4.438-7.625a6344.23 6344.23 0 0 0-2.375-4.328 1392.29 1392.29 0 0 1-3.75-6.969C258.161 126.448 252.305 119.87 245 115c-1.35-6.3-1.35-6.3 0-9l3-1z" fill="rgba(232, 233, 221, 1)" stroke="none"/>
  <path d="M131 56c3.327 1.33 5.54 2.51 8 5.125 2.564 2.403 4.563 2.563 8 2.875-.875 3.875-.875 3.875-2 5a194.597 194.597 0 0 0-.813 5.188C143.344 78.97 142.32 82.302 139 86c-4.21 2.646-9.175 2.67-14 2-3.623-1.289-6.3-3.084-8.664-6.176-1.696-3.585-1.804-6.367-1.836-10.324-.03-1.29-.062-2.578-.094-3.906.883-5.343 3.856-7.301 8.031-10.406 3.173-1.47 5.094-1.613 8.563-1.188z" fill="rgba(5, 5, 4, 1)" stroke="none"/>
  <path d="M34 79l2 1c-1.45 4.11-3.511 7.433-6 11l5 1c-.556 4.312-2.205 7.84-4.063 11.719-.992 2.414-1.503 4.712-1.937 7.281l2.484-.36 3.266-.39 3.234-.422C41 110 41 110 43.391 111.61c2.012 2.99 1.93 4.859 1.609 8.391l2.484-.14 3.266-.11 3.234-.14c3.716.48 4.537 1.704 7.016 4.39 2.078.646 2.078.646 4.188.688C69 125 69 125 70 126c.125 2.5.125 2.5 0 5-1.723 1.723-3.967 1.213-6.313 1.25l-2.925.078c-3.13-.372-4.453-1.244-6.762-3.328l-1.25 1.5C51 132 51 132 47 132l1-5-1.898-.113-2.477-.2-2.46-.175C39 126 39 126 37 123v-4l-1.758.324c-5.346.82-8.566.832-13.242-2.324-2.176-4.352-1.49-10.061-.328-14.66.72-2.142 1.479-4.247 2.328-6.34l-1.5-1.125C21 93 21 93 20.441 90.051 21 87 21 87 23.59 84.918l3.348-1.73 3.34-1.77L33 80l1-1z" fill="rgba(23, 22, 22, 1)" stroke="none"/>
  <path d="M74 58c4.121 1.821 6.434 4.334 9 8 2.003 6.01 2.342 13.513.047 19.477-2.2 3.072-3.966 4.297-7.684 5.074-4.558.217-7.704-.245-11.863-2.176-3.773-3.584-5.397-6.529-5.688-11.75L58 74h10c-.102-2.947-.102-2.947-1-6-2.463-1.453-2.463-1.453-5-2v-3h2l.375-1.938L65 59c3.064-1.532 5.617-1.23 9-1z" fill="rgba(4, 4, 4, 1)" stroke="none"/>
  <path d="M224 204c-2.104 9.864-4.517 18.374-10 27-2.771-.812-5.542-1.624-8.313-2.438l-2.38-.697-2.295-.674-2.11-.618A176.017 176.017 0 0 1 194 225a165.577 165.577 0 0 0-5.688-.563l-3.011-.253L183 224c1.392-2.784 3.156-2.979 6-4l1-8 2.23-.332c5.218-.848 9.378-1.55 13.77-4.668h2v-2c1.916-.169 3.833-.335 5.75-.5l3.234-.281c2.334-.17 4.676-.219 7.016-.219z" fill="rgba(248, 247, 224, 1)" stroke="none"/>
  <path d="M275 36l-3.125 5.078c-1.151 2.177-1.151 2.177-.875 5.922 2.681 1.34 5.142 1.327 8.125 1.625 5.863.865 9.187 2.408 13.484 6.426 1.667 2.336 2.126 4.105 2.391 6.949-1.188 1.875-1.188 1.875-3 3-2.61-.174-3.95-.963-6.063-2.5-3.762-1.921-7.039-1.998-11.218-2.191-2.883-.328-5.058-1.191-7.719-2.309-3.847-.24-7.255.119-11 1l-1-3h-4c.933-6.53 3.911-10.413 8.895-14.504C269.983 34.328 269.983 34.328 275 36z" fill="rgba(249, 249, 233, 1)" stroke="none"/>
  <path d="M157 4l3 2v2l3 1-1 2-3-1-1 3-2 2-1.75-2c-4.951-3.047-9.582-2.722-15.25-2-4.729 1.4-7.76 3.599-10.938 7.313-1.755 1.878-2.542 2.62-5.117 2.953-4.824-.434-9.27-1.928-13.8-3.578-2.403-.843-2.403-.843-6.082-1.188L100 16c-2-3-2-3-2-6l-6-1V8c15.926-.528 15.926-.528 23.098 2.39 3.25 1.042 5.645.492 8.902-.39l1-2h3l1-3c9.58-5.034 18.144-5.238 28-1z" fill="rgba(38, 38, 38, 1)" stroke="none"/>
  <path d="M198 196c1.805.243 3.61.488 5.414.738 6.155.623 12.63.854 18.707-.363 4.146-.54 6.141.794 9.625 2.887 4.341 3.348 7.803 7.836 10.254 12.738.04 2 .043 4 0 6-6.625.125-6.625.125-10-1v-2h2l-3-5-1 5h-2l-1-2-2 2v-3l-3 1c.875-6.75.875-6.75 2-9l-1.61.496c-2.929.618-5.648.599-8.64.566l-3.266-.027L208 205v2c-10.842 6.108-10.842 6.108-17 5-2.438-1.875-2.438-1.875-4-4v-2l10-2c0-1.521-.025-3.042-.063-4.563C197 197 197 197 198 196z" fill="rgba(11, 11, 10, 1)" stroke="none"/>
  <path d="M248 128c3.976 1.5 5.473 3.763 7.688 7.313l1.824 2.863c2.507 4.757 2.507 4.757 2.488 7.824a56.248 56.248 0 0 1-4.938 6.625c-1.02 1.241-2.04 2.483-3.058 3.727-.51.613-1.018 1.227-1.543 1.86-2.072 2.535-4.026 5.147-5.961 7.788l-1.844 2.5C239.13 173.824 237 178.586 237 185l-3-1v-2h-3c-.95-3.695-.95-6.305 0-10l-9 1 2-8h2l2 5c2.33.419 2.33.419 5 0 10.272-9.96 13.439-28.39 15-42z" fill="rgba(242, 242, 217, 1)" stroke="none"/>
  <path d="M263 205h3c.467 24.026.467 24.026-4.125 29.563L260 236l-2.875-.875C247.118 232.32 237.338 231.487 227 231c.68-6.64.68-6.64 3.563-9.875 3.619-2.686 7.013-2.896 11.437-3.125v-5l3 1v2h2c.262 3.146.248 4.618-1.5 7.313L244 225c3.01.934 3.867 1.044 7 0l3 1 1-4 4-1 2 3c1.13-3.582 1.067-6.888 1-10.625-.11-6.154-.11-6.154 1-8.375z" fill="rgba(248, 248, 221, 1)" stroke="none"/>
  <path d="M271.77 91.387c3.455.95 5.142 2.784 7.23 5.613v3c1.083.03 1.083.03 2.188.063 4.055 1.351 5.892 4.194 7.812 7.937v3l3.438-.563L296 110c1 1 1 1 1.063 3.563L297 116l3 1c-1.074 2.915-1.778 4.778-4 7-6.44-4.044-10.757-7.469-13-15-1.911-3.075-2.494-3.831-6-5-2.188-1.938-2.188-1.938-4-4v-2c-8.285-.147-15.54.726-23.5 3-2.488.71-4.99 1.372-7.5 2l-1-9h4v2c4.97-1.127 4.97-1.127 9-4 2.016.256 4.033.519 6.027.906 4.203.2 6.874-2.179 11.743-1.52z" fill="rgba(217, 218, 216, 1)" stroke="none"/>
  <path d="M163 181h2c.076 4.55.13 9.098.165 13.647.015 1.54.035 3.08.061 4.62.208 12.433-.148 25.151-5.226 36.733h-3c-.125-5.75-.125-5.75 1-8h-17v-4h2v-2c5.126-.103 9.95-.036 15 1 1.773-7.96 2.201-15.428 2-23.563-.05-2.126-.093-4.252-.125-6.378l-.07-2.803C160 188 160 188 162 186c.648-2.57.648-2.57 1-5z" fill="rgba(242, 243, 219, 1)" stroke="none"/>
  <path d="M122 234l1 2 3.367-.117c5.065.002 9.818.948 14.758 1.992l2.629.527c4.534.932 8.886 2.011 13.246 3.598-3.523 4.442-7.6 5.904-13 7-7.503.844-13.354.784-19.61-3.71-1.805-1.674-2.364-2.771-2.488-5.235L122 234z" fill="rgba(91, 88, 85, 1)" stroke="none"/>
  <path d="M249 115l3.125 1.875c4.053 2.32 8.18 3.673 12.688 4.875L267 123c.374 1.993.707 3.994 1 6l1.875.875c2.963 1.569 3.5 3.76 4.535 6.832.787 3.058 1.142 6.07 1.38 9.215.213 2.104.65 4.04 1.21 6.078l-3 2c-1.212-1.935-2.42-3.873-3.625-5.813l-1.112-1.786a154.331 154.331 0 0 1-6.2-11.089c-2.685-5.045-6.079-8.997-10.012-13.12-1.851-1.979-3.473-3.993-5.051-6.192l1-1z" fill="rgba(217, 217, 216, 1)" stroke="none"/>
  <path d="M75 231c9.985.812 24.184 2.035 31 10-4.737 3.722-9.186 3.45-14.938 3.375l-2.67.035c-5.23-.023-8.83-.57-13.392-3.41v-2h-2c.875-6.875.875-6.875 2-8z" fill="rgba(93, 90, 88, 1)" stroke="none"/>
  <path d="M227 231c11.952-.43 23.556.185 35 4v2c-6 4.5-9.965 5.161-17.375 5.25l-3.898.078c-5.259-.463-8.48-2.016-12.102-5.828C227 234 227 234 227 231z" fill="rgba(94, 91, 87, 1)" stroke="none"/>
  <path d="M182 223c10.386.041 19.518 3.113 29.22 6.465 1.79.63 1.79.63 3.78.535v2c-7.877 4.61-18.037 4.146-26.75 2.125C185 233 185 233 182 231c-.408-2.712-.133-5.244 0-8z" fill="rgba(94, 91, 87, 1)" stroke="none"/>
  <path d="M77.25 57.5c4.496 2.494 5.928 5.857 7.75 10.5 1.758 4.384 2.997 7.296 6.938 10.063 6.138 2.099 14.03.948 20.062-1.063l2-4 4 10-2 1-2-1v2l-1.813-.938C107.175 81.629 102.483 81.46 97 82l-3.188 1.688C91 85 91 85 89.082 84.53 87.125 83.687 87.125 83.687 84 82l-.113-2.633c-.404-7.077-.725-12.547-5.387-18.18C75.015 58.43 71.236 58.642 67 59c-3.24 1.78-5.641 3.641-8.25 6.25L57 67h-2c.29-3.482.728-4.742 3.313-7.188L61 58l1.813-1.25c5.02-1.721 9.634-1.275 14.437.75z" fill="rgba(151, 151, 150, 1)" stroke="none"/>
  <path d="M307 120l1 2 2.313-.188C313 122 313 122 314.675 123.23c1.73 2.314 1.567 3.44 1.199 6.27l-.258 2.344c-.71 2.483-1.666 3.51-3.617 5.156l-1-2c-1.624-.27-3.251-.53-4.887-.723-2.336-.306-4.62-.734-6.925-1.214l-2.27-.465C295 132 295 132 293 130c.375-2.625.375-2.625 1-5l1.875-.375c2.316-.497 2.316-.497 4.125-2.625l4 2 3-4z" fill="rgba(42, 42, 42, 1)" stroke="none"/>
  <path d="M107 84c3 2 3 2 5 4 0 2.97-.589 4.581-2.672 6.703-5.247 4.222-5.247 4.222-9.016 4.484C97.115 97.546 95.21 95.843 93 93c-.313-3.313-.313-3.313 0-6 5.025-3.015 8.282-3.635 14-3z" fill="rgba(88, 86, 86, 1)" stroke="none"/>
  <path d="M102 107l3.375 1.938c1.86 1.067 3.706 2.103 5.625 3.062-.087 1.605-.196 3.21-.313 4.813l-.175 2.707c-.584 2.83-1.209 3.781-3.512 5.48-2.875.5-2.875.5-6 0-3.621-2.88-5.712-5.55-7-10v-3l2.875-1.375c3.128-1.427 3.128-1.427 5.125-3.625z" fill="rgba(221, 170, 170, 1)" stroke="none"/>
  <path d="M249 119c6.842 2.83 12.154 9.982 15.688 16.313C266 139 266 139 265.25 142l-1.25 2c-2.277-.14-2.277-.14-5-1-1.879-2.547-1.879-2.547-3.563-5.75-1.73-3.243-3.298-6.084-5.667-8.902C248 126 248 126 248.25 122.188L249 119z" fill="rgba(14, 13, 14, 1)" stroke="none"/>
  <path d="M90 223v2l1.813.438c1.749.45 3.474.99 5.187 1.562v3l2 1v2l3 1v3l-3.656-.84-4.844-1.097-2.398-.553A134.144 134.144 0 0 0 76 232c1.393-3.367 2.979-4.986 6-7 2 1 2 1 3 2v-3c2-1 2-1 5-1z" fill="rgba(249, 249, 226, 1)" stroke="none"/>
  <path d="M214.125 205.938l3.32.027L220 206l-3 2c-1.205 2.552-1.205 2.552-2 5l-6-1-1 2h2l2 8-4 1-2.625.688L203 224l-2-2c.375-2.125.375-2.125 1-4l-4-2c.313-1.938.313-1.938 1-4l3-1a181.008 181.008 0 0 0 4-4c2.765-1.382 5.046-1.095 8.125-1.063z" fill="rgba(251, 251, 250, 1)" stroke="none"/>
  <path d="M107 81c2.998 1.182 5.694 2.694 8 5 .375 3.25.375 3.25 0 7-2.25 2.75-2.25 2.75-5 5l-2 1.875c-2 1.125-2 1.125-4.75.813L101 100l10-8c-.27-2.437-.27-2.437-1-5-3.732-2.488-6.68-2.513-11-2-3.454.934-3.454.934-6 3-.975 3.09-.975 3.09-1 6h-2c-.875-3.188-.875-3.188-1-7 4.76-6.123 10.775-6.82 18-6z" fill="rgba(15, 15, 14, 1)" stroke="none"/>
  <path d="M253 141c.813 1.813.813 1.813 1 4-.938 2.25-.938 2.25-2 4h-4l-1 5h2l1-3 3 2c-1.78 4.044-4.395 7.46-7 11-2-3-2-3-3-6h-1c.64-6.142 1.562-12.485 6-17.063 2-.937 2-.937 5 .063z" fill="rgba(245, 245, 219, 1)" stroke="none"/>
  <path d="M58 146l1 3 10 1c.326 4.675-.294 7.167-3 11l4 1c-2 2-2 2-4.5 2.438-2.85.339-2.85.339-4.5 3.562-2.775-7.465-3.368-14.067-3-22z" fill="rgba(236, 238, 217, 1)" stroke="none"/>
  <path d="M165 182c1.675.286 3.344.618 5 1 2.37 5.48 2.654 11.113 2 17l-2 2a126.235 126.235 0 0 0-2 6l-2-1a94.819 94.819 0 0 1-1.125-7.563l-.262-2.095A94.797 94.797 0 0 1 164 183l1-1z" fill="rgba(6, 6, 6, 1)" stroke="none"/>
  <path d="M63 60l2 1-3 4 2.938 1.125C68 68 68 68 68.938 71.125L69 74c-1 1-1 1-4.375 1.125C61 75 61 75 58 74l-1 2v-3l-1.938-.75C53 71 53 71 52.25 68.875L52 67l2.688-.688C58.434 64.829 60.337 62.977 63 60z" fill="rgba(22, 22, 22, 1)" stroke="none"/>
  <path d="M292 45c5.222 3.108 10.842 7.153 12.668 13.219L305 60h-3l-2 2c-3.672-.282-5.452-2.048-7.875-4.688-1.836-2.175-1.836-2.175-3.125-4.312.5-3.375.5-3.375 2-6l1-2z" fill="rgba(45, 45, 46, 1)" stroke="none"/>
  <path d="M212 175v5c2.468-1.152 4.048-2.048 6-4l1 3c-.89 1.613-.89 1.613-2.25 3.313-1.836 2.382-3.025 4.282-4.313 7.062C211 192 211 192 208.938 193H207l-2-2c.227-2.728.56-5.31 1-8l.313-3.375C207 177 207 177 209 175.625c2-.625 2-.625 3-.625z" fill="rgba(96, 93, 88, 1)" stroke="none"/>
  <path d="M263 205h3c.369 19.005.369 19.005-2 27l-2.188-1.438c-2.707-1.504-4.774-2.128-7.812-2.562v-5l5-2 2 3c1.13-3.582 1.067-6.888 1-10.625-.11-6.154-.11-6.154 1-8.375z" fill="rgba(238, 239, 223, 1)" stroke="none"/>
  <path d="M242 63l1 2 2.75-.563C249 64 249 64 250.918 64.535c2.552.57 4.135.145 6.644-.535 3.238-.874 4.143-1.098 7.438 0-3.857 5.097-7.956 6.137-14.063 7.617-2.967.387-5.066.154-7.937-.617l-1-8z" fill="rgba(218, 219, 216, 1)" stroke="none"/>
  <path d="M245.563 182.938L248 183v2h-2v7l2 1-.188 3.25c.193 3.859.585 5.038 3.188 7.75-2 1-2 1-4.875.063-3.996-2.638-5.653-5.55-7.125-10.063v-4h4l-.563-2.938L242 184c1-1 1-1 3.563-1.063z" fill="rgba(240, 239, 221, 1)" stroke="none"/>
  <path d="M102 216h5l2 4h2c1.793 4.167.012 7.747-1.438 11.75l-.736 2.113A605.31 605.31 0 0 1 107 239h-4l-1-2c.996-1.768 2-3.535 3.09-5.246 1.14-1.868 1.14-1.868.91-4.754 1-2.188 1-2.188 2-4h-3c-2.357-2.532-3-3.472-3-7z" fill="rgba(242, 243, 223, 1)" stroke="none"/>
  <path d="M111 112a402.219 402.219 0 0 1-.375 4.938c-.07.916-.14 1.833-.21 2.777-.138.754-.274 1.508-.415 2.285-2.427 1.213-4.335 1-7 1-.982-4.053-1.082-7.839-1-12 3.2-1.6 5.723-.032 9 1z" fill="rgba(249, 178, 175, 1)" stroke="none"/>
  <path d="M88 227c2.763.523 5.326 1.109 8 2l1-2v3l2 1v2l3 1v3l-18-4 4-5v-1z" fill="rgba(243, 242, 222, 1)" stroke="none"/>
  <path d="M77.25 57.5c4.425 2.404 6.054 5.903 7.75 10.5l-2 1-1.313-2.813C79.534 62.12 78.368 60.456 74 59c-5.743-.542-8.51.408-13 4l-2.25 2.25L57 67h-2c.29-3.482.728-4.742 3.313-7.188L61 58l1.813-1.25c5.02-1.721 9.634-1.275 14.437.75z" fill="rgba(150, 150, 150, 1)" stroke="none"/>
  <path d="M143 222c5.439-.218 9.87-.104 15 2v4h-17v-4h2v-2z" fill="rgba(223, 222, 221, 1)" stroke="none"/>
  <path d="M224 204c-1.358 5.556-1.358 5.556-4.438 7.688L217 213c-2.409 2.065-2.963 2.89-4 6l-3-1v-4h-2l1-3c2.169.506 4 1 6 2l2-6-9-1v-1c1.916-.169 3.833-.335 5.75-.5l3.234-.281c2.334-.17 4.676-.219 7.016-.219z" fill="rgba(250, 249, 226, 1)" stroke="none"/>
  <path d="M188 174c3.375.25 3.375.25 7 1 1.25 2 1.25 2 2 4l3 1c-3.788 3.611-3.788 3.611-6 5-2.875-.188-2.875-.188-5-1-.778-3.406-1.1-6.508-1-10z" fill="rgba(96, 92, 88, 1)" stroke="none"/>
  <path d="M202 206l1 4c-4.122 1.999-7.436 2.498-12 2-2.438-1.875-2.438-1.875-4-4v-2c5.376-.849 9.654-1.002 15 0z" fill="rgba(5, 4, 6, 1)" stroke="none"/>
  <path d="M255 35c4 1 4 1 6 3v4c-2.735 2.051-5.544 3.777-9 4l-4-3 7-8z" fill="rgba(15, 14, 15, 1)" stroke="none"/>
  <path d="M137 194l5 1v2h5c1.43 2.354 2.087 3.48 1.625 6.25L148 205l-4-1v-3l-2.313.188C139 201 139 201 137.125 199.75 136 198 136 198 136.312 195.812L137 194z" fill="rgba(220, 220, 221, 1)" stroke="none"/>
  <path d="M225 99c-3.16 1.053-4.253.955-7.43.371l-2.643-.453-2.802-.48c-8.183-1.283-16.153-2.42-24.125.562a90.052 90.052 0 0 0-4 4h-2l-1-4c14.637-4.859 29.312-5.495 44 0z" fill="rgba(201, 201, 201, 1)" stroke="none"/>
  <path d="M253 36l2 1-6 6c2.842 1.573 2.842 1.573 6 2l1-2c-.349 3.255-1.021 4.019-3.563 6.25L250 51l-1-3c-3.083 1.199-6.063 2.477-9 4 1.662-4.124 4.623-7.066 7.625-10.25l1.563-1.68c1.266-1.36 2.539-2.716 3.812-4.07z" fill="rgba(85, 85, 85, 1)" stroke="none"/>
  <path d="M222 210c-.975 5.802-2.013 10.84-5 16-4.024-6.036-4.024-6.036-3.938-9.5 1.608-4.285 4.363-6.5 8.938-6.5zm-8 7l1 2z" fill="rgba(237, 237, 211, 1)" stroke="none"/>
  <path d="M80 151h8l1 3c2.504 1.219 2.504 1.219 5 2v3h-9v-4h-5v-4z" fill="rgba(221, 221, 221, 1)" stroke="none"/>
  <path d="M121 100l3 1c-1.31 3.927-2.79 6.356-6 9a57.242 57.242 0 0 1-4 1l.07 1.898.055 2.477.07 2.46C114 120 114 120 112 122c-1.361-2.722-.704-4.183-.063-7.125l.59-2.758L113 110l-4-1 3.75-1.125c4.528-1.662 6.015-3.684 8.25-7.875z" fill="rgba(10, 6, 6, 1)" stroke="none"/>
  <path d="M151 176l3 1a252.441 252.441 0 0 1 3 7l2 1v3h-5l-.813-1.938c-1.074-2.393-1.074-2.393-4.187-3.062-.125-2.375-.125-2.375 0-5l2-2z" fill="rgba(220, 220, 218, 1)" stroke="none"/>
  <path d="M134 178c1.46 2.647 2 3.894 2 7l-2 3-4-1v2l-4 2c-1-3-1-3-.145-4.719 2.448-3.273 4.632-6.07 8.145-8.281z" fill="rgba(6, 5, 6, 1)" stroke="none"/>
  <path d="M109 170h7l-1 5c-3.823 1.423-6.913 2.24-11 2l-1-5h6v-2z" fill="rgba(221, 221, 220, 1)" stroke="none"/>
  <path d="M73 214c2.615 2.615 3.368 4.35 4 8-2.313 3.188-2.313 3.188-5 6l-1 3c-2.063.688-2.063.688-4 1l-1 8h-1c-.816-6.255 1.228-9.768 4.492-15.059L71 223h2v-9z" fill="rgba(113, 114, 113, 1)" stroke="none"/>
  <path d="M203 211l-1.938.813c-2.393 1.074-2.393 1.074-3.062 4.187l4 1 1 4c-3.796 0-5.629-.502-9-2 .506-2.169 1-4 2-6h-6v-1a689.91 689.91 0 0 1 5.375-1.063l3.023-.597C201 210 201 210 203 211z" fill="rgba(218, 218, 215, 1)" stroke="none"/>
  <path d="M72 173l2 2c2.118 1.118 2.118 1.118 5 2l-.563 2.125c-.489 3.214-.1 5.71.563 8.875-3.624-1.432-4.936-3.027-6.75-6.438l-1.297-2.37C70 177 70 177 70 174l2-1z" fill="rgba(237, 238, 215, 1)" stroke="none"/>
  <path d="M257 130h1v6l7 1c.625 1.813.625 1.813 1 4l-2 3c-2.313-.125-2.313-.125-5-1-2.711-4.02-3.447-7.191-3-12l1-1z" fill="rgba(9, 9, 8, 1)" stroke="none"/>
  <path d="M111 190l3 1-1 4 6 2v6c-3.653-1.25-4.78-1.671-7-5-2.06-.724-2.06-.724-4-1-.188-2.375-.188-2.375 0-5l3-2z" fill="rgba(214, 215, 194, 1)" stroke="none"/>
  <path d="M178 160h1v13h-4v-3l-3-1v2l-4-1 2.188-1.625c2.18-1.84 3.79-3.446 5.562-5.625L178 160z" fill="rgba(239, 238, 219, 1)" stroke="none"/>
  <path d="M214.313 205.813l3.238.082L220 206l-3 2c-1.205 2.552-1.205 2.552-2 5l-12-4c3.928-2.777 6.531-3.345 11.313-3.188z" fill="rgba(244, 244, 239, 1)" stroke="none"/>
  <path d="M101 110v11l-5-1c-1.597-2.89-2-4.69-2-8 4.75-2 4.75-2 7-2z" fill="rgba(226, 169, 171, 1)" stroke="none"/>
  <path d="M72 234h1v5h2l-1 3.375c-1.089 3.32-1.089 3.32-1 5.625-3.335-1.38-5.186-2.85-7-6l1-3h2a158.623 158.623 0 0 0 3-5z" fill="rgba(40, 40, 40, 1)" stroke="none"/>
  <path d="M142 179l2 1c0 3 0 3-2.438 5.563L139 188l-1 2c-3 2-3 2-6 3l-3-2 2.336-1.863 3.039-2.45 3.023-2.425c2.737-2.178 2.737-2.178 4.602-5.262z" fill="rgba(234, 235, 214, 1)" stroke="none"/>
  <path d="M208 169h1c-.63 5.781-1.652 11.344-3 17h-1l-.813-2.938L203 180l-3-1c1.309-1.67 2.622-3.336 3.938-5l2.214-2.813L208 169z" fill="rgba(234, 233, 216, 1)" stroke="none"/>
  <path d="M242 213l3 1v2h2c.313 2.188.313 2.188 0 5-2.375 2.813-2.375 2.813-5 5h-2l1-3-1-1-1-3 3-1v-5z" fill="rgba(232, 231, 218, 1)" stroke="none"/>
  <path d="M249 209l12 1-1 4-6 1v-2h-5v-4z" fill="rgba(219, 220, 220, 1)" stroke="none"/>
  <path d="M259 197l6 1 1 7c-2.882.96-4.699 1.106-7.688 1.063l-2.449-.028L254 206v-1l4-1-1-4 2-1v-2z" fill="rgba(99, 97, 96, 1)" stroke="none"/>
  <path d="M81 101h3l.625 2.313c1.796 3.51 3.806 4.213 7.375 5.687v7l-.125-1.875L91 112l-2.75-.875c-4.39-1.52-5.674-3.3-8.25-7.125l1-3z" fill="rgba(20, 19, 19, 1)" stroke="none"/>
  <path d="M128 192c1.5 1 1.5 1 3 3 .43 5.249-.023 9.058-2 14h-1c-.336-2.104-.669-4.208-1-6.313l-.563-3.55C126 196 126 196 126 193l2-1z" fill="rgba(242, 241, 224, 1)" stroke="none"/>
  <path d="M244 193h3c1 3 1 3 1.438 6.063.298 3.048.298 3.048 2.562 4.937l-2 1c-5.547-2.15-5.547-2.15-7-4.875 0-2.735.841-4.671 2-7.125z" fill="rgba(243, 244, 216, 1)" stroke="none"/>
  <path d="M229 184v4l-2.438.813L224 190l-1 3-3-1c-.313-2.313-.313-2.313 0-5 3.272-2.636 4.72-3 9-3z" fill="rgba(221, 221, 220, 1)" stroke="none"/>
  <path d="M146 169h6c-1.059 3.403-2.009 6.014-4 9l-5 1 3-10z" fill="rgba(236, 236, 214, 1)" stroke="none"/>
  <path d="M108 149l4 1v3l4 2v4c-4 0-4 0-6.25-1.625-2.196-2.98-2.079-4.756-1.75-8.375z" fill="rgba(220, 220, 220, 1)" stroke="none"/>
  <path d="M55 130c5.75 1.75 5.75 1.75 8 4-2.068 2.797-3.144 3.027-6.688 3.688L53 138c.875-6.875.875-6.875 2-8z" fill="rgba(153, 153, 153, 1)" stroke="none"/>
  <path d="M230 178l1 4h3l1 2h7l1 4c-1.793-.06-3.584-.149-5.375-.25l-3.023-.14C232 187 232 187 230.656 185.124c-.762-2.468-.799-4.556-.656-7.125z" fill="rgba(250, 251, 231, 1)" stroke="none"/>
  <path d="M138 155l2 4-1.277 1.426-1.66 1.887-1.653 1.863c-1.61 1.876-1.61 1.876-2.41 4.824l-3.313.375c-3.76.38-3.76.38-6.687 2.625 1.108-3.214 1.985-3.991 5-5.75 3-1.25 3-1.25 5-1.25l.938-1.875L136 159h2l-1-3 1-1zm-17 17l2 1-2 1v-2z" fill="rgba(253, 253, 235, 1)" stroke="none"/>
  <path d="M120 220l2 4-4 6c-2.494-.998-3.787-1.686-5.313-3.938C112 224 112 224 113 221v2h6l1-3z" fill="rgba(69, 68, 70, 1)" stroke="none"/>
  <path d="M89 204c3.914 1.27 5.79 2.512 8 6l-1 2c-2.763-.523-5.326-1.109-8-2a99.984 99.984 0 0 1 0-5l1-1z" fill="rgba(219, 219, 220, 1)" stroke="none"/>
  <path d="M159 160h1l1.367 6.055c.538 2.152.538 2.152 2.633 3.945-3.694 1.231-6.206.644-10 0 0-3 0-3 1.375-4.438L157 164c1.176-2.1 1.176-2.1 2-4z" fill="rgba(236, 234, 219, 1)" stroke="none"/>
  <path d="M302 104l2 1c-.857 8.571-.857 8.571-3 12l-4-1v-8l4 2c1.298-2.224 1.298-2.224 1-6z" fill="rgba(241, 241, 236, 1)" stroke="none"/>
  <path d="M73 232l-.875 2.125c-1.146 2.93-2.151 5.884-3.125 8.875-1.563-1-1.563-1-3-3-.069-2.856.405-5.16 1-8 2.49-1.245 3.41-.777 6 0z" fill="rgba(5, 5, 7, 1)" stroke="none"/>
  <path d="M83 168c3.107.336 4.604.59 6.813 2.875C91 173 91 173 91 176h-5l-1-4h-2v-4z" fill="rgba(220, 220, 219, 1)" stroke="none"/>
  <path d="M101 185l5 1-2 5 2 2-3 3-2-1c-1.294-7.412-1.294-7.412 0-10z" fill="rgba(20, 20, 18, 1)" stroke="none"/>
  <path d="M215 193l3 1 1 4h-13l4-4c2.75.25 2.75.25 5 1v-2z" fill="rgba(242, 243, 228, 1)" stroke="none"/>
  <path d="M65 56c6.16-.44 11.047.011 16 4 1.726 2.54 2.939 5.124 4 8l-2 1-1.313-2.813c-2.13-4.024-3.216-5.709-7.605-7.136l-3.27-.739c-1.086-.25-2.173-.502-3.292-.761L65 57v-1z" fill="rgba(124, 122, 121, 1)" stroke="none"/>
  <path d="M249 115c7.954 4.352 7.954 4.352 10 7v2l-3 1-8-8 1-2z" fill="rgba(213, 213, 208, 1)" stroke="none"/>
  <path d="M111 112a402.219 402.219 0 0 1-.375 4.938c-.07.916-.14 1.833-.21 2.777-.138.754-.274 1.508-.415 2.285l-2 1v-9l-6-1v-2c3.2-1.6 5.723-.032 9 1z" fill="rgba(234, 179, 179, 1)" stroke="none"/>
  <path d="M65.625 67.875L68 68c.043 1.666.04 3.334 0 5-1 1-1 1-3.563 1.063L62 74c-.625-1.875-.625-1.875-1-4 2-2 2-2 4.625-2.125z" fill="rgba(226, 227, 227, 1)" stroke="none"/>
  <path d="M123 225h5c-.35 3.242-.562 4.615-3.063 6.813L123 233c-1.125-1.75-1.125-1.75-2-4 .875-2.25.875-2.25 2-4z" fill="rgba(9, 9, 7, 1)" stroke="none"/>
  <path d="M201 96v1l-2.703.297-3.547.453-3.516.422c-3.613.925-4.81 2.092-7.234 4.828h-2l-1-4c6.83-2.442 12.752-3.416 20-3z" fill="rgba(161, 161, 162, 1)" stroke="none"/>
  <path d="M242 68l2 3 3 2-2 2c-.707 1.65-1.38 3.316-2 5h-2a920.276 920.276 0 0 1-.063-5.438l-.035-3.058C241 69 241 69 242 68z" fill="rgba(239, 239, 233, 1)" stroke="none"/>
  <path d="M127 229v3l-2 2 9-1v4l-11-1c.96-3.837 1.236-4.597 4-7z" fill="rgba(228, 228, 208, 1)" stroke="none"/>
  <path d="M125 153l7 1 1 4h-8v-5z" fill="rgba(220, 220, 219, 1)" stroke="none"/>
  <path d="M106 108h7c-.141 1.938-.288 3.875-.438 5.813-.08 1.078-.162 2.157-.246 3.269C112 120 112 120 111 123l-2-1 2-10-5-1v-3z" fill="rgba(52, 34, 32, 1)" stroke="none"/>
  <path d="M16 78c4.869.596 9.328 1.57 14 3v2l-8 4 1-4h2v-2l-9-2v-1z" fill="rgba(145, 143, 144, 1)" stroke="none"/>
  <path d="M182 223l6 1-2 1c-.082 3.044.024 5.072 1 8l-5-2v-8z" fill="rgba(86, 85, 84, 1)" stroke="none"/>
  <path d="M242 63l1 2 3-1c2 5.75 2 5.75 2 8l-5-1-1-8z" fill="rgba(212, 212, 212, 1)" stroke="none"/>
  <path d="M190 213h6c-1.625 5.75-1.625 5.75-5 8-1-1-1-1-1.063-4.563L190 213z" fill="rgba(250, 250, 236, 1)" stroke="none"/>
  <path d="M121 100l3 1c-1.125 2.972-2.223 5.334-4 8l-5-1 1.875-2.313c2.181-2.683 2.181-2.683 4.125-5.687z" fill="rgba(25, 25, 25, 1)" stroke="none"/>
  <path d="M204 187l.813 1.813c1.172 2.16 2.38 3.545 4.187 5.187l-3 3-3-1c-.625-2.813-.625-2.813-1-6l2-3z" fill="rgba(240, 238, 224, 1)" stroke="none"/>
  <path d="M224 165h2l.75 2.375c1.137 3.081 1.137 3.081 5.25 4.625l-10 1 2-8z" fill="rgba(225, 223, 212, 1)" stroke="none"/>
  <path d="M250 140l3 1c.813 1.813.813 1.813 1 4-.938 2.25-.938 2.25-2 4l-3-1c-.042-2.333-.04-4.667 0-7l1-1z" fill="rgba(254, 253, 243, 1)" stroke="none"/>
  <path d="M112 97l-2 4h-2l1 7-3-1-1-6c4.75-4 4.75-4 7-4z" fill="rgba(149, 150, 152, 1)" stroke="none"/>
  <path d="M122 63l3 1-1 6h-4c-.125-2.375-.125-2.375 0-5l2-2z" fill="rgba(235, 235, 235, 1)" stroke="none"/>
  <path d="M127 54c6.493.845 10.785 1.561 15 7l1 2c-2.34-.403-3.677-.662-5.344-2.406-1.968-1.894-3.833-2.726-6.344-3.782l-2.449-1.042L127 55v-1z" fill="rgba(139, 139, 137, 1)" stroke="none"/>
  <path d="M266 241v3c-2.313 2.25-2.313 2.25-5 4l-3-1 1-3-2-1c2.892-.826 4.887-1 8-1l1-1z" fill="rgba(111, 111, 110, 1)" stroke="none"/>
  <path d="M209 211l4 1c.934 3.01 1.044 3.867 0 7l-3-1v-4h-2l1-3z" fill="rgba(220, 219, 219, 1)" stroke="none"/>
  <path d="M62 136l-1 5-2.75-.688c-3.245-.638-3.245-.638-5.625 1.125L51 143l1-5c1.29-.336 2.583-.669 3.875-1l2.18-.563C60 136 60 136 62 136z" fill="rgba(199, 199, 198, 1)" stroke="none"/>
  <path d="M261 129l4 2v3h2l1 8c-2.357-2.155-3.79-4.197-5.188-7.063l-1.042-2.097C261 131 261 131 261 129z" fill="rgba(239, 239, 239, 1)" stroke="none"/>
  <path d="M273 28l-1.68.77-2.195 1.043-2.18 1.019c-2.25 1.163-2.25 1.163-3.945 4.168-3.125.188-3.125.188-6 0 4.006-4.674 9.725-9.171 16-7z" fill="rgba(145, 145, 145, 1)" stroke="none"/>
  <path d="M129 227l2 1c.75 2.438.75 2.438 1 5-2 2-2 2-5.125 2.125L124 235l5-8z" fill="rgba(249, 248, 229, 1)" stroke="none"/>
  <path d="M87 223h3v2l1.875.438C94 226 94 226 96 227v2l-10-2 1-4z" fill="rgba(222, 222, 214, 1)" stroke="none"/>
  <path d="M81 202h2v8h-2l-1 2c-.977-6.055-.977-6.055-1-8l2-2z" fill="rgba(242, 242, 219, 1)" stroke="none"/>
  <path d="M116 80l2 3-2 1-2-1v2a56.54 56.54 0 0 1-7-4c3.262-1.087 5.584-1.29 9-1z" fill="rgba(145, 145, 145, 1)" stroke="none"/>
  <path d="M275 36l-4 7-4-5c2.86-2.86 4.137-3.288 8-2z" fill="rgba(217, 216, 216, 1)" stroke="none"/>
  <path d="M237 219c3.188.875 3.188.875 6 2v2l-5 2-4-4 3-2z" fill="rgba(252, 251, 233, 1)" stroke="none"/>
  <path d="M64 150h5v6l-5-1v-5z" fill="rgba(222, 222, 217, 1)" stroke="none"/>
  <path d="M214 225l2 3-3 3-5-2v-2l6-2z" fill="rgba(240, 238, 216, 1)" stroke="none"/>
  <path d="M257 221l3 1v3h-2v2h-4c.375-2.438.375-2.438 1-5l2-1z" fill="rgba(221, 220, 218, 1)" stroke="none"/>
  <path d="M239 190h4v8l-3-1-1-7z" fill="rgba(230, 228, 221, 1)" stroke="none"/>
  <path d="M205 186l2 3 6-2c-.75 2.438-.75 2.438-2 5-2 .938-2 .938-4 1-2-2-2-2-2.125-4.625L205 186z" fill="rgba(111, 108, 102, 1)" stroke="none"/>
  <path d="M158 236l1 3-2 3-6-1 2-1v-3l5-1z" fill="rgba(237, 236, 223, 1)" stroke="none"/>
  <path d="M73 214c2.463 2.463 2.998 4.707 4 8l-5 5c0-3 0-3 .5-5.938.607-3.203.607-3.203.5-7.062z" fill="rgba(122, 122, 125, 1)" stroke="none"/>
  <path d="M262 131l2 6-6-1v-4c2-1 2-1 4-1z" fill="rgba(22, 22, 23, 1)" stroke="none"/>
  <path d="M102 107l3 3-3 1 1 11-2-1c-.484-2.652-.484-2.652-.75-5.938l-.297-3.277C100 109 100 109 102 107z" fill="rgba(196, 140, 139, 1)" stroke="none"/>
  <path d="M76 179c2.125 3.188 2.502 5.265 3 9-2.993-1.098-3.846-1.677-5.25-4.625L73 181h2l1-2z" fill="rgba(198, 199, 188, 1)" stroke="none"/>
  <path d="M188 174h2l1 8 3 1v2l-5-1c-.778-3.406-1.1-6.508-1-10z" fill="rgba(120, 118, 106, 1)" stroke="none"/>
  <path d="M249 159l2 3-3 1-1 5-5 1c.978-1.48 1.957-2.96 2.938-4.438l1.652-2.496C248 160 248 160 249 159z" fill="rgba(108, 106, 94, 1)" stroke="none"/>
  <path d="M118 60l2 2 2-2v4l-1 1c-.04 2-.043 4 0 6h-2v-7l-3-1 2-3z" fill="rgba(41, 41, 40, 1)" stroke="none"/>
  <path d="M158 242h1v5l2 1-2 2c-2.125-.375-2.125-.375-4-1v-2h2l-1-3 2-2z" fill="rgba(4, 2, 3, 1)" stroke="none"/>
  <path d="M259.063 234.938L262 235v2l-7 4a99.984 99.984 0 0 1 0-5c1-1 1-1 4.063-1.063z" fill="rgba(85, 83, 81, 1)" stroke="none"/>
  <path d="M82 225l2 1-1 4-7 2c1.393-3.367 2.979-4.986 6-7z" fill="rgba(230, 232, 211, 1)" stroke="none"/>
  <path d="M234 219l3 1-2 2 1 2-4-1-2 4v-2l-2-1c4.395-4.004 4.395-4.004 6-5z" fill="rgba(220, 220, 209, 1)" stroke="none"/>
  <path d="M191.313 220.875L193 222l-1 2h-9c1-2 1-2 3.313-3.25 2.687-.75 2.687-.75 5 .125z" fill="rgba(213, 211, 199, 1)" stroke="none"/>
  <path d="M102 216h5v6c-1.938-.75-1.938-.75-4-2-.75-2.125-.75-2.125-1-4z" fill="rgba(217, 218, 215, 1)" stroke="none"/>
  <path d="M165 182c2.063.438 2.063.438 4 1v2h-2l-2 6h-1c-.098-6.152-.098-6.152 0-8l1-1z" fill="rgba(29, 30, 21, 1)" stroke="none"/>
  <path d="M79 176l4 1 2 7c-1.938-.313-1.938-.313-4-1l-1-3 1-2h-2v-2z" fill="rgba(24, 25, 22, 1)" stroke="none"/>
  <path d="M180 84l2 1c1.3 5.413.772 8.891-1 14l-3-2v-2h2V84z" fill="rgba(204, 204, 204, 1)" stroke="none"/>
  <path d="M166 95c1.938.375 1.938.375 4 1l1 2h-2v2l-3 1v-2h-2l2-4z" fill="rgba(84, 83, 81, 1)" stroke="none"/>
  <path d="M262 234l-2 2-3.125-.938c-3.265-.937-6.511-1.57-9.875-2.062v-1c5.713-1.611 9.687-.09 15 2z" fill="rgba(224, 224, 205, 1)" stroke="none"/>
  <path d="M246 198l5 5-2 2-6-3 1-3 1 1 1-2z" fill="rgba(246, 246, 229, 1)" stroke="none"/>
  <path d="M248 149h5l1 5-4-2-1 2h-2l1-5z" fill="rgba(234, 233, 212, 1)" stroke="none"/>
  <path d="M84 69c2.925 3.9 3.475 5.383 4 10l-3 1-1-11z" fill="rgba(159, 157, 158, 1)" stroke="none"/>
  <path d="M77 196l1.898.254 2.477.309 2.46.316c2.214.303 2.214.303 4.165-.879l-1 3-3.375.313L80 200l-2 3-1-7z" fill="rgba(198, 197, 190, 1)" stroke="none"/>
  <path d="M212 220l-1 3c-6.055.977-6.055.977-8 1l-2-2c1.455-.53 2.914-1.049 4.375-1.563l2.46-.878C210 219 210 219 212 220z" fill="rgba(254, 253, 237, 1)" stroke="none"/>
  <path d="M224 204c-1 2-1 2-4 4v-2h-12v-1c1.916-.169 3.833-.335 5.75-.5l3.234-.281c2.334-.17 4.676-.219 7.016-.219z" fill="rgba(166, 166, 160, 1)" stroke="none"/>
  <path d="M183 192l7 1v2l-6 1-1-4z" fill="rgba(220, 218, 215, 1)" stroke="none"/>
  <path d="M130 187l3 1c-4.625 4.875-4.625 4.875-8 6l1-4 4-1v-2z" fill="rgba(29, 28, 26, 1)" stroke="none"/>
  <path d="M260 144c1.777 2.666 2.875 5.028 4 8l-6-1 2-7z" fill="rgba(81, 81, 78, 1)" stroke="none"/>
  <path d="M112 124l2 1c-1.454 3.755-1.454 3.755-3.813 4.813-2.575.22-4.69-.189-7.187-.813v-1l3.375-.875c3.628-.817 3.628-.817 5.625-3.125z" fill="rgba(148, 150, 150, 1)" stroke="none"/>
  <path d="M97 115h3l1 6-5-1 1-5z" fill="rgba(245, 178, 176, 1)" stroke="none"/>
  <path d="M52 67h5l-1 5-4-2v-3z" fill="rgba(12, 10, 10, 1)" stroke="none"/>
  <path d="M139 167l2 2c-.337 3.37-1.888 5.43-4 8l-2-1 4-9z" fill="rgba(39, 39, 35, 1)" stroke="none"/>
  <path d="M299 152l4 2c.188 2.375.188 2.375 0 5l-3 2c-1.073-3.22-.8-3.902 0-7l-1-2z" fill="rgba(156, 156, 156, 1)" stroke="none"/>
  <path d="M119 197v6l-4-2v-3c2-1 2-1 4-1z" fill="rgba(241, 241, 228, 1)" stroke="none"/>
  <path d="M110 194l7 3-2 1-1 3-5-6 1-1z" fill="rgba(223, 223, 215, 1)" stroke="none"/>
  <path d="M130 181l2 4-5 3c0-3.517.824-4.371 3-7z" fill="rgba(13, 10, 11, 1)" stroke="none"/>
  <path d="M160 158h1v6h2l1 4h-3a543.754 543.754 0 0 1-1.063-4.438l-.597-2.496L159 159l1-1z" fill="rgba(129, 125, 112, 1)" stroke="none"/>
  <path d="M157 163l-2 4h-6c3.5-4 3.5-4 8-4z" fill="rgba(6, 5, 4, 1)" stroke="none"/>
  <path d="M248 128c1.938.813 1.938.813 4 2l1 3h-5v-5z" fill="rgba(226, 226, 211, 1)" stroke="none"/>
  <path d="M81 101h3l1 5-3 1-2-5 1-1z" fill="rgba(28, 29, 29, 1)" stroke="none"/>
  <path d="M298 64l4 5c-1 2-1 2-3 3v-3h-2l1-5z" fill="rgba(218, 219, 212, 1)" stroke="none"/>
  <path d="M174 228l1 4 5 1-2 1-1 3c-2.097-2.36-2.97-3.546-3.188-6.75L174 228z" fill="rgba(95, 95, 95, 1)" stroke="none"/>
  <path d="M158 229l2 1v6h-3c-.043-2-.04-4 0-6l1-1z" fill="rgba(246, 247, 229, 1)" stroke="none"/>
  <path d="M171 180l2 2c-.375 3.625-.375 3.625-1 7h-1l-.813-2.875c-.937-3.378-.937-3.378-4.187-5.125 2.375-.625 2.375-.625 5-1z" fill="rgba(210, 210, 197, 1)" stroke="none"/>
  <path d="M240 164l1 3-2 3-4-1 5-5z" fill="rgba(248, 249, 219, 1)" stroke="none"/>
  <path d="M82 238l2 3-1 1 2 2-6-1 3-5z" fill="rgba(79, 75, 76, 1)" stroke="none"/>
  <path d="M221 236v2a100.644 100.644 0 0 1-6 3l-2-1 1-3c4.75-1 4.75-1 7-1z" fill="rgba(141, 141, 141, 1)" stroke="none"/>
  <path d="M223 231c1.6 3.2.032 5.723-1 9l-.375-1.938L221 236l-2-1 4-4z" fill="rgba(34, 34, 35, 1)" stroke="none"/>
  <path d="M190 193l2 2-1 2c-3.063.625-3.063.625-6 1l-1-2 6-1v-2z" fill="rgba(246, 245, 226, 1)" stroke="none"/>
  <path d="M135 188v5l-6-1c2.052-2.248 3.007-3.002 6-4z" fill="rgba(239, 240, 224, 1)" stroke="none"/>
  <path d="M124 183l1 3c-2.375 1.563-2.375 1.563-5 3l-2-1c2.007-3.01 2.839-3.63 6-5z" fill="rgba(221, 221, 203, 1)" stroke="none"/>
  <path d="M53 166l1 2 3 1-2 1 2 6c-2.797-2.068-3.027-3.144-3.688-6.688L53 166z" fill="rgba(111, 110, 113, 1)" stroke="none"/>
  <path d="M111 121l2 1-2 4h-3v-3h3v-2z" fill="rgba(34, 25, 22, 1)" stroke="none"/>
  <path d="M298 60c2.5 1.375 2.5 1.375 5 3v2l-4 1-1-6z" fill="rgba(15, 16, 12, 1)" stroke="none"/>
</svg>
</g></svg></g></g>
<!-- /image 85935 -->
</defs><rect x="0" y="0" width="250" height="250" fill="rgba(93, 89, 87, 1)"></rect><use xlink:href="#transformed-85935" transform="translate(-250, -250)"></use><use xlink:href="#transformed-85935" transform="translate(0, -250)"></use><use xlink:href="#transformed-85935" transform="translate(250, -250)"></use><use xlink:href="#transformed-85935" transform="translate(-250, 0)"></use><use xlink:href="#transformed-85935" transform="translate(0, 0)"></use><use xlink:href="#transformed-85935" transform="translate(250, 0)"></use><use xlink:href="#transformed-85935" transform="translate(-250, 250)"></use><use xlink:href="#transformed-85935" transform="translate(0, 250)"></use><use xlink:href="#transformed-85935" transform="translate(250, 250)"></use></svg>