<svg version="1.1"
      xmlns="http://www.w3.org/2000/svg"
      xmlns:xlink="http://www.w3.org/1999/xlink"  id="snapshot-18019" width="250" height="250" viewBox="0 0 250 250"><desc>This image was made on Patterninja.com</desc><defs>
<!-- image 89261 -->
<g id="transformed-89261" data-image="89261" transform="translate(-125, -125) rotate(0, 125, 125)"><g><svg version="1.1" width="250px" height="250px" viewBox="0 0 250 250"><g id="original-89261"><svg xmlns="http://www.w3.org/2000/svg" viewBox="0 0 500 500" xmlns:xlink="http://www.w3.org/1999/xlink" version="1.1" preserveAspectRatio="xMidYMid meet">
  <path d="M350 8c6.113 6.698 8.332 13.91 8.16 22.89l-.016 2.257c-.017 2.368-.048 4.735-.081 7.103-.11 9.318-.195 18.485.937 27.75.474 4.817.918 9.637 1.357 14.457.136 1.478.275 2.956.416 4.434 1.28 13.404 2.272 26.712-.21 40.046a884.68 884.68 0 0 0-1.18 6.88 92.464 92.464 0 0 1-.877 4.373c-.522 2.353-.522 2.353-.506 5.81 2.013 2.597 2.013 2.597 4.938 4.375A162.473 162.473 0 0 1 368 152v2l5 2c.625 3.375.625 3.375 1 7-2 2-2 2-4.383 2.195l-2.742-.07-2.758-.055L362 165l1.313 1.574 1.687 2.113 1.688 2.075c1.57 2.68 1.755 4.18 1.312 7.238-2.5 2.313-2.5 2.313-5 4 1.131 2.546 2.247 4.276 4.125 6.375C369 191 369 191 369.563 193.75c-.69 3.989-2.36 6.648-4.567 10.004-1.285 2.899-1.078 4.292.004 7.246 1.561 1.472 1.561 1.472 3.5 2.5 2.534 1.666 3.377 2.236 4.688 5.063-.188 2.437-.188 2.437-2 4.75C369 225 369 225 367 225c1.667 2.983 3.459 5.61 5.688 8.188C375 236 375 236 375 238l2.375.188L380 239c1.25 2.5 1.25 2.5 2 5l1 1c.04 2.333.042 4.667 0 7-2.906 1.257-4.796 2-8 2l1.563 2.688 1.082 1.917a426.083 426.083 0 0 0 3.18 5.508l1.925 3.387 1.86 3.219c1.557 3.674 1.65 6.33 1.39 10.281-4.804 2.402-9.731 2.611-15 3 6.095 7.942 11.911 11.293 21.523 14.203C395 299 395 299 396 300c.698 6.397-.724 10.202-3.809 15.8-1.31 2.268-1.31 2.268-2.191 5.2h2c3.49 4.69 4.18 7.453 3.813 13.313-.238 6.478 1.465 9.393 5.433 14.355 4.138 5.502 6.059 13.462 5.754 20.332-1.952 1.952-3.532 2.848-6 4l1.688 2.375c7.077 10.603 10.9 21.878 12.085 34.496.208 1.952.555 3.887.914 5.817.35 3.696-.429 5.866-1.687 9.312l-2.14.06c-3.203.095-6.407.205-9.61.315l-3.367.094-3.242.117-2.984.095c-2.693.323-4.292 1.063-6.657 2.319h-3v2h-8v-2h-12v2h-15v-2l-3.98.07c-1.736.02-3.472.037-5.207.055l-2.62.05-2.548.02-2.333.032C329 428 329 428 326.792 427.002c-3.404-1.222-6.165-1.254-9.782-1.256l-2.096-.01c-2.31-.007-4.621-.001-6.932.005a3933.575 3933.575 0 0 0-18.483-.01c-4.71.005-9.422 0-14.132-.002-7.91-.004-15.82 0-23.73.01-9.146.011-18.293.008-27.44-.003-7.853-.01-15.705-.01-23.557-.006-4.69.004-9.381.004-14.072-.003-4.408-.005-8.817-.001-13.225.01-1.62.003-3.238.002-4.857-.002-2.208-.006-4.415.001-6.623.011l-3.745.002c-3.035.245-4.504.84-7.118 2.252h-4v2h-7v-2h-8v2h-15v-2c-.63.01-1.26.02-1.908.032-2.885.042-5.77.067-8.655.093-.99.017-1.98.034-3.001.05-4.163.028-7.734.03-11.749-1.144-5.941-1.661-11.983-1.507-18.125-1.656l-3.95-.117c-3.204-.094-6.408-.18-9.612-.258 3.75-2 3.75-2 6-2l-.727-1.723c-2.162-5.633-2.401-8.473-.273-14.277.405-1.998.8-3.998 1.187-6 1.208-5.323 2.956-10.075 5.25-15l.874-1.887c4.327-8.932 4.327-8.932 8.689-11.113-1.164-2.62-2.249-4.263-4.25-6.375C75 364 75 364 75.25 361.125c2.053-3.666 4.443-5.629 7.652-8.273C88.218 348.159 91.533 342.578 94 336l-1.977.656C82.788 339.6 82.788 339.6 78 339c-2-2-2-2-2.248-3.828.076-5.701.724-11.13 1.748-16.735l.434-2.478c.348-1.988.706-3.973 1.066-5.959l-3.25 1.188C72 312 72 312 69.566 310.901 68 309 68 309 67.652 306.942c.743-6.194 2.523-11.403 5.094-17.083 1.276-2.908 2.292-5.834 3.254-8.859l-3.438-.438C69 280 69 280 68 279c-.487-3.412-.675-5.947 1.234-8.926a1034.88 1034.88 0 0 1 3.227-3.965c3.276-4.49 4.71-9.158 4.226-14.671L76 249l-2.063.938c-3.35 1.211-6.386 1.794-9.937 2.062-2-2-2-2-2.23-3.918.09-4.784.427-9.363 1.23-14.082l-3.375-.625C56 232 56 232 54.562 228.875L54 226l-2.75 2c-5.041 2.89-10.605 2.854-16.25 2-11.716-5.934-15.788-19.925-19.781-31.547-2.162-6.126-4.743-12.088-7.352-18.035-5.085-11.96-7.815-27.097-2.836-39.523 3.2-6.26 7.494-9.619 13.969-11.895 2.14-.484 4.287-.94 6.437-1.375C31.8 126.26 35.907 123.922 41 120l2.085-1.565c6.278-4.773 11.896-10.047 17.52-15.562 9.725-9.356 17.879-14.267 31.52-14.186l2.835.011c7.056.11 13.328 1.075 20.04 3.302l2.66.727c4.875 1.338 9.11 3 13.453 5.601 2.702.962 4.157.535 6.887-.328 2.157-1.193 4.28-2.45 6.375-3.75 7.26-4.342 14.543-6.81 22.625-9.25 1.585-.578 3.169-1.16 4.75-1.75 4.15-1.397 8.211-1.706 12.562-2.008 3.178-.286 6.164-.934 9.26-1.677 8.6-2.003 16.722-2.86 25.553-2.752l3.09.001c6.003.035 11.832.412 17.785 1.186l.944-1.75c3.402-6.274 7.17-12.267 11.056-18.25l1.805-2.875C264.069 39.111 277.204 24.642 293 14l2.086-1.43C310.74 2.283 333.68-4.47 350 8z" fill="rgba(61, 61, 61, 1)" stroke="none"/>
  <path d="M210 87c5.75 14.114 6.288 28.388 4 43.375-3.416 22.792-1.673 49.024 12.375 68.125l2.023 2.469C230 203 230 203 231 206c1.816 1.07 1.816 1.07 4 2 1.547.95 3.088 1.909 4.625 2.875 3.392 2.064 6.647 3.704 10.375 5.063 9.793 3.739 16.888 10.577 24 18.062l2.125 1.965c2.057 2.232 2.95 4.076 4 6.91l.992 2.64c1 2.817 1.983 5.635 2.883 8.485l-2 2a174.665 174.665 0 0 0-2.375 7.563c-4.198 13.844-9.747 25.618-22.488 33.605-5.667 2.207-12.608 1.712-18.258-.254a116.208 116.208 0 0 1-5.441-2.723c-2.498-1.22-4.702-1.766-7.438-2.191v2h-2l-.797 1.809c-2.863 5.215-8.7 9.249-14.203 11.191-8.179 1.639-15.29-1.386-22.15-5.685-7.517-5.344-14.157-12.604-19.35-20.19-1.17-1.815-1.17-1.815-2.5-3.125-3.257-.672-3.257-.672-6 0v8l1.75.063c2.96 1.233 3.43 3.02 4.86 5.765 3.596 5.618 8.932 10.707 14.64 14.11 5.54 4.154 8.473 11.63 10.75 18.062v3h-8c1.208 8.306 5.437 13.338 11.918 18.54 12.671 8.516 29.09 10.759 43.924 7.915 16.7-4.02 31.102-10.018 40.787-25.045 3.58-6.294 4.759-11.172 4.371-18.41l-7-1-.297 1.906c-1.787 10.23-5.358 17.558-13.703 24.094-2.25.723-2.25.723-4 1v2c-18.532 8.342-18.532 8.342-26 6l1.574-1.25c5.747-4.76 10.04-9.592 12.426-16.75 3.257-1.777 6.548-3.328 9.922-4.863 4.53-2.14 7.69-4.335 11.078-8.137l2.563-2.625c4.348-5.333 6.193-12.302 7.187-19 1.368-7.953 5.68-15.22 9.25-22.375 3.944 1.49 5.274 3.612 7.375 7.188 6.696 10.85 14.624 18.72 26.813 23.312 7.312 2.82 11.842 7.175 15.812 13.875 1 2.625 1 2.625 1 4.625h2l.375-2.188c.615-2.77 1.51-5.209 2.625-7.812 8.315.157 15.146 4.146 21 10v-14c5 1 5 1 8 2 2.059.223 4.122.407 6.188.563l3.292.253L384 307c-1.076 2.775-2.18 5.327-3.625 7.938-1.483 3.303-1.63 5.486-1.375 9.062l1.938.75C383 326 383 326 383.75 328.125L384 330l-3.438.438c-3.37.174-3.37.174-4.562 1.562-.47 2.378-.47 2.378 0 5 1.977 2.106 1.977 2.106 4.625 3.875 6.427 4.836 11.225 9.601 14.375 17.125v2l-3.438.813L388 362l-1 3c-7.593-.886-7.593-.886-9.808-1.507-11.708-2.632-26.946-1.644-38.192 2.507l-3.625 1.125c-11.164 6.202-18.543 16.09-22.063 28.25-.895 7.518-.002 13.019 1.688 20.625H165l1-5c.944-13.408-1.267-24.404-10-35l-3-2v-2c-18.494-9.36-37.715-13.636-58-7l-2.18.723L91 366l-2-2c0-4.24 2.033-5.033 5-8 1.376-2.103 2.646-4.24 3.887-6.426L99 348h2l1-6h2l.375-3.438c.567-4.595 1.552-9.061 2.625-13.562-5.42-1.269-8.722-.737-13.887 1.309C91 327 91 327 87 327c-.261-5.312.01-9.524 1.563-14.625 1.396-4.64 1.583-7.688.437-12.375l-8-1c1.16-4.927 2.546-9.69 4.125-14.5 1.603-5.1 2.292-9.185 1.875-14.5l-3-1c1.082-7.141 3.634-12.17 9-17l1.875-1.375c1.504-1.804 1.504-1.804.813-5.313L95 242c-3.375 1.186-5.647 2.276-8 5-1.554-1.978-2.89-3.739-3.875-6.063-1.565-2.694-3.34-3.611-6.125-4.937h-4c-.108-4.442.298-8.614 1-13-3.058-.544-5.888-1-9-1-.77-7.695-.77-7.695 1.078-10.828 1.26-1.434 2.589-2.806 3.922-4.172l1-3h2l.375-1.75c.83-2.99 2.237-5.52 3.688-8.25.932-1.99 1.478-3.857 1.937-6h2l.332-2.527c.959-6.806 2.157-13.077 4.668-19.473.36-.958.722-1.916 1.094-2.902 2.287-5.814 4.847-10.972 8.476-16.063 1.501-2.056 1.501-2.056 2.785-4.512 1.935-2.967 4.058-4.765 6.832-6.96l2.938-2.336c3.595-2.785 7.204-5.544 10.875-8.227l2 1-1.32 1.95c-9.607 14.575-13.782 27.266-13.906 44.729-.104 14.474-1.818 28.515-8.426 41.59-1.334 2.703-1.81 4.628-2.035 7.606l-.2 2.367L95 226l7-1 1.188-3.625c.95-2.88 1.945-5.726 3.019-8.563 5.658-15.042 7.184-28.576 7.327-44.558.112-6.846.58-12.032 3.466-18.254l1.352-3.336 1.273-3.039c.425-1.018.85-2.037 1.29-3.086A83.99 83.99 0 0 1 123 136h2l.813-1.75C127 132 127 132 128.686 130.062c1.607-2.046 1.607-2.046 1-4.812L129 123c-3.629-.151-3.629-.151-7 1l-2-6-9 1v2c-3.462 3-3.462 3-6 3v2l-2.938 1.938c-10.93 7.58-20.004 22.228-23.285 35.093-1.118 4.27-2.493 8.454-3.84 12.656C73.21 181.105 71.532 186.524 70 192h-2l-.25 1.563C64.232 204.994 53.712 214.524 44 221c-3.313.625-3.313.625-7 0-6.664-5.145-9.267-15.388-12.194-22.969-.787-1.982-1.634-3.927-2.501-5.875-1.258-3.042-1.6-4.917-1.305-8.156h-2a302.27 302.27 0 0 1-3-8l-1.09-2.969C11.552 163.184 10.25 153.914 14 144l1-2h2v-2l3.367-.918c7.597-2.122 14.8-4.24 21.75-8.066C44 130 44 130 47 129v-2l4-1v-2c1.7-1.233 3.404-2.461 5.137-3.648C58.7 118.492 60.79 116.264 63 114c1.16-.988 2.327-1.966 3.5-2.938 2.374-1.986 3.997-3.7 5.938-6.187 4.145-4.65 8.91-6.993 15.156-7.441 1.635-.028 3.27-.026 4.906.004l2.643.03c12.86.414 23.645 4.946 34.673 11.274 4.796 1.895 8.421.846 13.184-.742v-2c14.184-8.417 29.29-13.523 45.557-15.961 3.638-.547 7.175-1.186 10.736-2.117 3.842-.956 6.788-1.085 10.707-.922z" fill="rgba(61, 61, 61, 1)" stroke="none"/>
  <path d="M341.563 18.813c4.28 3.84 4.28 3.84 4.67 7.186l-.022 2.31-.01 2.634-.04 2.85-.017 2.966c-.017 3.143-.049 6.286-.081 9.428-.107 11.85-.195 23.602.677 35.424.682 10.271.647 20.6.822 30.889l.131 7.152c.106 5.783.208 11.565.307 17.348 2.076-6.756 3.455-12.91 3.398-19.98l.012-2.447c.006-2.587-.013-5.173-.035-7.76l-.008-2.698c-.04-11.345-.567-22.372-2.286-33.601-1.16-7.905-1.42-15.716-1.456-23.701l-.041-3.642.018-3.401.01-3.013c.45-3.193 1.572-5.123 3.388-7.757l6 2 .076 2.32c.117 3.518.24 7.037.361 10.555l.12 3.648c.21 5.929.497 11.81 1.142 17.706.623 5.736 1.134 11.483 1.658 17.228.136 1.478.275 2.956.416 4.434 1.28 13.404 2.272 26.712-.21 40.046a884.68 884.68 0 0 0-1.18 6.88 92.464 92.464 0 0 1-.877 4.373c-.522 2.353-.522 2.353-.506 5.81 2.013 2.597 2.013 2.597 4.938 4.375A162.473 162.473 0 0 1 368 152v2l5 2c.625 3.375.625 3.375 1 7-2 2-2 2-4.383 2.195l-2.742-.07-2.758-.055L362 165l1.313 1.574 1.687 2.113 1.688 2.075c1.57 2.68 1.755 4.18 1.312 7.238-2.5 2.312-2.5 2.312-5 4 1.131 2.546 2.247 4.276 4.125 6.375C369 191 369 191 369.563 193.75c-.69 3.989-2.36 6.648-4.567 10.004-1.285 2.899-1.078 4.292.004 7.246 1.561 1.472 1.561 1.472 3.5 2.5 2.534 1.666 3.377 2.236 4.688 5.062-.188 2.438-.188 2.438-2 4.75C369 225 369 225 367 225c1.667 2.983 3.459 5.61 5.688 8.187C375 236 375 236 375 238l2.375.187L380 239c1.25 2.5 1.25 2.5 2 5l1 1c.04 2.333.042 4.667 0 7-2.906 1.257-4.796 2-8 2l1.563 2.687 1.082 1.918a426.083 426.083 0 0 0 3.18 5.508l1.925 3.387 1.86 3.219c1.557 3.674 1.65 6.33 1.39 10.281-4.804 2.402-9.731 2.611-15 3 6.095 7.942 11.911 11.293 21.523 14.203C395 299 395 299 396 300c.698 6.397-.724 10.202-3.809 15.8-1.31 2.268-1.31 2.268-2.191 5.2h2c3.49 4.69 4.18 7.453 3.813 13.313-.238 6.478 1.465 9.393 5.433 14.355 4.138 5.502 6.059 13.462 5.754 20.332-1.952 1.952-3.532 2.848-6 4l1.688 2.375c7.077 10.603 10.9 21.878 12.085 34.496.208 1.952.555 3.887.914 5.817.35 3.696-.429 5.866-1.687 9.312l-2.14.06c-3.203.095-6.407.205-9.61.315l-3.367.094-3.242.117-2.984.095c-2.693.323-4.292 1.063-6.657 2.319h-3v2h-8v-2h-12v2h-15v-2l-3.98.07c-1.736.02-3.472.037-5.207.055l-2.62.05-2.548.02-2.333.032C329 428 329 428 326.792 427.002c-3.404-1.222-6.165-1.254-9.782-1.256l-2.096-.01c-2.31-.007-4.621-.001-6.932.005a3933.575 3933.575 0 0 0-18.483-.01c-4.71.005-9.422 0-14.132-.002-7.91-.004-15.82 0-23.73.01-9.146.011-18.293.008-27.44-.003-7.853-.01-15.705-.01-23.557-.006-4.69.004-9.381.004-14.072-.003-4.408-.005-8.817-.001-13.225.01-1.62.003-3.238.002-4.857-.002-2.208-.006-4.415.001-6.623.011l-3.745.002c-3.035.245-4.504.84-7.118 2.252h-4v2h-7v-2h-8v2h-15v-2c-.63.01-1.26.02-1.908.032-2.885.042-5.77.067-8.655.093-.99.017-1.98.034-3.001.05-4.163.028-7.734.03-11.749-1.144-5.941-1.661-11.983-1.507-18.125-1.656l-3.95-.117c-3.204-.094-6.408-.18-9.612-.258 3.75-2 3.75-2 6-2l-.727-1.723c-2.162-5.633-2.401-8.473-.273-14.277.405-1.998.8-3.998 1.187-6 1.208-5.323 2.956-10.075 5.25-15l.874-1.887c4.327-8.932 4.327-8.932 8.689-11.113-1.164-2.62-2.249-4.263-4.25-6.375C75 364 75 364 75.25 361.125c2.053-3.666 4.443-5.629 7.652-8.273C88.218 348.159 91.533 342.578 94 336l-1.977.656C82.788 339.6 82.788 339.6 78 339c-2-2-2-2-2.248-3.828.076-5.701.724-11.13 1.748-16.735l.434-2.478c.348-1.988.706-3.973 1.066-5.959l-3.25 1.188C72 312 72 312 69.566 310.901 68 309 68 309 67.652 306.942c.743-6.194 2.523-11.403 5.094-17.083 1.276-2.908 2.292-5.834 3.254-8.859l-3.438-.438C69 280 69 280 68 279c-.487-3.412-.675-5.947 1.234-8.926a1034.88 1034.88 0 0 1 3.227-3.965c3.276-4.49 4.71-9.158 4.226-14.671L76 249l-2.063.938c-3.35 1.211-6.386 1.794-9.937 2.062-2-2-2-2-2.23-3.918.09-4.784.427-9.363 1.23-14.082l-3.375-.625C56 232 56 232 54.562 228.875L54 226l-3 2c-4.15 2.41-7.273 2.332-12 2-1-3-1-3 .148-5.484 1.969-2.675 3.68-4.008 6.477-5.766C55.722 211.97 63.585 203.385 68 192h2l.25-2.688c.866-5.957 2.905-11.601 4.75-17.312l1.352-4.422C81.06 152.427 88.942 134.851 103 126h2v-2c3.462-3 3.462-3 6-3v-2c2.728-1.325 4.633-2.009 7.687-1.938 2.313.938 2.313.938 3.625 3.5L123 123l1-1c2.437-.25 2.437-.25 5 0 2 3 2 3 1.777 4.953-.835 2.2-1.84 3.889-3.215 5.797l-1.308 1.86L125 136h-2l-.84 2.617c-1.47 4.29-3.253 8.413-5.039 12.578-1.774 4.438-2.247 8.08-2.297 12.871-.318 18.17-1.17 35.185-8.824 51.934a702.767 702.767 0 0 0-2.25 5.625L102 226h-7c-.308-4.845-.482-8.546 1.687-12.938 6.26-13.078 7.883-25.849 8.036-40.231.128-10.954.693-21.41 6.09-31.143l1.072-2.038c2.495-4.686 5.17-9.232 8.115-13.65-4.686 2.667-8.659 5.916-12.793 9.355C105 137 105 137 103 137l-1 3-3 2c-1.468 2.307-2.74 4.577-4 7l-1.707 3.258C87.303 163.849 84.051 175.378 81 188h-2l-.188 2.938C78.144 195.881 75.574 199.81 73 204h-2l-.25 1.688C70 208 70 208 68 210.188c-2.71 3.81-2.8 7.232-3 11.812l3.312-.625C72 221 72 221 75 223a438.124 438.124 0 0 1-2 13l1.625-.75C77 235 77 235 80 236.5c3.538 2.948 4.958 5.416 7 9.5h2l2-4h4c2 3 2 3 2 5.25-1.431 3.936-3.926 6.92-7 9.75h-2l-.313 2.063c-.834 3.566-2.182 6.6-3.687 9.937l4 1c.463 7.004-1.155 12.436-3.5 19l-1.012 2.926A818.184 818.184 0 0 1 81 299l6.055-.293L89 299c2.613 3.92 1.853 6.61 1 11-.482 1.975-1 3.938-1.523 5.902-.83 3.655-1.149 7.37-1.477 11.098l2.668-.91 3.52-1.152 3.48-1.16c4.082-.953 6.62-.634 10.332 1.222-.515 5.853-1.454 11.33-3 17h-2l-1 6h-2l-.625 2c-1.866 4.072-4.35 7.688-7.375 11h-2l2 4a78.232 78.232 0 0 0 6.305-1.754c16.054-5.05 33.646-2.602 48.77 4.219 2.56 1.343 4.77 2.611 6.925 4.535v2l1.812.754c6.069 3.457 9.346 11.78 11.5 18.137 1.729 7.816 1.661 15.676-1.312 23.109h150l-3-9c-.861-10.19 2.1-19.647 8-28 4.709-5.487 9.474-9.863 16-13l2.312-1.125c8.1-2.637 16.09-3.23 24.563-3.188l3.186.004c7.366.092 13.975.743 20.939 3.309l.437-1.938C388 361 388 361 389 360c2-.04 4-.043 6 0-4.037-9.252-9.94-16.162-18.531-21.516C375 337 375 337 374.656 334.454 375 332 375 332 377 330c3.625-.125 3.625-.125 7 0-.113-1.959-.113-1.959-1-4-2.49-1.297-2.49-1.297-5-2-.438-5.206.765-7.98 3.5-12.375l1.969-3.21L385 306h-10v-5l-2.207-.762c-3.012-1.335-5.023-2.868-7.48-5.05l-2.325-2.02c-2.108-2.3-3.027-4.223-3.988-7.168h-2c-1.498-3.371-2-5.204-2-9 6.317-3.446 11.904-3.315 19-3v-4h-2l-.813-2.438L370 265l-3-1c-1.048-1.715-2.094-3.435-3.035-5.21-1.062-2.037-1.062-2.037-2.965-4.79-.25-3.063-.25-3.063 0-6 2-2 2-2 5.125-2.125L369 246v-3l-1.938-.813C365 241 365 241 364 238h-2c-4-5.412-4-5.412-4-8h-2c-4.892-5.009-4.892-5.009-5.313-8.875L351 219l2-1c.434-1.854.434-1.854.562-4.063l.235-2.468c.125-1.52.241-3.041.344-4.563.468-5.365 2.232-9.312 4.859-13.906l-1.734-.805c-2.374-1.252-4.388-2.689-6.516-4.32l-2.14-1.633L347 185c.48-4.316 1.702-6.202 5-9l2-1-1-6h-2c-2.396-2.05-4.352-4.31-6-7 .125-3.438.125-3.438 1-6l9-1-2-1v-2c-2.652-1.075-5.284-2.095-8-3l-1.125 2.813c-2.333 3.966-3.49 4.802-7.875 6.187-7.357 1.037-13.241.546-19.285-4-3.014-3.515-3.439-7.492-3.715-12h-2l-1.313-3.125L308 135l-1.188-2.813c-2.303-4.05-5.174-7.455-8.167-11.015C297 119 297 119 297 117l-1.754-.848c-2.875-1.475-5.555-3.187-8.273-4.93-2.102-1.344-2.102-1.344-4.973-2.722l-2-1.5c-.313-2.688-.313-2.688 0-5h2v-2c1.531-1.29 1.531-1.29 3.5-2.625l1.969-1.352L289 95l-2.773-.148-3.602-.227c-1.183-.07-2.367-.14-3.586-.21C276 94 276 94 274 92c-.853-5.12.854-8.068 3.637-12.168 4.002-5.378 4.002-5.378 7.613-6.582L287 73v-2l-2.555.035-3.32.028-3.305.035C275 71 275 71 273 70c-.505-5.582 1.11-9.127 3.625-13.938l1.103-2.151c2.591-4.926 5.316-8.955 9.272-12.911l2.312-2.438L292 36l1.82-1.84C300.343 27.89 309.667 21 319 21v-2c7.516-2.27 15.321-3.872 22.562-.188z" fill="rgba(13, 13, 13, 1)" stroke="none"/>
  <path d="M287 269c3.944 1.49 5.274 3.612 7.375 7.188 6.696 10.85 14.624 18.72 26.813 23.312 7.312 2.82 11.842 7.175 15.812 13.875 1 2.625 1 2.625 1 4.625h2l.375-2.188c.615-2.77 1.51-5.209 2.625-7.812 8.315.157 15.146 4.146 21 10v-14c5 1 5 1 8 2 2.059.223 4.122.407 6.188.563l3.292.253L384 307c-1.076 2.775-2.18 5.327-3.625 7.938-1.483 3.303-1.63 5.486-1.375 9.062l1.938.75C383 326 383 326 383.75 328.125L384 330l-3.438.438c-3.37.174-3.37.174-4.562 1.562-.47 2.378-.47 2.378 0 5 1.977 2.106 1.977 2.106 4.625 3.875 6.427 4.836 11.225 9.601 14.375 17.125v2l-3.438.813L388 362l-1 3c-7.593-.886-7.593-.886-9.808-1.507-11.708-2.632-26.946-1.644-38.192 2.507l-3.625 1.125c-11.164 6.202-18.543 16.09-22.063 28.25-.895 7.518-.002 13.019 1.688 20.625H165l1-5c.944-13.408-1.267-24.404-10-35l-3-2v-2c-10.776-5.467-19.904-8.934-32-10 .735-3.334 1.699-5.423 4-8h2l1-3c2.331-1.608 3.428-2.095 6.25-1.625L136 350l1 5 1.031-3.156c4.054-12.102 8.914-23.696 15.844-34.469 3.909-6.208 4.752-12.613 5.75-19.75l.406-2.809c.328-2.271.65-4.543.969-6.816h2c1.48 1.723 1.48 1.723 3.188 4.063 4.02 5.303 8.04 10.353 13.875 13.687 5.623 4.307 8.604 11.658 10.937 18.25v3h-8c1.208 8.306 5.437 13.338 11.918 18.54 12.671 8.516 29.09 10.759 43.924 7.915 16.7-4.02 31.102-10.018 40.787-25.045 3.58-6.294 4.759-11.172 4.371-18.41l-7-1-.297 1.906c-1.787 10.23-5.358 17.558-13.703 24.094-2.25.723-2.25.723-4 1v2c-18.532 8.342-18.532 8.342-26 6l1.574-1.25c5.747-4.76 10.04-9.592 12.426-16.75 3.257-1.777 6.548-3.328 9.922-4.863 4.53-2.14 7.69-4.335 11.078-8.137l2.563-2.625c4.348-5.333 6.193-12.302 7.187-19 1.368-7.953 5.68-15.22 9.25-22.375z" fill="rgba(252, 252, 252, 1)" stroke="none"/>
  <path d="M210 87c5.75 14.114 6.288 28.388 4 43.375-3.416 22.792-1.673 49.024 12.375 68.125l2.023 2.469C230 203 230 203 231 206c1.816 1.07 1.816 1.07 4 2 1.547.95 3.088 1.909 4.625 2.875 3.392 2.064 6.647 3.704 10.375 5.063 9.793 3.739 16.888 10.577 24 18.062l2.125 1.965c2.057 2.232 2.95 4.076 4 6.91l.992 2.64c1 2.817 1.983 5.635 2.883 8.485l-2 2a174.665 174.665 0 0 0-2.375 7.563c-4.198 13.844-9.747 25.618-22.488 33.605-5.667 2.207-12.608 1.712-18.258-.254a116.208 116.208 0 0 1-5.441-2.723c-2.498-1.22-4.702-1.766-7.438-2.191v2h-2l-.797 1.809c-2.863 5.215-8.7 9.249-14.203 11.191-8.179 1.639-15.29-1.386-22.15-5.685-8.707-6.19-15.63-14.741-21.85-23.315l-3-1c.217-17.615 3.863-33.813 16.75-46.91 1.892-1.828 3.79-3.65 5.695-5.465 10.926-11.226 12.868-24.974 12.868-39.966-.287-19.872-8.846-37.567-18.22-54.713-5.192-9.627-8.278-19.32-8.155-30.321l.027-3.21L171 94c7.472-1.995 14.96-3.627 22.566-4.997 3.855-.695 3.855-.695 7.668-1.585 2.9-.687 5.803-.475 8.766-.418z" fill="rgba(250, 250, 250, 1)" stroke="none"/>
  <path d="M121 118c1.313 2.563 1.313 2.563 2 5l1-1c2.438-.25 2.438-.25 5 0 2 3 2 3 1.777 4.953-.835 2.2-1.84 3.889-3.214 5.797l-1.31 1.86L125 136h-2l-.84 2.617c-1.47 4.29-3.253 8.413-5.039 12.578-1.774 4.438-2.247 8.08-2.297 12.871-.318 18.17-1.17 35.185-8.824 51.934a702.767 702.767 0 0 0-2.25 5.625L102 226h-7c-.308-4.845-.482-8.546 1.688-12.938 6.26-13.078 7.882-25.849 8.035-40.231.128-10.954.693-21.41 6.09-31.143l1.072-2.038c2.495-4.686 5.17-9.232 8.115-13.65-4.686 2.667-8.659 5.916-12.793 9.355C105 137 105 137 103 137l-1 3-3 2c-1.468 2.307-2.74 4.577-4 7l-1.707 3.258C87.303 163.849 84.051 175.378 81 188h-2l-.188 2.938C78.144 195.881 75.575 199.81 73 204h-2l-.25 1.688C70 208 70 208 68 210.188c-2.71 3.81-2.8 7.232-3 11.812l3.313-.625C72 221 72 221 75 223a438.124 438.124 0 0 1-2 13l1.625-.75C77 235 77 235 80 236.5c3.538 2.948 4.958 5.416 7 9.5h2l2-4h4c2 3 2 3 2 5.25-1.431 3.936-3.926 6.92-7 9.75h-2l-.313 2.063c-.834 3.566-2.182 6.6-3.687 9.937l4 1c.463 7.004-1.155 12.436-3.5 19l-1.012 2.926A818.184 818.184 0 0 1 81 299l6.055-.293L89 299c2.613 3.92 1.853 6.61 1 11-.482 1.975-1 3.938-1.523 5.902-.83 3.655-1.149 7.37-1.477 11.098l2.668-.91 3.52-1.152 3.48-1.16c4.082-.953 6.62-.634 10.332 1.222-.515 5.853-1.454 11.33-3 17h-2l-1 6h-2l-.625 2c-1.866 4.072-4.35 7.688-7.375 11h-2l2 4a78.232 78.232 0 0 0 6.305-1.754c16.054-5.05 33.646-2.602 48.77 4.219 2.56 1.343 4.77 2.611 6.925 4.535v2l1.875.75c2.476 1.456 3.076 2.628 4.125 5.25l-2 1v4h-2l.875 1.695c3.385 7.31 4.177 14.307 3.125 22.305-2.126 5.076-4.366 7.94-9 11-2.733.67-5.168.853-8 1l.5-2.813c.737-5.044.583-10.101.5-15.187h-5l-.227 2.16c-.778 5.67-1.674 10.43-5.71 14.668-4.366 2.48-9.22 1.549-14.063 1.172v-21l-5-1c-2.131 2.131-1.4 7.282-1.518 10.277-.452 8.693-.452 8.693-3.482 11.723a153.02 153.02 0 0 1-6.563.063l-3.628-.028L95 421v2l2 1c-1.688 1.563-1.688 1.563-4 3-1.674-.293-3.34-.635-5-1a198.332 198.332 0 0 0-6.613-.316l-3.78-.127-3.92-.12-3.978-.13c-3.236-.106-6.473-.208-9.709-.307 3.75-2 3.75-2 6-2l-.727-1.723c-2.162-5.633-2.401-8.473-.273-14.277.405-1.998.8-3.998 1.188-6 1.207-5.323 2.955-10.075 5.25-15l.873-1.887c4.327-8.932 4.327-8.932 8.689-11.113-1.164-2.62-2.249-4.263-4.25-6.375C75 364 75 364 75.25 361.125c2.053-3.666 4.443-5.629 7.652-8.273C88.218 348.159 91.533 342.578 94 336l-1.977.656C82.788 339.6 82.788 339.6 78 339c-2-2-2-2-2.248-3.828.076-5.701.724-11.13 1.748-16.735l.434-2.478c.348-1.988.706-3.973 1.066-5.959l-3.25 1.188C72 312 72 312 69.566 310.901 68 309 68 309 67.652 306.942c.743-6.194 2.523-11.403 5.094-17.083 1.276-2.908 2.292-5.834 3.254-8.859l-3.438-.438C69 280 69 280 68 279c-.487-3.412-.675-5.947 1.234-8.926a1034.88 1034.88 0 0 1 3.227-3.965c3.276-4.49 4.71-9.158 4.227-14.671L76 249l-2.063.938c-3.35 1.211-6.386 1.794-9.937 2.062-2-2-2-2-2.23-3.918.09-4.784.427-9.363 1.23-14.082l-3.375-.625C56 232 56 232 54.562 228.875L54 226l-3 2c-4.15 2.41-7.273 2.332-12 2-1-3-1-3 .148-5.484 1.969-2.675 3.68-4.008 6.477-5.766C55.722 211.97 63.585 203.385 68 192h2l.25-2.688c.866-5.957 2.905-11.601 4.75-17.312l1.352-4.422C81.06 152.427 88.942 134.851 103 126h2v-2c3.462-3 3.462-3 6-3v-2c3.688-1.791 6.103-2.58 10-1z" fill="rgba(16, 16, 16, 1)" stroke="none"/>
  <path d="M285 254l5 1c.306 5.491-.668 9.769-2.688 14.813l-.819 2.13a99.873 99.873 0 0 1-5.243 11.307c-1.911 3.605-2.696 6.709-3.25 10.75-1.304 9.332-5.675 17.932-13 24-12.38 8-12.38 8-18 8l-.125 2c-1.885 6.462-7.062 11.47-11.875 16 7.117-.93 13.461-2.279 20.04-5.195C257 338 257 338 259 338v-2l2.563-1.625c9.63-6.291 12.45-14.8 15.437-25.375 2.313-.625 2.313-.625 5-1l3 2c1.062 8.499-2.07 15.665-7 22.5-11.393 13.8-26.928 20.907-44.573 22.772-9.18.556-17.84.261-26.427-3.272l-2.465-.773c-8.318-2.795-14.914-8.413-20.16-15.414-1.557-3.185-1.708-5.311-1.375-8.813 5.75-1.125 5.75-1.125 8 0-1.868-5.407-4.102-10.19-7.012-15.117C183 310 183 310 183 308l-1.766-.809C174.142 303.41 167.688 296.434 163 290v-3l-4-1c-.879-6.152-.879-6.152-1-8 1-1 1-1 3.73-1.434 3.798.504 4.908 1.658 7.25 4.6l1.332 1.771c.967 1.202 1.935 2.401 2.907 3.598l1.433 1.794c7.157 8.876 15.8 15.826 27.153 18.276 6.3.364 11.254-1.788 16.195-5.605a58.475 58.475 0 0 0 4.809-5.645L224 294h2v-2c4.274.364 7.317 1.07 11.125 3.063 6.316 2.936 13.628 3.46 20.238 1.09 5.203-2.98 8.972-7.486 12.637-12.153l1.508-1.719c2.186-3.342 3.295-6.947 4.555-10.719.51-1.499 1.022-2.997 1.535-4.496l.723-2.124c.82-2.345 1.726-4.648 2.679-6.942h2l2-4z" fill="rgba(13, 11, 11, 1)" stroke="none"/>
  <path d="M350 8c7.169 7.855 8.33 15.71 8 26l-2-3c-3.574-1.112-3.574-1.112-7 0l-.262-1.723C347.698 23.563 346.19 19.145 342 15c-6.145-3.969-12.87-3.737-20-3-7.24 1.701-13.85 5.288-20.406 8.713C297.198 23 297.198 23 295 23l-1 3c-2.563 1.188-2.563 1.188-5 2v2h-2l-1 3c-2.377 2.575-4.766 4.823-7.563 6.938-2.268 1.919-3.645 3.712-5.199 6.218-2.241 3.338-4.876 6.379-7.433 9.477-1.583 2.075-2.744 3.994-3.805 6.367h-2l-.313 2.313C259 67 259 67 257.673 68.243c-2.38 2.5-3.651 5.481-5.11 8.57-2.2 4.632-4.447 9.089-7.562 13.187-3.25.875-3.25.875-6 1l-1-2c-5.675-1.617-11.686-1.223-17.535-1.24-1.997-.01-3.994-.041-5.99-.073-7.326-.029-13.77.574-20.819 2.578-3.023.837-5.993 1.296-9.097 1.71-7.782 1.04-15.026 2.929-22.434 5.525l-2.576.9c-3.993 1.457-7.248 2.86-10.549 5.6a100.38 100.38 0 0 1-6 2v2c-2.919 2.388-4.44 3.036-8.238 2.79-3.988-.837-7.291-2.27-10.887-4.103-13.66-6.558-28.838-11.245-43.98-6.769-4.075 2.109-6.778 4.774-9.52 8.477-2.363 2.759-5.335 4.763-8.23 6.933-2.347 1.76-2.347 1.76-4.958 4.484-2.015 2.016-3.572 3.123-6.187 4.188v2l-4 1v2c-5.46 4.6-12.314 6.835-19 9l-2.117.691c-3.157.97-5.53 1.309-8.883 1.309v2h-2c-2.656 8.466-3.672 17.737 0 26 .362 1.326.697 2.66 1 4 .571 2.407 1.2 4.501 2.125 6.813C19 181 19 181 19 184h2l.828 2.523C27.178 204.557 27.178 204.557 37 220c1.988.398 3.99.738 6 1l-2 2 2 2h-4v5c-3.643 0-5.908-.141-8.813-2.426-7.633-8.23-11.379-18.675-14.968-29.12-2.162-6.127-4.743-12.089-7.352-18.036-5.085-11.96-7.815-27.097-2.836-39.523 3.2-6.26 7.494-9.619 13.969-11.895 2.14-.484 4.287-.94 6.438-1.375C31.8 126.26 35.907 123.922 41 120l2.085-1.565c6.278-4.773 11.896-10.047 17.52-15.562 9.725-9.356 17.879-14.267 31.52-14.186l2.835.011c7.056.11 13.328 1.075 20.04 3.302l2.66.727c4.875 1.338 9.11 3 13.453 5.601 2.702.962 4.157.535 6.887-.328 2.157-1.193 4.28-2.45 6.375-3.75 7.26-4.342 14.543-6.81 22.625-9.25 1.585-.578 3.169-1.16 4.75-1.75 4.15-1.397 8.211-1.706 12.563-2.008 3.177-.286 6.163-.934 9.26-1.677 8.6-2.003 16.72-2.86 25.552-2.752l3.09.001c6.003.035 11.832.412 17.785 1.186l.944-1.75c3.402-6.274 7.17-12.267 11.056-18.25l1.805-2.875C264.069 39.111 277.204 24.642 293 14l2.086-1.43C310.74 2.283 333.68-4.47 350 8z" fill="rgba(19, 19, 19, 1)" stroke="none"/>
  <path d="M337 26c1.278 3.835 1.104 7.425 1.063 11.418-.01 1.734-.018 3.468-.026 5.201l-.019 2.754c-.133 18.352-.133 18.352.482 36.69.521 9.993.643 19.979.677 29.984.007 1.776.017 3.553.031 5.33.186 25.686.186 25.686-4.082 30.923-2.802 2.24-4.633 2.018-8.126 1.7v-2h-3l-1.285-3.113c-3.248-7.72-6.617-14.844-11.43-21.75C310 121 310 121 310 118l-1.75-.688C306 116 306 116 304.062 113.563c-2.176-2.704-4.049-3.905-7.062-5.562a163.192 163.192 0 0 1-4-3c1.14-3.419 1.618-3.581 4.562-5.313 2.822-1.935 3.333-2.292 4.25-5.75-.584-3.137-.584-3.137-3.312-5.187-3.887-1.943-7.258-2.872-11.5-3.75.23-1.867.23-1.867 1-4 1.926-1.195 1.926-1.195 4.312-2.125l2.364-.945L297 77c1.34-.653 2.676-1.315 4-2 .419-2.33.419-2.33 0-5-4.993-4.993-10.151-6.194-17-7 2.124-10.865 12.784-20.718 21.336-27.004C307 35 307 35 309 35v-2c2.424-.978 4.85-1.95 7.281-2.91a136.735 136.735 0 0 0 4.813-2.024C326.435 25.78 331.236 25.681 337 26z" fill="rgba(126, 126, 126, 1)" stroke="none"/>
  <path d="M363.063 361.688l3.103-.05c6.492-.003 11.832.862 17.834 3.362l-2 4-7-1v2l-2.304.012c-3.504.034-7.005.104-10.509.176l-3.623.017c-11.157.274-21.538 3.699-29.564 11.795-5.798 7.916-9.489 16.054-8 26 2.228 5.585 5.616 9.253 11 12 3.23.79 3.23.79 6 1l-.656-1.906c-1.817-5.585-2.869-10.22-2.344-16.094l2-2c4.556.556 4.556.556 6 2 .322 1.745.608 3.496.875 5.25.796 4.609 1.72 8.344 5.125 11.75 2.183.235 4.372.414 6.563.563l3.628.253L362 421l-1-2.688c-1.585-5.554-1.717-11.606-1-17.312 1.27-1.89 1.27-1.89 3-3h4c1.779 3.558 1.408 7.714 1.621 11.64.38 3.368 1.195 6.195 2.379 9.36l2.957.332 3.856.48 3.832.458c3.27.712 4.414 1.096 6.355 3.73l-5 2 2 1c-2.824.941-4.53 1.117-7.45 1.098l-2.568-.01-2.67-.026-2.705-.013A1649.38 1649.38 0 0 1 363 428v2h-15v-2l-3.98.07c-1.736.02-3.472.037-5.207.055l-2.62.05-2.548.02-2.333.032C329 428 329 428 326.792 427.002c-3.404-1.222-6.165-1.254-9.782-1.256l-2.096-.01c-2.31-.007-4.621-.001-6.932.005a3933.575 3933.575 0 0 0-18.483-.01c-4.71.005-9.422 0-14.132-.002-7.91-.004-15.82 0-23.73.01-9.146.011-18.293.008-27.44-.003-7.853-.01-15.705-.01-23.557-.006-4.69.004-9.381.004-14.072-.003-4.408-.005-8.817-.001-13.225.01-1.62.003-3.238.002-4.857-.002-2.208-.006-4.415.001-6.623.011l-3.745.002c-3.035.245-4.504.84-7.118 2.252h-4v2h-7v-2h-8v2h-15v-2l-1.972.048c-2.947.062-5.893.101-8.84.14l-3.104.076-2.979.029-2.745.048c-2.784-.402-3.636-1.178-5.36-3.341l3-2v-2l13-1c2.087-5.218 2.387-9.194 2.566-14.736.232-5.062.232-5.062 2.434-7.264 4.556.556 4.556.556 6 2 .1 2.594.139 5.156.125 7.75l.012 2.172c-.007 3.818-.217 7.367-1.137 11.078 8.092.08 8.092.08 15.125-3.375 2.448-3.708 2.931-8.002 3.516-12.332C137 403 137 403 138 402c2.5-.125 2.5-.125 5 0 1.695 1.695 1.172 3.81 1.187 6.125-.03 4.696-.62 8.466-2.187 12.875 5.36-1.542 10.014-2.894 14-7 3.158-6.272 3.241-14.66 1.324-21.363-.712-1.576-1.51-3.112-2.324-4.637v-3h2l-.625-1.875L156 381l2-2c5.033 4.134 7.842 10.653 9 17 .119 2.477.175 4.958.187 7.437l.043 3.934C167 411 167 411 165 416h150l-3-9c-.861-10.19 2.1-19.647 8-28 4.709-5.487 9.474-9.863 16-13l2.313-1.125c8.167-2.66 16.206-3.214 24.75-3.188z" fill="rgba(14, 14, 14, 1)" stroke="none"/>
  <path d="M361.375 369.625l3.578-.035c10.996.037 19.507 2.288 28.047 9.41 8.47 8.922 13.168 22.025 13.188 34.25L406 417h-8v-12h-7l.313 3.063c-.39 4.906-1.902 7.47-5.313 10.937-3.644 2.149-6.814 2.356-11 2-3.142-.898-3.86-1.767-5.57-4.594-1.6-3.81-1.98-7.21-2.118-11.281l-.103-2.086A431.29 431.29 0 0 1 367 398c-3.25 1.088-3.25 1.088-6 3-.33 6.716-.231 13.384 1 20-2.082.108-4.166.186-6.25.25l-3.516.14C349 421 349 421 346.652 419.157c-3.672-4.792-4.05-10.336-4.652-16.156a88.406 88.406 0 0 0-5-1c-1.393 1.17-1.393 1.17-1.188 4.438.046 4.986 1.076 9.718 2.188 14.562-5.319.507-7.865-.674-12-4-4.682-5.202-6.54-9.184-6.375-16.148 1.166-8.867 5.611-17.035 12.375-22.852 2.887-1.956 5.834-3.545 9-5l2.945-1.613c5.524-2.336 11.542-1.82 17.43-1.762z" fill="rgba(251, 251, 251, 1)" stroke="none"/>
  <path d="M116.125 369.75l3.633-.063c7.028-.03 12.764.565 19.242 3.313l2.12.785c7.906 3.006 12.639 10.615 16.942 17.527 1.73 6.803 2.314 14.381-.417 20.946-2.123 3.539-4.198 5.465-7.645 7.742-2.733.67-5.168.853-8 1l.5-2.813c.737-5.044.583-10.101.5-15.187h-5l-.227 2.16c-.778 5.67-1.674 10.43-5.71 14.668-4.366 2.48-9.22 1.549-14.063 1.172v-21l-5-1c-2.101 2.101-1.299 7.314-1.342 10.277-.145 3.434-.626 5.666-2.33 8.668-3.678 3.246-6.765 2.753-11.476 2.524C95 420 95 420 91.937 418.125c-2.58-4.163-3.805-8.384-4.937-13.125h-5v12h-8c-1.13-11.843 2.247-24.588 9.406-34.176 9.292-10.635 19.016-13.016 32.719-13.074z" fill="rgba(249, 249, 249, 1)" stroke="none"/>
  <path d="M225.313 234.563l2.806.029c7.828.203 14.983.64 20.865 6.326 3.544 4.592 4.854 8.755 4.477 14.531-1.838 10.172-7.331 19.025-15.64 25.16-6.982 4.807-12.306 6.272-20.821 5.391-3.532-.979-6.725-2.365-10-4l-2.16-1.063C197.616 276.93 191.808 269.762 189 262c-.796-6.171.318-9.373 3.71-14.531L194 246h2v-2c1.663-.944 3.33-1.88 5-2.813l2.813-1.582c7.334-3.694 13.245-5.139 21.5-5.042z" fill="rgba(4, 4, 4, 1)" stroke="none"/>
  <path d="M385 306l1.828 1.984c2.018 2.284 2.018 2.284 4.922 2.266L394 310l-.875 2.125c-1.146 2.93-2.151 5.884-3.125 8.875h2c3.49 4.69 4.18 7.453 3.813 13.313-.238 6.478 1.465 9.393 5.433 14.355 4.138 5.502 6.059 13.462 5.754 20.332-1.952 1.952-3.532 2.848-6 4l1.688 2.375c7.077 10.603 10.9 21.878 12.085 34.496.208 1.952.555 3.887.914 5.817.35 3.696-.429 5.866-1.687 9.312l-2.14.06c-3.203.095-6.407.205-9.61.315-1.111.03-2.222.062-3.367.094l-3.242.117-2.984.095c-2.693.323-4.292 1.063-6.657 2.319h-3v2h-8v-2l3.375-.313L382 427l2-3 3-1-6-2 3-2c5.08-4.088 6.096-7.807 7-14 2.326-.38 4.66-.713 7-1 1 1 1 1 1.133 2.96l-.008 2.415.008 2.398C399 414 399 414 398 417h8c-1.824-14.452-3.919-29.045-15.395-39.098-5.03-3.763-9.416-5.87-15.605-6.902v-3l2.813.188c3.165.143 3.165.143 4.875-1.688L384 365h3l.438-1.938C388 361 388 361 389 360c2-.04 4-.043 6 0-4.037-9.252-9.94-16.162-18.531-21.516C375 337 375 337 374.656 334.454 375 332 375 332 377 330c3.625-.125 3.625-.125 7 0-.113-1.959-.113-1.959-1-4-2.49-1.297-2.49-1.297-5-2-.438-5.206.765-7.98 3.5-12.375l1.969-3.21L385 306z" fill="rgba(21, 21, 21, 1)" stroke="none"/>
  <path d="M285 254l5 1c.306 5.491-.668 9.769-2.688 14.813l-.819 2.13a99.873 99.873 0 0 1-5.243 11.307c-1.911 3.605-2.696 6.709-3.25 10.75-1.31 9.377-5.713 17.835-13 24-5.791 3.573-11.219 6.123-18 7l-1-7-.367 1.898-.508 2.477-.492 2.46C244 327 244 327 242 329l-3 1c-.195-5.548.402-9.641 2-15 .436-2.992.74-5.988 1-9l-2.875-.375C236 305 236 305 234 303c-2.323-.4-4.657-.74-7-1v-2h3l1-2c2.047-.414 2.047-.414 4.75-.625l3.004-.242c3.333-.137 6.6-.015 9.934.117 6.144.03 9.781-1.098 14.312-5.25a96.347 96.347 0 0 0 7-8l1.508-1.719c2.186-3.342 3.295-6.947 4.555-10.719.51-1.499 1.022-2.997 1.535-4.496l.723-2.124c.82-2.345 1.726-4.648 2.679-6.942h2l2-4z" fill="rgba(8, 6, 6, 1)" stroke="none"/>
  <path d="M285 174v3h-8v9h7l1-8h4c3.109 5.871 5.512 11.305 4 18-1.65 3.591-3.516 6.918-6 10h-2v2c-4.372 1.667-8.015 2.272-12.688 2.25l-3.386.016C266 210 266 210 263 208v-2l-1.75-.625c-3.221-1.969-4.99-3.856-6.25-7.375-.992-6.87-1.13-13.16 2.625-19.188 6.734-8.385 17.75-9.09 27.375-4.812z" fill="rgba(4, 4, 4, 1)" stroke="none"/>
  <path d="M263.063 97.938c5.303.907 8.965 4.677 12.937 8.062l3.063 2.313L281 110v2l1.688.688c7.178 4.074 12.363 11.73 15.312 19.312.84 3.31 1.475 6.626 2 10h2l.813 2.273C305.781 152.03 309.5 157.816 315 164l4 4.5 1.75 1.906C322 172 322 172 322 174l1.875.813C326 176 326 176 328 179c.188 2.625.188 2.625 0 5-1 1-1 1-3.793 1.336-4.11-.43-4.942-1.555-7.52-4.711-.765-.917-1.53-1.833-2.32-2.777L312 175c-1.56-1.65-3.121-3.295-4.688-4.938C303.18 165.487 297 158.499 297 152h-2l-.734-1.871c-6.245-18.422-6.245-18.422-18.454-32.441-3.198-1.92-6.088-4.113-9.042-6.383-1.742-1.362-1.742-1.362-3.77-2.305v-2l-1.938-.438C259 106 259 106 258 105c-.188-2.438-.188-2.438 0-5 2-2 2-2 5.063-2.063z" fill="rgba(6, 6, 6, 1)" stroke="none"/>
  <path d="M178 207c2 2 2 2 2.125 5.625L180 216l-3.629.664c-10.753 2.062-20.338 4.954-30.371 9.336l-3 1v2c-1.715 1.656-1.715 1.656-3.938 3.5-2.982 2.39-2.982 2.39-5.062 5.5-2.375.125-2.375.125-5 0-2-2-2-2-2.063-5.188 1.423-5.104 4.11-7.45 8.063-10.812l2.25-1.938C139 219 139 219 142 219v-2c6.084-3.092 11.18-4.567 18-5v-3c-3.938.141-7.875.289-11.813.438l-3.333.119c-6.272.24-12.478.637-18.716 1.342C124 211 124 211 122 210v-6c17.309-7.193 39.571-6.286 56 3z" fill="rgba(5, 5, 5, 1)" stroke="none"/>
  <path d="M125 122l5 1c.875 2 .875 2 1 5-1.671 2.945-3.628 5.58-6 8h-2l-.84 2.617c-1.47 4.29-3.253 8.413-5.039 12.578-1.774 4.438-2.247 8.08-2.297 12.871-.318 18.17-1.17 35.185-8.824 51.934a702.767 702.767 0 0 0-2.25 5.625L102 226h-7c-.308-4.845-.482-8.546 1.688-12.938 6.26-13.078 7.882-25.849 8.035-40.231.128-10.952.69-21.412 6.09-31.143l1.08-2.042A314.286 314.286 0 0 1 115 134l1.496-2.723c2.145-3.682 3.74-5.456 7.504-7.277l1-2z" fill="rgba(5, 5, 5, 1)" stroke="none"/>
  <path d="M90 345c0 3.376-.406 5.03-2 8a187.329 187.329 0 0 1-6 4l-1 3-2 2v4h4c1.11 2.073 1.974 3.886 2.5 6.188L86 374l2 1-1 2 2 1-1.355 1.328C77.659 389.804 74.975 403.036 74 417h8l-1-3a73.662 73.662 0 0 1-.125-4.625l-.008-2.414C81 405 81 405 82 404a99.984 99.984 0 0 1 5 0l1.375 3.688.836 2.207c.619 1.651 1.21 3.314 1.789 4.98.93 2.452.93 2.452 4 4.125 2.87.318 2.87.318 6 .25l3.188.016c3.019-.061 3.019-.061 5.812-2.266l-2 4H95v2l2 1c-1.688 1.563-1.688 1.563-4 3-1.674-.293-3.34-.635-5-1a198.332 198.332 0 0 0-6.613-.316l-3.78-.127-3.92-.12-3.978-.13c-3.236-.106-6.473-.208-9.709-.307 3.75-2 3.75-2 6-2l-.727-1.723c-2.162-5.633-2.401-8.473-.273-14.277.405-1.998.8-3.998 1.188-6 1.207-5.323 2.955-10.075 5.25-15l.873-1.887c4.327-8.932 4.327-8.932 8.689-11.113-1.164-2.62-2.249-4.263-4.25-6.375C75 364 75 364 75.25 361.125c2.062-3.682 4.47-5.731 7.707-8.379 2.735-2.337 4.834-4.915 7.043-7.746z" fill="rgba(15, 15, 15, 1)" stroke="none"/>
  <path d="M232.313 303.188A74.27 74.27 0 0 1 242 306c.794 9.216-1.713 18.307-7.047 25.922L233 334h-2l-1 3c-6.283 2.713-13.271 2.822-20 2-4.308-1.713-6.446-4.113-8.875-8-1.931-5.15-2.233-9.496-2.125-15l2.668-.402 3.52-.536 3.48-.527c2.795-.449 5.561-.956 8.332-1.535a348.063 348.063 0 0 1-.375 4.25c-.07.789-.14 1.578-.21 2.39-.433 2.463-1.261 4.16-2.415 6.36a111.726 111.726 0 0 0-1 6c4.082.429 4.082.429 7.598-1.273 4.924-6.063 4.801-14.248 4.996-21.688.406-3.039.406-3.039 1.73-4.965C229 303 229 303 232.312 303.187z" fill="rgba(235, 136, 138, 1)" stroke="none"/>
  <path d="M276 300c1.46 2.647 2 3.894 2 7l6-1v3h-7l-.297 1.906c-1.787 10.23-5.358 17.558-13.703 24.094-2.25.723-2.25.723-4 1v2c-18.532 8.342-18.532 8.342-26 6l1.574-1.25c5.747-4.76 10.04-9.592 12.426-16.75 3.257-1.777 6.548-3.328 9.922-4.863 4.53-2.14 7.699-4.328 11.078-8.137l2.625-2.875c2.546-3.35 3.89-6.22 5.375-10.125z" fill="rgba(240, 239, 239, 1)" stroke="none"/>
  <path d="M343 16c3.999 3.732 5.899 5.988 6.18 11.562-.02 1.432-.051 2.865-.09 4.297l-.067 4.781-.044 2.525c-.19 11.673-.348 23.154 1.521 34.71 1.564 10.035 1.864 19.982 1.922 30.12.01 1.768.027 3.537.051 5.305.128 10.663-.49 19.669-4.473 29.7h-1l-.031-1.904c-.11-6.62-.224-13.241-.341-19.861-.043-2.461-.085-4.923-.125-7.384-.215-16.057-.215-16.057-1.046-32.09-.458-6.415-.502-12.78-.45-19.21l.025-3.022c.036-4.126.079-8.252.14-12.377.042-3.055.065-6.109.086-9.164l.056-2.818c.02-5.065-.367-7.892-3.314-12.17l1-3z" fill="rgba(58, 58, 58, 1)" stroke="none"/>
  <path d="M284 309c1 1 1 1 1.313 4.438C285.147 322.67 280.2 330.48 274 337c-10.932 10.323-10.932 10.323-16 11l-2-7-4-1 7-2v-2l2.563-1.625c7.937-5.185 11.28-11.48 13.84-20.359.487-1.686 1.037-3.353 1.597-5.016 2.684-1.342 4.153-.73 7 0z" fill="rgba(21, 21, 21, 1)" stroke="none"/>
  <path d="M362.688 361.75c1.576-.03 1.576-.03 3.185-.063 6.608-.032 12.023.74 18.127 3.313l-2 4-7-1v2l-2.367.044c-3.566.075-7.13.172-10.695.268l-3.725.069c-6.521.193-11.42.597-17.213 3.619-2.322.405-4.655.76-7 1l1-4h-2l1-3c2.625-1 2.625-1 6-2l3.625-1.563c6.41-2.73 12.157-2.654 19.063-2.687z" fill="rgba(12, 12, 12, 1)" stroke="none"/>
  <path d="M226 292c4.973.497 8.638 1.553 13 4-3.228 2.152-4.284 2.2-8 2l-1 3-3-1v2h7l1 2-2.875-.125c-3.227-.225-3.227-.225-5.125 2.125a99.361 99.361 0 0 0-.375 6.5c-.406 7.058-1.534 13.643-6.059 19.29-1.566 1.21-1.566 1.21-4.754.897L213 332c-.351-4.685.598-7.797 2.332-12.031.915-2.696.88-5.152.668-7.969l3 1 1.375-2 1.625-2h2l-.688-1.563c-.477-3.725 1.075-6.082 2.688-9.437h-2l-1 3c-2.632 2.56-4.106 3.92-7.813 4.25L213 305l2.125-1.563c2.916-2.471 5.172-5.068 7.543-8.046L224 294h2v-2z" fill="rgba(11, 3, 9, 1)" stroke="none"/>
  <path d="M140.5 401.875C143 402 143 402 144 403c.382 6.399-.045 12.675-1 19l4 2v2l-8 1v1h-7v2h-15v-1l8-1-6-1v-1l8-1v-3h-6v-1l1.793-.008c4.399-.215 6.64-.533 10.144-3.367 2.637-3.705 3.107-7.91 3.704-12.332.498-3.182.609-3.255 3.859-3.418z" fill="rgba(26, 26, 26, 1)" stroke="none"/>
  <path d="M161.73 276.566c3.8.504 4.909 1.66 7.253 4.601l1.33 1.77a799.39 799.39 0 0 0 2.851 3.57l1.427 1.79c3.178 3.84 6.81 7.263 10.409 10.703l-1.938.875c-2.214.953-2.214.953-3.062 3.125 1.39 2.624 1.39 2.624 3 5-7.947-3.64-14.91-11.014-20-18v-3l-4-1c-.879-6.152-.879-6.152-1-8 1-1 1-1 3.73-1.434z" fill="rgba(19, 19, 19, 1)" stroke="none"/>
  <path d="M285 254l5 1c.334 5.696-.695 9.8-2.813 15.063l-.79 2.064A119.972 119.972 0 0 1 281 284c-3-2-3-2-4-4l-3 7-4-2 1.309-1.969c2.075-3.72 3.394-7.505 4.753-11.531.511-1.49 1.023-2.98 1.536-4.469l.723-2.105c.824-2.338 1.73-4.637 2.679-6.926h2l2-4z" fill="rgba(11, 11, 11, 1)" stroke="none"/>
  <path d="M90 345c0 3.376-.406 5.03-2 8a187.329 187.329 0 0 1-6 4l-1 3-2 2v4h4c1.11 2.073 1.974 3.886 2.5 6.188L86 374l2 1-1 2 2 1-1.426 1.61-1.886 2.14-1.864 2.11A105.191 105.191 0 0 0 79 390l-2-7-3 1-1 5h-2c1.677-6.136 3.534-10.42 8-15l2-1c-1.164-2.62-2.249-4.263-4.25-6.375C75 364 75 364 75.25 361.125c2.062-3.682 4.47-5.731 7.707-8.379 2.735-2.337 4.834-4.915 7.043-7.746z" fill="rgba(40, 40, 40, 1)" stroke="none"/>
  <path d="M144 367c3.142 1.536 6.086 3.057 9 5v2l1.875.75c2.476 1.456 3.076 2.628 4.125 5.25l-2 1v4h-2l-1 2a639.945 639.945 0 0 1-3.5-3.875l-1.969-2.18C147 379 147 379 147 377l-1.734-.371c-2.366-.657-4.338-1.566-6.516-2.692l-2.14-1.097L135 372v-1h7l2-4z" fill="rgba(22, 22, 22, 1)" stroke="none"/>
  <path d="M383 342c6.925.397 12.845.845 18 6 1.489 5.84.636 8.834-2 14-3.993-1.331-4.34-2.971-6.313-6.625-2.82-5.028-5.765-9.166-9.687-13.375z" fill="rgba(17, 17, 17, 1)" stroke="none"/>
  <path d="M246 317h1v8l5-1-2 2h-3l-.125 2c-1.59 5.454-5.182 9.872-9.875 13l-3-5-5 4v-2l-2-1 3-1 1-2h2l.813-1.625L238 324h1l1 5c3.103-2.503 3.94-3.68 4.688-7.688L245 318l1-1z" fill="rgba(10, 12, 13, 1)" stroke="none"/>
  <path d="M343 365c-2.983 2.54-5.196 3.28-9 4l-1 2h2l-1 4 4-1c-3.14 3.26-6.52 6.112-10 9a96.515 96.515 0 0 0-3 3v-3l-6-2c16.232-19.884 16.232-19.884 24-16z" fill="rgba(26, 26, 26, 1)" stroke="none"/>
  <path d="M343 422l6 3v-2c2.326-1.163 3.787-1.166 6.375-1.188l2.336-.042c2.526.254 4.042 1.098 6.289 2.23h4v2h-4l-1 4h-15v-2h-7l2-6z" fill="rgba(2, 2, 2, 1)" stroke="none"/>
  <path d="M226 292c4.973.497 8.638 1.553 13 4-3.228 2.152-4.284 2.2-8 2l-1 3-3-1v2h7l1 2-2.688-.188c-3.657.208-5.36 1.104-8.312 3.188 0-3.38.875-5.835 2-9h-2l-1 3c-2.632 2.56-4.106 3.92-7.813 4.25L213 305l2.125-1.563c2.916-2.471 5.172-5.068 7.543-8.046L224 294h2v-2z" fill="rgba(19, 19, 15, 1)" stroke="none"/>
  <path d="M277 270l1.938.563L281 271l1-1a99.984 99.984 0 0 1 5 0 1143.19 1143.19 0 0 1-2.375 5.875l-1.336 3.305C282 282 282 282 280 284c-2-2-2-2-3-4l-3 7-4-2 1.25-1.875c2.357-4.21 4.029-8.625 5.75-13.125z" fill="rgba(17, 17, 17, 1)" stroke="none"/>
  <path d="M394 400h2l1 2h2l2-2h3c1.698 5.838 2.253 10.931 2 17h-8v-12h-6v-2h2v-3z" fill="rgba(233, 233, 233, 1)" stroke="none"/>
  <path d="M197 176h1c.62 23.789.62 23.789-3 34h-3c-.251-6.53-.251-6.53 1.035-8.934 1.213-2.597.957-4.068.528-6.879-.85-6.965-.027-12.012 3.437-18.187z" fill="rgba(71, 71, 71, 1)" stroke="none"/>
  <path d="M224 298h2c-.326 2.001-.66 4.001-1 6l-.188 2.563c-1.24 3.72-3.699 5.119-6.812 7.437l-1-4-7 2v-2l-2-1c1.063-1.938 1.063-1.938 3-4 2.332-.345 4.665-.678 7-1 2.706-1.823 4.537-3.075 6-6z" fill="rgba(5, 7, 6, 1)" stroke="none"/>
  <path d="M88 408c1.134 2.188 2.107 4.3 2.938 6.625.947 2.683.947 2.683 4.062 4.375 2.87.318 2.87.318 6 .25l3.188.016c3.019-.061 3.019-.061 5.812-2.266l-2 4H95v2l2 1c-1.688 1.563-1.688 1.563-4 3-1.674-.293-3.34-.635-5-1a198.332 198.332 0 0 0-6.613-.316l-3.78-.127-3.92-.12-3.978-.13c-3.236-.106-6.473-.208-9.709-.307v-1h29l1-5h-2l1-3c-.093-2.066-.093-2.066-.438-4.188L88 408z" fill="rgba(61, 61, 61, 1)" stroke="none"/>
  <path d="M225 325l1.313 1.375c1.795 1.825 1.795 1.825 4.687 3.625a105.022 105.022 0 0 1-4 5h-2v3c-3.127 1.564-6.58 1.4-10 1l-3-2h3l-1-3 3.25-.563c2.44-.668 3.507-1.134 5.105-3.128.966-1.726 1.814-3.515 2.645-5.309z" fill="rgba(238, 140, 143, 1)" stroke="none"/>
  <path d="M95 421h13l-1 4v3c-1.937.081-3.875.14-5.813.188l-3.269.105C95 428 95 428 93.113 426.488L92 425l3-2v-2z" fill="rgba(4, 4, 4, 1)" stroke="none"/>
  <path d="M84.5 403.875C87 404 87 404 88 405a164.24 164.24 0 0 1 1.063 6.063l.535 3.347L90 417c-2.883.129-2.883.129-6 0-2.667-2.933-2.986-4.787-3.25-8.75.323-4.204.323-4.204 3.75-4.375z" fill="rgba(18, 18, 18, 1)" stroke="none"/>
  <path d="M394 300c.95 3.695.95 6.305 0 10l-6 1c-2.408-3.512-3.366-5.727-3-10 3.196-1.065 5.657-1.074 9-1z" fill="rgba(7, 7, 7, 1)" stroke="none"/>
  <path d="M343 16c3.666 3.421 5.898 5.798 6.135 10.933l-.158 3.364-.157 3.652-.195 3.801-.172 3.848c-.141 3.134-.293 6.268-.453 9.402h-1c-.661-3.98-1.078-7.85-1.21-11.883-.03-.857-.058-1.714-.087-2.597-.052-1.771-.096-3.542-.133-5.313-.181-5.02-.697-7.954-3.57-12.207l1-3z" fill="rgba(48, 48, 48, 1)" stroke="none"/>
  <path d="M376 421c1.437-.081 2.874-.14 4.313-.188l2.425-.105c2.74.355 3.554 1.187 5.262 3.293l-5 2 2 1c-2.882.96-4.699 1.106-7.688 1.063l-2.449-.028L373 428l-1-5 3 1 1-3z" fill="rgba(3, 3, 3, 1)" stroke="none"/>
  <path d="M276 300c1.46 2.647 2 3.894 2 7l6-1v3h-7l-1 7-1-2h-2l-1 2-1-2-3-1 2.313-2.563c2.736-3.257 4.181-6.474 5.687-10.437z" fill="rgba(226, 226, 226, 1)" stroke="none"/>
  <path d="M90 345c0 3.376-.406 5.03-2 8a187.329 187.329 0 0 1-6 4l-1 3-2 2c.227 2.957.612 4.55 2.563 6.813L83 370l-1 3c-7.026-7.711-7.026-7.711-6.938-12.125 2.252-3.34 4.791-5.59 7.895-8.129 2.735-2.337 4.834-4.915 7.043-7.746z" fill="rgba(136, 136, 136, 1)" stroke="none"/>
  <path d="M238 324h1l-.035 1.758c-.053 4.542.117 8.77 1.035 13.242l-3 2-3-5-5 4v-2l-2-1 3-1 1-2h2l.813-1.625L238 324z" fill="rgba(18, 9, 11, 1)" stroke="none"/>
  <path d="M277 177c2.375-.125 2.375-.125 5 0 2 2 2 2 2.125 5.625L284 186h-7c-1.125-6.75-1.125-6.75 0-9z" fill="rgba(240, 240, 240, 1)" stroke="none"/>
  <path d="M138 401c2-.043 4-.04 6 0 1 1 1 1 1.098 3.285l-.036 2.777-.027 2.786L145 412h2l.313 2.375c.463 2.955.463 2.955 3.687 4.625-3.135 1.858-5.375 2.201-9 2l.5-2.813c.737-5.044.583-10.101.5-15.187l-5-1v-1z" fill="rgba(204, 204, 204, 1)" stroke="none"/>
  <path d="M405 386c3 1 3 1 4.25 3.25.827 3.032.604 4.761-.25 7.75l-4 1-1-3h-2c-.688-1.813-.688-1.813-1-4 1.375-1.625 1.375-1.625 3-3l1-2z" fill="rgba(10, 10, 10, 1)" stroke="none"/>
  <path d="M376 238c1.875.188 1.875.188 4 1 1.188 2.5 1.188 2.5 2 5l1 1c.04 2.333.042 4.667 0 7-2.906 1.257-4.796 2-8 2l-1 3c-.563-1.938-.563-1.938-1-4 1-1 1-1 4.563-1.063L381 252v-3h-2v-3l-3-1 .563-1.813c.658-2.351.658-2.351-.563-5.187z" fill="rgba(86, 86, 86, 1)" stroke="none"/>
  <path d="M216 312h2c.38 2.326.713 4.66 1 7l-1 1a85.688 85.688 0 0 0-.563 4.563l-.253 2.503L217 329l4 2-2 2c-3.125-.375-3.125-.375-6-1-.351-4.685.598-7.797 2.332-12.031.915-2.696.88-5.152.668-7.969z" fill="rgba(30, 14, 14, 1)" stroke="none"/>
  <path d="M199 316h10v6l-10 1v-7z" fill="rgba(240, 140, 143, 1)" stroke="none"/>
  <path d="M228 231c2.059.023 2.059.023 4.438.375 4.474.634 8.127.584 12.562-.375l-2 2 2 2h-2l1 3-3.188-.938C234.97 235.578 229 235.347 223 235l3-2 2-2z" fill="rgba(218, 218, 218, 1)" stroke="none"/>
  <path d="M344 412h2l1.938 2.5c4.466 3.646 8.507 2.938 14.062 2.5v4c-2.082.108-4.166.186-6.25.25l-3.516.14C349 421 349 421 346.625 419.157c-1.824-2.42-2.293-4.169-2.625-7.156z" fill="rgba(231, 231, 231, 1)" stroke="none"/>
  <path d="M69 95l2 1-1.75 2.063c-2.448 3.196-4.315 6.412-6.25 9.937l-1-2-1.188 1.313C59 109 59 109 56.626 110.374c-3 1.857-5.208 4.07-7.625 6.625l-2-1c4.91-5.012 9.878-9.857 15.203-14.426 2.383-2.087 4.592-4.3 6.797-6.574z" fill="rgba(126, 126, 126, 1)" stroke="none"/>
  <path d="M190 218l1 2c-2.51 5.82-5.806 8.601-10.871 12.29-2.83 2.273-4.365 4.565-6.129 7.71l-2-1c3.84-5.526 8.097-10.262 12.95-14.922 1.897-1.923 3.49-3.878 5.05-6.078z" fill="rgba(215, 215, 215, 1)" stroke="none"/>
  <path d="M21 211l2 1v2l3 1-1 3 2 1c2.125 1.313 2.125 1.313 4 3v4l1.75.313c2.57.785 4.187 1.992 6.25 3.687-3.753 0-5.951-.127-8.883-2.566C26.251 223.157 21 217.037 21 211z" fill="rgba(104, 104, 104, 1)" stroke="none"/>
  <path d="M367 214c2.438.688 2.438.688 5 2 1.063 2.375 1.063 2.375 1 5-1.813 2.313-1.813 2.313-4 4h-2l1 4h-2l-1-6 2-1v-4h2l-2-4z" fill="rgba(107, 107, 107, 1)" stroke="none"/>
  <path d="M210 278c3 1 3 1 5 2v2h5l1 2c3.03.658 3.03.658 6 1v1c-6.802.376-11.757-.225-18-3l1-5z" fill="rgba(16, 16, 16, 1)" stroke="none"/>
  <path d="M222.188 318.375L224 319l-2 3c-.451 2.05-.451 2.05-.625 4.188L221 330l-4-1a195.61 195.61 0 0 1-.188-4.375l-.105-2.46L217 320c3-2 3-2 5.188-1.625z" fill="rgba(5, 7, 8, 1)" stroke="none"/>
  <path d="M373 158h1c.125 2.375.125 2.375 0 5-2 2-2 2-4.383 2.195l-2.742-.07-2.758-.055L362 165l1.313 1.574 1.687 2.113 1.688 2.075c1.54 2.626 1.564 4.244 1.312 7.238l-.75-1.938c-1.066-2.25-1.066-2.25-3.375-2.812L362 173l2-2-2.5-2.375C359 166 359 166 359 164l12-1 2-5z" fill="rgba(124, 124, 124, 1)" stroke="none"/>
  <path d="M122.688 421.438l2.449.308L127 422l1 4-11 1v-4l-2-1c3.095-1.032 4.526-.975 7.688-.563z" fill="rgba(3, 3, 3, 1)" stroke="none"/>
  <path d="M80 404l2 1v12h-8v-11h1l2 10c1.425-3.99 2.4-7.805 3-12z" fill="rgba(199, 199, 199, 1)" stroke="none"/>
  <path d="M335 411c2.296 3.445 2.54 5.938 3 10-4.649.324-7.224-.224-11-3v-1h7l1-6z" fill="rgba(227, 227, 227, 1)" stroke="none"/>
  <path d="M221 330v3l-6 2v4c-4.554.37-4.554.37-6.813-1.5L207 336h2l1-3 1.898-.148 2.477-.227c.812-.07 1.624-.14 2.46-.21 2.368-.244 2.368-.244 4.165-2.415z" fill="rgba(215, 129, 129, 1)" stroke="none"/>
  <path d="M225 307h1c.487 8.624-.075 15.238-4 23l-2-1c.63-6.43.63-6.43 2.5-9.313 2.243-4.017 2.245-8.152 2.5-12.687z" fill="rgba(43, 15, 14, 1)" stroke="none"/>
  <path d="M299 98l3 1v4l-4 1 .938 1.875L301 110c-2.954-1.372-5.44-2.989-8-5 1.243-3.73 2.77-4.847 6-7z" fill="rgba(105, 105, 105, 1)" stroke="none"/>
  <path d="M367 399h2l.184 2.52.253 3.293.247 3.269c.218 2.978.218 2.978 1.316 5.918h2l-1 4 2.25.375c2.551.58 4.477 1.362 6.75 2.625-6.947.316-6.947.316-10-2-2.703-4.518-3.44-8.146-3.688-13.375l-.199-3.773L367 399z" fill="rgba(193, 193, 193, 1)" stroke="none"/>
  <path d="M86 405l1 8-4 2c-2.29-3.435-2.178-4.985-2-9 3-1 3-1 5-1z" fill="rgba(4, 4, 4, 1)" stroke="none"/>
  <path d="M234 328l1 3-2 3h-2l-1 3-5 1v-3h2l1-3h2l1-3 3-1z" fill="rgba(209, 135, 137, 1)" stroke="none"/>
  <path d="M367 282h14v1l-10 1c2.869 3.506 5.732 6.853 9 10l-2 1-2.125-2.188c-1.958-1.98-3.994-3.723-6.188-5.437L367 285v-3z" fill="rgba(163, 163, 163, 1)" stroke="none"/>
  <path d="M184 140c2.543 2.273 3.876 4.45 5.25 7.563l1.078 2.378C191 152 191 152 190 154h-2v-3h-2a420.544 420.544 0 0 1-1.563-4.375l-.878-2.46C183 142 183 142 184 140z" fill="rgba(78, 78, 78, 1)" stroke="none"/>
  <path d="M347 110h1v20h2c-.75 6.75-.75 6.75-3 9v-29z" fill="rgba(47, 47, 47, 1)" stroke="none"/>
  <path d="M385 358c2 1 2 1 4 3l-2 4c-4.814-.481-7.602-.8-12-3l9-1 1-3z" fill="rgba(218, 218, 218, 1)" stroke="none"/>
  <path d="M311 6v2l-1.863.805-2.45 1.07-2.425 1.055c-2.458 1.096-2.458 1.096-5.262 3.07-2.188-.375-2.188-.375-4-1 10.138-7 10.138-7 16-7z" fill="rgba(107, 107, 107, 1)" stroke="none"/>
  <path d="M368 154l5 2c.125 2.875.125 2.875 0 6l-2 2h-3l-1-3 2-1-1-6z" fill="rgba(57, 57, 57, 1)" stroke="none"/>
  <path d="M262 44c0 3.595-.064 6.505-1 10-2.287 1.578-4.302 2.166-7 3 1.59-5.09 4.745-8.875 8-13z" fill="rgba(121, 121, 121, 1)" stroke="none"/>
  <path d="M383 424l7 1-1 2c-3.063.625-3.063.625-6 1v2h-8v-2l7-1 1-3z" fill="rgba(103, 103, 103, 1)" stroke="none"/>
  <path d="M343 422l6 3c.625 2.563.625 2.563 1 5h-2v-2h-7l2-6z" fill="rgba(37, 37, 37, 1)" stroke="none"/>
  <path d="M379 314l2 1-2 3c-.167 3.125-.167 3.125 0 6l4 2-1 2-6-2v-11l3-1z" fill="rgba(220, 220, 220, 1)" stroke="none"/>
  <path d="M287 269c4 2 4 2 4.75 4.125L292 275c-1.938.563-1.938.563-4 1l-1-1-3 3 3-9z" fill="rgba(219, 219, 219, 1)" stroke="none"/>
  <path d="M16 130l3 1-1.809.777c-2.39 1.334-3.577 2.644-5.253 4.786C9.874 139.194 9.287 139.904 6 141c1.166-4.955 4.161-7.027 8.027-9.96L16 130z" fill="rgba(129, 129, 129, 1)" stroke="none"/>
  <path d="M363 426v4h-12v-1l6-1-5-1v-1c7.625-1.125 7.625-1.125 11 0z" fill="rgba(78, 78, 78, 1)" stroke="none"/>
  <path d="M84 382l2 2c-.375 2.625-.375 2.625-1 5l-4 1v2h-2c1.156-3.912 2.355-6.875 5-10z" fill="rgba(225, 225, 225, 1)" stroke="none"/>
  <path d="M108 327h1c.081 1.75.14 3.5.188 5.25l.105 2.953c-.332 3.172-1.18 4.467-3.293 6.797l-2-2c.375-3.125.375-3.125 1-6h2l1-7z" fill="rgba(55, 55, 55, 1)" stroke="none"/>
  <path d="M225 328l6 1c-1.135 3.404-1.968 4.217-5 6l-3-1 2-6z" fill="rgba(251, 132, 147, 1)" stroke="none"/>
  <path d="M206 326h3v10h-2v-4l-3-1 2-5z" fill="rgba(237, 145, 137, 1)" stroke="none"/>
  <path d="M246 317h1v8l5-1-2 2h-3l-1 5h-1c-1.015-4.625-.91-8.354 0-13l1-1z" fill="rgba(24, 17, 23, 1)" stroke="none"/>
  <path d="M277 177h5l-1.5 1.25c-1.934 1.872-1.934 1.872-1.5 5.75l4 1 1-2v3h-7c-1.125-6.75-1.125-6.75 0-9z" fill="rgba(188, 188, 188, 1)" stroke="none"/>
  <path d="M410 392c3.774 3.774 4.125 9.875 4.125 15.063L414 410h-1c-2-8-2-8-2.441-10.203-.185-.593-.37-1.186-.559-1.797l-2-1 2-5z" fill="rgba(122, 122, 122, 1)" stroke="none"/>
  <path d="M375 302v4h10l-1 2a591.518 591.518 0 0 1-5.813-.375c-1.078-.07-2.157-.14-3.269-.21C372 307 372 307 369 305c1.393-2.786 2.989-3 6-3z" fill="rgba(110, 110, 110, 1)" stroke="none"/>
  <path d="M243 298v3h-4v2l-4 1-1-4c5.625-3.125 5.625-3.125 9-2z" fill="rgba(23, 8, 14, 1)" stroke="none"/>
  <path d="M118 416l2 2c2.662.463 2.662.463 5.625.625l3.04.227L131 419l-1 2h-12v-5z" fill="rgba(229, 229, 229, 1)" stroke="none"/>
  <path d="M377 330c2.125.375 2.125.375 4 1h-2l1 3c-.938 2.188-.938 2.188-2 4l-3-1c-.125-2.375-.125-2.375 0-5l2-2z" fill="rgba(46, 46, 46, 1)" stroke="none"/>
  <path d="M186 316c3.123 2.518 3.945 3.726 4.75 7.75L191 327l-4-1c-.73-3.465-1-6.464-1-10z" fill="rgba(219, 220, 220, 1)" stroke="none"/>
  <path d="M228 231c2.164.023 2.164.023 4.625.375l2.477.336L237 232l-2 3c-2.82.293-2.82.293-6.125.188l-3.32-.083L223 235l3-2 2-2z" fill="rgba(200, 200, 200, 1)" stroke="none"/>
  <path d="M276 172l9 2v3c-7.75.125-7.75.125-10-1l1-4z" fill="rgba(13, 13, 13, 1)" stroke="none"/>
  <path d="M406 364h1c.125 2.375.125 2.375 0 5-1.952 1.952-3.532 2.848-6 4l1 4-4-1 1-6 2.938-.75L405 368c.969-2.032.969-2.032 1-4z" fill="rgba(156, 156, 156, 1)" stroke="none"/>
  <path d="M252 351l-5 6-2-1 1-2h-7c8.962-5.019 8.962-5.019 13-3z" fill="rgba(206, 206, 206, 1)" stroke="none"/>
  <path d="M395 338c3 4.385 3 4.385 3 7-4.75-.75-4.75-.75-7-3v-3c2-1 2-1 4-1z" fill="rgba(102, 102, 102, 1)" stroke="none"/>
  <path d="M175 120c3 1 3 1 4.063 3l.937 2 2 1v8c-2.39-2.932-3.841-5.721-5.188-9.25l-1.042-2.703L175 120z" fill="rgba(223, 223, 223, 1)" stroke="none"/>
  <path d="M253 57l2 3a18.103 18.103 0 0 1-8 8c1.258-4.508 2.904-7.491 6-11z" fill="rgba(105, 105, 105, 1)" stroke="none"/>
  <path d="M401 350c2.679 1.34 2.75 2.517 3.688 5.313l.824 2.363c.526 2.507.306 3.925-.512 6.324l-.813-2.938L403 358l-3-1 1-7z" fill="rgba(116, 116, 116, 1)" stroke="none"/>
  <path d="M45 117l2 1c-4.185 5.785-4.185 5.785-8.313 6.875L36 125c2.853-2.932 5.65-5.643 9-8z" fill="rgba(124, 124, 124, 1)" stroke="none"/>
  <path d="M165 87l-1.813 1.313A44.736 44.736 0 0 0 158 93v-2h-6c2.437-1.625 4.373-2.657 7.063-3.688l2.097-.824C163 86 163 86 165 87z" fill="rgba(95, 95, 95, 1)" stroke="none"/>
  <path d="M246 68c0 3.411-.491 6.63-1 10l-5 2c3.714-9.714 3.714-9.714 6-12z" fill="rgba(125, 125, 125, 1)" stroke="none"/>
  <path d="M334 377c0 3 0 3-1.75 5.043l-2.25 2.144-2.25 2.168L326 388c0-3.545.594-4.06 2.875-6.625l1.617-1.852C332 378 332 378 334 377z" fill="rgba(201, 201, 201, 1)" stroke="none"/>
  <path d="M144 324l5 4-3 6-1-2h-2l1-8z" fill="rgba(76, 76, 76, 1)" stroke="none"/>
  <path d="M217 313l-1 9h-1v-6l-6 1v-2c5.75-2 5.75-2 8-2z" fill="rgba(191, 128, 127, 1)" stroke="none"/>
  <path d="M364 304l5 1-4 2 1 9h-2v-12z" fill="rgba(221, 221, 221, 1)" stroke="none"/>
  <path d="M219 294h5c-1.393 3.367-2.979 4.986-6 7v-2l-2-1 1.5-1.438c1.615-1.321 1.615-1.321 1.5-2.562z" fill="rgba(239, 231, 232, 1)" stroke="none"/>
  <path d="M365.188 398.313L367 399l-3 1c-1.976 2.984-2.347 5.726-2.625 9.25l-.227 2.703L361 414h-1c-.081-2.104-.14-4.208-.188-6.313l-.105-3.55C360 401 360 401 361.375 399.062 363 398 363 398 365.188 398.313z" fill="rgba(72, 72, 72, 1)" stroke="none"/>
  <path d="M113 398c2.125.375 2.125.375 4 1h-3l1 3-2 2c-.4 2.323-.74 4.657-1 7h-1a444.403 444.403 0 0 1-.125-5.375l-.07-3.023C111 400 111 400 113 398z" fill="rgba(68, 68, 68, 1)" stroke="none"/>
  <path d="M362 309c1.884 3.265 2.493 6.281 3 10-2.5-2.313-2.5-2.313-5-5v-3h2v-2z" fill="rgba(74, 74, 74, 1)" stroke="none"/>
  <path d="M232.688 304.313L235 305l-2 1v2l-3 1-2-1v5h-1c-.36-5.411-.36-5.411 1.188-7.938 1.812-1.062 1.812-1.062 4.5-.75z" fill="rgba(239, 143, 149, 1)" stroke="none"/>
  <path d="M222 297l1 4c-4.308 3.938-4.308 3.938-7.813 4.25L213 305l2.25-1.75A77 77 0 0 0 222 297z" fill="rgba(41, 40, 37, 1)" stroke="none"/>
  <path d="M366 198l1 3c-1.313 2.438-1.313 2.438-3 5a174.184 174.184 0 0 0-2 4c-1.063-1.813-1.063-1.813-2-4l1-3 3-1c1.209-2 1.209-2 2-4z" fill="rgba(102, 102, 102, 1)" stroke="none"/>
  <path d="M350 151l3 1v2l3 1v1h-8c.875-3.875.875-3.875 2-5z" fill="rgba(53, 53, 53, 1)" stroke="none"/>
  <path d="M286 19l2 1c-1.37 3.161-1.99 3.993-5 6l-4-1 7-6z" fill="rgba(115, 115, 115, 1)" stroke="none"/>
  <path d="M66 402h1c1.106 5.834 1.271 8.766-2 14l-2-2 .938-3.188c.819-2.94 1.517-5.814 2.062-8.812z" fill="rgba(154, 154, 154, 1)" stroke="none"/>
  <path d="M320 398h1v8h3l1 4h-4c-1.262-2.525-1.099-4.312-1.063-7.125l.028-2.758L320 398z" fill="rgba(195, 195, 195, 1)" stroke="none"/>
  <path d="M254 214l6 2-4 4-6-3 4-1v-2z" fill="rgba(74, 74, 74, 1)" stroke="none"/>
  <path d="M389 411l2 1-5 7-1-2h-2l1-3a70.134 70.134 0 0 1 4-1l1-2z" fill="rgba(227, 227, 227, 1)" stroke="none"/>
  <path d="M384 344c5.875 4.625 5.875 4.625 7 8h-2l-2-2-3 2 .625-1.875L385 348l-2-2 1-2z" fill="rgba(216, 216, 216, 1)" stroke="none"/>
  <path d="M360 414l1 3c-1 1-1 1-3.066 1.098l-2.497-.036-2.503-.027L351 418v-2l6.152-.684c1.86-.135 1.86-.135 2.848-1.316z" fill="rgba(245, 245, 245, 1)" stroke="none"/>
  <path d="M77 384c2 2 2 2 2.125 4.625L79 391h-5l-1-2h2l2-5z" fill="rgba(3, 3, 3, 1)" stroke="none"/>
  <path d="M77 381l2 1-4 7h-2l1-5h2l1-3zm-6 8l2 1-3 2 1-3z" fill="rgba(20, 20, 20, 1)" stroke="none"/>
  <path d="M171 280h3l-1 2-2-2zm-3 1h3l.25 1.875c.563 2.31.563 2.31 2.813 3.375L176 287l-2 2-6-8z" fill="rgba(220, 220, 220, 1)" stroke="none"/>
  <path d="M240 271h2v2l3 1c-1.375 2-1.375 2-3 4h-2c-.934-3.01-1.044-3.867 0-7z" fill="rgba(27, 27, 27, 1)" stroke="none"/>
  <path d="M352 12c2.333 2.121 3.915 4.016 5 7-.375 2.25-.375 2.25-1 4v-2l-4-1 .563-1.75c.477-2.457.194-3.894-.563-6.25z" fill="rgba(92, 92, 92, 1)" stroke="none"/>
  <path d="M238 324h1v8l-6 1 1.938-2.813c2.148-3.03 2.148-3.03 3.062-6.187z" fill="rgba(66, 29, 33, 1)" stroke="none"/>
  <path d="M231 318c1.952 3.904 2.506 6.722 3 11h-3v-11z" fill="rgba(248, 134, 135, 1)" stroke="none"/>
  <path d="M375 302l10 3v1h-10v-4z" fill="rgba(48, 48, 48, 1)" stroke="none"/>
  <path d="M269 286l2 4c-2.937 1.523-5.917 2.801-9 4l2.938-3.438 1.652-1.933A49.663 49.663 0 0 1 269 286z" fill="rgba(48, 48, 48, 1)" stroke="none"/>
  <path d="M280 284l-2 12h-1c-1-7.625-1-7.625-1-11 2-1 2-1 4-1z" fill="rgba(36, 36, 36, 1)" stroke="none"/>
  <path d="M218 282l2 1c2.329.683 4.662 1.35 7 2v1c-1.583.054-3.166.093-4.75.125l-2.672.07c-2.692-.204-4.277-.83-6.578-2.195h5v-2z" fill="rgba(60, 60, 60, 1)" stroke="none"/>
  <path d="M382 250v3l-7 1-1 3c-.563-1.938-.563-1.938-1-4 1.933-1.933 5.386-1.627 8-2l1-1z" fill="rgba(129, 129, 129, 1)" stroke="none"/>
  <path d="M192 249l2 3-1.438 1.625c-1.844 2.803-2.187 5.071-2.562 8.375h-1c-.274-5.394-.36-8.52 3-13z" fill="rgba(94, 94, 94, 1)" stroke="none"/>
  <path d="M335 411c2.296 3.445 2.54 5.938 3 10h-6l3-2c.363-1.977.363-1.977.188-4.125L335 411z" fill="rgba(178, 178, 178, 1)" stroke="none"/>
  <path d="M344 412h2a158.814 158.814 0 0 1 5 6h-2l-1 2c-2.9-2.395-3.502-4.312-4-8z" fill="rgba(218, 218, 218, 1)" stroke="none"/>
  <path d="M395 382l4 5-1 2-2-1-1 2c-.8-3.287-1.097-4.71 0-8z" fill="rgba(223, 223, 223, 1)" stroke="none"/>
  <path d="M269 340l2 1-1 5-6-1 5-5z" fill="rgba(210, 210, 210, 1)" stroke="none"/>
  <path d="M234 302l1 2-2.688-.188c-3.657.208-5.36 1.104-8.312 3.188v-3c3.402-2.094 6.053-2.18 10-2z" fill="rgba(48, 21, 24, 1)" stroke="none"/>
  <path d="M75 279h3l-2 10h-2l2-8-2-1 1-1z" fill="rgba(125, 125, 125, 1)" stroke="none"/>
  <path d="M251 262h1c.313 2.75.313 2.75 0 6-2.5 2.375-2.5 2.375-5 4 1.11-3.487 2.263-6.775 4-10z" fill="rgba(219, 219, 219, 1)" stroke="none"/>
  <path d="M288 81l4 1v4l-5-1 1-4z" fill="rgba(116, 116, 116, 1)" stroke="none"/>
  <path d="M93 412h1v5h2l1 3c-4.677-1.477-4.677-1.477-6.313-4.125L90 414h2l1-2z" fill="rgba(212, 212, 212, 1)" stroke="none"/>
  <path d="M392 354l2 1c.625 2.563.625 2.563 1 5h-5l2-6z" fill="rgba(209, 209, 209, 1)" stroke="none"/>
  <path d="M188 334l1 3h2v5l-5-5 2-3z" fill="rgba(27, 27, 27, 1)" stroke="none"/>
  <path d="M201 329c3 0 3 0 4.75 1.25 1.25 1.75 1.25 1.75.938 3.938L206 336c-2.526-2.363-3.888-3.665-5-7z" fill="rgba(213, 136, 138, 1)" stroke="none"/>
  <path d="M152 321l1 2-1 2 3-1v2c-2.375 1.688-2.375 1.688-5 3l-2-1 4-7z" fill="rgba(215, 215, 215, 1)" stroke="none"/>
  <path d="M379 317l2 2-.563 1.938L380 323c1.354 1.772 1.354 1.772 3 3l-5-2c-.043-2-.04-4 0-6l1-1z" fill="rgba(43, 43, 43, 1)" stroke="none"/>
  <path d="M216 312h2c1.354 6.277 1.354 6.277-.438 9.938L216 324c-1.312-2.623-.896-4.23-.563-7.125l.31-2.758L216 312z" fill="rgba(48, 22, 20, 1)" stroke="none"/>
  <path d="M217 310l-2 4-7-1c6-3 6-3 9-3z" fill="rgba(17, 15, 5, 1)" stroke="none"/>
  <path d="M283 278c1 4 1 4 1 8l-5 1 4-9z" fill="rgba(195, 195, 195, 1)" stroke="none"/>
  <path d="M150 91l2 1-1.438 1.375C148.91 94.933 148.91 94.933 148 97l-5-1c2.116-2.327 4.05-3.858 7-5z" fill="rgba(129, 129, 129, 1)" stroke="none"/>
  <path d="M390 412l3 2v3l-7 2 4-7z" fill="rgba(44, 44, 44, 1)" stroke="none"/>
  <path d="M323 376a84.76 84.76 0 0 1 2 7l-6-2 4-5z" fill="rgba(43, 43, 43, 1)" stroke="none"/>
  <path d="M130 350l1 2h-2l-2 6-3-1 1-3h2l1-3 2-1z" fill="rgba(205, 205, 205, 1)" stroke="none"/>
  <path d="M281 326c1 4 1 4 .004 5.703L277 336l-2-1 6-9z" fill="rgba(213, 213, 213, 1)" stroke="none"/>
  <path d="M349 304l2 1-1 4-6-1c2-3 2-3 5-4z" fill="rgba(74, 74, 74, 1)" stroke="none"/>
  <path d="M182 290l1 7-6-5c3-2 3-2 5-2z" fill="rgba(225, 225, 225, 1)" stroke="none"/>
  <path d="M272 281l1 2 3-1-2 5-4-2 2-4z" fill="rgba(27, 27, 27, 1)" stroke="none"/>
  <path d="M275 178l2 1v6l-4 1-1-3h2l1-5z" fill="rgba(46, 46, 46, 1)" stroke="none"/>
  <path d="M74 406h1l2 10h-3v-10z" fill="rgba(222, 222, 222, 1)" stroke="none"/>
  <path d="M138 402l4 2v2h-4l-1 3c-.043-2-.04-4 0-6l1-1z" fill="rgba(18, 18, 18, 1)" stroke="none"/>
  <path d="M395 377l3 1-1 3c.39 2.143.39 2.143 1 4l-5-5 2-1v-2z" fill="rgba(28, 28, 28, 1)" stroke="none"/>
  <path d="M275 299l2 1-3 7-2-3 1-3h2v-2z" fill="rgba(29, 29, 29, 1)" stroke="none"/>
  <path d="M248 262l3 1-3 7h-1c-.125-5.75-.125-5.75 1-8z" fill="rgba(18, 18, 18, 1)" stroke="none"/>
  <path d="M21 211l2 1v2l3 1-1 3 2 1-2 2a651.927 651.927 0 0 1-2-3.875l-1.125-2.18C21 213 21 213 21 211z" fill="rgba(115, 115, 115, 1)" stroke="none"/>
  <path d="M367 156l3 1-1 4-3-1c0-3 0-3 1-4z" fill="rgba(2, 2, 2, 1)" stroke="none"/>
</svg>
</g></svg></g></g>
<!-- /image 89261 -->
</defs><rect x="0" y="0" width="250" height="250" fill="rgba(51, 51, 51, 1)"></rect><use xlink:href="#transformed-89261" transform="translate(-250, -250)"></use><use xlink:href="#transformed-89261" transform="translate(0, -250)"></use><use xlink:href="#transformed-89261" transform="translate(250, -250)"></use><use xlink:href="#transformed-89261" transform="translate(-250, 0)"></use><use xlink:href="#transformed-89261" transform="translate(0, 0)"></use><use xlink:href="#transformed-89261" transform="translate(250, 0)"></use><use xlink:href="#transformed-89261" transform="translate(-250, 250)"></use><use xlink:href="#transformed-89261" transform="translate(0, 250)"></use><use xlink:href="#transformed-89261" transform="translate(250, 250)"></use></svg>