<svg version="1.1"
      xmlns="http://www.w3.org/2000/svg"
      xmlns:xlink="http://www.w3.org/1999/xlink"  id="snapshot-44901" width="250" height="250" viewBox="0 0 250 250"><desc>This image was made on Patterninja.com</desc><defs>
<!-- image 73262 -->
<g id="transformed-73262" data-image="73262" transform="translate(-125, -125) rotate(0, 125, 125)"><g><svg version="1.1" width="250px" height="250px" viewBox="0 0 250 250"><g id="original-73262"><svg xmlns="http://www.w3.org/2000/svg" viewBox="0 0 500 500" xmlns:xlink="http://www.w3.org/1999/xlink" version="1.1" preserveAspectRatio="xMidYMid meet">
  <path d="M255.848.422c6.007 1.613 10.773 7.608 14.125 12.629 4.373 8.297 5.175 17.794 5.23 27.015l.017 2.291c.01 1.594.016 3.189.02 4.783.01 2.392.04 4.783.072 7.174.058 8.672-.653 16.28-2.718 24.726-.815 4.06-.353 6.898.406 10.96 1.092 18.228-1.953 31.837-10.086 48.062L262 140l-1.265 2.422c-1 2.573-1 2.573.12 5.031l1.547 2.582 1.69 2.923 1.846 3.105c4.395 7.734 8.363 15.321 11.25 23.75l.806 2.326c8.57 26.242 7.747 61.095-4.517 86.15-4.875 8.95-10.41 17.525-16.477 25.711l-1.488 2.031c-4.268 5.43-9.67 8.74-16.512 9.969-2.699.095-5.365.14-8.063.125l-2.181.012c-3.183-.006-5.715-.123-8.756-1.137-6.248-.893-9.643 1.242-14.668 4.59-5.02 3.035-10.607 3.037-16.332 2.41-3.82-1.24-7.185-2.504-9.16-6.129-2.218-2.256-2.835-2.157-5.903-2.226-1.646.036-3.292.093-4.937.168-5.526.165-10.656.215-16.125-.75-4.41-.522-6.336.531-9.813 3.25l-2.09 1.925c-4.14 3.699-7.318 4.057-12.847 4.075l-3.617.05c-4.675-.484-7.981-2.027-11.508-5.113-2.885-1.803-4.671-.829-8-.25-13.866.59-29.759.64-41.044-8.69-6.493-6.383-7.73-12.747-8.894-21.56a1305.05 1305.05 0 0 0-.614-3.998c-1.18-7.917-1.647-15.695-1.698-23.69.006-6.183.006-6.183-2.52-11.652-2.32-1.806-4.612-3.084-7.23-4.41-8.413-6.53-15.327-14.233-20.574-23.496a88.442 88.442 0 0 0-2.883-4.727C3.499 180.097-1.435 148.99 2.27 120.27c1.71-7.66 6-13.655 12.48-17.957C21.785 98.228 29.804 95.213 38 97c10.348 5.498 13.625 14.852 16.91 25.397 2.425 8.152 3.55 16.136 4.09 24.603l.167 2.59c.785 12.905 1.356 25.713.063 38.597-1.1 9.343-1.1 9.343 1.77 17.813l.672-1.59C69.61 187.123 82.345 171.764 98 161c-1.52-3.533-3.654-5.875-6.25-8.688C85.96 145.376 83.437 137.603 81 129l-.587-2.066c-1.131-4.226-1.679-8.197-1.85-12.559-.364-6.166-1.397-11.927-2.844-17.926-1.46-7.002-1.885-14.018-1.957-21.156l-.03-2.423c-.024-2.56-.037-5.121-.044-7.683l-.008-2.643C73.675 49.624 74.25 37.451 78 25l1.05-3.52C81.793 13.237 81.793 13.237 85 11c5.22-.79 7.832.777 12 3.813l1.683 1.219A415.402 415.402 0 0 1 104 20l1.786 1.329C114.881 28.116 124.646 35.47 131 45c8.74-1.655 17.353-3.745 25.986-5.877C182.093 33.003 203.013 37.917 227 46c2.75-4.656 5.135-9.332 7.25-14.313l1.816-4.19c.994-2.307 1.984-4.615 2.969-6.926 1.042-2.444 2.097-4.883 3.152-7.321l.972-2.31C245.85 4.756 248.238.025 255.848.422z" fill="rgba(63, 55, 53, 1)" stroke="none"/>
  <path d="M164 102c4.154.522 6.126 1.697 9.188 4.5 4.756 3.916 8.754 4.589 14.812 4.5.315.808.63 1.616.953 2.45l1.297 3.237 1.266 3.2c2.857 5.992 6.445 9.98 12.672 12.3 8.507 1.813 15.08.964 22.812-3.187 4.237-3.408 6.493-7.265 9-12 5.257 0 5.257 0 8 1 2.322 2.903 4 6.24 4 10l1.875.938L254 131c-.293 5.86-3.034 9.855-7 14h-2l-.66 2.137c-1.661 3.55-4.006 5.98-6.778 8.675l-1.616 1.586C228.089 164.956 220.24 170.266 210 174c-3.187 1.527-4.577 2.254-6.313 5.313-1.295 5.066-1.184 8.268 1.438 12.812 2.44 3.622 5.023 5.744 8.875 7.875l1.738 1.074c10.915 4.468 25.802-.087 36.262-4.074 6.311-2.699 11.952-5.343 16-11h2c4.126 17.055 1.637 34.76 0 52-1.626-.309-3.25-.622-4.875-.938l-2.742-.527C260 236 260 236 258 235a69.616 69.616 0 0 0-4.133-.316l-2.441-.127-2.551-.12-2.574-.13c-2.1-.107-4.2-.207-6.301-.307v2a4387.23 4387.23 0 0 1-4.813 1.938l-2.707 1.09A112.154 112.154 0 0 1 227 241l-1 3h-3v-2h-2l.048 2.52c.051 3.125.089 6.25.117 9.376.022 2.001.06 4.003.099 6.004.076 10.094-1.496 17.245-6.264 26.1h-2l-.75 2.188c-2.619 5.892-6.901 9.952-12.5 13.062-4.536 1.237-9.404 1.624-13.867-.04-5.336-3.43-8.348-11.243-9.883-17.21a109.076 109.076 0 0 1-.79-7.898c-.09-2.158-.09-2.158-1.21-4.102-.842 4.386-1.135 8.536-1.125 13l-.008 3.563c.125 3.234.523 6.262 1.133 9.437-15.86 2.047-15.86 2.047-22 0 .658-3.173 1.794-5.708 3.313-8.563 4.988-9.78 4.988-9.78 6.687-20.437l-5 11h-2l-.816 2.23c-3.655 8.551-10.911 15.66-19.184 19.77-5.392 1.073-9.908 1.29-14.676-1.648-7.218-7.303-7.777-18.763-7.761-28.477.118-8.086.762-15.95 2.437-23.875h-2l-.313 2c-.687 3-.687 3-2.124 6.625-5.185 13.724-5.666 30.584-.563 44.375-7.264.385-14.162-.17-21.313-1.375l-2.278-.382c-4.573-.81-8.966-1.893-13.409-3.243v-2a54.467 54.467 0 0 1 3.563-1.938c10.102-6.054 13.52-18.347 16.312-29.062 2.715-10.922 4.888-21.973 7.125-33l-2.734-.39C92.78 228.771 89.093 226.96 85 225c-.866-.396-1.733-.791-2.625-1.2-4.906-2.313-8.98-4.42-12.375-8.8-1.177-3.85-.963-6.021.625-9.688l1.145-2.648A310.868 310.868 0 0 1 78 190l1.523-3.168C85.021 175.825 92.232 167.982 103 162l1.504 1.172c4.322 3.313 8.67 6.288 13.496 8.828l2.484 1.355 2.641 1.395 2.445 1.297c2.77 1.257 2.77 1.257 7.43.953l-9-5v-2l-2.313-.875C119 168 119 168 116 166v-3l-2.066-.582c-4.08-1.972-6.746-4.872-9.871-8.106l-1.803-1.818A322.99 322.99 0 0 1 97 147l-1.813-1.913-1.69-1.857c-.506-.548-1.01-1.097-1.53-1.663L91 140l1-3 3 .75c3.972.53 6.61-.312 10.078-2.254C110.608 131.191 113.55 124.4 116 118c3.242 2.161 4.048 3.72 6 7l2.188 2.188L126 129v2c7.515 2.258 16.357 2.248 23.5-1.063 6.433-3.76 10.613-8.66 12.977-15.738.956-4.018 1.278-8.084 1.523-12.199z" fill="rgba(251, 251, 251, 1)" stroke="none"/>
  <path d="M89 22c3.66 1.432 7.24 2.99 10.813 4.625l2.957 1.352L105 29v2l2 .75c3.764 1.568 7.371 3.395 11 5.25-.589 3.021-.917 3.917-3.188 6.188-3.13 2.017-5.094 2.733-8.812 2.812a248.794 248.794 0 0 1-4-3c-2.676-.563-5.266-.772-8-1-1.833 7.456-2.252 14.467-2.125 22.125l.027 3.188c.024 2.562.056 5.124.098 7.687l.427-1.848c.645-2.781 1.297-5.56 1.948-8.34l.672-2.908.664-2.822.603-2.587C97.027 53.901 97.956 51.478 99 49c4.283.548 6.851 2.024 10.313 4.563l2.675 1.94L114 57l1-1-2-5h-3l-2-4 1.898-.55 2.477-.763 2.46-.738c2.497-.863 2.497-.863 4.165-3.949h2v15h4l-1.5-1.938c-2.01-4.102-1.764-7.576-1.5-12.062 2.25.188 2.25.188 5 1l1.75 2.563c2.12 2.827 2.12 2.827 5.938 2.874 3.629-.192 7.203-.686 10.802-1.174 9.684-1.273 19.244-1.572 29.003-1.524 2.571.011 5.141 0 7.712-.012 12.875-.012 25.376.58 37.795 4.273 1.64.256 3.286.473 4.938.625l2.34.227L229 51v3h7l2 5h2v2c4.084.745 4.084.745 8 0 1.997-2.474 3.36-4.968 4.773-7.813L254 51h2c.822 3.31 1.63 6.624 2.438 9.938l.697 2.806C263.869 83.3 262.098 97.69 252 115h-2v2l-2.438.375L245 118l-1 2v-2h-8l-1.25 2.688c-3.447 6.524-6.983 9.616-13.75 12.312-7.198 2.154-14.385 1.564-21-2-6.91-4.4-9.836-10.247-11.75-18.063L188 111l-1.836.281c-5.945.512-8.915-.358-13.539-4.219l-2.398-2.214c-2.187-1.815-3.457-2.45-6.227-2.848l.14 1.836c.313 7.245-.823 14.247-5.652 19.95C157 125 157 125 155 125l-1 3c-7.156 5.535-15.267 6.045-24 5-3.415-1.226-5.284-3.142-7.625-5.875l-1.79-2.055c-1.498-1.957-2.57-3.83-3.585-6.07l-.883 1.688c-7.806 14.533-7.806 14.533-13.555 17.374-3.952 1.04-6.572.552-10.562-.062-2.149 1.504-2.836 2.671-4 5 .4 2.098.4 2.098 1 4-3.4-2.666-4.326-6.217-5.563-10.188l-.657-2.062A712.96 712.96 0 0 1 81 129l-.73-2.273c-1.522-5.241-1.603-10.56-1.918-15.985-.468-4.981-1.546-9.731-2.73-14.586C75.002 93.018 74.89 90.19 75 87l5 4c1.249-4.953 1.26-9.923 1.438-15 .335-8.13 1.095-15.989 2.562-24 .334-2.104.668-4.208 1-6.313.553-3.322 1.183-6.561 2.063-9.812C88.178 31.262 88.632 26.723 89 22z" fill="rgba(62, 56, 56, 1)" stroke="none"/>
  <path d="M40.492 98.324c11.146 8.131 15.117 22.824 17.301 35.957.587 4.227.935 8.461 1.207 12.719l.167 2.59c1.48 24.334 1.48 24.334.333 35.91a160.922 160.922 0 0 0-.75 12l-.078 2.969c.386 2.98 1.168 3.576 3.328 5.531v3h-3l.617 1.625c.522 3.237-.398 5.297-1.492 8.375-1.859 5.647-2.678 10.81-2.95 16.734C55 238 55 238 54 239a83.431 83.431 0 0 0-.098 4.91l.01 2.998.026 3.155.013 3.166c.012 2.59.028 5.18.049 7.771h-1l.051-1.817c.667-11.439.667-11.439-2.84-21.89-2.32-1.702-4.646-2.994-7.211-4.293-8.413-6.53-15.327-14.233-20.574-23.496a88.442 88.442 0 0 0-2.883-4.727C3.499 180.097-1.435 148.99 2.27 120.27c1.71-7.66 6-13.655 12.48-17.957 7.529-4.371 17.445-8.397 25.742-3.989z" fill="rgba(107, 90, 72, 1)" stroke="none"/>
  <path d="M87 140c4.463-.402 4.463-.402 6.833 1.374l1.69 1.915 1.907 2.106 1.945 2.23c7.404 8.763 7.404 8.763 16.625 15.375l1 3c1.63 1.224 1.63 1.224 3.563 2.188L124 170v2l2.188.813A47.613 47.613 0 0 1 134 177v1c-9.421.586-17.491-5.378-24.965-10.605-2.288-1.569-4.646-2.986-7.035-4.395-9.055 6.81-16.868 13.614-21.64 24.059a141.924 141.924 0 0 1-3.407 6.851l-1.1 2.105a381.17 381.17 0 0 1-2.175 4.1C71.265 204.805 70.29 208.717 70 214c.647 3.044.647 3.044 2.688 3.977L75 219l2.813 1.586C85.02 224.632 92.06 227.697 100 230c-.25 9.9-2.876 19.228-5.4 28.737a522.95 522.95 0 0 0-1.455 5.646c-2.841 11.018-6.415 21.682-15.957 28.68C75 294 75 294 73 294v2l2.953.402c2.772.395 5.526.851 8.281 1.352 8.318 1.5 16.274 2.751 24.766 2.246l-.656-1.555c-6.07-16.694-1.627-34.531 4.656-50.445h2c.125 7.4.125 7.4-.489 10.342-2.474 12.869-1.713 27.956 4.489 39.658 2.989 3.053 5.479 3.504 9.688 3.625 6.084-.104 9.174-2.036 13.57-6.094C144 294 144 294 146 294l.809-1.742c1.232-2.335 2.64-4.297 4.254-6.383 2.17-2.811 2.17-2.811 3.937-5.875h2l.55-1.863c.252-.809.504-1.617.762-2.45l.739-2.425c.99-2.362 2.03-3.6 3.949-5.262-.655 11.13-5.656 20.38-11 30h22l-2-6c-.598-7.576-.32-14.751 2-22 1.968 3.353 2.391 6.285 2.813 10.125.784 5.621 2.304 9.917 5.066 14.852C183 297 183 297 184 300c5.232 1.965 11.232 1.734 16.313-.375L203 298l2.25-.938c2.277-1.382 2.672-2.637 3.75-5.062 2-3.25 2-3.25 4-6h2l.375-1.75c.625-2.25.625-2.25 1.563-4.063 2.546-5.241 3.322-10.442 3.476-16.214l.117-3.897.094-4.014.117-4.095c.094-3.322.18-6.644.258-9.967h2c5.643 12.621 5.862 27.753 2 41l-.555 2.242c-1.817 6.483-5.397 11.445-9.445 16.758l3.313-1c6.48-1.62 13.015-1.474 19.562-.313 3.117.553 3.117.553 5.813-.75 2.522-1.929 2.522-1.929 4.437-5.125L250 292h3v3l-3 1-.625 3.375C248 303 248 303 246.437 304.129c-7.483 2.934-18.82 3.41-26.437.871-6.248-.893-9.643 1.242-14.668 4.59-5.02 3.035-10.607 3.037-16.332 2.41-3.82-1.24-7.185-2.504-9.16-6.129-2.218-2.256-2.835-2.157-5.903-2.226-1.646.036-3.292.093-4.937.168-5.526.165-10.656.215-16.125-.75-4.41-.522-6.336.531-9.813 3.25l-2.09 1.925c-4.14 3.699-7.318 4.057-12.847 4.075l-3.617.05c-4.675-.484-7.981-2.027-11.508-5.113-2.885-1.803-4.671-.829-8-.25-15.06.64-31.533.19-43.5-10.375C50.27 282.361 53.206 255.367 53 238h2l-.14-2.168c-.265-7.302.835-13.135 3.265-20.02 1.073-2.958 1.073-2.958.875-6.812h3l-.215-2.617C62.715 191.75 80.707 175.423 91 166a76.8 76.8 0 0 1 7-5c-1.397-3.165-3.077-5.238-5.5-7.688-3.738-4.126-4.88-7.85-5.5-13.312z" fill="rgba(65, 59, 59, 1)" stroke="none"/>
  <path d="M254 51h2c.822 3.31 1.63 6.624 2.438 9.938l.697 2.806C263.869 83.3 262.098 97.69 252 115h-2v2l-2.438.375L245 118l-1 2v-2h-8l-1.25 2.688c-3.447 6.524-6.983 9.616-13.75 12.312-7.198 2.154-14.385 1.564-21-2-6.91-4.4-9.836-10.247-11.75-18.063L188 111l-1.836.281c-5.855.505-9.003-.362-13.664-4.031-3.787-3.236-6.19-5.696-6.8-10.73-.057-12.907 5.487-25.404 14.113-35.082 6.243-5.466 13.79-8.039 21.996-7.81 2.377.403 4.064 1.268 6.191 2.372 2.522-.216 4.697-.892 7.074-1.742 4.905-1.749 8.714-2.59 13.926-2.258v2h7l2 5h2v2c4.084.745 4.084.745 8 0 1.997-2.474 3.36-4.968 4.773-7.813L254 51z" fill="rgba(248, 159, 56, 1)" stroke="none"/>
  <path d="M255.848.422c6.007 1.613 10.773 7.608 14.125 12.629 4.373 8.297 5.175 17.794 5.23 27.015l.017 2.291c.01 1.594.016 3.189.02 4.783.01 2.392.04 4.783.072 7.174.058 8.672-.653 16.28-2.718 24.726-.815 4.06-.353 6.898.406 10.96 1.041 17.39-1.48 30.642-9.16 46.215L262 140l-1.367 2.793L260 145c.998 1.74 2.004 3.477 3.105 5.152 1.476 3.048.672 5.676-.105 8.848-3.096-3.509-4.742-6.492-6-11h-4l-.766 1.75c-3.304 6.023-9.329 10.875-15.234 14.25h-2v2l-2.75 1.125c-4.67 1.971-9.108 4.383-13.578 6.766C216 175 216 175 213 174h2l.063-1.813C216 170 216 170 218.875 168.813l1.906-.722c8.718-4.282 20.29-14.033 24.219-23.09h2l.75-1.563a126.972 126.972 0 0 1 3.313-6c1.988-3.272 1.988-3.272 2.937-6.437l-1.813-.813c-3.647-1.98-5.664-4.322-7.187-8.187v-4l5-1v-2l1.75-1.563c2.664-2.886 3.85-5.711 5.32-9.316C258 102 258 102 260 99c3.364-13.12.118-27.615-3.414-40.344-.583-2.642-.693-4.96-.586-7.656-3.67 3.277-5.693 6.715-8 11l-8-1v-2h-2l-.563-1.938c-1.38-2.483-1.38-2.483-5.062-2.812L229 54v-3l-1.723.07-2.34.055-2.285.07C220 51 220 51 216.784 50.057c-12.063-3.37-24.714-3.38-37.147-3.318-2.569.011-5.137 0-7.705-.012-9.577-.008-18.908.516-28.4 1.808-11.159 1.47-11.159 1.47-15.095-1.41C127 45 127 45 127 43l-5-1c.291 6.42 1.452 10.621 5 16-2.169-.506-4-1-6-2-.988-2.963-1.134-4.971-1.125-8.063l-.008-2.66C120 43 120 43 121 41l-2.625 2.375c-2.926 2.459-5.65 3.65-9.375 4.625l1 3h3l4 7c-4.696-.783-7.826-3.627-11.563-6.406-2.287-1.496-3.82-2.027-6.437-2.594l-.867 3.902L93 76l-2-1c-.088-3.625-.14-7.25-.188-10.875l-.076-3.07C90.67 54.187 91.622 48.447 94 42c7.536-.377 7.536-.377 10 1.625 1.86 1.586 1.86 1.586 3.91 1.234 3.706-.834 6.858-1.577 9.09-4.859l1-3-2.563-.75c-3.821-1.39-6.956-3.161-10.437-5.25v-2l-2.137-.309c-3.274-.79-5.749-2.096-8.675-3.753l-2.958-1.66L89 22l.086 1.763c.19 7.064-.95 13.435-2.523 20.3-2.598 11.56-3.717 22.562-4.168 34.384C82.2 83.044 81.9 87.474 81 92c-2.779-1.39-4.63-2.324-6.143-5.094-1.107-3.752-1.18-7.344-1.193-11.222l-.025-2.44c-.02-2.603-.02-5.204-.014-7.806v-2.674C73.65 49.783 74.233 37.509 78 25c.347-1.161.694-2.323 1.05-3.52C81.793 13.237 81.793 13.237 85 11c5.22-.79 7.832.777 12 3.813l1.683 1.219A415.402 415.402 0 0 1 104 20l1.786 1.329C114.881 28.116 124.646 35.47 131 45c8.74-1.655 17.353-3.745 25.986-5.877C182.093 33.003 203.013 37.917 227 46c2.75-4.656 5.135-9.332 7.25-14.313l1.816-4.19c.994-2.307 1.984-4.615 2.969-6.926 1.042-2.444 2.097-4.883 3.152-7.321l.972-2.31C245.85 4.756 248.238.025 255.848.422z" fill="rgba(56, 52, 51, 1)" stroke="none"/>
  <path d="M201 184l.86 1.75c3.154 6.223 5.847 10.769 12.14 14.25l1.738 1.074c10.915 4.468 25.802-.087 36.262-4.074 6.311-2.699 11.952-5.343 16-11h2c4.126 17.055 1.637 34.76 0 52-1.626-.309-3.25-.622-4.875-.938l-2.742-.527C260 236 260 236 258 235a69.616 69.616 0 0 0-4.133-.316l-2.441-.127-2.551-.12-2.574-.13c-2.1-.107-4.2-.207-6.301-.307v2a4387.23 4387.23 0 0 1-4.813 1.938l-2.707 1.09A112.154 112.154 0 0 1 227 241l-1 3h-3v-2h-2v29h-1l-.028-2.523a972.69 972.69 0 0 0-.18-9.275c-.042-1.995-.063-3.99-.085-5.985l-.098-3.799-.063-3.507c-.276-2.99-.276-2.99-2.397-4.75-2.226-1.283-2.226-1.283-5.149-2.161l-1.813-2.375c-3.34-4.008-6.884-5.294-11.875-6.562-3.73-1.197-4.37-1.787-6.312-5.063-.695-2.805-.695-2.805-1.125-5.875l-.445-3.055L190 213l-.68-2.992c-1.003-9.421 6.144-18.941 11.68-26.008z" fill="rgba(246, 158, 54, 1)" stroke="none"/>
  <path d="M40.633 98.57A83.66 83.66 0 0 1 47 104l-1 2-5-3c1.394 2.39 2.734 4.678 4.5 6.813 4.125 6.015 5.223 13.154 6.5 20.187.352 1.73.706 3.459 1.063 5.188C54.587 142.92 55.096 150.118 55 158l-10-3v-2h-9v-2c-2.68-1.753-3.869-2.013-7.125-1.688-2.797.554-2.797.554-4.875 1.688l-1 3-9 1v-15h-2c-.836 4.778-1.475 9.562-2.063 14.375l-.275 2.23C9.44 158.404 9.22 160.202 9 162H7l1.438 3.125c2.317 6.057 2.3 12.46 2.562 18.875-2.154-2.154-2.563-3.26-3.438-6.113l-.77-2.513C1.36 156.94-3.815 132.333 4.438 113.766c4.84-8.569 11.812-13.485 21.21-16.246 5.464-1.208 10.011-1.916 14.985 1.05z" fill="rgba(107, 91, 73, 1)" stroke="none"/>
  <path d="M271 214h1c.193 17.446.193 17.446-1 25l-1 1c-.327 2.5-.611 4.993-.875 7.5-1.092 9.36-3.598 16.762-7.926 25.145-1.56 3.065-2.89 6.175-4.199 9.355l-1.25 2.75c-.972 2.916-.062 4.42.984 7.207.266 2.043.266 2.043-.843 3.93l-1.641 1.8-1.61 1.825C251 301 251 301 248 302c.506-2.169 1-4 2-6h2l1-3h-3c-1.437 1.748-1.437 1.748-2.75 3.938-2.349 3.315-2.851 3.947-6.938 5.125C237 302 237 302 234 301c-6.407-.352-12.665.044-19 1 1.205-2.739 2.55-4.69 4.438-7.063 6.412-8.795 6.741-21 6.75-31.5l.037-2.498c.011-4.767-.547-8.423-2.225-12.939 0-4 0-4 1.61-5.633l2.14-1.492 2.11-1.508c3.762-2.403 5.542-3.367 10.14-3.367v-2c10.764-.43 19.926-.425 30 4l-.035-2.203c-.066-7.323.312-14.51 1.035-21.797z" fill="rgba(64, 57, 56, 1)" stroke="none"/>
  <path d="M221 242h2c5.643 12.621 5.862 27.753 2 41l-.555 2.242c-1.817 6.483-5.397 11.445-9.445 16.758l3.313-1c6.48-1.62 13.015-1.474 19.562-.313 3.117.553 3.117.553 5.813-.75 2.522-1.929 2.522-1.929 4.437-5.125L250 292h3v3l-3 1-.625 3.375C248 303 248 303 246.437 304.129c-7.483 2.934-18.82 3.41-26.437.871-6.248-.893-9.643 1.242-14.668 4.59-5.02 3.035-10.607 3.037-16.332 2.41-3.82-1.24-7.185-2.504-9.16-6.129-2.218-2.256-2.835-2.157-5.903-2.226-1.646.036-3.292.093-4.937.168-5.526.165-10.656.215-16.125-.75-4.41-.522-6.336.531-9.813 3.25l-2.09 1.925c-4.14 3.699-7.318 4.057-12.847 4.075l-3.617.05c-4.675-.484-7.981-2.027-11.508-5.113-2.885-1.803-4.671-.829-8-.25-13.583.577-29.692.696-40.805-8.492-1.622-2.046-1.85-3.957-2.195-6.508l2 .813L67 294l3.48 1.469c5.16 1.926 10.388 2.563 15.832 3.219l2.936.392c6.613.834 13.09 1.074 19.752.92l-.699-1.765c-6.235-16.418-1.473-34.6 4.699-50.235h2c.125 7.4.125 7.4-.489 10.342-2.474 12.869-1.713 27.956 4.489 39.658 2.989 3.053 5.479 3.504 9.688 3.625 6.084-.104 9.174-2.036 13.57-6.094C144 294 144 294 146 294l.809-1.742c1.232-2.335 2.64-4.297 4.254-6.383 2.17-2.811 2.17-2.811 3.937-5.875h2l.55-1.863c.252-.809.504-1.617.762-2.45l.739-2.425c.99-2.362 2.03-3.6 3.949-5.262-.655 11.13-5.656 20.38-11 30h22l-2-6c-.598-7.576-.32-14.751 2-22 1.968 3.353 2.391 6.285 2.813 10.125.784 5.621 2.304 9.917 5.066 14.852C183 297 183 297 184 300c5.232 1.965 11.232 1.734 16.313-.375L203 298l2.25-.938c2.277-1.382 2.672-2.637 3.75-5.062 2-3.25 2-3.25 4-6h2l.375-1.75c.625-2.25.625-2.25 1.563-4.063 2.546-5.241 3.322-10.442 3.476-16.214l.117-3.897.094-4.014.117-4.095c.094-3.322.18-6.644.258-9.967z" fill="rgba(23, 22, 23, 1)" stroke="none"/>
  <path d="M91 11c2.938 1.582 2.938 1.582 6 3.813l1.683 1.219A415.402 415.402 0 0 1 104 20l1.786 1.329C114.881 28.116 124.646 35.47 131 45c8.74-1.655 17.353-3.745 25.986-5.877C182.093 33.003 203.013 37.917 227 46l1.938-3.375 1.09-1.898A85.4 85.4 0 0 0 232 37l3-1 1-2h3c-.428 4.57-2.465 7.478-5.04 11.133L233 47l1 3 3 1-1 2c-3.46-.473-6.917-.955-10.375-1.438l-2.984-.408-2.852-.4-2.634-.365C215 50 215 50 213 49c-11.1-1.951-22.12-2.316-33.363-2.26-2.569.01-5.137 0-7.705-.013-9.577-.008-18.908.516-28.4 1.808-11.159 1.47-11.159 1.47-15.095-1.41C127 45 127 45 127 43l-5-1c.291 6.42 1.452 10.621 5 16-2.169-.506-4-1-6-2-.988-2.963-1.134-4.971-1.125-8.063l-.008-2.66C120 43 120 43 121 41l-2.625 2.375c-2.926 2.459-5.65 3.65-9.375 4.625l1 3h3l4 7c-4.696-.783-7.826-3.627-11.563-6.406-2.287-1.496-3.82-2.027-6.437-2.594l-.867 3.902L93 76l-2-1c-.088-3.625-.14-7.25-.188-10.875l-.076-3.07C90.67 54.187 91.622 48.447 94 42c7.536-.377 7.536-.377 10 1.625 1.86 1.586 1.86 1.586 3.91 1.234 3.706-.834 6.858-1.577 9.09-4.859l1-3-2.563-.75c-3.821-1.39-6.956-3.161-10.437-5.25v-2l-2.137-.309c-3.274-.79-5.749-2.096-8.675-3.753l-2.958-1.66L89 22l.086 1.763c.19 7.064-.95 13.435-2.524 20.3-2.597 11.56-3.716 22.562-4.167 34.384C82.2 83.044 81.9 87.474 81 92c-2.779-1.39-4.63-2.324-6.143-5.094-1.107-3.752-1.18-7.344-1.193-11.222l-.025-2.44c-.02-2.603-.02-5.204-.014-7.806v-2.674C73.65 49.783 74.233 37.509 78 25c.347-1.161.694-2.323 1.05-3.52C82.896 9.917 82.896 9.917 91 11z" fill="rgba(14, 12, 14, 1)" stroke="none"/>
  <path d="M92.14 171.633c7.202 1.68 11.152 5.853 15.86 11.367l1.57 1.727c6.995 8.502 7.361 20.79 6.43 31.273-.845 4.234-2.236 7.193-5.25 10.375-5.681 3.357-10.34 4.172-16.75 2.625-3.087-1.166-6.034-2.558-9-4l-2.621-1.2C77.47 221.49 73.395 219.38 70 215c-1.177-3.85-.963-6.021.625-9.688l1.145-2.648A293.26 293.26 0 0 1 78 190l1.7-3.344 1.8-3.469 1.656-3.207c4.71-7.614 4.71-7.614 8.985-8.347z" fill="rgba(249, 162, 60, 1)" stroke="none"/>
  <path d="M154 90l2.758 1.348c3.234 1.977 5.126 3.486 7.242 6.652 1.56 7.427.471 16.501-3.375 23.063C158 124 158 124 155 125l-1 3c-7.156 5.535-15.267 6.045-24 5-5.84-2.124-10.294-8.025-12.938-13.5-1.591-5.243-1.974-9.372.25-14.563L119 102l1.375-3.688c1.822-3.713 2.99-4.539 6.625-6.312l1.938-1.563C136.538 85.14 146.105 85.822 154 90z" fill="rgba(7, 9, 7, 1)" stroke="none"/>
  <path d="M41 170h12l1 29h2v-7l2-1 .113 2.52.2 3.292.175 3.27c.561 3.199 1.183 3.839 3.512 5.918v3h-3l.617 1.625c.522 3.237-.398 5.297-1.492 8.375-1.859 5.647-2.678 10.81-2.95 16.734C55 238 55 238 54 239a83.431 83.431 0 0 0-.098 4.91l.01 2.998.026 3.155.013 3.166c.012 2.59.028 5.18.049 7.771h-1l-.044-1.864c-.075-2.796-.171-5.59-.269-8.386l-.068-2.934-.107-2.832-.08-2.602c-.512-2.82-1.65-4.182-3.432-6.382v-2a89.261 89.261 0 0 0-2-4h-2v-3h-2v-2h-2c-4.052-5.34-7.267-11.172-9.836-17.348-1.91-4.354-4.102-8.57-6.26-12.805-5.87-11.595-5.87-11.595-5.966-15.097 1.694-2.79 4.115-3.547 7.062-4.75h2v-3l2.336.07 3.039.055 3.023.07c2.765.077 2.765.077 4.602-2.195z" fill="rgba(108, 90, 72, 1)" stroke="none"/>
  <path d="M213 90v2l3.625.313c8.206 1.122 11.771 4.954 16.738 11.312 2.844 4.127 2.96 7.457 2.637 12.375-1.465 5.678-3.709 10.991-8.895 14.156-6.88 3.575-13.508 5.063-21.222 3.383-6.87-2.272-12.045-6.284-15.32-12.789-2.184-5.623-2.702-11.148-.868-16.95 2.545-5.612 6.315-10.022 11.618-13.175 3.9-.907 7.701-.781 11.687-.625z" fill="rgba(8, 9, 7, 1)" stroke="none"/>
  <path d="M89 22c3.66 1.432 7.24 2.99 10.813 4.625l2.957 1.352L105 29v2l2 .75c3.764 1.568 7.371 3.395 11 5.25-.589 3.021-.917 3.917-3.188 6.188-3.13 2.017-5.094 2.733-8.812 2.812a248.794 248.794 0 0 1-4-3c-2.676-.563-5.266-.772-8-1-1.833 7.456-2.252 14.467-2.125 22.125l.027 3.188c.024 2.562.056 5.124.098 7.687l.427-1.848c.645-2.781 1.297-5.56 1.948-8.34l.672-2.908.664-2.822.603-2.587C97.027 53.901 97.956 51.478 99 49c4.713.502 7.843 2.702 11.563 5.438 4.995 3.646 4.995 3.646 10.437 6.562.288 3.05.437 5.96 0 9-3.174 2.91-4.652 3-9 3v2l-3.188 1.188c-2.952 1.235-4.092 2.099-6.437 4.5C100 83 100 83 97.375 83.438 95 83 95 83 92 81l-.875 2.25C88.5 89.667 88.5 89.667 85 92h-3c-.06-4.23-.094-8.458-.125-12.688-.017-1.178-.034-2.357-.05-3.572C81.78 67.627 82.567 59.977 84 52c.336-2.104.67-4.208 1-6.312.553-3.323 1.183-6.562 2.063-9.813C88.178 31.262 88.632 26.723 89 22z" fill="rgba(242, 157, 57, 1)" stroke="none"/>
  <path d="M87 140c4.463-.402 4.463-.402 6.833 1.374l1.69 1.915 1.907 2.106 1.945 2.23c7.404 8.763 7.404 8.763 16.625 15.375l1 3c1.63 1.224 1.63 1.224 3.563 2.188L124 170v2l2.188.813A47.613 47.613 0 0 1 134 177v1c-9.421.586-17.491-5.378-24.965-10.605-2.288-1.569-4.646-2.986-7.035-4.395-10.325 7.765-17.615 15.237-23 27-1.377 2.822-2.782 5.63-4.188 8.438l-1.046 2.117c-1.462 2.94-2.942 5.71-4.766 8.445-.604 2.148-.604 2.148-1 4.535l-.5 2.705-.5 2.822-1 5.473-.496 2.739c-.93 5.035-1.916 10.064-3.02 15.064-.467 2.566-.64 4.94-.69 7.544l-.06 2.85-.05 3.038-.063 3.14c-.066 3.3-.125 6.601-.184 9.902l-.13 6.725c-.107 5.488-.21 10.975-.307 16.463l-3-1c-3.807-17.718-4.786-34.95-5-53h2l-.14-2.168c-.265-7.302.835-13.135 3.265-20.02 1.073-2.958 1.073-2.958.875-6.812h3l-.215-2.617C62.715 191.75 80.707 175.423 91 166a76.8 76.8 0 0 1 7-5c-1.397-3.165-3.077-5.238-5.5-7.688-3.738-4.126-4.88-7.85-5.5-13.312z" fill="rgba(17, 14, 14, 1)" stroke="none"/>
  <path d="M264 159c1.82.188 1.82.188 4 1 4.263 6.07 6.735 13.617 9.25 20.563l.746 2.033c8.773 25.211 7.247 58.536-3.246 83.091-4.578 9.354-10.26 18.176-16.75 26.313l-4-1c.44-5.27.741-7.805 4-12a78.58 78.58 0 0 0 1.938-4.75c1.226-3.215 2.537-6.232 4.187-9.25 3.626-7.095 4.09-15.013 4.629-22.848C269 240 269 240 270 239c1.272-8.289 1.243-16.632 1.25-25l.002-2.235c-.022-15.45-2.193-29.17-6.714-43.97-1.642-5.483-1.642-5.483-.538-8.795z" fill="rgba(22, 19, 20, 1)" stroke="none"/>
  <path d="M221 242h2c5.643 12.621 5.862 27.753 2 41l-.555 2.242c-1.817 6.483-5.397 11.445-9.445 16.758l3.313-1c6.48-1.62 13.015-1.474 19.562-.313 3.117.553 3.117.553 5.813-.75 2.522-1.929 2.522-1.929 4.437-5.125L250 292h3v3l-3 1-.625 3.375C248 303 248 303 246.437 304.129c-7.483 2.934-18.82 3.41-26.437.871-6.248-.893-9.643 1.242-14.668 4.59-5.02 3.035-10.607 3.037-16.332 2.41-3.847-1.248-7.125-2.562-9.273-6.094-1.687-2.25-1.687-2.25-5.082-2.515l-3.833-.141-3.855-.172L164 303v-1l2.738-.113 3.575-.2 3.55-.175c3.235-.528 4.224-.936 6.137-3.512 5.75 1.875 5.75 1.875 8 3 5.8.603 9.927.068 15-3l2.25-.938c2.277-1.382 2.672-2.637 3.75-5.062 2-3.25 2-3.25 4-6h2l.375-1.75c.625-2.25.625-2.25 1.563-4.063 2.546-5.241 3.322-10.442 3.476-16.214l.117-3.897.094-4.014.117-4.095c.094-3.322.18-6.644.258-9.967z" fill="rgba(20, 20, 20, 1)" stroke="none"/>
  <path d="M91 11c2.887 1.574 2.887 1.574 5.688 3.688l2.824 2.074c2.501 2.25 3.793 4.37 5.488 7.238l3 1c.688 2.063.688 2.063 1 4-7.156-.917-13.992-2.93-20-7l.086 1.763c.19 7.064-.95 13.435-2.524 20.3-2.597 11.56-3.716 22.562-4.167 34.384C82.2 83.044 81.9 87.474 81 92c-2.779-1.39-4.63-2.324-6.143-5.094-1.107-3.752-1.18-7.344-1.193-11.222l-.025-2.44c-.02-2.603-.02-5.204-.014-7.806v-2.674C73.65 49.783 74.233 37.509 78 25c.347-1.161.694-2.323 1.05-3.52C82.892 9.93 82.892 9.93 91 11z" fill="rgba(26, 22, 22, 1)" stroke="none"/>
  <path d="M122 42c2.25.188 2.25.188 5 1l1.75 2.563c2.12 2.827 2.12 2.827 5.938 2.874 2.929-.155 5.788-.502 8.695-.902 9.37-1.276 18.527-1.727 27.992-1.722l3.564-.002c7.07.043 14.033.415 21.061 1.189v3c-5.85 3.393-11.276 4.864-17.898 6.14-3.005.596-5.94 1.338-8.891 2.157C156.086 61.918 140.88 65.623 128 59c-2.5-2.5-2.5-2.5-4-5l-2-3c-.195-2.262-.195-2.262-.125-4.688l.055-2.449L122 42z" fill="rgba(246, 157, 55, 1)" stroke="none"/>
  <path d="M269 82h1l.938 3.438c.691 3.35.691 3.35 2.062 4.562 1.5 17.236-1.592 30.871-9.16 46.215L262 140l-1.367 2.793L260 145c.998 1.74 2.004 3.477 3.105 5.152 1.476 3.048.672 5.676-.105 8.848-3.096-3.509-4.742-6.492-6-11h-4l-.766 1.75c-3.304 6.023-9.329 10.875-15.234 14.25h-2v2l-2.75 1.125c-4.67 1.971-9.108 4.383-13.578 6.766C216 175 216 175 213 174h2c.03-.897.03-.897.063-1.813.937-2.187.937-2.187 3.812-3.375l1.906-.722c8.718-4.282 20.29-14.033 24.219-23.09h2l.75-1.563c4.698-9.161 4.698-9.161 7.25-10.437.957-2.038.957-2.038 1.813-4.5 1.653-4.342 3.622-8.236 6.039-12.2 2.81-5.63 3.6-11.627 4.273-17.8l.262-2.184c.395-3.47.612-6.781.605-10.285C268 83 268 83 269 82z" fill="rgba(22, 21, 21, 1)" stroke="none"/>
  <path d="M253.813.188c6.163.488 9.788 5.152 13.695 9.484 6.838 8.598 7.644 20.118 7.66 30.71l.01 2.356c.005 1.632.007 3.264.007 4.896.002 2.49.02 4.981.04 7.471.003 1.593.005 3.185.005 4.778l.022 2.241c-.018 4.07-.44 7.213-2.252 10.876h-2l.14-2.36c.276-8.523-.792-16.145-2.63-24.446-.882-3.99-1.62-7.867-1.987-11.94-.37-3.726-1.276-6.625-2.96-10.004-1.306-2.666-2.55-5.213-3.536-8.016L259 14l-3-1v-2c-3.853 1.284-4.102 2.524-5.938 6.063l-1.566 2.992L247 23l-1.277 2.508A587.235 587.235 0 0 0 243 31l-1.875-.625L239 30l-2 2c-1.257-3.53-.758-5.37.695-8.773l1.172-2.75 1.258-2.852 1.188-2.828c5.704-13.161 5.704-13.161 12.5-14.61z" fill="rgba(17, 16, 16, 1)" stroke="none"/>
  <path d="M12 140h2l.028 2.364c.055 3.608.138 7.216.222 10.823l.043 3.717c.311 11.794 3.163 22.025 8.707 32.409l2 3.863.998 1.902c2.347 4.504 4.584 9.064 6.818 13.625l1.746 3.547c.58 1.18 1.158 2.362 1.754 3.578 1.399 2.635 2.9 4.807 4.684 7.172v2h2v2h2v3h2a125.024 125.024 0 0 1 4 6c-7.425-.464-13.448-7.02-18.36-12.11-2.937-3.385-5.251-7.108-7.64-10.89l-2.2-3.266C13.78 196.3 10.128 184.24 8.31 168.191c-.3-2.117-.752-4.128-1.31-6.191h2l.148-3.29.227-4.335c.03-.713.062-1.426.094-2.16.241-4.387.924-8.074 2.531-12.215z" fill="rgba(21, 17, 16, 1)" stroke="none"/>
  <path d="M103 20c10.427 5.971 21.306 14.96 28 25 6.877-1.256 13.628-2.869 20.377-4.679 3.624-.942 6.876-1.538 10.623-1.321l-1 2h-6l-1 3 26 1v1l-1.842.06c-15.302.52-15.302.52-30.533 2.002-15.267 1.932-15.267 1.932-19.188-.937C127 45 127 45 127 43l-5-1c.291 6.42 1.452 10.621 5 16-2.169-.506-4-1-6-2-.988-2.963-1.134-4.971-1.125-8.063l-.008-2.66C120 43 120 43 121 41l-2.625 2.375c-2.926 2.459-5.65 3.65-9.375 4.625l1 3h3l4 7c-4.696-.783-7.826-3.627-11.563-6.406-2.287-1.496-3.82-2.027-6.437-2.594l-.867 3.902L93 76l-2-1c-.088-3.625-.14-7.25-.188-10.875l-.076-3.07C90.67 54.187 91.622 48.447 94 42c7.536-.377 7.536-.377 10 1.625 1.86 1.586 1.86 1.586 3.91 1.234 3.706-.834 6.858-1.577 9.09-4.859l1-3-2.563-.75c-3.821-1.39-6.956-3.161-10.437-5.25v-2l-5-1 3-2v2h5l-1-3h-3l-1-5z" fill="rgba(27, 11, 3, 1)" stroke="none"/>
  <path d="M266 66h3c1.46 2.647 2 3.894 2 7h2l1-3c-1.34 12.837-1.34 12.837-3 19l-2-6 .07 1.695c.348 15.439-2.96 27.954-10.449 41.29A63.154 63.154 0 0 0 255 134l-1-3a89.261 89.261 0 0 0-4-2c-2.418-2.046-3.838-4.05-5-7v-4l5-1v-2l1.75-1.563c2.664-2.886 3.85-5.711 5.32-9.316C258 102 258 102 260 99c1.41-5.85 1.029-11.75.873-17.719-.03-2.094.042-4.189.127-6.281l2-2a252.854 252.854 0 0 0 2-6l1-1z" fill="rgba(60, 54, 55, 1)" stroke="none"/>
  <path d="M99 49c4.713.502 7.843 2.702 11.563 5.438 4.995 3.646 4.995 3.646 10.437 6.562.288 3.05.437 5.96 0 9-3.174 2.91-4.652 3-9 3v2l-3.188 1.188c-2.952 1.235-4.092 2.099-6.437 4.5C100 83 100 83 97.25 83.374 95 83 95 83 94 82c.012-2.789.096-5.53.25-8.313l.135-2.46C94.893 63.486 96.55 56.347 99 49z" fill="rgba(249, 184, 147, 1)" stroke="none"/>
  <path d="M51 132h2c1.326 8.775 2.244 17.105 2 26l-10-3v-2h-9v-2c-2.68-1.753-3.869-2.013-7.125-1.688-2.797.554-2.797.554-4.875 1.688l-1 3-9 1c-.4-3.493-.23-4.697 1.938-7.563L18 145c.643-2.087.643-2.087 1-4l1.898-.367 2.477-.508 2.46-.492c2.352-.5 2.352-.5 4.165-2.633 6.523-1.33 13.373-1.127 20-1l1-4z" fill="rgba(246, 159, 60, 1)" stroke="none"/>
  <path d="M227 275c4.343 2.044 8.241 4.715 12.246 7.344 4.505 2.71 8.56 3.931 13.754 4.656-1.987 5.466-4.832 9.924-9 14-4.086 1.226-5.985 1.338-10 0-6.407-.352-12.665.044-19 1 1.187-2.697 2.474-4.574 4.375-6.875 3.347-4.526 4.434-9.735 5.828-15.113C226 277 226 277 227 275z" fill="rgba(246, 246, 246, 1)" stroke="none"/>
  <path d="M40 99l7 5-1 2-5-3c1.411 2.42 2.767 4.72 4.563 6.875C48.322 113.955 49 118.149 49 123c-3.42-.423-6.722-.92-10-2-1.625-2.625-1.625-2.625-2-5a271.487 271.487 0 0 0-4.375-.625l-2.46-.352L28 115l-2 2c-1.953-.2-1.953-.2-4.25-.688-3.406-.467-3.406-.467-6.605.551-3.225 2.572-5.02 5.198-6.145 9.137H7c-.773-6.053.871-9.102 4.422-13.988C16.645 105.353 22.75 102.424 31 101c3.5-.125 3.5-.125 6 0v2h2l1-4z" fill="rgba(234, 162, 74, 1)" stroke="none"/>
  <path d="M213 90v2l3.625.313c3.944.49 6.95 1.599 10.375 3.687l1 2h-3v-2l-3.563-.375c-3.978-.49-7.615-1.43-11.437-2.625-4.295 5.539-7.218 10.071-6.813 17.375.971 4.33 2.31 8.454 3.813 12.625-5.04-.445-7.376-2.713-11-6l-2 2-3 3c-2.466-5.856-3.219-12.081-1.313-18.21 2.575-5.602 6.318-10.01 11.625-13.165 3.901-.907 7.702-.781 11.688-.625z" fill="rgba(17, 15, 11, 1)" stroke="none"/>
  <path d="M87 140c4.463-.402 4.463-.402 6.833 1.374l1.69 1.915 1.907 2.106 1.945 2.23c7.404 8.763 7.404 8.763 16.625 15.375l1 3c1.63 1.224 1.63 1.224 3.563 2.188L124 170v2l2.188.813A47.613 47.613 0 0 1 134 177v1c-9.421.586-17.491-5.378-24.965-10.605-2.288-1.569-4.646-2.986-7.035-4.395l-2.117 1.715-2.758 2.222-2.742 2.215C92 171 92 171 90 172l-3-2a506249345.757 506249345.757 0 0 0 5.957-5.273C95 163 95 163 98 161c-1.397-3.165-3.077-5.238-5.5-7.688-3.738-4.126-4.88-7.85-5.5-13.312z" fill="rgba(25, 23, 24, 1)" stroke="none"/>
  <path d="M177 129h1l-.07 3.727c-.02 1.632-.037 3.265-.055 4.898-.017.808-.034 1.616-.05 2.45-.04 4.726.348 8.479 2.175 12.925h2v2c8.81-.568 13.731-2.557 20-9h2c-1.78 5.872-5.687 10.008-10.25 13.938-4.254 1.643-8.26 1.85-12.75 1.062a47659352349440590 47659352349440590 0 0 0-6-10h-2l-.813 1.938C171 155 171 155 168 156v2c-4.431 1.418-8.302 2.626-13 2-2.303-1.867-3.678-3.356-5-6-.04-2.333-.043-4.667 0-7h2l3 7c3.2.574 5.36.347 8.227-1.207 8.445-6.03 11.75-13.863 13.773-23.793z" fill="rgba(31, 31, 31, 1)" stroke="none"/>
  <path d="M43.82 169.805L53 170l-1 13-3.473.184-4.59.254-2.279.119c-4.605.259-9.102.723-13.658 1.443v2h-2l-1 3c-3-1-3-1-4.75-4.313C19 182 19 182 18.938 179.75c1.694-2.79 4.115-3.547 7.062-4.75h2v-3l2.336.07 3.039.055 3.023.07c3.485-.261 3.87-2.144 7.422-2.39z" fill="rgba(246, 160, 60, 1)" stroke="none"/>
  <path d="M57 191h1l.113 2.52.2 3.292.175 3.27c.561 3.199 1.183 3.839 3.512 5.918v3h-3l.617 1.625c.522 3.237-.398 5.297-1.492 8.375-1.859 5.647-2.678 10.81-2.95 16.734C55 238 55 238 54 239a83.431 83.431 0 0 0-.098 4.91l.01 2.998.025 3.155.014 3.166c.012 2.59.028 5.18.049 7.771h-1l-.044-1.864c-.075-2.796-.171-5.59-.269-8.386l-.068-2.934-.107-2.832-.08-2.602c-.512-2.82-1.65-4.182-3.432-6.382v-2a89.261 89.261 0 0 0-2-4h-2v-3h-2v-2l-2-1 1.68-2.012 2.195-2.676 2.18-2.636c2.031-2.563 2.031-2.563 3.039-5.426C51 209 51 209 53.625 207.687L56 207l-2-8h2l-.063-3.438C56 192 56 192 57 191z" fill="rgba(104, 89, 73, 1)" stroke="none"/>
  <path d="M185 46c11.935-.407 23.512.656 35 4 1.64.256 3.286.473 4.938.625l2.34.227L229 51v1l-2.922.586-3.828.789-3.797.773c-2.84.7-4.903 1.515-7.453 2.852-2.063-.313-2.063-.313-4-1-5.632-1.877-10.702-1.921-16.254.305A187.095 187.095 0 0 0 182 61l-2 1v-3c-1.71.088-3.417.196-5.125.313l-2.883.175c-3.055.348-3.055.348-5.65 2.026-4.144 1.843-7.334 1.87-11.803 1.779l-2.396-.013a872.916 872.916 0 0 1-7.518-.092c-1.707-.016-3.414-.03-5.121-.042-4.168-.032-8.336-.084-12.504-.146v-5l1.844.656c14.974 4.757 27.998 2.102 42.668-1.985 4.64-1.251 9.332-2.28 14.021-3.326 3.642-.836 7.042-1.847 10.467-3.345v-3h-11v-1z" fill="rgba(91, 65, 40, 1)" stroke="none"/>
  <path d="M38 97c1.063 1.875 1.063 1.875 2 4l-1 2h-2v-2a722.168 722.168 0 0 0-7.625 1.75l-2.16.477C19.592 105.045 14.638 108.607 10 115c-3.24 6.11-3.684 11.848-4.125 18.688-.146 2.045-.294 4.09-.445 6.136-.06.898-.12 1.796-.18 2.722C5.02 144.79 4.612 146.832 4 149H1c-.706-32.061-.706-32.061 8.496-42.555C17.473 98.78 27.238 96.393 38 97z" fill="rgba(32, 25, 28, 1)" stroke="none"/>
  <path d="M213 97c6.513 1.583 11.268 3.147 16 8 1.617 4.851 1.697 8.52-.5 13.188-3.049 3.43-6.15 5.367-10.5 6.812h-4c1.875-6.875 1.875-6.875 3-8 .817-6.993-.198-11.178-4-17v-3z" fill="rgba(95, 125, 86, 1)" stroke="none"/>
  <path d="M254 51h2a1922.46 1922.46 0 0 1 2.5 10.125l.723 2.883c1.155 4.753 2.11 9.06 1.777 13.992-2.125.813-2.125.813-5 1-3-2.25-3-2.25-4.512-3.656-1.975-1.784-4.184-3.028-6.488-4.344-1-1-1-1-1.098-2.848L244 62l1.805-.184c3.135-1.166 3.761-2.977 5.32-5.879A82.004 82.004 0 0 1 254 51z" fill="rgba(249, 185, 147, 1)" stroke="none"/>
  <path d="M92 28c4.14.478 7.338 1.055 11 3l3.5.875c3.658 1.176 5.243 2.055 7.5 5.125v4c-6.86.949-13.14.949-20 0l-3 7c-1.563-1.438-1.563-1.438-3-4-.238-5.862 1.458-10.806 4-16z" fill="rgba(248, 157, 48, 1)" stroke="none"/>
  <path d="M174 270c1.968 3.353 2.391 6.285 2.813 10.125.897 6.42 2.95 11.313 6.187 16.875l1 2h-6l-1 3c-1.32.09-1.32.09-2.668.184l-3.52.253-3.48.247c-3.225.232-3.225.232-5.894.91-2.99.498-5.29.075-8.25-.531l-2.958-.59L148 302v-2l2-1 1-3 1 2h22l-2-6c-.598-7.576-.32-14.751 2-22z" fill="rgba(28, 27, 28, 1)" stroke="none"/>
  <path d="M94 42c6.699-.837 6.699-.837 10.313 1.488C106.35 45.245 108.255 46.95 110 49v2h3l4 7c-4.696-.783-7.826-3.627-11.563-6.406-2.287-1.496-3.82-2.027-6.437-2.594l-.867 3.902L93 76l-2-1c-.088-3.625-.14-7.25-.188-10.875l-.076-3.07C90.67 54.187 91.622 48.447 94 42z" fill="rgba(9, 7, 14, 1)" stroke="none"/>
  <path d="M51 132h2c1.326 8.775 2.244 17.105 2 26l-10-3v-2h-9v-2c-2.68-1.753-3.869-2.013-7.125-1.688-2.797.554-2.797.554-4.875 1.688l-1 3-9 1c-.4-3.493-.23-4.697 1.938-7.563L18 145c.643-2.087.643-2.087 1-4l1.898-.367 2.477-.508 2.46-.492c2.352-.5 2.352-.5 4.165-2.633 6.523-1.33 13.373-1.127 20-1l1-4zm-2 6l-1 1c-3.499.032-6.987-.069-10.484-.16-3.41.155-5.443.798-8.516 2.16l-3.625.188L22 142c-2.146 3.284-2.146 3.284-3 7l1 3 1.121-1.422c2.545-2.137 4.677-2.336 7.942-2.828l3.222-.516C35 147 35 147 37 148l1 3 2.012.402L48 153l2.832.566L53 154c.054-1.729.093-3.458.125-5.188l.07-2.917c-.204-3.023-.926-5.163-2.195-7.895h-2z" fill="rgba(215, 152, 77, 1)" stroke="none"/>
  <path d="M168 81h1v8h-2l1 8 3 1 .875 3.438c.75 3.601.75 3.601 3.188 5.062 4.103.698 7.852.159 11.937-.5l.332-1.934.48-2.504.458-2.496L189 97l3-1 2-3h2v-2c10.028-4.54 18.793-3.72 29 0v2l4 1 1 6-1.578-1.86c-2.94-2.598-5.41-3.337-9.172-4.39l-3.547-1.016L213 92v-2c-7.533.485-13.003 1.56-18.25 7.375-4.234 5.296-5.077 10.007-5.75 16.625l-1-3-1.836.281c-5.855.505-9.003-.362-13.664-4.031-3.816-3.26-6.235-5.71-6.766-10.8.032-5.545.405-10.215 2.266-15.45z" fill="rgba(229, 163, 87, 1)" stroke="none"/>
  <path d="M169 38c2.29-.372 2.29-.372 5.121-.363l3.084.002 3.232.048 3.221-.01c7.941.056 7.941.056 11.342 2.323v2l-2 2 3 2c-14.681.205-29.332-.419-44-1 2.69-3.896 2.69-3.896 5.48-4.828l2.708-.422 2.73-.453L165 39v2h2l2-3z" fill="rgba(9, 3, 3, 1)" stroke="none"/>
  <path d="M141 91c5.565.14 8.303 2.573 12.266 6.113 2.365 2.574 3.683 4.529 3.816 8.07-.548 4.58-1.053 8.162-4.082 11.817-5.297 4-5.297 4-8 4l.5-2.313c1.112-8.198 1.628-13.85-3.5-20.687-.75-3.875-.75-3.875-1-7z" fill="rgba(98, 124, 88, 1)" stroke="none"/>
  <path d="M56 145l1 2h2c1.837 34.764 1.837 34.764 0 44l-2 1a108.817 108.817 0 0 0-1 7h-2c-1.485-5.072-1.184-10.194-1.188-15.438l-.037-3.142-.005-3.041-.013-2.764c.267-2.87 1.165-4.955 2.243-7.615.359-2.602.359-2.602.414-5.3l.117-2.96.094-3.053.117-3.11c.094-2.526.18-5.051.258-7.577z" fill="rgba(48, 42, 42, 1)" stroke="none"/>
  <path d="M254.25 42.5c3.17.576 3.547 1.032 5.438 3.5 6.087 9.648 5.4 22.145 3.312 33-2.256-3.835-3.087-8.021-4.063-12.313l-.525-2.224A135.78 135.78 0 0 1 256 51c-2.968 2.764-4.963 5.507-7 9h-1c-.38-6.192.12-10.47 3-16 1-1 1-1 3.25-1.5z" fill="rgba(21, 12, 11, 1)" stroke="none"/>
  <path d="M89 22c3.66 1.432 7.24 2.99 10.813 4.625l2.957 1.352L105 29v2l2 1c-5.52-.753-5.52-.753-8.063-2.063-2.42-1.17-4.279-1.002-6.937-.937-1.67 6.208-3.2 12.256-3.732 18.671-.267 2.316-.734 4.493-1.26 6.763-1.291 6.31-1.422 12.58-1.57 19.004-.06 2.31-.124 4.622-.192 6.933l-.072 3.06C85 86 85 86 84 89c3.125-1.635 3.125-1.635 3.688-4.125L88 83l3 1c-2.625 5.75-2.625 5.75-6 8h-3c-.06-4.23-.094-8.458-.125-12.688-.017-1.178-.034-2.357-.05-3.572C81.78 67.627 82.567 59.977 84 52c.336-2.104.67-4.208 1-6.312.553-3.323 1.183-6.562 2.063-9.813C88.178 31.262 88.632 26.723 89 22z" fill="rgba(217, 151, 78, 1)" stroke="none"/>
  <path d="M30 102h6v2l1.938.813C40 106 40 106 41 109l2 1.813c2.461 2.691 2.675 4.614 3 8.187h-6l-.313-1.813c-.82-2.61-1.43-3.63-3.687-5.187-3.095-.253-5.201-.4-8 1-2.04.07-4.083.084-6.125.063l-3.32-.028L16 113c.3-1.863.3-1.863 1-4 4.332-2.973 7.702-4.483 13-5v-2z" fill="rgba(245, 160, 62, 1)" stroke="none"/>
  <path d="M122 42c2.25.188 2.25.188 5 1l1.75 2.563c2.12 2.827 2.12 2.827 5.938 2.874 2.929-.155 5.788-.502 8.695-.902 9.37-1.276 18.527-1.727 27.992-1.722l3.564-.002c7.07.043 14.033.415 21.061 1.189v3l-4 1v-3c-14.828.361-29.65.733-44.438 1.938l-2.896.226c-5.413.474-10.432 1.373-15.666 2.836l-1 5c-5.887-5.69-5.887-5.69-6.195-9.262l.07-2.425.055-2.45L122 42z" fill="rgba(232, 158, 68, 1)" stroke="none"/>
  <path d="M240 61h5l-.176 1.863c-.137 2.454-.168 4.702.176 7.137 2.108 1.9 2.108 1.9 5 3 1.02.873 2.02 1.77 3 2.688 2.754 2.538 2.754 2.538 5.875 2.624L261 78c2.891 8.673 1.012 17.982-2.875 26-1.937 3.728-4.008 7.371-6.125 11h-2v2l-2.438.375L245 118l-1 2v-2h-9l.125-4.125c.013-3.992-.596-7.148-2.125-10.875h2c2.567 2.8 4.614 5.14 5 9l-1 3c6.314-.576 6.314-.576 12-3 1.624-2.897 2.853-5.887 4-9h2c2.074-5.112 2.244-9.463 2.125-14.875l-.027-2.375c-.024-1.917-.06-3.833-.098-5.75l-2.375-.375C254 79 254 79 252 77a126.235 126.235 0 0 0-6-2v-2l-1.922-.68C242 71 242 71 241.172 68.617l-.422-2.742c-.15-.91-.3-1.82-.453-2.758L240 61z" fill="rgba(207, 148, 77, 1)" stroke="none"/>
  <path d="M52.75 199.25L55 200l1 7-2.375.563L51 209c-.462 1.65-.913 3.304-1.266 4.98-1.467 4.035-4.786 6.985-7.734 10.02-2.563-2.25-2.563-2.25-5-5 .28-3.332 1.693-5.061 3.938-7.438 2.48-2.756 3.746-5.083 5.062-8.562 3.114-4.08 3.114-4.08 6.75-3.75z" fill="rgba(231, 157, 69, 1)" stroke="none"/>
  <path d="M138 93l-1.059 1.61-1.379 2.14-1.37 2.11c-3.745 6.727-2.765 15.865-1.192 23.14h2v2c-3.615-.106-5.75-1.264-8.313-3.688-3.585-4.54-3.64-9.227-3.417-14.847 1.176-5.582 4.278-9.035 8.73-12.465 3-1 3-1 6 0z" fill="rgba(98, 128, 89, 1)" stroke="none"/>
  <path d="M259 110c2.044 2.214 2.945 3.702 3.5 6.688-.609 4.032-2.184 6.715-4.254 10.187-1.347 2.296-2.356 4.617-3.246 7.125l-1-3a89.261 89.261 0 0 0-4-2c-3.16-2.43-3.914-5.24-5-9 .615-.23 1.23-.461 1.863-.7 4.954-1.998 7.811-3.239 10.137-8.3l2-1z" fill="rgba(65, 60, 62, 1)" stroke="none"/>
  <path d="M229 52v2h7l.875 2.438c.858 2.695.858 2.695 3.125 3.562h-4v-3c-1.454.03-1.454.03-2.938.063C230 57 230 57 229 56c-1.769-.1-3.541-.13-5.313-.125l-2.925-.008c-2.45.118-4.46.303-6.762 1.133-1.284 1.984-1.284 1.984-2 4-1.316-.255-2.628-.53-3.938-.813l-2.214-.457L204 59l-1-3c-3.332-.334-3.332-.334-7 0l-1.938 1.938c-2.358 2.358-2.998 2.361-6.187 2.624L184 61l-2 3h-2l-.75 2.75c-1.29 3.354-2.57 4.927-5.25 7.25l-2-1a996.843 996.843 0 0 1 3.25-4.75l1.828-2.672C181.676 59.41 186.73 56.411 194 54c5.352-.739 9.212-.485 14 2 2.522-.216 4.697-.892 7.074-1.742 4.905-1.749 8.714-2.59 13.926-2.258z" fill="rgba(223, 152, 74, 1)" stroke="none"/>
  <path d="M207 94c-.499 3.193-1.366 5.92-2.625 8.875-2.668 6.997.207 13.418 2.625 20.125-3.375-.547-5.082-1.055-8-3-3.072-5.462-4.222-10.772-3-17 2.475-4.747 5.175-9 11-9z" fill="rgba(92, 117, 86, 1)" stroke="none"/>
  <path d="M41 103c4.299.478 6.237 2.836 9 6 1.547 3.445 1.547 3.445 2.75 7.125l1.234 3.695L55 123l1 3c.07 2.739.094 5.45.063 8.188l-.014 2.271c-.012 1.847-.03 3.694-.049 5.541h-2c-1.47-5.707-2.922-11.38-3.938-17.188C48.63 117.445 45.755 111.775 41 106v-3z" fill="rgba(57, 41, 39, 1)" stroke="none"/>
  <path d="M261 75l1 4h2l.148 3.246.227 4.192c.03.707.062 1.414.094 2.142.104 1.812.31 3.618.531 5.42l2 1c-.368 7.246-.368 7.246-3.25 10.688L261 108c-3.475 3.132-3.475 3.132-5.855 7.043-1.536 2.626-2.89 2.884-5.77 3.707l-2.477.734L245 120v-2l5-1v-2l1.75-1.563c2.664-2.886 3.85-5.711 5.32-9.316C258 102 258 102 260 99c1.219-5.104 1.117-10.163 1.063-15.375l-.014-2.52c-.012-2.035-.03-4.07-.049-6.105z" fill="rgba(62, 52, 50, 1)" stroke="none"/>
  <path d="M93 13c5.216 2.98 9.354 5.52 12 11l3 1c.688 2.063.688 2.063 1 4-7.156-.917-13.992-2.93-20-7l.07 1.906C89.192 29.67 88.638 34.473 87 40h-1l-1-18 10-3v-3l-2-1v-2z" fill="rgba(32, 13, 5, 1)" stroke="none"/>
  <path d="M251 291l3 2-1 2-3 1-.625 3.375C248 303 248 303 246.437 304.129c-7.483 2.934-18.82 3.41-26.437.871v-3h3v-2c10.076-.164 10.076-.164 14.875.688 3.117.552 3.117.552 5.813-.75 2.776-2.326 4.436-4.857 6.312-7.938l1-1z" fill="rgba(27, 24, 25, 1)" stroke="none"/>
  <path d="M201 184c1.684 3.255 2.888 6.505 4 10h-3v-3c-2.167.833-2.167.833-3 3-1 2-1 2-3 3a128.606 128.606 0 0 0-2 7h-2l-1 8h3l.113 2.082.2 2.73.175 2.708c.587 2.844 1.45 3.55 3.512 5.48v3l6 1v2c-1.44-.23-2.878-.485-4.313-.75l-2.425-.422c-2.924-1.07-3.751-2.121-5.262-4.828-.695-2.805-.695-2.805-1.125-5.875l-.445-3.055L190 213l-.68-2.992c-1.003-9.421 6.144-18.941 11.68-26.008z" fill="rgba(231, 178, 109, 1)" stroke="none"/>
  <path d="M175 62h4c-1.1 3.2-2.524 5.88-4.375 8.688-4.86 7.562-7.77 15.528-7.688 24.5l.028 3.855L167 102h-3v10h-1c.07-.869.14-1.738.21-2.633.569-6.515.569-6.515-1.581-12.426A178.082 178.082 0 0 0 157 93c.316-2.152.316-2.152 1-4l3 3v-2h2l.586-2.012c2.586-8.77 2.586-8.77 4.414-12.988h2v-3h2l.375-1.625c.747-2.839 1.678-5.597 2.625-8.375z" fill="rgba(56, 54, 50, 1)" stroke="none"/>
  <path d="M80 186h1l-1 12-3 1-1 3.5-1 3.5-3 1v9l4-1v3l2.313.313c3 .767 3.57 1.57 5.687 3.687 3.1 1.2 3.1 1.2 6 2v2l8 1v3c-10.258-2.431-21.082-6.777-28-15-1.38-3.802-.959-6.03.625-9.688l1.125-2.613c1.985-4.285 4.085-8.502 6.25-12.699a1400.87 1400.87 0 0 0 2-4z" fill="rgba(213, 151, 71, 1)" stroke="none"/>
  <path d="M107 160c3.735.498 5.812.875 9 3l1 3c1.63 1.224 1.63 1.224 3.563 2.188L124 170v2l2.188.813A47.613 47.613 0 0 1 134 177v1c-9.497.59-17.606-5.565-25.355-10.508-1.966-1.783-2.377-2.874-2.645-5.492l1-2z" fill="rgba(26, 26, 26, 1)" stroke="none"/>
  <path d="M261 191l3 1c-14.21 7.904-29.492 13.429-46 11-3.736-1.565-6.854-3.459-10-6 3.204-1.602 6.602-.737 10 0l1.95 1.027c8.115 3.85 21.624.444 29.695-2.238 3.848-1.468 7.67-2.946 11.355-4.789z" fill="rgba(88, 58, 32, 1)" stroke="none"/>
  <path d="M38 97c1.063 1.875 1.063 1.875 2 4l-1 2h-2v-2c-2.525.57-5.044 1.155-7.563 1.75l-2.134.477C22.275 104.43 18.385 106.257 14 109v-2l-4 4-3-1c7.171-10.458 18.908-13.682 31-13z" fill="rgba(51, 37, 35, 1)" stroke="none"/>
  <path d="M264 191l2 3c-2.475 2.475-4.331 2.842-7.688 3.813-3.68 1.068-7.265 2.169-10.84 3.558-7.312 2.803-13.604 4.115-21.41 4.191l-2.365.044c-5.526-.096-10.22-1.23-14.697-4.606-1.5-2.75-1.5-2.75-2-5l1.844 1.313c9.604 6.101 18.98 6.107 29.761 3.761 9.064-2.227 17.275-5.44 25.395-10.074z" fill="rgba(230, 157, 70, 1)" stroke="none"/>
  <path d="M12 140h2v30l-4 2c-3-6.625-3-6.625-3-10h2l.148-3.29.227-4.335c.03-.713.062-1.426.094-2.16.241-4.387.924-8.074 2.531-12.215z" fill="rgba(10, 4, 5, 1)" stroke="none"/>
  <path d="M171 145l2 3-1.438 1.313c-1.799 1.71-1.799 1.71-2.562 4.687l1 2h-2v2c-4.431 1.418-8.302 2.626-13 2-2.303-1.867-3.678-3.356-5-6-.04-2.333-.043-4.667 0-7h2l3 7c3.398.61 5.436.355 8.367-1.488 4.442-3.21 4.442-3.21 7.633-7.512z" fill="rgba(23, 23, 23, 1)" stroke="none"/>
  <path d="M5 138h1l1 23 2 1H7l1.438 3.125c2.317 6.057 2.3 12.46 2.562 18.875-3.136-3.136-3.809-7.126-5.063-11.313l-.818-2.717C3.087 162.936 2.027 156.346 2 149h2l1-11z" fill="rgba(54, 38, 28, 1)" stroke="none"/>
  <path d="M182.813 52.938l2.957.027L188 53c-2.88 1.583-5.418 2.397-8.648 2.96-3.432.643-6.78 1.385-10.141 2.33-13.981 3.896-27.243 6.35-41.211.71 3.327-1.01 6.294-1.089 9.762-1.027l3.392.037c2.336.035 4.672.074 7.008.117 6.655.065 12.4-.452 18.838-2.127 3.063-.125 3.063-.125 5 0v-2c3.674-.853 7.045-1.108 10.813-1.063z" fill="rgba(221, 154, 74, 1)" stroke="none"/>
  <path d="M151 296l1 2c8.725.129 17.31-.204 26-1l1 2-2 3c-2.863.477-2.863.477-6.313.625-4.657.202-4.657.202-9.242.957-2.996.512-5.289.089-8.257-.52l-2.958-.59L148 302v-2l2-1 1-3z" fill="rgba(11, 10, 11, 1)" stroke="none"/>
  <path d="M189 205c1.72 3.441 1.908 7.283 2.395 11.07l.417 3.055.395 3.07c.95 3.361 2.06 4.665 4.793 6.805 2.129.92 2.129.92 4.375 1.438 4.57 1.374 7.254 3.19 10.625 6.562v2l2.313.25c3.21.896 3.98 1.966 5.687 4.75-5.457-1.056-5.457-1.056-8-2-1.188-2-1.188-2-2-4a78.037 78.037 0 0 0-5-2l-1-2a113.386 113.386 0 0 0-6.5-2 113.386 113.386 0 0 1-6.5-2c-1.788-3.576-1.863-7.709-2.402-11.64-.51-3.393-.51-3.393-1.75-6.633L186 209c1.375-2.375 1.375-2.375 3-4z" fill="rgba(251, 239, 212, 1)" stroke="none"/>
  <path d="M205 231c4.498 1.687 8.729 3.817 13 6l1-2h4l1 5 1.75-1.063c2.608-1.086 3.644-.868 6.25.063l-2.438.813L227 241l-1 3h-3v-2h-2v29h-1l-.028-2.523a972.69 972.69 0 0 0-.18-9.275c-.042-1.995-.063-3.99-.085-5.985l-.098-3.799-.063-3.507c-.276-2.99-.276-2.99-2.397-4.75-2.226-1.283-2.226-1.283-5.149-2.161a131.2 131.2 0 0 1-4-5 98.28 98.28 0 0 0-3-3z" fill="rgba(199, 161, 121, 1)" stroke="none"/>
  <path d="M48 131h3l-1 5c-3.086 1.029-5.032 1.04-8.25.938-6.118-.057-10.563.604-15.75 4.062-2.332.08-4.668.088-7 0l-.25 2.813C18 147 18 147 14 150l1-10h2l1-2 7 1v-2c11.354-4.707 11.354-4.707 17-3l6 1v-4z" fill="rgba(125, 89, 55, 1)" stroke="none"/>
  <path d="M30.094 113.953l2.406.297 2.406.266C37 115 37 115 39 117v4h-2v-2h-2v-2c-4.143.517-4.143.517-7.938 2.125-3.117 1.322-5.77.395-9.062-.125-2.812.36-2.812.36-5 1l.313 2.25C13 125 13 125 10.624 127.125L8 129l-2 3v-10l1 4h2l.063-2.125c1.39-4.262 4.2-6.51 7.937-8.875 2.848-.464 4.447-.158 7.188.625L26 116c2-2 2-2 4.094-2.047z" fill="rgba(130, 93, 55, 1)" stroke="none"/>
  <path d="M162 39l-1 2h-6l-1 3 26 1v1c-15.012.782-29.968 1.144-45 1 7.289-4.86 18.174-8.552 27-8z" fill="rgba(63, 34, 15, 1)" stroke="none"/>
  <path d="M83 56h2c.025 4.218.043 8.435.055 12.653.005 1.434.012 2.869.02 4.303.013 2.063.018 4.126.023 6.189l.016 3.76C85 86 85 86 84 89c3.125-1.635 3.125-1.635 3.688-4.125L88 83l3 1c-2.625 5.75-2.625 5.75-6 8h-3c-.03-4.312-.047-8.625-.063-12.938l-.025-3.673C81.894 68.834 82.11 62.496 83 56z" fill="rgba(204, 141, 65, 1)" stroke="none"/>
  <path d="M113 35l5 2c-.322 3.007-1.008 4.008-3.188 6.188-3.13 2.017-5.094 2.733-8.812 2.812a248.794 248.794 0 0 1-4-3c-2.676-.563-5.266-.772-8-1-2.47 9.88-2.637 19.867-3 30h-1c-.088-3.854-.14-7.708-.188-11.563l-.076-3.29c-.056-6.19.231-10.7 3.264-16.147l1-1c2.617.092 5.203.239 7.813.438 4.07.293 8.102.562 12.187.562l-1-6z" fill="rgba(215, 149, 74, 1)" stroke="none"/>
  <path d="M81 86h1v28c-2-3-2-3-2-7h-2c-.508-2.207-1.006-4.415-1.5-6.625l-.844-3.727c-.597-3.32-.78-6.287-.656-9.648l5 4 1-5z" fill="rgba(30, 25, 24, 1)" stroke="none"/>
  <path d="M162 268h1c-.568 9.658-4.075 19.32-10 27l-2-4-4 1 1.242-1.61 1.633-2.14 1.617-2.11c1.4-1.987 2.487-3.938 3.508-6.14h2l.586-1.863.789-2.45.773-2.425C160 271 160 271 162 268z" fill="rgba(35, 35, 35, 1)" stroke="none"/>
  <path d="M177 129h1l-.035 3.691-.028 4.871-.025 2.424c-.02 4.786.284 9.295 1.088 14.014l-4-1v-2h-2l-2 4-3-1c1.074-2.915 1.778-4.778 4-7 .374-1.658.699-3.327 1-5a366.146 366.146 0 0 1 2.063-6.813l1.097-3.519L177 129z" fill="rgba(16, 16, 16, 1)" stroke="none"/>
  <path d="M244 63l2 1v6c3.385-.604 5.3-1.93 8-4h2c2.35 2.35 2.731 3.957 3.625 7.125l.79 2.758L261 78c-2.313.64-2.313.64-5 1-3-2.25-3-2.25-4.512-3.656-1.975-1.784-4.184-3.028-6.488-4.344-1-1-1-1-1.063-4.563L244 63z" fill="rgba(250, 186, 143, 1)" stroke="none"/>
  <path d="M30 219h6l1 3 2-2 2 5h2v2h2v3h2a125.024 125.024 0 0 1 4 6c-7.65-.478-13.511-7.292-18.652-12.387C31 222 31 222 30 219z" fill="rgba(46, 34, 31, 1)" stroke="none"/>
  <path d="M264 82c2.484 2.484 2.98 4.67 4 8l1 3c-.613 7.946-1.995 15.612-5 23l-2 1c-2.63-2.63-2.78-4.327-3-8 1.663-2.993 3.11-4.073 6-6 .913-3.471.913-3.471 1-7l-2-2c-.195-2.82-.195-2.82-.125-6.125l.055-3.32L264 82z" fill="rgba(60, 52, 53, 1)" stroke="none"/>
  <path d="M87 60h1l.402 3.684.535 4.754.264 2.431c.104 3.887.104 3.887 1.799 7.131.04 1.666.043 3.334 0 5h-3l-1 5-3 1c.11-4.084.24-8.167.375-12.25.03-1.159.062-2.318.094-3.512l.117-3.379.095-3.11c.315-2.718.93-4.418 2.319-6.749z" fill="rgba(248, 157, 49, 1)" stroke="none"/>
  <path d="M43.875 136.438l2.086.158c1.68.128 3.36.265 5.039.404-1.07 1.496-1.07 1.496-3 3-3.18.223-3.18.223-6.875.063-4.721-.196-7.816.036-12.125 1.937a97.315 97.315 0 0 1-7 0l-.375 2.75c-.546 2.84-1.198 4.776-2.625 7.25l-4-2 1.438-2.25c1.358-2.392 1.982-4.117 2.562-6.75l1.898-.367 2.477-.508 2.46-.492c2.352-.5 2.352-.5 4.165-2.633 4.681-1.16 9.115-.964 13.875-.563z" fill="rgba(226, 158, 76, 1)" stroke="none"/>
  <path d="M254.375 42.688C257 43 257 43 258.875 44.75 260 47 260 47 259.688 49.25L259 51h-2.188c-3.907 1.39-4.839 3.76-6.796 7.285L249 60h-1c-.38-6.192.12-10.47 3-16 1-1 1-1 3.375-1.313z" fill="rgba(4, 2, 3, 1)" stroke="none"/>
  <path d="M154 90c-2 1-2 1-5.125.063L146 89v3l-5-1v3l-5 1 1-2c-4.08 1.302-4.08 1.302-8 3l-1-5c9.46-5.01 16.22-5.268 26-1z" fill="rgba(15, 16, 13, 1)" stroke="none"/>
  <path d="M118 72c-.5 1.813-.5 1.813-2 4-1.773.758-1.773.758-3.875 1.438-4.074 1.333-5.506 3.158-8.125 6.562-4.366 2.088-7.328 2.112-12 1v5h-4c1.059-3.403 2.009-6.014 4-9l3.625.875c3.255.44 3.255.44 6.031-1.11.98-1.094 1.944-2.204 2.89-3.328 2.204-2.18 4.452-2.294 7.454-2.437v-2c2.076-.553 3.844-1 6-1z" fill="rgba(87, 65, 54, 1)" stroke="none"/>
  <path d="M164 102c4.154.522 6.126 1.697 9.188 4.5 4.756 3.916 8.754 4.589 14.812 4.5l2 7h-5l1-4-11-2v-2l-2.75-.375c-2.84-.546-4.776-1.198-7.25-2.625l-1 4v-9z" fill="rgba(248, 222, 183, 1)" stroke="none"/>
  <path d="M92 48h1l1 11 4-11 4 1h-3l-.867 3.902L93 76l-2-1c-.03-3.75-.047-7.5-.063-11.25l-.025-3.223-.01-3.105-.016-2.857C90.99 52.22 91.333 50.244 92 48z" fill="rgba(63, 32, 14, 1)" stroke="none"/>
  <path d="M113 248h2c.126 7.414.126 7.414-.498 10.322-.498 2.657-.631 5.068-.635 7.768l-.004 2.877.012 2.97-.012 2.96c.007 4.812.129 9.373 1.137 14.103-2-1-2-1-2.605-2.765-.416-2.352-.604-4.615-.711-7l-.127-2.696-.12-2.789-.13-2.836c-.106-2.304-.208-4.61-.307-6.914l-3 1c.65-6.005 2.858-11.4 5-17z" fill="rgba(47, 47, 47, 1)" stroke="none"/>
  <path d="M205 39v1a312.35 312.35 0 0 1-4.813.625l-2.707.352C195 41 195 41 192 39c-3.84-.436-7.7-.324-11.563-.313l-3.232-.048-3.084-.002-2.83-.01L169 39l-2 3-3-1 1-2-3-1c14.738-3.497 28.434-2.254 43 1z" fill="rgba(110, 105, 106, 1)" stroke="none"/>
  <path d="M43.82 169.805L53 170l-1 13H36v-1h14v-9l-3.688.5c-6.097.692-12.184.585-18.312.5v-2l2.336.07 3.039.055 3.023.07c3.485-.261 3.87-2.144 7.422-2.39z" fill="rgba(225, 158, 90, 1)" stroke="none"/>
  <path d="M12 107h2c-.624 3.168-1.722 5.38-3.5 8.063-3.271 4.954-3.751 9.281-4.063 15.124l-.13 2.272C6.2 134.306 6.1 136.153 6 138H5v-16H3c.75-7.625.75-7.625 3-11h4l2-4z" fill="rgba(38, 17, 7, 1)" stroke="none"/>
  <path d="M69 214l2 1v2c.536.26 1.072.52 1.625.79 1.75.891 3.476 1.831 5.188 2.796 7.25 4.07 14.226 7.016 22.187 9.414l-1 11c-2-3-2-3-1.625-6.188L98 232l-6-1v-2l-7-1v-2l-2.484-.41c-8.655-1.729-8.655-1.729-11.204-4.278C69.954 218.917 69 216.786 69 214z" fill="rgba(97, 72, 53, 1)" stroke="none"/>
  <path d="M268 186h2c4.126 17.055 1.637 34.76 0 52l-3-1h2v-46l-4-1c1.375-2 1.375-2 3-4z" fill="rgba(207, 148, 89, 1)" stroke="none"/>
  <path d="M99 49c4.791.496 8.02 2.802 11.813 5.563l1.81 1.287A641.56 641.56 0 0 1 117 59c-3.623 1.208-4.641.543-8-1v-2h-3l-1-2c-2.527-.656-2.527-.656-5-1l-1 6h-2l.125 3.75c.111 3.334-.466 5.35-2.125 8.25.352-7.859 1.135-14.65 4-22z" fill="rgba(219, 175, 151, 1)" stroke="none"/>
  <path d="M235 34h4c-.468 4.992-2.917 9.13-6 13h-2v3c-10.558.185-10.558.185-15-1l1-2h2l1-2c3 1 3 1 4 3h5l1-4h2l.375-3.438L233 37l2-1v-2z" fill="rgba(8, 5, 6, 1)" stroke="none"/>
  <path d="M240 234c2.834-.082 5.665-.14 8.5-.188l2.398-.076c5.723-.07 9.854.971 15.102 3.264v2h-4v-2c-8.27-1.438-15.493-2.337-22.973 1.977-3.473 1.753-7.22 2.353-11.027 3.023v3l-4-1c1.247-.962 2.498-1.92 3.75-2.875l2.11-1.617c3.7-2.607 5.5-3.508 10.14-3.508v-2z" fill="rgba(90, 60, 31, 1)" stroke="none"/>
  <path d="M206.285 55.027L208 56c-1.938.563-1.938.563-4 1l-1-1c-3.374-.417-3.374-.417-7 0l-1.938 1.938c-2.358 2.358-2.998 2.361-6.187 2.624L184 61l-2 3h-2l-.75 2.75c-1.29 3.354-2.57 4.927-5.25 7.25l-2-1a996.843 996.843 0 0 1 3.25-4.75l1.828-2.672c6.422-8.614 18.463-15.38 29.207-10.55z" fill="rgba(207, 149, 84, 1)" stroke="none"/>
  <path d="M118 38l6 3-2 1c.291 6.42 1.452 10.621 5 16-2.169-.506-4-1-6-2-.988-2.963-1.134-4.971-1.125-8.063l-.008-2.66C120 43 120 43 121 41l-2.875 2.438C114.285 46.693 112.098 47.11 107 47c1-2 1-2 4.375-3.375 3.5-1.569 4.738-2.406 6.625-5.625z" fill="rgba(85, 60, 40, 1)" stroke="none"/>
  <path d="M82 175c0 3.015-.52 4.869-1.5 7.688l-.844 2.449L79 187l-5 1-1 7-5 1v2h-2c1.557-4.61 4.043-8.169 6.875-12.063l1.316-1.853c2.384-3.31 4.813-6.29 7.809-9.084z" fill="rgba(59, 56, 59, 1)" stroke="none"/>
  <path d="M53 227h2c.027 1.812.046 3.625.063 5.438l.035 3.058C55 238 55 238 54 239a83.431 83.431 0 0 0-.098 4.91l.01 2.998.025 3.155.014 3.166c.012 2.59.028 5.18.049 7.771h-1l-.044-1.864c-.075-2.796-.171-5.59-.269-8.386l-.068-2.934-.107-2.832-.08-2.602c-.512-2.82-1.65-4.182-3.432-6.382v-2l-1-2 2-2 1 1 2-4z" fill="rgba(124, 115, 110, 1)" stroke="none"/>
  <path d="M250.125 231.75l2.707-.023 2.613.007 2.36.007c2.438.288 4.078 1.045 6.195 2.259v2l3 1c-6.75-.875-6.75-.875-9-2a69.616 69.616 0 0 0-4.133-.316l-2.441-.127-2.551-.12-2.574-.13c-2.1-.107-4.2-.207-6.301-.307v2l-8 2c.625-1.875.625-1.875 2-4 5.298-2.413 10.424-2.3 16.125-2.25z" fill="rgba(189, 131, 60, 1)" stroke="none"/>
  <path d="M200 48c13.633-.369 13.633-.369 20 2v1l-2.25.375c-2.69.456-2.69.456-4.531 1.719-3.099 1.265-5.216.668-8.469.031l-3.266-.617L199 52l1-4z" fill="rgba(64, 60, 58, 1)" stroke="none"/>
  <path d="M196 91h3c-1.393 3.001-3.04 5.51-5.063 8.125-2.17 2.811-2.17 2.811-3.937 5.875h-2l-1 5h-7l-1-2c3.228-2.152 4.284-2.2 8-2l.332-1.934.48-2.504.458-2.496L189 97l3-1 2-3h2v-2z" fill="rgba(246, 163, 64, 1)" stroke="none"/>
  <path d="M254 51h2c.39 1.455.76 2.914 1.125 4.375l.633 2.46L258 60l-2 2-1-2-1.313 1.5C252 63 252 63 249 63v2l-4-1v-3h3c1.629-2.233 1.629-2.233 3.063-5A82.376 82.376 0 0 1 254 51z" fill="rgba(223, 172, 145, 1)" stroke="none"/>
  <path d="M30 205c3.04 1.52 3.337 3.897 4.563 7 1.27 3.773 1.27 3.773 3.437 7 .04 2.333.042 4.667 0 7-1.46-2.647-2-3.894-2-7l-3.313.313L29 219c-1.938-2.5-1.938-2.5-3-5l4-2v-7z" fill="rgba(30, 24, 22, 1)" stroke="none"/>
  <path d="M87 140c3.23-.359 4.612-.273 7.313 1.625 2.178 3.066 2.225 4.683 1.687 8.375-1.5 2.375-1.5 2.375-3 4-4.138-4.276-5.06-8.32-6-14z" fill="rgba(28, 27, 28, 1)" stroke="none"/>
  <path d="M81 52h2c-.119 4.732-.243 9.465-.372 14.197a2567.8 2567.8 0 0 0-.125 4.824c-.058 2.319-.122 4.637-.187 6.956l-.05 2.16C82.147 84.172 81.762 88.033 81 92h-1c-1.02-8.415-.993-16.604-.625-25.063l.133-3.7c.358-8.969.358-8.969 1.492-11.237z" fill="rgba(26, 5, 0, 1)" stroke="none"/>
  <path d="M240 61h5l-.176 1.863c-.137 2.454-.168 4.702.176 7.137 2.108 1.9 2.108 1.9 5 3 1.02.873 2.02 1.77 3 2.688 3.029 2.82 3.029 2.82 8 2.312v10h-1l-1-8-2.375-.375C254 79 254 79 252 77a126.235 126.235 0 0 0-6-2v-2l-1.922-.68C242 71 242 71 241.172 68.617l-.422-2.742c-.15-.91-.3-1.82-.453-2.758L240 61z" fill="rgba(237, 162, 85, 1)" stroke="none"/>
  <path d="M57 191h1l.113 2.52.2 3.292.175 3.27c.561 3.199 1.183 3.839 3.512 5.918v3h-3l.625 1.563c.534 3.47-.548 6.143-1.625 9.437-1.46-2.647-2-3.894-2-7l.688-2.125c.47-4.33-1.143-7.869-2.688-11.875h2l-.063-3.438C56 192 56 192 57 191z" fill="rgba(87, 75, 72, 1)" stroke="none"/>
  <path d="M172 126c6.055-.195 6.055-.195 8 0l2 2c-.469 4.101-1.838 8.048-3 12h-1l-1-8-1 5c-2.313-2.313-2.496-3.479-3.125-6.625l-.508-2.477L172 126z" fill="rgba(205, 175, 158, 1)" stroke="none"/>
  <path d="M233 103h2c2.567 2.8 4.614 5.14 5 9l-1 3c3.47-.458 6.674-.891 10-2l-1 3h-3l-1 4v-2h-9l.125-4.125c.013-3.992-.596-7.148-2.125-10.875z" fill="rgba(225, 160, 84, 1)" stroke="none"/>
  <path d="M213 90v2l3.625.313c3.944.49 6.95 1.599 10.375 3.687l1 2h-3v-2l-3.563-.375c-2.97-.353-5.347-.909-8.25-1.813L210 93l-3 2c-6.064-.532-6.064-.532-9-2 5.147-3.167 9.158-3.35 15-3z" fill="rgba(44, 16, 4, 1)" stroke="none"/>
  <path d="M25 100l-2 1v3l-9 5v-2l-4 4-3-1c3.706-5.405 11.076-12.308 18-10z" fill="rgba(58, 46, 45, 1)" stroke="none"/>
  <path d="M163.324 45.867l3.62-.004 3.744.012 3.685-.012c7.265.008 14.406.324 21.627 1.137v3l-4 1v-3h-41v-1c4.16-.785 8.093-1.128 12.324-1.133z" fill="rgba(209, 153, 88, 1)" stroke="none"/>
  <path d="M125 39l2.25 2.438c3.003 2.799 3.003 2.799 6.75 3.562 2.38-.302 2.38-.302 4.75-.938l2.422-.59L143 43l-1 2-4 1 13 1v1c-3.663.383-7.328.711-11 1l-2.594.207c-5.768.26-5.768.26-8.969-2.082C127 45 127 45 127 43l-2-1v-3z" fill="rgba(122, 91, 69, 1)" stroke="none"/>
  <path d="M86 171h4c-1.05 2.361-2.127 4.149-3.813 6.125-2.516 3.307-4.179 6.723-5.94 10.473-1.22 2.35-2.6 4.335-4.247 6.402l1-7h2l.297-1.758c1.088-5.686 2.51-10.049 6.703-14.242z" fill="rgba(39, 19, 10, 1)" stroke="none"/>
  <path d="M264 159c1.813 0 1.813 0 4 1 1.719 2.256 2.769 4.401 4 7l-1 2-2-1-.375 1.938L268 172l-2 1c-.528-2.144-1.047-4.29-1.563-6.438l-.878-3.62L263 160l1-1z" fill="rgba(48, 47, 46, 1)" stroke="none"/>
  <path d="M261 75l1 4h2v20h-2v2h-2l-1 4-2-1 1.438-2.125c3.11-5.722 2.69-11.905 2.625-18.25l-.014-2.52c-.012-2.035-.03-4.07-.049-6.105z" fill="rgba(85, 58, 32, 1)" stroke="none"/>
  <path d="M51 122l3 2v2h2v16h-2c-1.904-6.8-3.409-12.92-3-20z" fill="rgba(26, 21, 20, 1)" stroke="none"/>
  <path d="M175 62h4c-1.1 3.2-2.524 5.88-4.375 8.688-2.487 3.858-4.145 7.815-5.73 12.113C168 85 168 85 166 88c-.167-4.921-.248-8.503 2-13h2v-3h2l.375-1.625c.747-2.839 1.678-5.597 2.625-8.375z" fill="rgba(94, 66, 38, 1)" stroke="none"/>
  <path d="M91 174c3.162-.517 4.943-.752 8 0 4.746 3.64 8.497 8.182 12 13l-1 2a306.48 306.48 0 0 1-4-2.813l-2.25-1.582L102 183v-3l-1.938-.938C98 178 98 178 97 177a235.648 235.648 0 0 0-7-1l1-2z" fill="rgba(236, 176, 101, 1)" stroke="none"/>
  <path d="M113 192c3.268 2.425 3.966 3.822 4.75 7.875.117 1.706.195 3.416.25 5.125l.121 3.594c.175 9.962.175 9.962-2.121 13.406h-2l.488-2.578c1.38-9.223.838-18.41-1.488-27.422z" fill="rgba(252, 230, 191, 1)" stroke="none"/>
  <path d="M196 50v3h7v1l-1.758.113c-5.093.429-8.717 1.348-13.242 3.887h-2v-2l-12 1c4.275-2.85 8.751-3.26 13.75-4.219C190.844 52.037 192.928 50 196 50z" fill="rgba(103, 69, 28, 1)" stroke="none"/>
  <path d="M192 212h2l.113 2.082.2 2.73.175 2.708c.587 2.844 1.45 3.55 3.512 5.48v3l6 1v2c-1.44-.23-2.878-.485-4.313-.75l-2.425-.422c-2.957-1.082-3.811-2.038-5.262-4.828-.293-3.234-.293-3.234-.188-6.75l.083-3.547L192 212z" fill="rgba(231, 168, 90, 1)" stroke="none"/>
  <path d="M3 159l1.875 2.375C6.899 163.968 6.899 163.968 9 166a99.365 99.365 0 0 1 1.188 7.438l.287 2.064c.416 3.247.574 5.352-.475 8.498a3563.932 3563.932 0 0 1-3.5-10.813l-1.012-3.103-.957-2.979-.888-2.745C3 162 3 162 3 159z" fill="rgba(109, 101, 91, 1)" stroke="none"/>
  <path d="M12 140h2v16l-3 1-2 2c.115-2.042.243-4.084.375-6.125.07-1.137.14-2.274.21-3.445.41-3.384 1.225-6.246 2.415-9.43z" fill="rgba(38, 21, 12, 1)" stroke="none"/>
  <path d="M33 149l3 2v2h9v2l8 1v1c-6.75.125-6.75.125-9-1v-2l-1.863.07-2.45.055-2.425.07C35 154 35 154 32 152c-3.627-.372-5.874.147-9 2 .25-1.875.25-1.875 1-4 3.15-2.362 5.331-2.129 9-1z" fill="rgba(135, 96, 51, 1)" stroke="none"/>
  <path d="M213 97c1.316.255 2.628.53 3.938.813l2.214.457L221 99l1 3-2 1c-.469 2.816-.469 2.816-.625 6.063l-.227 3.347L219 115h-1l-.25-3.563c-.547-4.603-2.363-7.51-4.75-11.437v-3z" fill="rgba(89, 110, 82, 1)" stroke="none"/>
  <path d="M251 291l3 2-1 2-3 1-.875 3.438C248 303 248 303 245.625 304.5c-2.66.507-4.112.43-6.625-.5l2-1v-2l2.25-1.25c3.308-2.105 4.73-4.431 6.75-7.75l1-1z" fill="rgba(41, 39, 39, 1)" stroke="none"/>
  <path d="M264 191l2 3c-5.354 5.354-16.64 6.715-24 8-2.246-.457-2.246-.457-4-1l2.64-.664c8.407-2.238 15.715-5.136 23.36-9.336z" fill="rgba(209, 145, 72, 1)" stroke="none"/>
  <path d="M14 109c1 3 1 3 .063 5.188L13 116l2 1-3.809 4.395c-1.4 1.712-1.4 1.712-2.191 4.605H7c-.787-6.167 1.011-9.189 4.59-14.18C13 110 13 110 14 109z" fill="rgba(210, 149, 86, 1)" stroke="none"/>
  <path d="M40 99l7 5-1 2-5-3c1.838 3.151 3.76 6.12 6 9l-1 2c-6.234-4.879-6.234-4.879-8-9l-2-1v-2h-5v-1h6v2h2l1-4z" fill="rgba(193, 143, 84, 1)" stroke="none"/>
  <path d="M229 52c6.75-.125 6.75-.125 9 1v3l3-1 1 2c3.03.658 3.03.658 6 1l1 3c-3.069 1.534-5.7.55-9 0v-2h-2l-.563-1.938c-1.38-2.483-1.38-2.483-5.062-2.812L229 54v-2z" fill="rgba(84, 55, 30, 1)" stroke="none"/>
  <path d="M98 20h5l.813 1.938C104.886 24.33 104.886 24.33 108 25c.688 2.063.688 2.063 1 4-3.377-.537-6.697-1.11-10-2v-4l-2-1 1-2z" fill="rgba(7, 4, 6, 1)" stroke="none"/>
  <path d="M80 186h1l-1 12-3 1c-1.23 3.512-1.23 3.512-2 7-2-3-2-3-1.875-5.188C74.32 196.97 76.129 193.553 78 190c.67-1.332 1.337-2.665 2-4z" fill="rgba(238, 159, 71, 1)" stroke="none"/>
  <path d="M121 169l3 1v2l2.188.813A47.613 47.613 0 0 1 134 177v1c-6.247.822-10.713-2.074-16-5v-2h3v-2z" fill="rgba(55, 55, 55, 1)" stroke="none"/>
  <path d="M56 130h1l1 17h-1l-1 20h-1l-1-25h2v-12z" fill="rgba(90, 74, 69, 1)" stroke="none"/>
  <path d="M51 132h2c1.321 8.742 2.332 17.137 2 26l-8-2v-1h7l-3-18-4-1h3l1-4z" fill="rgba(187, 135, 81, 1)" stroke="none"/>
  <path d="M45 113c2.797 2.068 3.027 3.144 3.688 6.688L49 123c-3.419-.423-6.72-.925-10-2-1.438-2.5-1.438-2.5-2-5l-3-2c2.375-.188 2.375-.188 5 0l2 3-1 2h6l-1-6z" fill="rgba(202, 143, 75, 1)" stroke="none"/>
  <path d="M54 198l-1.75.75c-3.392 1.885-5.733 3.883-7.125 7.563-1.618 3.865-4.315 6.621-7.125 9.687l-1-3a70.468 70.468 0 0 1 3-4l1.375-2.938c3.106-5.853 5.77-8.859 12.625-8.062z" fill="rgba(126, 93, 51, 1)" stroke="none"/>
  <path d="M91 22h-2l.07 1.906C89.192 29.67 88.638 34.473 87 40h-1l-1-18c2.49-1.245 3.41-.777 6 0z" fill="rgba(60, 30, 12, 1)" stroke="none"/>
  <path d="M99 160l2 4a2166.778 2166.778 0 0 1-4.375 3.438l-2.46 1.933C92 171 92 171 90 172l-3-2a469712712.776 469712712.776 0 0 0 5.86-5.176A105.191 105.191 0 0 1 99 160z" fill="rgba(84, 79, 82, 1)" stroke="none"/>
  <path d="M150 147h2l1.188 3.438c1.398 3.765 1.398 3.765 4.5 4.5L160 155l-3 5c-4.566-1.442-4.566-1.442-6.313-3.688-.935-3.146-.812-6.051-.687-9.312z" fill="rgba(59, 59, 59, 1)" stroke="none"/>
  <path d="M228 98c4.225 3.669 5.977 6.477 7 12l-1 3-3-7-2 2-.813-1.813c-1.172-2.16-2.38-3.545-4.187-5.187h4v-3z" fill="rgba(23, 14, 6, 1)" stroke="none"/>
  <path d="M221.688 50.875l2.126.027c1.73.024 3.458.06 5.186.098v1l-2.922.586-3.828.789-3.797.773c-2.84.7-4.905 1.51-7.453 2.852-3.059-.37-4.352-1.234-7-3l7 1v-2c3.68-2.454 6.444-2.228 10.688-2.125z" fill="rgba(97, 66, 37, 1)" stroke="none"/>
  <path d="M103 20c3.69 2.114 6.998 4.463 10.313 7.125l2.675 2.133L118 31v1c-3.465.396-4.782.144-7.75-1.813C108 28 108 28 107 25h-3l-1-5z" fill="rgba(43, 45, 49, 1)" stroke="none"/>
  <path d="M54 207l2 1-1.813 2.063c-2.353 2.904-2.353 2.904-3.687 6.625C49 220 49 220 46.812 221.438L45 222v3l-4-1 1.68-2.012 2.195-2.675 2.18-2.637c2.028-2.556 2.028-2.556 3.015-5.383C51 209 51 209 54 207z" fill="rgba(131, 95, 52, 1)" stroke="none"/>
  <path d="M28 175v2l-2.5 1.188L23 180c-.417 3.626-.417 3.626 0 7h3l-1 3c-3-1-3-1-4.75-4.313C19 182 19 182 18.937 179.75c1.9-3.127 5.442-4.75 9.063-4.75z" fill="rgba(215, 153, 85, 1)" stroke="none"/>
  <path d="M162 268h1c-.48 4.714-.968 8.666-3 13h-4v4l-4 1 3-6h2l.586-1.863.789-2.45.773-2.425C160 271 160 271 162 268z" fill="rgba(41, 41, 41, 1)" stroke="none"/>
  <path d="M224 166l2 1 1 3a496.437 496.437 0 0 1-5.313 2.563l-2.988 1.44C216 175 216 175 213 174h2l.063-1.813C216 170 216 170 219.5 168.313L223 167l1-1z" fill="rgba(36, 34, 34, 1)" stroke="none"/>
  <path d="M135 92l3 1c-.9 1.655-1.821 3.298-2.75 4.938l-1.547 2.777c-1.931 2.591-2.623 2.806-5.703 3.285l-3 2 1-4h2l.813-1.938C130 98 130 98 133 97c.662-1.98.662-1.98 1-4l1-1z" fill="rgba(101, 124, 93, 1)" stroke="none"/>
  <path d="M151 296l1 2h19v1c-3.837.904-7.375 1.106-11.313 1.063l-3.238-.028L154 300v2l3 1-9-1v-2l2-1 1-3z" fill="rgba(94, 94, 94, 1)" stroke="none"/>
  <path d="M90 172l4 2-3 2-2.063 2.625L87 181h-2l-.313 1.938L84 185l-3 1c1.36-6.044 4.857-9.635 9-14z" fill="rgba(206, 150, 80, 1)" stroke="none"/>
  <path d="M54 169l-1 3v-2l-2 1c-2.568.03-5.12-.067-7.688-.16-2.51-.08-2.51-.08-4.312 2.16-2.688.27-5.291.087-8 0v-2c7.603-2.483 15.103-2.185 23-2z" fill="rgba(129, 93, 55, 1)" stroke="none"/>
  <path d="M133.48 89.242l2.708.633 2.73.617L141 91v3l-5 1 1-2c-4.08 1.302-4.08 1.302-8 3l-1-5c3-2 3-2 5.48-1.758z" fill="rgba(21, 28, 19, 1)" stroke="none"/>
  <path d="M94 45h2v3h2c-.449 1.815-.91 3.627-1.375 5.438l-.773 3.058C95 59 95 59 93 60c-.027-1.937-.046-3.875-.063-5.813l-.035-3.269C93 48 93 48 94 45z" fill="rgba(12, 2, 3, 1)" stroke="none"/>
  <path d="M250 45l1 4 5 1a774.92 774.92 0 0 1-2.875 4.438l-1.617 2.496C250 59 250 59 248 60c-.218-5.439-.104-9.87 2-15z" fill="rgba(29, 16, 14, 1)" stroke="none"/>
  <path d="M113 222l1 4h-2l-.438 1.938C111 230 111 230 110 231c-1.682.233-3.371.413-5.063.563l-2.785.253L100 232l1-3c2.308-.71 4.583-1.013 6.969-1.375L110 227l1-3h2v-2z" fill="rgba(251, 238, 209, 1)" stroke="none"/>
  <path d="M219 55l-2.375.75c-2.948 1.404-3.527 2.257-4.625 5.25l-8-2v-2l1.898-.402 2.477-.535 2.46-.528c5.454-1.348 5.454-1.348 8.165-.535z" fill="rgba(230, 155, 71, 1)" stroke="none"/>
  <path d="M201 184c1.737 3.225 2.89 6.513 4 10h-3v-3c-2.171.827-2.171.827-2.938 3-1.062 2-1.062 2-4.062 3l1-3h2l-.188-2.75c.205-3.54.834-4.7 3.188-7.25z" fill="rgba(226, 168, 90, 1)" stroke="none"/>
  <path d="M49 180l1 2-2.852.148-3.773.227c-1.23.07-2.46.14-3.727.21-3.49.397-6.358 1.228-9.648 2.415h-2v2h-5l3-1c.733-2.015.733-2.015 1-4 4.98-.77 9.902-1.25 14.938-1.563l2.072-.13c1.663-.105 3.326-.206 4.99-.307z" fill="rgba(235, 159, 75, 1)" stroke="none"/>
  <path d="M83 127c3.072 2.048 3.677 2.873 5.188 6.063l1.042 2.16C90 137 90 137 90 138c-2.375.188-2.375.188-5 0-2.68-4.019-2.156-6.242-2-11z" fill="rgba(16, 12, 13, 1)" stroke="none"/>
  <path d="M79 107l.926 1.855c.746 1.49 1.5 2.975 2.261 4.457 1.073 3.548.625 6.103-.187 9.688l-2 2c-1.204-3.754-1.099-7.332-1.063-11.25l.028-3.828L79 107z" fill="rgba(69, 66, 66, 1)" stroke="none"/>
  <path d="M186 56v3l-6 3v-3h-9v-2c5.08-.847 9.848-1.09 15-1z" fill="rgba(79, 59, 37, 1)" stroke="none"/>
  <path d="M122 42c2.375.25 2.375.25 5 1 1.313 2.063 1.313 2.063 2 4h-3v-2h-2c1.226 4.377 2.53 8.697 4 13-5.887-5.69-5.887-5.69-6.195-9.262l.07-2.425.055-2.45L122 42z" fill="rgba(201, 145, 85, 1)" stroke="none"/>
  <path d="M205 231c3.368 1.195 6.566 2.698 9.75 4.313l2.36 1.175C219 238 219 238 219.765 240.668L220 243c-5.22-2.268-8.683-4.208-12-9a98.28 98.28 0 0 0-3-3z" fill="rgba(222, 169, 104, 1)" stroke="none"/>
  <path d="M208 196c6.463 1.68 6.463 1.68 9.625 3.563 5.26 2.24 10.712 2.193 16.375 2.437v1c-10.042.673-17.93 1.004-26-6v-1z" fill="rgba(128, 82, 36, 1)" stroke="none"/>
  <path d="M203 179c1.563 1.75 1.563 1.75 3 4-.313 2-.313 2-1 4v4h3l1 4h-3c-3.622-5.158-4.399-8.051-3.36-14.277.12-.569.238-1.137.36-1.723z" fill="rgba(90, 67, 45, 1)" stroke="none"/>
  <path d="M72 202l2 1v4h-2v9l4-1-2 4c-2.563-2-2.563-2-5-5-.39-4.273.73-8.368 3-12z" fill="rgba(204, 142, 79, 1)" stroke="none"/>
  <path d="M202 146h2c-1.51 4.98-4.557 8.243-8 12l-1-3-2-2 2.25-1.25c2.8-1.643 2.8-1.643 4.938-3.938L202 146z" fill="rgba(47, 47, 47, 1)" stroke="none"/>
  <path d="M256 105l2 3c-.75 2.438-.75 2.438-2 5-.26.677-.52 1.354-.79 2.05-1.603 2.583-2.953 2.877-5.835 3.7l-2.477.734L245 120v-2l5-1v-2l1.875-1.75c2.466-2.611 3.19-4.82 4.125-8.25z" fill="rgba(90, 61, 35, 1)" stroke="none"/>
  <path d="M164 90h2l1 12h-3v10h-1c-.103-7.427.001-14.635 1-22z" fill="rgba(87, 69, 57, 1)" stroke="none"/>
  <path d="M213 90l12 1v2l4 1 1 6-1.578-1.86c-2.94-2.598-5.41-3.337-9.172-4.39l-3.547-1.016L213 92v-2z" fill="rgba(199, 141, 74, 1)" stroke="none"/>
  <path d="M186 58l2 1-2.438 1.375c-2.65 1.372-2.65 1.372-3.562 3.625h-2l-.75 2.75c-1.29 3.354-2.57 4.927-5.25 7.25l-2-1a996.843 996.843 0 0 1 3.25-4.75l1.828-2.672C179.745 62 181.711 59.43 186 58z" fill="rgba(194, 139, 76, 1)" stroke="none"/>
  <path d="M128 58l14 1v2h12v1c-9.152.307-17.348.494-26-3v-1z" fill="rgba(180, 129, 66, 1)" stroke="none"/>
  <path d="M123 59c.941 4.353 1.19 7.687 0 12l-5 1 1-2h2v-9l-4-2c2.49-1.245 3.41-.777 6 0z" fill="rgba(86, 65, 54, 1)" stroke="none"/>
  <path d="M260 48c1.125 1.75 1.125 1.75 2 4a87.796 87.796 0 0 1-2 4c-.476 2.663-.73 5.305-1 8h-1c-2.286-8.429-2.286-8.429-2-13l3-1 1-2z" fill="rgba(10, 6, 8, 1)" stroke="none"/>
  <path d="M184 48h8l-1 5h-9l2-3v-2z" fill="rgba(243, 156, 55, 1)" stroke="none"/>
  <path d="M232 37c.934 3.01 1.044 3.867 0 7h-2l-1 5h-5l-1-3c-2.015-.733-2.015-.733-4-1 3.623-1.208 4.641-.543 8 1l1.938-3.375 1.09-1.898A85.4 85.4 0 0 0 232 37z" fill="rgba(111, 108, 111, 1)" stroke="none"/>
  <path d="M270 184c1.482 1.085 1.482 1.085 3 3 .34 3.003.34 3.003.293 6.637l-.03 3.935c-.024 1.372-.05 2.744-.075 4.115a2071.59 2071.59 0 0 0-.042 4.15c-.035 3.389-.084 6.776-.146 10.163h-1l-.184-3.7c-.477-9.446-1.02-18.874-1.816-28.3z" fill="rgba(41, 13, 1, 1)" stroke="none"/>
  <path d="M17 138l8 1v1l-2.313.063L20 141c-1.669 3.422-1.669 3.422-3 7l-3 2 1-10h2v-2z" fill="rgba(113, 89, 62, 1)" stroke="none"/>
  <path d="M13 118c1 2 1 2 .313 4.938C11.902 126.224 10.91 127.09 8 129l-2 3v-10l1 4h2l.313-2.313c.73-2.858 1.457-3.844 3.687-5.687z" fill="rgba(140, 102, 66, 1)" stroke="none"/>
  <path d="M104 73l6 2-1.625.625c-2.308 1.336-3.537 2.555-5.313 4.5-2.696 2.827-2.696 2.827-5.937 3.25L95 83l2.25-1.625c2.927-2.528 4.736-5.093 6.75-8.375z" fill="rgba(231, 177, 145, 1)" stroke="none"/>
  <path d="M246.875 231.875l3.492.055L253 232v1l-13 1v2l-8 2c.625-1.875.625-1.875 2-4 4.4-1.864 8.127-2.222 12.875-2.125z" fill="rgba(214, 149, 74, 1)" stroke="none"/>
  <path d="M104 50c3.131-.047 5.992.089 9 1 2.039 2.226 2.814 4.163 4 7-3.473-.637-5.844-2.024-8.75-4l-2.422-1.625L104 51v-1z" fill="rgba(39, 24, 16, 1)" stroke="none"/>
  <path d="M162 39l-1 2h-6l-1 3-5 1v-2l-4-1c1.894-.507 3.79-1.006 5.688-1.5l3.199-.844c2.824-.595 5.241-.784 8.113-.656z" fill="rgba(55, 52, 56, 1)" stroke="none"/>
  <path d="M62 290l1.703.96c2.449 1.109 4.38 1.43 7.047 1.665l2.422.227L75 293l-2 1v2l7 1v1c-6.96-.387-11.94-2.634-18-6v-2z" fill="rgba(122, 120, 121, 1)" stroke="none"/>
  <path d="M130 106h1l2 16h2v2c-2.375-.25-2.375-.25-5-1-1.375-1.938-1.375-1.938-2-4l1-2c.228-1.87.41-3.747.563-5.625l.253-3.04L130 106z" fill="rgba(85, 103, 81, 1)" stroke="none"/>
  <path d="M118 32c1.155.905 2.299 1.824 3.438 2.75l1.933 1.547c1.817 1.9 2.233 3.139 2.629 5.703-2.972-1.125-5.334-2.223-8-4-.188-3.125-.188-3.125 0-6z" fill="rgba(44, 38, 36, 1)" stroke="none"/>
  <path d="M90 22l15 7v2l2 1c-5.009-.376-8.116-2.094-12.168-4.844C92.897 25.833 92.897 25.833 90 25v-3z" fill="rgba(200, 140, 77, 1)" stroke="none"/>
  <path d="M212 288c.688 1.688.688 1.688 1 4-1.419 3.31-2.312 4.689-5.625 6.188L205 299l-1 2h-5c2.688-2.252 4.646-3.882 8-5 1.05-1.85 1.05-1.85 2-4 .976-1.351 1.97-2.69 3-4z" fill="rgba(64, 64, 64, 1)" stroke="none"/>
  <path d="M73 186c1.534 3.069.55 5.7 0 9l-5 1v2h-2c1.557-4.671 4.084-8.087 7-12z" fill="rgba(75, 65, 68, 1)" stroke="none"/>
  <path d="M30 102v2c-4.963 2.371-9.46 4.432-15 5 2.75-4.125 5.99-5.498 10.75-6.688C28 102 28 102 30 102z" fill="rgba(199, 144, 81, 1)" stroke="none"/>
  <path d="M89 22l1 3 2.313.375C95 26 95 26 98 28l-6 1-2 6h-1V22z" fill="rgba(235, 159, 75, 1)" stroke="none"/>
  <path d="M69 214l2 1v2l1.563.75c3.209 1.646 6.313 3.448 9.437 5.25-3.346 1.115-5.693 1.323-9 0-2.074-2.678-4-5.524-4-9z" fill="rgba(86, 59, 32, 1)" stroke="none"/>
  <path d="M41 170c2.164.023 2.164.023 4.625.375l2.477.336L50 171v1c-7.437 2.017-14.316 2.214-22 2v-2l2.336.07 3.039.055 3.023.07c2.765.077 2.765.077 4.602-2.195z" fill="rgba(210, 150, 83, 1)" stroke="none"/>
  <path d="M114 165c3.403 1.012 4.757 1.648 6.813 4.625L122 172c-2.813.25-2.813.25-6 0-1.938-1.813-1.938-1.813-3-4l1-3z" fill="rgba(10, 10, 10, 1)" stroke="none"/>
  <path d="M198 99c-1.042 3.038-2.086 5.107-4.125 7.625-2.185 2.263-2.185 2.263-1.875 5.375h-2c.505-4.29 1.056-8.113 3-12 2-1 2-1 5-1z" fill="rgba(8, 3, 4, 1)" stroke="none"/>
  <path d="M94 66h1c.09 5.152-.153 9.92-1 15h-2l-1 2-2-9 1 2h3l1-10z" fill="rgba(202, 143, 87, 1)" stroke="none"/>
  <path d="M107 32c2.375.688 2.375.688 5 2 1.313 2.625 1.313 2.625 2 5l-8 1 1-8z" fill="rgba(235, 155, 65, 1)" stroke="none"/>
  <path d="M30 219h6l2 9c-6.875-5.625-6.875-5.625-8-9z" fill="rgba(54, 51, 58, 1)" stroke="none"/>
  <path d="M41 103c2.711.374 3.82.814 5.75 2.813C48 108 48 108 48 112c-3.73-1.243-4.795-2.807-7-6v-3z" fill="rgba(29, 15, 10, 1)" stroke="none"/>
  <path d="M231 47l1.313 1.438c1.71 1.799 1.71 1.799 4.687 2.562l-1 2-21-3v-1l16 1v-3z" fill="rgba(33, 23, 18, 1)" stroke="none"/>
  <path d="M189 37c5.789-.207 10.43.408 16 2v1c-6.214 1.02-10.484 1.63-16-2v-1z" fill="rgba(94, 86, 78, 1)" stroke="none"/>
  <path d="M241 30l-1 6-1-2-3 2-3 1 2-7c3.75-1.125 3.75-1.125 6 0z" fill="rgba(37, 35, 36, 1)" stroke="none"/>
  <path d="M172 126c6.055-.195 6.055-.195 8 0l2 2c-.33 3.297-.623 4.623-3 7v-8c-2.867.573-3.861.861-6 3l-1-4z" fill="rgba(229, 201, 181, 1)" stroke="none"/>
  <path d="M176 73l1 3c-2.313 2.5-2.313 2.5-5 5h-3c2.26-8 2.26-8 7-8z" fill="rgba(226, 155, 71, 1)" stroke="none"/>
  <path d="M127 58c1.815.449 3.627.91 5.438 1.375l3.058.773C138 61 138 61 139 63h-12v-5z" fill="rgba(81, 60, 40, 1)" stroke="none"/>
  <path d="M169 81h2c.027 1.437.046 2.875.063 4.313l.035 2.425C171 90 171 90 170 93h-2l-1 4v-8h2v-8z" fill="rgba(236, 160, 62, 1)" stroke="none"/>
  <path d="M149 43v2c-4.648 2.4-8.91 2.2-14 2 4.784-3.19 8.224-4.269 14-4z" fill="rgba(10, 4, 5, 1)" stroke="none"/>
  <path d="M96 41c6.283-.233 11.88.595 18 2-2.63 2.63-4.327 2.78-8 3-2-1.375-2-1.375-4-3-3.151-.72-3.151-.72-6-1v-1z" fill="rgba(186, 132, 74, 1)" stroke="none"/>
  <path d="M90 13h3v2l3 1-1 4-7 1v-2l3-1c.733-2.015.733-2.015 1-4l-2-1z" fill="rgba(12, 8, 9, 1)" stroke="none"/>
  <path d="M62 292l2 .813c3.65 1.444 7.322 2.816 11 4.187-4.297 1.307-7.602.66-12 0l-1-5z" fill="rgba(18, 15, 16, 1)" stroke="none"/>
  <path d="M257 283c1.5 1.375 1.5 1.375 3 3v2h-2v4l-4-1v-4h2l1-4z" fill="rgba(13, 11, 12, 1)" stroke="none"/>
  <path d="M3 159c4.357 5.2 5.128 8.227 5 15-2.31-2.31-2.722-3.83-3.625-6.938-.26-.875-.52-1.75-.79-2.652C3 162 3 162 3 159z" fill="rgba(212, 197, 174, 1)" stroke="none"/>
  <path d="M132 93l2 1c-1.092 3.277-1.827 3.916-4.438 6-2.45 1.964-3.776 3.32-5.562 6 .519-4.172 1.712-6.254 4.563-9.313l1.94-2.113L132 93z" fill="rgba(87, 110, 80, 1)" stroke="none"/>
  <path d="M168 81h1v8h-2l.438 3.813c.08.707.162 1.415.246 2.144.288 2.237.288 2.237 1.316 5.043l-2 2c-2.288-6.864-1.388-14.283 1-21z" fill="rgba(204, 146, 78, 1)" stroke="none"/>
  <path d="M92 81l7 2v1h-6l-1 6h-4c1.059-3.403 2.009-6.014 4-9z" fill="rgba(114, 79, 49, 1)" stroke="none"/>
  <path d="M244 63l2 1v6h4v2l3 1-1 2c-5.75-2.75-5.75-2.75-8-5-.125-3.625-.125-3.625 0-7z" fill="rgba(253, 180, 128, 1)" stroke="none"/>
  <path d="M94 42c7.385-.492 7.385-.492 10.5 2l1.5 2h-3v-2l-9 1-1 3 1-6z" fill="rgba(54, 26, 8, 1)" stroke="none"/>
  <path d="M107 186c2.733 2.172 4.729 3.858 5.555 7.336.232 2.227.391 4.426.445 6.664l-2 1-.367-2.266-.508-2.984-.492-2.953c-.582-2.57-1.341-4.518-2.633-6.797z" fill="rgba(239, 166, 77, 1)" stroke="none"/>
  <path d="M53 150h1v5h-9v-2l-7-1v-1c5.802-.363 9.64.743 15 3v-4z" fill="rgba(230, 160, 80, 1)" stroke="none"/>
  <path d="M178.5 124.063c2.5.937 2.5.937 4.375 3.25C184 130 184 130 183.875 132.25L183 134l-3 1 .563-3.438L181 128c-1.968-1.968-5.348-1.662-8-2 3-2 3-2 5.5-1.938z" fill="rgba(250, 240, 226, 1)" stroke="none"/>
  <path d="M253.938.688c2.824.056 3.754.08 6.062 1.812l1 1.5-3.75-.688c-3.447-.46-3.447-.46-6.563 1.063L249 6l-3 1c2.05-4.394 2.787-5.904 7.938-6.313z" fill="rgba(96, 94, 95, 1)" stroke="none"/>
  <path d="M158 279h1c-.75 6.625-.75 6.625-3 10h-3l-1-3 4-1v-4h2v-2z" fill="rgba(15, 15, 15, 1)" stroke="none"/>
  <path d="M40 212c1.044 3.133.934 3.99 0 7l4 1-2 4c-2.563-2.25-2.563-2.25-5-5 .092-3.112 1.231-4.347 3-7z" fill="rgba(209, 154, 87, 1)" stroke="none"/>
  <path d="M50 199l5 1 1 7-4 2v-9l-2-1z" fill="rgba(198, 141, 85, 1)" stroke="none"/>
  <path d="M6 150h3v11H7l-1-11z" fill="rgba(183, 137, 100, 1)" stroke="none"/>
  <path d="M14 103l2 1-1 5-1-2-4 4-3-1c2.22-2.908 3.93-4.953 7-7z" fill="rgba(106, 97, 99, 1)" stroke="none"/>
  <path d="M178 112h10l2 6h-5l1-4-8-1v-1z" fill="rgba(243, 237, 220, 1)" stroke="none"/>
  <path d="M113 248h2c.077 4.516.102 8.59-1 13h-1v-6h-2l2-7z" fill="rgba(92, 92, 92, 1)" stroke="none"/>
  <path d="M69 208c1 2 1 2 .875 4.75.145 3.774 1.27 6.002 3.125 9.25h-2v-2l-4-1c.14-1.646.287-3.292.438-4.938.08-.916.162-1.833.246-2.777C68 209 68 209 69 208z" fill="rgba(65, 50, 39, 1)" stroke="none"/>
  <path d="M117 205h1c.054 2.27.093 4.542.125 6.813l.07 3.832C118 219 118 219 116 222h-2l1-6h2v-11z" fill="rgba(251, 239, 211, 1)" stroke="none"/>
  <path d="M207 196l11 6v1c-2.688.313-2.688.313-6 0-2.875-2.375-2.875-2.375-5-5v-2z" fill="rgba(218, 153, 73, 1)" stroke="none"/>
  <path d="M28 185h7l-1 3c-2.066.73-2.066.73-4.563 1.188l-2.503.48L25 190l1-3h2v-2z" fill="rgba(128, 92, 54, 1)" stroke="none"/>
  <path d="M53 132l3 1v9h-2c-1.607-3.215-1.057-6.436-1-10z" fill="rgba(33, 10, 7, 1)" stroke="none"/>
  <path d="M32.188 135.938L36 136v1l-3.313.875c-3.727.944-3.727.944-6.687 3.125-3.188.125-3.188.125-6 0v-1h5v-3c2.75-.917 4.36-1.109 7.188-1.063z" fill="rgba(146, 102, 57, 1)" stroke="none"/>
  <path d="M198 104l3 1c-1.002 3.793-1.81 6.715-4 10a757.916 757.916 0 0 1-.063-4.938l-.035-2.777C197 105 197 105 198 104z" fill="rgba(99, 130, 87, 1)" stroke="none"/>
  <path d="M267 96c1.128 3.383.818 4.768.063 8.188l-.59 2.73L266 109l-4-1 .813-1.5c1.626-3.424 2.882-6.941 4.187-10.5z" fill="rgba(51, 46, 44, 1)" stroke="none"/>
  <path d="M257 64h2c2.286 8.429 2.286 8.429 2 13l-2-1c-1.268-4.296-2-7.51-2-12z" fill="rgba(228, 180, 157, 1)" stroke="none"/>
  <path d="M81 52h2l-2 20h-1c-.027-2.958-.047-5.917-.063-8.875l-.025-2.55-.01-2.442-.016-2.254C80 54 80 54 81 52z" fill="rgba(10, 2, 6, 1)" stroke="none"/>
  <path d="M52 232l3 1v5l-4 1-2-3h2l1-4z" fill="rgba(111, 98, 88, 1)" stroke="none"/>
  <path d="M42 213l3 1v3h-2v3l-4-1v-3h3v-3z" fill="rgba(245, 159, 60, 1)" stroke="none"/>
  <path d="M6 111c1.6 4.002.293 7.046-1 11H3c.75-7.625.75-7.625 3-11z" fill="rgba(82, 81, 84, 1)" stroke="none"/>
  <path d="M80 186h1v5l-3 1-.375 2.25c-.58 2.551-1.362 4.477-2.625 6.75l-2-1 7-14z" fill="rgba(198, 140, 84, 1)" stroke="none"/>
  <path d="M195 190l2 1-1.313 2c-2.012 3.577-3.311 7.135-4.687 11h-1v-5h2l.375-3.375C193 192 193 192 195 190z" fill="rgba(251, 235, 203, 1)" stroke="none"/>
  <path d="M196 91h3c-1.555 3.817-4.036 6.192-7 9l1-6 3-1v-2z" fill="rgba(211, 152, 73, 1)" stroke="none"/>
  <path d="M168 75h2c-.656 4.485-1.7 8.67-3 13h-1c-.167-4.921-.248-8.503 2-13z" fill="rgba(86, 56, 31, 1)" stroke="none"/>
  <path d="M218 296l1 2h2v2l2 1-8 1 3-6z" fill="rgba(199, 198, 199, 1)" stroke="none"/>
  <path d="M64 297c3.146-.262 4.618-.248 7.313 1.5L73 300l-1 2c-5.75-1.625-5.75-1.625-8-5z" fill="rgba(73, 71, 72, 1)" stroke="none"/>
  <path d="M211 238c6.75 2.625 6.75 2.625 9 6l-8-2-1-4z" fill="rgba(250, 239, 220, 1)" stroke="none"/>
  <path d="M102 135l2 2c-4.327 2.23-7.284 1.925-12 1 3.264-1.883 6.244-2.673 10-3z" fill="rgba(77, 73, 74, 1)" stroke="none"/>
  <path d="M52 116c1.884 3.265 2.493 6.281 3 10l-3-1-2 2v-6h2v-5z" fill="rgba(72, 65, 62, 1)" stroke="none"/>
  <path d="M236 117l8 1 1 4-7-2v-2l-2-1z" fill="rgba(249, 232, 202, 1)" stroke="none"/>
  <path d="M45 113c2.797 2.068 3.027 3.144 3.688 6.688L49 123l-2-1v-2h-5l4-1-1-6z" fill="rgba(220, 155, 87, 1)" stroke="none"/>
  <path d="M118 60l3 1v9h-3V60z" fill="rgba(230, 184, 157, 1)" stroke="none"/>
  <path d="M105 46c1.938.813 1.938.813 4 2l1 3-7-1 2-4z" fill="rgba(14, 4, 2, 1)" stroke="none"/>
  <path d="M173 37l-1.875.813C168.7 38.956 168.7 38.956 167 42l-3-1 1-2-3-1c3.674-1.176 7.17-1.074 11-1z" fill="rgba(73, 72, 75, 1)" stroke="none"/>
  <path d="M93 13c3.534 1.963 6.245 4.04 9 7l-6 1-.375-2.438L95 16l-2-1v-2z" fill="rgba(72, 70, 72, 1)" stroke="none"/>
  <path d="M154 300h9l-3 1v2l3 1c-3.123-.486-5.996-.999-9-2v-2z" fill="rgba(53, 51, 52, 1)" stroke="none"/>
  <path d="M162 268h1c-.75 7.75-.75 7.75-3 10v-2l-2-1 4-7z" fill="rgba(94, 94, 94, 1)" stroke="none"/>
  <path d="M86 225c8.571 1 8.571 1 12 2v3c-1.627-.45-3.252-.91-4.875-1.375l-2.742-.773C88 227 88 227 86 225z" fill="rgba(203, 139, 72, 1)" stroke="none"/>
  <path d="M114 217c1 3 1 3 .313 5-1.488 2.266-3.07 3.505-5.313 5v-4h2l.375-1.875C112 219 112 219 114 217z" fill="rgba(231, 174, 99, 1)" stroke="none"/>
  <path d="M189 205c1.217 2.434 1.32 4.418 1.563 7.125l.253 2.758L191 217c-2.081-1.88-3.739-3.443-4.938-6-.087-2.806 1.116-3.96 2.938-6z" fill="rgba(244, 221, 184, 1)" stroke="none"/>
  <path d="M175 151l1 5-1.875.438c-2.158.494-2.158.494-4.125 1.562l-2-2c4.75-5 4.75-5 7-5z" fill="rgba(192, 192, 192, 1)" stroke="none"/>
  <path d="M85 138h5l1 2-3 1 1 6c-2.523-1.974-2.993-2.967-3.688-6.188L85 138z" fill="rgba(89, 88, 88, 1)" stroke="none"/>
  <path d="M177 129h1v13l-1-3h-2l2-10z" fill="rgba(57, 40, 33, 1)" stroke="none"/>
  <path d="M192 100c.625 1.813.625 1.813 1 4l-2 3c-.454 2.28-.454 2.28-.625 4.688l-.227 2.449L190 116h-1c-.327-6.13-.394-10.627 3-16z" fill="rgba(51, 28, 12, 1)" stroke="none"/>
  <path d="M199 99c.625 1.875.625 1.875 1 4l-2 2c-.458 1.972-.458 1.972-.625 4.125L197 113h-1a224.84 224.84 0 0 1-.188-4.75l-.105-2.672c.344-3.025 1.295-4.334 3.293-6.578z" fill="rgba(83, 103, 71, 1)" stroke="none"/>
  <path d="M77 287l1 2h2l-1 3-5 1-1-2 4-4z" fill="rgba(73, 69, 70, 1)" stroke="none"/>
  <path d="M45 230h2a125.024 125.024 0 0 1 4 6c-3.688-.498-5.605-1.1-8-4l2-2z" fill="rgba(64, 57, 56, 1)" stroke="none"/>
  <path d="M121 169l3 1c.688 2.063.688 2.063 1 4h-6l-1-3h3v-2z" fill="rgba(35, 35, 35, 1)" stroke="none"/>
  <path d="M7 132l3 2v3H8l-1 3H6c-.042-2.333-.04-4.667 0-7l1-1z" fill="rgba(98, 91, 80, 1)" stroke="none"/>
  <path d="M249 118c2 1 2 1 4 3l-3 3-3-3-1 2v-4l3-1z" fill="rgba(75, 68, 66, 1)" stroke="none"/>
  <path d="M40 99l7 5-1 2-5-3-1 2c-1.125-3.75-1.125-3.75 0-6z" fill="rgba(100, 90, 88, 1)" stroke="none"/>
  <path d="M90 91l-3 4c-1.938-.375-1.938-.375-4-1l-1-2c3.067-1.862 4.597-2.215 8-1z" fill="rgba(87, 59, 44, 1)" stroke="none"/>
  <path d="M75 87l4 5-2 1v7h-1l-1-13z" fill="rgba(132, 126, 127, 1)" stroke="none"/>
  <path d="M268 226h1v11l-5-1v-2h4v-8z" fill="rgba(228, 160, 72, 1)" stroke="none"/>
  <path d="M110 227v2l-9 3v-3c6.75-2 6.75-2 9-2z" fill="rgba(240, 208, 163, 1)" stroke="none"/>
  <path d="M203 194c1.875.188 1.875.188 4 1 1.25 2.563 1.25 2.563 2 5l-6-2v-4z" fill="rgba(236, 163, 69, 1)" stroke="none"/>
  <path d="M230 163l3 2c-2.313 2.063-2.313 2.063-5 4l-3-1 5-5z" fill="rgba(5, 3, 3, 1)" stroke="none"/>
  <path d="M116 118c3.669 2.446 5.062 5.124 7 9l-6-2-1-7z" fill="rgba(221, 221, 221, 1)" stroke="none"/>
  <path d="M256 105l2 3c-.875 2.688-.875 2.688-2 5h-2v2l-2-1 4-9z" fill="rgba(110, 75, 45, 1)" stroke="none"/>
  <path d="M210 92c-1.063 1.563-1.063 1.563-3 3-3.304-.232-6.021-.51-9-2 3.996-2.83 7.427-1.762 12-1z" fill="rgba(50, 36, 22, 1)" stroke="none"/>
  <path d="M231 54h5l.875 2.438c.858 2.695.858 2.695 3.125 3.562h-4l-1-3c-2-1.209-2-1.209-4-2v-1z" fill="rgba(193, 137, 77, 1)" stroke="none"/>
  <path d="M109 54l8 5c-3.623 1.208-4.641.543-8-1v-4z" fill="rgba(220, 172, 144, 1)" stroke="none"/>
  <path d="M202 48c2.602-.293 2.602-.293 5.625-.188l3.04.083L213 48v1h-7l-1 2h-5l2-3z" fill="rgba(54, 50, 48, 1)" stroke="none"/>
  <path d="M264 159l3 1c-.375 2.438-.375 2.438-1 5l-2 1a128.624 128.624 0 0 1-1-6l1-1z" fill="rgba(6, 5, 4, 1)" stroke="none"/>
  <path d="M247 143c.813 1.688.813 1.688 1 4-2.438 2.75-2.438 2.75-5 5l-2-1a125.024 125.024 0 0 1 4-6h2v-2z" fill="rgba(64, 64, 64, 1)" stroke="none"/>
  <path d="M234 96c2 2 2 2 2 5l-6-1v-3c1.875-.625 1.875-.625 4-1z" fill="rgba(245, 163, 68, 1)" stroke="none"/>
  <path d="M269 77l3 2c.293 2.383.293 2.383.188 5.125l-.083 2.758L272 89c-2.495-2.495-2.36-3.673-2.625-7.125l-.227-2.758L269 77z" fill="rgba(106, 103, 104, 1)" stroke="none"/>
  <path d="M121 62h1v5h2l-1 4-5 1 1-2h2v-8z" fill="rgba(118, 91, 77, 1)" stroke="none"/>
  <path d="M194 57l-2 3c-2.625.188-2.625.188-5 0l1-3c2.49-1.245 3.41-.777 6 0z" fill="rgba(221, 151, 71, 1)" stroke="none"/>
  <path d="M219 44c5.538.615 5.538.615 7.875 2.563L228 48l-4 1-1-3c-2.015-.733-2.015-.733-4-1v-1z" fill="rgba(86, 85, 84, 1)" stroke="none"/>
  <path d="M162 39h3v5h-5l2-5z" fill="rgba(8, 7, 13, 1)" stroke="none"/>
  <path d="M208 304l4 2c-5.273 3.223-5.273 3.223-7 4l-2-1c1-2 1-2 4-4l1-1z" fill="rgba(81, 81, 81, 1)" stroke="none"/>
  <path d="M74 187l3 2-1 5-4-4 2-3z" fill="rgba(6, 2, 4, 1)" stroke="none"/>
  <path d="M268 186h2l1 7-6-3c1.375-2 1.375-2 3-4z" fill="rgba(195, 138, 81, 1)" stroke="none"/>
  <path d="M267 184h3v2h-2l-.875 1.938C266 190 266 190 264 191l1-5h2v-2z" fill="rgba(107, 70, 40, 1)" stroke="none"/>
  <path d="M270 184c3 3 3 3 3.074 5.48l-.387 2.708-.363 2.73L272 197h-1l-1-13z" fill="rgba(50, 25, 7, 1)" stroke="none"/>
  <path d="M208 174l2 1-3 5-3-1c1.75-3.875 1.75-3.875 4-5z" fill="rgba(91, 88, 86, 1)" stroke="none"/>
  <path d="M14 150l8 1v2l-8 2v-5z" fill="rgba(217, 157, 94, 1)" stroke="none"/>
  <path d="M6 145l1 2h3v7l-1-4H6v-5z" fill="rgba(113, 83, 53, 1)" stroke="none"/>
  <path d="M18 142l1 3-5 5c.498-3.688 1.1-5.605 4-8z" fill="rgba(125, 94, 54, 1)" stroke="none"/>
  <path d="M91 137c2.622 1.049 3.794 1.65 5.25 4.125L97 143c-3 0-3 0-4.688-1.313C91 140 91 140 91 137z" fill="rgba(211, 211, 211, 1)" stroke="none"/>
  <path d="M118 119l5 1 1 3-3 2c-3-4.875-3-4.875-3-6z" fill="rgba(28, 28, 28, 1)" stroke="none"/>
  <path d="M164 102l3 1v4h-2l-1 4v-9z" fill="rgba(232, 231, 232, 1)" stroke="none"/>
  <path d="M189 97h3c-.75 5.75-.75 5.75-3 8v-8z" fill="rgba(232, 161, 82, 1)" stroke="none"/>
  <path d="M141 91l4 1-1 5h-2l-1-6z" fill="rgba(101, 121, 97, 1)" stroke="none"/>
  <path d="M101 78l3 1c-3.323 3.938-3.323 3.938-6.75 4.25L95 83l2.438-1.938C99.275 79.594 99.275 79.594 101 78z" fill="rgba(219, 174, 150, 1)" stroke="none"/>
  <path d="M176 67h2c-.564 3.27-1.5 4.826-4 7l-2-1a125.024 125.024 0 0 1 4-6z" fill="rgba(210, 146, 75, 1)" stroke="none"/>
  <path d="M184 48h8l-1 5-3-1 2-3h-6v-1z" fill="rgba(229, 156, 70, 1)" stroke="none"/>
  <path d="M109 32c1.316.255 2.628.53 3.938.813l2.214.457L117 34l1 3c-3.775-1.09-6.47-1.908-9-5z" fill="rgba(53, 24, 7, 1)" stroke="none"/>
  <path d="M80 18h1l1 7-4 3 2-10z" fill="rgba(104, 102, 105, 1)" stroke="none"/>
  <path d="M103 20c3.058 1.736 5.634 3.385 8 6l-3 1-1-2h-3l-1-5z" fill="rgba(91, 90, 91, 1)" stroke="none"/>
  <path d="M154 292l.875 1.813c1.172 2.38 1.172 2.38 3.125 5.187l-6-1c.506-2.169 1-4 2-6z" fill="rgba(225, 225, 225, 1)" stroke="none"/>
  <path d="M174 270c1.43 2.354 2.087 3.48 1.625 6.25L175 278h-2c-.125-5.75-.125-5.75 1-8z" fill="rgba(40, 40, 40, 1)" stroke="none"/>
  <path d="M219 235c2.83 2.83 3.376 3.381 4 7h-2l-1 2-1-9z" fill="rgba(151, 91, 42, 1)" stroke="none"/>
  <path d="M217 119l2 3-1 3h-4c1.875-4.875 1.875-4.875 3-6z" fill="rgba(101, 115, 95, 1)" stroke="none"/>
  <path d="M22.09 113.867C24 114 24 114 26 115v2a763.515 763.515 0 0 1-4.375-.438l-2.46-.246C17 116 17 116 15 115c1.899-1.899 4.572-1.124 7.09-1.133z" fill="rgba(220, 160, 85, 1)" stroke="none"/>
  <path d="M131 89l2 1c-1.75 4.875-1.75 4.875-4 6l-1-5 3-2z" fill="rgba(16, 22, 13, 1)" stroke="none"/>
  <path d="M165 84h1v6h-2l-1 3c-1-3-1-3 .438-6.188L165 84z" fill="rgba(68, 49, 46, 1)" stroke="none"/>
  <path d="M175 62h4l-2 5-3-1 1-4z" fill="rgba(83, 59, 39, 1)" stroke="none"/>
  <path d="M248 58l1 3c-3.069 1.534-5.7.55-9 0 3.061-2.624 3.732-3 8-3z" fill="rgba(118, 86, 61, 1)" stroke="none"/>
  <path d="M256 53l4 3-1 8h-1l-2-11z" fill="rgba(71, 45, 36, 1)" stroke="none"/>
  <path d="M170 48h2v2h2v2h2v2c-2.438-.75-2.438-.75-5-2-.813-2.125-.813-2.125-1-4z" fill="rgba(236, 149, 51, 1)" stroke="none"/>
</svg>
</g></svg></g></g>
<!-- /image 73262 -->
</defs><rect x="0" y="0" width="250" height="250" fill="rgba(248, 159, 55, 1)"></rect><use xlink:href="#transformed-73262" transform="translate(-250, -250)"></use><use xlink:href="#transformed-73262" transform="translate(0, -250)"></use><use xlink:href="#transformed-73262" transform="translate(250, -250)"></use><use xlink:href="#transformed-73262" transform="translate(-250, 0)"></use><use xlink:href="#transformed-73262" transform="translate(0, 0)"></use><use xlink:href="#transformed-73262" transform="translate(250, 0)"></use><use xlink:href="#transformed-73262" transform="translate(-250, 250)"></use><use xlink:href="#transformed-73262" transform="translate(0, 250)"></use><use xlink:href="#transformed-73262" transform="translate(250, 250)"></use></svg>