<?xml version="1.0" standalone="no"?>
<svg xmlns="http://www.w3.org/2000/svg" xmlns:xlink="http://www.w3.org/1999/xlink" height="200px" width="200px">
  <defs>
    <pattern id="doodad" width="120" height="120" viewBox="0 0 40 40" patternUnits="userSpaceOnUse" patternTransform="">
      <rect width="100%" height="100%" fill="rgba(113, 128, 150,1)"/>
      <path d="M20 8.5a 20 20 0 0 1 40 0h3a 3 3 0 0 1-6 0a 17 17 0 0 0-34 0a 3 3 0 0 1-6 0a 17 17 0 0 0-34 0h-3a 20 20 0 0 1 40 0z" fill="rgba(26, 32, 44,1)" filter="url(#filter-doodad-1)"/>
      <path d="M0 28.5a 20 20 0 0 1 40 0h3a 3 3 0 0 1-6 0a 17 17 0 0 0-34 0a 3 3 0 0 1-6 0z" fill="rgba(26, 32, 44,1)"/>
      <path d="M20 48.5a 20 20 0 0 1 40 0h3a 3 3 0 0 1-6 0a 17 17 0 0 0-34 0a 3 3 0 0 1-6 0a 17 17 0 0 0-34 0h-3a 20 20 0 0 1 40 0z" fill="rgba(26, 32, 44,1)" filter="url(#filter-doodad-1)"/>
    </pattern>
    <filter id="filter-doodad-1">
      <feTurbulence baseFrequency="1 0.01" numOctaves="2" result="result1"/>
      <feDisplacementMap in2="result1" scale="0" result="result2" xChannelSelector="R" yChannelSelector="G" in="SourceGraphic"/>
      <feComposite in2="result2" in="SourceGraphic" operator="atop" result="compositeGraphic"/>
      <feOffset in="compositeGraphic" result="fbSourceGraphic" dy="0"/>
    </filter>
  </defs>
  <rect fill="url(#doodad)" height="200%" width="200%"/>
</svg>
