<svg version="1.1"
      xmlns="http://www.w3.org/2000/svg"
      xmlns:xlink="http://www.w3.org/1999/xlink"  id="snapshot-17172" width="250" height="250" viewBox="0 0 250 250"><desc>This image was made on Patterninja.com</desc><defs>
<!-- image 61566 -->
<g id="transformed-61566" data-image="61566" transform="translate(-125, -125) rotate(0, 125, 125)"><g><svg version="1.1" width="250px" height="250px" viewBox="0 0 250 250"><g id="original-61566"><svg xmlns="http://www.w3.org/2000/svg" viewBox="0 0 500 500" xmlns:xlink="http://www.w3.org/1999/xlink" version="1.1" preserveAspectRatio="xMidYMid meet">
  <path d="M318.938 1c8.221 7.973 9.183 20.81 9.417 31.623.06 9.814-.455 19.505-1.605 29.252-.11.955-.218 1.91-.33 2.894-1.233 9.216-3.584 16.94-9.42 24.231-.372 2.906-.372 2.906-.062 6.063.687 24.216-6.444 42.32-22.938 59.937l-2 2c1.122 2.272 2.247 4.543 3.375 6.813l1.076 2.175c1.944 3.901 3.94 7.758 6.06 11.567 6.331 11.435 10.89 22.88 14.489 35.445l1.059 3.629c7.333 29.158 4.19 64.398-11.059 90.371-12.297 19.258-30.68 36.481-53.555 41.621-12.051 1.868-25.63 2.988-36.445-3.621v-2c-2.73-.081-5.457-.14-8.188-.188l-2.33-.076c-4.79-.061-7.462.43-11.482 3.264-18.959 6.224-44.092-1.97-61.25-10.313A96.054 96.054 0 0 1 126 331v-2l-1.7-.73c-9.497-5.24-14.838-14.798-19.3-24.27l-1.246-2.547c-3.608-7.665-5.03-15.05-5.379-23.453l-.117-2.348A914.445 914.445 0 0 1 98 270l-1.766-.078c-16.205-1.121-32.856-9.179-43.746-21.324-1.511-1.776-1.511-1.776-4.05-3.098-3.194-1.965-5.16-4.545-7.555-7.402-1.823-2.032-3.707-3.69-5.82-5.41-19.527-16.62-27.097-44.018-31.876-68.125l-.664-3.302c-1.87-9.872-2.055-18.633.102-28.448l.54-2.477C6.625 115.307 12.794 99.026 26 90l2.688-1.875c6.034-2.05 12.086-2.358 18.101-.059C52.667 91.326 56.57 95.265 60 101l1.297 2.137c9.16 16.65 12.436 38.075 15.578 56.613 1.941 11.344 5.065 22.262 8.283 33.3 1.261 4.42 2.394 8.87 3.53 13.325 1.492 5.79 3.139 11.43 5.32 17.008C95.46 227.214 96.722 231.107 98 235l.304-1.83c3.795-22.57 3.795-22.57 7.696-32.17l.746-1.88c3.516-8.79 7.364-16.635 13.254-24.12l1.96-2.535c1.21-1.558 2.428-3.11 3.657-4.653 1.44-1.768 1.44-1.768 2.383-3.812l-2.563-1.625C117.85 157.233 113.332 152.134 109 144l-1.79-3.266c-6.733-12.779-11.027-26.713-11.339-41.238.31-9.42.31-9.42-3.621-17.496l-1.633-1.441C87.378 77.437 85.886 73.022 84 69l-2-3.625C78.789 58.952 76.988 51.877 75 45l-.984-3.352C70.002 26.996 70.002 26.996 73 21h2l1-3c5.482-3.061 10.234-3.513 16.438-3.438l2.654.021c8.412.204 15.932 1.84 23.908 4.417l3.352 1.027c7.311 2.5 13.367 6.137 19.625 10.583 4.183 2.979 4.183 2.979 9.023 4.39a82.125 82.125 0 0 0 7.063-2.75C185.806 20.636 214.37 21.957 242 33c2.714 1.26 5.35 2.606 8 4v-2h2l2-6h2l.652-1.691C262.484 17.319 275.725 11.219 286 7l4.313-2c9.083-3.996 18.795-7.346 28.625-4z" fill="rgba(251, 250, 231, 1)" stroke="none"/>
  <path d="M318.938 1c8.221 7.973 9.183 20.81 9.417 31.623.06 9.814-.455 19.505-1.605 29.252-.11.955-.218 1.91-.33 2.894-1.233 9.216-3.584 16.94-9.42 24.231-.372 2.906-.372 2.906-.062 6.063.687 24.216-6.444 42.32-22.938 59.937l-2 2c1.122 2.272 2.247 4.543 3.375 6.813l1.076 2.175c1.944 3.901 3.94 7.758 6.06 11.567 6.331 11.435 10.89 22.88 14.489 35.445l1.059 3.629c7.333 29.158 4.19 64.398-11.059 90.371-12.297 19.258-30.68 36.481-53.555 41.621-12.051 1.868-25.63 2.988-36.445-3.621v-2c-2.73-.081-5.457-.14-8.188-.188l-2.33-.076c-4.79-.061-7.462.43-11.482 3.264-18.959 6.224-44.092-1.97-61.25-10.313A96.054 96.054 0 0 1 126 331v-2l-1.7-.73c-9.497-5.24-14.838-14.798-19.3-24.27l-1.246-2.547c-3.608-7.665-5.03-15.05-5.379-23.453l-.117-2.348A914.445 914.445 0 0 1 98 270l-1.766-.078c-16.205-1.121-32.856-9.179-43.746-21.324-1.511-1.776-1.511-1.776-4.05-3.098-3.194-1.965-5.16-4.545-7.555-7.402-1.823-2.032-3.707-3.69-5.82-5.41-19.527-16.62-27.097-44.018-31.876-68.125l-.664-3.302c-1.87-9.872-2.055-18.633.102-28.448l.54-2.477C6.625 115.307 12.794 99.026 26 90l2.688-1.875c6.034-2.05 12.086-2.358 18.101-.059C52.667 91.326 56.57 95.265 60 101l1.297 2.137c9.16 16.65 12.436 38.075 15.578 56.613 1.941 11.344 5.065 22.262 8.283 33.3 1.261 4.42 2.394 8.87 3.53 13.325 1.492 5.79 3.139 11.43 5.32 17.008C95.46 227.214 96.722 231.107 98 235l.304-1.83c3.795-22.57 3.795-22.57 7.696-32.17l.746-1.88c5.025-12.563 10.875-24.113 22.254-32.12-1.644 5.608-3.734 10.563-6.438 15.75-5.082 9.868-7.746 19.684-9.167 30.668C113 216 113 216 112 218c-1.461 10.318-1.323 20.91-1.375 31.313l-.014 2.673c-.03 16.815 1.444 32.495 8.389 48.014l.813 2.875c4.994 13.142 15.193 22.012 27.624 27.688 1.666.771 3.331 1.543 4.997 2.316l2.378 1.094c1.906.895 3.786 1.845 5.66 2.804 2.36 1.368 2.36 1.368 4.528 1.223l-2.25-1.813c-6.716-6.83-7.609-17.826-9.137-26.878-.43-3.174-.43-3.174-1.613-5.309a215.134 215.134 0 0 1-.063-8.125l.014-2.285c.012-1.863.03-3.727.049-5.59h2c.315 1.111.63 2.222.953 3.367 2.062 7.2 4.118 14.275 7.094 21.16 1.172 3.041 1.935 6.135 2.766 9.286 1.494 4.96 2.754 7.84 7.332 10.398 5.306 2.257 10.081 3.419 15.855 2.789 3.273-1.904 3.273-1.904 6-4h2l.586-1.793.789-2.394.773-2.356C199 322 199 322 200.04 319.664c1.202-3.332 1.606-6.601 1.961-10.101l.253-2.321c.516-5.033.867-10.062 1.142-15.113.71-12.947 1.73-25.66 3.98-38.442l.597-3.464c1.226-6.54 2.982-12.298 6.028-18.223h1c.027 1.73.047 3.458.063 5.188l.035 2.917C215 243 215 243 214.5 245.335c-.526 2.797-.621 5.346-.615 8.19v3.275l.016 3.5.005 3.611c.005 3.8.018 7.601.03 11.401.006 2.58.01 5.158.014 7.737.011 6.317.028 12.634.049 18.951l.618-2.077.813-2.727.806-2.702c.847-2.767 1.802-5.475 2.826-8.182 1.12-3.017 2.12-5.96 3-9.062 1.293-4.484 2.58-8.893 5.937-12.25-2.524 24.831-2.524 24.831-5.188 36.313-2.225 9.734-3.945 21.192.188 30.687 1.524 2.348 1.524 2.348 4 4 2.733.406 4.967.573 7.688.5l2.17-.039c9.728-.371 16.553-4.358 23.142-11.461 2.194-2.894 4.127-5.89 6-9l1.688-2.625c1.408-2.439 1.408-2.439 2.562-5.438 3.476-8.372 8.788-16.054 13.488-23.78A88.207 88.207 0 0 0 287 278c.29 5.82-.403 10.028-2.813 15.375-1.77 4.139-3.445 8.192-4.562 12.563-2.968 10.484-8.682 20.73-15.625 29.062 5.171-3.16 9.25-6.949 13.5-11.25l1.934-1.91c7.438-7.47 12.8-15.46 17.566-24.84l1.453-2.797c2.59-5.268 4.066-9.727 4.346-15.599.194-2.51.609-4.82 1.15-7.276 4.563-22.135 5.159-45.558-.949-67.328-.333-1.684-.649-3.37-.938-5.063-1.902-9.846-5.256-19.685-9.363-28.824-.815-2.464-.82-4.534-.699-7.113h-2l-1-4c-4.23 1.489-7.745 3.699-11.438 6.188-6.914 4.557-14.04 8.344-21.562 11.812l-2.43 1.121c-3.331 1.14-6.65 1.609-10.132 2.004l-2.21.255c-5.953.62-11.871.802-17.853.808l-2.51.002c-4.716-.043-9.213-.41-13.865-1.19 3.013-2.009 4.538-2.267 8.039-2.53 8.545-.644 16.644-2.458 24.899-4.72 1.04-.275 2.082-.55 3.154-.835 10.675-3.03 19.041-8.797 27.908-15.29l2.365-1.723c17.513-12.825 30.487-23.969 35.51-45.902l1.742-7.188.738-3.167C312 96 312 96 313 93c.156-3.127.253-6.252.328-9.383.652-3.509 1.267-4.643 3.18-7.472 4.011-6.82 3.24-14.673 3.117-22.332l-.014-2.409c.583-21.02.583-21.02-6.611-39.404-5.735-.361-10.824.61-16.375 2l-2.636.66C282.06 17.837 271.305 23.27 261 30h-2v2c-4.47 4-4.47 4-7 4v2h-2v-3h2l2-6h2l.652-1.691C262.484 17.319 275.725 11.219 286 7l4.313-2c9.083-3.996 18.795-7.346 28.625-4z" fill="rgba(18, 17, 17, 1)" stroke="none"/>
  <path d="M92.438 14.563l2.654.02c8.412.204 15.932 1.84 23.908 4.417l3.352 1.027c7.311 2.5 13.367 6.137 19.625 10.583 4.183 2.979 4.183 2.979 9.023 4.39a82.125 82.125 0 0 0 7.063-2.75C185.948 20.577 214.214 22.14 242 33c1.342.65 2.678 1.311 4 2v3c-8.124-.855-8.124-.855-11.988-1.494-11.808-1.873-23.52-1.731-35.45-1.631-2.1.01-4.199.02-6.298.027-5.088.022-10.176.057-15.264.098v3l2 1 .313 3.188c.727 4.034 1.768 5.111 4.472 8.003 2.491 3.71 2.926 8.423 3.215 12.809l-1 3h2c.689-8.268-1.48-13.22-6-20-.4-3.42-.564-6.873 1-10 2.563-.625 2.563-.625 5-1v4l1.375-1.5C191 36 191 36 193 36v9l.813-3.313C195 38 195 38 198 35l-1 13h2V36h2l1 5h2l1-5h2l-.184 1.695a430.165 430.165 0 0 0-1.316 15.367A311.063 311.063 0 0 1 204 69l-2-1a128.606 128.606 0 0 1-2-7v8c-3-3.75-3-3.75-3-6l-3 1-1-4h-2c3.021 5.844 3.021 5.844 8 10l-1 4c-2.5-1.375-2.5-1.375-5-3v-2h-2l2 4h-3l-.25 1.875c-.993 2.812-2.147 2.824-4.75 4.125-1.753 2.532-1.753 2.532-3 5a473.757 473.757 0 0 1-5.25-1.313l-2.953-.738c-2.843-.965-4.468-2.1-6.797-3.949a145.927 145.927 0 0 0-5.25-2.688l-2.703-1.324L157 73v-2l-19 1-2 4c-2.125 1.75-2.125 1.75-4 3l3.375-.5c14.165-1.693 26.963 1.05 38.563 9.688 4.456 6.076 6.004 14.336 6.062 21.812-.484 2.258-.484 2.258-1 4l2.563-1c4.18-1.216 8.415-2.011 12.437 0v-3c3.212-1.906 5.539-2.223 9.25-2.125l2.703.055L208 108v2l-7 1-1 3c3.85 2.567 5.586 1.833 10 1v3l-3 2a73.117 73.117 0 0 0-.25 8.438l.016 2.353c.045 3.304.184 6.058 1.234 9.209 3.392 2.262 4.652 2.245 8.625 2.188l2.977-.02c2.35.099 2.35.099 3.398-1.168.368-2.328.702-4.662 1-7l3 1c.429 4.373.551 6.31-2.25 9.813-3.414 2.715-5.372 3.982-9.688 4.625-4.939-.706-6.926-3.988-9.875-7.75L204 140l-1.172 1.46c-.52.633-1.041 1.264-1.578 1.915l-1.547 1.898c-2.632 2.668-4.897 3.604-8.578 4.165-4.423-.62-5.98-2.294-9.125-5.438-1.285-3.855-1.422-7.565-1.719-11.602-.024-2.348-.024-2.348-1.281-3.398a91.472 91.472 0 0 1-.063-5.063l.028-2.785L179 119h-2v3h-3l-.188 1.688c-1.52 4.33-5.097 6.835-8.812 9.312-8.895 1.05-16.576 1.033-24.086-4.367-6.37-5.433-10.42-13.686-11.117-22.078-.137-7.822.793-14.94 5.203-21.555-2.087.398-4.17.82-6.25 1.25l-3.516.703c-3.453 1.118-4.937 2.295-7.234 5.047l-1-2-3.25 1.875-1.941 1.098a194.289 194.289 0 0 0-3.996 2.34c-2.317.878-3.528.554-5.813-.313l-1-1c1.333 13.436 5.61 26.003 13.137 37.215 1.634 2.443 2.944 4.842 4.238 7.472C123.504 148.02 131.86 154.022 141 159l3.285 2c6.726 4.084 13.04 7.031 20.684 9.137 3.679 1.048 7.135 2.45 10.664 3.914 3.73 1.495 7.54 2.729 11.367 3.949v1c-19.403.8-39.464-3.047-56-14l-1-3-2.719.21c-5.65-.362-8.621-4.167-12.281-8.21-2.336-3.18-4.18-6.504-6-10l-1.781-3.258c-6.745-12.775-11.036-26.72-11.348-41.246.31-9.42.31-9.42-3.621-17.496l-1.633-1.441C87.378 77.437 85.886 73.022 84 69l-2-3.625C78.789 58.952 76.988 51.877 75 45l-.984-3.352C70.002 26.996 70.002 26.996 73 21h2l1-3c5.482-3.061 10.234-3.513 16.438-3.438z" fill="rgba(251, 211, 102, 1)" stroke="none"/>
  <path d="M37.688 100.375c5.134.969 7.349 4.492 10.312 8.625 1.706 3.24 3 6.562 4.25 10l.984 2.578a498.71 498.71 0 0 1 1.885 5.034 294.1 294.1 0 0 0 1.75 4.627c1.357 3.498 2.48 6.795 3.006 10.511.933 5.615 2.25 11.105 3.625 16.625l.648 2.632C65.188 165.144 66.31 169.07 68 173a795.74 795.74 0 0 1 1.375 4.855C71.7 185.832 74.52 193.463 78 201c.673 1.664 1.34 3.33 2 5l1.438 3.25c1.1 2.532 1.963 5.042 2.75 7.688 1.523 4.716 3.668 9.074 5.874 13.5l1.07 2.154c1.419 2.8 2.634 5.174 4.868 7.408v3h3l-1 24c-12.523-4.174-23.521-9.673-33-19v-2l-1.793-.805C56.674 241.657 51.763 234.577 47 229l-1.55-1.77C42 223.237 42 223.237 42 221l-3-1c-11.573-14.494-15.59-31.277-19.334-48.976-.743-3.373-1.602-6.7-2.505-10.034-4.551-16.91-.338-33.136 8.128-48.299C27.702 108.62 27.702 108.62 29 107h2l.875-1.875c1.575-2.975 2.494-3.978 5.813-4.75z" fill="rgba(251, 210, 102, 1)" stroke="none"/>
  <path d="M313 11c8.643 11.232 7.444 29.176 7.563 42.625l.044 2.392c.238 15.224.238 15.224-4.46 22.144-1.784 2.86-1.855 5.59-1.96 8.901l-.144 3.41L314 93h-1v-6l-2.055.14c-8.587.334-14.955-1.427-22.07-6.265L287 79v-2a600.13 600.13 0 0 0-5-2l-3.613-1.555c-4.576-1.708-8.732-1.859-13.575-1.757l-2.365-.01c-4.265.04-7.571.367-11.447 2.322l-1.922.965-1.828.972c-7.858 3.982-15.734 6.223-24.563 6.126l-3.238-.028L217 82l-1 2-2-10-4-1v6l-2-1c-.625-2.563-.625-2.563-1-5l-2 4h-2l-2 5-1.563-2.313c-2.995-3.303-5.294-4.173-9.437-5.687l-1 2c.875-3.875.875-3.875 2-5v-2h2l2 3 3 1c-.358-3.224-1.134-4.134-3.5-6.5-2.366-2.366-3.142-3.276-3.5-6.5h2l2 3h2l2 4v-7l2 1c.73 2.314 1.401 4.648 2 7 .694-4.96 1.132-9.876 1.438-14.875.39-5.847 1.21-11.427 2.562-17.125h-2l-1 5h-2l-1-5h-2v12h-2V36c-2.19 3.285-2.998 6.207-4 10h-1c-.125-7.75-.125-7.75 1-10l-4 1-1 6h-1l1-8-5 1c-.476 6.694-.311 10.548 4 16 2.673 4.71 1.829 8.858 1 14h-2l-.148-2.012c-.561-6.623-1.423-11.14-5.477-16.488-2.25-3.031-2.676-4.681-2.375-8.5a109.614 109.614 0 0 0-2-5c6.203-.075 12.406-.13 18.61-.165 2.1-.015 4.202-.035 6.303-.061 15.505-.19 29.9 1.136 45.087 4.226l1-2 5 2v-2c4.47-4 4.47-4 7-4v-2c2.973-1.718 5.982-3.363 9-5l1.707-.941C280.145 18.348 290.45 14.792 302 12l2.013-.533c3.147-.74 5.773-.818 8.987-.467z" fill="rgba(251, 210, 102, 1)" stroke="none"/>
  <path d="M46.79 88.066C52.666 91.326 56.57 95.265 60 101l1.297 2.137c9.16 16.65 12.436 38.075 15.578 56.613 1.94 11.34 5.062 22.256 8.279 33.29 1.487 5.202 2.83 10.441 4.16 15.685a134.04 134.04 0 0 0 3.315 10.99c1.583 4.65 1.604 8.392 1.371 13.285l-3 1c-3.249-6.214-6.291-12.282-8.36-18.992-.988-3.1-2.334-6.03-3.64-9.008-2.492-6.017-4.82-12.097-7.125-18.188l-.769-2.015C69.52 181.578 68.224 177.341 67 173c-.482-1.451-.97-2.9-1.465-4.348-1.566-4.648-2.864-9.343-4.097-14.09l-.67-2.542c-1.046-4.015-1.993-7.982-2.643-12.083-1.31-7.21-4.516-14.01-7.264-20.766-.85-2.144-1.631-4.304-2.408-6.476-1.751-4.453-3.712-7.688-7.453-10.695-3.088-1-3.088-1-6 0-2.269 2.419-2.269 2.419-4 5h-2l-.813 1.687C27 111 27 111 25.582 113.234c-9.313 16.282-11.433 33.077-6.66 50.813l.557 2.037a425.96 425.96 0 0 1 2.084 8.041l.73 2.879c.788 3.337 1.428 6.692 2.082 10.058.962 4.683 2.268 8.649 4.375 12.938 1.512 3.14 2.244 4.915 2.5 8.437-1.88 3.853-4.417 4.751-8.25 6.563v-2l-1.877-.299C19 212 19 212 17.035 208.781a178.214 178.214 0 0 1-1.973-4.281l-1.055-2.33c-5.35-12.15-8.235-24.618-10.82-37.608l-.664-3.302c-1.87-9.871-2.055-18.633.102-28.447l.54-2.477C6.625 115.307 12.794 99.026 26 90l2.688-1.875c6.034-2.05 12.086-2.358 18.101-.059z" fill="rgba(15, 13, 13, 1)" stroke="none"/>
  <path d="M171 86c5.989 4.46 7.207 10.453 8.438 17.508.504 3.824.667 6.757-.438 10.492l2.563-1c4.18-1.216 8.415-2.011 12.437 0v-3c3.212-1.906 5.539-2.223 9.25-2.125l2.703.055L208 108v2l-7 1-1 3c3.85 2.567 5.586 1.833 10 1v3l-3 2a73.117 73.117 0 0 0-.25 8.438l.016 2.353c.045 3.304.184 6.058 1.234 9.209 3.392 2.262 4.652 2.245 8.625 2.188l2.977-.02c2.35.099 2.35.099 3.398-1.168.368-2.328.702-4.662 1-7l3 1c.429 4.373.551 6.31-2.25 9.813-3.414 2.715-5.372 3.982-9.688 4.625-4.939-.706-6.926-3.988-9.875-7.75L204 140l-1.172 1.46c-.52.633-1.041 1.264-1.578 1.915l-1.547 1.898c-2.632 2.668-4.897 3.604-8.578 4.165-4.423-.62-5.98-2.294-9.125-5.438-1.285-3.855-1.422-7.565-1.719-11.602-.024-2.348-.024-2.348-1.281-3.398a91.472 91.472 0 0 1-.063-5.063l.028-2.785L179 119h-2v3h-3l-.188 1.688c-1.52 4.33-5.097 6.835-8.812 9.312-8.895 1.05-16.576 1.033-24.086-4.367-6.37-5.433-10.42-13.686-11.117-22.078-.137-7.822.793-14.94 5.203-21.555a780.66 780.66 0 0 0-6.438 1.375l-3.62.773L122 88l-1 2h-2c.438-2.25.438-2.25 2-5 2.836-1.775 5.858-2.878 9-4l2.465-.914C146.027 75.5 158.945 78.74 171 86z" fill="rgba(8, 9, 8, 1)" stroke="none"/>
  <path d="M69 180a103.801 103.801 0 0 1 3.656 7.934l.91 2.216.934 2.287.934 2.276a1019.29 1019.29 0 0 1 3.695 9.119 171.323 171.323 0 0 0 2.308 5.418c1.102 2.532 1.964 5.042 2.75 7.688 1.524 4.716 3.669 9.074 5.876 13.5l1.069 2.154c1.419 2.8 2.634 5.174 4.868 7.408v3h3l-1 24c-12.523-4.174-23.521-9.673-33-19v-2l-1.793-.805C56.674 241.657 51.763 234.577 47 229l-1.55-1.77C42 223.237 42 223.237 42 221l-3-1c-4.97-6.383-9.678-14.217-12-22 .688-3.688.688-3.688 2-6h2v-2c6.75-1.125 6.75-1.125 9 0v-2l6-1 1-5 9 1v-2c3.22-.09 5.898.173 9 1h3l1-2z" fill="rgba(251, 211, 103, 1)" stroke="none"/>
  <path d="M318.938 1c8.221 7.973 9.183 20.81 9.417 31.623.06 9.814-.455 19.505-1.605 29.252-.11.955-.218 1.91-.33 2.894-1.233 9.216-3.584 16.94-9.42 24.231-.372 2.906-.372 2.906-.062 6.063.687 24.216-6.444 42.32-22.938 59.937l-2 2c1.164 2.356 2.33 4.71 3.5 7.063l1.074 2.164c1.865 3.736 3.77 7.441 5.774 11.105a414.528 414.528 0 0 0 3.3 5.969c.844 1.535 1.606 3.114 2.352 4.699l-1 2-3-1c-1.188-3.063-1.188-3.063-2-6l-3 3c-7.639-16.402-7.639-16.402-7-23h-2l-1-4c-4.23 1.489-7.745 3.699-11.438 6.188-6.914 4.557-14.04 8.344-21.562 11.812l-2.43 1.121c-3.331 1.14-6.65 1.609-10.132 2.004l-2.21.255c-5.953.62-11.871.802-17.853.808l-2.51.002c-4.716-.043-9.213-.41-13.865-1.19 3.013-2.009 4.538-2.267 8.039-2.53 8.545-.644 16.644-2.458 24.899-4.72l3.154-.835c10.675-3.03 19.041-8.797 27.908-15.29l2.365-1.723c17.513-12.825 30.487-23.969 35.51-45.902l1.742-7.188.738-3.167C312 96 312 96 313 93c.156-3.127.253-6.252.328-9.383.652-3.509 1.267-4.643 3.18-7.472 4.011-6.82 3.24-14.673 3.117-22.332l-.014-2.409c.583-21.02.583-21.02-6.611-39.404-5.735-.361-10.824.61-16.375 2l-2.636.66C282.06 17.837 271.305 23.27 261 30h-2v2c-4.47 4-4.47 4-7 4v2h-2v-3h2l2-6h2l.652-1.691C262.484 17.319 275.725 11.219 286 7l4.313-2c9.083-3.996 18.795-7.346 28.625-4z" fill="rgba(17, 17, 15, 1)" stroke="none"/>
  <path d="M286 85v1l-5 1 .656 1.984c2.12 6.948 3.406 13.75 2.344 21.016-1.398 2.54-1.398 2.54-3 5l-.918 2.492c-1.337 3.098-3.127 5.141-5.394 7.633l-2.301 2.57c-5.285 5.103-10.997 7.59-18.325 7.618-5.9-.138-9.54-.84-13.867-5.083-5.695-6.18-8.742-11.457-8.57-20.042l.018-2.126c.139-5.573 1.175-9.97 3.357-15.062h3v-3l-7 2c3.263-4.895 6.745-6.785 12-9l1.887-.914C258.19 76.493 273.144 80.096 286 85z" fill="rgba(8, 8, 7, 1)" stroke="none"/>
  <path d="M92.438 14.563l2.654.02c8.412.204 15.932 1.84 23.908 4.417l3.352 1.027c7.311 2.5 13.367 6.137 19.625 10.583 4.183 2.979 4.183 2.979 9.023 4.39a82.125 82.125 0 0 0 7.063-2.75C185.948 20.577 214.214 22.14 242 33c1.342.65 2.678 1.311 4 2v3c-8.133-.856-8.133-.856-11.95-1.49-11.088-1.762-22.084-1.815-33.293-1.77-3.251.01-6.502 0-9.753-.013-19.144-.094-19.144-.094-37.816 3.71-4.615 1.084-7.214-.604-11.211-2.863C125.093 26.645 101.773 22.372 83 27c.348 13.23 2.772 24.846 7.14 37.395C92.278 70.87 94.099 77.452 96 84c-3.293-.593-3.84-.792-6.004-3.602C83.334 69.056 78.48 57.678 75 45l-.969-3.32C69.985 27.03 69.985 27.03 73 21h2l1-3c5.482-3.061 10.234-3.513 16.438-3.438z" fill="rgba(42, 38, 35, 1)" stroke="none"/>
  <path d="M318.938 1c8.221 7.973 9.183 20.81 9.417 31.623.06 9.814-.455 19.505-1.605 29.252-.11.955-.218 1.91-.33 2.894-1.038 7.757-2.673 15.814-7.662 22.02-2.383 2.997-2.103 4.812-1.883 8.586.247 7.76-.675 14.975-1.875 22.625h-1l.016-2.08c.02-3.098.034-6.196.046-9.295l.026-3.273.01-3.125.016-2.889c.042-2.361.042-2.361-1.114-4.338-.055-2.723-.055-2.723.125-6.063l.133-3.285c.709-3.489 1.35-4.688 3.258-7.511 4.003-6.819 3.232-14.674 3.109-22.329l-.014-2.408c.583-21.02.583-21.02-6.611-39.404-5.735-.361-10.824.61-16.375 2l-2.636.66C282.06 17.837 271.305 23.27 261 30h-2v2c-4.47 4-4.47 4-7 4v2h-2v-3h2l2-6h2l.652-1.691C262.484 17.319 275.725 11.219 286 7l4.313-2c9.083-3.996 18.795-7.346 28.625-4z" fill="rgba(24, 20, 20, 1)" stroke="none"/>
  <path d="M37.688 100.375c5.133.969 7.33 4.51 10.312 8.625 1.75 3.174 3.096 6.425 4.375 9.813l1.033 2.655C55.666 127.503 57.551 133.471 57 140l-1 2-3.395-.035-4.417-.028-2.237-.025c-3.25-.015-5.845.053-8.951 1.088-1.727.15-3.457.272-5.188.375-5.878.483-10.527 1.983-15.812 4.625-.97-13.815 4.296-30.134 13-41h2l.875-1.875c1.575-2.975 2.494-3.978 5.813-4.75z" fill="rgba(251, 210, 103, 1)" stroke="none"/>
  <path d="M80 218c2.305.113 2.305.113 5 1 1.695 2.73 1.695 2.73 3.125 6.188l1.445 3.417L91 232c2.013 4.343 2.013 4.343 5 8v3h3l-1 24c-12.523-4.174-23.521-9.673-33-19v-2l-1.688-.688C60.338 243.625 58.28 241.534 56 239v-2c3.498-2.332 4.909-2.083 9-2 2.266-.44 2.266-.44 4-1l-.188-2.313C69 229 69 229 70.126 227.188c2.65-1.678 4.807-1.392 7.875-1.187l2-8z" fill="rgba(251, 211, 103, 1)" stroke="none"/>
  <path d="M286 85v1l-5 1 .656 1.984c2.137 7.003 3.215 13.69 2.344 21.016-2.333 3.5-3.208 3.633-7.125 4.688-.91.25-1.82.502-2.758.761L272 116l-.078-1.766c-.437-6.307-1.236-16.548-5.922-21.234-.817 3.63-1.01 6.605-.438 10.25L266 107c-2 2-2 2-4.5 2.25C259 109 259 109 257 107c-.125-2.625-.125-2.625 0-5l-2.688 1c-5.207 1.572-5.207 1.572-8.312 1-2.925-2.687-3.923-4.211-4.313-8.188C242 93 242 93 243 91l-5 1v-2l-7 2c3.263-4.895 6.745-6.785 12-9l1.887-.914C258.19 76.493 273.144 80.096 286 85z" fill="rgba(10, 11, 9, 1)" stroke="none"/>
  <path d="M178 101c2.301 3.452 2.138 4.235 1.625 8.188l-.336 2.73L179 114l2.563-1c4.18-1.216 8.415-2.011 12.437 0v-3c3.212-1.906 5.539-2.223 9.25-2.125l2.703.055L208 108v2l-7 1-1 3c3.85 2.567 5.586 1.833 10 1v3l-3 2a73.117 73.117 0 0 0-.25 8.438l.016 2.353c.045 3.304.184 6.058 1.234 9.209 3.392 2.262 4.652 2.245 8.625 2.188l2.977-.02c2.35.099 2.35.099 3.398-1.168.368-2.328.702-4.662 1-7l3 1c.429 4.373.551 6.31-2.25 9.813-3.414 2.715-5.372 3.982-9.688 4.625-4.939-.706-6.926-3.988-9.875-7.75L204 140l-1.172 1.46c-.52.633-1.041 1.264-1.578 1.915l-1.547 1.898c-2.632 2.668-4.897 3.604-8.578 4.165-4.423-.62-5.98-2.294-9.125-5.438-1.285-3.855-1.422-7.565-1.719-11.602-.024-2.348-.024-2.348-1.281-3.398a91.472 91.472 0 0 1-.063-5.063l.028-2.785L179 119h-2v3l-2-1 .656-2.598c2.104-8.61 2.104-8.61 2.344-17.402z" fill="rgba(249, 212, 106, 1)" stroke="none"/>
  <path d="M97 88c1.972 2.959 2.645 4.94 3.516 8.34l.844 3.205.89 3.393c2.438 8.98 4.92 17.063 9.75 25.062l1.496 2.645C120.656 143.05 128.473 151.966 141 159l3.297 2.012c6.724 4.075 13.034 7.02 20.672 9.125 3.679 1.048 7.135 2.45 10.664 3.914 3.73 1.495 7.54 2.729 11.367 3.949v1c-19.403.8-39.464-3.047-56-14l-1-3-2.719.21c-5.65-.362-8.621-4.167-12.281-8.21-2.336-3.18-4.18-6.504-6-10l-1.781-3.258C102.935 132.63 100.189 124.92 98 116l-.54-1.833c-.562-2.649-.572-5.1-.558-7.808l.01-3.242.025-3.367.014-3.414c.012-2.779.028-5.557.049-8.336z" fill="rgba(24, 24, 24, 1)" stroke="none"/>
  <path d="M101 36v2c1.121.2 1.121.2 2.266.402l2.984.535 2.953.528c2.294.439 4.54.938 6.797 1.535v2l1.688.75c3.896 2.106 6.734 3.755 8.374 8-.156 8.127-6.002 13.878-11.039 19.734-1.735 2.158-2.85 4.041-4.023 6.516-2 2-2 2-5.438 2.25C102 80 102 80 99 78c-.914-2.094-.914-2.094-1.625-4.5-.999-3.325-.999-3.325-2.375-6.5-.234-4.141-.228-8.284-.24-12.431-.01-2.061-.041-4.121-.073-6.182l-.015-3.918-.028-3.612L95 38c3-2 3-2 6-2z" fill="rgba(247, 189, 168, 1)" stroke="none"/>
  <path d="M173 34l4 1v3l2 1 .313 3.188c.727 4.034 1.768 5.111 4.472 8.003 2.491 3.71 2.926 8.423 3.215 12.809l-1 3h2c.689-8.268-1.48-13.22-6-20-.4-3.42-.564-6.873 1-10 2.563-.625 2.563-.625 5-1v4l1.375-1.5C191 36 191 36 193 36v9l.813-3.313C195 38 195 38 198 35l-1 13h2V36h2l1 5h2l1-5h2c-.09.84-.09.84-.184 1.695a430.165 430.165 0 0 0-1.316 15.367A311.063 311.063 0 0 1 204 69l-2-1a128.606 128.606 0 0 1-2-7v8c-3-3.75-3-3.75-3-6l-3 1-1-4h-2c3.021 5.844 3.021 5.844 8 10l-1 4c-2.5-1.375-2.5-1.375-5-3v-2h-2l2 4h-3l-.25 1.875c-.993 2.812-2.147 2.824-4.75 4.125-1.753 2.532-1.753 2.532-3 5l-2-1 2-3c-.167-1.963-.167-1.963-.813-4.125-1.329-5.707-1.579-11.325-1.757-17.16-.018-4.32-.018-4.32-2.43-7.715l-1 2 3 1-.563 1.875c-.674 2.167-.674 2.167.563 4.125-7.118-3.075-11.683-10.239-15-17-.75-2.938-.75-2.938-1-5h2l.813 1.938C166.887 42.33 166.887 42.33 170 43v2l2-1-.188-2.25c.219-3.204 1.09-4.39 3.188-6.75l-2-1z" fill="rgba(228, 164, 86, 1)" stroke="none"/>
  <path d="M176 34h46l-5 5v2l6-3c-.503 4.401-2.088 6.712-5 10v-2h-2a607.93 607.93 0 0 0-.7 5.66 89.929 89.929 0 0 1-.695 4.524c-.883 5.445-.093 9.25 1.692 14.441.966 3.263.923 5.997.703 9.375l-1-4h-2v-2l-4-1v6l-2-1c-.625-2.563-.625-2.563-1-5l-2 4h-2l-2 5-1.563-2.313c-2.995-3.303-5.294-4.173-9.437-5.687l-1 2c.875-3.875.875-3.875 2-5v-2h2l2 3 3 1c-.358-3.224-1.134-4.134-3.5-6.5-2.366-2.366-3.142-3.276-3.5-6.5h2l2 3h2l2 4v-7l2 1c.73 2.314 1.401 4.648 2 7 .694-4.96 1.132-9.876 1.438-14.875.39-5.847 1.21-11.427 2.562-17.125h-2l-1 5h-2l-1-5h-2v12h-2V36c-2.19 3.285-2.998 6.207-4 10h-1c-.125-7.75-.125-7.75 1-10l-4 1-1 6h-1l1-8-5 1c-.476 6.694-.311 10.548 4 16 2.673 4.71 1.829 8.858 1 14h-2l-.148-2.012c-.561-6.623-1.423-11.14-5.477-16.488-2.25-3.031-2.676-4.681-2.375-8.5l-2-5z" fill="rgba(230, 166, 87, 1)" stroke="none"/>
  <path d="M93.438 14.813l2.794.04c2.257.036 4.512.085 6.768.147v2l3.375.375C110 18 110 18 112 20l-2 4 4 1-2.307.076c-3.46.116-6.92.239-10.38.361l-3.631.12-3.506.127-3.222.11c-2.736.19-5.283.6-7.954 1.206.348 13.23 2.772 24.846 7.14 37.395C92.278 70.87 94.099 77.452 96 84c-3.293-.593-3.84-.792-6.004-3.602C83.334 69.056 78.48 57.678 75 45l-.969-3.32C69.985 27.03 69.985 27.03 73 21h2l1-3c5.785-3.331 10.878-3.372 17.438-3.188z" fill="rgba(27, 24, 23, 1)" stroke="none"/>
  <path d="M299 28c2.152 3.228 2.2 4.284 2 8h2c1.263 3.788 1.223 7.365 1.25 11.313l.063 2.263c.034 4.905-.712 8.119-3.313 12.424h-6v-2l-2.813-.063c-6.714-.945-12.99-5.57-17.503-10.433-2.212-3.289-1.988-5.626-1.684-9.504l2.273-1.102c6.074-2.983 11.896-6.108 17.57-9.796C295 28 295 28 299 28z" fill="rgba(251, 191, 170, 1)" stroke="none"/>
  <path d="M304 13c-1.623.67-3.249 1.337-4.875 2l-2.742 1.125C294 17 294 17 292 17v2l-2 1 5-1v4l5-1 1 3 1.52 1.438c4.387 4.63 2.606 15.292 2.668 21.375l.04 2.498c.007 5.934-.888 9.678-4.228 14.689l-3-1v-2l3-1c2.864-4.657 2.222-10.044 2.125-15.313l-.027-2.822A879.058 879.058 0 0 0 303 36h-2l-2-8c-5.773 1.984-10.674 4.417-15.813 7.688C276.401 40 276.401 40 273 40c.234 3.976.518 6.383 3 9.563 3.16 2.567 6.422 4.803 9.84 7.011 2.516 1.661 4.85 3.49 7.16 5.426-8.19-.528-15.437-2.12-21.938-7.375-5.18-6.593-5.678-12.449-6.062-20.625h3l1.207-1.363c2.715-2.478 5.994-2.988 9.48-3.825l2.127-.537c1.727-.434 3.456-.856 5.186-1.275v-2l-11-2v2l-1.938.813C270.67 26.887 270.67 26.887 270 30c-2.25 1.098-2.25 1.098-5 2.063-3.76 1.075-3.76 1.075-6 3.937h-4v3h-2l-1 4c-2-1-2-1-3-4a639.945 639.945 0 0 1 3.875-3.5l2.18-1.969C257 32 257 32 259 32v-2c2.973-1.718 5.982-3.363 9-5l1.707-.941C296.644 9.322 296.644 9.322 304 13zm-17 10l2 2v-2h-2z" fill="rgba(249, 211, 109, 1)" stroke="none"/>
  <path d="M56 133c2.903 3.277 3.58 5.953 4.188 10.25l.48 3.266L61 149c-.831.182-1.663.364-2.52.55l-3.292.762-3.27.739c-2.914.69-2.914.69-4.418 2.543C46 155 46 155 43.082 155.293l-3.27-.106-3.292-.082L34 155v2l-16 1-1 4c-1.612-6.765-2.266-13.05-2-20h1l1 5 2-2c5.045-1.825 9.893-2.372 15.227-2.781 2.52-.199 5.015-.473 7.523-.781 4.896-.553 9.519-1.015 14.25.562v-9z" fill="rgba(224, 160, 91, 1)" stroke="none"/>
  <path d="M127 64l2 3-1.875.75c-2.567 1.51-2.843 2.61-4.125 5.25l-5 5c-1.333 3-1.333 3 0 6 3.736-1.245 4.188-2.634 6-6l5 1 1.813-2.438C133 74 133 74 136 73l2-3h4v-2h12v2l2.813-.125C160 70 160 70 163 72v2h4v2l3.25.875C174 78 174 78 176.188 79.125c2.077 1.165 2.077 1.165 5.812.875l-1 3c-7.014-.312-12.017-3.55-18-7a242.873 242.873 0 0 0-6-3v-2l-19 1-2 4a90.488 90.488 0 0 1-4 4l-2 2c-1.49.431-2.992.823-4.5 1.188-3.381.973-3.381.973-5.535 3.562-.63 2.143-.63 2.143-.965 5.25l-2-2-3.25 1.875-1.941 1.098a194.289 194.289 0 0 0-3.996 2.34C106 96 106 96 103.936 95.936 100.94 94.487 100.352 93.07 99 90a132.171 132.171 0 0 1-1.473-8.379C97.016 79.078 96.167 77.29 95 75v-3h-2v-5h3c2.566 3.85 2.551 6.435 3 11 2.882.96 4.699 1.106 7.688 1.063l2.449-.028L111 79v-2c4.385-3 4.385-3 7-3l1-3c1.848-1.824 1.848-1.824 4.063-3.688l2.222-1.886L127 64z" fill="rgba(250, 211, 105, 1)" stroke="none"/>
  <path d="M79 206c2 1 2 1 3.125 3.75.795 2.952 1.053 5.222.875 8.25h-3l-.438 2.875C79 224 79 224 78 226l-3.438.75L71 228c-1.238 2.963-1.238 2.963-2 6-3.155 2.479-6.126 2-10 2-2.15.95-2.15.95-4 2-1.482-1.623-2.96-3.248-4.438-4.875l-2.496-2.742C46 228 46 228 45 226h2l.438-2.875C49 220 49 220 50.855 219.156c5.063-1.185 9.967-1.344 15.145-1.156l1-3 7-1v-2l6-1-1-5z" fill="rgba(226, 159, 89, 1)" stroke="none"/>
  <path d="M69 180c1.738 3.227 2.865 6.52 4 10l-6.688 1.438-3.761.808c-2.142.455-4.292.875-6.453 1.227L54 194l-.875 2L52 198c-3.625.75-3.625.75-7 1v3c-3.347.653-6.328.995-9.75.938-3.338-.312-3.338-.312-5.25 2.062-.56-1.41-1.097-2.828-1.625-4.25l-.914-2.39c-.559-2.86.002-3.95 1.539-6.36h2v-2c6.75-1.125 6.75-1.125 9 0v-2l6-1 1-5 9 1v-2c3.22-.09 5.898.173 9 1h3l1-2z" fill="rgba(230, 161, 89, 1)" stroke="none"/>
  <path d="M227 35c6.519.55 12.643 1.462 19 3l1-2 4 2-2 1c-.656 2.527-.656 2.527-1 5h-2l-.785 1.816c-1.308 2.352-2.542 3.483-4.653 5.121-2.238 1.834-3.556 3.053-5.062 5.563-2.14 3.567-5.066 6.166-8.5 8.5l-4 1 6-7-1-1-1.875 2.5L224 63h-2v-2h2l-1-4-4-1-1 4 3-1-1 9c-2.606-1.303-2.962-2.3-4-5-.195-2.797-.195-2.797-.125-5.75l.055-2.984L216 52h2l.875-1.938C220 48 220 48 222 47l2 1 3-13z" fill="rgba(228, 166, 86, 1)" stroke="none"/>
  <path d="M282.086 73.79c2.742 1.734 4.824 3.74 6.914 6.21l1.813 1.813L292 83h-5l2 4-7 1-1 3-1-5 4-1c-14.115-5.083-28.696-6.293-43-1v-3l-1.918.992c-4.187 1.37-8.023 1.223-12.394 1.133l-2.534-.027c-2.051-.024-4.103-.06-6.154-.098v2l-2-1 1-2c2.681-.404 5.303-.701 8-.938 8.894-.917 16.16-2.884 24.078-7.097 9.722-4.88 23.148-4.953 33.008-.176z" fill="rgba(243, 244, 225, 1)" stroke="none"/>
  <path d="M200.383 107.805l2.742.07 2.758.055L208 108v2l-7 1-1 3c3.85 2.567 5.586 1.833 10 1v3l-3 2a73.117 73.117 0 0 0-.25 8.438l.016 2.353c.045 3.304.184 6.058 1.234 9.209 3.392 2.262 4.652 2.245 8.625 2.188l2.977-.02c2.35.099 2.35.099 3.398-1.168.368-2.328.702-4.662 1-7l3 1c.429 4.373.551 6.31-2.25 9.813-3.414 2.715-5.372 3.982-9.688 4.625-4.939-.706-6.926-3.988-9.875-7.75L204 140l-1.172 1.46c-.52.633-1.041 1.264-1.578 1.915l-1.547 1.898c-2.632 2.668-4.897 3.604-8.578 4.165-4.423-.62-5.98-2.294-9.125-5.438-1.308-3.923-1.197-6.86-1-11l2-2 1.367 5.957c.613 2.32.613 2.32 2.633 5.043 2.872.668 2.872.668 6 0 2.75-2.25 2.75-2.25 5-5l1.54-1.25c2.149-2.575 2.47-5.181 3.148-8.438.25-1.179.502-2.358.761-3.574L204 121l-2.879-.887c-3.408-1.215-4.552-1.884-6.121-5.113.285-3.992.947-6.832 5.383-7.195z" fill="rgba(38, 36, 31, 1)" stroke="none"/>
  <path d="M130.125 153.5c3.35.583 5.578 2.016 8.39 3.871 8.518 5.585 16.581 10.046 26.454 12.766 3.679 1.048 7.135 2.45 10.664 3.914 3.73 1.495 7.54 2.729 11.367 3.949v1c-19.403.8-39.464-3.047-56-14l-1-3h-4c-.402-7.435-.402-7.435 4.125-8.5z" fill="rgba(16, 15, 14, 1)" stroke="none"/>
  <path d="M88 228c2.528 3.13 4.205 6.41 6 10l2 2v3h3l-1 24c-6.086-2.029-10.645-3.665-16.063-6.688l-3.41-1.886L76 257c0-3.734.667-6.51 2-10 3.782-2.485 7.58-2.173 12-2v-5h2l-.875-1.61L90 236.25l-1.125-2.11C88 232 88 232 88 228z" fill="rgba(225, 157, 90, 1)" stroke="none"/>
  <path d="M37.688 100.375c5.103.963 7.399 4.51 10.312 8.625 1.828 3.202 2.206 5.3 2 9l-1.938.313L46 119l-1 3H26v-2h-2c1.805-9.938 1.805-9.938 5-13h2l.875-1.875c1.575-2.975 2.494-3.978 5.813-4.75z" fill="rgba(246, 246, 226, 1)" stroke="none"/>
  <path d="M61 149c1.354 2.709 1.065 5.01 1 8l-2 1c-1.134 2.017-1.134 2.017-2 4-1.666.043-3.334.04-5 0l-1-1c-3.416-.5-3.416-.5-7 0-2.009 2.373-2.009 2.373-3 5-4.875-.875-4.875-.875-6-2-5.681-.454-8.98.683-14 3h-3c-1-2-1-2-1-9l16-1v-2l14-1 1-3c4.092-1.808 7.557-2.212 12-2z" fill="rgba(251, 251, 226, 1)" stroke="none"/>
  <path d="M205 223c2.875-.125 2.875-.125 6 0 2 2 2 2 2.125 5.125L213 231l3-1v6l-2-2c-3.14 6.272-4.136 12.54-5.188 19.438l-.537 3.373c-.433 2.728-.858 5.458-1.275 8.189h-1c-.103-5.126-.036-9.95 1-15l-2.75-.25c-3.804-.878-4.89-1.69-7.25-4.75-.46-3.094-.46-3.094-.375-6.5l.04-3.406c.319-2.947.7-4.655 2.335-7.094a113.158 113.158 0 0 1 5-3l1-2z" fill="rgba(230, 216, 159, 1)" stroke="none"/>
  <path d="M150.875 70.938l3.492.027L157 71v2l2.313.625c3.27 1.22 6.029 2.612 9.062 4.313A79.753 79.753 0 0 0 182 84c-1 3-1 3-2.563 4.188-2.374 2.993-1.62 6.084-1.437 9.812-1.11-2.142-2.042-4.136-2.754-6.45-2.616-5.354-9.507-7.478-14.832-9.562A112.232 112.232 0 0 0 154 80l-1.96-.566c-6.824-1.451-14.205-.316-21.04.566l2.375-2.313c2.698-2.596 2.698-2.596 4.625-5.687 4.288-1.088 8.47-1.107 12.875-1.063z" fill="rgba(240, 240, 224, 1)" stroke="none"/>
  <path d="M96.313 24.75l2.373.016c21.42.34 21.42.34 25.314 4.234-3.665 1.222-6.47.633-10.188.063C99.769 27.017 99.769 27.017 86 29c-.25 7.653.098 15.42 3.07 22.578C90 54 90 54 90 58h2l2-21 4-1-1 2h-2v29h-2v5h2c2.99 6.69 5.666 13.599 6 21l-2 2-1-4-1 13h-1a13854.584 13854.584 0 0 1-.645-11.338l-.136-2.432-.127-2.237A108.517 108.517 0 0 1 95 83a305.305 305.305 0 0 0-2.75-8.188c-2.535-7.382-4.609-14.762-6.39-22.359-.777-3.404-.777-3.404-1.962-6.383-1.141-3.902-1.118-7.408-1.023-11.445l.027-2.23c.024-1.799.06-3.597.098-5.395 4.4-2.187 8.499-2.309 13.313-2.25z" fill="rgba(251, 208, 118, 1)" stroke="none"/>
  <path d="M298 27a1771.18 1771.18 0 0 1-6.988 4.2c-2.085 1.246-4.165 2.499-6.242 3.757l-3.207 1.918-2.997 1.805C276 40 276 40 273 40c.234 3.976.518 6.383 3 9.563 3.16 2.567 6.422 4.803 9.84 7.011 2.516 1.661 4.85 3.49 7.16 5.426-8.19-.528-15.437-2.12-21.938-7.375-4.016-5.112-5.794-9.04-5.062-15.625 2.012-3.366 3.873-4.696 7.492-6.105.87-.344 1.74-.688 2.637-1.041.906-.344 1.812-.688 2.746-1.041l2.723-1.077C292.952 25.317 292.952 25.317 298 27z" fill="rgba(30, 19, 13, 1)" stroke="none"/>
  <path d="M104 37c8.083-.444 14.126-.474 21 4l2.813 1.438c2.804 2.003 3.922 3.33 5.187 6.562.51 6.202-1.345 10.43-5.246 15.148-2.24 2.365-4.6 4.49-7.14 6.528-1.652 1.303-1.652 1.303-3.122 2.886-2.185 2.106-4.763 3.165-7.492 4.438 1.874-4.437 5.111-7.768 8.28-11.314 3.83-4.437 6.543-8.791 6.908-14.749-1.587-3.923-3.993-5.365-7.473-7.64L116 43v-2l-3.188-.375c-3.272-.536-5.817-1.264-8.812-2.625v-1z" fill="rgba(26, 16, 11, 1)" stroke="none"/>
  <path d="M103 16c15.248 1.622 28.01 6.356 40.262 15.73 3.647 2.76 3.647 2.76 8.047 2.938C153.61 33.9 155.782 32.982 158 32c1.658-.372 3.322-.73 5-1l-1 2h-3v2h5v1a477.261 477.261 0 0 1-5.688 1.563l-3.199.878c-5.095.915-8.497-.474-13.05-2.691C130.102 30.234 119.04 27.135 106 26l1.938-.75c2.552-1.216 2.552-1.216 3.062-5.25l-8-3v-1z" fill="rgba(28, 17, 8, 1)" stroke="none"/>
  <path d="M314 94h1c.324 30.353.324 30.353-6 43-3.947.18-6.598.094-10-2 .598-3.018 1.522-4.917 3.332-7.383 3.653-5.667 4.839-11.997 6.356-18.492.58-2.436 1.168-4.871 1.761-7.305l.76-3.241C312 96 312 96 314 94z" fill="rgba(22, 21, 20, 1)" stroke="none"/>
  <path d="M176 34h43l-3 1v2h-3l-.375 3.438L212 44l-2 1v-7h-3v-2h-2l-1 5h-2l-1-5h-2v12h-2V36c-2.19 3.285-2.998 6.207-4 10h-1c-.125-7.75-.125-7.75 1-10l-4 1-1 6h-1l1-8-5 1c-.476 6.694-.311 10.548 4 16 2.673 4.71 1.829 8.858 1 14h-2l-.148-2.012c-.561-6.623-1.423-11.14-5.477-16.488-2.25-3.031-2.676-4.681-2.375-8.5l-2-5z" fill="rgba(237, 208, 136, 1)" stroke="none"/>
  <path d="M254 88c2.565 1.71 3.773 3.01 4.469 6.047.252 1.976.398 3.965.531 5.953h5c1.395 2.298 2.074 3.48 1.688 6.188C265 108 265 108 264 109c-2.438.188-2.438.188-5 0-2-2-2-2-2.125-4.625L257 102a26545661719996416 26545661719996416 0 0 1-11 2c-1.813-1.063-1.813-1.063-3-3-.376-4.136-.537-7.575 2-11 2.959-2.04 5.45-2.532 9-2z" fill="rgba(242, 242, 242, 1)" stroke="none"/>
  <path d="M67 249l1.398 1.102C77.613 257.204 87.374 262.303 98 267v3c-11.653-.516-21.069-4.197-31.063-10l-2.238-1.295c-3.615-2.173-6.488-3.988-8.699-7.705l2.312 1.063c2.736 1.26 2.736 1.26 5.688-.063 1.667-1.5 1.667-1.5 3-3z" fill="rgba(45, 39, 37, 1)" stroke="none"/>
  <path d="M97 88c1.981 2.972 2.684 5.032 3.586 8.445l.883 3.266c.598 2.252 1.194 4.505 1.789 6.758 1.752 6.47 3.775 12.514 6.742 18.531h-2v4h-2l.563 3.375C107 136 107 136 106 138c-3.924-7.007-5.968-14.255-8-22l-.546-1.846c-.557-2.643-.566-5.093-.552-7.795l.01-3.242.025-3.367.014-3.414c.012-2.779.028-5.557.049-8.336z" fill="rgba(40, 38, 39, 1)" stroke="none"/>
  <path d="M262 86c2.48-.027 4.958-.047 7.438-.063l2.142-.025c1.807-.009 3.614.036 5.42.088 2.282 2.282 1.28 7.565 1.313 10.625l.087 2.7c.059 6.119-.9 9.636-4.4 14.675-2.287-3.431-2.833-6.177-3.75-10.188-1.382-5.684-3.155-9.995-7.078-14.394C262 88 262 88 262 86z" fill="rgba(70, 99, 51, 1)" stroke="none"/>
  <path d="M142 68h12v2l2.813-.125C160 70 160 70 163 72v2h4v2l3.25.875C174 78 174 78 176.188 79.125c2.077 1.165 2.077 1.165 5.812.875l-1 3c-7.014-.312-12.017-3.55-18-7a242.873 242.873 0 0 0-6-3v-2l-19 1-2 4a90.488 90.488 0 0 1-4 4l-2 2c-1.49.431-2.992.823-4.5 1.188-3.381.973-3.381.973-5.535 3.562-.63 2.143-.63 2.143-.965 5.25l-2-2-3.25 1.875-1.941 1.098a194.289 194.289 0 0 0-3.996 2.34C106 96 106 96 103.936 95.936 101.112 94.57 100.272 92.813 99 90l1-3v2h2l1 4c2.97-.342 2.97-.342 6-1l1-2c3.063-.625 3.063-.625 6-1v-2c2-2 2-2 5-4a87.756 87.756 0 0 0 3-5l5 1 1.813-2.438C133 74 133 74 136 73l2-3h4v-2z" fill="rgba(242, 212, 117, 1)" stroke="none"/>
  <path d="M145 330c3.353 1.284 6.54 2.775 9.766 4.352l2.922 1.398 2.761 1.36c2.744.957 3.882.915 6.551-.11l1 3-1 2h-2v2l16 1v1c-15.965 1.35-31.89-2.293-46-10 2-1 2-1 6-1l.875-1.938C143 331 143 331 145 330z" fill="rgba(34, 32, 32, 1)" stroke="none"/>
  <path d="M80 218c2.313.063 2.313.063 5 1 2.169 3.964 3 6.46 3 11H76l-1 3-2.375 1.375c-3.04 1.882-4.071 3.44-5.625 6.625l-.5 2.25L66 245l-3 1a516.663 516.663 0 0 1-3.5-3.375l-1.969-1.898C56 239 56 239 56 237c3.498-2.332 4.909-2.083 9-2 2.266-.44 2.266-.44 4-1l-.188-2.313C69 229 69 229 70.126 227.188c2.65-1.678 4.807-1.392 7.875-1.187l2-8z" fill="rgba(238, 208, 131, 1)" stroke="none"/>
  <path d="M222 35l-2.5 1.875L217 39v2l6-3c-.503 4.401-2.088 6.712-5 10v-2h-2a607.93 607.93 0 0 0-.7 5.66 89.929 89.929 0 0 1-.695 4.524c-.883 5.445-.093 9.25 1.692 14.441.966 3.263.923 5.997.703 9.375-1.765-3.088-2-4.233-2-8h-4l-1-14h3v-6h-3l-1 5-2-1 1-12 1 2h2l2-9h3v-2c3-1 3-1 6 0z" fill="rgba(226, 165, 85, 1)" stroke="none"/>
  <path d="M152 288h2c.315 1.111.63 2.222.953 3.367 2.738 9.695 2.738 9.695 6.234 19.133 3.804 9.12 3.804 9.12 3.813 13.5-1.297 1.773-1.297 1.773-3 3-2.688-.313-2.688-.313-5-1-1.557-5.783-2.628-11.54-3.535-17.46-.34-2.522-.34-2.522-1.465-4.54a215.134 215.134 0 0 1-.063-8.125l.014-2.285c.012-1.863.03-3.727.049-5.59z" fill="rgba(23, 21, 17, 1)" stroke="none"/>
  <path d="M283 11l-1.875 1.313C278.78 13.996 278.78 13.996 277 17v1h3l1-2v3l-2.598 1.39-3.464 1.86-1.8.965c-3.141 1.69-6.253 3.412-9.325 5.223C261 30 261 30 259 30v2c-4.47 4-4.47 4-7 4v2h-2v-3h2l2-6h2l.652-1.691C260.582 20.578 274.746 8.108 283 11z" fill="rgba(16, 13, 10, 1)" stroke="none"/>
  <path d="M175 35l-.992 1.766c-1.403 3.11-1.137 5.867-1.008 9.234l-3-1v-2l-4-1-1-4h-2c2.156 5.265 4.288 9.625 8 14v2l3 1-3 2c-6.412-2.825-10.393-8.628-13-15v-3l-8 1c5.9-5.9 17.187-5.415 25-5z" fill="rgba(245, 193, 103, 1)" stroke="none"/>
  <path d="M73.477 190.535c1.766 2.858 2.22 5.14 2.523 8.465l-3.176-.105a3681.15 3681.15 0 0 0-4.136-.083l-2.092-.076c-4-.145-4-.145-7.354 1.756L58 202c-3.563.313-3.563.313-7 0l-2-2 1-2h2l.477-2.34c1.718-3.001 2.152-3.178 5.296-4.164a162.82 162.82 0 0 1 4.602-1.059l2.328-.61c5.57-1.278 5.57-1.278 8.774.708z" fill="rgba(251, 245, 210, 1)" stroke="none"/>
  <path d="M164 90l2 1v2l3 1c.616 8.162.616 8.162-1.563 11.125-3.493 1.254-5.874.782-9.437-.125-2.156-1.623-2.904-2.48-3.398-5.156l.023-2.344-.023-2.344c.996-5.39 4.55-5.569 9.398-5.156z" fill="rgba(241, 241, 241, 1)" stroke="none"/>
  <path d="M208.375 225.5l2.625.5v10h-2l-1 11h-6l-.938-2.438c-.825-2.453-.825-2.453-2.062-3.562-.678-4.743-.02-7.555 2.625-11.438 2.38-2.941 2.868-3.487 6.75-4.062z" fill="rgba(249, 212, 103, 1)" stroke="none"/>
  <path d="M130.125 153.5c3.62.63 5.921 2.17 8.941 4.203 2.052 1.424 2.052 1.424 4.871 2.86C146 162 146 162 146.813 164.188L147 166l-1.938.375L143 167l-1 2c-4.444-1.133-8.264-2.283-12-5v-2h-4c-.402-7.435-.402-7.435 4.125-8.5z" fill="rgba(11, 11, 10, 1)" stroke="none"/>
  <path d="M24 115l1 2-1 3h2v2l3.648-.219a124146.069 124146.069 0 0 1 7.133-.426C42.773 121 42.773 121 45 121l1.438-1.438C48 118 48 118 51 117a353.062 353.062 0 0 1 2.563 5.625l1.44 3.164c1.104 3.555.893 5.64-.003 9.211l-2-1c-.633-2.941-.633-2.941-1.125-6.563l-.508-3.628L51 121c-1.97.305-1.97.305-4 1-1.297 2.49-1.297 2.49-2 5l-3-2v-2l-3.313.5c-5.226.666-10.427.587-15.687.5l-.414 2.148c-.585 2.848-1.24 5.66-1.961 8.477-.235.941-.47 1.882-.71 2.852-.938 2.585-1.826 3.784-3.915 5.523 1.117-9.832 3.587-19.13 8-28z" fill="rgba(241, 215, 128, 1)" stroke="none"/>
  <path d="M290 156c3.768 3.282 5.764 7.058 7.875 11.5l2.082 4.29 1.034 2.145c.938 1.92 1.907 3.82 2.896 5.713l1.675 3.227 1.504 2.867L308 188l-1 2-3-1c-1.188-3.063-1.188-3.063-2-6l-3 3c-7.639-16.402-7.639-16.402-7-23h-2l-2-6 2-1z" fill="rgba(29, 26, 24, 1)" stroke="none"/>
  <path d="M191 60h2l2 3h2l2 4v-7l2 1a108599835277050880 108599835277050880 0 0 0 3.875 11.25c-1.203 2.675-1.203 2.675.125 4.75h-2l-2 5-1.563-2.313c-2.995-3.303-5.294-4.173-9.437-5.687l-1 2c.875-3.875.875-3.875 2-5v-2h2l2 3 3 1c-.358-3.224-1.134-4.134-3.5-6.5-2.366-2.366-3.142-3.276-3.5-6.5z" fill="rgba(248, 194, 105, 1)" stroke="none"/>
  <path d="M319 71l2 2h3c-.722 4.752-1.338 8.556-4.625 12.188-3.38 4.287-2.626 8.711-2.418 13.945.071 6.383-.97 12.57-1.957 18.867h-1l.016-2.08c.02-3.098.034-6.196.046-9.295l.026-3.273.01-3.125.016-2.889c.042-2.361.042-2.361-1.114-4.338-.17-8.505 1.101-15.004 6-22z" fill="rgba(38, 23, 13, 1)" stroke="none"/>
  <path d="M69 180c1.738 3.227 2.865 6.52 4 10l-6.688 1.438-3.761.808c-2.14.455-4.29.874-6.45 1.227L54 194l-.938 2L52 198c-3.125.75-3.125.75-6 1a90.488 90.488 0 0 1 4-4h2l.188-1.875L53 191l5-2c.887-2.041.887-2.041 1-4l-2-1v-2h11l1-2z" fill="rgba(228, 163, 88, 1)" stroke="none"/>
  <path d="M287 306h5c-3.876 8.206-10.324 14.544-16.625 20.938l-1.956 2.009c-3.25 3.245-5.864 5.805-10.419 7.053l1.355-2.055c3.992-6.144 7.498-12.333 10.645-18.945.664-1.335 1.33-2.668 2-4l3 1-.875 1.688c-1.166 2.397-2.159 4.828-3.125 7.312l2 1v-2h2l.375-3.438L281 313l2-1v3h2l1-4h2l-1-5z" fill="rgba(237, 238, 226, 1)" stroke="none"/>
  <path d="M137 85h9l-1.313 2.055C140.805 93.543 138.73 98.432 140 106a68.239 68.239 0 0 0 2.246 6.992c.745 1.984 1.278 3.945 1.754 6.008-3-1-3-1-4.563-3.125-3.206-6.413-3.734-12.072-3.625-19.125l.002-2.43c.026-3.346.121-6.126 1.186-9.32z" fill="rgba(74, 95, 60, 1)" stroke="none"/>
  <path d="M158 170c6.41.273 11.644 1.39 17.527 3.945 3.743 1.597 7.599 2.82 11.473 4.055v1c-22.101.867-22.101.867-28-4-.746-2.645-.746-2.645-1-5z" fill="rgba(27, 26, 22, 1)" stroke="none"/>
  <path d="M103 16c5.686.588 10.962 1.622 16.438 3.25l2.24.659C127.204 21.604 132.175 23.77 137 27c-3.097.878-4.906.994-8 0v-2c-3.272-1.073-5.43-.893-8.75-.063l-2.422.59L116 26v1l-10-1 4-2 1-4-8-3v-1z" fill="rgba(51, 47, 45, 1)" stroke="none"/>
  <path d="M298 27c-7.518 4.633-15.2 8.867-23 13v-4l-5 1v2h-3c.984-2.534 1.61-3.77 3.984-5.173l2.41-.932 2.647-1.041 2.771-1.041 2.737-1.077C292.957 25.32 292.957 25.32 298 27z" fill="rgba(31, 20, 11, 1)" stroke="none"/>
  <path d="M98 244c.881 2.978 1.067 5.453.879 8.547l-.147 2.558-.17 2.645-.158 2.691c-.129 2.187-.264 4.373-.404 6.559-1.464-.398-2.92-.819-4.375-1.25l-2.46-.703c-2.623-1.268-3.159-2.371-4.165-5.047h2l1-5 5-1 .148-1.934.227-2.504c.07-.823.14-1.647.21-2.496L96 245l2-1z" fill="rgba(250, 242, 216, 1)" stroke="none"/>
  <path d="M200.383 107.805l2.742.07 2.758.055L208 108v2l-7 1-1 3c3.85 2.567 5.586 1.833 10 1v3l-3 2c-.585 2.886-.585 2.886-.688 6.125l-.199 3.32L206 132l-2-2-2 3c.553-4.03 1.156-8.02 2-12l-2.813-.75c-3.391-1.33-4.61-2.001-6.187-5.25.285-3.992.947-6.832 5.383-7.195z" fill="rgba(54, 42, 27, 1)" stroke="none"/>
  <path d="M170 86c5.74 3.42 5.74 3.42 6.813 5.813L177 94a61385264522093320 61385264522093320 0 0 0 1 7l-4 1v-3c-3.075.776-3.075.776-5 3l-.586-6.152L168 94l-2-1v-2l-2-1c3-2 3-2 6-2v-2z" fill="rgba(7, 11, 6, 1)" stroke="none"/>
  <path d="M101 36v2l2 1-4 1c-2.82 9.944-2.809 24.063 2.223 33.16.981 2.324.603 3.507-.223 5.84-2-1-2-1-2.816-2.996l-.746-2.442C96.4 70.209 96.4 70.209 95 67c-.234-4.141-.228-8.284-.24-12.431-.01-2.061-.041-4.121-.073-6.182l-.015-3.918-.028-3.612L95 38c3-2 3-2 6-2z" fill="rgba(251, 200, 138, 1)" stroke="none"/>
  <path d="M227 35c.383 5.232-.514 8.472-3 13-2.063.75-2.063.75-4 1l-2 3h-2v10c-2.254-4.507-2.254-4.507-1.688-8l.329-2.094c.376-1.994.79-3.957 1.359-5.906h3c1.717-2.445 1.717-2.445 3-5l-1-1-5 2c.385-2.233.895-3.837 2.125-5.75 2.872-1.915 5.52-1.44 8.875-1.25z" fill="rgba(247, 196, 109, 1)" stroke="none"/>
  <path d="M97 88c4.995 7.492 5.458 16.235 5 25h2c-.313 2.375-.313 2.375-1 5l-3 2-.375-2.313c-.506-2.89-.506-2.89-2.625-5.687-.227-2.544-.227-2.544-.195-5.543l.02-3.252.05-3.393.027-3.427c.024-2.795.057-5.59.098-8.385z" fill="rgba(18, 16, 14, 1)" stroke="none"/>
  <path d="M176 28l-1 4h34v1l-2.551.076c-3.152.096-6.303.195-9.455.296-1.358.043-2.717.085-4.076.125-1.964.059-3.927.123-5.89.187l-3.571.11c-3.53.21-6.96.69-10.457 1.206-2.478.065-4.958.086-7.438.063l-3.746-.028L159 35v-2c12.955-5 12.955-5 17-5z" fill="rgba(14, 2, 0, 1)" stroke="none"/>
  <path d="M88 60l2 4h2v-2l3 1v4h-2v5h2c2.99 6.69 5.666 13.599 6 21l-2 2-1-4-1 13h-1a13854.584 13854.584 0 0 1-.645-11.338l-.136-2.432-.127-2.237A108.517 108.517 0 0 1 95 83a69.491 69.491 0 0 0-1.277-4.055l-.807-2.363-.854-2.457C88.709 64.427 88.709 64.427 88 60z" fill="rgba(230, 199, 119, 1)" stroke="none"/>
  <path d="M96.313 24.75l2.373.016c21.42.34 21.42.34 25.314 4.234-3.665 1.222-6.47.633-10.188.063C99.769 27.017 99.769 27.017 86 29l-1 17c-2.528-3.792-2.224-6.809-2.125-11.188l.027-2.271c.024-1.847.06-3.694.098-5.541 4.4-2.187 8.499-2.309 13.313-2.25z" fill="rgba(236, 205, 137, 1)" stroke="none"/>
  <path d="M183 132h2l2 3c4.97-.412 9.445-.796 14-3-.576 3.886-2.416 6.112-5 9-3.502 2.335-4.88 2.673-9 2-2.618-2.963-3.905-4.91-4.25-8.875L183 132z" fill="rgba(249, 248, 225, 1)" stroke="none"/>
  <path d="M48.25 159.75c3.618.241 6.389.938 9.75 2.25v1l-2.52.043-3.292.144-3.27.106c-3.134.43-3.134.43-4.805 3.258L43 169c-4.75-.875-4.75-.875-7-2-6.117-.648-10.553.218-16 3l-1-3c10.744-4.842 10.744-4.842 17-4 3.438 1.5 3.438 1.5 6 3l.375-1.875c1.068-3.63 2.14-4.088 5.875-4.375z" fill="rgba(243, 217, 132, 1)" stroke="none"/>
  <path d="M278 20v3h-3v2l-1.938.813C270.67 26.887 270.67 26.887 270 30c-2.25 1.098-2.25 1.098-5 2.063-3.76 1.075-3.76 1.075-6 3.937h-4v3h-2l-1 4c-2-1-2-1-3-4a639.945 639.945 0 0 1 3.875-3.5l2.18-1.969C257 32 257 32 259 32v-2c6.236-3.54 12.562-6.842 19-10z" fill="rgba(234, 203, 115, 1)" stroke="none"/>
  <path d="M300 24c2.375 1.375 2.375 1.375 4 4 .837 3.314.908 6.592 1 10l.062 2.24c.06 2.524.098 5.048.125 7.573l.04 2.498c.008 5.935-.887 9.678-4.227 14.689l-3-1v-2l3-1c2.864-4.657 2.222-10.044 2.125-15.313l-.027-2.822A879.058 879.058 0 0 0 303 36h-2l-2-8c-3.153-.7-5.727-1-9-1v-2c3.593-1.198 6.227-1.33 10-1z" fill="rgba(251, 197, 143, 1)" stroke="none"/>
  <path d="M249 72l3 1c-7.86 6.404-19.343 9.172-29.313 9.063l-3.238-.028L217 82l-1 2-1-8 1 4 2.313-.5c4.908-.666 9.741-.58 14.687-.5v-2c10.374-3.444 10.374-3.444 16-3v-2z" fill="rgba(239, 211, 130, 1)" stroke="none"/>
  <path d="M320 49h2l1 9h2l1-2-1 17-5 1V49z" fill="rgba(58, 41, 19, 1)" stroke="none"/>
  <path d="M177 35h9l-3 1c-.476 6.694-.311 10.548 4 16 2.673 4.71 1.829 8.858 1 14h-2l-.148-2.012c-.561-6.623-1.423-11.14-5.477-16.488-2.226-3-2.785-4.705-2.375-8.5l-1-4z" fill="rgba(249, 203, 107, 1)" stroke="none"/>
  <path d="M178 101c2.301 3.452 2.138 4.235 1.625 8.188l-.336 2.73L179 114l2.563-1c4.18-1.216 8.415-2.011 12.437 0v-3l2 1v6l-3-1v-2l-9 1-1 3h-3v11h-1v-10h-2v3l-2-1 .656-2.598c2.104-8.61 2.104-8.61 2.344-17.402z" fill="rgba(218, 209, 168, 1)" stroke="none"/>
  <path d="M169 80c1.794.45 3.585.91 5.375 1.375l3.023.773C180 83 180 83 182 85l-2 2c-2.68 4.019-2.322 6.253-2 11-1.111-2.143-2.034-4.115-2.719-6.438-1.695-3.389-3.551-4.197-6.906-5.874l-3.04-1.551L163 83l3-2 2 1h1v-2z" fill="rgba(234, 235, 209, 1)" stroke="none"/>
  <path d="M132 82l-1 1 6 2-1 16c-4-4-4-4-4.438-7.438.457-3.717 1.441-5.474 3.438-8.562a780.66 780.66 0 0 0-6.438 1.375l-3.62.773L122 88l-1 2h-2c.438-2.25.438-2.25 2-5 7.667-4.667 7.667-4.667 11-3z" fill="rgba(42, 37, 25, 1)" stroke="none"/>
  <path d="M314 17c2 1 2 1 3.053 4.157 2.61 10.132 3.582 19.787 3.468 30.232-.021 2.402 0 4.802.026 7.205-.003 1.547-.008 3.094-.016 4.64l.025 2.147c-.091 4.797-1.22 7.202-4.556 10.619 1-7 1-7 1.523-10.29 2.063-16.063-.26-32.948-3.523-48.71z" fill="rgba(229, 202, 129, 1)" stroke="none"/>
  <path d="M298 134c3.41.787 6.689 1.871 10 3-2.611 4.835-5.375 8.871-9 13l-2-4h3l-1.563-1.25L297 143c.313-2.188.313-2.188 1-4l-5 1 5-6z" fill="rgba(34, 32, 33, 1)" stroke="none"/>
  <path d="M262 86c2.48-.027 4.958-.047 7.438-.063l2.142-.025c1.807-.009 3.614.036 5.42.088 2.282 2.282 1.28 7.565 1.313 10.625l.087 2.7c.059 6.119-.9 9.636-4.4 14.675-2-3-2-3-1.813-4.938.813-2.062.813-2.062 2.375-3.75 2.221-3.572 1.814-7.208 1.438-11.312-.32-1.337-.65-2.67-1-4v-2h-9l-1 4c-3-3.75-3-3.75-3-6z" fill="rgba(72, 92, 60, 1)" stroke="none"/>
  <path d="M175 35l-.992 1.766c-1.403 3.11-1.137 5.867-1.008 9.234l-3-1v-2l-4-1-1-5-2.012.656-2.675.844-2.637.844c-2.67.655-4.94.774-7.676.656 5.9-5.9 17.187-5.415 25-5z" fill="rgba(220, 174, 97, 1)" stroke="none"/>
  <path d="M266 18l2 1-1.5 1.75c-1.87 2.354-1.87 2.354-1.5 6.25-3.214 3-3.214 3-6 3v2c-4.47 4-4.47 4-7 4v2h-2v-3h2l2-6h2l.742-1.766c1.462-2.597 3.105-4.074 5.383-5.984l2.195-1.86L266 18z" fill="rgba(89, 84, 78, 1)" stroke="none"/>
  <path d="M161 312c4.403 1.5 5.654 4.39 7.75 8.375l1.86 3.46C172 327 172 327 172 331l5-2-1 5c-4.032-1.382-6.897-3.065-10-6-1.328-3.129-1.328-3.129-2.25-6.563-.315-1.135-.63-2.27-.953-3.44L162 315l-1-3z" fill="rgba(219, 186, 118, 1)" stroke="none"/>
  <path d="M151.5 69.75l2.34-.023c3.896.013 5.85.066 9.16 2.273v2h4v2l3.25.875C174 78 174 78 176.188 79.125c2.077 1.165 2.077 1.165 5.812.875l-1 3c-7.014-.312-12.017-3.55-18-7a242.873 242.873 0 0 0-6-3v-2l-17 1c3.85-2.566 7.043-2.295 11.5-2.25z" fill="rgba(244, 220, 142, 1)" stroke="none"/>
  <path d="M93 67h3c2.314 3.471 3.08 6.626 4.121 10.625.701 2.426.701 2.426 2.465 3.895C104 83 104 83 104.293 85.262l-.106 2.425-.082 2.45L104 92l-2-1v-2h-2l-.586-2.047-.789-2.703-.773-2.672c-.77-2.557-.77-2.557-1.954-4.719C95 75 95 75 95 72h-2v-5z" fill="rgba(251, 210, 102, 1)" stroke="none"/>
  <path d="M265.25 68.563l2.488-.061c6.019.005 10.134 1.415 15.262 4.498l2.625 1.438c3.032 1.994 5.683 4.12 8.375 6.562v2c-2.375-.75-2.375-.75-5-2l-2-4c-2.2-1.165-2.2-1.165-5-2-1.142-.51-2.284-1.02-3.46-1.547-5.301-1.997-10.445-1.784-16.04-1.64l-3.07.04c-2.477.036-4.953.085-7.43.147 4.364-3.708 7.728-3.484 13.25-3.438z" fill="rgba(241, 217, 130, 1)" stroke="none"/>
  <path d="M284 35c-.25 1.875-.25 1.875-1 4-2.063 1.25-2.063 1.25-4 2l1 3h-4l1 2h5v2h-2v5c-3.265-1.804-4.89-2.834-7-6a97.813 97.813 0 0 1 0-7 804.91 804.91 0 0 1 4.375-2.5l2.46-1.406C282 35 282 35 284 35z" fill="rgba(228, 181, 165, 1)" stroke="none"/>
  <path d="M198 35c2.625-.054 5.25-.094 7.875-.125l2.262-.05c1.955-.018 3.91.072 5.863.175l2 2h-3l-.375 3.438L212 44l-2 1v-7h-3v-2h-2l-1 5h-2l-1-5h-2v12h-2a700.574 700.574 0 0 1-.063-4.813l-.035-2.707C197 38 197 38 198 35z" fill="rgba(246, 195, 108, 1)" stroke="none"/>
  <path d="M80 218l5 1 1 7c-2.645 1.764-3.972 2.385-6.938 3.063l-2.027.472L75 230c-1.334.33-2.668.663-4 1l1-5h6l2-8z" fill="rgba(245, 238, 214, 1)" stroke="none"/>
  <path d="M229 36c4.921-.167 8.503-.248 13 2l-1 4-1.688.188c-3.25 1.142-4.928 3.368-7.312 5.812-2.313 1.313-2.313 1.313-4 2 1.45-4.11 3.511-7.433 6-11h-4l-1 2v-5z" fill="rgba(238, 192, 98, 1)" stroke="none"/>
  <path d="M88 228c2.528 3.13 4.205 6.41 6 10l2 2v3l3 1-3 1 .035 1.934.028 2.504.035 2.496C96 254 96 254 95 255c-1.666.04-3.334.043-5 0l-1 5h-2v2l-3-1v-2h4l-1-4 7-1c.571-6.856-.606-11.093-4-17-1.606-3.533-2-5.004-2-9z" fill="rgba(214, 172, 119, 1)" stroke="none"/>
  <path d="M284 8h4v3h2c-1.45 4.593-1.45 4.593-3.688 6.25-3.062.993-6.125 1.337-9.312 1.75l-2 1c.472-4.248 2.889-6.268 6-9h2l1-3z" fill="rgba(10, 8, 9, 1)" stroke="none"/>
  <path d="M257 92h1l1 8h5c1.395 2.298 2.074 3.48 1.688 6.188C265 108 265 108 264 109c-2.438.188-2.438.188-5 0-2.679-2.679-2.657-4.232-3-8 .207-3.02.567-6.004 1-9z" fill="rgba(233, 233, 235, 1)" stroke="none"/>
  <path d="M37 189c-.188 2.375-.188 2.375-1 5-2.563 1.313-2.563 1.313-5 2v3h6l1 3-2.875.375c-3.212.342-3.212.342-5.125 2.625-.56-1.41-1.097-2.828-1.625-4.25l-.914-2.39c-.559-2.86.002-3.95 1.539-6.36h2v-2c3-1 3-1 6-1z" fill="rgba(226, 163, 86, 1)" stroke="none"/>
  <path d="M18 159h11l1 3c-1.641 3.282-4.693 3.746-8 5h-3c-1.354-2.709-1.065-5.01-1-8z" fill="rgba(251, 248, 227, 1)" stroke="none"/>
  <path d="M67 249l3 3h-2l1 5h3l1 5c-6.188-1.466-11.097-5.085-16-9l-1-2 2.313 1.063c2.735 1.26 2.735 1.26 5.687-.063 1.667-1.5 1.667-1.5 3-3z" fill="rgba(58, 51, 54, 1)" stroke="none"/>
  <path d="M126 162c4 0 4 0 5.625 1.375L133 165l2 2-1.813 2.125c-2.296 2.803-2.296 2.803-3.687 6.125-1.5 2.75-1.5 2.75-3.688 3.625L124 179l.875-2.125c1.146-2.93 2.151-5.884 3.125-8.875l-4 3a56.54 56.54 0 0 1 4-7l-2-2z" fill="rgba(234, 231, 221, 1)" stroke="none"/>
  <path d="M43 227c2 2 2 2 2 5l6 1c1 3 1 3 0 6l-4 4c-2.563-2-2.563-2-5-5-.156-2.868.401-5.145 1-8v-3z" fill="rgba(6, 3, 6, 1)" stroke="none"/>
  <path d="M278 83c5.595.595 5.595.595 8 3l-5 1 1 6h-3v12h-1l-1-18-15-1-1 2v-3l3.465-.184 4.473-.254 2.287-.119c3.694.117 3.694.117 6.775-1.443z" fill="rgba(36, 42, 31, 1)" stroke="none"/>
  <path d="M304 35c4.53 5.54 4.014 12.115 4 19-.466 4.238-.882 7.882-4 11h-3l.938-1.75c1.824-3.863 2.184-7.198 2.16-11.453l-.01-2.969-.026-3.078-.013-3.125c-.012-2.542-.028-5.083-.049-7.625z" fill="rgba(254, 205, 122, 1)" stroke="none"/>
  <path d="M165 337h2l1 3-1 2h-2v2l16 1v1c-2.709.054-5.416.094-8.125.125-.76.017-1.521.034-2.305.05-4.603.04-8.235-.416-12.57-2.175l1-6h6v-1z" fill="rgba(52, 50, 49, 1)" stroke="none"/>
  <path d="M304 13c-1.623.67-3.249 1.337-4.875 2l-2.742 1.125C294 17 294 17 292 17v2c-4.404 3.083-4.404 3.083-7 4-3.438-1.25-3.438-1.25-6-3 2.235-2.235 3.443-2.59 6.438-3.438l2.683-.761L291 15l3.035-.895L297 13.25l2.75-.797C302 12 302 12 304 13z" fill="rgba(222, 189, 111, 1)" stroke="none"/>
  <path d="M94 226h1l3 9 1-6h1v13l-4 1c-2.191-3.334-3.435-6.042-4-10h2v-7z" fill="rgba(99, 88, 87, 1)" stroke="none"/>
  <path d="M48 155c-1.813 1.813-4.612 1.676-7.063 2.063l-3.347.535L35 158v3l2 1-1 2-7-1v-3l-11-1v-1l16-1v-2c1.958-.195 3.916-.38 5.875-.563l3.305-.316C46 154 46 154 48 155z" fill="rgba(250, 239, 201, 1)" stroke="none"/>
  <path d="M204 138c2 3 2 3 2.938 5.625L208 146l3 1-2 2-5-1-2 2c-1.875-.313-1.875-.313-4-1l-2.25-.563L194 148l2.75-1.625c3.454-2.276 5.16-4.839 7.25-8.375z" fill="rgba(224, 224, 214, 1)" stroke="none"/>
  <path d="M90 67c2.248 3.372 3.052 6.287 4.125 10.188l.55 1.982c.447 1.609.887 3.22 1.325 4.83-3.355-.595-3.855-.811-6.063-3.688C88.144 77.245 86.41 74.264 85 71l1-2 3 3 1-5z" fill="rgba(58, 48, 40, 1)" stroke="none"/>
  <path d="M124 29c19.729 3.678 19.729 3.678 25 10-4.903-.522-9.132-1.667-13.777-3.3-3.068-.966-6.03-1.36-9.223-1.7l-2-5z" fill="rgba(225, 198, 118, 1)" stroke="none"/>
  <path d="M108 125c3 1 3 1 5 4 .125 3.188.125 3.188 0 6l2 1-3 3-2-1v-2l-4-1c-.18-3.947-.094-6.598 2-10z" fill="rgba(8, 7, 8, 1)" stroke="none"/>
  <path d="M208 108c1.563 1.75 1.563 1.75 3 4-.313 2.25-.313 2.25-1 4-6.4 1.354-6.4 1.354-9.438-.438L199 114l2-4h7v-2z" fill="rgba(227, 184, 169, 1)" stroke="none"/>
  <path d="M250 75v3c-10.92 4.915-20.141 5.605-32 5v2l-2-1 1-2c2.681-.404 5.303-.702 8-.938 6.345-.644 12.084-1.565 18-4.062 4.947-2 4.947-2 7-2z" fill="rgba(252, 244, 198, 1)" stroke="none"/>
  <path d="M284 75c-3.702 1.165-6.022.516-9.744-.51-4-.868-7.995-.698-12.068-.615l-2.561.027c-1.557.018-3.113.04-4.67.066A305.86 305.86 0 0 1 250 74c7.292-7.292 26.023-3.49 34 1z" fill="rgba(253, 243, 195, 1)" stroke="none"/>
  <path d="M220 53v3h4v5h-2v2l2.313-2.375C227 58 227 58 230 56c-.579 3.288-1.548 4.937-3.938 7.25l-1.59 1.578C223 66 223 66 221 66v3l-2-1c-.125-5.75-.125-5.75 1-8h-2c-.125-2.375-.125-2.375 0-5l2-2zm4 2l2 1z" fill="rgba(241, 184, 99, 1)" stroke="none"/>
  <path d="M66.375 197.75c.936.015 1.872.03 2.836.047 2.674.195 5.177.614 7.789 1.203l1 6-.617-1.922c-1.255-2.369-1.255-2.369-4.203-2.906l-3.305-.422c-1.096-.15-2.191-.3-3.32-.453L64 199l-2 4c-2.104.027-4.208.046-6.313.063l-3.55.035C49 203 49 203 46 202v-2l4-1 1 2c3.375.25 3.375.25 7 0l1.395-1.496c2.289-2.144 3.9-1.838 6.98-1.754z" fill="rgba(237, 213, 138, 1)" stroke="none"/>
  <path d="M290 156c4.504 3.67 6.768 8.75 9 14v2l-3-1-2 2c-1.604-3.508-2.22-6.144-2-10h-2l-2-6 2-1z" fill="rgba(73, 70, 69, 1)" stroke="none"/>
  <path d="M316 76c1.361 2.722.704 4.183.063 7.125l-.59 2.758L315 88l2 1c.275 9.93-.463 19.205-2 29h-1l.016-2.08c.02-3.098.034-6.196.046-9.295l.026-3.273.01-3.125.016-2.889c.042-2.361.042-2.361-1.114-4.338.037-2.127.153-4.253.313-6.375l.238-3.46c.409-2.882.963-4.702 2.449-7.165z" fill="rgba(101, 94, 84, 1)" stroke="none"/>
  <path d="M313 78h2l-1 15h-1v-6l-2.125.105c-6.43.184-11.011-.45-16.875-3.105 3.905-1.359 7.71-.895 11.75-.563l2.113.159c1.713.129 3.425.266 5.137.404v-6z" fill="rgba(242, 220, 149, 1)" stroke="none"/>
  <path d="M149.438 101.75L152 102c2.152 3.228 2.2 4.284 2 8-2.326.38-4.66.713-7 1-1-1-1-1-1.125-4.5.157-4.4.157-4.4 3.563-4.75z" fill="rgba(238, 238, 240, 1)" stroke="none"/>
  <path d="M24 115l1 2-1 3h2v2l-2 1c-2.125 4.959-3.472 9.707-4.375 15.02-.739 2.34-1.786 3.396-3.625 4.98 1.117-9.832 3.587-19.13 8-28z" fill="rgba(216, 195, 134, 1)" stroke="none"/>
  <path d="M150.875 70.938l3.492.027L157 71v1l-15 1-1 5c-6.286 2.429-6.286 2.429-10 1l4.59-3.71c1.543-1.257 1.543-1.257 2.41-3.29 4.308-1.016 8.464-1.108 12.875-1.063z" fill="rgba(251, 243, 203, 1)" stroke="none"/>
  <path d="M161 31l2 1-4 1v2h5v1a477.261 477.261 0 0 1-5.688 1.563l-3.199.878c-4.237.76-6.86.405-10.425-2.004L143 35l1-2 2.875 1.25c4.598 1.382 7.82-.417 11.988-2.402L161 31z" fill="rgba(86, 77, 67, 1)" stroke="none"/>
  <path d="M99 35c3.25-.058 6.5-.094 9.75-.125.92-.017 1.84-.034 2.79-.05l2.694-.02 2.476-.032c2.509.249 4.124.97 6.29 2.227v2h2l-1 2-2.875-1.5c-5.117-2.21-10.925-2.35-16.3-.922C103 39 103 39 101 38v-2l-2-1z" fill="rgba(199, 166, 105, 1)" stroke="none"/>
  <path d="M224 142l1 3c-7.885 5.046-7.885 5.046-13 4-1.672-2.535-1.672-2.535-3-5l3.027-.184 3.91-.254c1.288-.08 2.576-.162 3.903-.246 3.02.035 3.02.035 4.16-1.316z" fill="rgba(24, 24, 18, 1)" stroke="none"/>
  <path d="M137 44l2 1-1 7h-3v7l-3 1v2h-2v2l-2-1 .875-1.469c2.854-5.152 3.544-8.66 3.125-14.531l1.938-.375L136 46l1-2z" fill="rgba(237, 205, 111, 1)" stroke="none"/>
  <path d="M275 36c0 4 0 4-2 6.25L271 44l1 3-3 1-3-2c-.188-3.625-.188-3.625 0-7h4v-2c2-1 2-1 5-1z" fill="rgba(12, 5, 5, 1)" stroke="none"/>
  <path d="M203.188 107.813l2.73.082L208 108v2l-7 1-1 3 2 1-1 3-5-1c-.688-2.813-.688-2.813-1-6 2.275-3.32 4.331-3.338 8.188-3.188z" fill="rgba(37, 26, 20, 1)" stroke="none"/>
  <path d="M207 38h3l1 8h-2l-.586 2.555-.789 3.32-.773 3.305C206 58 206 58 204 60c.403-7.547.822-14.74 3-22z" fill="rgba(240, 178, 97, 1)" stroke="none"/>
  <path d="M64.813 188.875l3.519.055L71 189v1l-3.648.734-4.727 1.016-2.406.477c-4.513.794-4.513.794-7.563 3.867L52 198c-3.125.75-3.125.75-6 1a90.488 90.488 0 0 1 4-4h2l.188-1.875C53 191 53 191 55.124 189.875c3.366-1.024 6.176-1.07 9.688-1z" fill="rgba(216, 166, 107, 1)" stroke="none"/>
  <path d="M121 63l1 2-1 2h2v-2l3 1-1.426 1.207-1.886 1.606-1.864 1.582c-1.82 1.556-1.82 1.556-3.355 3.199-2.178 2.085-4.757 3.14-7.469 4.406 1.628-3.757 4.014-6.617 6.625-9.75l2.477-2.984L121 63z" fill="rgba(41, 24, 16, 1)" stroke="none"/>
  <path d="M158 322l1 4h5l.75 2.375c1.404 2.948 2.257 3.527 5.25 4.625l-2 1-1 2v-2c-1.946-.59-1.946-.59-4-1l-1 1c-1.708-1.634-2.935-2.87-4-5-.04-2.333-.043-4.667 0-7z" fill="rgba(9, 8, 12, 1)" stroke="none"/>
  <path d="M177 119h2l.184 2.082.254 2.73c.08.894.162 1.787.246 2.708.25 2.607.25 2.607 1.316 5.48-3.354-.95-6.692-1.897-10-3l.938-1.813c1.164-2.277 1.164-2.277 2.062-5.187h3v-3z" fill="rgba(252, 249, 223, 1)" stroke="none"/>
  <path d="M62 156c4.04 6.06 5.204 13.833 6 21-2-3-2-3-2-5h-2c-2.68-4.019-2.156-6.242-2-11l-4 1c1.75-4.875 1.75-4.875 4-6z" fill="rgba(214, 182, 113, 1)" stroke="none"/>
  <path d="M169 89h6c.534 1.412 1.052 2.83 1.563 4.25l.878 2.39c.604 2.551.406 3.913-.441 6.36h-3l-.84-2.336-1.097-3.039-1.09-3.023c-.896-2.537-.896-2.537-1.973-4.602z" fill="rgba(73, 83, 63, 1)" stroke="none"/>
  <path d="M190 74c3.497.648 6.126 1.902 9 4 .813 2.188.813 2.188 1 4l-3-1-1-2a108.817 108.817 0 0 0-7-1v2l-3 1-2 3-2-1 4-7h3l1-2z" fill="rgba(249, 241, 204, 1)" stroke="none"/>
  <path d="M104 37c2.083-.054 4.166-.093 6.25-.125l3.516-.07c3.062.185 4.676.587 7.234 2.195l-1 4h-4v-2l-3.188-.375c-3.272-.536-5.817-1.264-8.812-2.625v-1z" fill="rgba(22, 11, 6, 1)" stroke="none"/>
  <path d="M157 326a84.512 84.512 0 0 1 3.938 6.5c1.432 2.538 2.817 4.592 5.062 6.5-3.232-.717-6.187-1.813-9.25-3.063l-2.703-1.097L152 334l1.426-1.332c1.923-2.037 2.653-4.046 3.574-6.668z" fill="rgba(209, 209, 197, 1)" stroke="none"/>
  <path d="M211 226h1c2.35 7.053 2.35 7.053.75 11.375l-.879 1.684c-1.687 3.76-2.18 7.9-2.871 11.941l-1-3h-6v-1h6l1-11h2l-.563-1.625c-.551-2.995-.043-5.412.563-8.375z" fill="rgba(223, 199, 129, 1)" stroke="none"/>
  <path d="M35 207h2l1 8h2v2h3v5l4 2v2c-1.938-.813-1.938-.813-4-2l-1-3-3-1c-1.605-2.504-1.605-2.504-3.188-5.563l-1.605-3.066L33 209h2v-2z" fill="rgba(218, 190, 116, 1)" stroke="none"/>
  <path d="M289 28l-1.788.687c-2.678 1.033-5.351 2.08-8.024 3.126l-2.815 1.08c-.893.35-1.785.702-2.705 1.064l-2.491.968c-2.215 1.094-3.555 2.233-5.177 4.075l-1-5h3l1.219-1.36c2.667-2.456 5.85-3.027 9.281-3.89l2.05-.563c3.342-.87 5.11-1.3 8.45-.187z" fill="rgba(228, 197, 124, 1)" stroke="none"/>
  <path d="M191 69h2l2 3 2.563 1L200 74l1 3 4-2v2h-2l-2 5-1.563-2.313c-2.995-3.303-5.294-4.173-9.437-5.687l-1 2c.875-3.875.875-3.875 2-5v-2z" fill="rgba(219, 188, 123, 1)" stroke="none"/>
  <path d="M152 288h2l3 12h-2l-1 6c-2-2-2-2-2.195-5.695.013-1.477.037-2.954.07-4.43l.027-2.285c.024-1.864.06-3.727.098-5.59z" fill="rgba(63, 61, 56, 1)" stroke="none"/>
  <path d="M210 329c3.006 3.006 2.596 5.824 3 10h-8c.615-3.995 2.706-6.745 5-10z" fill="rgba(218, 217, 209, 1)" stroke="none"/>
  <path d="M50 117c3.083 3.523 4.9 7.475 6 12-.313 3.5-.313 3.5-1 6l-2-1c-.633-2.941-.633-2.941-1.125-6.563l-.508-3.628L51 121l-5 1v-3l4-2z" fill="rgba(226, 197, 120, 1)" stroke="none"/>
  <path d="M99 87l1 2h2l1 4c2.97-.342 2.97-.342 6-1l1-2c3.063-.625 3.063-.625 6-1v-2h2c-1.458 3.824-3.249 5.032-6.875 6.813l-2.617 1.332c-2.75.937-3.872 1.012-6.508-.145-2.142-2.907-3-4.355-3-8z" fill="rgba(238, 217, 135, 1)" stroke="none"/>
  <path d="M89 219l.375 1.938L90 223l2 1v2h2v7l-3 1c-3.002-5.004-3.385-8.322-3-14l1-1z" fill="rgba(5, 4, 3, 1)" stroke="none"/>
  <path d="M183 132h2l2 3c4.97-.412 9.445-.796 14-3-.472 4.248-2.967 6.2-6 9l-1-3c-5.484-.743-5.484-.743-11-1v-5z" fill="rgba(237, 228, 184, 1)" stroke="none"/>
  <path d="M97 80c2.488 2.488 2.619 4.073 3.25 7.5l.578 2.969L101 93l-2 2-1-4-1 13h-1l-.184-3.867-.254-5.008-.119-2.55-.127-2.442-.11-2.254C95.1 85.911 95.1 85.911 94 84h2l1-4z" fill="rgba(178, 160, 119, 1)" stroke="none"/>
  <path d="M135 85c-.813 2.438-.813 2.438-2 5-3 1-3 1-5.438 0-2.79-1.089-3.816-1.017-6.562 0l1-3c1.926-.73 1.926-.73 4.313-1.188l2.363-.48C131 85 131 85 135 85z" fill="rgba(222, 222, 213, 1)" stroke="none"/>
  <path d="M138 98h1l.332 2.16c1.079 6.594 1.079 6.594 3.356 12.84 1.312 3 1.312 3 .312 6-3.409-3.254-5.186-6.06-6.125-10.688l-.508-2.449L136 104h2v-6z" fill="rgba(63, 75, 55, 1)" stroke="none"/>
  <path d="M314 94h1v14l-3 1c-1.91-3.822-1.354-7.913-.063-11.875C313 95 313 95 314 94z" fill="rgba(7, 6, 6, 1)" stroke="none"/>
  <path d="M98 244c.881 2.978 1.067 5.453.879 8.547l-.147 2.558-.17 2.645-.158 2.691c-.129 2.187-.264 4.373-.404 6.559l-2-1 1-10-7 1v-2l5-1 .148-1.934.227-2.504c.07-.823.14-1.647.21-2.496L96 245l2-1z" fill="rgba(232, 217, 188, 1)" stroke="none"/>
  <path d="M80 213l3 2v3h-3l-.438 2.875C79 224 79 224 78 226c-2.322.407-4.657.744-7 1v-3h6l-.188-2.688c.208-3.657 1.104-5.36 3.188-8.312z" fill="rgba(216, 170, 118, 1)" stroke="none"/>
  <path d="M25 167l2 1-4 5 2 1v8h-2a248.477 248.477 0 0 1-1.625-4.75l-.914-2.672C20 172 20 172 20.727 169.734 22 168 22 168 25 167z" fill="rgba(241, 209, 119, 1)" stroke="none"/>
  <path d="M159.121 72.672C160.75 73.5 160.75 73.5 163 75c-1.813.625-1.813.625-4 1l-3-2c-2.816-.066-5.203.459-8 1l-1 2c-1.938-.313-1.938-.313-4-1l-1-3c5.25-1.75 11.804-2.012 17.121-.328z" fill="rgba(254, 250, 209, 1)" stroke="none"/>
  <path d="M176 28l-2 5h-11v2h-4v-2c12.955-5 12.955-5 17-5z" fill="rgba(9, 6, 8, 1)" stroke="none"/>
  <path d="M48 152v2c-2.765 1.382-5.046 1.095-8.125 1.063l-3.32-.028L34 155v2h-8l4-2 1.828-1.031c2.465-1.1 4.488-1.373 7.172-1.594l2.563-.227c2.142-.13 4.29-.148 6.437-.148z" fill="rgba(221, 176, 125, 1)" stroke="none"/>
  <path d="M134 87h2v14c-4-4-4-4-4.375-7.563C132 90 132 90 134 87z" fill="rgba(28, 35, 24, 1)" stroke="none"/>
  <path d="M196 54c2.563 2.188 2.563 2.188 5 5-.188 2.5-.188 2.5-1 5a98.487 98.487 0 0 0 0 5c-3-3.75-3-3.75-3-6l-3 1-1-2 1-2h2v-6z" fill="rgba(232, 174, 88, 1)" stroke="none"/>
  <path d="M69 180c1.737 3.225 2.89 6.513 4 10l-11-1v-2c3.462-3 3.462-3 6-3l1-4z" fill="rgba(228, 160, 96, 1)" stroke="none"/>
  <path d="M196 117l8 4c-.52 4.38-1.057 8.688-2 13l-1-2-3-1h3v-9l-6-1 1-4z" fill="rgba(225, 201, 122, 1)" stroke="none"/>
  <path d="M92 26h-3v2l-3 1-1 17c-2.528-3.792-2.224-6.809-2.125-11.188l.027-2.271c.024-1.847.06-3.694.098-5.541 5.384-2.34 5.384-2.34 9-1z" fill="rgba(200, 175, 110, 1)" stroke="none"/>
  <path d="M86 60h2c2.248 4.497 2.167 8.079 2 13-3-2-3-2-5-4 .023-2.164.023-2.164.375-4.625l.336-2.477L86 60z" fill="rgba(18, 9, 4, 1)" stroke="none"/>
  <path d="M182 46c7.045 8.26 7.045 8.26 6.96 13.383A91.062 91.062 0 0 1 188 66h-2l-.148-2.012c-.528-6.23-1.337-10.716-4.852-15.988l1-2z" fill="rgba(245, 183, 102, 1)" stroke="none"/>
  <path d="M246 36l5 2-2 1c-.656 2.527-.656 2.527-1 5h-5v-3h-2l1-3h4v-2z" fill="rgba(212, 172, 99, 1)" stroke="none"/>
  <path d="M235 31l11 4v3c-5.03-.525-10.019-1.106-15-2v-1l6-1-2-1v-2z" fill="rgba(87, 76, 62, 1)" stroke="none"/>
  <path d="M286 278h1c.315 5.99-.318 9.636-3 15h-5l1.813-3.563c1.882-3.757 3.57-7.558 5.187-11.437z" fill="rgba(46, 45, 38, 1)" stroke="none"/>
  <path d="M65 247l5 1 1 3 6-4v7l-3 1c-2.262-1.398-2.262-1.398-4.688-3.375l-2.449-1.96L65 248v-1z" fill="rgba(231, 194, 113, 1)" stroke="none"/>
  <path d="M39.125 118.938l3.883.027L46 119l-1 3H26c5.116-2.558 7.383-3.115 13.125-3.063z" fill="rgba(252, 240, 188, 1)" stroke="none"/>
  <path d="M68 252c3.995.615 6.745 2.706 10 5l-2 3c-1.938-.375-1.938-.375-4-1l-1-2h-3v-5z" fill="rgba(21, 11, 10, 1)" stroke="none"/>
  <path d="M241 84l2 1-3 7h-2v-2l-7 2c2.848-4.052 5.367-6.187 10-8z" fill="rgba(57, 59, 51, 1)" stroke="none"/>
  <path d="M103 38l-1.938.75c-2.197 1.031-2.197 1.031-2.671 3.017-.424 2.423-.602 4.76-.707 7.217l-.127 2.832-.12 2.934-.13 2.98C97.2 60.154 97.099 62.577 97 65h-1V39c2.463-1.231 4.28-1.072 7-1z" fill="rgba(251, 195, 154, 1)" stroke="none"/>
  <path d="M168 36v7c-1.5-1.313-1.5-1.313-3-3v-3l-2.012.656-2.675.844-2.637.844c-2.67.655-4.94.774-7.676.656 4.919-4.919 11.522-4.23 18-4z" fill="rgba(237, 199, 122, 1)" stroke="none"/>
  <path d="M188 35h9l-2 4a255.805 255.805 0 0 0-2 7h-1c-.125-7.75-.125-7.75 1-10l-4 1-1 6h-1l1-8z" fill="rgba(247, 194, 107, 1)" stroke="none"/>
  <path d="M300 24c2.438 1.688 2.438 1.688 4 4 .25 2.75.25 2.75 0 5l-1.25-1.875c-1.91-2.32-2.917-3.18-5.75-4.125a97.595 97.595 0 0 0-7 0v-2c3.593-1.198 6.227-1.33 10-1z" fill="rgba(235, 196, 123, 1)" stroke="none"/>
  <path d="M90 264l8 3v3c-5.605-.42-10.72-.916-16-3 2.892-.826 4.887-1 8-1v-2z" fill="rgba(75, 71, 67, 1)" stroke="none"/>
  <path d="M79 222l1 4 4 1c-1.416.481-2.833.96-4.25 1.438l-2.39.808A84.887 84.887 0 0 1 71 231l1-5h6l1-4z" fill="rgba(251, 236, 189, 1)" stroke="none"/>
  <path d="M214 232h1c.027 1.73.047 3.458.063 5.188l.035 2.917c-.093 2.75-.477 5.22-1.098 7.895h-1v-5h-2l-1 3c.539-5.277 1.773-9.256 4-14z" fill="rgba(52, 42, 26, 1)" stroke="none"/>
  <path d="M224 134l3 1c.125 3.375.125 3.375 0 7l-2 2h-13v-1l2.152-.184 2.786-.254c.916-.08 1.833-.162 2.777-.246 2.247-.076 2.247-.076 3.285-1.316.368-2.328.702-4.662 1-7z" fill="rgba(89, 87, 80, 1)" stroke="none"/>
  <path d="M283 80h2v2h2l2 5-7 1-1 3-1-5 4-1-6-2v-1h5v-2z" fill="rgba(212, 210, 199, 1)" stroke="none"/>
  <path d="M283 11l-1.875 1.313C278.78 13.996 278.78 13.996 277 17c-2.164.512-2.164.512-4.625.688l-2.477.199L268 18c2.048-3.071 3.243-3.981 6.375-5.75l2.336-1.36c2.608-1.014 3.712-.855 6.289.11z" fill="rgba(82, 79, 81, 1)" stroke="none"/>
  <path d="M271 323l3 4a218.968 218.968 0 0 1-2.688 3.375l-1.511 1.898c-2.106 2.02-4.057 2.801-6.801 3.727l1.496-2.336 1.942-3.039 1.933-3.023c1.598-2.46 1.598-2.46 2.629-4.602z" fill="rgba(189, 189, 186, 1)" stroke="none"/>
  <path d="M235 93h3l-1 15-2-1c-.39-1.99-.719-3.992-1-6l-1-3c.938-2.688.938-2.688 2-5z" fill="rgba(49, 55, 46, 1)" stroke="none"/>
  <path d="M100 93l3 2c2.48-.263 2.48-.263 5-1l2.313-.563L112 93c-1.152 2.468-2.048 4.048-4 6-2.729-.033-5.297-.564-8-1v-5z" fill="rgba(251, 244, 204, 1)" stroke="none"/>
  <path d="M140 80l1 2 3 1v1c-5.376.849-9.654 1.002-15 0 1.415-2.034 2.55-2.904 4.98-3.422 2.002-.24 4.011-.413 6.02-.578z" fill="rgba(2, 3, 2, 1)" stroke="none"/>
  <path d="M159 39c2.89 1.445 3.511 3.539 5 6.375 1.575 2.985 3.126 5.814 5 8.625-3.464-.962-4.91-1.893-7.25-4.688-1.873-3.546-2.432-6.339-2.75-10.312z" fill="rgba(224, 172, 80, 1)" stroke="none"/>
  <path d="M323 61h1v12l-4 1c-.271-5.336-.427-8.614 3-13z" fill="rgba(9, 7, 2, 1)" stroke="none"/>
  <path d="M259 27h2v3h-2v2c-4.47 4-4.47 4-7 4v2h-2v-3h2l1-4 5-1 1-3z" fill="rgba(81, 62, 40, 1)" stroke="none"/>
  <path d="M62.188 235.375L65 236c-.688 1.938-.688 1.938-2 4-2.625.75-2.625.75-5 1l-2-4c3-2 3-2 6.188-1.625z" fill="rgba(242, 232, 199, 1)" stroke="none"/>
  <path d="M35.063 201.938L38 202l-1 5h-2v2h-3a128.624 128.624 0 0 1-1-6c1-1 1-1 4.063-1.063z" fill="rgba(247, 239, 208, 1)" stroke="none"/>
  <path d="M215.262 178.64c3.737.491 7.477.702 11.238.923l2.216.132c1.76.103 3.522.205 5.284.305v1c-3.187.03-6.375.047-9.563.063l-2.712.025c-5.025.018-9.773-.225-14.725-1.088 3.422-2.281 4.389-1.972 8.262-1.36z" fill="rgba(120, 118, 109, 1)" stroke="none"/>
  <path d="M104 125l4 4h-2l.563 3.375C107 136 107 136 106 138a205.189 205.189 0 0 1-2.063-3.75l-1.16-2.11c-.915-2.521-.719-3.664.223-6.14l1-1z" fill="rgba(68, 67, 68, 1)" stroke="none"/>
  <path d="M81 261c3.313.188 3.313.188 7 1 1.938 2.563 1.938 2.563 3 5l-8-1-2-5z" fill="rgba(28, 24, 20, 1)" stroke="none"/>
  <path d="M28 195l1 4h8l1 3-2.875.375c-3.212.342-3.212.342-5.125 2.625l-3-9 1-1z" fill="rgba(211, 166, 118, 1)" stroke="none"/>
  <path d="M71 189c2.313 1.938 2.313 1.938 4 4l-1 2c-3.29 1.097-4.713.8-8 0l2-3-2-2c2.25-.75 2.25-.75 5-1z" fill="rgba(240, 237, 218, 1)" stroke="none"/>
  <path d="M128 167l1 2c-.996 2.602-.996 2.602-2.438 5.625l-1.433 3.04L124 180c-1.46-2.647-2-3.894-2-7 2.438-2.625 2.438-2.625 5-5l1-1z" fill="rgba(34, 33, 29, 1)" stroke="none"/>
  <path d="M154 96h1l.75 3.313c1.27 3.746 1.908 4.793 5.25 6.687l-7 3c-2.215-5.045-1.85-7.86 0-13z" fill="rgba(41, 41, 40, 1)" stroke="none"/>
  <path d="M163 76l7 3v5c-3-1-3-1-4-2a99.984 99.984 0 0 0-5 0v-2h3l-1-4z" fill="rgba(249, 246, 218, 1)" stroke="none"/>
  <path d="M272 55l1.504.805c4.446 2.311 8.635 3.98 13.496 5.195l-2 2-13-4v-4z" fill="rgba(228, 199, 124, 1)" stroke="none"/>
  <path d="M84 38h2l.402 2.266.535 2.984.528 2.953c.482 2.71.482 2.71 1.129 4.984.551 2.461.01 4.395-.594 6.813-1.916-2.873-2.292-3.775-2.633-7.012l-.254-2.295-.238-2.38-.262-2.417A972.5 972.5 0 0 1 84 38z" fill="rgba(229, 198, 128, 1)" stroke="none"/>
  <path d="M270 152l6 1c-3.277 3.67-6.715 5.693-11 8 .25-1.875.25-1.875 1-4 2.063-1.25 2.063-1.25 4-2v-3z" fill="rgba(232, 233, 220, 1)" stroke="none"/>
  <path d="M185 70c2.5 2.174 3.436 3.73 4 7l-1.813.688c-2.75 1.65-3.712 3.51-5.187 6.312l-2-1 1.375-2.563C183.029 76.94 184.03 73.73 185 70z" fill="rgba(227, 185, 120, 1)" stroke="none"/>
  <path d="M209 68h2v4h4l-1 4v-2l-4-1v6l-2-1c-.75-3.375-.75-3.375-1-7l2-3z" fill="rgba(220, 181, 121, 1)" stroke="none"/>
  <path d="M49 230c1.875.313 1.875.313 4 1l2 3c2.667.365 2.667.365 5.625.188l3.04-.083L66 234l-1 2-2.75-.125c-3.196.123-4.534.625-7.25 2.125a996.58 996.58 0 0 1-3-3.438l-1.688-1.933C49 231 49 231 49 230z" fill="rgba(205, 165, 115, 1)" stroke="none"/>
  <path d="M127 64l2 3-1.875.75c-2.28 1.067-2.28 1.067-3.063 3.313L123 73c-2.625.75-2.625.75-5 1 1.15-3.453 2.32-4.38 5.063-6.688l2.222-1.886L127 64z" fill="rgba(215, 188, 115, 1)" stroke="none"/>
  <path d="M219 284c1 2 1 2 .004 5.477a410.996 410.996 0 0 1-1.441 4.148l-.737 2.14A889.598 889.598 0 0 1 215 301h-1v-11l3 1 2-7z" fill="rgba(211, 212, 203, 1)" stroke="none"/>
  <path d="M61 151h1v6l-2 1c-1.134 2.017-1.134 2.017-2 4h-5l-1-2h5l1-5h3v-4z" fill="rgba(242, 236, 193, 1)" stroke="none"/>
  <path d="M59 150c-1.563 2-1.563 2-4 4-3.75.25-3.75.25-7 0l1-3c3.653-1.623 6.194-2.464 10-1z" fill="rgba(249, 233, 197, 1)" stroke="none"/>
  <path d="M130 25c-4.464 2.391-6.69 3.328-11.75 2.063L115 26v-1c10.558-2.665 10.558-2.665 15 0z" fill="rgba(18, 9, 5, 1)" stroke="none"/>
  <path d="M63 247l1 2h3c-1 3-1 3-4 5-2.125-.188-2.125-.188-4-1l-1-3 1.938-.375L62 249l1-2z" fill="rgba(10, 5, 10, 1)" stroke="none"/>
  <path d="M36 163v1c-.568.182-1.137.364-1.723.55-4.884 1.59-9.587 3.355-14.277 5.45l-1-3c5.846-2.635 10.545-4.561 17-4z" fill="rgba(241, 223, 156, 1)" stroke="none"/>
  <path d="M169 80l5 1v2h-2l-1 4-8-4 3-2 2 1h1v-2z" fill="rgba(218, 215, 195, 1)" stroke="none"/>
  <path d="M136 73l2 1-3 2.375L132 79v2c-2.906 1.257-4.796 2-8 2v-2h5l.875-1.813c2.573-5.003 2.573-5.003 6.125-6.187z" fill="rgba(229, 204, 130, 1)" stroke="none"/>
  <path d="M312 11l1 3-14 1 4-2c3.435-2.29 4.985-2.178 9-2z" fill="rgba(238, 209, 128, 1)" stroke="none"/>
  <path d="M277 311l3 1c-1.813 3.777-3.907 7.373-6 11h-2c1.59-4.035 3.282-8.018 5-12z" fill="rgba(220, 221, 210, 1)" stroke="none"/>
  <path d="M160 308c4.034 1.808 6.256 3.512 8.25 7.5.75 2.5.75 2.5-.25 5.5l-.988-1.645-1.325-2.168-1.3-2.144c-1.312-2.077-1.312-2.077-3.055-3.68C160 310 160 310 160 308z" fill="rgba(248, 242, 204, 1)" stroke="none"/>
  <path d="M88 228c2.528 3.13 4.235 6.393 6 10l2 3-3 3a774.579 774.579 0 0 1-2.5-5.75l-1.406-3.234C88 232 88 232 88 228z" fill="rgba(195, 160, 104, 1)" stroke="none"/>
  <path d="M56 133c2.682 3.077 3.42 5.197 3.688 9.25l.199 2.703L60 147h-2l-.313-1.938L57 143l-3-1h2v-9z" fill="rgba(198, 162, 106, 1)" stroke="none"/>
  <path d="M200 136l4 1c-.506 2.169-1 4-2 6l-5-1 3-6z" fill="rgba(14, 12, 14, 1)" stroke="none"/>
  <path d="M208 108c1.563 1.75 1.563 1.75 3 4-.313 2.25-.313 2.25-1 4h-3v-5l-7 1 1-2h7v-2z" fill="rgba(206, 171, 158, 1)" stroke="none"/>
  <path d="M170 86l4 2v2l-1.875.313c-2.49.562-2.49.562-4.125 3.687l-2-1v-2l-2-1c3-2 3-2 6-2v-2z" fill="rgba(27, 29, 25, 1)" stroke="none"/>
  <path d="M207 72h1v6l-3 1-1 3c-2.063.688-2.063.688-4 1l3-6h2l.438-1.938C206 73 206 73 207 72z" fill="rgba(248, 233, 191, 1)" stroke="none"/>
  <path d="M186 35h2c.054 1.458.093 2.916.125 4.375l.07 2.46C188 44 188 44 186 46h-2c-.195-6.055-.195-6.055 0-8l2-2v-1z" fill="rgba(236, 170, 94, 1)" stroke="none"/>
  <path d="M225 36l-2 7-1-4-5 3-1-3c5.8-3 5.8-3 9-3z" fill="rgba(244, 192, 103, 1)" stroke="none"/>
  <path d="M227 265c1.33 3.988.438 6.117-1 10l-3 1-1 3c.765-5.048 2.728-9.455 5-14z" fill="rgba(56, 56, 47, 1)" stroke="none"/>
  <path d="M95 258c.687 2.49 1 4.379 1 7l-2 1c-2.625-.938-2.625-.938-5-2 1-3 1-3 3-4.125l2-.875 1-1z" fill="rgba(230, 232, 217, 1)" stroke="none"/>
  <path d="M89 212c2.01 3.015 2.726 5.215 3.625 8.688.26.993.52 1.987.79 3.011.192.76.386 1.519.585 2.301l-5-2v-12z" fill="rgba(67, 63, 66, 1)" stroke="none"/>
  <path d="M287 159v4l-7 1-1 3h-3v-2c1.898-1.508 1.898-1.508 4.375-3.125l2.46-1.633C285 159 285 159 287 159z" fill="rgba(220, 220, 208, 1)" stroke="none"/>
  <path d="M57 141h1v6l3 1v1l-8 2-1-3 1.938-1.25c2.272-1.928 2.664-2.864 3.062-5.75z" fill="rgba(221, 173, 120, 1)" stroke="none"/>
  <path d="M196 131l4 2c-4.622 2.219-7.768 3.383-13 3l-1-2 3.875-.375c3.473-.315 3.473-.315 6.125-2.625z" fill="rgba(244, 212, 124, 1)" stroke="none"/>
  <path d="M289 86l1 2h-3l-1 5-4 1v-6l7-2z" fill="rgba(240, 239, 224, 1)" stroke="none"/>
  <path d="M210 52h3v6h-3l-1 4c-1.467-3.815-.433-6.29 1-10z" fill="rgba(244, 183, 102, 1)" stroke="none"/>
  <path d="M128 51l2 2 2-1v4h-2v3l-4 1c.875-7.875.875-7.875 2-9z" fill="rgba(6, 2, 2, 1)" stroke="none"/>
  <path d="M234 40h1c.313 2.188.313 2.188 0 5-2.5 2.813-2.5 2.813-5 5l-2-1c3.75-6.75 3.75-6.75 6-9z" fill="rgba(248, 194, 106, 1)" stroke="none"/>
  <path d="M180 33v1c-5.707.993-11.214 1.105-17 1v-2c5.869-1.148 11.089-.773 17 0z" fill="rgba(35, 19, 2, 1)" stroke="none"/>
  <path d="M298 27l-8 5-1-3-2-1c6.5-2.125 6.5-2.125 11-1z" fill="rgba(79, 55, 36, 1)" stroke="none"/>
  <path d="M306 253h1l1 17h-2l-1 3 1-20z" fill="rgba(86, 86, 80, 1)" stroke="none"/>
  <path d="M278 120l1 2c-.926 1.875-.926 1.875-2.313 4l-1.363 2.125C274 130 274 130 272 132l-3-2 1.46-1.426c.633-.622 1.264-1.245 1.915-1.887l1.898-1.863c1.908-1.912 1.908-1.912 3.727-4.824z" fill="rgba(212, 212, 199, 1)" stroke="none"/>
  <path d="M174 122c2.063 1.688 2.063 1.688 4 4-.25 2.75-.25 2.75-1 5l-1.875-1c-2.035-1.142-2.035-1.142-4.125-1l.938-1.813c1.164-2.277 1.164-2.277 2.062-5.187z" fill="rgba(228, 230, 212, 1)" stroke="none"/>
  <path d="M322 76c.75 1.625.75 1.625 1 4-3.178 5.589-3.178 5.589-6 7 .531-4.515 2.366-7.347 5-11z" fill="rgba(200, 183, 153, 1)" stroke="none"/>
  <path d="M171 77l2.688.938A61.905 61.905 0 0 0 182 80l-1 3-7-1v-2l-3-1v-2z" fill="rgba(244, 214, 130, 1)" stroke="none"/>
  <path d="M193 67c2.438.688 2.438.688 5 2 .813 2.625.813 2.625 1 5-2.438-.688-2.438-.688-5-2-.813-2.625-.813-2.625-1-5z" fill="rgba(225, 170, 83, 1)" stroke="none"/>
  <path d="M318 62c2 2 2 2 2.375 5.313C319.948 71.51 318.89 73.02 316 76l2-14z" fill="rgba(217, 190, 121, 1)" stroke="none"/>
  <path d="M295 60v2l5 1v1h-11l-1-2c3-2 3-2 7-2z" fill="rgba(174, 136, 97, 1)" stroke="none"/>
  <path d="M325 56h1l-1 17h-1l-.184-2.336-.253-3.039-.247-3.023C323.15 62.02 323.15 62.02 322 60l1-2h2v-2z" fill="rgba(58, 53, 56, 1)" stroke="none"/>
  <path d="M111 35c8.571-.286 8.571-.286 12 2v2h2l-1 2-7-3v-2h-6v-1z" fill="rgba(213, 188, 117, 1)" stroke="none"/>
  <path d="M137 28c6.875 3.625 6.875 3.625 8 7h-5l-.313-1.938L139 31l-3-1 1-2z" fill="rgba(57, 47, 43, 1)" stroke="none"/>
  <path d="M316 18c3.249 4.097 4.13 6.984 4.063 12.188l-.028 2.73L320 35h-1c-.505-2.082-1.004-4.166-1.5-6.25l-.844-3.516C316 22 316 22 316 18z" fill="rgba(82, 69, 37, 1)" stroke="none"/>
  <path d="M103 298h2l1 4 5 1-2 1 1 7c-4.066-3.678-6.224-7.569-7-13z" fill="rgba(88, 86, 88, 1)" stroke="none"/>
  <path d="M285 289c1.224 3.938.483 6.161-1 10h-2l-1 4-1-2a91.884 91.884 0 0 1 2.438-6.125l1.433-3.32L285 289z" fill="rgba(183, 181, 175, 1)" stroke="none"/>
  <path d="M43 224c2.932 2.853 5.643 5.65 8 9-2.875-.25-2.875-.25-6-1-1.313-1.938-1.313-1.938-2-4l-1-2 1-2z" fill="rgba(44, 24, 14, 1)" stroke="none"/>
  <path d="M45 199l3 1h-2v2l12 1v1H42l1-2h2v-3z" fill="rgba(244, 206, 116, 1)" stroke="none"/>
  <path d="M302 181l.375 1.875c.497 2.316.497 2.316 2.625 4.125l-4 5c-1.188-2.688-1.188-2.688-2-6 1.375-2.875 1.375-2.875 3-5z" fill="rgba(7, 7, 3, 1)" stroke="none"/>
  <path d="M62 156c2.29 3.435 2.178 4.985 2 9l-2-4-4 1c1.75-4.875 1.75-4.875 4-6z" fill="rgba(230, 202, 131, 1)" stroke="none"/>
  <path d="M12 107c1.125 1.75 1.125 1.75 2 4-1.052 3.473-3.041 5.027-6 7 .607-4.128 2.038-7.332 4-11z" fill="rgba(80, 77, 76, 1)" stroke="none"/>
  <path d="M175 94h2l1 7-4 1c-.625-2.875-.625-2.875-1-6l2-2z" fill="rgba(51, 59, 44, 1)" stroke="none"/>
  <path d="M213 68l3 1c1.477 3.49 1.072 7.274 1 11-1.765-3.088-2-4.233-2-8h-4v-3l2-1z" fill="rgba(223, 169, 97, 1)" stroke="none"/>
  <path d="M199 36h2l.375 2.438L202 41l2 1-5 3v-9z" fill="rgba(232, 179, 90, 1)" stroke="none"/>
  <path d="M265 37c1.097 3.29.8 4.713 0 8l-4-1v-4h2v-2l2-1z" fill="rgba(246, 210, 115, 1)" stroke="none"/>
  <path d="M144 33c6.75 1.875 6.75 1.875 9 3l-1 3c-3.821-.53-6.062-1.497-9-4l1-2z" fill="rgba(138, 120, 98, 1)" stroke="none"/>
  <path d="M295 294l4 1-4 7-2-2c.354-2.263.975-3.95 2-6z" fill="rgba(234, 232, 222, 1)" stroke="none"/>
  <path d="M64 238c1 2 1 2 1 4l1 3-3 1-4-5 5-3z" fill="rgba(222, 202, 131, 1)" stroke="none"/>
  <path d="M233 90l-1 5-5-1-1-3c3.625-2.125 3.625-2.125 7-1z" fill="rgba(238, 239, 218, 1)" stroke="none"/>
  <path d="M191 69h2c4 4.47 4 4.47 4 7a84.76 84.76 0 0 1-7-2l-1 2c.875-3.875.875-3.875 2-5v-2z" fill="rgba(236, 197, 133, 1)" stroke="none"/>
  <path d="M229 36c4.921-.167 8.503-.248 13 2l-2 4-2-1v-3l-9-1v-1z" fill="rgba(239, 205, 127, 1)" stroke="none"/>
  <path d="M126 22c4.508 1.258 7.491 2.904 11 6h-7l-1-3h-3v-3z" fill="rgba(102, 101, 104, 1)" stroke="none"/>
  <path d="M297 3v2c-5.078 3.32-5.078 3.32-7 4-2.234-.883-2.234-.883-4-2a875.282 875.282 0 0 1 4.375-2l2.46-1.125C295 3 295 3 297 3z" fill="rgba(83, 80, 84, 1)" stroke="none"/>
  <path d="M287 306h5c-1.652 3.579-3.783 6.748-6 10l-1-3 1-2h2l-1-5z" fill="rgba(222, 222, 209, 1)" stroke="none"/>
  <path d="M94 226h1l1 14-4-3v-4h2v-7z" fill="rgba(66, 54, 46, 1)" stroke="none"/>
  <path d="M101 111l1 2h2c-.313 2.375-.313 2.375-1 5l-3 2c-.625-2.813-.625-2.813-1-6l2-3z" fill="rgba(2, 1, 2, 1)" stroke="none"/>
  <path d="M25 92v2l-2 1-1.438 2.5C20 100 20 100 17 101c1.31-3.93 3.25-9 8-9z" fill="rgba(102, 100, 101, 1)" stroke="none"/>
  <path d="M210 73l4 1 1 4h-4v2h-3l2-7z" fill="rgba(245, 226, 185, 1)" stroke="none"/>
  <path d="M319 71l2 2h3c-1.75 3.875-1.75 3.875-4 5v-2h-3l2-5z" fill="rgba(49, 39, 25, 1)" stroke="none"/>
  <path d="M276 51l7 4-3 1-2-1c-2.117.892-2.117.892-4 2l-1-2 3-4z" fill="rgba(40, 29, 29, 1)" stroke="none"/>
  <path d="M170 326l2 1v4l5-2-1 5c-4.75-1.875-4.75-1.875-7-3l1-5z" fill="rgba(216, 211, 191, 1)" stroke="none"/>
  <path d="M52 196l1 3h2v2l3 1c-3.375.125-3.375.125-7 0l-2-2 1-2h2v-2z" fill="rgba(249, 239, 190, 1)" stroke="none"/>
  <path d="M63.578 188.61l2.672.14 2.703.11L71 189v1l-14 3c4-4 4-4 6.578-4.39z" fill="rgba(223, 188, 137, 1)" stroke="none"/>
  <path d="M303 182h2a100.644 100.644 0 0 1 3 6l-1 2-3-1c-1.188-3.063-1.188-3.063-2-6l1-1z" fill="rgba(59, 58, 58, 1)" stroke="none"/>
  <path d="M265 173l-1 5-8-1c5.217-4 5.217-4 9-4z" fill="rgba(215, 216, 202, 1)" stroke="none"/>
  <path d="M257 92h1l1 8h5c-3.75 2-3.75 2-6 2v5h-1c-1.206-5.227-.756-9.765 0-15z" fill="rgba(130, 130, 130, 1)" stroke="none"/>
  <path d="M186 76h4c-.313 1.938-.313 1.938-1 4l-3 1-2 3-2-1 4-7z" fill="rgba(245, 231, 192, 1)" stroke="none"/>
  <path d="M142 73h11v1c-3.311 1.129-6.59 2.213-10 3l-1-4z" fill="rgba(251, 252, 229, 1)" stroke="none"/>
  <path d="M205 61l2 2c-.277 4.245-1.184 6.816-4 10-1.232-4.436-1.232-4.436-.125-7.125L204 64l1-3z" fill="rgba(241, 188, 99, 1)" stroke="none"/>
  <path d="M167 319c3.161 4.215 3.337 5.06 3 10h-3v-10z" fill="rgba(230, 207, 137, 1)" stroke="none"/>
  <path d="M283 318l1 2c-4.821 6.295-4.821 6.295-9 7 .957-1.126 1.916-2.25 2.875-3.375l1.617-1.898A75.822 75.822 0 0 1 283 318z" fill="rgba(44, 45, 39, 1)" stroke="none"/>
  <path d="M126 162h4c.625 1.875.625 1.875 1 4-2.156 2.156-4.371 3.478-7 5a56.54 56.54 0 0 1 4-7l-2-2z" fill="rgba(146, 139, 138, 1)" stroke="none"/>
  <path d="M287 158l3 1v4h2l-1 4v-2h-6l1.563-1.25L288 162c-.228-2.163-.228-2.163-1-4z" fill="rgba(218, 217, 209, 1)" stroke="none"/>
  <path d="M149.563 101.938L152 102c-1.545 3.09-3.562 5.562-6 8-.042-2.333-.04-4.667 0-7 1-1 1-1 3.563-1.063z" fill="rgba(217, 218, 217, 1)" stroke="none"/>
  <path d="M116 69l2 4c-2.688 2.252-4.646 3.882-8 5 1.527-3.436 3.6-6.12 6-9z" fill="rgba(84, 56, 41, 1)" stroke="none"/>
  <path d="M132 55h3l-1 5h-2v2h-2v2l-2-1 4-8z" fill="rgba(215, 187, 109, 1)" stroke="none"/>
  <path d="M177 50c2.106 1.708 2.938 2.521 3.293 5.262l-.106 2.425-.082 2.45L180 62c-2.147-2.147-2.543-3.078-3-6l1-2-2-1 1-3z" fill="rgba(244, 184, 102, 1)" stroke="none"/>
  <path d="M266 18l2 1-1.5 1.75c-1.87 2.354-1.87 2.354-1.5 6.25l-3-1c.498-3.688 1.1-5.605 4-8z" fill="rgba(70, 67, 69, 1)" stroke="none"/>
  <path d="M81.625 245.875L84 246l-7 7c-.125-2.375-.125-2.375 0-5 2-2 2-2 4.625-2.125z" fill="rgba(228, 169, 84, 1)" stroke="none"/>
  <path d="M90 240l3 1v5h-7l4-1v-5z" fill="rgba(232, 166, 85, 1)" stroke="none"/>
  <path d="M93 226h1v7l-3 1-2-5h3l1-3z" fill="rgba(23, 17, 10, 1)" stroke="none"/>
  <path d="M65 172c2.278 2.278 3.052 3.938 4 7-.375 2.313-.375 2.313-1 4l-2-1c-.414-2.285-.414-2.285-.625-5.063l-.227-2.785L65 172z" fill="rgba(234, 204, 124, 1)" stroke="none"/>
  <path d="M18 132l2 1c-.615 6.523-.615 6.523-2.563 8.938L16 143c1-7.429 1-7.429 2-11z" fill="rgba(228, 198, 122, 1)" stroke="none"/>
  <path d="M208 118h2v9c-2.063-1.75-2.063-1.75-4-4 .19-2.218.415-3.415 2-5z" fill="rgba(233, 235, 216, 1)" stroke="none"/>
  <path d="M64 111h1c.533 1.58 1.051 3.164 1.563 4.75l.878 2.672c.576 2.656.451 4.048-.441 6.578-4.079-8.035-4.079-8.035-3.75-12.063L64 111z" fill="rgba(72, 70, 70, 1)" stroke="none"/>
  <path d="M35 101c2.938-.438 2.938-.438 6 0 1.875 2 1.875 2 3 4l-4 1v-4l-7 2 2-3z" fill="rgba(204, 207, 195, 1)" stroke="none"/>
  <path d="M241 87h2c1.125 1.5 1.125 1.5 2 4-.424 2.777-1.189 5.296-2 8h-1c-.125-5.75-.125-5.75 1-8l-3 1 1-5z" fill="rgba(30, 32, 33, 1)" stroke="none"/>
  <path d="M284 76c4.142 1.38 5.322 3.598 8 7l-7-1-1-6z" fill="rgba(252, 243, 197, 1)" stroke="none"/>
  <path d="M189 63c2.952 2.952 3.087 5.955 4 10l-5-1-1-3h2v-6z" fill="rgba(235, 176, 97, 1)" stroke="none"/>
  <path d="M208 68c0 3 0 3-2.5 5.688L203 76c.25-2.875.25-2.875 1-6 2.063-1.375 2.063-1.375 4-2z" fill="rgba(222, 171, 94, 1)" stroke="none"/>
  <path d="M285 57l8 4v1l-9-1 1-4z" fill="rgba(47, 26, 13, 1)" stroke="none"/>
  <path d="M280 53c1.484.423 2.962.864 4.438 1.313l2.496.738L289 56l1 3c-4.43-1.208-6.981-2.517-10-6z" fill="rgba(210, 172, 159, 1)" stroke="none"/>
  <path d="M175 35l-3 9c-2.152-3.228-2.2-4.284-2-8 3-1 3-1 5-1z" fill="rgba(249, 203, 115, 1)" stroke="none"/>
  <path d="M266 316l2 1c-1.443 3.366-3.333 5.51-6 8 0-3.999 1.726-5.802 4-9z" fill="rgba(34, 32, 29, 1)" stroke="none"/>
  <path d="M107 199l3 4-1.875 1.813c-2.262 2.195-2.262 2.195-4.125 5.187.468-4.056.88-7.466 3-11z" fill="rgba(105, 102, 103, 1)" stroke="none"/>
  <path d="M291 151l4 3-5 2-3-3 4-2z" fill="rgba(38, 36, 38, 1)" stroke="none"/>
  <path d="M189 144l3 1 1 3h-7l1-3 2-1z" fill="rgba(12, 11, 10, 1)" stroke="none"/>
  <path d="M184 138h5l-1 4h5v1c-2.813.313-2.813.313-6 0-1.875-2.5-1.875-2.5-3-5z" fill="rgba(230, 229, 220, 1)" stroke="none"/>
  <path d="M50 117l3 4-2 2v-2l-5 1v-3l4-2z" fill="rgba(224, 206, 135, 1)" stroke="none"/>
  <path d="M93 76c1.945 2.918 2.453 4.625 3 8-1.875-.25-1.875-.25-4-1-1.25-2.063-1.25-2.063-2-4h2l1-3z" fill="rgba(98, 84, 70, 1)" stroke="none"/>
  <path d="M229 56l1 3-7 7-2-1 8-9z" fill="rgba(247, 191, 105, 1)" stroke="none"/>
  <path d="M278 20v3h-3v2c-1.875.625-1.875.625-4 1l-2-2 9-4z" fill="rgba(215, 186, 117, 1)" stroke="none"/>
  <path d="M197 340c2.007.287 4.009.619 6 1-2.666 1.777-5.028 2.875-8 4 .875-3.875.875-3.875 2-5z" fill="rgba(59, 53, 51, 1)" stroke="none"/>
  <path d="M65 236l4 1-4 6-2-1 2-6z" fill="rgba(246, 214, 120, 1)" stroke="none"/>
  <path d="M211 226h1c2.215 7.385 2.215 7.385 1.125 10.5L212 238c-1.806-4.462-2.117-7.31-1-12z" fill="rgba(224, 193, 106, 1)" stroke="none"/>
  <path d="M69 180c1.67 3.338 2.874 6.462 4 10l-4-1v-9z" fill="rgba(184, 145, 104, 1)" stroke="none"/>
  <path d="M127 171l1 3 2 1c-2 3-2 3-4.125 3.688L124 179l.938-2.313A110.556 110.556 0 0 0 127 171z" fill="rgba(228, 228, 213, 1)" stroke="none"/>
  <path d="M290 156l4 4-1 2-2-1-1 2-2-6 2-1z" fill="rgba(91, 89, 88, 1)" stroke="none"/>
  <path d="M59 140l2 1c1.158 3.473 1.069 6.36 1 10-2.566-3.85-2.551-6.435-3-11z" fill="rgba(58, 42, 28, 1)" stroke="none"/>
  <path d="M164 90c-2.386 1.892-4.072 3.024-7 4-1.209 2-1.209 2-2 4-.222-2.74-.348-4.44 1.125-6.813 2.65-1.678 4.807-1.392 7.875-1.187z" fill="rgba(180, 180, 179, 1)" stroke="none"/>
  <path d="M83 43c2.296 3.445 2.54 5.938 3 10h-3V43z" fill="rgba(41, 27, 12, 1)" stroke="none"/>
  <path d="M121 39l4 2-3 5-4-2 3-5z" fill="rgba(44, 30, 22, 1)" stroke="none"/>
  <path d="M294 30l-1 3c-2.938 1.25-2.938 1.25-6 2l-2-1c5.625-4 5.625-4 9-4z" fill="rgba(220, 181, 164, 1)" stroke="none"/>
  <path d="M164 330c4.875 1.75 4.875 1.75 6 4h-2l-1 2v-2l-4-1 1-3z" fill="rgba(2, 2, 7, 1)" stroke="none"/>
  <path d="M94 266l4 2v2l-10-1v-1h6v-2z" fill="rgba(127, 122, 118, 1)" stroke="none"/>
  <path d="M96 256h1v10l-3-3c.261-2.675.8-4.601 2-7zm-3 2l2 1-2 1v-2z" fill="rgba(250, 250, 235, 1)" stroke="none"/>
  <path d="M35 207h2l1 7c-1.938-.813-1.938-.813-4-2l-1-3h2v-2z" fill="rgba(225, 209, 144, 1)" stroke="none"/>
  <path d="M25 186c2.43 3.644 2.162 5.712 2 10-2.779-2.779-2.652-5.171-3-9l1-1z" fill="rgba(203, 175, 112, 1)" stroke="none"/>
  <path d="M294 173c1.648 2.967 2.443 5.656 3 9l-3-1c-1.125-5.75-1.125-5.75 0-8z" fill="rgba(229, 227, 216, 1)" stroke="none"/>
  <path d="M182 141l5 1-2 4-3-2v-3z" fill="rgba(23, 21, 19, 1)" stroke="none"/>
  <path d="M42 121h4v5h-3l-1-5z" fill="rgba(248, 221, 132, 1)" stroke="none"/>
  <path d="M7 118l2 8-4 1c.875-6.75.875-6.75 2-9z" fill="rgba(87, 86, 87, 1)" stroke="none"/>
  <path d="M209 109c1.938.75 1.938.75 4 2 .75 2.125.75 2.125 1 4l-4 2 .063-2.313c.066-2.789.066-2.789-1.063-5.687z" fill="rgba(243, 236, 220, 1)" stroke="none"/>
  <path d="M245 90h2c-.888 3.699-1.946 7.346-3 11h-1c-.286-7.429-.286-7.429 2-11z" fill="rgba(212, 212, 215, 1)" stroke="none"/>
  <path d="M262 86l6 1-2 1c-.652 2.025-.652 2.025-1 4-3-3.75-3-3.75-3-6z" fill="rgba(72, 88, 59, 1)" stroke="none"/>
  <path d="M116 74l1 2c-2.834 3.254-4.686 4.52-9 5l1-2h2v-2c2.5-1.625 2.5-1.625 5-3z" fill="rgba(220, 188, 114, 1)" stroke="none"/>
  <path d="M196 54l5 5c-1 2-1 2-3 3-2.152-3.228-2.2-4.284-2-8z" fill="rgba(242, 178, 99, 1)" stroke="none"/>
  <path d="M175 54h4l-.563 1.875c-.674 2.167-.674 2.167.563 4.125l-4-2v-4z" fill="rgba(230, 177, 86, 1)" stroke="none"/>
  <path d="M259 27h2v3h-2v2l-4 1v-3h3l1-3z" fill="rgba(26, 14, 4, 1)" stroke="none"/>
  <path d="M115 27c3.375-.125 3.375-.125 7 0l2 2c-3.694 1.231-6.206.644-10 0l1-2z" fill="rgba(201, 174, 111, 1)" stroke="none"/>
  <path d="M280 16l1 3-9 4c1-3 1-3 2.875-4.188C277 18 277 18 280 18v-2z" fill="rgba(28, 17, 5, 1)" stroke="none"/>
  <path d="M161 312c1.938.75 1.938.75 4 2 .75 2.125.75 2.125 1 4h-3l-2-6z" fill="rgba(225, 211, 155, 1)" stroke="none"/>
  <path d="M84 264h6l1 3-8-1 1-2z" fill="rgba(3, 4, 3, 1)" stroke="none"/>
  <path d="M88 218c1.43 2.862.6 4.934 0 8-3-3.625-3-3.625-3-7l3-1z" fill="rgba(24, 24, 27, 1)" stroke="none"/>
  <path d="M59 197l-1 3-5-1v-2c2.49-1.245 3.41-.777 6 0z" fill="rgba(248, 254, 230, 1)" stroke="none"/>
  <path d="M62 162c-1.063 1.563-1.063 1.563-3 3-3.688-.313-3.688-.313-7-1v-1c1.29-.363 2.582-.715 3.875-1.063l2.18-.597C60 161 60 161 62 162z" fill="rgba(245, 212, 113, 1)" stroke="none"/>
  <path d="M209 144l7 1v3c-3.27-.564-4.826-1.5-7-4z" fill="rgba(5, 4, 2, 1)" stroke="none"/>
  <path d="M206 141c2.438.375 2.438.375 5 1l1 2-4 2-2-5z" fill="rgba(40, 38, 34, 1)" stroke="none"/>
  <path d="M204 127h1v9l-3-1 2-8z" fill="rgba(9, 4, 1, 1)" stroke="none"/>
  <path d="M109 123c4 2 4 2 5.313 4.438C115 130 115 130 114 133l-5-10z" fill="rgba(220, 221, 211, 1)" stroke="none"/>
  <path d="M238 90v3h-3l-1 3-1-5c2-1 2-1 5-1z" fill="rgba(193, 199, 184, 1)" stroke="none"/>
  <path d="M99 87l1 2h2l.313 1.938L103 93l3 1h-5c-1.46-2.647-2-3.894-2-7z" fill="rgba(241, 215, 118, 1)" stroke="none"/>
  <path d="M118 84h5l-2 1a128.606 128.606 0 0 0-2 7h-1v-8z" fill="rgba(203, 183, 121, 1)" stroke="none"/>
  <path d="M284 35l-1 4c-1.875.625-1.875.625-4 1l-2-2c4.75-3 4.75-3 7-3z" fill="rgba(204, 162, 144, 1)" stroke="none"/>
  <path d="M289 29l-1 4h-2v-2h-5c3.088-1.765 4.233-2 8-2z" fill="rgba(47, 31, 17, 1)" stroke="none"/>
  <path d="M266.313 27.313L268 28c-4.43 3.077-4.43 3.077-7.313 2.688L259 30c4.43-3.077 4.43-3.077 7.313-2.688z" fill="rgba(206, 179, 113, 1)" stroke="none"/>
</svg>
</g></svg></g></g>
<!-- /image 61566 -->
</defs><rect x="0" y="0" width="250" height="250" fill="rgba(252, 210, 102, 1)"></rect><use xlink:href="#transformed-61566" transform="translate(-250, -250)"></use><use xlink:href="#transformed-61566" transform="translate(0, -250)"></use><use xlink:href="#transformed-61566" transform="translate(250, -250)"></use><use xlink:href="#transformed-61566" transform="translate(-250, 0)"></use><use xlink:href="#transformed-61566" transform="translate(0, 0)"></use><use xlink:href="#transformed-61566" transform="translate(250, 0)"></use><use xlink:href="#transformed-61566" transform="translate(-250, 250)"></use><use xlink:href="#transformed-61566" transform="translate(0, 250)"></use><use xlink:href="#transformed-61566" transform="translate(250, 250)"></use></svg>