<svg version="1.1"
      xmlns="http://www.w3.org/2000/svg"
      xmlns:xlink="http://www.w3.org/1999/xlink"  id="snapshot-03845" width="250" height="250" viewBox="0 0 250 250"><desc>This image was made on Patterninja.com</desc><defs>
<!-- image 13940 -->
<g id="transformed-13940" data-image="13940" transform="translate(-125, -125) rotate(0, 125, 125)"><g><svg version="1.1" width="250px" height="250px" viewBox="0 0 250 250"><g id="original-13940"><svg xmlns="http://www.w3.org/2000/svg" viewBox="0 0 500 500" xmlns:xlink="http://www.w3.org/1999/xlink" version="1.1" preserveAspectRatio="xMidYMid meet">
  <path d="M253.063 2.055C255 3 255 3 256.125 5.133c3.037 10.385 4.769 20.945 6.458 31.621.393 2.403.393 2.403 1.417 5.246.23 4.25.228 8.502.24 12.757.01 2.076.04 4.151.072 6.227.095 11.758-2.034 22.516-6.187 33.516-.23.663-.461 1.325-.7 2.008-1.733 4.655-3.78 7.28-7.425 10.492l.621 1.723c1.65 4.726 3.185 9.235 3.379 14.277l-1.5 2.25c-2.103 3.855-1.29 6.787-.629 11.031.147 3.092-.543 4.954-1.871 7.719l1 1c-.237 6.056-2.156 8.5-6 13l-.938 3.563c-1.413 4.572-3.167 5.76-7.062 8.437h-2l.262 3.574c.003 5.308-2.596 8.78-5.682 12.873-1.842 2.783-2.69 4.592-2.303 7.97.777 2.918 1.72 5.734 2.723 8.583.699 2.223 1.394 4.447 2.086 6.672.76 2.36 1.523 4.72 2.289 7.078l1.21 3.738c.785 2.424 1.572 4.847 2.36 7.27a2781.52 2781.52 0 0 1 2.614 8.082c2.132 6.574 4.48 12.909 7.441 19.16 2.955-4.433 3.175-7.713 3.395-12.95.068-1.42.138-2.842.209-4.263.105-2.215.207-4.43.295-6.646.66-16.204 2.531-34.404 14.976-46.141 8.34-6.525 16.662-7.016 27.125-6 6.172 1.658 9.788 6.778 13 12 5.26 10.133 5.565 21.519 2.413 32.363-1.72 5.385-3.648 10.57-6.39 15.528-1.41 2.907-2.367 5.922-3.398 8.984-3.98 11.368-10.66 21.965-19.625 30.125h-2v2c-6.322 5.183-15.74 12-24 12l-.113 3.184c-.668 15.682-4.382 24.775-15.887 35.816-6.134 5-6.134 5-9 5l-1 3c-2.328 1.387-2.328 1.387-5.25 2.688-.954.436-1.908.873-2.89 1.324-2.855.986-4.869 1.27-7.86.988l-1-1-.563 1.74c-.861 2.634-1.743 5.26-2.625 7.885l-.884 2.738c-2.74 8.07-6.33 12.663-13.115 17.95l-2.606 2.05c-4.27 3.166-8.004 3.29-13.207 2.637-2.62-1.09-4.636-2.39-7-4v-2l-4-2v-2l-3-1c-1.387-1.559-1.387-1.559-2.688-3.438l-1.324-1.87C159 360 159 360 159 358l-3.297.984c-5.315 1.323-10.501 1.316-15.953 1.266l-3.07-.012c-7.07-.081-13.786-.578-20.68-2.238l-1.285 1.758c-3.733 4.972-7.506 9.737-12.715 13.242h-2v2c-4.205 3.391-8.726 4.133-14 4-8.748-1.694-15.91-7.964-21-15l-.656-2.563c-1.19-2.803-1.19-2.803-4.696-3.59-1.42-.278-2.846-.539-4.273-.784-14.852-3.035-36.252-8.937-46.07-21.176-9.97-15.338-11.985-32.738-8.592-50.653 2.712-11.64 6.015-23.012 11.147-33.828a112.033 112.033 0 0 0 2.695-6.156c3.12-7.683 6.82-14.389 11.445-21.25a963.252 963.252 0 0 0 3.292-5.142c1.89-2.962 3.799-5.91 5.708-8.858l2.14-3.313c2.919-4.455 5.779-8.737 9.36-12.687 2.927-2.861 2.927-2.861 2.5-7h-2c-1.656-2.012-1.656-2.012-3.5-4.688l-1.844-2.636C38.746 174.973 37.742 171.54 38 166l-1.68-.734-2.195-1.016-2.18-.984c-2.398-1.56-3.099-2.535-3.945-5.266.242-2.797.242-2.797.875-5.75l.617-2.984L30 147l-6-2c-1.125-6.625-1.125-6.625 0-10l3-2-.957-1.648c-1.21-2.73-1.486-5.007-1.73-7.977l-.262-2.914C24 118 24 118 25 116l3-1 1-2-6-2c-.728-2.831-1.143-4.547-.25-7.375.35-3.683-1.272-5.109-3.473-7.938-9.518-12.574-5.138-39.478-3.215-54C17.43 32.498 20.233 20.768 27 14c2.313-.5 2.313-.5 5 0 2.077 1.84 3.383 3.69 5 6v2h2c4.767 4.302 4.767 4.302 6 8 1.833 1.125 1.833 1.125 4 2l4 2v2l1.559.293c3.344.969 6.38 2.506 9.504 4.02C75.53 46.278 75.53 46.278 88 48c1.417-.923 2.83-1.854 4.195-2.852C95.834 42.833 99.981 41.516 104 40l2.297-1.005c4.886-1.799 10.053-2.05 15.203-2.62l3.36-.406c15.7-1.79 39.488-3.507 53.011 6.402l1.566 1.379c4.168 3.34 8.876 2.872 14 2.66C203.643 45.235 210.517 40.808 218 34l2.496-2.18c5.995-5.555 10.197-11.625 14.281-18.638 1.029-1.755 2.12-3.473 3.223-5.182h2l2-4 2.813.125c3.483-.137 4.972-2.157 8.25-2.07z" fill="rgba(23, 22, 22, 1)" stroke="none"/>
  <path d="M133 73c4 0 4 0 6.188 2.125l1.277 1.379c4.908 4.783 10.934 7.758 17.149 10.459 2.272.987 4.527 2.006 6.78 3.037 15.741 7.35 15.741 7.35 32.606 11v2h-2v2c-3.01 1.738-5.16 2.251-8.625 2.188l-2.352-.02C182 107 182 107 180 106c-6.906-.962-11.898-.647-17.688 3.438-1.85 1.46-3.645 2.895-5.312 4.562a99.984 99.984 0 0 0 0 5c2.288.42 2.288.42 5 0a141.488 141.488 0 0 0 5-5c3.648-1.635 8.072-1.539 12-1 3.72 1.827 6.806 3.863 10.188 6.25 4.834 2.839 10.402 2.07 15.812 1.75l1-6-10-1c0-2 0-2 1.555-3.945 5.541-5.206 9.784-6.766 17.195-6.618 3.09.114 6.167.323 9.25.563 1.424.087 2.849.172 4.273.254 3.248.207 6.486.454 9.727.746l1.25 3.563a45.01 45.01 0 0 0 4 8.25L245 120l-1 3h-2c-1.701 2.601-2.013 3.848-1.75 7 .656 2.622 1.407 4.672 2.75 7l-2 2c-.053 2.276-.053 2.276.188 4.813.124 4.843.124 4.843-2.625 7.875L236 154l-.313 3.438C235 161 235 161 233.208 162.464l-2.207 1.41c-3.067 1.936-3.067 1.936-4.504 5.078-.04 1.492-.08 2.984-.117 4.477-.976 6.621-5.535 13.63-10.879 17.632-3.34 2.013-6.876 3.52-10.5 4.938-2.021.853-4.042 1.707-6.063 2.563-6.698 2.825-12.724 4.69-19.937 5.437a88.406 88.406 0 0 0-1 5c1.165 1.378 1.165 1.378 4.375 1.313 5.654-.08 10.445-2.22 15.625-4.313 2.311-.9 4.624-1.795 6.938-2.688l3.214-1.261c2.285-.843 4.474-1.53 6.848-2.051v2c-4.963 4.76-10.587 7.913-16.766 10.8-3.039 1.632-4.922 3.671-7.234 6.2h-2c-.346 5.768-.321 10.018 3 15 4.16 3.944 8.073 3.422 13.547 3.293 7.921-.672 15.086-3.48 22.453-6.293h2c-2.177 5.491-6.97 7.4-12 10-2.56 1.085-5.138 2.083-7.738 3.066-3.127 1.291-5.564 2.894-8.262 4.934l-1.813 1.313C197.809 253.692 198 257.988 198 262c4.426 1.381 8.997 1.306 13.6 1.43 2.928.14 4.948.245 7.365 1.984C220 267 220 267 220 269c4.227 1.026 8.22 1.134 12.563 1.125l3.94.008c2.74-.104 4.913-.305 7.497-1.133v2c-4.522 2.718-9.445 2.773-14.59 3.34-3.47.672-5.578 1.58-8.41 3.66l-1 2h-2l.691 1.582c2.82 7.219 2.089 9.84 1.309 18.418h24v9l-2.25-.5c-10.232-1.487-10.232-1.487-19.75 1.5-1.954 2.674-2.03 4.444-2.25 7.813-.498 5.024-3.26 7.761-6.75 11.187l-2 2 .032-3.273c.036-4 .059-7.999.078-11.998.01-1.732.024-3.465.04-5.197.025-2.487.036-4.974.045-7.462l.032-2.355c0-1.906-.105-3.812-.227-5.715-1.839-2.287-1.839-2.287-4.625-2.125L204 293l.08 2.583c.085 3.177.147 6.354.195 9.532.025 1.373.059 2.746.102 4.118.061 1.978.087 3.956.111 5.935l.08 3.602c-.729 4.146-2.458 5.506-5.568 8.23-1.106 2.39-1.106 2.39-2 5-2.954 6.136-6.67 9.813-12 14l-2.938 2.375c-4.026 2.137-7.581 2.312-12.062 2.625-1.672.307-3.342.626-5 1-7.462-8.95-11.263-17.762-12.64-29.348-.21-2.622-.21-2.622-1.36-4.652h-5c.226 7.829.748 14.565 4.012 21.734 1.457 3.34 2.199 6.716 2.988 10.266-3.399 2.266-4.563 2.237-8.543 2.195l-3.252-.02-3.393-.05-3.427-.027c-2.795-.024-5.59-.057-8.385-.098v-2h-2c.445-4.412 3.446-6.966 6.375-10 6.17-5.747 6.17-5.747 8.813-13.25L139 324c-2.335-.039-2.335-.039-5 1-1.388 1.584-2.486 3.227-3.594 5.016-1.865 2.631-4.104 4.726-6.406 6.984a464.974 464.974 0 0 0-5.75 6.188l-1.496 1.615C114.07 347.68 114.07 347.68 112 351c-8.251 2.662-18.178 1.365-26-2-3.618-2.381-6.816-5.07-10-8l-2.875-2.625C71 336 71 336 68.937 332.75c-1.622-2.894-1.622-2.894-4.124-3.438L63 329c-1.238-3.713-1.356-7.313-1.563-11.188l-.13-2.271C61.2 313.694 61.1 311.847 61 310l-5-1c-.231 11.377.29 22.905 3 34l1 1c.04 1.666.043 3.334 0 5-5.3.357-9.25-.864-14.125-2.688l-2.261-.828A778.27 778.27 0 0 1 37 343c-1.154-.43-2.307-.859-3.496-1.3-9.01-3.524-16.815-7.928-21.504-16.7-6.133-14.679-4.913-29.765-1.313-44.875l.739-3.13c1.79-7.059 4.353-13.47 7.574-19.995h1c.163 7.101-.454 13.9-1.375 20.938l-.383 3.091c-1.936 15.169-1.936 15.169-4.34 22.166-1.945 6.046-2.241 13.534.184 19.457 1.457 2.33 2.972 4.406 4.914 6.348 2.927.288 5.153.5 8 0 2.35-2.226 3.618-4.1 4.875-7.063 1.72-2.96 4.216-4.24 7.125-5.937h2l.938-2.875C43 310 43 310 44 308l3.188-1.313c5.775-2.414 9.414-5.123 11.812-10.937.686-1.91 1.35-3.828 2-5.75.752-2.145 1.51-4.288 2.268-6.43a691.13 691.13 0 0 0 1.539-4.417A170.92 170.92 0 0 1 70 266h2l.25-1.938c.647-2.642 1.428-4.678 2.563-7.125 4.616-10.19 6.843-19.084 6.687-30.312.015-1.136.03-2.271.047-3.441-.036-7.62-.777-11.387-6.18-16.829-3.04-2.397-3.04-2.397-6.367-4.355v-2c5.034.503 8.528 1.716 13 4 5.282 1.214 10.49 1.115 15.875 1.063l2.664-.014c2.154-.012 4.307-.03 6.461-.049a88.406 88.406 0 0 0 1-5c-1.701-1.701-3.954-1.27-6.285-1.395l-3.299-.209a776.094 776.094 0 0 0-6.875-.382c-5.974-.397-10.613-1.025-15.822-4.04-2.536-1.437-5.258-2.166-8.032-3.037C58.87 187.643 51.07 180.6 47 172c-.293-3.113-.293-3.113-.188-6.313l.083-3.238L47 160l-9-4 .125-4.688c0-3.87-.135-6.885-2.125-10.312l-2-1v-2l2-1.75c2.273-2.129 2.273-2.129 2.375-5.25-.175-2.94-.175-2.94-1.5-5-.875-2-.875-2-.125-5.125C38 118 38 118 40 116c.4-2.323.74-4.657 1-7 3.083-.058 6.166-.094 9.25-.125.873-.017 1.745-.034 2.645-.05l2.558-.02 2.349-.032c2.457.254 4.071 1.003 6.198 2.227l-3 1c-.418 2.373-.418 2.373 0 5 2.321 1.826 2.321 1.826 5 3l2 1c4.784.443 7.046-.258 10.813-3.188l2.609-1.914L84 114c7.02-4.97 7.02-4.97 11.387-5.035 5.189.9 8.327 2.795 11.613 7.035v2h5c.95-2.24.95-2.24 1-5-2.208-2.708-2.208-2.708-5-5-1.813-1.688-1.813-1.688-3-3v-2h2v-2l1.61-.77c3.751-1.828 7.073-3.679 10.39-6.23h2l.688-1.625C123 90 123 90 125.438 87.187 128.11 84.082 129.512 80.823 131 77c.653-1.34 1.312-2.677 2-4z" fill="rgba(251, 251, 251, 1)" stroke="none"/>
  <path d="M247 9c3.6 6.224 4.487 14.037 6 21l.475 2.102c3.351 15.045 5.404 33.633.087 48.398-.993 2.817-1.878 5.608-2.625 8.5L250 92l-2 1a78.037 78.037 0 0 0-2 5h-2l-.938 1.938C242 102 242 102 241 103a85.688 85.688 0 0 0-.563 4.563l-.253 2.503L240 112c-1.46-2.647-2-3.894-2-7-4.41-.174-8.82-.3-13.232-.385a259.298 259.298 0 0 1-4.493-.143c-10.328-.634-10.328-.634-19.181 4.055l-1.729 1.957L198 112h-2v2l3.875-.063c3.875-.062 3.875-.062 6.125 1.063.043 2 .04 4 0 6-1.753 1.753-4.05 1.337-6.438 1.438-6.973-.025-10.996-2.546-16.562-6.438-3.944-2.286-7.517-2.43-12-2-3.256.888-4.68 1.66-7 4.125-2 1.875-2 1.875-4.688 2.188C157 120 157 120 156 119c-.5-2.188-.5-2.188 0-5 3.88-4.36 9.162-8.694 15.043-9.328l3.144.078c1.046.015 2.091.03 3.168.047C180 105 180 105 182 106c1.456.096 2.916.13 4.375.125l2.336.008c2.222-.13 4.155-.52 6.289-1.133v-2h2v-2l-2.832.227c-5.305-.008-9.954-1.991-14.856-3.852l-2.968-1.105A170.125 170.125 0 0 1 156 87l-6.313-3c-4.94-2.467-8.78-5.093-12.687-9v-2h-4l-.813 2.625C128.493 86.128 122.148 94.981 112 100c-2.773.656-2.773.656-5 1v2h-2c2.137 2.77 4.19 5.168 6.813 7.5L114 113c-.188 2.813-.188 2.813-1 5-1.688.813-1.688.813-4 1-2.438-2.25-2.438-2.25-5-5-3.612-2.593-6.511-4.085-11-4-4.455 2.083-8.441 4.886-12.434 7.738-5.853 4.136-5.853 4.136-9.754 4.825-4.337-.868-7.678-2.429-10.812-5.563-.125-2.5-.125-2.5 0-5v-2H40v-2l-1.824-.238c-3.707-1.298-4.701-4.425-6.516-7.739-1.62-3.055-1.62-3.055-3.601-5.921C21.069 82.665 22.347 70.96 23 58c.04-1.41.077-2.82.11-4.23.328-8.09 1.046-19.31 6.523-25.665L31 27l2.148 2.203c2.727 2.674 5.527 5.125 8.477 7.547l2.852 2.36C46.923 41.15 46.923 41.15 50 42v2l2.527.781c3.818 1.34 7.392 2.972 11.035 4.719 8.952 4.32 8.952 4.32 18.626 6.25l3.167.297c2.805.256 2.805.256 4.645-2.047 3.217-1.084 6.47-1.982 9.738-2.902 3.11-1.047 5.502-2.354 8.262-4.098 9.966-3.517 20.563-3.158 31-3.125l3.656-.012c19.543.022 19.543.022 28.844 5.075l2.125 1.091c2.776 1.45 5.149 2.745 7.375 4.971 13.024 1.889 26.078-1.7 36.582-9.293C230.74 35.563 238.869 23.307 247 9z" fill="rgba(109, 109, 109, 1)" stroke="none"/>
  <path d="M253.063 2.055C255 3 255 3 256.125 5.133c3.037 10.385 4.769 20.945 6.458 31.621.393 2.403.393 2.403 1.417 5.246.23 4.25.228 8.502.24 12.757.01 2.076.04 4.151.072 6.227.095 11.758-2.034 22.516-6.187 33.516-.23.663-.461 1.325-.7 2.008-1.683 4.52-3.83 7.313-7.425 10.492-1.233 1.008-1.233 1.008-1.098 3.066l.036 2.496.027 2.504L249 117h3l1 5-6 2-.25-1.813c-.963-2.81-2.384-3.466-4.75-5.187-2.734-4.415-2.684-8.96-2-14 1.875-3.125 1.875-3.125 4-5h2l2-6h2l.367-1.977c.926-4.827 2.078-9.357 3.633-14.023 3.738-21.126-.32-42.604-6-63h-2a153.589 153.589 0 0 0-4.688 7c-3.738 5.748-7.543 11.05-12.312 16l-1.973 2.195C217.104 48.821 206.443 54.345 192 56l-3.078.379c-6.32.415-9.73-1.013-14.746-4.781-10.391-7.63-22.654-6.779-34.988-6.785l-3.58-.038c-10.855-.017-21.61.72-31.608 5.225l-2.273 1.012c-1.543.689-3.085 1.38-4.625 2.074-9.55 4.153-16.476 4.356-26.207.77C65.826 51.771 60.855 49.543 56 47l-3.375-1.688L50 44v-2l-1.684-.258c-3.033-.972-4.925-2.597-7.379-4.617l-2.597-2.117c-3.87-3.32-3.87-3.32-5.34-5.008v-2h-3c-.65 1.727-1.295 3.457-1.938 5.188l-1.09 2.917c-2.148 6.393-2.525 12.815-2.837 19.519a171.115 171.115 0 0 1-.371 5.1C22.329 77.75 25.019 92.295 36 106a66.389 66.389 0 0 0 4 2c1.4 2.799 1.253 4.905 1 8l-3 3c-.907 3.514-.907 3.514-1 7l2 2c.373 3.427.368 5.365-1.375 8.375L36 138h-2v2l3 1c3.019 4.68 1.75 9.78 1 15l1.934.621 2.504.816 2.496.81C47 159 47 159 48 160a320.63 320.63 0 0 1-.313 5.563c-.038 5.456.78 8.314 4.317 12.425L54 180l1.412 1.633c4.681 5.161 9.468 7.42 15.963 9.742 1.8.673 3.6 1.347 5.398 2.023l2.389.865C81 195 81 195 82 196c1.827.204 3.661.348 5.496.465l3.381.236c2.37.157 4.74.311 7.11.461l3.384.24 3.123.203C107 198 107 198 109 200c-.556 4.556-.556 4.556-2 6-3.032.128-6.03.185-9.063.188l-2.529.037C87.38 206.243 81.196 204.678 74 201c-2.736-.7-2.736-.7-5-1v2l2.063.5c4.689 2.394 8.573 6.772 10.937 11.5 1.743 19.44-1.21 34.84-10 52h-2l-.48 1.695c-1.86 6.389-3.985 12.656-6.278 18.903a179.908 179.908 0 0 0-2.172 6.273C58.88 299.243 55.773 303.394 50 307c-3.5.938-3.5.938-6 1l-.688 2.688c-1.511 3.815-3.175 5.698-6.312 8.312l-2.188.438L33 320a168.693 168.693 0 0 0-2 6l-3 1-1 3c-2.93.298-5.145.519-8 0-4.042-3.866-6.77-7.578-7.3-13.172-.005-1.18-.009-2.361-.012-3.578l-.051-3.547c.36-3.668 1.238-6.203 2.603-9.564 1.384-3.896 1.846-7.93 2.385-12.014l.378-2.739C18.158 276.613 18.687 267.838 19 259c-9.017 18.187-13.64 40.648-7.93 60.473 1.282 3.485 2.934 6.4 4.93 9.527l1 3c1.715 1.027 1.715 1.027 4 2l3.188 1.875C28.322 338.25 32.612 340.143 37 342l2.34 1.035c6.708 2.86 13.531 4.49 20.66 5.965l-.934-2.684C55.222 334.361 54.746 321.471 55 309c2.375-.625 2.375-.625 5-1 2.877 2.877 2.272 5.037 2.375 9.063.38 8.983 2.304 17.279 4.625 25.937l.719 2.941C69.705 353.495 73.705 359.558 78 366l-4 3-3-2-2-1v-2l-3-1v-3l-3.05-.629c-17.384-3.744-44.774-9.838-55.075-25.683-9.13-14.352-10.283-31.973-7.162-48.454 2.712-11.64 6.015-23.012 11.147-33.828a112.033 112.033 0 0 0 2.695-6.156c3.12-7.683 6.82-14.389 11.445-21.25a963.252 963.252 0 0 0 3.292-5.142c1.89-2.962 3.799-5.91 5.708-8.858l2.14-3.313c2.919-4.455 5.779-8.737 9.36-12.687 2.927-2.861 2.927-2.861 2.5-7h-2c-1.656-2.012-1.656-2.012-3.5-4.688l-1.844-2.636C38.746 174.973 37.742 171.54 38 166l-1.68-.734-2.195-1.016-2.18-.984c-2.398-1.56-3.099-2.535-3.945-5.266.242-2.797.242-2.797.875-5.75l.617-2.984L30 147l-6-2c-1.125-6.625-1.125-6.625 0-10l3-2-.957-1.648c-1.21-2.73-1.486-5.007-1.73-7.977l-.262-2.914C24 118 24 118 25 116l3-1 1-2-6-2c-.728-2.831-1.143-4.547-.25-7.375.35-3.683-1.272-5.109-3.473-7.938-9.518-12.574-5.138-39.478-3.215-54C17.43 32.498 20.233 20.768 27 14c2.313-.5 2.313-.5 5 0 2.077 1.84 3.383 3.69 5 6v2h2c4.767 4.302 4.767 4.302 6 8 1.833 1.125 1.833 1.125 4 2l4 2v2l1.559.293c3.344.969 6.38 2.506 9.504 4.02C75.53 46.278 75.53 46.278 88 48c1.417-.923 2.83-1.854 4.195-2.852C95.834 42.833 99.981 41.516 104 40l2.297-1.005c4.886-1.799 10.053-2.05 15.203-2.62l3.36-.406c15.7-1.79 39.488-3.507 53.011 6.402l1.566 1.379c4.168 3.34 8.876 2.872 14 2.66C203.643 45.235 210.517 40.808 218 34l2.496-2.18c5.995-5.555 10.197-11.625 14.281-18.638 1.029-1.755 2.12-3.473 3.223-5.182h2l2-4 2.813.125c3.483-.137 4.972-2.157 8.25-2.07z" fill="rgba(19, 18, 19, 1)" stroke="none"/>
  <path d="M57 194c4.72 1.543 9.417 3.078 14 5l-2 1v2l2.063.5c4.689 2.394 8.573 6.772 10.937 11.5 1.743 19.44-1.21 34.84-10 52h-2l-.48 1.695c-1.86 6.389-3.985 12.656-6.278 18.903a179.908 179.908 0 0 0-2.172 6.273C58.88 299.243 55.773 303.394 50 307c-3.5.938-3.5.938-6 1l-.688 2.688c-1.511 3.815-3.175 5.698-6.312 8.312l-2.188.438L33 320a168.693 168.693 0 0 0-2 6l-3 1-1 3c-2.93.298-5.145.519-8 0-4.042-3.866-6.77-7.578-7.3-13.172-.005-1.18-.009-2.361-.012-3.578l-.051-3.547c.36-3.664 1.238-6.178 2.603-9.534 1.415-4.04 1.844-8.25 2.385-12.481l.378-2.816c1.607-11.836 1.607-11.836 1.747-23.747.063-20.261 19.333-42.068 31-57.5l2.234-2.96c.666-.88 1.33-1.76 2.016-2.665 1-1.333 2.001-2.666 3-4z" fill="rgba(110, 110, 110, 1)" stroke="none"/>
  <path d="M208 292.313c2 .687 2 .687 4 2.687.259 2.962.259 2.962.266 6.73l.005 2.027c.002 1.418-.002 2.836-.01 4.254-.01 2.15 0 4.301.012 6.452a8042207045.294 8042207045.294 0 0 1-.015 7.928c-.27 3.782-1.153 6.993-2.258 10.609-.163 2.518-.264 5.04-.313 7.563-.43 10.345-2.88 21.15-10.687 28.437-11.03 9.338-11.03 9.338-18.602 9.3-3.82-.478-6.241-2.15-9.398-4.3v-2l-4-2v-2l-3-1c-1.387-1.559-1.387-1.559-2.688-3.438l-1.324-1.87C159 360 159 360 159 358l-3.297.984c-5.315 1.323-10.501 1.316-15.953 1.266l-3.07-.012c-7.07-.081-13.786-.578-20.68-2.238l-1.285 1.758c-3.733 4.972-7.506 9.737-12.715 13.242h-2v2c-4.205 3.391-8.726 4.133-14 4-8.725-1.69-15.946-7.955-21-15-.813-2.375-.813-2.375-1-4h2v3l5 1v2l3 2 3-3-1.75-2.063c-5.005-6.534-7.36-12.816-9.5-20.687l-.813-2.863C63 332.437 63 332.437 63 329c2.25.125 2.25.125 5 1 4 5.081 4 5.081 4 8l1.715.754c2.633 1.436 4.603 3.198 6.847 5.183 9.596 7.708 19.674 7.492 31.438 7.063l.656-1.621c1.827-3.234 4.303-5.766 6.844-8.442 2.711-2.875 5.298-5.635 7.5-8.937h2l.75-2.25c1.387-3.052 2.557-4.75 5.25-6.75 2.75.25 2.75.25 5 1 .43 3.906.33 5.543-2.012 8.781l-2.675 2.719-2.758 2.875L130 341c-3.675 4.072-3.675 4.072-6 9h2v2c3.959-.138 7.917-.287 11.875-.438l3.418-.119 3.262-.127 3.015-.11c2.438-.056 2.438-.056 4.43-1.206-2.004-6.984-2.004-6.984-4.625-13.75-2.248-5.74-2.342-12.146-2.375-18.25 1-1 1-1 3.563-1.063L151 317c2.162 3.573 3.104 6.27 3.188 10.375.525 7.815 5.287 18.1 10.812 23.625 9.773-.326 16.386-2.32 23.25-9.25L191 339h2l.313-1.75c.687-2.25.687-2.25 2.062-4.063 1.845-2.287 1.845-2.287 3.063-5.812C200 324 200 324 204 322v-29c2-1 2-1 4-.688z" fill="rgba(20, 20, 20, 1)" stroke="none"/>
  <path d="M297 191c4.898 7.416 6.75 14.103 6 23-.875 2.625-.875 2.625-2 5l-.813 3.625c-1.068 4.474-2.945 8.442-4.902 12.59-1.175 2.547-2.218 5.104-3.223 7.722C287.832 253.6 282.748 264.265 274 272h-2v2a100.184 100.184 0 0 1-5.875 3.5c-4.351 2.368-4.351 2.368-8.125 5.5-2.625.125-2.625.125-5 0a287.97 287.97 0 0 1-.688-5.688c-.19-1.583-.19-1.583-.386-3.199.087-3.66 1.087-5.099 3.074-8.113 1.284-3.933 2.126-7.958 3-12l.598-2.605c1.2-6.018 1.522-11.921 1.69-18.038.392-14.218 1.095-29.829 11.189-40.99 7.015-6.296 18.07-7.41 25.523-1.367z" fill="rgba(102, 102, 102, 1)" stroke="none"/>
  <path d="M19 257h1c.163 7.101-.454 13.9-1.375 20.938l-.383 3.091c-1.936 15.169-1.936 15.169-4.34 22.166-1.945 6.046-2.241 13.534.184 19.457 1.457 2.33 2.972 4.406 4.914 6.348 2.927.288 5.153.5 8 0 2.35-2.226 3.618-4.1 4.875-7.063 1.72-2.96 4.216-4.24 7.125-5.937h2l.938-2.875C43 310 43 310 44 308c1.666-.7 3.334-1.397 5.012-2.07 3.317-1.551 6.072-3.728 8.988-5.93l-.938 1.813C55.898 304.09 55.898 304.09 55 307l1 2a73.59 73.59 0 0 1 0 4.313c-.086 9.944.634 20.001 3 29.687l1 1c.04 1.666.043 3.334 0 5-5.3.357-9.25-.864-14.125-2.688l-2.261-.828A778.27 778.27 0 0 1 37 343c-1.154-.43-2.307-.859-3.496-1.3-9.01-3.524-16.815-7.928-21.504-16.7-6.133-14.679-4.913-29.765-1.313-44.875l.739-3.13c1.79-7.059 4.353-13.47 7.574-19.995z" fill="rgba(244, 244, 244, 1)" stroke="none"/>
  <path d="M297 191c4.898 7.416 6.75 14.103 6 23-.875 2.625-.875 2.625-2 5-.33 1.329-.642 2.663-.938 4-.824 3.426-1.92 6.144-4.062 9h-2l-1-5-10-2-1-3-2.875.5c-11.759 1.683-11.759 1.683-16.125-.5-.412-10.962.862-21.15 8.484-29.656 7.05-6.25 18.05-7.397 25.516-1.344z" fill="rgba(101, 101, 101, 1)" stroke="none"/>
  <path d="M129 119l3.313.875C135 122 135 122 135.563 124.609c.165 1.994.276 3.993.332 5.993-.168 2.35-.168 2.35 1.105 3.398.496 2.477.9 4.964 1.305 7.457.768 2.81 1.72 4.416 3.695 6.543 2.5.667 2.5.667 5 0 2.01-1.596 2.01-1.596 3-4-.257-3.506-1.019-5.028-3-8-.188-2.625-.188-2.625 0-5 1-1 1-1 3.313-1.438C153 130 153 130 155.25 132.438c2.416 4.92 3.768 9.445 2.016 14.813-1.631 3.412-3.322 6.316-6.266 8.75-4.992 1.047-8.453 1.633-13-1-2.085-1.592-4.031-3.26-6-5l-1.563 2.313c-3.717 4.098-7.995 5.763-13.437 6.375-3.664-.165-5.432-1.5-8-4.063-3.184-4.083-3.755-7.258-3.371-12.355.647-3.958 1.532-6.431 4.371-9.27h3l.41-2.012c1.125-4.616 2.051-8.176 5.903-11.175 3.532-2.1 5.733-2.159 9.687-.813z" fill="rgba(16, 16, 16, 1)" stroke="none"/>
  <path d="M35 47l3.688-.375 2.074-.21c3.01.787 3.947 2.615 5.78 5.003 2.598 2.82 5.948 4.151 9.395 5.707 13.377 6.22 13.377 6.22 15.126 10.438C71 70 71 70 69.686 71.813 68 73 68 73 66 73v2c-5.076 5.242-11.2 9.596-17 14l-2.063 1.691C44.26 92.501 42.156 92.215 39 92c-1.93-5.352-3.266-10.338-4-16l-1.012-3.137c-1.144-4.472-1.283-8.463-1.238-13.05l-.023-2.405C32.75 50.312 32.75 50.312 35 47z" fill="rgba(202, 202, 202, 1)" stroke="none"/>
  <path d="M231 233l.763 2.228a9166.73 9166.73 0 0 0 3.487 10.147c.396 1.156.791 2.313 1.2 3.504 2.338 6.786 4.802 13.49 7.55 20.121-3.933 2.17-6.927 2.268-11.438 2.25l-3.933.016c-3.445-.253-5.632-.596-8.629-2.266l-1.348-2.086c-1.614-2.287-1.614-2.287-5.086-2.453a142.713 142.713 0 0 0-4.004-.086c-8.675-.22-8.675-.22-11.562-2.375-1.077-3.807-1.428-6.03.188-9.688 3.221-4.11 6.024-6.672 10.875-8.687C215.064 241.023 224.775 233 231 233z" fill="rgba(111, 111, 111, 1)" stroke="none"/>
  <path d="M220 197c.315 1.244.63 2.488.953 3.77.431 1.68.863 3.362 1.297 5.042l.678 2.63c1.477 5.608 3.19 10.99 5.47 16.331.774 2.863.684 4.46-.398 7.227-2.223 1.293-2.223 1.293-5.063 2.188l-3.042.964L217 236l-2.05.691c-6.349 1.944-14.882 3.142-21.048.364-3.153-2.464-5.107-5.17-5.902-9.055-.321-3.276-.158-5.9 1-9 5.622-6.401 14.988-11.33 23-14l1-3h2l-1-3c3-2 3-2 6-2z" fill="rgba(111, 111, 111, 1)" stroke="none"/>
  <path d="M249 6l1.875 1c2.035 1.142 2.035 1.142 4.125 1v4l3 1a85.34 85.34 0 0 1 2.063 8.375l.486 2.309c.332 1.596.651 3.196.96 4.797.328 1.682.677 3.36 1.046 5.034 1.517 7.288 1.785 14.411 1.76 21.845-.002 2.006.021 4.01.046 6.015.006 11.661-2.127 22.24-6.236 33.125-.23.663-.461 1.325-.7 2.008-1.683 4.52-3.83 7.313-7.425 10.492-1.233 1.008-1.233 1.008-1.098 3.066l.036 2.496.027 2.504L249 117h3l1 5-6 2-.25-1.813c-.963-2.81-2.384-3.466-4.75-5.187-2.734-4.415-2.684-8.96-2-14 1.875-3.125 1.875-3.125 4-5h2l2-6h2l.367-1.977c.926-4.827 2.078-9.357 3.633-14.023 4.007-22.648-1.122-45.176-7-67l2-1V6z" fill="rgba(19, 17, 18, 1)" stroke="none"/>
  <path d="M56 308c4.706.706 4.706.706 6 2 .096 1.637.185 3.275.24 4.914.34 9.742 2.243 18.697 4.76 28.086l.719 2.941C69.705 353.495 73.705 359.558 78 366l-4 3-3-2-2-1v-2l-3-1v-3l-3.05-.629C21.447 350.433 21.447 350.433 13 339c.313-3.188.313-3.188 1-6l-2-1 3-4 .75 1.875c1.531 2.603 2.501 2.936 5.25 4.125l3.188 1.875C28.322 338.25 32.612 340.143 37 342l2.34 1.035c6.708 2.86 13.531 4.49 20.66 5.965l-.934-2.684C55.322 334.671 54.114 321.191 55 309l1-1z" fill="rgba(18, 17, 17, 1)" stroke="none"/>
  <path d="M239 45c2.427 3.742 2.346 7.498 2.313 11.813l-.015 2.263C241.084 69.46 240.21 80.01 233 88c-4.385-.501-6.8-1.983-10-5v-2l-1.75-.313c-2.607-.796-4.224-1.878-6.25-3.687v-2l-1.75-.75c-2.649-1.472-4.354-2.88-6.25-5.25-.25-2.75-.25-2.75 0-5h2v-2c1.58-.675 3.164-1.34 4.75-2l2.672-1.125C219 58 219 58 223 58v-2l2.75-1.75c3.483-2.411 5.037-4.693 7.25-8.25 2-1 2-1 6-1z" fill="rgba(201, 201, 201, 1)" stroke="none"/>
  <path d="M63 329c2.25.125 2.25.125 5 1 4 5.081 4 5.081 4 8l1.715.754c2.633 1.436 4.603 3.198 6.847 5.183 9.303 7.483 18.864 7.52 30.438 7.063l-2 3h-2l-.8 1.75c-3.436 6.446-8.54 11.344-15.2 14.25-4.181.8-6.558-.104-10.125-2.188-9.024-6.124-12.381-15.469-15.125-25.562l-.813-2.863C63 332.437 63 332.437 63 329z" fill="rgba(104, 104, 104, 1)" stroke="none"/>
  <path d="M202 322h1c.027 1.937.046 3.875.063 5.813l.035 3.269C203 334 203 334 202 337a165.577 165.577 0 0 0-.563 5.688l-.253 3.011L201 348h-2l-.188 3.563c-.92 6.976-5.035 10.998-10.187 15.5-3.43 2.556-4.07 2.99-8.5 2.562-4.51-2.345-4.51-2.345-6.125-4.625v-2l-3-1c-1.605-1.777-1.605-1.777-3.188-3.938l-1.605-2.152C165 354 165 354 165 352c3.202-1.55 5.934-2.132 9.438-2.375 6.102-.596 9.627-3.61 13.812-7.875L191 339h2l.313-1.75c.687-2.25.687-2.25 2.062-4.063 2.113-2.844 3.24-5.936 4.625-9.187l2-2z" fill="rgba(104, 105, 105, 1)" stroke="none"/>
  <path d="M244 271c3.426 10.28 2.366 22.414 1 33l-1-4-1.75.492c-2.17.49-4.035.637-6.254.64l-2.244.005-2.315-.012-2.326.012c-3.29-.006-5.969-.09-9.111-1.137l.07-2.266.055-2.984.07-2.953c-.2-2.856-.835-4.332-2.195-6.797-.125-2.75-.125-2.75 0-5h2l.75-1.875c1.545-2.627 2.429-3.012 5.25-4.125 2.365-.418 4.742-.766 7.125-1.063 3.607-.453 7.397-1.937 10.875-1.937z" fill="rgba(113, 114, 114, 1)" stroke="none"/>
  <path d="M208 292.313c2 .687 2 .687 4 2.687.259 2.962.259 2.962.266 6.73l.005 2.027c.002 1.418-.002 2.836-.01 4.254-.01 2.15 0 4.301.012 6.452a8042207045.294 8042207045.294 0 0 1-.015 7.928c-.27 3.782-1.153 6.993-2.258 10.609-.163 2.518-.264 5.04-.313 7.563-.384 9.222-2.42 18.61-8.125 26.125-3.808 3.437-6.766 5.212-11.937 5.5L187 372c0-4.24 2.033-5.033 5-8 3.837-5.08 5.777-9.773 7-16h2l-.035-2.3-.028-3.012-.035-2.989C201 337 201 337 202 334c1.124-9.029 1.284-18.165 1.563-27.25l.13-4.027c.105-3.241.207-6.482.307-9.723 2-1 2-1 4-.688z" fill="rgba(11, 10, 11, 1)" stroke="none"/>
  <path d="M299 225h2v2h2c3.087 10.693-3.814 24.04-8.844 33.352C290.391 266.94 285.592 272.87 280 278h-2v2c-5.278 4.255-11.754 8.346-18 11l-2-1 1-4-6-2v-1l2.438-.625c3.953-1.526 6.988-3.577 10.414-6.035 2.093-1.306 3.738-1.898 6.148-2.34v-2l3-2.313c11.157-9.26 16.372-25.425 20.887-38.718C297 228 297 228 299 225z" fill="rgba(26, 24, 25, 1)" stroke="none"/>
  <path d="M68 98c2.313.125 2.313.125 5 1l1.688 2.5c3.173 3.43 5.748 3.216 10.265 3.457L87 105v-2c5.288-1.763 10.343-1.523 15.563.125 5.158 2.814 9.615 5.361 11.5 11.125C114 117 114 117 112 119c-2.313 0-2.313 0-5-1l-2.25-2.938c-2.617-3.35-5.119-4.51-9.293-5.203-4.932.283-8.571 3.318-12.457 6.141-8.127 5.846-8.127 5.846-12.188 6.563-4.337-.868-7.678-2.429-10.812-5.563-.125-2.625-.125-2.625 0-5 2.333-.042 4.667-.04 7 0l1 1c2 .04 4 .043 6 0l1-2-1.813-.25c-2.816-.966-3.665-2.239-5.187-4.75v-2h-2c.875-4.875.875-4.875 2-6z" fill="rgba(12, 12, 12, 1)" stroke="none"/>
  <path d="M199 100h6c.438 2.625.438 2.625 0 6-2.05 2.39-4.346 4.307-7 6h-2v2c1.918-.03 1.918-.03 3.875-.063 3.875-.062 3.875-.062 6.125 1.063.043 2 .04 4 0 6-1.753 1.753-4.05 1.337-6.438 1.438-6.973-.025-10.996-2.546-16.562-6.438-3.944-2.286-7.517-2.43-12-2-3.256.888-4.68 1.66-7 4.125-2 1.875-2 1.875-4.688 2.188C157 120 157 120 156 119c-.5-2.188-.5-2.188 0-5 3.88-4.36 9.162-8.694 15.043-9.328l3.144.078 3.168.047C180 105 180 105 182 106c1.456.096 2.916.13 4.375.125l2.336.008c2.222-.13 4.155-.52 6.289-1.133v-2h3l1-3z" fill="rgba(18, 18, 18, 1)" stroke="none"/>
  <path d="M244 309c-3.142 5.353-6.441 10.722-11 15h-2v2c-4.642 4.538-9.858 6.964-15.996 8.848-2.289 1.01-2.289 1.01-2.79 3.773L212 341l5 2v1c-1.666.043-3.334.04-5 0l-1-1-2 3a590.393 590.393 0 0 1-.125-6.25l-.07-3.516c.353-5.854 3.034-8.28 7.195-12.234 2.826-2.826 2.747-5.633 3.34-9.492.742-2.82 1.68-4.38 3.66-6.508 6.59-2.196 14.658-1.819 21 1z" fill="rgba(112, 112, 112, 1)" stroke="none"/>
  <path d="M157 37l-2 7-2.548.06c-3.185.08-6.37.166-9.555.257-1.366.038-2.733.073-4.099.105-12.015.283-23.629.875-34.798 5.578a491.572 491.572 0 0 1-6 2l.063-2.375c.124-2.606.124-2.606-1.063-4.625 5.953-7.194 15.414-7.806 24.125-8.813l3.42-.401C135.557 34.66 146.07 35.478 157 37z" fill="rgba(12, 11, 12, 1)" stroke="none"/>
  <path d="M129 119c2.03.94 4.039 1.926 6 3v10l-6 1-.262 2.195c-.923 6.35-1.671 10.639-6.738 14.805-3.813.375-3.813.375-7 0-1.068-5.577-.826-10.394 0-16h-5l3-1c.77-2.173.77-2.173 1.25-4.75 1.284-4.687 2.73-7.051 6.922-9.543 2.977-1.151 4.849-.721 7.828.293z" fill="rgba(112, 112, 112, 1)" stroke="none"/>
  <path d="M265.09 254.867C267 255 267 255 269 256a78.037 78.037 0 0 1 2 5l7 1c.813 2.188.813 2.188 1 5-2.313 2.813-2.313 2.813-5 5h-2v2a100.184 100.184 0 0 1-5.875 3.5c-4.351 2.368-4.351 2.368-8.125 5.5-2.625.125-2.625.125-5 0a287.97 287.97 0 0 1-.688-5.688c-.19-1.583-.19-1.583-.386-3.199.087-3.658 1.073-5.11 3.074-8.113a81.765 81.765 0 0 0 1.625-5.25c1.625-5.906 2.143-5.86 8.465-5.883z" fill="rgba(100, 100, 100, 1)" stroke="none"/>
  <path d="M260 242l1 2 2.688-.563c3.312-.437 3.312-.437 5.664.04 3.765.744 7.401.492 11.222.363C283 244 283 244 285 246v4h-2c.342 2.97.342 2.97 1 6l2 1-6 9-2-3a202.076 202.076 0 0 0-7-1l-2-2v-4h-11l2-14z" fill="rgba(102, 102, 102, 1)" stroke="none"/>
  <path d="M267 211h8v3l3.25-.938L282 212l2.125-.75c2.842-.379 4.436.3 6.875 1.75.813 2.625.813 2.625 1 5l7 2c.292 4.958.13 8.028-3 12h-2l-1-5-10-2-1-3-2.875.5c-11.759 1.683-11.759 1.683-16.125-.5v-9h4v-2z" fill="rgba(137, 137, 137, 1)" stroke="none"/>
  <path d="M294 180c4.262.492 7.124 3.013 10 6 7.114 9.12 8.396 19.682 7 31-1.617 7.704-4.342 15.037-8 22-1.532-4.084-.63-7.795 0-12h-2c-1.395-2.79-1.182-4.903-1-8l1-2.25c2.966-8.158.444-15.211-3-22.75l-1-3h3v-4-3h-2l-1 2-.375-2.438L296 181l-2-1z" fill="rgba(29, 27, 27, 1)" stroke="none"/>
  <path d="M297 191c4.575 6.361 5.126 11.44 5 19l-3-1c-.688-2.063-.688-2.063-1-4h-2v-2h-4v-3l-3.688.625c-6.244.728-12.18-.478-18.312-1.625-.14-4.797-.14-4.797 1.125-6.625 7.722-5.663 17.914-7.83 25.875-1.375z" fill="rgba(134, 134, 134, 1)" stroke="none"/>
  <path d="M19 257h1c.163 7.101-.454 13.9-1.375 20.938l-.383 3.091c-1.936 15.169-1.936 15.169-4.34 22.166-1.937 6.022-2.261 13.529.184 19.422A53.765 53.765 0 0 0 18 328l1 2-2 2c-8.89-11.294-10.446-24.93-9-39 .727-4.335 1.669-8.6 2.688-12.875l.738-3.13c1.79-7.059 4.353-13.47 7.574-19.995z" fill="rgba(239, 239, 239, 1)" stroke="none"/>
  <path d="M164 354c3.667 1.222 4.433 2.994 6.547 6.082 2.982 3.937 6.54 6.961 10.953 9.168 4.153-.415 6.628-3.395 9.5-6.25l2 1c-2.625 3.875-2.625 3.875-6 5l1 2h7c-7.093 7.285-7.093 7.285-12.25 7.375-4.913-.08-7.734-1.64-11.75-4.375v-2l-4-2v-2l-3-1c-1.387-1.848-1.387-1.848-2.688-4.063l-1.324-2.222L159 359l2-3h3v-2z" fill="rgba(35, 33, 33, 1)" stroke="none"/>
  <path d="M275 235v2l13-1 1 5h2c.783 6.106-1.892 10.005-5 15h-2l-1-6h2l-2-5-3.105.035-4.082.028-2.042.025c-3.734.018-7.136-.244-10.771-1.088h-2c-.098-6.152-.098-6.152 0-8 3.05-3.05 10.21-2.066 14-1z" fill="rgba(136, 136, 136, 1)" stroke="none"/>
  <path d="M294 180c2.438 2 2.438 2 4 4h2l2 5h-2v2c-2.739-.483-5.112-1.047-7.688-2.125-5.136-1.357-10.545-1.267-15.37 1.16-.6.38-1.2.76-1.817 1.153L272 193c-2.438-.75-2.438-.75-4-2 .875-5.875.875-5.875 2-7h5l3-1v-2c5.251-.894 10.689-1.793 16-1z" fill="rgba(7, 6, 6, 1)" stroke="none"/>
  <path d="M265.09 254.867C267 255 267 255 269 256a78.037 78.037 0 0 1 2 5l7 1c.813 2.188.813 2.188 1 5-2.438 2.813-2.438 2.813-5 5l-8-4v-2l-1.938-.813C262 264 262 264 261 261h-3a99.984 99.984 0 0 1 0-5c1.899-1.899 4.572-1.124 7.09-1.133z" fill="rgba(135, 136, 136, 1)" stroke="none"/>
  <path d="M299 225h2v2h2c1.52 4.847.369 8.583-.938 13.313l-.591 2.244c-.48 1.817-.975 3.63-1.471 5.443h-3l-1 3-3-1-1-2-3 2c1.558-4.772 3.249-9.484 5-14.188.26-.71.52-1.421.79-2.154 1.176-3.158 2.332-5.84 4.21-8.658z" fill="rgba(16, 15, 15, 1)" stroke="none"/>
  <path d="M136 35c13.652-.458 27.219.911 40 6l2 2-2.875-.188L172 43c-2.185 2.676-2.185 2.676-2 5l-2.875-.938c-4.634-1.341-9.33-1.695-14.125-2.062l2-2 1-5-20-2v-1z" fill="rgba(42, 41, 42, 1)" stroke="none"/>
  <path d="M249 108h2c3.64 13.832 3.64 13.832 1.563 17.625L251 128c-.252 2.71-.252 2.71 0 5h-4l-1 2-3-2-1 2c-2.098-2.266-3.016-3.352-2.938-6.5 1.107-2.952 2.697-4.33 4.938-6.5v-3l3 1 1 3 5-1-1-5h-3v-9z" fill="rgba(25, 24, 25, 1)" stroke="none"/>
  <path d="M292 247l1 3h3l1-2h2c-1.406 6.466-4.454 11.458-8 17l-3-2v-2h-4c.968-4.838 2.438-9.617 6.188-12.938L292 247z" fill="rgba(37, 36, 36, 1)" stroke="none"/>
  <path d="M208 292.313c2 .687 2 .687 4 2.687.227 3.073.227 3.073.195 6.977l-.008 2.076c-.011 2.19-.037 4.381-.062 6.572-.01 1.484-.02 2.969-.027 4.453-.022 3.64-.057 7.281-.098 10.922h-1l-1-29-4 1-1 24h-1v-29c2-1 2-1 4-.688z" fill="rgba(61, 61, 61, 1)" stroke="none"/>
  <path d="M109 109c1.938.625 1.938.625 4 2 .875 3 .875 3 1 6l-2 2c-2.313 0-2.313 0-5-1a112.195 112.195 0 0 1-5-6l-3-2c6.75-.125 6.75-.125 9 1l1-2z" fill="rgba(29, 29, 29, 1)" stroke="none"/>
  <path d="M16 43h1c1.128 10.99.846 21.697.254 32.715-.236 4.437-.301 8.842-.254 13.285h-1c-.734-4.602-1.128-9.018-1.133-13.676l-.004-3.76.012-3.876-.012-3.842C14.871 56.834 15.108 49.958 16 43z" fill="rgba(84, 77, 78, 1)" stroke="none"/>
  <path d="M10 318l2 4 1.125 1.938c1.065 2.51 1.01 4.353.875 7.062v4l-1 3h-2c-1.29-1.75-1.29-1.75-2.625-4l-1.352-2.25L6 330l4-2-1-3c.278-2.34.605-4.676 1-7z" fill="rgba(29, 26, 27, 1)" stroke="none"/>
  <path d="M15 294c1.106 3.356 1.05 3.883-.438 7.375-2.614 6.494-3.196 14.713-.472 21.234A52.479 52.479 0 0 0 18 328l1 2-2 2c-4.474-5.683-8-11.568-8-19h2l-.25-3.313c-.04-5.649 2.128-10.533 4.25-15.687z" fill="rgba(181, 181, 181, 1)" stroke="none"/>
  <path d="M40 171c2.25-.313 2.25-.313 5 0 2.642 2.718 4.464 5.544 6 9l-5 2v-2l-1.875-.75c-2.52-1.483-3.137-2.534-4.125-5.25v-3z" fill="rgba(3, 2, 3, 1)" stroke="none"/>
  <path d="M115 141l3 1v2l8 1c-1.563 2.5-1.563 2.5-4 5-3.75.313-3.75.313-7 0-1.125-6.75-1.125-6.75 0-9z" fill="rgba(232, 232, 232, 1)" stroke="none"/>
  <path d="M253.063 2.063C255 3 255 3 256.25 5.313 257 8 257 8 257 12h-2l-3-3c-3.133-1.044-3.99-.934-7 0V6l-4-1 1-1 2.875.063c3.494-.07 4.902-2.1 8.188-2z" fill="rgba(63, 58, 61, 1)" stroke="none"/>
  <path d="M253 272l6 2c.098 6.152.098 6.152 0 8-1 1-1 1-3.563 1.063L253 283c-.194-1.645-.38-3.291-.563-4.938l-.316-2.777L252 273l1-1z" fill="rgba(130, 130, 130, 1)" stroke="none"/>
  <path d="M57 194c1.649.617 3.294 1.243 4.938 1.875l2.777 1.055C67 198 67 198 68 200l-15 1c2-4 2-4 4-7z" fill="rgba(242, 242, 242, 1)" stroke="none"/>
  <path d="M294 179v1l-16 1v2h-2l-1 2h-8c7.986-6.987 17.077-6.349 27-6z" fill="rgba(156, 154, 155, 1)" stroke="none"/>
  <path d="M230 231c-1.466 3.943-3.373 5.018-7.125 6.75l-2.758 1.297L218 240v-2h2v-2l-3-1c1.79-.67 3.582-1.336 5.375-2l3.023-1.125C228 231 228 231 230 231z" fill="rgba(226, 226, 226, 1)" stroke="none"/>
  <path d="M210 329c2 2 2 2 2.195 4.383l-.07 2.742-.055 2.758L212 341l5 2v1c-1.666.043-3.334.04-5 0l-1-1-2 3a1180.21 1180.21 0 0 1-.063-6.25l-.035-3.516c.08-2.644.312-4.732 1.098-7.234z" fill="rgba(154, 151, 151, 1)" stroke="none"/>
  <path d="M299 196c3.133 3.133 3.055 5.973 3.063 10.25L302 210l-3-1c-.688-2.063-.688-2.063-1-4h-2v-2l2-1c.658-3.03.658-3.03 1-6z" fill="rgba(127, 127, 127, 1)" stroke="none"/>
  <path d="M150.563 129.938L153 130c1.063 1.875 1.063 1.875 2 4l-1 2c-3 .688-3 .688-6 1-1-1-1-1-1.125-3.5.17-3.406.269-3.48 3.688-3.563z" fill="rgba(23, 23, 23, 1)" stroke="none"/>
  <path d="M31 131v4h-2v2l-2.063 1.875L25 141c.136 2.219.136 2.219 1 4h-2c-1.125-6.625-1.125-6.625 0-10 3.429-4 3.429-4 7-4z" fill="rgba(90, 85, 89, 1)" stroke="none"/>
  <path d="M30 27c3 1 3 1 4.188 3.063L35 32c-1.375 1.5-1.375 1.5-3 3h-2l-1-2-2 3c.498-3.735.875-5.812 3-9z" fill="rgba(97, 96, 96, 1)" stroke="none"/>
  <path d="M256 93c1 3 1 3-.188 6.438-1.656 3.255-3.077 5.205-5.812 7.562l-2-1 1-5h3l1.438-3.438C255 94 255 94 256 93z" fill="rgba(93, 88, 92, 1)" stroke="none"/>
  <path d="M69 200c4.557.438 7.577.85 11 4h-2l-1 3a396.053 396.053 0 0 1-4-2.375c-.743-.44-1.485-.882-2.25-1.336L69 202v-2z" fill="rgba(230, 230, 230, 1)" stroke="none"/>
  <path d="M28 115l1 2h-3l2 14c-3-2-3-2-3.547-4.531l-.203-2.969-.234-2.969C24 118 24 118 25 116l3-1z" fill="rgba(102, 96, 102, 1)" stroke="none"/>
  <path d="M249 108h2c1.309 4.973 2.589 9.858 3 15l-2 2v-8h-3v-9z" fill="rgba(99, 95, 98, 1)" stroke="none"/>
  <path d="M29.688 13.75L32 14l2 4a49165916853586400 49165916853586400 0 0 0-8.313 1.375C25 22 25 22 22 24c2.897-9.804 2.897-9.804 7.688-10.25z" fill="rgba(110, 105, 106, 1)" stroke="none"/>
  <path d="M49 191c1 3 1 3 .063 5.188L48 198h-3v3l-4 2c1.51-4.98 4.557-8.243 8-12z" fill="rgba(101, 94, 99, 1)" stroke="none"/>
  <path d="M38 144l2 1c.642 2.566 1.022 5.138 1.438 7.75L42 155l2 1v2l-6-2v-12z" fill="rgba(204, 204, 204, 1)" stroke="none"/>
  <path d="M137.25 323.25l1.75.75c-1.375 1.5-1.375 1.5-3 3h-2l-1 3c-1.563 1.688-1.563 1.688-3 3l-3-1h2l.75-2.25c1.605-3.532 3.223-6.975 7.5-6.5z" fill="rgba(54, 54, 54, 1)" stroke="none"/>
  <path d="M19 257h1v9l-5 2c.477-1.459.957-2.917 1.438-4.375l.808-2.46C18 259 18 259 19 257z" fill="rgba(201, 201, 201, 1)" stroke="none"/>
  <path d="M294 180c4.398.507 6.87 3.083 10 6v2l-4-1v-3h-2l-1 2-.375-2.438L296 181l-2-1z" fill="rgba(105, 102, 103, 1)" stroke="none"/>
  <path d="M240 6l1 2 2 1c-2.47 2.6-5.18 4.79-8 7 0-3.599.958-5.095 3-8h2V6z" fill="rgba(76, 73, 73, 1)" stroke="none"/>
  <path d="M25 226c1.231 2.463 1.072 4.28 1 7l-4-1-.438 1.813c-.45 1.749-.99 3.474-1.562 5.187h-2c1.586-4.362 3.675-9.675 7-13z" fill="rgba(117, 114, 116, 1)" stroke="none"/>
  <path d="M39 172c1.506 1.964 2.891 3.783 4 6 2.017 1.134 2.017 1.134 4 2v5c-3.273-3.097-5.975-5.95-8-10v-3z" fill="rgba(78, 75, 78, 1)" stroke="none"/>
  <path d="M113 39c-8.526 3.751-8.526 3.751-13 5l-2-1c1.27-.648 2.54-1.294 3.813-1.938l2.144-1.09c3.496-1.664 5.37-2.112 9.043-.972z" fill="rgba(136, 133, 134, 1)" stroke="none"/>
  <path d="M29 115l.438 1.875c.494 2.158.494 2.158 1.562 4.125l-2 2-3-1v-5h3v-2z" fill="rgba(9, 4, 9, 1)" stroke="none"/>
  <path d="M96.313 44.313L98 45c-3 2-3 2-7 2v2c-2.709 1.354-5.01 1.065-8 1v-1l2.688-.813c3.308-1.045 3.308-1.045 5.937-2.874C94 44 94 44 96.313 44.313z" fill="rgba(95, 90, 92, 1)" stroke="none"/>
  <path d="M21 25c1.117 1.703 1.117 1.703 2 4-.68 2.36-.68 2.36-1.875 4.75l-1.18 2.422L19 38h-1c.115-1.418.243-2.834.375-4.25.07-.789.14-1.578.21-2.39.43-2.446 1.201-4.208 2.415-6.36z" fill="rgba(129, 121, 122, 1)" stroke="none"/>
  <path d="M47 344c4.058.15 6.3.408 9.438 3.063L58 349c-4.485-.656-8.67-1.7-13-3l2-2z" fill="rgba(196, 197, 196, 1)" stroke="none"/>
  <path d="M289 250l-3 6h-2l-1-6c3.75-1.125 3.75-1.125 6 0z" fill="rgba(130, 130, 130, 1)" stroke="none"/>
  <path d="M278 181v2h-2l-1 2h-8c3.794-3.009 6.03-4 11-4z" fill="rgba(115, 112, 114, 1)" stroke="none"/>
  <path d="M66 111h9l-1 3c-2.875.188-2.875.188-6 0l-2-3z" fill="rgba(212, 212, 212, 1)" stroke="none"/>
  <path d="M64 360h2v3l5 1-1 5c-5.571-5.143-5.571-5.143-6-9z" fill="rgba(90, 88, 88, 1)" stroke="none"/>
  <path d="M11 253l2 4-1.375 1.688C9.963 261.053 8.979 263.29 8 266c-1.236-3.708-.568-4.675.938-8.188l1.152-2.73L11 253z" fill="rgba(136, 129, 131, 1)" stroke="none"/>
  <path d="M16 242l2 3c-1.443 3.366-3.333 5.51-6 8 .477-1.459.957-2.917 1.438-4.375l.808-2.46C15 244 15 244 16 242z" fill="rgba(89, 86, 87, 1)" stroke="none"/>
  <path d="M198 364h4c-1.453 3.83-3.429 5.12-7 7 .613-2.962 1.254-4.38 3-7z" fill="rgba(59, 57, 58, 1)" stroke="none"/>
  <path d="M14 328l3 2v2l2 1-4 2-3-3 2-4z" fill="rgba(24, 22, 23, 1)" stroke="none"/>
  <path d="M241 269h3v2c-4.948 2.804-9.617 1.774-15 1v-1l2.371-.184 3.066-.253 3.06-.247c2.44-.048 2.44-.048 3.503-1.316z" fill="rgba(186, 186, 186, 1)" stroke="none"/>
  <path d="M203 107l3 2c-3.334 2.191-6.042 3.435-10 4 4.75-4.875 4.75-4.875 7-6z" fill="rgba(215, 215, 215, 1)" stroke="none"/>
  <path d="M151 344h2v3l3 1-2 4-4-1 2-1-1-6z" fill="rgba(74, 74, 74, 1)" stroke="none"/>
  <path d="M305 227h2c-1.128 4.109-2.335 8.076-4 12-1.124-3.304-.896-5.05.438-8.25l.87-2.14L305 227z" fill="rgba(105, 100, 101, 1)" stroke="none"/>
  <path d="M266 186h3l-1 4 2 1-3 1-2-2-2 1c1.875-3.875 1.875-3.875 3-5z" fill="rgba(55, 51, 52, 1)" stroke="none"/>
  <path d="M23 109l5 2 1-2 2 6h-2v-2l-6-2v-2z" fill="rgba(62, 59, 59, 1)" stroke="none"/>
  <path d="M226 28l3 3-3 3-3-1c1.875-3.875 1.875-3.875 3-5z" fill="rgba(11, 7, 9, 1)" stroke="none"/>
  <path d="M245.563 3.938L249 4v4l-4 1V6l-4-1c1-1 1-1 4.563-1.063z" fill="rgba(94, 90, 94, 1)" stroke="none"/>
  <path d="M14 333l-1 5h-2c-1.625-2.5-1.625-2.5-3-5 3-1 3-1 6 0z" fill="rgba(80, 72, 75, 1)" stroke="none"/>
  <path d="M248 142l3 3c-.188 3.625-.188 3.625-1 7l-2 1v-11z" fill="rgba(140, 138, 140, 1)" stroke="none"/>
  <path d="M261 77h1c-.114 1.46-.242 2.917-.375 4.375-.07.812-.14 1.624-.21 2.46C261 86 261 86 259 88c-1.15-3.553-1.087-4.8.438-8.313L261 77z" fill="rgba(121, 118, 119, 1)" stroke="none"/>
  <path d="M243 5l3 1 1 6-3-2V8h-3V6l2-1z" fill="rgba(10, 8, 10, 1)" stroke="none"/>
  <path d="M262 191c.688 1.688.688 1.688 1 4-1.313 2.75-1.313 2.75-3 5h-2c1.059-3.403 2.009-6.014 4-9z" fill="rgba(115, 111, 113, 1)" stroke="none"/>
  <path d="M110 353l-3 1c-1.209 2-1.209 2-2 4l-2-3c1-2 1-2 2.938-2.688C108 352 108 352 110 353z" fill="rgba(92, 93, 93, 1)" stroke="none"/>
  <path d="M55 297l3 1-2 4h-3v-3h2v-2z" fill="rgba(123, 123, 123, 1)" stroke="none"/>
  <path d="M55 197l1 2h7v1l-10 1 2-4z" fill="rgba(198, 198, 198, 1)" stroke="none"/>
  <path d="M61 197c2.375-.188 2.375-.188 5 0l2 3-8-1 1-2z" fill="rgba(230, 230, 230, 1)" stroke="none"/>
  <path d="M226 167h1v12l-3 1 2-13z" fill="rgba(52, 52, 52, 1)" stroke="none"/>
</svg>
</g></svg></g></g>
<!-- /image 13940 -->
</defs><rect x="0" y="0" width="250" height="250" fill="rgba(90, 90, 90, 1)"></rect><use xlink:href="#transformed-13940" transform="translate(-250, -250)"></use><use xlink:href="#transformed-13940" transform="translate(0, -250)"></use><use xlink:href="#transformed-13940" transform="translate(250, -250)"></use><use xlink:href="#transformed-13940" transform="translate(-250, 0)"></use><use xlink:href="#transformed-13940" transform="translate(0, 0)"></use><use xlink:href="#transformed-13940" transform="translate(250, 0)"></use><use xlink:href="#transformed-13940" transform="translate(-250, 250)"></use><use xlink:href="#transformed-13940" transform="translate(0, 250)"></use><use xlink:href="#transformed-13940" transform="translate(250, 250)"></use></svg>