<svg version="1.1"
      xmlns="http://www.w3.org/2000/svg"
      xmlns:xlink="http://www.w3.org/1999/xlink"  id="snapshot-78006" width="250" height="250" viewBox="0 0 250 250"><desc>This image was made on Patterninja.com</desc><defs>
<!-- image 26247 -->
<g id="transformed-26247" data-image="26247" transform="translate(-125, -125) rotate(0, 125, 125)"><g><svg version="1.1" width="250px" height="250px" viewBox="0 0 250 250"><g id="original-26247"><svg xmlns="http://www.w3.org/2000/svg" viewBox="0 0 500 500" xmlns:xlink="http://www.w3.org/1999/xlink" version="1.1" preserveAspectRatio="xMidYMid meet">
  <path d="M337 4c5.81 3.917 9.04 10.572 10.496 17.287 3.72 20.236 4.793 40.558 4.754 61.088l-.003 2.588c-.084 32.236-.084 32.236-3.497 43.662l-.668 2.385c-1.77 6.217-3.796 12.341-5.902 18.45-1.157 3.47-2.154 6.95-3.118 10.477-3.82 13.51-8.193 26.453-17.73 37.086l-1.388 1.568a219.138 219.138 0 0 1-4.003 4.292c-5.001 8.03-.78 19.94.809 28.804l.832 4.762c1.14 6.524 2.305 13.042 3.566 19.543 2.963 15.316 4.717 30.735 6.43 46.23.354 3.17.727 6.335 1.117 9.5 3.195 26.104.716 50.592-15.789 71.993-9.13 10.69-20.057 16.247-32.906 21.285l-2.734 1.074c-8.979 2.546-18.241 3.288-27.516 3.926-6.953.51-13.847 1.08-20.75 2.063-10.954 1.437-21.964 1.696-33 1.937l-3.916.087c-16.562.332-32.78.217-49.084-3.087l-2.657-.52C128.167 408.04 117.11 404.534 106 399l-3.523-1.688c-14.03-7.063-23.247-16.717-28.637-31.492-2.135-7.645-2.515-15.09-1.395-22.941C73.672 333.587 71.297 328.156 67 320a167.232 167.232 0 0 1-1.875-4.938c-4.179-10.566-10.105-19.416-17.52-27.968-2.912-3.395-5.556-6.965-8.167-10.594l-1.303-1.781c-2.072-2.91-3.285-5.287-4.135-8.719l-3-1a101.209 101.209 0 0 1-4.75-5.938l-1.336-1.778A869.566 869.566 0 0 1 21 252l-2.07-2.77C15.163 244.053 12.3 238.97 10 233l-1.023-2.55c-8.094-21.025-10.217-44.084-1.45-65.247 4.534-9.86 9.752-19.541 19.977-24.39 5.141-1.674 10.39-1.584 15.433.437 14.504 8.304 22.123 28.471 26.482 43.603 1.387 5.125 2.59 10.297 3.777 15.471 1.109 4.831 2.328 9.566 3.804 14.301 1.957 6.603 3.12 13.284 4.313 20.062C83.775 248.68 87.237 262.307 91 276c2.13-2.13 2.615-3.34 3.625-6.125 2.642-6.81 5.983-13.24 9.293-19.743 1.794-3.536 3.562-7.084 5.332-10.632l1.89-3.781.923-1.846L124 210l-2.387-2.363C116 201.973 116 201.973 116 199h-2c-1.91-2.23-1.91-2.23-4.063-5.188l-2.16-2.917c-1.702-2.772-2.397-4.7-2.777-7.895l-3-1a79.462 79.462 0 0 1-3.938-6.438l-1.077-1.927c-2.344-4.268-4.357-8.56-6.051-13.131-1.457-3.907-3.14-7.717-4.786-11.547-9.254-23.83-8.432-51.684-9.68-76.84a280.53 280.53 0 0 0-1.24-15.847c-.824-8.21.019-15.802 1.46-23.895l.45-2.675c1.191-6.239 3.06-14.035 8.554-17.886C87.5 11 87.5 11 91 10l2.375-.688C104.703 7.965 113.88 11.113 124 16l3.488 1.684c7.434 3.634 14.757 7.462 22.012 11.441l2.209 1.198c4.496 2.495 8.59 5.275 12.645 8.438 3.332 2.508 5.207 2.209 9.306 1.813 9.547-.756 19.08-.76 28.653-.76 3.115-.001 6.23-.02 9.345-.039 28.045-.08 28.045-.08 39.412 4.737 2.698.682 4.282.35 6.93-.512 2.729-1.848 2.729-1.848 5.375-4.188l2.941-2.488c1.488-1.288 2.975-2.577 4.461-3.867C287.664 18.804 313.145-.416 337 4z" fill="rgba(76, 76, 76, 1)" stroke="none"/>
  <path d="M337 4c5.81 3.917 9.04 10.572 10.496 17.287 3.72 20.236 4.793 40.558 4.754 61.088l-.003 2.588c-.084 32.236-.084 32.236-3.497 43.662l-.668 2.385c-1.77 6.217-3.796 12.341-5.902 18.45-1.157 3.47-2.154 6.95-3.118 10.477-3.82 13.51-8.193 26.453-17.73 37.086l-1.388 1.568a219.138 219.138 0 0 1-4.003 4.292c-5.001 8.03-.78 19.94.809 28.804l.832 4.762c1.14 6.524 2.305 13.042 3.566 19.543 2.963 15.316 4.717 30.735 6.43 46.23.354 3.17.727 6.335 1.117 9.5 3.195 26.104.716 50.592-15.789 71.993-9.13 10.69-20.057 16.247-32.906 21.285l-2.734 1.074c-8.979 2.546-18.241 3.288-27.516 3.926-6.953.51-13.847 1.08-20.75 2.063-10.954 1.437-21.964 1.696-33 1.937l-3.916.087c-16.562.332-32.78.217-49.084-3.087l-2.657-.52C128.167 408.04 117.11 404.534 106 399l-3.523-1.688c-14.03-7.063-23.247-16.717-28.637-31.492-2.135-7.645-2.515-15.09-1.395-22.941C73.672 333.587 71.297 328.156 67 320a167.232 167.232 0 0 1-1.875-4.938c-4.179-10.566-10.105-19.416-17.52-27.968-2.912-3.395-5.556-6.965-8.167-10.594l-1.303-1.781c-2.072-2.91-3.285-5.287-4.135-8.719l-3-1a101.209 101.209 0 0 1-4.75-5.938l-1.336-1.778A869.566 869.566 0 0 1 21 252l-2.07-2.77C15.163 244.053 12.3 238.97 10 233l-1.023-2.55c-8.094-21.025-10.217-44.084-1.45-65.247 4.534-9.86 9.752-19.541 19.977-24.39 5.141-1.674 10.39-1.584 15.433.437 14.504 8.304 22.123 28.471 26.482 43.603 1.387 5.125 2.59 10.297 3.777 15.471 1.109 4.831 2.328 9.566 3.804 14.301 1.957 6.603 3.12 13.284 4.313 20.062C83.775 248.68 87.237 262.307 91 276c2.13-2.13 2.615-3.34 3.625-6.125 2.642-6.81 5.983-13.24 9.293-19.743 1.794-3.536 3.562-7.084 5.332-10.632l1.89-3.781.923-1.846L124 210l-2.387-2.363C116 201.973 116 201.973 116 199h-2c-1.91-2.23-1.91-2.23-4.063-5.188l-2.16-2.917c-1.702-2.772-2.397-4.7-2.777-7.895l-3-1a79.462 79.462 0 0 1-3.938-6.438l-1.077-1.927c-2.344-4.268-4.357-8.56-6.051-13.131-1.457-3.907-3.14-7.717-4.786-11.547-9.254-23.83-8.432-51.684-9.68-76.84a280.53 280.53 0 0 0-1.24-15.847c-.824-8.21.019-15.802 1.46-23.895l.45-2.675c1.191-6.239 3.06-14.035 8.554-17.886C87.5 11 87.5 11 91 10l2.375-.688C104.703 7.965 113.88 11.113 124 16l3.488 1.684c7.434 3.634 14.757 7.462 22.012 11.441l2.209 1.198c4.496 2.495 8.59 5.275 12.645 8.438 3.332 2.508 5.207 2.209 9.306 1.813 9.547-.756 19.08-.76 28.653-.76 3.115-.001 6.23-.02 9.345-.039 28.045-.08 28.045-.08 39.412 4.737 2.698.682 4.282.35 6.93-.512 2.729-1.848 2.729-1.848 5.375-4.188l2.941-2.488c1.488-1.288 2.975-2.577 4.461-3.867C287.664 18.804 313.145-.416 337 4zm-19.813 12.25l-4.816 1.965-2.305.952c-2.41.972-4.86 1.8-7.316 2.646-11.783 4.781-21.808 14.538-31.223 22.852a227.317 227.317 0 0 1-4.183 3.546l-2.219 1.852-1.867 1.535c-1.592 1.46-1.592 1.46-1.258 4.402-6.46.621-10.597-.845-16.387-3.71-12.09-4.314-25.208-3.662-37.87-3.66a980.29 980.29 0 0 1-9.905-.08c-14.13-.208-14.13-.208-27.584 3.588-2.554.977-4.543 1.014-7.254.862l-.96-2.652c-2.758-4.526-6.135-6.329-10.665-8.91l-2.332-1.381A499.839 499.839 0 0 0 142 36c-.73-.42-1.462-.838-2.215-1.27-5.722-3.24-11.588-6.114-17.535-8.917l-2.785-1.327c-9.337-4.474-9.337-4.474-19.528-5.736l-3.66-.016c-3.983.287-3.983.287-7.277 2.266-1.11 2.583-1.11 2.583-1.688 5.625l-.699 3.04c-1.239 6.738-1.807 13.248-1.8 20.085v2.578c.073 8.619.73 17.18 1.4 25.77.97 12.62 1.413 25.251 1.787 37.902h2l-.074 2.96c.005 4.298.563 8.431 1.261 12.665.129.78.257 1.56.388 2.365 1.26 7.076 3.488 13.439 6.425 20.01 4.046.37 4.046.37 7-2 6.93-1.501 11.802 1.11 17.617 4.688 2.368 1.553 2.368 1.553 5.383 1.312l2 10-2.75-1.938c-2.642-1.676-4.24-2.599-7.25-3.062v-2c-4.56-2.188-7.838-3.574-13-3-2.302.898-2.302.898-4 2 .575 4.548 2.5 8.004 4.813 11.875l2.082 3.555 1.062 1.786c.687 1.175 1.357 2.36 2.008 3.556 2.384 4.364 5.168 8.09 8.41 11.853l1.383 1.656C127.725 200.114 133.24 204.387 140 208l2.1 1.154a772.12 772.12 0 0 0 6.65 3.596l2.285 1.246 2.2 1.176 1.975 1.065c1.926.959 1.926.959 4.79.763v2l3.465.84 4.472 1.097 2.288.553c5.662 1.397 5.662 1.397 6.775 2.51.04 1.666.043 3.334 0 5-12.83.855-22.779-4.673-33.531-10.977-4.904-3.059-4.904-3.059-10.469-4.023-2.926 4.615-2.926 4.615-4.563 9.75.376 2.499.376 2.499 2.938 4.063 2.449 1.324 2.449 1.324 4.625 1.187v2c2.497 1.133 4.997 2.257 7.5 3.375l2.11.96c4.753 2.114 9.319 3.505 14.39 4.665 16.618 4.446 16.618 4.446 21 9v4c-7.625-.875-7.625-.875-11-2a78.603 78.603 0 0 0-4.324-.21l-2.595-.081-2.768-.084c-8.187-.31-15.9-1.25-23.907-2.934a77.534 77.534 0 0 0-8.656-1.254C124 246 124 246 121.953 244.974c-2.037-1.196-2.037-1.196-4.953-.973l-1.5 3.25-.844 1.828c-.871 2.214-.871 2.214-.656 5.922l9 2v2c2.645.483 5.291.961 7.938 1.438l2.228.408c8.949 1.602 17.818 2.331 26.897 2.716l2.912.131c2.341.105 4.683.207 7.025.307v4c-2.906 1.6-5.49 2.419-8.75 3a121.416 121.416 0 0 0-8.957 1.96c-16.845 4.257-34.028 4.462-51.293 4.04a338 338 0 0 0-2.563 5.188l-1.44 2.917c-1.092 3.172-.963 4.732.003 7.895 13.98 5.527 27.133 3.088 41-1 2.583-.751 5.167-1.5 7.75-2.25l3.36-1.016C152 288 152 288 156 288l1 5-2.02.762c-3.648 1.516-7.144 3.267-10.667 5.05l-2.153 1.082a1238.933 1238.933 0 0 0-9.078 4.602c-5.581 2.848-11.202 5.335-17.082 7.504-1.146.425-2.292.85-3.473 1.29-8.472 3.037-16.54 4.782-25.527 5.71-2.623 7.816-2.623 7.816-3 16 3.822 1.274 7.407 1.124 11.387 1.098l2.476-.005c2.608-.005 5.216-.018 7.825-.03 1.768-.006 3.537-.01 5.306-.014 4.335-.011 8.67-.028 13.006-.049.187 2.335.187 2.335 0 5a57.413 57.413 0 0 1-6.875 5.25l-1.973 1.352c-2.33 1.585-4.628 3.136-7.152 4.398v2l-2.688.313c-3.273.474-3.273.474-5.562 2.125-3.316 1.884-6.327 2.516-10.063 3.25-1.254.25-2.508.502-3.8.761L83 361c.964 5.205 1.877 9.6 5 14 7.115-1.294 13.357-3.452 19.75-6.75l2.111-1.067c4.132-2.101 8.176-4.32 12.201-6.62 4.088-2.279 7.27-3.356 11.938-3.563-1.13 14.126-5.936 24.662-14 36 2.702 3.535 6.464 4.347 10.563 5.5l2.264.647c12.187 3.356 24.498 5.524 37.173 4.853-1.344-3.738-3.033-6.674-5.375-9.875-3.467-4.856-6.552-9.568-8.871-15.094-1.364-3.23-2.892-6.353-4.461-9.488C143.79 354.316 139.107 339.665 136 323l-.556-2.675c-.465-2.437-.543-4.66-.506-7.137l.027-2.395L135 309c3.75-1.125 3.75-1.125 6 0 .625 2.063.625 2.063 1 4 2.468-1.152 4.048-2.048 6-4 2.125-.625 2.125-.625 4-1v2l2.082-.254 2.73-.308 2.708-.317C162 309 162 309 165 310c2.638-.394 2.638-.394 5-1v2h10l1 2c2.586.468 2.586.468 5.563.625l3.066.227L192 314l.06-2.307c.095-3.46.205-6.92.315-10.38.03-1.199.062-2.397.094-3.631l.117-3.506.095-3.222c.323-2.987 1.067-5.237 2.319-7.954l5 1-.08 1.625c-.985 24.277 2.306 48.304 5.08 72.375h2l.848-3.594c2.703-11.065 6.251-21.14 11.152-31.406 1.149-2.436 2.293-4.874 3.438-7.313l.86-1.822c2.424-5.172 4.675-10.412 6.89-15.678l1.033-2.451c2.088-4.987 4.058-9.997 5.795-15.119.984-1.617.984-1.617 2.968-2.36C242 278 242 278 244 278c-.578 6.081-2.4 11.27-4.625 16.938l-1.07 2.772a381.426 381.426 0 0 1-8.222 19.49c-1.569 3.268-1.569 3.268-2.083 6.8 6.032-.513 12.008-1.128 18-2 2.568-.26 5.136-.501 7.707-.73 2.408-.22 2.408-.22 5.106-1.082L261 320l2.25 2.063c2.507 2.202 2.507 2.202 5.066 1.761A80.29 80.29 0 0 0 275 322l1 6h3l.688 2.25c2.063 4.323 5.078 6.235 9.449 8.059l3.55 1.128 1.927.618c8.06 2.545 16.225 4.748 24.386 6.945.336-1.404.666-2.809.992-4.215l.558-2.37c.657-3.527.58-6.836.45-10.415l-2.168-.043c-12.002-.574-21.618-5.234-32.137-10.7-2.33-1.086-4.128-1.66-6.632-2.07-6.436-1.303-11.878-6.374-17.063-10.187l-2.613-1.75-2.2-1.5-1.894-1.266C255 301 255 301 254.801 298.328L255 296c3.56-.46 5.673.262 8.75 1.875 15.609 7.122 36.455 4.332 53.25 4.125.027-1.458.046-2.917.063-4.375l.035-2.46c.047-2.214.047-2.214-1.098-4.165l-1.937.063c-23.346.666-23.346.666-32.063-4.063-2.79-1.395-5.466-1.455-8.563-1.813-8.036-1.104-14.024-3.254-20.437-8.187h-3v-7l2.43.438c9.932 1.621 19.53 1.767 29.57 1.562v-2l1.957-.113c9.78-.683 19.381-2.28 29.043-3.887-.706-8.537-.706-8.537-2-17h-5v2l-3.188.375c-3.64.451-3.64.451-6.2 1.6-2.76 1.083-5.285 1.598-8.21 2.06l-3.177.514-3.288.513c-2.157.344-4.315.69-6.472 1.036l-2.887.453c-2.513.402-2.513.402-4.683.995-3.27.784-6.613.638-9.957.641l-2.182.038c-3.799.01-5.52-.067-8.756-2.225-.188-2.625-.188-2.625 0-5l2.86-.48c8.609-1.565 16.224-3.667 24.14-7.52l2.01-.978c9.146-4.505 17.269-9.29 24.99-16.022l2.277-1.371c2.025-1.544 2.025-1.544 1.895-4.328l-.422-2.988-.39-3.012L304 213c-6.81 2.658-13.218 6.044-19.664 9.48l-2.53 1.346c-1.68.894-3.355 1.793-5.03 2.695-4.186 2.231-8.194 4.156-12.776 5.479v-7l3.418-1.766A1521.91 1521.91 0 0 0 283 215l2.816-1.49c15.34-8.092 15.34-8.092 27.184-20.51.877-1.164 1.756-2.327 2.637-3.488 6.148-8.26 10.117-15.987 12.738-26.012 1.553-5.783 3.234-11.464 5.188-17.125 5.322-15.649 8.75-31.385 8.738-47.96.005-1.17.01-2.338.017-3.541.011-3.75.005-7.5-.006-11.249l-.004-3.861c-.03-14.621-.121-29.204-1.558-43.764-.11-1.134-.218-2.267-.33-3.435-.84-7.043-2.238-14.383-7.42-19.565-6.003-.64-10.398.982-15.813 3.25z" fill="rgba(26, 26, 26, 1)" stroke="none"/>
  <path d="M239 75h2l1.207 3.656 1.606 4.844.79 2.398c2.358 9.231 2.358 9.231 7.397 16.602 2.141.621 2.141.621 5 .5l.188-2.75C258 97 258 97 259.875 94.625c4.812-2.502 8.82-2.612 14.125-1.625 11.919 4.596 11.919 4.596 14.363 10.031.661 3.082.787 5.827.637 8.969l1.871.762c2.498 1.452 2.977 2.479 4.192 5.05 2.745 4.723 6.248 6.149 11.218 8.083 2.813 1.143 5.252 2.33 7.719 4.105v3h2l1 5 3 1 2 10h2l-1 5-2.813-.5c-5.044-.737-10.101-.583-15.187-.5v6l2.75-.188c5.584-.034 10.908 1.714 16.25 3.188 1.667 9.55.155 15.104-5.35 23.132-2.138 3.028-4.322 5.982-6.65 8.868l-1.934 2.436c-5.488 6.538-11.098 10.395-18.691 14.189l-3.176 1.651a892.328 892.328 0 0 1-6.278 3.23c-4.004 2.048-7.962 4.175-11.921 6.306-1.999 1.065-4 2.127-6 3.188v7c12.7-4.375 24.56-11.404 36.168-18.084C302 213 302 213 304 213c1.365 3.878 1.817 6.944 1 11-8.293 9.843-21.608 15.543-33 21l-2.906 1.406c-7.025 3.091-14.578 4.271-22.094 5.594-.25 2.416-.25 2.416 0 5 7.005 4.67 18.965 2.268 27 .688 1.985-.41 3.967-.832 5.947-1.26 2.153-.449 4.31-.843 6.475-1.225l2.195-.39 6.055-1.067c2.844-.638 4.776-1.453 7.328-2.746h4v-2h5c2.296 11.522 2.296 11.522 2 17l-3.875.375a95.046 95.046 0 0 0-9.938 1.625c-5.687 1.2-11.395 1.622-17.187 2v2c-10.906.223-21.23-.06-32-2v7l1.688.313c2.768.823 4.84 2.192 7.312 3.687 4.635 2.465 8.589 3.292 13.813 3.938 6.286.79 11.451 2.459 17.187 5.062 3.06 1.02 5.124 1.115 8.324 1.098l3.115-.01 3.248-.026 3.284-.013c2.676-.012 5.353-.028 8.029-.049 1.203 2.405 1.1 3.95 1.063 6.625l-.028 2.477L317 302c-44.34.546-44.34.546-55.262-5.18-2.295-1.083-4.241-1.142-6.738-.82-.266 2.385-.266 2.385 0 5 1.27 1.588 1.27 1.588 3.188 2.75l2.203 1.504L263 307l3.11 2.277c5.3 3.868 10.255 7.311 16.663 9.059 2.628.783 4.996 1.874 7.477 3.039 10.277 4.73 19.303 8.398 30.75 8.625.163 4.488.023 8.405-1.008 12.785l-.559 2.407L319 347c-33.923-9.515-33.923-9.515-38-14-1.313-2.75-1.313-2.75-2-5h-3l-1-6-1.793.578c-2.439.684-4.678 1.23-7.207 1.422-2.75-1.938-2.75-1.938-5-4-2.322.128-2.322.128-5 1-1.622.19-3.248.355-4.875.5-2.874.27-5.704.584-8.563 1-4.839.68-9.694 1.086-14.562 1.5 1.049-4.51 2.625-8.446 4.625-12.625 2.84-6.032 5.345-12.157 7.75-18.375l1.084-2.752 1.002-2.623.9-2.336c.704-2.521.752-4.684.639-7.289-2.373-.418-2.373-.418-5 0-2.878 3.947-4.433 8.458-6.125 13-4.826 12.66-9.842 25.359-16.125 37.375-4.78 9.28-7.776 19.398-9.75 29.625h-2c-6.05-52.501-6.05-52.501-5-74l-5-1c-1.767 3.834-2.29 6.969-2.414 11.176l-.117 3.506-.094 3.63-.117 3.69c-.094 3-.18 5.998-.258 8.998a485.352 485.352 0 0 1-5.438-.375c-1.009-.07-2.018-.14-3.058-.21-.826-.138-1.653-.274-2.504-.415l-1-2h-10v-2l-3.188.563c-3.48.399-5.472.122-8.812-.563-3.221.383-3.221.383-6 1v-2c-3.433 1.206-5.504 2.385-8 5h-2l-1-4a88.406 88.406 0 0 0-5-1c-1.426 1.206-1.426 1.206-1.23 4.734.076 6.34 1.502 12.36 2.917 18.516l.833 3.656c1.886 8.056 3.979 15.578 7.48 23.094l.915 2.004a647.526 647.526 0 0 0 6.188 13.134 355.59 355.59 0 0 1 2.17 4.604c2.963 6.24 6.61 12.01 10.338 17.815l1.28 2.002 1.157 1.79C169 401 169 401 170 404c-13.48.714-26.526-1.81-39.438-5.5l-2.168-.61c-3.492-1.055-6.133-1.933-8.394-4.89l1.793-2.465c6.746-9.644 12.942-21.374 12.207-33.535-6.368.436-10.906 2.741-16.438 5.813l-4.87 2.644-2.38 1.298C94.997 375 94.997 375 88 375c-.656-1.203-1.3-2.413-1.938-3.625l-1.09-2.04c-1.146-2.753-1.57-5.388-1.972-8.335l2.781-.516c7.081-1.398 12.902-3.028 19.219-6.484h3v-2c1.723-1.332 1.723-1.332 4.063-2.813l2.468-1.609a326.8 326.8 0 0 1 4.625-2.906c2.15-1.339 2.15-1.339 4.844-3.672.245-2.602.245-2.602 0-5l-3.349.016c-4.098.018-8.196.03-12.294.039-1.774.005-3.548.012-5.323.02-2.549.013-5.098.018-7.647.023l-2.406.015c-3.258 0-5.868-.075-8.981-1.113.116-1.542.243-3.084.375-4.625l.21-2.602c.462-3.086 1.358-5.842 2.415-8.773l2.535-.262c22.764-2.748 43.698-13.502 63.426-24.707C155 293 155 293 157 293l-1-5c-6.352.59-12.056 2.07-18.125 4-13.607 4.286-27.193 6.408-40.875 1-1.356-4.442-.591-6.706 1.438-10.813l1.433-2.957L101 277l1.85.063c12.974.38 25.542-.066 38.4-1.938l3.62-.526c5.012-.78 9.447-1.615 14.13-3.599 1.554-.39 3.117-.745 4.688-1.063 2.336-.475 4.176-.87 6.312-1.937v-4l-3.785-.113c-10.016-.358-19.9-1.073-29.84-2.387l-2.996-.396c-6.94-.958-6.94-.958-10.379-2.104v-2l-9-2c.551-3.95 1.39-7.35 3-11 5.875.875 5.875.875 7 2 1.424.284 2.86.514 4.297.719l2.656.386 2.797.395 5.422.781 2.44.346c1.636.256 3.265.56 4.885.903 2.497.469 4.837.642 7.374.716l2.74.1c1.88.06 3.76.118 5.641.172 4.972.187 9.056.67 13.748 2.482 2.75.169 2.75.169 5 0v-4c-8.597-5.077-17.122-8.673-26.875-10.875-6.305-1.449-12.237-4.495-18.125-7.125v-2l-2.938-.938C130 227 130 227 129 226c.368-4.788 1.25-8.054 4-12 3.438.672 6.085 2.03 9.125 3.75 16.462 9.12 16.462 9.12 34.875 11.25v-5l-2.875-.813c-4.723-1.347-9.423-2.768-14.125-4.187v-2l-2.047-.266c-3.731-.928-6.866-2.634-10.203-4.484l-2.014-1.104c-1.319-.723-2.637-1.448-3.953-2.175a157.484 157.484 0 0 0-4.482-2.33c-13.312-6.784-22.898-20.776-29.051-34.043a38.762 38.762 0 0 0-3.625-6.098C103 164 103 164 103 160c3.07-1.814 4.973-2.209 8.5-1.75l2.281.266c2.33.508 4.141 1.332 6.219 2.484v2l1.625.25c3.203 1.011 5.617 2.861 8.375 4.75l-.875-2.86c-4.352-14.771-3.116-26.45.875-41.14l.863-3.203c1.07-3.756 1.951-6.519 4.137-9.797h2l2-8h2l.777-1.809c3.17-5.681 9.732-8.964 15.801-10.722 7.542-1.46 14.61-1.127 21.422 2.531.75 2.563.75 2.563 1 5l4 2 3-19h4l.805 3.324 1.07 4.364.527 2.185.528 2.139.476 1.952c.575 2.132.575 2.132 1.644 4.445 1.044 2.847 1.208 5.016 1.216 8.04l.007 3.069-.023 3.17.023 3.205-.007 3.056-.007 2.792C197 125 197 125 195 127l-1.188-2-1.812-3-.96-1.797C186.88 112.83 180.29 105.51 172 103c-8.401-1.129-15.038.151-22 5-8.586 7.077-15.005 16.383-16.303 27.628-.134 2.776-.156 5.53-.135 8.31l-.06 2.802c.008 11.721 5.03 20.465 12.498 29.26 6.1 5.436 14.645 6.499 22.633 6.328 4.697-.651 9.034-2.459 13.367-4.328l2.262-.945c2.081-1.007 2.081-1.007 2.738-4.055h4v2l3.035-.875 4.028-1.125 1.99-.578c4.849-1.338 10.239-2.776 14.947-.422.117 3.541.187 7.082.25 10.625l.102 3.027c.08 6.131-.19 9.721-4.352 14.348-3 2-3 2-6.438 2-3.562-1-3.562-1-6-3.438-2.04-4.653-1.918-8.56-1.562-13.562l-3 1c-.415 7.02-.415 7.02 1 13.813 5.223 5.712 11.94 10.746 19.824 11.433 6.071.13 11.379-.462 17.176-2.246v-2l1.68-.55 2.195-.762 2.18-.739c2.285-.912 2.285-.912 3.945-3.949.646-5.707-.466-8.53-4-13l-2-2h-3l-1 3 1.875.875C236 191 236 191 238 193c.459 3.518.411 5.349-1.5 8.375-3.687 2.397-6.134 1.971-10.5 1.625-3-1-3-1-4.676-4.344-1.828-5.341-1.654-10.57-1.512-16.156l.042-3.07c.035-2.477.084-4.953.146-7.43 6.515-3.257 14.05.034 20.438 2.125L243 175v1h-14v2l2.21-.176c8.067-.348 14.616.91 22.256 3.397 8.026 2.528 15.555 2.513 23.534-.221l1.96-.672c6.805-2.85 12.863-8.596 15.954-15.315 2.116-5.7 2.545-10.973 2.461-17.013l.035-2.54c-.05-10.775-4.232-22.283-11.598-30.273-5.903-5.369-11.95-8.456-20-8.687-6.737.336-11.271 1.568-16 6.625C242.995 121.791 240.2 133.208 239 144h-1c-1.272-6.68-3.077-16.846 0-23 .118-1.48.177-2.965.205-4.45l.06-2.79.051-3.018.063-3.085c.066-3.26.125-6.521.183-9.782l.131-6.621c.108-5.418.21-10.836.307-16.254z" fill="rgba(188, 188, 188, 1)" stroke="none"/>
  <path d="M239 75h2l1.207 3.656 1.606 4.844.79 2.398c2.358 9.231 2.358 9.231 7.397 16.602 2.141.621 2.141.621 5 .5l.188-2.75C258 97 258 97 259.875 94.625c4.812-2.502 8.82-2.612 14.125-1.625 11.919 4.596 11.919 4.596 14.363 10.031.661 3.082.787 5.827.637 8.969l1.871.762c2.498 1.452 2.977 2.479 4.192 5.05 2.745 4.723 6.248 6.149 11.218 8.083 2.813 1.143 5.252 2.33 7.719 4.105v3h2l1 5 3 1 2 10h2l-1 5-2.813-.5c-5.044-.737-10.101-.583-15.187-.5v6l2.75-.188c5.584-.034 10.908 1.714 16.25 3.188 1.667 9.55.155 15.104-5.35 23.132-2.138 3.028-4.322 5.982-6.65 8.868l-1.934 2.436c-5.488 6.538-11.098 10.395-18.691 14.189l-3.176 1.651a892.328 892.328 0 0 1-6.278 3.23c-4.004 2.048-7.962 4.175-11.921 6.306-1.999 1.065-4 2.127-6 3.188v7c12.7-4.375 24.56-11.404 36.168-18.084C302 213 302 213 304 213c1.365 3.878 1.817 6.944 1 11-9.264 10.996-29.031 21.886-43 25-2.254-.418-2.254-.418-4-1l2-1c-9.203-6.362-17.128-8.496-28-10l-7.125-1.125-3.008-.445a104.166 104.166 0 0 1-5.512-.973c-4.97-.677-9.906-.641-14.917-.644l-3.116-.038-3.013-.005-2.725-.013c-2.846.268-4.95 1.17-7.584 2.243h-4l-.688 1.875c-1.697 2.748-3.337 3.057-6.312 4.125l-1 2-3-1.023c-2.726-.923-5.453-1.845-8.184-2.754l-1.915-.64c-1.973-.605-3.948-1.079-5.963-1.52-6.235-1.403-12.121-4.465-17.938-7.063v-2l-2.938-.938C130 227 130 227 129 226c.368-4.788 1.25-8.054 4-12 3.438.672 6.085 2.03 9.125 3.75 16.462 9.12 16.462 9.12 34.875 11.25v-5l-2.875-.813c-4.723-1.347-9.423-2.768-14.125-4.187v-2l-2.047-.266c-3.731-.928-6.866-2.634-10.203-4.484l-2.014-1.104c-1.319-.723-2.637-1.448-3.953-2.175a157.484 157.484 0 0 0-4.482-2.33c-13.312-6.784-22.898-20.776-29.051-34.043a38.762 38.762 0 0 0-3.625-6.098C103 164 103 164 103 160c3.07-1.814 4.973-2.209 8.5-1.75l2.281.266c2.33.508 4.141 1.332 6.219 2.484v2l1.625.25c3.203 1.011 5.617 2.861 8.375 4.75l-.875-2.86c-4.352-14.771-3.116-26.45.875-41.14l.863-3.203c1.07-3.756 1.951-6.519 4.137-9.797h2l2-8h2l.777-1.809c3.17-5.681 9.732-8.964 15.801-10.722 7.542-1.46 14.61-1.127 21.422 2.531.75 2.563.75 2.563 1 5l4 2 3-19h4l.805 3.324 1.07 4.364.527 2.185.528 2.139.476 1.952c.575 2.132.575 2.132 1.644 4.445 1.044 2.847 1.208 5.016 1.216 8.04l.007 3.069-.023 3.17.023 3.205-.007 3.056-.007 2.792C197 125 197 125 195 127l-1.188-2-1.812-3-.96-1.797C186.88 112.83 180.29 105.51 172 103c-8.401-1.129-15.038.151-22 5-8.586 7.077-15.005 16.383-16.303 27.628-.134 2.776-.156 5.53-.135 8.31l-.06 2.802c.008 11.721 5.03 20.465 12.498 29.26 6.1 5.436 14.645 6.499 22.633 6.328 4.697-.651 9.034-2.459 13.367-4.328l2.262-.945c2.081-1.007 2.081-1.007 2.738-4.055h4v2l3.035-.875 4.028-1.125 1.99-.578c4.849-1.338 10.239-2.776 14.947-.422.117 3.541.187 7.082.25 10.625l.102 3.027c.08 6.131-.19 9.721-4.352 14.348-3 2-3 2-6.438 2-3.562-1-3.562-1-6-3.438-2.04-4.653-1.918-8.56-1.562-13.562l-3 1c-.415 7.02-.415 7.02 1 13.813 5.223 5.712 11.94 10.746 19.824 11.433 6.071.13 11.379-.462 17.176-2.246v-2l1.68-.55 2.195-.762 2.18-.739c2.285-.912 2.285-.912 3.945-3.949.646-5.707-.466-8.53-4-13l-2-2h-3l-1 3 1.875.875C236 191 236 191 238 193c.459 3.518.411 5.349-1.5 8.375-3.687 2.397-6.134 1.971-10.5 1.625-3-1-3-1-4.676-4.344-1.828-5.341-1.654-10.57-1.512-16.156l.042-3.07c.035-2.477.084-4.953.146-7.43 6.515-3.257 14.05.034 20.438 2.125L243 175v1h-14v2l2.21-.176c8.067-.348 14.616.91 22.256 3.397 8.026 2.528 15.555 2.513 23.534-.221l1.96-.672c6.805-2.85 12.863-8.596 15.954-15.315 2.116-5.7 2.545-10.973 2.461-17.013l.035-2.54c-.05-10.775-4.232-22.283-11.598-30.273-5.903-5.369-11.95-8.456-20-8.687-6.737.336-11.271 1.568-16 6.625C242.995 121.791 240.2 133.208 239 144h-1c-1.272-6.68-3.077-16.846 0-23 .118-1.48.177-2.965.205-4.45l.06-2.79.051-3.018.063-3.085c.066-3.26.125-6.521.183-9.782l.131-6.621c.108-5.418.21-10.836.307-16.254z" fill="rgba(136, 136, 136, 1)" stroke="none"/>
  <path d="M333 13c9.786 8.993 8.443 28.567 9 41 .304 9.769.35 19.54.375 29.313l.023 3.751c.092 18.619-1.289 35.504-6.933 53.315l-.7 2.215L334 145l-.878 2.777c-1.23 3.885-2.463 7.77-3.71 11.65-1.557 4.837-3.05 9.677-4.412 14.573-.96-2.882-1.106-4.699-1.063-7.688l.028-2.449L324 162c-6.742-1.258-13.135-2.264-20-2-.042-2.333-.04-4.667 0-7 1.695-1.695 3.81-1.172 6.125-1.188 4.696.031 8.466.62 12.875 2.188l1-5h-2c-1.435-2.487-2.049-4.312-2.5-7.188L319 139l-2-1c-.625-2.563-.625-2.563-1-5h-2l-1-3c-2.326-1.725-4.59-2.867-7.344-3.762-6.338-2.11-9.14-4.351-12.402-10.215-1.24-2.314-1.24-2.314-4.254-4.023-.62-3.078-.887-6.124-1.18-9.25L287 100c-2.325-1.336-2.325-1.336-5-2a339.057 339.057 0 0 1-3.625-2.125C273.397 93.372 268.461 92.999 263 94c-3.427 2.518-5.4 5.071-7 9l-.875-3.313c-.944-3.727-.944-3.727-3.125-6.687-.309-2.27-.309-2.27-.438-4.813-.357-4.425-1.503-7.234-3.562-11.187-.82-3.308-1.435-6.64-2-10h-2v-4h-2c-.836-1.645-1.669-3.29-2.5-4.938l-1.406-2.777C237 53 237 53 237 52c4.613.31 8.776.756 13.063 2.563C254.181 56.27 257.57 56.236 262 56l.207-1.715C266.541 41.795 290.81 28.178 302 22c2.991-1.215 5.95-2.2 9.05-3.094 3.219-.989 6.19-2.282 9.262-3.656 4.56-1.919 7.787-3.27 12.688-2.25z" fill="rgba(101, 101, 101, 1)" stroke="none"/>
  <path d="M114.519 21.917c3.454 1.601 6.873 3.263 10.272 4.977 1.774.888 3.574 1.726 5.38 2.547 7.144 3.293 13.783 7.477 20.454 11.621l2.988 1.825 2.801 1.773 2.53 1.582c2.402 2.054 3.127 3.773 4.056 6.758 5.301-.445 5.301-.445 10.312-2.031 3.444-1.241 6.351-1.162 10-1.094l3.801.055L190 50v3h-2l-.332 1.871c-.806 4.304-1.695 8.438-3.168 12.566-3.43 9.927-3.966 20.16-4.5 30.563h-1v-5c-10.541-3.182-20.039-3.058-30 2-3.23 2.237-6.222 4.444-8 8h-2l-2 8h-2c-2.72 8.572-4.86 17.27-7 26l-.548 1.964c-.47 2.118-.566 3.979-.55 6.145l.01 2.286.025 2.355.014 2.402c.012 1.95.03 3.899.049 5.848-3.078-1.178-5.9-2.48-8.75-4.125-4.384-2.217-8.404-2.718-13.25-1.875-2.322 1.447-2.322 1.447-4 3-3-1-3-1-4.281-3.309C92.276 140.285 89.692 128.281 90 116h-2l-.168-3.865c-.208-4.776-.42-9.553-.632-14.33l-.27-6.176c-.13-2.977-.262-5.953-.395-8.93l-.117-2.744c-.25-5.503-.658-10.97-1.198-16.451C83.98 49.376 84.484 34.548 89 21c7.69-5.215 17.719-2.467 25.519.917z" fill="rgba(101, 101, 101, 1)" stroke="none"/>
  <path d="M36.059 149.527C42.715 151.147 47.372 158.661 51 164c7.992 13.666 11.716 29.441 15.055 44.785.67 3.07 1.455 6.042 2.445 9.028 1.104 3.574 1.875 7.07 2.453 10.765 3.099 19.174 6.71 38.63 13.707 56.82 3.324 8.935-.896 17.461-3.785 26.04l-.84 2.505c-.677 2.02-1.356 4.038-2.035 6.057-2.394-2.907-3.66-5.49-4.813-9.063C69.34 300.048 63.474 291.724 56 283a226.588 226.588 0 0 1-7.813-10.188l-2.12-2.921a434.756 434.756 0 0 1-5.442-7.829c-2.675-3.86-5.577-7.427-8.625-11-4.559-5.404-8.497-10.92-12-17.062l-1.176-2.055c-5.972-11.853-7.2-25.27-7.324-38.32l-.056-3.238c.082-10.584 3.182-19.707 8.431-28.824l1.93-3.434c3.729-5.315 7.46-9.104 14.254-8.602z" fill="rgba(96, 96, 96, 1)" stroke="none"/>
  <path d="M166 271v3h2v3h2l.734 2.047c1.862 4.955 3.366 8.304 7.266 11.953l3 7 1.875 1.875c3.186 3.186 5.211 7.062 7.125 11.125v2h-9l-1-2h-10v-2l-3.188.563c-3.48.399-5.472.122-8.812-.563-3.221.383-3.221.383-6 1v-2c-3.433 1.206-5.504 2.385-8 5h-2l-1-4a88.406 88.406 0 0 0-5-1c-1.426 1.206-1.426 1.206-1.23 4.734.076 6.34 1.502 12.36 2.917 18.516l.833 3.656c1.886 8.056 3.979 15.578 7.48 23.094l.915 2.004a647.526 647.526 0 0 0 6.188 13.134 355.59 355.59 0 0 1 2.17 4.604c2.963 6.24 6.61 12.01 10.338 17.815l1.28 2.002 1.157 1.79C169 401 169 401 170 404c-13.48.714-26.526-1.81-39.438-5.5l-2.168-.61c-3.492-1.055-6.133-1.933-8.394-4.89l1.793-2.465c6.746-9.644 12.942-21.374 12.207-33.535-6.368.436-10.906 2.741-16.438 5.813l-4.87 2.644-2.38 1.298C94.997 375 94.997 375 88 375c-.656-1.203-1.3-2.413-1.938-3.625l-1.09-2.04c-1.146-2.753-1.57-5.388-1.972-8.335l2.781-.516c7.081-1.398 12.902-3.028 19.219-6.484h3v-2c1.723-1.332 1.723-1.332 4.063-2.813l2.468-1.609a326.8 326.8 0 0 1 4.625-2.906c2.15-1.339 2.15-1.339 4.844-3.672.245-2.602.245-2.602 0-5l-3.349.016c-4.098.018-8.196.03-12.294.039-1.774.005-3.548.012-5.323.02-2.549.013-5.098.018-7.647.023l-2.406.015c-3.258 0-5.868-.075-8.981-1.113.116-1.542.243-3.084.375-4.625.07-.859.14-1.717.21-2.602.462-3.086 1.358-5.842 2.415-8.773l2.535-.262c22.764-2.748 43.698-13.502 63.426-24.707C155 293 155 293 157 293l-1-5c-6.352.59-12.056 2.07-18.125 4-13.607 4.286-27.193 6.408-40.875 1-1.356-4.442-.591-6.706 1.438-10.813l1.433-2.957L101 277l1.85.063c12.974.38 25.542-.066 38.4-1.938l3.62-.526c5.994-.872 5.994-.872 11.75-2.658 3.182-1.258 5.994-1.074 9.38-.941z" fill="rgba(136, 136, 136, 1)" stroke="none"/>
  <path d="M165.938 101.688l3.027-.051c8.012.959 13.638 6.812 19.035 12.363 2.837 3.651 4.843 7.5 6.625 11.75 1.191 3.193 1.191 3.193 3 5.375 3.33 4.54 2.568 10.856 2.563 16.25l-.003 2.666c-.194 20.968-.194 20.968-4.185 24.959-2.625.125-2.625.125-5 0v-2c-3.066.34-3.965.96-6.063 3.313-5.014 4.587-11.573 6.852-18.375 7.125-7.877-.439-16.178-1.814-21.972-7.508-11.102-13.476-13.146-25.886-11.59-42.93 2.184-11.542 9.692-20.397 19.035-27.215 4.77-2.872 8.312-4.076 13.903-4.097z" fill="rgba(7, 7, 7, 1)" stroke="none"/>
  <path d="M192 306h1l.078 3.61c.501 16.506 2.877 32.643 5.49 48.931l.55 3.459.499 3.094c.615 4.662.584 9.216.383 13.906l-.09 3.293c-.37 7.842-1.482 13.644-6.597 19.707-3.773 1.631-7.285 1.731-11.313 1-8.019-5.031-12.726-13.791-17-22l-1.5-2.875c-1.766-3.68-3.431-7.402-5.105-11.125-1.434-3.083-2.966-6.101-4.52-9.125-6.54-12.997-6.54-12.997-5.875-19.875h-2c-.506-3.04-1.005-6.082-1.5-9.125l-.434-2.594c-1.456-9.016-1.456-9.016-1.066-13.281 2.25-2.875 2.25-2.875 5-5h4v2l2.563-1.063c3.935-1.073 6.457-.66 10.437.063 1.666.035 3.334.05 5 0v2l10-1 1 3h10l1-7z" fill="rgba(73, 73, 73, 1)" stroke="none"/>
  <path d="M282 111c7.841 5.906 12.943 14.95 15.676 24.316.5 4.144.55 8.263.574 12.434l.063 2.594c.065 10.8-3.084 17.412-10.551 25.195-5.36 4.776-11.515 7.998-18.762 8.461l-2.082.152c-5.657.241-9.806-.687-14.918-3.152l-1-3-1.813-.875c-5.224-2.687-7.601-8.04-9.417-13.387-3.33-16.17-1.62-33.758 7.167-47.925C255.864 103.81 269.724 102.546 282 111z" fill="rgba(8, 8, 8, 1)" stroke="none"/>
  <path d="M257 319c2.917.315 4.57.601 6.75 2.625 3.613 2.208 7.218 1.09 11.25.375l1 6 3 1-5 1-.516 1.652C270.067 342.287 265.026 352.053 260 362l-1.543 3.168a59.214 59.214 0 0 1-4.207 6.957c-2.441 3.569-4.586 7.222-6.688 11-4.086 7.034-8.414 12.996-16.453 15.504-5.232.92-9.59-.039-14.484-1.942-4.844-4.96-5.477-11.72-5.813-18.449.076-4.88 1.051-9.54 2.063-14.3l.527-2.604c1-4.85 2.17-9.593 3.598-14.334h2l.227-1.66c1.372-8.274 4.519-15.665 7.773-23.34l1 2 2.375-1c3.999-1.103 7.34-1.116 11.453-.973 2.22.13 2.22.13 4.172-1.027 2.591-.31 5.184-.51 7.785-.719 2.186-.048 2.186-.048 3.215-1.281z" fill="rgba(73, 73, 73, 1)" stroke="none"/>
  <path d="M197 110h1l2 13h8l2 4h2v2h2l1 2c4.581 1.278 7.687 1.006 12-1l1-3h2l1-5h2v-2l6-1-.488 1.637c-3.208 14.815-1.516 38.318 6.488 51.363 2.18 2.856 4.394 5.525 7 8-3.37 1.124-4.437.585-7.684-.453-4.996-1.18-10.204-1.255-15.316-1.547v-2l11-1-4.375-1.5-2.46-.844c-4.4-.912-8.688-.775-13.165-.656.111 3.5.241 7 .375 10.5.03.982.062 1.965.094 2.977.231 5.793.9 10.956 2.531 16.523 1.77.081 3.541.14 5.313.188l2.988.105c2.707-.067 2.707-.067 4.523-1.621 1.878-2.67 1.693-4.508 1.176-7.672-2.378-2.404-2.378-2.404-5-4l1-4c3.488.258 4.242 1.265 6.688 3.938 3.282 4.347 3.87 6.566 3.312 12.062-2.565 3.47-4.106 4.78-8.313 5.813L232 207v2c-7.657 3.534-15.105 4.725-23.227 1.863-5.918-2.797-10.609-5.798-14.773-10.863-1.05-3.15-1.101-5.388-1.063-8.688l.028-3.011L193 186l4-2c.855 2.672.979 4.582.875 7.438.139 3.953.462 5.642 3.125 8.562 3.893.973 6.179 1.274 10 0 1.155-2.471 1.155-2.471 2-5l1-1a87.92 87.92 0 0 0 .316-4.91l.127-2.998.12-3.155.13-3.166c.107-2.59.209-5.18.307-7.771-7.088-.143-7.088-.143-14.063 1l-2.285.563L197 174l.438-2.797c1.133-7.965 1.776-15.779 1.812-23.828l.027-2.546c-.031-6.532-.936-11.699-5.277-16.829 1-2 1-2 2-3 .237-2.526.422-5.031.563-7.563l.13-2.154c.107-1.76.207-3.522.307-5.283z" fill="rgba(136, 136, 136, 1)" stroke="none"/>
  <path d="M281 333l3.063 1.703c6.34 3.17 13.17 5.013 19.937 7.047l4.082 1.246c3.304 1.009 6.61 2.009 9.918 3.004l2-2c-2.384 12.792-6.77 25.513-16 35h-2l-.688 1.75c-1.66 2.847-3.627 4.37-6.312 6.25h-2v2c-15.973 8.277-31.063 11.551-49 12l1.031-1.293c8.572-11.056 15.132-23.437 21.838-35.67a319.866 319.866 0 0 1 3.307-5.783c1.48-2.64 2.694-5.123 3.762-7.942a476.165 476.165 0 0 1 4.812-11.937l1.297-3.102L281 333z" fill="rgba(71, 71, 71, 1)" stroke="none"/>
  <path d="M322 40c2.905 1.236 4.418 2.087 6.11 4.742 5.359 13.587-.857 39.59-6.048 52.61-1.76 3.782-3.561 7.247-7.062 9.648-3.438.563-3.438.563-7 0-2.438-1.938-2.438-1.938-5-5-1.27-1.397-2.541-2.792-3.813-4.188-2.824-3.19-5.503-6.454-8.125-9.812-7.319-9.445-7.319-9.445-17.062-16-.633-3.88-1.013-7.425 1.184-10.84 6.11-5.783 14.2-9.322 21.653-13.058a212.215 212.215 0 0 0 6.061-3.23C309.445 41.315 314.464 38.803 322 40z" fill="rgba(11, 8, 8, 1)" stroke="none"/>
  <path d="M109.8 39.598c1.475.508 2.95 1.019 4.423 1.53 3.329 1.045 6.696 1.813 10.09 2.622C131.71 45.626 137.68 48.77 144 53l3.152 1.984c4.247 2.82 7.261 4.903 9.66 9.453-1.58 6.927-8.252 10.75-13.812 14.688L140 81a754.644 754.644 0 0 0-4.625 3.25c-4.866 3.426-9.823 6.703-14.809 9.953-2.528 1.64-2.528 1.64-4.164 3.5-1.827 1.69-2.94 1.76-5.402 1.797-2.133-.09-2.133-.09-4-.5-9.336-10.27-8.616-34.284-8.23-47.395.285-4.462.861-8.347 2.23-12.605 3.112-1.556 5.58-.471 8.8.598z" fill="rgba(8, 6, 6, 1)" stroke="none"/>
  <path d="M239 75h2l1.207 3.656 1.606 4.844.79 2.398c2.358 9.231 2.358 9.231 7.397 16.602 2.141.621 2.141.621 5 .5l.188-2.75C258 97 258 97 259.875 94.625c4.812-2.502 8.82-2.612 14.125-1.625 11.919 4.596 11.919 4.596 14.363 10.031.661 3.082.787 5.827.637 8.969l1.871.762c2.498 1.452 2.977 2.479 4.192 5.05 2.745 4.723 6.248 6.149 11.218 8.083 2.813 1.143 5.252 2.33 7.719 4.105v3h2l1 5 3 1 2 10h2l-1 5-2.813-.5c-5.044-.737-10.101-.583-15.187-.5l-.297 1.906c-1.72 9.844-5.401 18.032-13.351 24.418C287.502 182 287.502 182 285 182l-1 3c-7.532 1.697-14.355 2.853-22 1v-1l3-.734c12.466-3.124 21.458-6.124 29-17.266 2.88-6.259 3.47-12.182 3.375-19l.035-2.54c-.05-10.775-4.232-22.283-11.598-30.273-5.903-5.369-11.95-8.456-20-8.687-6.737.336-11.271 1.568-16 6.625C242.995 121.791 240.2 133.208 239 144h-1c-1.272-6.68-3.077-16.846 0-23 .118-1.48.177-2.965.205-4.45l.06-2.79.051-3.018.063-3.085c.066-3.26.125-6.521.183-9.782l.131-6.621c.108-5.418.21-10.836.307-16.254z" fill="rgba(190, 190, 190, 1)" stroke="none"/>
  <path d="M192 306h1l1 28-4 1-1 2c-2.322.407-4.657.744-7 1l-.625 2.313c-1.84 3.594-3.677 4.193-7.375 5.687l-2.875.813c-3.645 1.385-6.117 3.393-9.156 5.789-2.503 1.777-5.004 2.657-7.969 3.398-3.977-4.356-5.832-10.252-6.188-16.063L148 338h-2c-.506-3.04-1.005-6.082-1.5-9.125l-.434-2.594c-1.456-9.016-1.456-9.016-1.066-13.281 2.25-2.875 2.25-2.875 5-5h4v2l2.563-1.063c3.935-1.073 6.457-.66 10.437.063 1.666.035 3.334.05 5 0v2l10-1 1 3h10l1-7z" fill="rgba(73, 73, 73, 1)" stroke="none"/>
  <path d="M188 80l3 1a78.78 78.78 0 0 1 2.063 7.75c.32 1.433.645 2.865.972 4.297l.418 1.932c.522 2.123.522 2.123 1.59 4.427 1.052 2.85 1.215 5.014 1.223 8.043l.007 3.069-.023 3.17.023 3.205-.007 3.056-.007 2.792C197 125 197 125 195 127l-1.187-2-1.813-3-.96-1.797C186.88 112.83 180.29 105.51 172 103c-8.401-1.129-15.038.151-22 5-8.586 7.077-15.005 16.383-16.303 27.628-.134 2.776-.156 5.53-.134 8.31l-.061 2.802c.008 11.721 5.03 20.465 12.498 29.26 6.107 5.443 14.632 6.479 22.625 6.336 3.91-.553 7.444-1.984 11.09-3.461C182 178 182 178 184 178c-1 3-1 3-3.11 4.352l-2.64 1.273-2.61 1.29c-9.963 4.097-18.93 1.74-28.64-1.915-5.547-2.476-9.512-4.902-13-10l-1.434-1.152c-5.474-6.458-7.38-19.478-6.996-27.684.93-6.846 2.62-13.504 4.43-20.164l.863-3.203c1.07-3.756 1.951-6.519 4.137-9.797h2l2-8h2l.777-1.809c3.17-5.681 9.732-8.964 15.801-10.722 7.542-1.46 14.61-1.127 21.422 2.531.75 2.563.75 2.563 1 5 1.972 1.179 1.972 1.179 4 2l.26-1.728c.388-2.57.783-5.14 1.178-7.71l.408-2.72.4-2.588.365-2.396C187 81 187 81 188 80z" fill="rgba(188, 188, 188, 1)" stroke="none"/>
  <path d="M115 12c1.79 1.605 1.79 1.605 3 3l-4-1-2 7-2.059-.492c-3.38-.584-6.573-.64-10.004-.633l-3.66-.008c-2.644.107-4.772.346-7.277 1.133-.315 1.833-.627 3.666-.938 5.5l-.527 3.094c-1.065 6.778-1.728 13.301-1.722 20.156l-.002 2.578c.067 8.623.783 17.178 1.473 25.77.956 12.634.914 25.24.716 37.902h2l.335 2.2c.508 3.309 1.024 6.617 1.54 9.925l.527 3.46.528 3.36.476 3.079c.539 3.037.539 3.037 1.66 6.104C96 147 96 147 96 151c-1.952 1.952-3.532 2.848-6 4l-1-5-3-1c-10.244-22.536-8.333-52.722-9.531-76.883a280.554 280.554 0 0 0-1.241-15.847c-.824-8.21.019-15.802 1.46-23.895.148-.883.296-1.766.45-2.675 1.191-6.239 3.06-14.035 8.554-17.886C87.5 11 87.5 11 91 10l2.375-.688c7.608-.905 14.517-.43 21.625 2.688z" fill="rgba(34, 34, 34, 1)" stroke="none"/>
  <path d="M242 191c4.673-.252 7.997.466 12.313 2.25l3.175 1.266C260 196 260 196 260.855 198.172L261 200c-4.781-.583-8.613-2.05-13-4-1.323-.373-2.652-.73-4-1v2l1.793.367c9.679 2.053 9.679 2.053 12.207 3.633 1.125 2.688 1.125 2.688 1 6-1.34 2.623-2.911 4.917-5 7h-2l-.57 1.738c-2.054 3.25-5.013 4.663-8.305 6.45l-1.895 1.076c-11.676 6.505-28.36 5.05-41.011 1.841-8.176-2.808-15.77-6.607-21.364-13.332-1.187-2.461-1.262-4.075-.855-6.773 1.645-1.73 1.645-1.73 3.813-3.188l2.144-1.48L186 199l3-2c2.5-.438 2.5-.438 5 0a258.928 258.928 0 0 1 3 5c7.278 6.631 14.189 9.474 24.043 9.238 3.859-.31 7.261-1.1 10.957-2.238v-2l1.68-.55 2.195-.762 2.18-.739c2.285-.912 2.285-.912 3.945-3.949.242-2.516.242-2.516.125-5.188l-.055-2.73L242 191z" fill="rgba(181, 181, 179, 1)" stroke="none"/>
  <path d="M36.059 149.527C42.706 151.146 47.386 158.66 51 164c1.847 3.26 3.453 6.59 5 10l.973 1.977C58.778 179.79 59.307 182.798 59 187l-3.438-.063c-3.378-.353-3.378-.353-4.562 1.063-3.62.294-5.877-.15-9-2l-1 3-3.25.313c-3.65.347-3.65.347-5.54 2.203-3.903 2.62-8.518 1.909-13.093 1.98L16 194c-1.51 1.916-1.51 1.916-2 4h-2c-.704-16.5 2.389-29.301 12-43 3.736-3.849 6.655-5.873 12.059-5.473z" fill="rgba(95, 95, 95, 1)" stroke="none"/>
  <path d="M253 295l2 1c-.066.768-.131 1.537-.2 2.328-.069 2.662-.069 2.662 1.493 4.156l1.894 1.266 2.204 1.504L263 307l3.11 2.277c5.3 3.868 10.255 7.311 16.663 9.059 2.628.783 4.996 1.874 7.477 3.039 10.277 4.73 19.303 8.398 30.75 8.625.163 4.488.023 8.405-1.008 12.785l-.559 2.407L319 347c-33.923-9.515-33.923-9.515-38-14-1.313-2.75-1.313-2.75-2-5h-3l-1-6-1.793.578c-2.439.684-4.678 1.23-7.207 1.422-2.75-1.938-2.75-1.938-5-4-2.322.128-2.322.128-5 1-1.622.19-3.248.355-4.875.5-2.874.27-5.704.584-8.563 1-4.839.68-9.694 1.086-14.562 1.5.836-4.349 1.282-6.453 4.875-9.188L236 313l2.25-2.25L240 309h2l1-3c2.438-2.688 2.438-2.688 5-5h2l.938-1.875L253 295z" fill="rgba(136, 136, 136, 1)" stroke="none"/>
  <path d="M257 294.688c2.95.307 4.19.852 6.75 2.187 15.385 7.045 36.587 4.736 53.25 5.125l1-4c.505 4.395 1.003 8.791 1.5 13.188l.434 3.775.41 3.642.38 3.349c.245 2.705.329 5.332.276 8.046-13.171 1.068-22.856-3.793-34.305-9.742-2.33-1.087-4.128-1.662-6.632-2.07-6.42-1.3-11.901-6.362-17.063-10.188l-2.578-1.89c-5.068-3.756-5.068-3.756-6.422-5.11-.125-2.5-.125-2.5 0-5 1-1 1-1 3-1.313z" fill="rgba(72, 72, 72, 1)" stroke="none"/>
  <path d="M257 319c2.917.315 4.57.601 6.75 2.625 3.613 2.208 7.218 1.09 11.25.375l1 6 3 1-5 1-.516 1.652c-1.812 5.639-4.012 10.971-6.484 16.348-.752 1.687-1.502 3.374-2.25 5.063L263 357l-1-2-3.688.25c-4.403 0-5.987-1.33-9.312-4.25a108.396 108.396 0 0 0-4.563-1.938c-4.067-1.699-5.693-3.61-8.437-7.062-1.96-.85-1.96-.85-4.125-1.5-2.113-.68-2.113-.68-3.875-1.5-1.313-2.625-1.313-2.625-2-5l-3-1c1.213-3.724 2.509-7.378 4-11l1 2 2.375-1c3.999-1.103 7.34-1.116 11.453-.973 2.22.13 2.22.13 4.172-1.027 2.591-.31 5.184-.51 7.785-.719 2.186-.048 2.186-.048 3.215-1.281z" fill="rgba(73, 73, 73, 1)" stroke="none"/>
  <path d="M313 262h1l2 29c-6.833 3.417-19.53 1.792-26.766.14-2.506-.924-4.868-1.905-7.234-3.14-2.79-1.395-5.466-1.455-8.563-1.813-6.123-.845-11.038-2.22-16.437-5.187l-2.102-1.148A222.614 222.614 0 0 1 250 277v-7c7.28-.126 7.28-.126 10.688.469 4.224.677 8.418.886 12.687 1.094l2.52.13c2.035.106 4.07.207 6.105.307v-2l1.804-.26c2.691-.389 5.381-.783 8.071-1.177l2.84-.409 2.715-.4 2.507-.365c2.116-.302 2.116-.302 4.063-1.389 1.54-.07 3.083-.085 4.625-.063l2.477.028L313 266v-4z" fill="rgba(72, 72, 72, 1)" stroke="none"/>
  <path d="M157 288v5c-48.716 26.318-48.716 26.318-65.813 26.063l-2.394-.028L87 319c2.458-10.067 5.079-20.055 8-30l1.793 1.922c5.51 5.189 14.017 4.497 21.14 4.398 8.248-.473 16.154-3.133 24.012-5.511l3.743-1.122 3.324-1.05c3.091-.66 4.978-.502 7.988.363z" fill="rgba(72, 72, 72, 1)" stroke="none"/>
  <path d="M206 154c3.48-.029 6.958-.047 10.438-.063l3.01-.025 2.86-.01 2.65-.016C227 154 227 154 228 155c.928 6.228-1.248 9.8-4.492 15.059L222 172h-2c.111 3.5.241 7 .375 10.5.03.982.062 1.965.094 2.977.231 5.793.9 10.956 2.531 16.523 1.77.081 3.541.14 5.313.188l2.988.105c2.707-.067 2.707-.067 4.523-1.621 1.878-2.67 1.693-4.508 1.176-7.672-2.378-2.404-2.378-2.404-5-4l1-4c3.488.258 4.242 1.265 6.688 3.938 3.282 4.347 3.87 6.566 3.312 12.062-2.565 3.47-4.106 4.78-8.313 5.813L232 207v2c-7.657 3.534-15.105 4.725-23.227 1.863-5.918-2.797-10.609-5.798-14.773-10.863-1.05-3.15-1.101-5.388-1.063-8.688l.028-3.011L193 186l4-2c.855 2.672.979 4.582.875 7.438.139 3.953.462 5.642 3.125 8.562 3.893.973 6.179 1.274 10 0 1.155-2.471 1.155-2.471 2-5l1-1a87.92 87.92 0 0 0 .316-4.91l.127-2.998.12-3.155.13-3.166c.107-2.59.209-5.18.307-7.771l-1.84-.852c-2.957-1.572-4.89-3.703-7.16-6.148l-1.875-2c-1.125-2-1.125-2-.813-4.75L204 156h2v-2z" fill="rgba(22, 22, 22, 1)" stroke="none"/>
  <path d="M305 222h1l.26 1.833c.391 2.764.784 5.528 1.177 8.292l.409 2.883c.665 4.674 1.347 9.34 2.154 13.992h-4v2c-10.76 4.436-22.096 5.859-33.533 7.583-2.418.373-2.418.373-4.559.956-3.257.787-6.575.687-9.908.711l-2.156.063c-3.32.024-5.472-.088-8.344-1.829L246 257l1-5c4.105-1.396 8.196-2.777 12.375-3.938 14.372-4.212 28.3-10.494 39.645-20.433 1.916-1.577 3.722-2.62 5.98-3.629v-2z" fill="rgba(72, 72, 72, 1)" stroke="none"/>
  <path d="M320 48c.487 10.593-.145 20.705-1.813 31.188l-.5 3.218c-.948 5.618-2.162 10.48-4.687 15.594-3.868-1.556-6.06-3.98-8.813-7.063l-1.333-1.485a137.053 137.053 0 0 1-7.416-9.14C291.851 75.56 287.562 71.796 283 68c1.423-3.575 2.927-4.861 6.313-6.625l2.3-1.227C294 59 294 59 296.453 58.035c2.794-1.135 5.35-2.504 7.985-3.972l2.906-1.598L310 51c5.5-3 5.5-3 10-3z" fill="rgba(184, 127, 116, 1)" stroke="none"/>
  <path d="M113 252l1 3c2.106.806 2.106.806 4.563 1.188l2.503.48L123 257v2c15.666 1.98 31.214 3.514 47 4l1 5c-3.895 2.857-7.55 3.675-12.207 4.473-2.171.41-4.323.926-6.461 1.484-16.084 4.082-33.907 5.78-50.332 3.043a217.844 217.844 0 0 1 4.164-9.863l1.211-2.686 1.25-2.764 1.273-2.822c1.033-2.289 2.067-4.577 3.102-6.865z" fill="rgba(72, 72, 72, 1)" stroke="none"/>
  <path d="M290 110c3.487 1.11 6.775 2.263 10 4v2l1.766.379c2.227.619 3.962 1.452 5.984 2.558 9.237 4.636 22.191 6.304 32.25 3.063-.433 1.96-.872 3.917-1.313 5.875l-.738 3.305c-2.34 9.422-5.465 18.633-8.431 27.873-1.588 4.962-3.122 9.927-4.518 14.947-.96-2.882-1.106-4.699-1.063-7.688l.028-2.449L324 162c-6.742-1.258-13.135-2.264-20-2-.042-2.333-.04-4.667 0-7 1.695-1.695 3.81-1.172 6.125-1.188 4.696.031 8.466.62 12.875 2.188l1-5h-2c-1.435-2.487-2.049-4.312-2.5-7.188L319 139l-2-1c-.625-2.563-.625-2.563-1-5h-2l-1-3c-2.326-1.725-4.59-2.867-7.344-3.762-8.18-2.722-11.022-7.041-14.812-14.52L290 110z" fill="rgba(102, 102, 102, 1)" stroke="none"/>
  <path d="M108 49c5.73.559 10.827 1.641 16.25 3.563l2.219.784C133.279 55.885 139.46 59.224 145 64l1 3c-7.41 5.238-14.897 10.36-22.398 15.468l-2.407 1.641c-.711.485-1.422.97-2.155 1.468a90.924 90.924 0 0 0-4.177 3.104C113 90 113 90 111 90c-2.779-13.706-3.14-27.071-3-41z" fill="rgba(184, 127, 117, 1)" stroke="none"/>
  <path d="M135 357c-1.025 12.818-4.913 22.828-12.172 33.234-2.012 2.492-2.012 2.492-1.828 4.766a296.06 296.06 0 0 1-5-2l-1.914-.777C105.953 388.777 96.855 384.787 91 378v-2l-2-1c2.387-1.337 4.504-2.133 7.168-2.836 4.124-1.156 7.786-2.955 11.582-4.914l2.104-1.067a364.24 364.24 0 0 0 14.912-8.054c3.763-1.902 6.193-2.428 10.234-1.129z" fill="rgba(71, 71, 71, 1)" stroke="none"/>
  <path d="M72 268h7c1.182 3.37 2.343 6.747 3.5 10.125l1.012 2.883c3.903 11.472 1.112 19.298-2.637 30.43l-.84 2.505c-.677 2.02-1.356 4.038-2.035 6.057-2.394-2.907-3.66-5.49-4.813-9.063C69.291 299.908 63.31 290.31 55 282c-.04-2.333-.042-4.667 0-7l5-1v-2c1.625-.336 3.25-.668 4.875-1l2.742-.563C70 270 70 270 72 270v-2z" fill="rgba(95, 95, 95, 1)" stroke="none"/>
  <path d="M199 371c.117 3.333.188 6.666.25 10l.102 2.832c.101 7.282-1.301 12.552-6.04 18.168-3.772 1.631-7.284 1.731-11.312 1-8.939-5.609-15.795-17.092-19-27v-3l10-1v2l2.171-.275c3.235-.41 6.47-.817 9.704-1.225l3.418-.434 3.262-.41 3.015-.38C197 371 197 371 199 371z" fill="rgba(73, 73, 73, 1)" stroke="none"/>
  <path d="M128 223l1.75 1.875c2.052 1.938 3.684 3.025 6.25 4.125v2c.568.182 1.137.364 1.723.55 3.699 1.205 7.273 2.448 10.84 4.012 3.015 1.261 5.904 2.099 9.074 2.856 9.132 2.25 16.864 4.77 24.363 10.582l-1 5c-7.625-.875-7.625-.875-11-2a78.603 78.603 0 0 0-4.324-.21l-2.595-.081-2.768-.084c-8.19-.31-15.905-1.248-23.915-2.938a70.452 70.452 0 0 0-8.523-1.187c-3.915-.505-6.496-1.507-9.875-3.5l4-10h2l.313-2.125c.78-3.266 2.108-5.922 3.687-8.875z" fill="rgba(72, 72, 72, 1)" stroke="none"/>
  <path d="M83 333l1 2 3.656-.016c4.46-.018 8.92-.03 13.379-.039 1.933-.005 3.866-.012 5.8-.02 2.772-.013 5.545-.018 8.317-.023l2.636-.015c2.071 0 4.142.05 6.212.113 1 1 1 1 1.375 3.312C125 341 125 341 123.125 342.875L120 345l-2.488 1.805C110.303 352 110.303 352 108 352v2c-1.664.713-3.328 1.426-4.992 2.137-1.3.559-2.597 1.123-3.89 1.695-5.742 2.523-9.8 3.406-16.118 3.168-1.947-1.947-1.133-4.863-1.137-7.451l.012-2.612-.012-2.529c.008-5.225.384-10.237 1.137-15.408z" fill="rgba(71, 71, 71, 1)" stroke="none"/>
  <path d="M307 165l5 1c1.057 2.693 1.052 3.847.102 6.629C305.804 185.139 297.34 194.844 286 203h-2v2c-1.977 1.508-1.977 1.508-4.625 3.125l-2.602 1.633C274 211 274 211 268 211l1-21c3.162-1.58 5.109-2.354 8.438-3 3.375-.698 6.37-1.686 9.562-3h3l1-3a111.262 111.262 0 0 1 5.25-4.25c4.517-3.59 7.731-6.857 10.75-11.75z" fill="rgba(80, 80, 80, 1)" stroke="none"/>
  <path d="M122 171c3.95.48 6.996 1.853 10.5 3.688 13.48 6.889 24.326 11.351 39.5 12.312-.374 7.6-2.576 13.24-6 20-4.907.165-7.707-.547-12-3v-2l-2.188-.313c-3.09-.755-5.23-1.842-7.812-3.687v-2l-2.875-.75c-3.558-1.423-3.677-1.941-5.125-5.25l-1.73-.828c-2.989-1.543-5.052-3.577-7.458-5.922l-2.667-2.547c-2.396-3.02-2.954-4.889-3.145-8.703l1-1z" fill="rgba(81, 81, 81, 1)" stroke="none"/>
  <path d="M198 75c1.875.25 1.875.25 4 1 1.916 2.792 2.304 5.357 2.563 8.688.032 2.954.032 2.954 1.437 5.312.577 3.355 1.03 6.722 1.5 10.094.192 2.79.192 2.79 1.5 3.906.072 1.853.084 3.708.063 5.563l-.028 3.066L209 115h2l1.688 2.563L215 120c3.7-.064 3.7-.064 7-1l3-10h2l-.125-3.875c-.008-5.235.486-10.367 1.063-15.563l.263-2.403c.37-3.19.78-6.103 1.799-9.159l3 1v38l5 2v1h-5v2l-2 1c-.652 2.025-.652 2.025-1 4h-2l-1 4c-1.412.392-2.83.763-4.25 1.125l-2.39.633c-2.78.285-4.019-.308-6.36-1.758v-2h-2v-2h-2c-1.021-.979-2.02-1.98-3-3l-2-1 .625-2.188c.448-3.359-.33-4.716-1.625-7.812a89.516 89.516 0 0 1-.563-4.25c-.02-3.54-.02-3.54-1.437-4.75-.35-1.534-.655-3.078-.938-4.625-.571-3.043-1.205-5.803-2.187-8.75-1.257-5.208-1.033-10.294-.875-15.625z" fill="rgba(102, 102, 102, 1)" stroke="none"/>
  <path d="M261 282l1.871.621c4.227 1.345 8.193 2.5 12.629 2.817 5.263.44 9.7 2.483 14.5 4.562 3.06 1.02 5.124 1.115 8.324 1.098l3.115-.01 3.248-.026 3.284-.013c2.676-.012 5.353-.028 8.029-.049 1.203 2.405 1.1 3.95 1.063 6.625l-.028 2.477L317 302c-44.424.547-44.424.547-55.262-5.113-2.182-1.114-4.317-1.575-6.738-1.887 1.185-2.568 2.502-4.723 4.125-7.063 2.144-2.778 2.144-2.778 1.875-5.937z" fill="rgba(136, 136, 136, 1)" stroke="none"/>
  <path d="M306 249h5c2.296 11.522 2.296 11.522 2 17l-3.875.375a95.046 95.046 0 0 0-9.938 1.625c-5.687 1.2-11.395 1.622-17.187 2v2c-10.577.214-20.582.061-31-2v-1l10-1v2l7 1v-11l-2-1 4.878-.914 4.283-.806c3.771-.711 7.544-1.409 11.323-2.077l2.168-.39c2.006-.359 4.013-.713 6.02-1.067 2.844-.638 4.776-1.453 7.328-2.746h4v-2z" fill="rgba(136, 136, 136, 1)" stroke="none"/>
  <path d="M131 119c1.636 3.273.03 6.49-.875 9.875l-.566 2.184a412.889 412.889 0 0 1-2.116 7.923c-.463 2.11-.557 3.97-.54 6.127l.01 2.286c.007.777.016 1.554.025 2.355l.013 2.402c.012 1.95.03 3.899.049 5.848-3.078-1.178-5.9-2.48-8.75-4.125-4.384-2.217-8.404-2.718-13.25-1.875-2.322 1.447-2.322 1.447-4 3l-3-1c-1.15-3.781-1.45-5.863.023-9.586 3.271-5.901 5.646-8.304 11.977-10.414l1.77-1.816c2.774-2.717 5.905-4.42 9.293-6.246 5.427-2.851 5.427-2.851 9.937-6.938z" fill="rgba(136, 136, 136, 1)" stroke="none"/>
  <path d="M240.438 174.125L243 175v1h-14v2l2.422-.105c7.737-.191 15.387-.072 22.578 3.105 2.25 3.188 2.25 3.188 3 6l-2.047-.621-2.703-.816-2.672-.81L247 184l-1.875-.563c-3.109-.64-6.21-.794-9.375-1l-3.828-.253L229 182v2l2.676-.14c8.453-.255 14.593.873 22.324 4.14 2.32.738 4.646 1.372 7 2v4l-3.625-1.313c-5.38-1.818-10.863-2.877-16.434-3.94C238 188 238 188 236 186h-3l-1 3 1.875.875C236 191 236 191 238 193c.459 3.518.411 5.349-1.5 8.375-3.687 2.397-6.134 1.971-10.5 1.625-3-1-3-1-4.676-4.344-1.828-5.341-1.654-10.57-1.512-16.156l.042-3.07c.035-2.477.084-4.953.146-7.43 6.515-3.257 14.05.034 20.438 2.125z" fill="rgba(176, 176, 175, 1)" stroke="none"/>
  <path d="M117 244c5.875.875 5.875.875 7 2 1.424.284 2.86.514 4.297.719l2.656.386 2.797.395 5.422.781 2.44.346c1.632.255 3.257.557 4.872.898 2.56.483 4.997.68 7.598.791l2.822.127 2.909.12 2.966.13c2.407.106 4.814.208 7.221.307l-1.922 1.734c-2.126 2.318-2.725 3.499-3.328 6.516L164 263c-13.268.566-28.328.224-41-4v-2l-9-2c.551-3.95 1.39-7.35 3-11z" fill="rgba(135, 135, 135, 1)" stroke="none"/>
  <path d="M270 359h2l1.465 14.648.27 2.666c.179 1.817.351 3.635.517 5.454l.248 2.67.215 2.394c.378 2.875 1.223 5.477 2.285 8.168-10.367 5.134-21.545 6.178-33 6l1.031-1.293c7.65-9.868 13.655-20.78 19.644-31.703l1.223-2.23 1.084-1.987c.934-1.64 1.972-3.218 3.018-4.787z" fill="rgba(133, 133, 133, 1)" stroke="none"/>
  <path d="M211 374h1l1 6 3-2c3.003-.135 3.003-.135 6.637.023l3.935.157 4.115.195c1.384.058 2.767.116 4.15.172 3.389.142 6.776.293 10.163.453 1.094 2.316 1.094 2.316 2 5-3.011 5.897-7.672 11.252-13.813 13.938-5.874 1.886-10.917.945-16.562-1.25-4.954-5.073-5.775-12.521-5.813-19.438L211 374z" fill="rgba(71, 71, 71, 1)" stroke="none"/>
  <path d="M215 172c.117 3.541.187 7.082.25 10.625l.102 3.027c.08 6.131-.19 9.721-4.352 14.348-3 2-3 2-6.438 2-3.562-1-3.562-1-6-3.438-1.808-4.124-1.85-7.055-1.605-11.488L197 185c-1.522-1.522-2.88-1.243-5-1.313-4.696.016-8.033 1.378-12.152 3.536L178 188l-2-1c8.561-6.05 14.475-8.374 25-8v-2h-10l4-2 2.938-1.563c5.073-2.381 11.798-4.069 17.062-1.437z" fill="rgba(178, 178, 177, 1)" stroke="none"/>
  <path d="M59 185c1.882 3.263 2.585 6.263 3 10-1.906 1.906-5.397 1.268-7.938 1.375-5.693.293-10.815 1.116-16.207 3.004C36 200 36 200 34 200l-.5 1.813c-2.348 3.423-5.55 4.258-9.5 5.187-2.728.217-5.257.147-8 0l-2 5h-1c-1.183-4.586-1.65-9.299-1-14 2.198-3.032 3.45-3.817 7-5 2.768-.228 5.535-.38 8.309-.523 3.038-.538 4.312-1.587 6.691-3.477a352.51 352.51 0 0 1 7-1l1-2 1.934.254 2.504.309 2.496.316L51 187l1-1c2.34.287 4.674.62 7 1v-2z" fill="rgba(73, 73, 73, 1)" stroke="none"/>
  <path d="M68 219c1.784 3.062 2.229 5.22 2.125 8.75l-.055 2.422L70 232c-.724-.095-1.449-.19-2.195-.29-7.609-.94-7.609-.94-14.805 1.29l-3 2.563c-3 2.437-3 2.437-6.188 2.875L41 239c-1.935 2.95-1.935 2.95-3 6h-6v5c-4.244-3.88-7.11-8.043-10-13l7-1 .625-2.25c1.778-3.556 3.822-5.174 7.375-6.75 3.015-.881 6.03-1.618 9.098-2.29 2.892-.627 2.892-.627 5.457-1.784 2.677-1.014 4.657-1.162 7.508-1.113l2.535.019c2.255.158 4.235.542 6.402 1.168v-4z" fill="rgba(72, 72, 72, 1)" stroke="none"/>
  <path d="M36.059 149.527c6.696 1.63 11.23 9.151 14.941 14.473 3 5.323 3 5.323 3 8h-3v-2h-2l-1-4-5 1v3h-3l-.688-2.438L38 165c-2.548-.894-2.548-.894-5-1l-1 5-8 1-1 3-2.875.375c-3.212.342-3.212.342-5.125 2.625.479-5.425 1.907-9.413 4.688-14.125l.99-1.8c3.524-6.107 7.863-11.104 15.38-10.548z" fill="rgba(132, 132, 132, 1)" stroke="none"/>
  <path d="M71 232c1.158 3.473 1.069 6.36 1 10h-2v2c-2.875.188-2.875.188-6 0l-2-3h-4l-.75 2.813c-1.35 3.442-1.913 4.654-5.25 6.187-3.75-.313-3.75-.313-7-1l-.688 1.875c-1.718 2.782-3.222 3.22-6.312 4.125-3 0-3 0-4.688-1.625-1.634-2.957-1.539-5.047-1.312-8.375l2.813-.125L38 244l1.375-2.938C41 238 41 238 42.781 237.337c1.409-.268 2.819-.526 4.23-.774 3.136-.886 4.793-3.247 6.989-5.562 5.516-2.032 11.424-.183 17 1z" fill="rgba(134, 134, 134, 1)" stroke="none"/>
  <path d="M278 342h3c1.727 1.941 1.727 1.941 3.625 4.563 3.924 5.109 8.175 8.701 13.375 12.437l2.813 2.313A28.866 28.866 0 0 0 307 365v2l3 1c-.503 4.401-2.088 6.712-5 10-4.843-.44-6.845-2.397-10.16-5.84l-1.43-1.46a641.52 641.52 0 0 1-4.473-4.638c-1.49-1.545-2.983-3.088-4.483-4.625-1.36-1.396-2.71-2.8-4.06-4.206-2.108-1.965-3.752-3.151-6.394-4.231.607-4.128 2.038-7.332 4-11z" fill="rgba(134, 134, 134, 1)" stroke="none"/>
  <path d="M138 107l-1 4h-2l-.813 2.188c-3.996 9.466-11.475 13.087-20.34 17.636-2.152 1.195-2.152 1.195-3.847 4.176l-3.25 1c-5.544 2.104-7.405 7.941-9.75 13-4.696-4.696-4.528-11.718-5-18l9-1v-2l3.813-1.438 2.144-.808c1.67-.616 3.355-1.191 5.043-1.754v-2l2.125-.75c3.026-1.215 3.026-1.215 6.063-3.375C123 116 123 116 125 116v-2a97.457 97.457 0 0 1 5-3l3.188-2.188C136 107 136 107 138 107z" fill="rgba(72, 72, 72, 1)" stroke="none"/>
  <path d="M188 80l3 1a78.78 78.78 0 0 1 2.063 7.75c.32 1.433.645 2.865.972 4.297l.418 1.932c.522 2.123.522 2.123 1.59 4.427 1.052 2.85 1.215 5.014 1.223 8.043l.007 3.069-.023 3.17.023 3.205-.007 3.056-.007 2.792C197 125 197 125 195 127l-1.187-2-1.813-3-.996-1.832c-2.423-4.25-4.956-7.12-8.754-10.23-2.98-2.496-4.783-4.01-5.312-7.938l.062-3c4 0 4 0 7 1l.26-1.728c.388-2.57.783-5.14 1.178-7.71l.408-2.72.4-2.588.365-2.396C187 81 187 81 188 80z" fill="rgba(191, 191, 191, 1)" stroke="none"/>
  <path d="M178 121c2.81 1.794 4.51 3.019 6 6 .724 5.526.997 10.558-2.438 15.188-2.543 2.489-4.517 3.349-8.062 3.625-4.209-.37-6.732-1.695-9.473-4.899-1.908-3.555-1.657-7.017-1.027-10.914 1-3.063 1-3.063 2-5h2v-2c3.685-2.457 6.72-2.7 11-2z" fill="rgba(245, 245, 245, 1)" stroke="none"/>
  <path d="M251.86 277.277c2.398.81 4.27 1.907 6.39 3.286l2.14 1.378L262 283c-1.497 4.49-3.834 8.478-7 12h-2l-.836 1.793c-3.13 5.934-8.27 10.355-13.332 14.629-1.851 1.54-1.851 1.54-3.445 3.281C234 316 234 316 232 316c.666-3.942 1.836-7.453 3.285-11.176l1.358-3.506 1.42-3.63 1.431-3.69c1.165-3 2.334-6 3.506-8.998h4l.375-3.438L248 278c2-1 2-1 3.86-.723z" fill="rgba(179, 179, 179, 1)" stroke="none"/>
  <path d="M298 123c5.96 1.555 11.233 2.986 16 7v3h2l1 5 3 1 2 10h2l-1 5-18-2-1-16h-2c-.67-1.79-1.336-3.582-2-5.375l-1.125-3.023C298 125 298 125 298 123z" fill="rgba(136, 136, 136, 1)" stroke="none"/>
  <path d="M63 196v8l-2.45-.324-3.237-.363-3.2-.387c-3.653.087-5.065 1.166-8.113 3.074-2.973.441-2.973.441-6.063.563-3.87.16-6.584.435-9.937 2.437v4l-9 1-3 7h-3c-.836-2.928-1.162-5.582-1.188-8.625l-.042-2.352C14 208 14 208 16 206c1.925.033 3.85.068 5.773.113 4.637-.236 8.911-1.71 12.102-5.113 5.699-5.364 22.033-8.546 29.125-5z" fill="rgba(136, 136, 136, 1)" stroke="none"/>
  <path d="M206 154c3.48-.029 6.958-.047 10.438-.063l3.01-.025 2.86-.01 2.65-.016C227 154 227 154 228 155c.928 6.228-1.248 9.8-4.492 15.059L222 172h-2v17h-1v-17l-2-1-1-1v13h-1v-11l-4-2c-2.563-2.375-2.563-2.375-5-5l-1.875-2c-1.125-2-1.125-2-.813-4.75L204 156h2v-2z" fill="rgba(35, 30, 29, 1)" stroke="none"/>
  <path d="M167.125 81.75l2.57-.016C172 82 172 82 175 84v2h2l1 7-2.813-1c-9.13-2.535-17.798-1.26-26.187 3-3.23 2.237-6.222 4.444-8 8h-2l-.266 1.832c-.939 2.773-1.998 3.374-4.484 4.856l-2.047 1.261c-2.394 1.142-4.592 1.636-7.203 2.051 5.482-11.45 5.482-11.45 12-14 2.154-2.401 2.154-2.401 4-5 2.975-3.348 5.913-5.186 9.938-7.125l3.09-1.508c4.546-2.091 8.035-3.648 13.097-3.617z" fill="rgba(137, 137, 137, 1)" stroke="none"/>
  <path d="M234 331c4.484-.025 8.968-.043 13.452-.055 1.525-.005 3.05-.012 4.574-.02 2.195-.013 4.389-.018 6.583-.023l4-.016c2.7.09 4.841.295 7.391 1.114 1.388 6.055.491 9.32-2 15-7.522-1.072-13.346-3.43-20-7-3.174-1.53-6.35-3.054-9.531-4.57C236 334 236 334 234 331z" fill="rgba(134, 134, 134, 1)" stroke="none"/>
  <path d="M72.719 257.582C75 258 75 258 77.063 260.188c.87 2.61 1.548 5.088 1.937 7.812h-7v2c-1.625.336-3.25.668-4.875 1l-2.742.563C62 272 62 272 60 272v2l-5 1v6c-2.507-2.326-4.322-4.827-6.188-7.688l-1.605-2.449L46 269h2l2-5h3v-2l3.75-.313c2.741-.228 3.996-.49 6.2-2.199 3.168-2.3 5.964-2.023 9.769-1.906z" fill="rgba(71, 71, 71, 1)" stroke="none"/>
  <path d="M290 110c3.487 1.11 6.775 2.263 10 4v2l1.766.379c2.227.619 3.962 1.452 5.984 2.558 9.747 4.892 21.667 5.709 32.25 3.063l-3 13-1-4-3.148.07c-16.171.253-16.171.253-22.852-2.07l-2-2a165.652 165.652 0 0 0-4.75-1.563c-7.374-2.823-9.934-8.682-13.25-15.437z" fill="rgba(74, 74, 74, 1)" stroke="none"/>
  <path d="M223 333c1.938.125 1.938.125 4 1l.75 2.375c.95 2.712.95 2.712 3.008 3.445 1.43.46 2.863.915 4.297 1.368 2.834 1.183 4.05 3.444 5.945 5.812 1.984.914 3.98 1.576 6.059 2.246C249 350 249 350 251.5 352.125c3.49 2.617 6.186 2.583 10.5 2.875l-1 4c-4.495 1.328-7.556.572-12-.75l-3.625-1.047C242 356 242 356 239.512 354.503c-4.148-2.482-8.818-3.552-13.43-4.929C223 348 223 348 221.555 345.102c-.74-4.137-.323-6.983.445-11.102l1-1z" fill="rgba(132, 132, 132, 1)" stroke="none"/>
  <path d="M260 124c3.438 1.938 3.438 1.938 6 5 1 3.887.939 7.346-1.066 10.879-1.754 2.172-3.424 3.866-5.934 5.121-6.156.456-6.156.456-9.313-1.25-2.88-2.988-3.586-4.974-4.125-9.125.581-4.81 2.052-6.239 5.438-9.625 3.15-1.575 5.52-1.348 9-1z" fill="rgba(243, 243, 243, 1)" stroke="none"/>
  <path d="M191.938 327.625L194 328v6l-1.938.375L190 335l-1 2c-2.322.407-4.657.744-7 1l-.625 2.313c-1.84 3.594-3.677 4.193-7.375 5.687l-2.875.813c-3.645 1.385-6.117 3.393-9.156 5.789-2.503 1.777-5.004 2.657-7.969 3.398-2-2-2-2-2.438-4.438.438-2.562.438-2.562 2.625-4.25C157 346 157 346 159.688 345.125c2.561-.956 2.561-.956 3.625-3.75L164 339l7-1 1-3 1.941-.008c6.183-.276 9.142-1.345 13.52-5.691C189 328 189 328 191.937 327.625z" fill="rgba(133, 133, 133, 1)" stroke="none"/>
  <path d="M253 367h3c-1.433 3.96-3.331 7.287-5.625 10.813l-1.914 2.957L247 383l-2-4c-4.057-.05-8.113-.086-12.17-.11a781.49 781.49 0 0 1-4.138-.04 818.26 818.26 0 0 0-5.958-.045l-3.618-.032c-2.974.217-4.62.665-7.116 2.227v-7c3.92-.597 7.797-1.066 11.75-1.375 3.744-.345 7.092-1.095 10.688-2.188 4.915-1.456 9.247-1.633 14.347-1.347 2.425.152 2.425.152 4.215-2.09z" fill="rgba(133, 133, 133, 1)" stroke="none"/>
  <path d="M154 115l2 1-1.137 1.328c-7.398 9.17-10.792 18.26-10.343 30.113 1.063 7.88 4.513 13.435 10.636 18.403 5.723 3.589 11.249 3.912 17.844 3.156 4.743-1.506 8.469-3.57 11-8l2 1c-5.037 6.485-9.483 11.285-17.895 12.375-6.393.257-12.157-.012-17.105-4.375-8.304-10.18-10.948-18.996-10-32 1.344-9.117 6.561-16.561 13-23z" fill="rgba(229, 229, 229, 1)" stroke="none"/>
  <path d="M215 169l4 2 .184 3.55a8465.475 8465.475 0 0 0 .386 7.245c.299 5.4.722 10.766 1.344 16.139C221 200 221 200 220 203h-2l-2-2-2.375 2.5c-3.565 2.948-6.672 3.282-11.215 3.063-3.955-.924-6.214-3.232-8.41-6.563-1.05-3.15-1.101-5.388-1.063-8.688l.028-3.011L193 186l4-2c.855 2.672.979 4.582.875 7.438.139 3.953.462 5.642 3.125 8.562 3.893.973 6.179 1.274 10 0 1.155-2.471 1.155-2.471 2-5l1-1c1.3-8.262 1.11-16.664 1-25z" fill="rgba(9, 9, 9, 1)" stroke="none"/>
  <path d="M272 116c3 0 3 0 5.313 1.938 8.132 8.697 12.232 17.761 12.062 29.624l.035 2.46c-.038 7.843-2.335 13.591-7.7 19.4-5.832 5.38-11.81 6.332-19.64 6.105-4.629-.795-7.206-2.905-10.07-6.527l-2-3 1-3 1.426 1.277 1.887 1.66 1.863 1.653c4.097 3.167 8.89 2.873 13.824 2.41 2.794-.755 5.38-1.777 8-3l2.121-.863c3.011-1.822 3.385-4.12 4.344-7.383 2.068-10.641 1.044-23.265-4.18-32.899-1.972-2.846-4.355-5.166-6.894-7.507L272 117v-1z" fill="rgba(229, 229, 229, 1)" stroke="none"/>
  <path d="M236 138h2c.878 4.575 1.122 8.973 1.25 13.625.528 11.33 4.453 20.493 12.75 28.375-3.37 1.124-4.437.585-7.684-.453-4.996-1.18-10.204-1.255-15.316-1.547v-2l11-1-8-2a559.991 559.991 0 0 1-.063-4.313l-.035-2.425C232 164 232 164 233 161c.2-1.517.363-3.039.5-4.563l.25-2.664L234 151c.163-1.813.33-3.625.5-5.438l.219-2.433C235 141 235 141 236 138z" fill="rgba(72, 72, 72, 1)" stroke="none"/>
  <path d="M180 321v2l-2.168.7c-15.544 4.565-15.544 4.565-28.832 13.3h-2a852.101 852.101 0 0 1-1.5-5.25l-.844-2.953C144 326 144 326 144 322c3.473-1.736 7.417-1.438 11.25-1.625l2.71-.136c7.426-.32 14.644-.035 22.04.761z" fill="rgba(135, 135, 135, 1)" stroke="none"/>
  <path d="M72 268h7c1.542 3.083 1.297 5.609 1 9-1.813 1.938-1.813 1.938-4 3h-3l-1 3-1.75-1.938C67.987 278.66 67.987 278.66 64 278l-2 9c-5.421-2.71-5.421-2.71-7-5-.188-3.688-.188-3.688 0-7l5-1v-2c1.625-.336 3.25-.668 4.875-1l2.742-.563C70 270 70 270 72 270v-2z" fill="rgba(134, 134, 134, 1)" stroke="none"/>
  <path d="M300 157l3 2c-1.274 8.406-5.037 15.011-11.652 20.328C287.5 182 287.5 182 285 182l-1 3c-7.532 1.697-14.355 2.853-22 1v-1l3-.734c12.664-3.174 21.104-6.225 29-17.266a155.091 155.091 0 0 0 2-6c2.125-2.375 2.125-2.375 4-4z" fill="rgba(187, 187, 187, 1)" stroke="none"/>
  <path d="M114 151c2.579.958 4.97 1.94 7.438 3.125l1.864.857c3.175 1.628 4.574 2.755 6.108 6.01C130 164 130 164 130 168c-3.588-1.333-6.836-2.83-10-5v-2a59.903 59.903 0 0 0-8.5-1.625c-.753-.095-1.506-.19-2.281-.29-2.35-.09-4.032.042-6.219.915l-1 3-2-7h-2c1.268-2.536 2.468-2.85 5-4 3.632-1.816 7.104-1.65 11-1z" fill="rgba(72, 72, 72, 1)" stroke="none"/>
  <path d="M253 85c10.342-.811 22.304 2.765 30.313 9.5C286 97 286 97 287 100c-2.333-.875-4.579-1.75-6.727-3.023C274.681 93.73 269.41 92.825 263 94c-3.54 2.6-5.137 5.124-7 9-1.857-6.114-3.428-11.585-3-18z" fill="rgba(135, 135, 135, 1)" stroke="none"/>
  <path d="M199 371v8c-4.805.074-9.61.129-14.417.165-1.635.015-3.27.035-4.906.061-2.348.037-4.696.054-7.044.067l-2.223.047c-2.062 0-2.062 0-5.41-.34-2-3-2-3-2-6l10-1v2l2.171-.275c3.235-.41 6.47-.817 9.704-1.225l3.418-.434 3.262-.41 3.015-.38C197 371 197 371 199 371z" fill="rgba(137, 137, 137, 1)" stroke="none"/>
  <path d="M194 128c3.677 3.3 5.409 5.108 6 10 .16 3.126.19 6.245.188 9.375l-.003 2.666c-.194 20.968-.194 20.968-4.185 24.959-2.625.125-2.625.125-5 0v-2l-3-1 1.375-1.25c6.457-6.954 5.921-17.65 5.813-26.5l-.002-3.074c-.027-4.549-.184-8.723-1.186-13.176z" fill="rgba(66, 66, 66, 1)" stroke="none"/>
  <path d="M310 151.75c5.518.043 9.933 1.166 15 3.25l5 2-5 17c-.96-2.882-1.106-4.699-1.063-7.688l.028-2.449L324 162c-6.742-1.258-13.135-2.264-20-2-.042-2.333-.04-4.667 0-7 1.679-1.679 3.7-1.212 6-1.25z" fill="rgba(76, 76, 76, 1)" stroke="none"/>
  <path d="M85 289h1c.385 7.897-2.637 15.052-5.125 22.438l-.84 2.505c-.677 2.02-1.356 4.038-2.035 6.057-2.502-3.024-3.846-5.861-5.125-9.563l-1.008-2.878c-.627-1.852-1.249-3.705-1.867-5.559 2.82-4.231 6.024-4.659 10.75-6.313 3.47-1.33 3.47-1.33 4.188-4.375L85 289z" fill="rgba(71, 71, 71, 1)" stroke="none"/>
  <path d="M50 197l-3.625 1.375-2.207.848C42 200 42 200 38.688 200.813c-3.622 1.6-4.114 3.663-5.688 7.187l-3 1v4l-9 1-3 7h-3c-.836-2.928-1.162-5.582-1.188-8.625l-.042-2.352C14 208 14 208 16 206c1.925.033 3.85.068 5.773.113 4.637-.236 8.911-1.71 12.102-5.113 4.15-3.906 10.643-5.865 16.125-4z" fill="rgba(130, 130, 130, 1)" stroke="none"/>
  <path d="M196 349l1 10-3.113.184c-7.977.479-15.934 1.024-23.887 1.816l1-2h3v-2c2.724-1.345 5.453-2.676 8.188-4l2.33-1.156 2.275-1.094 2.079-1.016C191 349 191 349 196 349z" fill="rgba(136, 136, 136, 1)" stroke="none"/>
  <path d="M216 200l3.438 2.938 1.933 1.652c.899.778 1.788 1.57 2.629 2.41 1.347.23 2.704.412 4.063.563L232 208c-3.867 3.867-8.483 4.2-13.75 4.438-6.366-.072-10.904-2.126-16.25-5.438v-1l3.625-.188c4.782-.561 6.98-2.502 10.375-5.812z" fill="rgba(72, 72, 72, 1)" stroke="none"/>
  <path d="M239 75h2c1.007 2.935 2.005 5.873 3 8.813l.867 2.525.82 2.432.762 2.237C247 93 247 93 247 96h-5l-2 21h-1c-.8-5.495-1.092-10.677-.879-16.219l.072-2.252c.075-2.343.16-4.686.244-7.029.054-1.602.107-3.203.159-4.805.128-3.898.264-7.797.404-11.695z" fill="rgba(134, 134, 134, 1)" stroke="none"/>
  <path d="M146 178c2.245.55 4.473 1.132 6.7 1.754 10.346 2.8 16.999 3.178 27.015-.879C182 178 182 178 184 178c-1 3-1 3-3.11 4.352l-2.64 1.273-2.61 1.29c-9.845 4.048-19.056 1.875-28.64-1.915-2.39-1.637-2.39-1.637-4-3h3v-2z" fill="rgba(181, 181, 181, 1)" stroke="none"/>
  <path d="M215 354c3.313-.188 3.313-.188 7 0 1.003.997 2.003 1.997 3 3 2.163.75 2.163.75 4.5 1.125 2.617.497 4.962 1.029 7.5 1.875v2c-3.536 1.179-6.653 1.295-10.375 1.5-4.306.238-8.42.526-12.625 1.5-.143-7.429-.143-7.429 1-11z" fill="rgba(131, 131, 131, 1)" stroke="none"/>
  <path d="M195 184l3 1-.105 2.012c-.123 3.99-.15 7.253 1.167 11.05 2.77 2.77 5.11 2.733 8.938 2.938h3l-4 2v2l3 1c-8.544.912-8.544.912-11.965-1.23-4.165-4.125-5.183-7.46-5.222-13.333l-.043-2.94C193 186 193 186 195 184z" fill="rgba(15, 15, 14, 1)" stroke="none"/>
  <path d="M272.875 134.688c3.451.345 4.817.738 7.125 3.312.499 2.849.403 4.312-1.063 6.813-2.993 1.834-5.515 1.498-8.937 1.187-2-2-2-2-2.25-5.5.31-4.335.755-5.337 5.125-5.813z" fill="rgba(237, 237, 237, 1)" stroke="none"/>
  <path d="M233 152h1c.227 6.933-.58 13.217-2 20l-10-1 2.5-4c2.62-4.656 2.979-7.73 2.5-13h2l1 3 1.438-2.5L233 152z" fill="rgba(129, 129, 130, 1)" stroke="none"/>
  <path d="M208 158h16c-2.25 6.75-2.25 6.75-5 10-4.288-.476-6.266-1.659-9-5v-2h-2v-3z" fill="rgba(152, 115, 108, 1)" stroke="none"/>
  <path d="M225 387h19c-2.941 5.882-2.941 5.882-6 8-3.137.24-6.04.097-9-1-1.148-2-1.148-2-2-4l-2-1v-2z" fill="rgba(130, 130, 130, 1)" stroke="none"/>
  <path d="M243 168a769.34 769.34 0 0 1 3 5c1.933 2.393 3.954 4.703 6 7-3.37 1.124-4.437.585-7.684-.453-4.996-1.18-10.204-1.255-15.316-1.547v-2l11-1-8-2v-1h6v-2c3-2 3-2 5-2z" fill="rgba(128, 128, 128, 1)" stroke="none"/>
  <path d="M211 154c2.646-.027 5.292-.047 7.938-.063l2.287-.025c1.925-.009 3.85.036 5.775.088 1 1 1 1 1.313 4.125-.384 4.76-1.733 6.924-4.313 10.875l-2-1 2-10h-16l2-1 1-3z" fill="rgba(11, 7, 6, 1)" stroke="none"/>
  <path d="M272 116c3 0 3 0 5.313 1.938 6.337 6.777 11.824 15.057 11.875 24.562L289 146h-1l-1 5h-1l-.297-3.184c-1.177-11.501-3.068-19.552-11.215-28.187C273 118 273 118 272 116z" fill="rgba(203, 203, 203, 1)" stroke="none"/>
  <path d="M152.313 133.688c2.687.312 2.687.312 5.062 2C159 138 159 138 158.875 140.625 158 143 158 143 156 145c-2.5.25-2.5.25-5 0-2-2-2-2-2.23-3.91.138-6.942.138-6.942 3.542-7.403z" fill="rgba(235, 235, 235, 1)" stroke="none"/>
  <path d="M198 390c-.414 5.274-1.29 8.177-5 12-2.957 1.478-5.742 1.06-9 1v-3c2.082-1.973 2.082-1.973 4.813-4.063l2.707-2.097c5.176-3.84 5.176-3.84 6.48-3.84z" fill="rgba(134, 134, 134, 1)" stroke="none"/>
  <path d="M154 115l2 1-1.137 1.328c-6.552 8.12-10.37 16.795-10.527 27.297-.405 2.861-1.456 4.227-3.336 6.375-.609-14.39 1.83-22.785 11-34l2-2z" fill="rgba(190, 190, 190, 1)" stroke="none"/>
  <path d="M187 173h4v2c3.303.89 6.623 1.463 10 2v2l-2.852.297c-9.3 1.086-9.3 1.086-17.148 5.703h-3l1-3 2-.938c2.206-.882 2.206-.882 2.75-3.187L184 176h2l1-3z" fill="rgba(133, 133, 133, 1)" stroke="none"/>
  <path d="M193 189v8l-3.063 1.188c-5.258 2.255-9.74 5.017-12.937 9.812h-2c1.35-4.376 3.046-6.198 6.813-8.75l2.582-1.797c2.602-1.451 4.671-2.053 7.605-2.453v-4c-6.265 1.747-10.882 3.971-16 8 1.832-4.274 4.237-7.072 8.375-9.25 2.979-.851 5.542-.893 8.625-.75z" fill="rgba(81, 81, 81, 1)" stroke="none"/>
  <path d="M142 141h1l.516 2.344c2.045 8.79 4.483 15.797 10.484 22.656h-2l-1 3c-5.847-7.1-9.148-11.866-9.063-21.188l.028-3.855L142 141z" fill="rgba(217, 217, 217, 1)" stroke="none"/>
  <path d="M192 191v4l-2.012.953c-4.78 2.317-8.906 4.603-12.988 8.047h-2c.581-3.925 2.293-6.15 5-9 3.794-2.785 7.181-4.584 12-4z" fill="rgba(174, 174, 173, 1)" stroke="none"/>
  <path d="M193 185v4l-3.688.938-2.207.566c-2.105.496-2.105.496-4.98.871-2.31.411-2.31.411-3.25 2.625l-.875 2-3 1v-5h2v-2c5.506-3.496 9.408-5.701 16-5z" fill="rgba(174, 174, 174, 1)" stroke="none"/>
  <path d="M233 185c3.269.242 4.295 1.275 6.75 3.563 2.973 3.737 2.65 6.806 2.25 11.437h-2l-1 2c-1-1-1-1-1.25-4.813-.376-3.55-.588-4.029-3.313-6.687L232 189l1-4z" fill="rgba(9, 9, 9, 1)" stroke="none"/>
  <path d="M122 157c2.007.287 4.009.619 6 1 1.316 3.62 2 6.096 2 10-3.588-1.333-6.836-2.83-10-5v-2h-3v-2l1.938-.438c2.037-.372 2.037-.372 3.062-1.562z" fill="rgba(79, 79, 79, 1)" stroke="none"/>
  <path d="M171 388l1.61.496c2.929.618 5.648.599 8.64.567l3.266-.028L187 389c-3.382 3.68-6.425 5.979-11 8-5-5.625-5-5.625-5-9z" fill="rgba(126, 126, 126, 1)" stroke="none"/>
  <path d="M254 188c2.324.697 4.657 1.37 7 2v4l-3.625-1.313c-6.326-2.125-12.84-3.376-19.375-4.687v-1c6.185-2.504 10.193-1.991 16 1z" fill="rgba(171, 172, 170, 1)" stroke="none"/>
  <path d="M111 134l-3.625 1.313C101.599 138.119 99.557 143.381 97 149c-2.398-2.398-2.343-3.333-2.625-6.625l-.227-2.477L94 138c2.201-.734 4.403-1.467 6.605-2.195 1.954-.657 3.895-1.35 5.832-2.055C109 133 109 133 111 134z" fill="rgba(104, 104, 104, 1)" stroke="none"/>
  <path d="M279 180l2 1v2l4 1c-3.574 2.184-6.8 2.418-10.938 2.688l-3.652.261c-3.019.045-5.497-.214-8.41-.949v-1l3.21-.84 4.165-1.097 2.117-.553c3.848-.995 3.848-.995 7.508-2.51z" fill="rgba(168, 168, 168, 1)" stroke="none"/>
  <path d="M246 191c11.402 3.122 11.402 3.122 15 6v3c-6.227-.76-11.476-3.128-17-6l2-2v-1z" fill="rgba(175, 175, 173, 1)" stroke="none"/>
  <path d="M229 182c9.219-.491 17.598-.215 26 4l2 3c-3.16-.51-5.964-1.363-8.938-2.5-6.176-2.146-12.58-2.233-19.062-2.5v-2z" fill="rgba(88, 88, 87, 1)" stroke="none"/>
  <path d="M206 154h5l-1 3h-2v4h2l1 3-5 1c-1.563-1.688-1.563-1.688-3-4 .313-2.75.313-2.75 1-5h2v-2z" fill="rgba(21, 19, 18, 1)" stroke="none"/>
  <path d="M216.066 159.902l2.496.036 2.504.027L223 160c-1.188 3.438-1.188 3.438-3 7-2.688.938-2.688.938-5 1l-2-4h2v-2l-2-1c1-1 1-1 3.066-1.098z" fill="rgba(173, 125, 115, 1)" stroke="none"/>
  <path d="M223 160h1c.263 4.332-.708 7.88-2 12h-2v17h-1v-17l-2-1v-2h3l.375-2.25c.58-2.551 1.362-4.477 2.625-6.75z" fill="rgba(26, 20, 18, 1)" stroke="none"/>
  <path d="M188 80l3 1 1 10h-6c.14-1.646.287-3.292.438-4.938.08-.916.162-1.833.246-2.777C187 81 187 81 188 80z" fill="rgba(135, 135, 135, 1)" stroke="none"/>
  <path d="M239 188c7.34.481 16.135 1.533 21.82 6.633L262 196c-3.558-.445-6.642-1.2-9.938-2.563-3.88-1.54-6.914-1.696-11.062-1.437l-2-4z" fill="rgba(90, 90, 89, 1)" stroke="none"/>
  <path d="M237 123h1l1 5 2-2c1.516 3.975.499 7.205-.438 11.25l-.87 3.828L239 144h-1c-1.327-6.968-1.088-13.93-1-21z" fill="rgba(178, 178, 178, 1)" stroke="none"/>
  <path d="M77 307h4c-.549 4.571-1.417 8.674-3 13-1.96-2.206-2.942-3.535-3.313-6.5.324-2.586.992-4.271 2.313-6.5z" fill="rgba(132, 132, 132, 1)" stroke="none"/>
  <path d="M206 396c1.173.951 2.338 1.911 3.5 2.875l1.969 1.617L213 402v2h-10c.547-3.375 1.055-5.082 3-8z" fill="rgba(108, 108, 108, 1)" stroke="none"/>
  <path d="M138 107l-1 4h-2l-.875 2.313C133 116 133 116 131 119l-2-1c-.366-5.488-.366-5.488 1.25-7.75 2.512-1.794 4.607-3.25 7.75-3.25z" fill="rgba(76, 76, 76, 1)" stroke="none"/>
  <path d="M184 161l2 1c-3.88 4.833-7.07 8.686-13 11v-2h-9v-1l2.414-.297c6.196-.874 10.808-1.554 15.586-5.703l2-3z" fill="rgba(196, 196, 196, 1)" stroke="none"/>
  <path d="M199 138h1c.03 3.187.047 6.375.063 9.563l.025 2.712c.018 5.025-.225 9.773-1.088 14.725h-1l-1-16h2v-11z" fill="rgba(83, 83, 85, 1)" stroke="none"/>
  <path d="M108 49c5.64.705 9.791 1.372 15 3-4.52 1.456-7.516.27-12-1-1.105 3.315-1.321 6.204-1.563 9.688l-.253 3.574L109 67h-1V49z" fill="rgba(162, 121, 116, 1)" stroke="none"/>
  <path d="M184 352l2 1-3 1.813-3 2.187v3l-10 1 1-2h3v-2c1.62-.864 3.246-1.716 4.875-2.563l2.742-1.44L184 352z" fill="rgba(124, 124, 124, 1)" stroke="none"/>
  <path d="M189 195c2.125.938 2.125.938 4 2l-3.063 1.188c-5.258 2.255-9.74 5.017-12.937 9.812h-2c1.356-4.47 3.131-6.208 7-8.75l2.688-1.797C187 196 187 196 189 195z" fill="rgba(90, 90, 88, 1)" stroke="none"/>
  <path d="M196 183c-1.305 1.508-1.305 1.508-3 3l-3.125-.125c-4.69.151-7.072 1.661-10.957 4.129L177 191l-2-1c6.606-5.805 12.416-7.526 21-7z" fill="rgba(84, 84, 84, 1)" stroke="none"/>
  <path d="M246 180c5.373.176 5.373.176 8 1 2 3.063 2 3.063 3 6a948.71 948.71 0 0 1-4.75-1.375l-2.672-.773c-2.339-.773-4.412-1.688-6.578-2.852h3v-2z" fill="rgba(166, 166, 165, 1)" stroke="none"/>
  <path d="M107 49h1a347498046614388030 347498046614388030 0 0 0-1.879 13.672l.147-2.422.17-2.5.158-2.547c.129-2.068.266-4.136.404-6.203z" fill="rgba(57, 33, 29, 1)" stroke="none"/>
  <path d="M230 179h16v3l-16-1v-2z" fill="rgba(182, 182, 182, 1)" stroke="none"/>
  <path d="M221 206a98337777859174370 98337777859174370 0 0 0-.875 6.125L217 212l2-2.438c2.103-2.152 2.103-2.152 2-3.562z" fill="rgba(78, 78, 78, 1)" stroke="none"/>
  <path d="M201 178v1l-2.852.297c-9.3 1.086-9.3 1.086-17.148 5.703h-3c1-3 1-3 2.61-4.168 6.802-3.24 12.949-3.246 20.39-2.832z" fill="rgba(82, 82, 82, 1)" stroke="none"/>
  <path d="M285 64l2 1-1 3 5 2v2l2 1 2 3c-3.961 0-4.83-1.349-7.688-4l-2.449-2.25L283 68l2-4z" fill="rgba(171, 129, 121, 1)" stroke="none"/>
  <path d="M144 136l2 3h2l1-2 1 7-3 1-2-1v7h-1v-15z" fill="rgba(40, 40, 40, 1)" stroke="none"/>
  <path d="M272 116c3 0 3 0 5.375 2.063 2.838 3.176 5.216 6.427 7.625 9.937l-3 3-1.063-3.063c-1.699-4.05-4.319-6.606-7.511-9.554L272 117v-1z" fill="rgba(198, 198, 198, 1)" stroke="none"/>
  <path d="M253 367h3c-1.335 3.594-2.96 6.755-5 10l-3-3 1-2-2-2 2.438-.938c2.453-.825 2.453-.825 3.562-2.062z" fill="rgba(127, 127, 127, 1)" stroke="none"/>
  <path d="M244 195c6.635.355 10.632 2.131 16 6l-1 2-2.52-1.059-3.293-1.379-3.269-1.37A95.819 95.819 0 0 0 244 197v-2z" fill="rgba(83, 83, 82, 1)" stroke="none"/>
  <path d="M229 177c3.27-.087 6.541-.14 9.813-.188l2.814-.076 2.705-.029 2.491-.048c2.652.415 3.51 1.296 5.177 3.341-3.37 1.124-4.437.585-7.684-.453-4.996-1.18-10.204-1.255-15.316-1.547v-1z" fill="rgba(78, 78, 78, 1)" stroke="none"/>
  <path d="M94 164c2.272 2.091 3.691 4.023 5.043 6.793l1.064 2.158 1.08 2.237 1.116 2.271c.904 1.844 1.801 3.692 2.697 5.541-4.14-1.38-5.174-4.189-7.188-7.813l-1.115-1.908C94.753 169.841 94 168.036 94 164z" fill="rgba(209, 209, 209, 1)" stroke="none"/>
  <path d="M164 398c1.875.188 1.875.188 4 1l2 5h-12v-1h6l-1-3 1-2z" fill="rgba(125, 125, 125, 1)" stroke="none"/>
  <path d="M191.125 180.938c1.087.291 1.087.291 2.195.59L195 182v1l-2.195.332c-5.496.901-9.86 2.005-14.805 4.668l-2-1c1.457-.98 2.916-1.96 4.375-2.938l2.46-1.652c3.374-2.198 4.435-2.53 8.29-1.472z" fill="rgba(158, 158, 158, 1)" stroke="none"/>
  <path d="M287 100h3l3 9h-3l-1 3-2-12z" fill="rgba(137, 136, 136, 1)" stroke="none"/>
  <path d="M320 49h-3v3c-1.75 1.75-1.75 1.75-4 3-2.25-.313-2.25-.313-4-1h3c-4 0-4 0-6-1 1.575-.869 3.16-1.72 4.75-2.563l2.672-1.44c2.785-1.077 3.848-1.062 6.578.003z" fill="rgba(154, 113, 108, 1)" stroke="none"/>
  <path d="M58 274l2 1-4 1v5l6 1v5c-2.872-1.288-5.192-2.379-7-5-.188-3.688-.188-3.688 0-7l3-1z" fill="rgba(123, 123, 123, 1)" stroke="none"/>
  <path d="M184 178c-1.16 3.477-1.683 3.716-4.813 5.313l-2.082 1.113c-2.105.574-2.105.574-4.367-.32L171 183c2.457-1.638 4.346-2.62 7.063-3.625.692-.26 1.384-.52 2.097-.79C182 178 182 178 184 178z" fill="rgba(165, 165, 165, 1)" stroke="none"/>
  <path d="M316 187l2 2-12 14-2-1 1.61-1.758c3.834-4.24 7.392-8.37 10.39-13.242z" fill="rgba(27, 27, 27, 1)" stroke="none"/>
  <path d="M142 141h1c1.19 5.38 2.292 10.453 2 16l-2 1c-1.187-3.56-1.097-6.438-1.063-10.188l.028-3.855L142 141z" fill="rgba(240, 240, 240, 1)" stroke="none"/>
  <path d="M287 145l2 1v11l-3 1 1-13z" fill="rgba(241, 241, 241, 1)" stroke="none"/>
  <path d="M314 86h2c-.857 8.571-.857 8.571-3 12l-3-1v-2h3l-.063-3.938A59.19 59.19 0 0 1 313 87l1-1z" fill="rgba(154, 119, 112, 1)" stroke="none"/>
  <path d="M135 70l3 1c-3.11 3.288-6.016 5.837-10 8v-3h3v-5l4 1v-2z" fill="rgba(168, 123, 116, 1)" stroke="none"/>
  <path d="M187 236l-2.813 1.813c-4.755 3.219-4.755 3.219-7.187 8.187l-3-1v-3a150.052 150.052 0 0 1 6-4l1-2c3.51-1.245 3.51-1.245 6 0z" fill="rgba(165, 165, 164, 1)" stroke="none"/>
  <path d="M198 390c-.75 6.75-.75 6.75-3 9v-3h-5c5.8-6 5.8-6 8-6z" fill="rgba(126, 126, 126, 1)" stroke="none"/>
  <path d="M244 172l4 4-1 2-18-1v-1l15-1v-3z" fill="rgba(118, 118, 118, 1)" stroke="none"/>
  <path d="M303 167l1 3c-1.366 2.444-2.232 3.752-4.938 4.625L297 175a135.89 135.89 0 0 0-4 2 367.08 367.08 0 0 1 2.813-3.438l1.582-1.933C299 170 299 170 302 169l1-2z" fill="rgba(144, 144, 144, 1)" stroke="none"/>
  <path d="M185 95c1.125 3.75 1.125 3.75 0 6h-3v2c-2 1.625-2 1.625-4 3l-1-7c4 0 4 0 7 1l1-5z" fill="rgba(177, 177, 177, 1)" stroke="none"/>
  <path d="M230 78l3 1v5l-2-2-.148 2.3-.227 3.013-.21 2.988C230 93 230 93 228 96c.14-2.438.288-4.875.438-7.313l.119-2.091c.192-3.068.466-5.666 1.443-8.596z" fill="rgba(93, 93, 93, 1)" stroke="none"/>
  <path d="M121 400l-1 4c-4.22-.48-6.797-1.166-10-4a490.71 490.71 0 0 1 4.375-.563l2.46-.316C119 399 119 399 121 400z" fill="rgba(115, 115, 115, 1)" stroke="none"/>
  <path d="M25 142l3 1-2 1-.313 2.438L25 149c-2.375 1.188-2.375 1.188-5 2l-3 2c1.364-2.992 2.95-5.29 5.125-7.75l1.633-1.86L25 142z" fill="rgba(74, 74, 74, 1)" stroke="none"/>
  <path d="M239 75h2l3 10-5-2v-8z" fill="rgba(134, 134, 134, 1)" stroke="none"/>
  <path d="M172 390l6 1-1 3h2v2l-3 1c-4-4.75-4-4.75-4-7z" fill="rgba(136, 136, 136, 1)" stroke="none"/>
  <path d="M215 169l4 2v7h-2l-1 2-1-11z" fill="rgba(2, 2, 2, 1)" stroke="none"/>
  <path d="M194 118h3c.125 3.375.125 3.375 0 7l-2 2-2-2c.375-3.625.375-3.625 1-7z" fill="rgba(183, 183, 183, 1)" stroke="none"/>
  <path d="M132 77c-.125 1.813-.125 1.813-1 4-3.063 1.75-3.063 1.75-6 3l-2-2a466.06 466.06 0 0 1 3.375-2.5l1.898-1.406C130 77 130 77 132 77z" fill="rgba(33, 15, 15, 1)" stroke="none"/>
  <path d="M250 163l8 6-2 1-1 2c-5-5.625-5-5.625-5-9z" fill="rgba(174, 174, 174, 1)" stroke="none"/>
  <path d="M250 89c3 4 3 4 4 7h-2v3l-3 1 1-11z" fill="rgba(71, 71, 71, 1)" stroke="none"/>
  <path d="M148 74l2 1c-3.086 3.263-5.935 6.022-10 8l-2-1c3.277-2.756 6.542-5.473 10-8z" fill="rgba(87, 87, 85, 1)" stroke="none"/>
  <path d="M292 220c-.75 1.938-.75 1.938-2 4-2.946 1.277-4.991.967-8 0 6.625-4 6.625-4 10-4z" fill="rgba(123, 123, 123, 1)" stroke="none"/>
  <path d="M266 132h1l1 10h-3c-2.15.95-2.15.95-4 2l1.938-2.625c2.037-3.335 2.696-5.535 3.062-9.375z" fill="rgba(58, 58, 58, 1)" stroke="none"/>
  <path d="M275 94c3.075.07 6.011.248 9 1 2.063 2.563 2.063 2.563 3 5-4.035-1.59-8.018-3.282-12-5v-1z" fill="rgba(147, 147, 147, 1)" stroke="none"/>
  <path d="M141 69l2 1c-3.424 3.827-6.007 5.723-11 7 2.853-2.932 5.65-5.643 9-8z" fill="rgba(35, 15, 13, 1)" stroke="none"/>
  <path d="M283 178l2 1v4l-4 1c0-4 0-4 2-6z" fill="rgba(183, 183, 183, 1)" stroke="none"/>
  <path d="M284 129c2.523 1.974 2.993 2.967 3.688 6.188L288 138l-1-2-3-1a88.406 88.406 0 0 1-1-5l1-1z" fill="rgba(232, 232, 232, 1)" stroke="none"/>
  <path d="M138 107l-1 4-8 2c2.346-3.519 4.553-6 9-6z" fill="rgba(86, 86, 86, 1)" stroke="none"/>
  <path d="M177 190h2c.688 1.813.688 1.813 1 4-1.313 1.75-1.313 1.75-3 3h-2v-5h2v-2z" fill="rgba(166, 166, 166, 1)" stroke="none"/>
  <path d="M247 185l1 3c-3.695.95-6.305.95-10 0v-1c5.625-2 5.625-2 9-2z" fill="rgba(166, 166, 164, 1)" stroke="none"/>
  <path d="M298 123l5 2v2h-2l1 6c-2.952-2.952-3.087-5.955-4-10z" fill="rgba(150, 150, 150, 1)" stroke="none"/>
  <path d="M293 115c2.5 2.174 3.436 3.73 4 7l-3 1-3-2 1-1.875c1.142-2.035 1.142-2.035 1-4.125z" fill="rgba(184, 184, 184, 1)" stroke="none"/>
  <path d="M190 71h1v10l-3-1c.875-7.875.875-7.875 2-9z" fill="rgba(94, 94, 94, 1)" stroke="none"/>
  <path d="M274 184l-1 2c-3.989.997-7.032 1.05-11 0v-1c4.053-.982 7.839-1.082 12-1z" fill="rgba(196, 196, 196, 1)" stroke="none"/>
  <path d="M129 158l4 3-1 5h-2c-1.354-2.709-1.065-5.01-1-8z" fill="rgba(196, 196, 196, 1)" stroke="none"/>
  <path d="M236 138h2l1 8-4-1 1-7z" fill="rgba(93, 93, 93, 1)" stroke="none"/>
  <path d="M145 90l2 1-6 7-3-1 7-7z" fill="rgba(128, 128, 128, 1)" stroke="none"/>
  <path d="M300 57c-2.686 2.686-5.376 3.06-9 4v-3c5.625-2.125 5.625-2.125 9-1z" fill="rgba(34, 14, 13, 1)" stroke="none"/>
  <path d="M233 185l4 1v3l-3 1-2-1 1-4z" fill="rgba(35, 35, 35, 1)" stroke="none"/>
  <path d="M307 165l5 1 1 4-7-2 1-3z" fill="rgba(95, 95, 95, 1)" stroke="none"/>
  <path d="M141 61h6c.625 1.875.625 1.875 1 4l-2 2-5-6z" fill="rgba(36, 22, 20, 1)" stroke="none"/>
  <path d="M237 301h1v7l-4 2 3-9z" fill="rgba(157, 157, 157, 1)" stroke="none"/>
  <path d="M158 112l2 1-6 7c0-3.129.425-4.374 2-7l2-1z" fill="rgba(43, 43, 43, 1)" stroke="none"/>
  <path d="M134 100l1 2-6 7c0-3.16.382-4.36 2-7l3-2z" fill="rgba(126, 126, 126, 1)" stroke="none"/>
  <path d="M120 51l9 1 1 3-10-3v-1z" fill="rgba(45, 24, 21, 1)" stroke="none"/>
  <path d="M206 396l3 4-1 2-4-1 2-5z" fill="rgba(125, 125, 125, 1)" stroke="none"/>
  <path d="M163 373h5l-1 5h-3l-1-5z" fill="rgba(129, 129, 129, 1)" stroke="none"/>
  <path d="M244 195l8 1-1 3-7-2v-2z" fill="rgba(101, 101, 98, 1)" stroke="none"/>
  <path d="M169 183h5l-1 3h-8l4-1v-2z" fill="rgba(194, 194, 194, 1)" stroke="none"/>
  <path d="M17 168l1 2 3 1-3 1c-1.685 1.997-1.685 1.997-3 4 .875-6.875.875-6.875 2-8z" fill="rgba(120, 120, 120, 1)" stroke="none"/>
  <path d="M48 167l5 1 1 4h-3v-2h-2l-1-3z" fill="rgba(124, 124, 124, 1)" stroke="none"/>
  <path d="M277 56l3 1-5 5-1-3 3-3z" fill="rgba(92, 94, 93, 1)" stroke="none"/>
</svg>
</g></svg></g></g>
<!-- /image 26247 -->
</defs><rect x="0" y="0" width="250" height="250" fill="rgba(136, 136, 136, 1)"></rect><use xlink:href="#transformed-26247" transform="translate(-250, -250)"></use><use xlink:href="#transformed-26247" transform="translate(0, -250)"></use><use xlink:href="#transformed-26247" transform="translate(250, -250)"></use><use xlink:href="#transformed-26247" transform="translate(-250, 0)"></use><use xlink:href="#transformed-26247" transform="translate(0, 0)"></use><use xlink:href="#transformed-26247" transform="translate(250, 0)"></use><use xlink:href="#transformed-26247" transform="translate(-250, 250)"></use><use xlink:href="#transformed-26247" transform="translate(0, 250)"></use><use xlink:href="#transformed-26247" transform="translate(250, 250)"></use></svg>