<svg version="1.1"
      xmlns="http://www.w3.org/2000/svg"
      xmlns:xlink="http://www.w3.org/1999/xlink"  id="snapshot-07286" width="250" height="250" viewBox="0 0 250 250"><desc>This image was made on Patterninja.com</desc><defs>
<!-- image 51320 -->
<g id="transformed-51320" data-image="51320" transform="translate(38.47999999999999, -45.230000000000004) rotate(0, 125, 125)"><g><svg version="1.1" width="250px" height="250px" viewBox="0 0 250 250"><g id="original-51320"><svg xmlns="http://www.w3.org/2000/svg" viewBox="0 0 500 500" xmlns:xlink="http://www.w3.org/1999/xlink" version="1.1" preserveAspectRatio="xMidYMid meet">
  <path d="M434 6v2l1.809.75c2.551 1.455 3.625 2.818 5.253 5.25l1.473 2.125c4.443 8.72 4.98 17.143 4.902 26.813l-.014 3.955c-.135 12.145-1.823 23.934-3.888 35.892-1.877 11.282-2.941 22.534-3.74 33.93-.985 13.919-2.334 27.683-4.39 41.49-.874 5.863-1.607 11.673-2.039 17.584-.824 11.069-3.593 21.332-6.632 31.984-1.505 5.292-2.747 10.592-3.859 15.977-4.014 18.64-12.182 33.899-25.875 47.25l-2.188 2.313C393 275 393 275 391 275l-.938 1.875L388 281c-1.588 16.549 2.135 36.42 10.004 51.055 1.13 2.206 2.032 4.449 2.933 6.757 1.812 4.635 3.831 9.149 5.91 13.668 1.441 3.15 2.789 6.337 4.153 9.52.809 1.793 1.622 3.585 2.437 5.375l1.313 2.883c.748 1.641 1.498 3.282 2.25 4.922 2.631 5.81 4.95 11.732 7.242 17.683 1.376 3.404 3.019 6.626 4.703 9.887 2.948 5.84 5.153 11.685 7.055 17.938l1.012 3.3c9.279 31.67 15.594 68.92 5.988 101.012-.38 1.395-.757 2.791-1.133 4.188C438.337 541.824 433.004 554.1 423 563h-2v2a116.577 116.577 0 0 1-6.938 4.938l-2.064 1.372c-4.852 3.142-9.351 5.303-14.998 6.69v2c-7.616 2.29-15.123 4.377-22.988 5.605-2.002.199-2.002.199-3.012 1.395-8.885.426-17.403.43-26-2-2.187-.483-4.374-.962-6.563-1.438-3.816-.85-7.167-1.813-10.687-3.5-4.735-1.341-6.024-.253-10.188 1.93-5.41 2.128-12.185 2.075-17.726.324-1.649-.816-1.649-.816-3.836-2.316v-2c-7.118-2.886-13.428-3.391-21.031-3.667a603.646 603.646 0 0 1-6.393-.29c-6.364-.262-11.802-.478-17.646 2.263-4.187 1.506-8.788 1.038-13.18.944l-2.969-.016c-4.12-.045-7.793-.171-11.781-1.234-6.203-.496-11.197 1.078-17 3-17.14 5.51-37.903 4.153-55-1-1.618-.447-3.236-.891-4.855-1.332C125.198 570.886 105.089 563.543 92 545l-.438-2.11L91 541a102.125 102.125 0 0 0-4-2c-11.538-14.96-11.309-35.719-11.456-53.66-.022-2.225-.061-4.45-.103-6.676l-.04-3.955c-.665-6.15-2.734-10.594-7.401-14.772-8.456-8.1-15.223-17.652-21.875-27.25l-1.333-1.918c-3.247-4.761-6.057-9.7-8.792-14.769l-1.233-2.252C29.107 403.38 24.157 393.058 20 382a1136.584 1136.584 0 0 0-3.14-7.559c-.955-2.711-1.62-5.46-2.293-8.252-.577-2.226-1.254-4.394-1.97-6.58C7.878 344.908 6.105 330.36 5 315l-.155-2.13c-1.366-19.048-2.033-38.086-2.095-57.183l-.016-2.482c-.123-24.53 1.596-55.91 19.371-74.736 1.997-1.548 3.422-2.074 5.895-2.469v-2c4.977-2.042 9.677-2.658 15-2 2.273 1.016 2.273 1.016 4 2v2l3 1c6.483 9.234 6.336 20.184 6.832 31.082.925 19.565 2.979 37.823 8.543 56.668l.572 1.954c2.034 6.871 4.23 13.203 7.92 19.36 1.67 2.852 2.849 5.895 4.133 8.936 1.363 2.716 2.806 5.388 4.25 8.063a682.207 682.207 0 0 1 10.14 19.699c1.011 2.033 2.04 4.059 3.094 6.07 4.14 7.955 7.418 16.19 10.684 24.531 1.805 4.604 3.62 9.212 5.832 13.637 2.323.393 2.323.393 5 0 2.237-1.958 2.237-1.958 4.187-4.688l2.344-3.03 1.219-1.622a390.688 390.688 0 0 1 3.844-5.004c4.075-5.244 8.11-10.52 12.054-15.863a92.591 92.591 0 0 1 2.766-3.492c12.601-15.533 15.965-33.077 15.887-52.672-.331-2.894-.942-5.052-2.301-7.629l-3-1v-2l-5-2v-2l-3-1v-2l-2.188-.625c-3.007-1.47-4.517-3.156-6.542-5.785-1.437-1.865-1.437-1.865-4.083-4.34C131 250 131 250 131 248l-1.843-.8c-2.291-1.275-3.213-2.26-4.673-4.403l-1.342-1.952-1.392-2.095-1.453-2.152C114.865 228.455 109.611 220.121 106 211a769.853 769.853 0 0 0-3.125-5.938c-3.075-6.036-5.631-12.218-8-18.562l-.946-2.453c-6.31-17.366-8.788-35.569-10.554-53.86l-.624-6.108c-.309-3-.617-6-.92-9.002a848.41 848.41 0 0 0-2.519-21.827c-2.158-17.595-3.478-35.142-3.625-52.875l-.053-3.683c.006-7.316.062-13.971 5.163-19.715l1.953-1.352 1.922-1.398c7.31-3.852 14.603-3.561 22.703-3.54l3.578-.048c7.03-.004 12.545.787 19.047 3.361a373.06 373.06 0 0 0 5.05 1.578C155.303 21.96 155.303 21.96 163 28v2l2.187.812C167.997 32 170.484 33.275 173 35v2l2.187.813c3.709 1.565 6.827 3.197 9.684 6.066 2.103 2.095 4.274 3.88 6.629 5.684l2.281 1.753L196 53l1.969 1.652c5.028 3.337 10.192 2.11 15.804 1.203l2.552-.393c1.777-.276 3.554-.556 5.33-.84 2.702-.432 5.406-.85 8.11-1.265 1.733-.27 3.464-.542 5.196-.814l2.428-.376c3.513-.566 6.793-1.222 10.21-2.249 3.753-1.013 6.964-1.161 10.846-1.148h2.096c1.458.004 2.915.012 4.372.024 2.185.018 4.37.02 6.556.02 24.406.061 24.406.061 26.531 2.186 1.474.273 2.959.49 4.445.684l2.766.373 5.758.75c5.193.702 10.021 1.669 15.031 3.193 4.149.437 6.331.341 10.063-1.563 2.873-2.384 5.138-4.821 7.492-7.699 1.998-2.403 4.207-4.56 6.445-6.738l1.688-1.813C353 37 353 37 355 37c.235-.578.47-1.155.71-1.75C359.624 28.422 367.965 24.062 375 21l5.188-2.375 2.82-1.266a367.132 367.132 0 0 0 6.234-2.906c5.817-2.764 11.466-5.163 17.68-6.867 2.222-.584 2.222-.584 4.828-1.711C419.017 3.049 426.822 3.129 434 6z" fill="rgba(253, 253, 253, 1)" stroke="none"/>
  <path d="M434 6v2l1.809.75c2.551 1.455 3.625 2.818 5.253 5.25l1.473 2.125c4.443 8.72 4.98 17.143 4.902 26.813l-.014 3.955c-.135 12.145-1.823 23.934-3.888 35.892-1.877 11.282-2.941 22.534-3.74 33.93-.985 13.919-2.334 27.683-4.39 41.49-.874 5.863-1.607 11.673-2.039 17.584-.824 11.069-3.593 21.332-6.632 31.984-1.505 5.292-2.747 10.592-3.859 15.977-4.014 18.64-12.182 33.899-25.875 47.25l-2.188 2.313C393 275 393 275 391 275l-.938 1.875L388 281c-1.588 16.549 2.135 36.42 10.004 51.055 1.13 2.206 2.032 4.449 2.933 6.757 1.812 4.635 3.831 9.149 5.91 13.668 1.441 3.15 2.789 6.337 4.153 9.52.809 1.793 1.622 3.585 2.437 5.375l1.313 2.883c.748 1.641 1.498 3.282 2.25 4.922 2.631 5.81 4.95 11.732 7.242 17.683 1.376 3.404 3.019 6.626 4.703 9.887 2.948 5.84 5.153 11.685 7.055 17.938l1.012 3.3c9.279 31.67 15.594 68.92 5.988 101.012-.38 1.395-.757 2.791-1.133 4.188C438.337 541.824 433.004 554.1 423 563h-2v2a116.577 116.577 0 0 1-6.938 4.938l-2.064 1.372c-4.852 3.142-9.351 5.303-14.998 6.69v2c-7.616 2.29-15.123 4.377-22.988 5.605-2.002.199-2.002.199-3.012 1.395-8.885.426-17.403.43-26-2-2.187-.483-4.374-.962-6.563-1.438-3.816-.85-7.167-1.813-10.687-3.5-4.735-1.341-6.024-.253-10.188 1.93-5.41 2.128-12.185 2.075-17.726.324-1.649-.816-1.649-.816-3.836-2.316v-2c-7.118-2.886-13.428-3.391-21.031-3.667a603.646 603.646 0 0 1-6.393-.29c-6.364-.262-11.802-.478-17.646 2.263-4.187 1.506-8.788 1.038-13.18.944l-2.969-.016c-4.12-.045-7.793-.171-11.781-1.234-6.203-.496-11.197 1.078-17 3-17.14 5.51-37.903 4.153-55-1-1.618-.447-3.236-.891-4.855-1.332C125.198 570.886 105.089 563.543 92 545l-.438-2.11L91 541a102.125 102.125 0 0 0-4-2c-11.538-14.96-11.309-35.719-11.456-53.66-.022-2.225-.061-4.45-.103-6.676l-.04-3.955c-.665-6.15-2.734-10.594-7.401-14.772-8.456-8.1-15.223-17.652-21.875-27.25l-1.333-1.918c-3.247-4.761-6.057-9.7-8.792-14.769l-1.233-2.252C29.107 403.38 24.157 393.058 20 382a1136.584 1136.584 0 0 0-3.14-7.559c-.955-2.711-1.62-5.46-2.293-8.252-.577-2.226-1.254-4.394-1.97-6.58C7.878 344.908 6.105 330.36 5 315l-.155-2.13c-1.366-19.048-2.033-38.086-2.095-57.183l-.016-2.482c-.123-24.53 1.596-55.91 19.371-74.736 1.997-1.548 3.422-2.074 5.895-2.469v-2c4.977-2.042 9.677-2.658 15-2 2.273 1.016 2.273 1.016 4 2v2l3 1c6.483 9.234 6.336 20.184 6.832 31.082.925 19.565 2.979 37.823 8.543 56.668l.572 1.954c2.034 6.871 4.23 13.203 7.92 19.36 1.67 2.852 2.849 5.895 4.133 8.936 1.363 2.716 2.806 5.388 4.25 8.063a682.207 682.207 0 0 1 10.14 19.699c1.011 2.033 2.04 4.059 3.094 6.07 4.14 7.955 7.418 16.19 10.684 24.531 1.805 4.604 3.62 9.212 5.832 13.637 2.323.393 2.323.393 5 0 2.237-1.958 2.237-1.958 4.187-4.688l2.344-3.03 1.219-1.622a390.688 390.688 0 0 1 3.844-5.004c4.075-5.244 8.11-10.52 12.054-15.863a92.591 92.591 0 0 1 2.766-3.492c12.601-15.533 15.965-33.077 15.887-52.672-.331-2.894-.942-5.052-2.301-7.629l-3-1v-2l-5-2v-2l-3-1v-2l-2.188-.625c-3.007-1.47-4.517-3.156-6.542-5.785-1.437-1.865-1.437-1.865-4.083-4.34C131 250 131 250 131 248l-1.843-.8c-2.291-1.275-3.213-2.26-4.673-4.403l-1.342-1.952-1.392-2.095-1.453-2.152C114.865 228.455 109.611 220.121 106 211a769.853 769.853 0 0 0-3.125-5.938c-3.075-6.036-5.631-12.218-8-18.562l-.946-2.453c-6.31-17.366-8.788-35.569-10.554-53.86l-.624-6.108c-.309-3-.617-6-.92-9.002a848.41 848.41 0 0 0-2.519-21.827c-2.158-17.595-3.478-35.142-3.625-52.875l-.053-3.683c.006-7.316.062-13.971 5.163-19.715l1.953-1.352 1.922-1.398c7.31-3.852 14.603-3.561 22.703-3.54l3.578-.048c7.03-.004 12.545.787 19.047 3.361a373.06 373.06 0 0 0 5.05 1.578C155.303 21.96 155.303 21.96 163 28v2l2.187.812C167.997 32 170.484 33.275 173 35v2l2.187.813c3.709 1.565 6.827 3.197 9.684 6.066 2.103 2.095 4.274 3.88 6.629 5.684l2.281 1.753L196 53l1.969 1.652c5.028 3.337 10.192 2.11 15.804 1.203l2.552-.393c1.777-.276 3.554-.556 5.33-.84 2.702-.432 5.406-.85 8.11-1.265 1.733-.27 3.464-.542 5.196-.814l2.428-.376c3.513-.566 6.793-1.222 10.21-2.249 3.753-1.013 6.964-1.161 10.846-1.148h2.096c1.458.004 2.915.012 4.372.024 2.185.018 4.37.02 6.556.02 24.406.061 24.406.061 26.531 2.186 1.474.273 2.959.49 4.445.684l2.766.373 5.758.75c5.193.702 10.021 1.669 15.031 3.193 4.149.437 6.331.341 10.063-1.563 2.873-2.384 5.138-4.821 7.492-7.699 1.998-2.403 4.207-4.56 6.445-6.738l1.688-1.813C353 37 353 37 355 37c.235-.578.47-1.155.71-1.75C359.624 28.422 367.965 24.062 375 21l5.188-2.375 2.82-1.266a367.132 367.132 0 0 0 6.234-2.906c5.817-2.764 11.466-5.163 17.68-6.867 2.222-.584 2.222-.584 4.828-1.711C419.017 3.049 426.822 3.129 434 6zm-32 19l-2.26.94a622.834 622.834 0 0 0-6.865 2.935l-2.056.88c-12.143 5.403-22.159 11.607-31.372 21.18a333.893 333.893 0 0 1-4.427 4.489c-4.895 4.952-9.253 9.878-12.789 15.904C341 73 341 73 337.875 74.125c-2.48-.108-4.536-.315-6.875-1.125v2l6 3c-.063 2.688-.063 2.688-1 6-1.738 1.542-3.517 2.722-5.504 3.922L329 89v2h2c.262 7.874.262 7.874-2 12a235.648 235.648 0 0 0-1 7l-1 3a99.485 99.485 0 0 0 0 5c-5.487 1.868-10.222 2.236-16 2-.648-1.27-1.294-2.54-1.938-3.813l-1.09-2.144C307 112 307 112 306 109l-3-2c-1.224-5.42-1.224-5.42-1-8 .997-1.335 1.998-2.668 3-4 .675-2.67.675-2.67 1-5.5.548-4.153 1.446-6.224 4-9.5.583-3.542.583-3.542 0-7-1.883-1.725-1.883-1.725-4-3-.629-2.082-.629-2.082-1-4-23.94-3.33-50.614-4.994-74 2l.066 3.86c.058 3.348-.48 5.178-2.066 8.14.34 2.308.958 3.915 2 6 .065 6.344-1.542 10.757-5 16l2.438 1.688C231 106 231 106 232 108.561c0 2.438 0 2.438-1.125 4.188-3.714 2.476-8.086 2.407-12.438 2.438l-2.816.042c-2.696-.237-4.315-.857-6.621-2.23l.07-2.52.055-3.293.07-3.269c.035-3.112.035-3.112-2.195-5.918v-8l-2-3c-.195-2.262-.195-2.262-.125-4.688l.055-2.449L205 78l-3.563-1.563c-3.975-1.98-6.593-4.39-9.617-7.597-2.523-2.55-5.303-4.651-8.16-6.813a317.555 317.555 0 0 1-6.101-4.773l-1.842-1.47a806.458 806.458 0 0 1-3.58-2.877c-2.83-2.248-5.622-4.25-8.79-5.997-3.014-1.72-5.24-3.46-7.785-5.785-5.925-4.847-12.346-7.043-19.512-9.433a231.662 231.662 0 0 1-6.015-2.137c-8.53-3.133-15.483-4.75-24.535-4.805l-2.55-.063-2.481-.015-2.237-.028C95.06 25.15 93.42 25.847 91 28c-.432 2.97-.529 5.332-.39 8.29l.062 2.54c.078 2.725.198 5.446.328 8.17l.116 2.702c.292 6.564.695 13.118 1.134 19.673l.2 3.051c.869 13.11 1.99 26.088 4.014 39.076.99 6.363 1.77 12.685 2.294 19.1 2.21 26.164 7.986 51.43 21.157 74.47 1.272 2.261 2.47 4.557 3.67 6.858 13.64 25.897 32.786 44.453 57.54 59.882l1.7 1.061c10.297 6.383 20.92 11.273 32.341 15.328C217 289 217 289 219 291c.195 2.164.195 2.164.125 4.625l-.055 2.477L219 300c-6.408 2.136-11.511.78-17.5-1.875-4.786-2.063-9.457-3.786-14.5-5.125l1.277 2.336 1.66 3.039 1.653 3.023c2.127 3.924 3.11 6.057 2.41 10.602-2.569 2.912-5.527 5.263-9 7-1.077 3.497-1.929 7.03-2.805 10.582-1.258 3.599-2.204 5.118-5.195 7.418l-2.547.621c-3.62 2.035-3.889 4.74-4.976 8.615l-.727 2.827c-.503 1.845-1.008 3.69-1.516 5.535l-.649 2.484C166 359 166 359 165 360c-6.038.242-11.711-.305-17.5-2.063-3.374-.28-3.374-.28-5.145 1.29-1.959 2.156-3.65 4.41-5.355 6.773l-2.348 3.16c-30.435 41.44-49.266 87.6-42.902 139.902 1.905 12.172 5.643 19.17 14.25 27.938 1.24 1.408 2.47 2.824 3.688 4.25l1.722 1.941a88.025 88.025 0 0 1 2.899 3.461c4.212 4.912 9.595 6.589 15.6 8.631 2.376.815 4.74 1.663 7.103 2.514a5019.542 5019.542 0 0 0 7.832 2.793c20.892 7.31 41.692 8.323 63.156 3.41 0-4.338-2.382-6.4-4.98-9.746-5.672-9.138-8.3-19.214-10.583-29.629l-.445-1.989c-3.112-13.936-5.03-27.963-6.622-42.147-.237-2.483-.237-2.483-1.37-4.489a111.747 111.747 0 0 1-.375-4.375c-.359-4.067-1.122-7.81-2.188-11.75-1.265-4.873-2.064-8.858-1.437-13.875 1.563-2.563 1.563-2.563 4-4 6.214.214 6.214.214 9 3 .492 1.934.492 1.934.875 4.438.89 5.371 1.98 10.678 3.125 16 3.742 17.665 3.742 17.665 4.316 25.753.777 10.42 2.52 20.289 5.059 30.434l.885 3.555c2.632 10.14 5.437 19.055 12.178 27.195.464.59.929 1.178 1.408 1.785 5.102 6.476 5.102 6.476 12.564 9.3 1.205-.027 2.41-.056 3.653-.085l3.66-.04c3.973-.375 3.973-.375 7.277-2.335a99.38 99.38 0 0 0 4.938-7l1.338-2.065c11.721-18.305 13.956-36.556 14.036-57.935l.011-2.24c.03-14.802-1.212-29.493-4.864-43.893-2.065-8.399-1.596-17.873-1.709-26.492l-.065-2.621c-.02-3.592-.03-6.074 1.612-9.313C265 408 265 408 268.5 407.563c3.5.437 3.5.437 5.177 1.51 1.975 2.877 1.875 5.813 1.983 9.193l.107 2.156c.112 2.276.205 4.551.296 6.828.095 2.262.195 4.524.305 6.785.068 1.406.127 2.811.177 4.218.21 4.509 1.123 8.446 2.455 12.747.264 1.972.478 3.953.625 5.938l.227 2.902L280 462h1l.304-1.965c5.43-34.769 5.43-34.769 9.696-39.035 1.875-.266 1.875-.266 4-.25l2.125-.016C299 421 299 421 301 423c.52 6.759-.836 12.962-2.188 19.563-2.33 11.926-4.042 23.883-5.562 35.937l-.323 2.542c-2.608 20.641-4.659 41.22-1.677 61.958l.331 2.404c1.21 7.428 3.935 13.698 9.356 19.034l1.965 1.996c2.459 1.836 4.04 2.392 7.098 2.566 16.19-6.805 26.407-31.196 32.797-46.02A161.513 161.513 0 0 0 346 514l1.031-2.879a144.723 144.723 0 0 0 4.415-15.155C354.98 480.927 354.98 480.927 359 476c3.839-1.414 5.645-1.521 9.438-.063 1.908 2.52 2.172 4.44 2.023 7.57-.789 4.265-2.527 8.143-4.168 12.141-1.186 3.074-2.046 6.024-2.793 9.227-2.974 12.519-7.398 23.682-13.387 35.013a726.485 726.485 0 0 0-3.488 6.725c-.79 1.525-1.582 3.05-2.375 4.574l-1.104 2.143c-2.057 3.902-4.248 7.308-7.146 10.67l3 2 1.25 1.52c5.603 4.74 17.865 5.007 24.95 4.765 20.779-2.115 40.847-11.528 54.8-27.285 9.67-14.338 12.236-35.238 12.25-52.063l.002-2.183c-.018-11.84-.875-23.146-3.252-34.754l-.52-2.726c-4.449-23.29-12.517-44.1-22.405-65.541-4.292-9.336-8.394-18.757-12.513-28.17l-3.355-7.657c-.714-1.632-1.427-3.265-2.138-4.9a611.631 611.631 0 0 0-5.058-11.351c-3.587-7.854-6.33-15.436-7.886-23.967l-.602-2.971c-1.28-6.547-2.043-13.065-2.523-19.717-2.824.662-5.513 1.497-8.238 2.488C325.907 305.106 325.907 305.106 314 302c-2-2-2-2-2.313-5.438.313-3.562.313-3.562 1.485-5.197 2.405-1.796 4.452-2.18 7.394-2.76l3.384-.696 3.613-.721C348.074 282.827 367.825 277.062 384 263l1.676-1.43c3.987-3.684 7.237-7.902 10.449-12.257l1.236-1.635c8.02-11.204 10.87-24.955 14.076-38.115l.726-2.967c7.872-32.572 11.27-65.422 12.814-98.851.806-16.725.806-16.725 3.294-24.434 3.95-12.523 4.045-26.656 4.203-39.686.017-1.362.042-2.724.075-4.085.159-7.269.12-13.109-4.1-19.217-1.612-1.69-1.612-1.69-5.262-2.198-7.397.708-14.4 4.02-21.187 6.875z" fill="rgba(5, 5, 5, 1)" stroke="none"/>
  <path d="M40 188c.806 4.274 1.144 8.353 1.21 12.7l.08 3.884.04 2.03C41.604 219.292 42.425 231.56 45 244l.483 2.52c4.15 21.53 11.166 41.559 22.341 60.433 2.26 3.936 4.219 8.022 6.21 12.098 1.64 3.341 3.325 6.636 5.146 9.883 5.061 9.074 8.911 18.237 12.425 28.016 2.77 7.632 5.988 14.92 9.653 22.163l1.09 2.184.969 1.886c1.04 2.765.99 5.078-.14 7.793l-1.154 2.079-1.275 2.342-1.373 2.478C90.66 414.007 85.093 430.465 80 448l-2-1v-2l-1.688-.688C62.266 436.34 53.18 415.781 46 402l-2.078-3.879C29.995 371.701 21.303 342.883 20 313l-.146-3.326a1119.61 1119.61 0 0 1-.514-13.758c-.03-1.03-.062-2.061-.094-3.123l-.072-2.734c-.14-2.474-.379-4.878-.677-7.336-.542-4.704-.675-9.354-.7-14.086l-.017-2.643c-.01-1.84-.016-3.68-.02-5.519-.01-2.742-.04-5.484-.073-8.227C17.56 231.044 19.334 205.414 33 188c2.667-1.333 4.167-.671 7 0z" fill="rgba(152, 152, 151, 1)" stroke="none"/>
  <path d="M40 188c.806 4.274 1.144 8.353 1.21 12.7l.08 3.884.04 2.03C41.604 219.292 42.425 231.56 45 244l.483 2.52c4.006 20.788 10.517 40.64 21.45 58.835 1.845 3.102 3.075 6.16 4.067 9.645l-6 2 1 15c-7.875 2.25-7.875 2.25-12 3l-1 3h-2l-2 4c-1.48-.114-2.96-.241-4.438-.375-.823-.07-1.647-.14-2.496-.21L40 341l-1-2h-4l-.7 1.934c-.975 2.47-1.948 4.777-3.3 7.066-2.75 1.063-2.75 1.063-5 1-5.11-13.704-5.457-27.798-6.063-42.25-.116-2.673-.235-5.347-.356-8.02-.075-1.648-.146-3.297-.214-4.945-.167-3.782-.428-7.514-.883-11.273-.544-4.632-.663-9.215-.687-13.875l-.017-2.643c-.01-1.84-.016-3.68-.02-5.519-.01-2.742-.04-5.484-.073-8.227C17.56 231.044 19.334 205.414 33 188c2.667-1.333 4.167-.671 7 0z" fill="rgba(119, 119, 119, 1)" stroke="none"/>
  <path d="M114 48c22.338 1.099 45.91 17.095 62 32 2.514 3.771 2.555 5.53 2 10-1.734 2.318-3.207 3.971-5.313 5.875l-1.657 1.58c-3.291 3.093-6.724 5.945-10.28 8.733-5.932 4.675-10.901 10.152-15.917 15.785-5.684 6.264-11.587 11.455-20.27 12.402C121 134 121 134 118.88 131.844c-5.64-8.532-5.67-20.853-6.567-30.781l-.191-2.057c-.962-10.565-1.407-21.085-1.434-31.694l-.017-3.83c.097-12.25.097-12.25 3.329-15.482z" fill="rgba(9, 6, 6, 1)" stroke="none"/>
  <path d="M219 149c.668.1 1.335.199 2.023.3 7.087 1.836 11.045 7.91 14.977 13.7 6.836 12.245 7.196 29.463 4.316 42.996-.894 2.855-1.915 5.364-3.316 8.004l-1.32 2.527c-4.204 7.086-9.967 10.837-17.68 13.473-8.799 1.044-14.792-.29-21.902-5.355C188.632 218.757 185.626 211.18 184 202c-1.444-14.355 1.564-31.333 10.523-42.98 6.448-7.1 14.804-11.515 24.477-10.02z" fill="rgba(7, 5, 6, 1)" stroke="none"/>
  <path d="M337.438 153.688c12.731 4.69 19.587 14.498 25.562 26.312 3.595 10.62 1.125 26.073-3.734 35.938-4.124 6.72-9.96 12.894-17.266 16.062-7.402 1.639-13.147 1.427-19.746-2.418-9.52-6.682-13.367-14.747-15.711-25.965-1.95-12.991-1.528-28.229 6.394-39.304 2.429-2.819 5.008-5.174 8.063-7.313l2.875-2.25c4.769-2.67 8.33-2.109 13.563-1.063z" fill="rgba(9, 7, 7, 1)" stroke="none"/>
  <path d="M412 50c1.692 1.692 1.165 3.806 1.19 6.067l-.002 2.245-.003 2.35c-.075 7.65-.537 15.27-1.06 22.9l-.238 3.601c-.423 5.768-1.003 11.297-2.459 16.901-.477 2.156-.627 4.233-.74 6.436-.503 5.107-2.525 9.468-5.688 13.5-3.747 2.334-6.6 2.505-11 2-6.167-2.424-10.888-6.448-15.695-10.906-2.297-2.087-4.67-3.999-7.118-5.906-4.018-3.186-7.884-6.501-11.687-9.938l-1.566-1.394c-2.622-2.398-4.728-4.474-5.934-7.856 0-6.849 4.403-12.272 8.941-17.04C372.244 60.664 392.844 45.318 412 50z" fill="rgba(9, 6, 7, 1)" stroke="none"/>
  <path d="M284.875 188.75c3.125.25 3.125.25 4.684 1.426 7.292 9.23 6.366 23.781 5.441 34.824-1.51 11.51-1.51 11.51-5 15-4.656.517-7.198-.316-11-3-.263 8.034.435 15.566 3.125 23.188 2.214 2.14 2.89 2.116 5.875 2.187 2.641-.13 4.446-.524 7-1.375-.48-2.945-.947-5.811-1.75-8.688-.25-2.312-.25-2.312.813-4.125 2.863-1.754 4.644-1.725 7.937-1.187 3.52 3.52 4.875 6.342 5.25 11.313-.34 5.027-1.926 8.098-5.125 11.937-5.277 4.346-11 4.274-17.586 4.219-5.243-.695-8.646-3.009-12.539-6.469l-1 3c-5.616 4.413-10.88 6.317-18 5.875-5.665-.765-9.543-2.343-13.54-6.46-4.424-5.86-4.321-12.335-3.46-19.415 1.007-3.09 1.695-4.695 4-7 2.722-.349 4.327-.44 6.656 1.082 2.048 2.923 1.556 5.41 1.406 8.918-.367 5.347-.367 5.347 1.938 10 2.01.769 2.01.769 4.313 1l2.3.375c2.595-.24 2.595-.24 5.153-2.188 3.263-4.656 2.857-8.642 2.671-14.187l-.017-2.984c-.044-8.061-.044-8.061-4.154-14.72l-2.016-1.546c-4.93-4.157-9.35-8.714-10.793-15.184-.238-3.922.002-5.885 2.48-9.004 8.587-4.38 17.648-3.785 27.063-3.562l.406-2.793c.903-4.877 2.1-9.99 7.469-10.457z" fill="rgba(8, 7, 7, 1)" stroke="none"/>
  <path d="M80 365c3.827 3.424 5.723 6.007 7 11 1.46-.114 2.917-.242 4.375-.375.812-.07 1.624-.14 2.46-.21 2.368-.244 2.368-.244 4.165-2.415a364.965 364.965 0 0 1 3.625 6.188l1.063 1.751c1.53 2.708 2.457 4.386 1.789 7.49L103 391c-.653 1.237-1.304 2.476-1.953 3.715a5970.08 5970.08 0 0 1-2.297 4.223C90.3 414.687 84.964 430.91 80 448l-2-1v-2l-1.688-.688c-5.883-3.339-9.687-9.24-13.562-14.625l-1.71-2.373c-3.746-5.288-7.215-10.678-10.415-16.314l-1.173-2.048c-.887-1.614-1.68-3.28-2.452-4.952l1-2h2l-1-8h6l-2-16c3-2 3-2 7-2l.688-2.375C62 371 62 371 64.156 369.906c3.214-1.024 6.318-1.559 9.656-2.031l3.52-.508L80 367v-2z" fill="rgba(96, 97, 95, 1)" stroke="none"/>
  <path d="M122 61c5.14.542 9.196 2.325 13.688 4.75l2.19 1.175c6.068 3.337 11.876 7.027 17.622 10.887l2.518 1.67 2.326 1.6 2.068 1.413c1.87 1.772 2.213 2.993 2.588 5.505-3.467 3.09-6.923 6.165-10.594 9.012-5.955 4.629-10.851 9.503-15.526 15.383-3.01 3.754-6.054 6.724-9.88 9.605h-2c-2.37-6.528-2.948-12.935-3.625-19.813-.1-.982-.1-.982-.2-1.984-1.3-13.075-1.519-26.068-1.175-39.203z" fill="rgba(249, 184, 189, 1)" stroke="none"/>
  <path d="M65 302a51.795 51.795 0 0 1 6 12l-1 2-5 1 1 15c-7.875 2.25-7.875 2.25-12 3l-1 3h-2l-2 4c-1.48-.114-2.96-.241-4.438-.375-.823-.07-1.647-.14-2.496-.21L40 341l-1-2h-4l-.7 1.934c-.975 2.47-1.948 4.777-3.3 7.066-2.75 1.063-2.75 1.063-5 1-3.474-9.318-5.464-19.02-5-29l3-1 2-3c5.333-3 5.333-3 8-3v-2c4.095-3.59 8.95-5.167 14-7l2.629-.957c9.527-3.185 9.527-3.185 14.371-1.043z" fill="rgba(119, 119, 119, 1)" stroke="none"/>
  <path d="M329 162l-1 3h-2l-.875 1.813C324 169 324 169 322 172c-2.19 4.465-3.778 7.997-3 13 1.417 2.583 1.417 2.583 4 4 3.566-.164 3.566-.164 7-1h3l1 7h7l3-7h2v-3h2c.616 17.728.616 17.728-4.852 24.188-3.921 3.99-6.794 6.324-12.523 6.375-2.816-.21-4.926-.663-7.625-1.563l1 5h-3l-.813 1.938C319 223 319 223 316 224c-8.876-9.51-10.653-23.301-10.316-35.785.52-9.4 2.786-19.195 9.316-26.215 4.322-3.346 9.126-1.312 14 0z" fill="rgba(5, 4, 5, 1)" stroke="none"/>
  <path d="M70 315c4.551 3.736 6.615 8.75 9.125 13.938l1.34 2.708c2 4.071 3.886 8.126 5.535 12.354-2.867-.573-3.861-.861-6-3-2.688-.27-5.291-.087-8 0 .308 1.647.621 3.292.938 4.938l.527 2.777c.312 2.238.312 2.238 1.535 3.285v5H64v2l-6 1v2l-4 1v2h-4v2h-2l-4-12c-2.503 1.251-2.687 2.174-3.813 4.688C38.272 363.702 35.97 366.7 33 370c-4.964-4.964-6.377-14.152-7-21l2.25-.438c4.188-2.38 5.135-6.176 6.75-10.562l5 1v2c3.075.362 5.937.513 9 0 2.694-2.783 2.694-2.783 5-6 4.507-2.415 6.808-3 12-3l-2-15 6-2z" fill="rgba(149, 149, 148, 1)" stroke="none"/>
  <path d="M80 365c3.827 3.424 5.723 6.007 7 11 1.46-.114 2.917-.242 4.375-.375.812-.07 1.624-.14 2.46-.21 2.368-.244 2.368-.244 4.165-2.415 2.39 3.825 2.56 7.597 3 12h-2l-1 2-2-1v2h-4l-1 4-2.125-.563c-3.214-.489-5.71-.1-8.875.563v2l-1.938.313L76 395l-1 3h-2l-.75 2.438L71 403c-2.063.688-2.063.688-4 1l-1 2h-2l1 6h-5l-.438 1.875C59 416 59 416 58 418c-1.766-.059-1.766-.059-4-1a65.157 65.157 0 0 1-3.75-7.063l-.957-2.01A428.121 428.121 0 0 1 47 403l3-1-1-8h6l-2-16c3-2 3-2 7-2l.688-2.375C62 371 62 371 64.156 369.906c3.214-1.024 6.318-1.559 9.656-2.031l3.52-.508L80 367v-2z" fill="rgba(149, 150, 148, 1)" stroke="none"/>
  <path d="M175 286c4 .838 6.655 2.652 10 5l3 2c1.57 2.531 1.57 2.531 3.125 5.5l1.57 2.969c2.027 3.932 3.071 6.02 2.305 10.531-2.384 2.71-5.015 4.974-8 7h-2l-.313 3.5c-.805 6.138-1.807 10.934-6.687 15-3 1.5-3 1.5-6 1.5l-.813 3.813a335.566 335.566 0 0 1-2.687 11.125l-.719 2.777C167 359 167 359 165 361c-6.795.4-13.328-.86-20-2 0-3.903 1.266-4.862 3.75-7.813 2.372-2.862 4.653-5.658 6.625-8.812L157 340h2l.625-2.375c1.207-3.183 2.528-5.63 4.313-8.5 7.894-12.953 9.097-28.332 11.062-43.125z" fill="rgba(112, 112, 112, 1)" stroke="none"/>
  <path d="M305 67c4.875.284 9.05.584 13.563 2.563C322.865 71.362 326.409 71.28 331 71v4l2.375.375C336 76 336 76 338 78c0 3.078-.247 5.155-2.34 7.504C331.586 89 331.586 89 329 89v2h2c1.39 2.78 1.185 4.919 1 8a178.655 178.655 0 0 1-2 4 235.648 235.648 0 0 0-1 7l-1 3-.125 2.5C327 118 327 118 324 119.813c-4.255 1.53-8.536 1.992-13 1.187-1.938-1.688-1.938-1.688-3-4l-1.188-2.563C306 112 306 112 306 109l-1.938-.5c-2.062-1.5-2.062-1.5-3-5.375-.52-3.857.668-5.102 2.938-8.125.675-2.67.675-2.67 1-5.5.548-4.153 1.446-6.224 4-9.5.583-3.542.583-3.542 0-7-1.92-1.774-1.92-1.774-4-3v-3z" fill="rgba(163, 114, 63, 1)" stroke="none"/>
  <path d="M402 61c.602 18.329-2.3 36.107-6 54-3.943-.82-5.751-2.335-8.688-5.125-3.177-2.95-6.354-5.759-9.812-8.375a227.42 227.42 0 0 1-10.063-8.188l-2.566-2.199C363 89 363 89 363 85c3.797-4.476 8.54-7.945 13.188-11.5l2.28-1.745C385.458 66.496 392.965 61 402 61z" fill="rgba(249, 184, 189, 1)" stroke="none"/>
  <path d="M230 68c2.602 3.903 1.855 5.491 1 10l-.688 2.75c-.605 2.53-.605 2.53 1.688 5.25.364 6.255-1.622 10.879-5 16l2.438 1.688C232 106 232 106 233.063 108.5c-.063 2.5-.063 2.5-1.688 4.75-3.912 2.882-8.12 2.92-12.875 3l-2.781.078c-3.359-.405-5.145-1.12-7.719-3.328-.418-2.813-.418-2.813-.188-6 .42-4.804.42-4.804-1.812-9v-8l-2-3c.023-2.262.023-2.262.375-4.688l.336-2.449L205 78l-3-1 4-1v-2c1.62-2.123 2.673-2.911 5.268-3.616l2.619-.333 2.842-.381 2.958-.357 2.995-.393c2.438-.318 4.877-.624 7.318-.92z" fill="rgba(162, 114, 64, 1)" stroke="none"/>
  <path d="M220 160l.188 1.875c.64 2.403.64 2.403 3.375 3.375L226 166l-1 3h-2c.432 2.92 1.052 4.058 3.063 6.313 2.524 3.502 2.552 5.456 1.937 9.687-1.438 2.375-1.438 2.375-4 4-2.995.608-5.95.87-9 1l1 4h-2l-.688 2.438L212 199c-2.625.813-2.625.813-5 1v2l-5 1c2.033 5.203 3.93 8.803 9.05 11.324 3.303 1.145 6.47 1.432 9.95 1.676-2.695 2.695-4.544 2.966-8.313 3.25-5.468-.37-8.391-2.045-12.375-5.75-4.343-5.646-5.935-13.748-5.667-20.777.502-3.851 1.265-7.62 2.105-11.41l.475-2.198c1.512-6.31 4.25-11.19 9.275-15.427l1.719-1.489c3.712-2.499 7.415-2.298 11.781-2.199z" fill="rgba(18, 13, 11, 1)" stroke="none"/>
  <path d="M340.012 166.73c2.729 1.743 4.183 3.886 6.05 6.52l2.036 2.828c5.706 8.765 6.128 16.666 4.09 26.86-1.675 6.371-4.568 11.337-9.188 16.062-3.52 1.983-5.961 2.978-10 3.063-4.148-1.47-6.87-4.035-10-7.063 3.086-1.029 4.526-.913 7.688-.625 4.282.044 6.45-.695 9.75-3.438 7.438-7.573 7.187-15.897 7.562-25.937h-2v3h-2l-.375 2.875C343 194 343 194 341 196c-3.5.313-3.5.313-7 0-2.152-3.228-2.2-4.284-2-8l-1.563 1.063c-3.495 1.344-5.847.85-9.437-.063-2.524-2.198-2.934-3.504-3.375-6.813.46-3.906 1.73-6.622 3.375-10.187v-2c5.944-5.49 11.612-5.956 19.012-3.27z" fill="rgba(12, 8, 7, 1)" stroke="none"/>
  <path d="M55 284c2.627 2.627 3.999 5.708 5.625 9l.984 1.945C64 299.747 64 299.747 64 302l-2.375-.188c-8.005.415-15.117 3.702-22.277 7.102C37 310 37 310 34 311v2l-1.68.77-2.195 1.043-2.18 1.019c-2.25 1.163-2.25 1.163-3.945 4.168h-3c-.993-5.707-1.105-11.214-1-17 6.625-3 6.625-3 10-3v-2h2v-2l4 1v4l8-3-.688-2.25C43 293 43 293 44 290.812c2.71-2.455 5.51-2.86 9-3.812l2-3z" fill="rgba(149, 149, 149, 1)" stroke="none"/>
  <path d="M80 365c2.901 2.53 4.765 4.337 6.063 8-.063 3-.063 3-1.563 5.813-3.14 2.747-5.398 2.95-9.5 3.187v3h-7l-.813 1.875C66 389 66 389 63 391h-4v3h-3a477.261 477.261 0 0 1-1.563-5.688l-.878-3.199c-.56-3.12-.406-5.09.441-8.113l2.875-.188L60 376a89.286 89.286 0 0 0 2-5c3.8-1.942 7.616-2.531 11.813-3.125l3.519-.508L80 367v-2z" fill="rgba(120, 121, 119, 1)" stroke="none"/>
  <path d="M284.875 188.75c3.125.25 3.125.25 4.684 1.426 7.292 9.23 6.366 23.781 5.441 34.824-1.51 11.51-1.51 11.51-5 15-4.021.548-5.787.118-9.375-1.875L278 236c0-2 0-2 1.809-3.816L282 230a92.364 92.364 0 0 0 3.063-4.938l1.472-2.527L288 220l1.672-2.516c1.456-2.723 1.652-4.247 1.515-7.297l-.082-2.394L291 206c-5.835-2.483-11.637-2.44-17.875-2.625l-3.242-.117c-2.628-.094-5.255-.18-7.883-.258v-1h15l1-6c3.136-6.925 3.136-6.925 6.875-7.25z" fill="rgba(157, 117, 73, 1)" stroke="none"/>
  <path d="M60 412h8v12h10v2l7 2c-1.234 6.824-2.892 13.394-5 20l-2-1v-2l-1.688-.688c-6.193-3.515-10.068-9.833-14.124-15.5l-1.811-2.482-1.709-2.373-1.554-2.157C56 420 56 420 56 418h2l2-6z" fill="rgba(174, 132, 86, 1)" stroke="none"/>
  <path d="M220 160l.313 1.938L221 164l3 1v2l-3-.25c-6.099.025-10.502 2.818-14.813 6.938-5.449 8.251-6.15 16.543-5.187 26.312 1.186 5.625 2.941 9.73 7.75 13.063 4.045 2.159 7.703 2.693 12.25 2.937-2.695 2.695-4.544 2.966-8.313 3.25-5.468-.37-8.391-2.045-12.375-5.75-4.343-5.646-5.935-13.748-5.667-20.777.502-3.851 1.265-7.62 2.105-11.41l.475-2.198c1.512-6.31 4.25-11.19 9.275-15.427l1.719-1.489c3.712-2.499 7.415-2.298 11.781-2.199z" fill="rgba(176, 149, 62, 1)" stroke="none"/>
  <path d="M331.121 164.855l2.317.333 2.308.292c5.192 1.197 7.246 3.44 10.317 7.77l2.035 2.828c5.706 8.765 6.128 16.666 4.09 26.86-1.675 6.371-4.568 11.337-9.188 16.062-3.52 1.983-5.961 2.978-10 3.063-4.148-1.47-6.87-4.035-10-7.063 3.086-1.029 4.526-.913 7.688-.625 5.311.054 7.793-1.637 11.62-5.16 4.278-5.601 5.228-10.796 5.13-17.653l-.03-2.274c-.176-5.463-.555-10.115-4.408-14.288-5.3-4.707-9.945-6.743-17-7 1.668-2.063 2.414-2.96 5.121-3.145z" fill="rgba(171, 143, 54, 1)" stroke="none"/>
  <path d="M40 188c1.063 5.173 1.117 10.124 1.063 15.375l-.014 2.52c-.012 2.035-.03 4.07-.049 6.105l-2.52.367-3.292.508-3.27.492c-3.091.484-3.091.484-5.918 2.633h-4c.558-5.208 1.81-9.71 3.813-14.563l.751-1.92C31.994 186.105 31.994 186.105 40 188z" fill="rgba(158, 158, 158, 1)" stroke="none"/>
  <path d="M72 343c1.047 1.89 1.047 1.89 1.75 4.25l.734 2.328C75 352 75 352 75 357H64v2l-6 1v2l-4 1v2h-4v2h-2c-1.757-4.504-2.193-8.176-2-13l10-2v-3c3.948-4.905 9.637-8.703 16-6z" fill="rgba(121, 121, 119, 1)" stroke="none"/>
  <path d="M48 259c1.292 4.12 2.263 7.668 2 12l-2.438.375L45 272l-1 2h-8l-1 3c-1.727.224-3.457.428-5.188.625l-2.917.352c-3.136.025-5.09-.633-7.895-1.977l-1-10 3 1c5.089.37 7.043-.002 11-3 2.676-.559 5.267-.772 8-1v-2c3.088-1.765 4.233-2 8-2z" fill="rgba(152, 152, 152, 1)" stroke="none"/>
  <path d="M100 379c2.357 2.893 4.181 5.334 5 9-1.013 2.873-2.581 5.36-4.188 7.938-.827 1.383-1.654 2.767-2.48 4.152l-1.208 1.995c-1.51 2.574-2.832 5.227-4.124 7.915h-2v-3h-3c-3.811-3.24-5.986-6.443-8-11h-5l1-2h4v-2c4.122-1.63 6.707-2.263 11-1l1-3h4v-2l5-1-1-6z" fill="rgba(121, 121, 120, 1)" stroke="none"/>
  <path d="M65 302l1 3c-3.624 1.208-7.228 1.556-11 2-3.729.497-7.374.985-11 2l-.188 1.875L43 313l-2.332.797c-3.46 1.56-4.31 3.31-6.168 6.578-2.408 4.214-4.68 6.665-8.5 9.625l-4 5-1-15 3-1 2-3c5.333-3 5.333-3 8-3v-2c4.095-3.59 8.95-5.167 14-7l2.629-.957C55.9 301.28 59.57 300.702 65 302z" fill="rgba(97, 97, 97, 1)" stroke="none"/>
  <path d="M72 400c2.337 2.921 4.146 6 5.95 9.273 1.123 1.96 1.123 1.96 3.3 4.29 2.193 3.054 2.323 4.755 1.75 8.437-4.746 3.164-9.368 2.121-15 2v-12h-3l-1-6h2l1-3a70.134 70.134 0 0 1 4-1l1-2z" fill="rgba(120, 119, 119, 1)" stroke="none"/>
  <path d="M40 232v3l-3 1-1 2 2.375-1.5C41 235 41 235 43 235c.375 2.75.375 2.75 0 6-4.049 3.654-7.636 4.57-13 5l-1 3c-1.777.695-1.777.695-3.938 1.125-2.25.466-4 .844-6.062 1.875v-14c6.97-2.178 13.892-4.327 21-6z" fill="rgba(153, 153, 153, 1)" stroke="none"/>
  <path d="M224 173c3.162 2.746 3.917 4.408 4.5 8.563-.5 3.437-.5 3.437-2.063 5.812-3.292 2.195-5.479 2.694-9.437 2.625-3.042-2.248-4.596-3.99-6-7.5 0-3.348.95-4.884 3-7.5 3.195-2.314 6.133-2.564 10-2z" fill="rgba(243, 243, 243, 1)" stroke="none"/>
  <path d="M18 272c1.5 1.375 1.5 1.375 3 3v2c2.313-.113 4.626-.241 6.938-.375 1.287-.07 2.575-.14 3.902-.21 1.043-.138 2.086-.274 3.16-.415l1-2h8v-2h4l-2 6-2.875.188L40 279c-1.453 2.463-1.453 2.463-2 5l-1.793.148c-5.146.475-5.146.475-10.02 2.102C24 287 24 287 21.813 286c-3.731-4.118-4.068-8.626-3.812-14z" fill="rgba(98, 98, 98, 1)" stroke="none"/>
  <path d="M291 215l3 1c.296 7.402-.46 14.752-2 22-2 2-2 2-4.75 2.375-4.026-.465-6.126-1.846-9.25-4.375 0-2 0-2 1.809-3.816L282 230a92.364 92.364 0 0 0 3.063-4.938l1.472-2.527L288 220a1561.06 1561.06 0 0 1 3-5z" fill="rgba(157, 112, 66, 1)" stroke="none"/>
  <path d="M328.094 173.582C330 174 330 174 332.5 175.625c1.967 3.115 2.092 4.747 1.5 8.375-2.074 3.734-3.357 4.79-7.438 6.125-3.562-.125-3.562-.125-6.5-2.188C318 185 318 185 317.438 182c1.215-6.476 4.287-8.858 10.657-8.418z" fill="rgba(244, 244, 244, 1)" stroke="none"/>
  <path d="M80 365c2.901 2.53 4.765 4.337 6.063 8-.063 3-.063 3-1.563 5.813-3.14 2.747-5.398 2.95-9.5 3.187v3h-5l3-1-1-2c-.07-2.207-.084-4.417-.063-6.625l.028-3.602L72 369l8-2v-2z" fill="rgba(121, 120, 120, 1)" stroke="none"/>
  <path d="M43 354c2 1 2 1 2.852 2.89 2.563 7.82 2.563 7.82 2.148 12.11l-3.438.875L41 371l-1 2h-2l-1 6c-2.783-1.936-3.117-3.413-4.063-6.75-.256-2.646-.19-3.849 1.239-6.117a96.48 96.48 0 0 1 3.258-3.461c2.134-2.278 3.288-4.847 4.566-7.672l1-1z" fill="rgba(162, 162, 161, 1)" stroke="none"/>
  <path d="M41 212v6l-3 1-1 3-17 2 1-8 2.875-.938c2.986-.936 2.986-.936 5.125-2.062a90.524 90.524 0 0 1 4.438-.563l2.37-.253C38 212 38 212 41 212z" fill="rgba(97, 97, 97, 1)" stroke="none"/>
  <path d="M345 205l3 1c.438 4.38.329 6.482-2.063 10.25-2.894 3.05-5.892 4.543-9.937 5.75-5.3.11-7.957-2.298-11.68-5.723L323 215c3.086-1.029 4.526-.913 7.688-.625 4.454.078 6.524-.823 9.875-3.75 1.888-1.847 3.257-3.264 4.437-5.625z" fill="rgba(180, 146, 61, 1)" stroke="none"/>
  <path d="M260 214h19c-1.946 4.866-3.92 7.867-7 12-3.399-1.47-5.65-3.38-8.25-6l-2.14-2.125C260 216 260 216 260 214z" fill="rgba(251, 187, 194, 1)" stroke="none"/>
  <path d="M70 315c3.835 3.287 6.325 7.251 8 12l-1 2h-2l-2 2v-2l-6 1c-2.108-3.162-2.338-4.507-2.625-8.188l-.227-2.73L64 317l6-2z" fill="rgba(159, 159, 159, 1)" stroke="none"/>
  <path d="M230 68c2.602 3.903 1.855 5.491 1 10l-.688 2.75c-.605 2.53-.605 2.53 1.688 5.25.346 6.059-1.287 10.329-5 15-.934-3.01-1.044-3.867 0-7 .069-3.262-.003-6.511-.063-9.773.057-2.897.39-5.419 1.063-8.227h2v-2c-2.766-.922-4.383-1.118-7.23-1.098l-2.432.01-2.525.025-2.561.014c-2.084.012-4.168.03-6.252.049v-2l21-3z" fill="rgba(156, 120, 81, 1)" stroke="none"/>
  <path d="M18 236h1l1 15 3-2 3.125-.5L29 248l1-2c2.285-.633 2.285-.633 5.063-1.125l2.785-.508L40 244l-2 7-1.828.078c-5.392.383-7.365.984-11.172 4.922-3.25-.25-3.25-.25-6-1l-1 4v-23z" fill="rgba(98, 98, 98, 1)" stroke="none"/>
  <path d="M71 340c1.79-.08 3.583-.14 5.375-.188l3.023-.105L82 340l2 3 2 1c-2.461 4.923-3.61 6.886-9 9-2.121-.57-2.121-.57-4-2-.828-2.602-.828-2.602-1.25-5.625-.15-1.003-.3-2.006-.453-3.04L71 340z" fill="rgba(163, 163, 161, 1)" stroke="none"/>
  <path d="M100 379c2.338 2.87 4.087 5.39 5 9-1.336 2.895-1.336 2.895-3.375 5.813l-2.023 2.957L98 399l-3-1v-2h-3v-8h4v-2l5-1-1-6z" fill="rgba(152, 128, 95, 1)" stroke="none"/>
  <path d="M67 369h5c1.036 5.05 1.103 9.874 1 15l-7 2c-2.592-4.86-2.187-9.653-2-15h3v-2z" fill="rgba(96, 96, 96, 1)" stroke="none"/>
  <path d="M56 352l2 10-4 1v2h-4v2h-2c-1.757-4.504-2.193-8.176-2-13 6.625-2 6.625-2 10-2z" fill="rgba(121, 121, 120, 1)" stroke="none"/>
  <path d="M59 391l3 1h-2l-1 4h-3v6l-2 1 2 6-1.875-.625L52 408l-2 2-3-7 3-1-1-8h6l1-2v2h3v-3z" fill="rgba(150, 147, 138, 1)" stroke="none"/>
  <path d="M54 319l.184 1.977c.451 4.71.958 9.365 1.816 14.023h-2v2h-3c-.182-.638-.364-1.276-.55-1.934l-.763-2.503-.738-2.497L48 328l-3-1v-3h3v-2c2.1-2.6 2.517-3 6-3z" fill="rgba(98, 98, 98, 1)" stroke="none"/>
  <path d="M342 186c1 1 1 1 1.188 4.438C343 194 343 194 341 196c-3.5.313-3.5.313-7 0-2.148-3.221-2.561-4.26-2-8 3.118-3.598 5.613-3.17 10-2z" fill="rgba(239, 240, 240, 1)" stroke="none"/>
  <path d="M212 187c2 2 2 2 2.313 5.5L214 196c-3.233 2.155-4.252 2.469-8 2-1.813-1.188-1.813-1.188-3-3-.428-2.855-.407-4.345 1.125-6.813 2.71-1.715 4.738-1.52 7.875-1.187z" fill="rgba(243, 243, 243, 1)" stroke="none"/>
  <path d="M32 296l4 1v3h-2l-.188 2.313c-.812 2.687-.812 2.687-3 4.5-3.16 1.334-5.418 1.262-8.812 1.187l-2 2v-7c6.625-3 6.625-3 10-3v-2h2v-2z" fill="rgba(160, 160, 160, 1)" stroke="none"/>
  <path d="M55 284c2.686 2.686 3.06 5.376 4 9-2 1-2 1-4.313 1.438-2.733.466-2.733.466-5.25 1.75C47 297 47 297 44.688 296.125L43 295c.5-2.313.5-2.313 2-5 2.009-.975 3.978-1.619 6.125-2.227 2.243-.72 2.243-.72 3.875-3.773z" fill="rgba(158, 158, 158, 1)" stroke="none"/>
  <path d="M62 415h4v9h2v2h7l1 2-2.875.375c-3.212.342-3.212.342-5.125 2.625l-1 3c-3.487-2.694-4.118-5.793-5-10-.148-3.01-.123-5.99 0-9z" fill="rgba(176, 131, 78, 1)" stroke="none"/>
  <path d="M342 174c3.867 3.222 4.88 6.15 6 11h-2v3h-2l-1 4-1-5c-3.663-.75-6.424-1.238-10 0l2-4h2l1-2c1.979-.727 3.98-1.398 6-2l-1-5z" fill="rgba(16, 13, 14, 1)" stroke="none"/>
  <path d="M331.121 164.855l2.317.333 2.308.292c5.371 1.238 7.36 3.64 10.504 8.145l2.14 3.04L350 179l-4 2-1.5-3.188c-2.546-4.419-5.847-6.812-10.5-8.812-2.732-.627-5.185-.85-8-1 1.668-2.063 2.414-2.96 5.121-3.145z" fill="rgba(166, 142, 92, 1)" stroke="none"/>
  <path d="M309 80l2 1c-.468 4.056-.88 7.466-3 11h2c-.75 2.438-.75 2.438-2 5-2.125.813-2.125.813-4 1-.59 1.946-.59 1.946-1 4l1 1c.04 1.666.043 3.334 0 5l-2-1c-1.172-5.498-1.172-5.498-1-8 .994-1.338 1.995-2.67 3-4 .675-2.67.675-2.67 1-5.5.535-4.06 1.297-6.386 4-9.5z" fill="rgba(161, 130, 95, 1)" stroke="none"/>
  <path d="M62 346c.194 2.145.38 4.291.563 6.438l.316 3.62L63 359c-1 1-1 1-3.563 1.063L57 360c-1.163-2.327-1.199-3.847-1.25-6.438l-.078-2.37C56 349 56 349 57.328 347.214 59 346 59 346 62 346z" fill="rgba(99, 99, 99, 1)" stroke="none"/>
  <path d="M61 404h3l1 8h-5l-.438 1.875C59 416 59 416 58 418c-1.813-.063-1.813-.063-4-1-1.75-3.563-1.75-3.563-3-7l7 2 .375-2.313C59 407 59 407 61 404z" fill="rgba(156, 149, 148, 1)" stroke="none"/>
  <path d="M59 292c2.645 3.125 3.844 6.088 5 10-3.375-.25-3.375-.25-7-1-1.438-2.063-1.438-2.063-2-4l-1 2-5-1v-3c3.162-1.874 5.362-2.098 9-2l1-1z" fill="rgba(153, 153, 153, 1)" stroke="none"/>
  <path d="M275 545c2.944 4.416 3.14 8.776 4 14l-11-1 1.277-2.336 1.66-3.039 1.653-3.023A157.118 157.118 0 0 0 275 545z" fill="rgba(237, 237, 237, 1)" stroke="none"/>
  <path d="M340 211l1 2-1 3-7 1 3 1v2l3 1c-3.61.945-5.572 1.154-9.125-.125-3.032-1.977-4.695-4.022-6.875-6.875l2.703.105 3.547.083 3.516.105c3.457-.313 4.75-.95 7.234-3.293z" fill="rgba(179, 145, 69, 1)" stroke="none"/>
  <path d="M220 160l.313 1.938L221 164l3 1v2l-2.938-.25c-4.873-.04-8.797 2.084-13.062 4.25v-3h2v-2h4v-4l-4-1c3.38-1.04 6.478-1.08 10-1z" fill="rgba(182, 147, 70, 1)" stroke="none"/>
  <path d="M29 205c1.414 2.639 2.372 5.071 3 8-3.73 2.034-5.67 3-10 3 .75-6.625.75-6.625 3-10h2l2-1z" fill="rgba(145, 145, 145, 1)" stroke="none"/>
  <path d="M338 172l2 3 2-1 2 6-2.938.375L338 181l-1 2h-3c-1.347-7.47-1.347-7.47.313-10 1.687-1 1.687-1 3.687-1z" fill="rgba(4, 3, 3, 1)" stroke="none"/>
  <path d="M305 67c1.605.141 3.209.288 4.813.438.893.08 1.786.162 2.707.246C315 68 315 68 318 69v2l-6 1 2 2v2h-3l-1 3-.25-2.813c-.872-3.707-1.724-4.137-4.75-6.187v-3z" fill="rgba(162, 119, 74, 1)" stroke="none"/>
  <path d="M381 102h3v2l4 1v2h2v3h2l1-3c2.063 1.75 2.063 1.75 4 4-.25 2.25-.25 2.25-1 4-4.245-.495-6.76-3.14-9.75-5.938l-1.535-1.38c-1.283-1.181-2.504-2.428-3.715-3.682v-2z" fill="rgba(232, 184, 186, 1)" stroke="none"/>
  <path d="M402 61c.135 9.053-.243 17.979-1 27h-1l-1-23-2-1-1 2-4-3c3.62-1.316 6.096-2 10-2z" fill="rgba(204, 166, 170, 1)" stroke="none"/>
  <path d="M328 101l2 2c-.321 3.532-.878 6.634-2 10l-.125 2.5C327 118 327 118 324 119.813c-4.288 1.586-8.49 1.463-13 1.187v-1l10-1-1-3 5 1 1-9h2v-7z" fill="rgba(157, 126, 92, 1)" stroke="none"/>
  <path d="M338 208l3 1c-1.37 3.161-1.99 3.993-5 6-3.066.16-3.066.16-6.563.063-4.379-.285-4.379-.285-8.437.937l-1-3c4.526-1.006 8.954-1.286 13.574-1.523L336 211l2-3z" fill="rgba(16, 7, 4, 1)" stroke="none"/>
  <path d="M295 213h1c.029 4.125.047 8.25.063 12.375l.025 3.563.01 3.398.016 3.142C296 238 296 238 295 240h-5l.934-1.688c3.519-7.63 3.518-17.05 4.066-25.312z" fill="rgba(240, 226, 208, 1)" stroke="none"/>
  <path d="M59 391l3 1h-2l-1 4h-3v2h-2v2h-2v2h-2l-1-8h6l1-2v2h3v-3z" fill="rgba(156, 138, 112, 1)" stroke="none"/>
  <path d="M230 105c1.563 1.188 1.563 1.188 3 3-.125 2.563-.125 2.563-1 5-4.433 2.955-8.44 3.152-13.688 3.188l-2.886.042C213 116 213 116 211 114l3.395-.184 4.417-.254 2.237-.119c3.182-.187 5.913-.43 8.951-1.443v-7z" fill="rgba(158, 130, 98, 1)" stroke="none"/>
  <path d="M123 68h1l1 18h1c.372 6.574.372 6.574-1.512 8.73-.49.42-.982.838-1.488 1.27-2.552-19.777-2.552-19.777 0-28z" fill="rgba(216, 174, 177, 1)" stroke="none"/>
  <path d="M92 388h6c.981 3.053.981 4.947 0 8h-6v-8z" fill="rgba(172, 131, 91, 1)" stroke="none"/>
  <path d="M54 387l1 7h-6l1 2c.04 2 .043 4 0 6h-2v-12h2v-2c2-1 2-1 4-1z" fill="rgba(175, 156, 144, 1)" stroke="none"/>
  <path d="M279 214c-1.557 4.671-4.084 8.087-7 12-3.161-1.37-3.993-1.99-6-5l6 1 .313-2.313c1.069-4.179 2.312-5.687 6.687-5.687z" fill="rgba(227, 182, 187, 1)" stroke="none"/>
  <path d="M319 71h12v4l2.375.375C336 76 336 76 338 78c-.375 3.125-.375 3.125-1 6h-1v-6h-3v-2h-3v-2h-10l-1-3z" fill="rgba(154, 122, 91, 1)" stroke="none"/>
  <path d="M308 72l2 1c.415 5.081-.226 7.767-2.988 12.031-1.601 3.116-1.953 6.389-2.422 9.832C304 97 304 97 301 99c0-4 0-4 1-6h2l-.14-1.758c-.27-5.847.69-8.39 4.14-13.242.336-3.252.336-3.252 0-6z" fill="rgba(245, 236, 215, 1)" stroke="none"/>
  <path d="M328 119l-1 5h-5v-2l-9 2v-2h-3l1-2 1.793.07c5.128.117 10.737-2.56 15.207-1.07z" fill="rgba(247, 242, 226, 1)" stroke="none"/>
  <path d="M287 222h1l-1 11h-2l-2 3v-2l-5 2v-2l1.688-1.625c2.625-2.696 4.359-5.538 6.261-8.766L287 222z" fill="rgba(143, 107, 72, 1)" stroke="none"/>
  <path d="M101 385h-2l-1 2-2-1v2h-4l-1 4-3-2v-4h4v-2c5.625-1.25 5.625-1.25 9 1z" fill="rgba(160, 149, 129, 1)" stroke="none"/>
  <path d="M327 228c2.164-.293 2.164-.293 4.625-.188l2.477.083L336 228v5c-4.219.196-7.17-.198-11-2l2-3z" fill="rgba(20, 23, 19, 1)" stroke="none"/>
  <path d="M279 214h1c.108 1.603.186 3.207.25 4.813l.14 2.707c-.39 2.48-.39 2.48-2.406 4.304L276 227l-4-2c1.142-1.836 2.288-3.669 3.438-5.5l1.933-3.094L279 214z" fill="rgba(21, 9, 9, 1)" stroke="none"/>
  <path d="M260 214h16c-4 2-4 2-7.188 2.938L266 218l-1 3a141.4 141.4 0 0 1-5-5v-2z" fill="rgba(230, 188, 193, 1)" stroke="none"/>
  <path d="M197 180h1c1.43 7.297.34 13.736-1 21-2-2-2-2-2.266-3.813.043-5.922.919-11.425 2.266-17.187z" fill="rgba(175, 146, 75, 1)" stroke="none"/>
  <path d="M82 428h3c-1.234 6.824-2.892 13.394-5 20l-2-1v-2l-3-1 2-1 3 1 .438-3.5L82 428z" fill="rgba(156, 127, 99, 1)" stroke="none"/>
  <path d="M341 211l4 1-1 4h-2v2c-3 2-3 2-6 2v-2l-4-1v-1h8l1-5z" fill="rgba(192, 157, 45, 1)" stroke="none"/>
  <path d="M332 94c1.735 2.603 2.611 3.987 3 7l-2 2a252.656 252.656 0 0 0-2 6 86.75 86.75 0 0 1-2 4h-2l1-2.063c1.198-3.002 1.198-3.002 1-6.624C329 101 329 101 331 99c.648-2.57.648-2.57 1-5z" fill="rgba(244, 236, 222, 1)" stroke="none"/>
  <path d="M210 214a98337777859174370 98337777859174370 0 0 0-5 3l2-2 3 1v-2z" fill="rgba(162, 144, 77, 1)" stroke="none"/>
  <path d="M86 422c.93 2.606 1.15 3.642.063 6.25L85 430v-2l-2.375-.438C80 427 80 427 78 426v-2c3.088-1.765 4.233-2 8-2z" fill="rgba(102, 95, 85, 1)" stroke="none"/>
  <path d="M284.875 188.75c3.125.25 3.125.25 5 1.625C291 192 291 192 291 194h-3v-2h-4v2l-5 1c2.284-5.938 2.284-5.938 5.875-6.25z" fill="rgba(157, 126, 94, 1)" stroke="none"/>
  <path d="M342 186c1 1 1 1 1.063 4.563L343 194l-6-6-5 2c2.446-5.416 4.332-5.206 10-4z" fill="rgba(224, 224, 225, 1)" stroke="none"/>
  <path d="M178 332l3 1c-1.255 3.766-2.529 4.264-6 6h-3l-1-6c1.454.03 1.454.03 2.938.063 2.937.293 2.937.293 4.062-1.063zm-6 2l1 2 1-2h-2z" fill="rgba(123, 123, 123, 1)" stroke="none"/>
  <path d="M18 266l3 1a71.54 71.54 0 0 0 4.563.125l2.378.008c2.123-.003 2.123-.003 4.059-1.133l2 1v2c-3.508 1.604-6.144 2.22-10 2v-2h-6v-3z" fill="rgba(158, 158, 158, 1)" stroke="none"/>
  <path d="M242.375 243.75c2.625.25 2.625.25 4.438 1.75L248 247c-.75 2.438-.75 2.438-2 5-2.125.813-2.125.813-4 1v-7l-3 2c0-3.895 0-3.895 3.375-4.25z" fill="rgba(20, 20, 20, 1)" stroke="none"/>
  <path d="M288 205l3 1c.279 1.39.522 2.788.75 4.188l.422 2.355C292 215 292 215 288 220v-15z" fill="rgba(26, 13, 8, 1)" stroke="none"/>
  <path d="M325 167l4 2h-2l1 5-7 1c-.25-2.313-.25-2.313 0-5 2-1.813 2-1.813 4-3zm3 3l3 1z" fill="rgba(24, 22, 20, 1)" stroke="none"/>
  <path d="M51 410l9 2c-1 4-1 4-2 6-1.813-.063-1.813-.063-4-1-1.75-3.563-1.75-3.563-3-7z" fill="rgba(162, 146, 127, 1)" stroke="none"/>
  <path d="M46 390c2 2 2 2 2.195 4.602l-.07 3.023-.055 3.04L48 403c-2.626-2.51-4.14-4.39-5-8 1.375-2.813 1.375-2.813 3-5z" fill="rgba(163, 164, 161, 1)" stroke="none"/>
  <path d="M331 73l10 1-1 10-4 1 1-7-6-3v-2z" fill="rgba(248, 244, 232, 1)" stroke="none"/>
  <path d="M229 69l-2 1v2l-18 1v-2c2.395-.337 4.791-.67 7.188-1l2.04-.29c3.619-.493 7.12-.823 10.772-.71z" fill="rgba(135, 108, 81, 1)" stroke="none"/>
  <path d="M59 415h1v7h2c2.152 3.228 2.2 4.284 2 8-3.255-3.023-5.69-6.205-8-10v-2h2l1-3z" fill="rgba(159, 131, 102, 1)" stroke="none"/>
  <path d="M59 292l1 2-2-1 1-1zm-1 2l-1 4c-3.287.8-4.71 1.097-8 0v-3c3.35-2.11 5.221-2.05 9-1z" fill="rgba(129, 129, 129, 1)" stroke="none"/>
  <path d="M340 211l1 2-1 3-2.336.148-3.039.227c-.998.07-1.995.14-3.023.21-2.757.179-2.757.179-4.602 2.415l-4-5 2.703.105 3.547.083 3.516.105c3.457-.313 4.75-.95 7.234-3.293z" fill="rgba(171, 151, 82, 1)" stroke="none"/>
  <path d="M200 207l2.188 2.375c2.645 2.47 4.416 3.558 7.812 4.625v2c-2.75.75-2.75.75-6 1-2.375-1.563-2.375-1.563-4-4-.25-3.25-.25-3.25 0-6z" fill="rgba(175, 154, 47, 1)" stroke="none"/>
  <path d="M230 68c2 3 2 3 1.813 6.438-.776 3.4-1.492 5.04-3.813 7.562v-6h2v-2l-3-1v-3l3-2z" fill="rgba(161, 126, 92, 1)" stroke="none"/>
  <path d="M35 343l1 3c-1.938 3.188-1.938 3.188-4 6l-2-1-1 2h-2l-1-4 3.375-1.313c3.8-1.386 3.8-1.386 5.625-4.687z" fill="rgba(163, 163, 162, 1)" stroke="none"/>
  <path d="M44 272h4l-2 6h-4v-2h-6v-2h8v-2z" fill="rgba(106, 106, 106, 1)" stroke="none"/>
  <path d="M278 196c2 3.75 2 3.75 2 6l3 1h-21v-1h15l1-6z" fill="rgba(161, 145, 132, 1)" stroke="none"/>
  <path d="M35 187c2.75.25 2.75.25 5 1v5l-2.813-1c-3.107-1.15-3.107-1.15-6.187-1 1.688-2.063 1.688-2.063 4-4z" fill="rgba(151, 151, 151, 1)" stroke="none"/>
  <path d="M202 81l2 1c.729 2.315 1.392 4.65 2 7l1 3-5 1V81z" fill="rgba(249, 244, 226, 1)" stroke="none"/>
  <path d="M43.188 295.375L45 296c-.563 1.938-.563 1.938-2 4-3.625.75-3.625.75-7 1 1.497-3.455 2.908-6.359 7.188-5.625z" fill="rgba(101, 101, 101, 1)" stroke="none"/>
  <path d="M208 164l6 1-4 1v2h-2v4h-4v-4h3l1-4z" fill="rgba(192, 155, 34, 1)" stroke="none"/>
  <path d="M356 220c0 4.27-2.301 5.829-5 9v2h-4l-2 2-1-3 2.625-1.625c3.596-2.38 6.403-5.261 9.375-8.375z" fill="rgba(222, 222, 221, 1)" stroke="none"/>
  <path d="M214 162v3l-6-1-1 4h-3l-1 2c.937-6.558 4.719-8.571 11-8z" fill="rgba(183, 153, 64, 1)" stroke="none"/>
  <path d="M393 107c2.063 1.75 2.063 1.75 4 4-.25 2.25-.25 2.25-1 4-1.875-.25-1.875-.25-4-1-1.25-2.063-1.25-2.063-2-4h2l1-3z" fill="rgba(222, 174, 177, 1)" stroke="none"/>
  <path d="M68 424h10v2l3 1c-3.272 1.073-5.43.893-8.75.063l-2.422-.59L68 426v-2z" fill="rgba(164, 130, 96, 1)" stroke="none"/>
  <path d="M215.063 209.938L218 210v2h-4v2l2 1c-3 1-3 1-6.188-.438L207 213l1.938-.938c4.042-2.082 4.042-2.082 6.125-2.125z" fill="rgba(23, 13, 9, 1)" stroke="none"/>
  <path d="M133 110h7l-5 7c-2-2-2-2-2.125-4.625L133 110z" fill="rgba(230, 182, 183, 1)" stroke="none"/>
  <path d="M335 85c1.097 3.29.8 4.713 0 8h-4v-2h-2v-2a125.024 125.024 0 0 1 6-4z" fill="rgba(243, 235, 219, 1)" stroke="none"/>
  <path d="M403 69h1c.194 5.527-.252 9.756-2 15h-1c-.369-10.558-.369-10.558 2-15z" fill="rgba(25, 6, 8, 1)" stroke="none"/>
  <path d="M324.063 211.813c4.296.204 7.809 1.028 11.937 2.187v1l-2.773-.035-3.602-.028-3.586-.035c-2.958-.117-2.958-.117-5.039 1.098l-1-3c1-1 1-1 4.063-1.188z" fill="rgba(36, 25, 11, 1)" stroke="none"/>
  <path d="M214 160h6l.313 1.938L221 164l3 1v2l-6-1v-3c-1.94-1.705-1.94-1.705-4-3z" fill="rgba(155, 134, 69, 1)" stroke="none"/>
  <path d="M225 101c4.744 2.433 4.744 2.433 5.875 4.938.136 2.241-.19 3.932-.875 6.062h-2l-.313-2.813c-.694-3.22-1.164-4.213-3.687-6.187l1-2z" fill="rgba(161, 121, 77, 1)" stroke="none"/>
  <path d="M205 79h3c-.114 1.48-.241 2.96-.375 4.438l-.21 2.496L207 88l-2 1c-1.37-2.74-1.126-4.97-1-8l1-2z" fill="rgba(161, 120, 77, 1)" stroke="none"/>
  <path d="M68 417h2v5h7l-1 2h-8v-7z" fill="rgba(135, 119, 107, 1)" stroke="none"/>
  <path d="M240 217l-1 3h-3l-1 3-3 1-1-2c4.5-5 4.5-5 9-5z" fill="rgba(236, 236, 236, 1)" stroke="none"/>
  <path d="M223.75 67.813l3.547.082L230 68v1c-11.522 2.296-11.522 2.296-17 2 3.486-3.288 6.057-3.328 10.75-3.188z" fill="rgba(28, 11, 6, 1)" stroke="none"/>
  <path d="M283 234l1 4 6 1v1c-4.626.323-7.28-.155-11-3v-2c2-1 2-1 4-1z" fill="rgba(160, 127, 95, 1)" stroke="none"/>
  <path d="M84 431l2 3-1 1a85.688 85.688 0 0 0-.563 4.563l-.253 2.503L84 444l-3 1c.596-4.869 1.57-9.328 3-14z" fill="rgba(41, 23, 15, 1)" stroke="none"/>
  <path d="M346 181l2 4h-2v3h-2l-1 4-2-7 5-1v-3z" fill="rgba(26, 25, 16, 1)" stroke="none"/>
  <path d="M293 229h1l.438 2.813c.483 3.194.483 3.194 1.562 6.187l-1 2h-5l.938-1.563c1.353-3.104 1.676-6.088 2.062-9.437z" fill="rgba(230, 214, 196, 1)" stroke="none"/>
  <path d="M204 178h2v4l2 1-1.438 1.25c-1.725 1.932-2.128 3.232-2.562 5.75h-2l2-12z" fill="rgba(8, 5, 18, 1)" stroke="none"/>
  <path d="M347 179l4 2 1 3h-2v4h-2l-1-9z" fill="rgba(179, 152, 82, 1)" stroke="none"/>
  <path d="M141 102h5c-1.27 3.914-2.512 5.79-6 8l1-8z" fill="rgba(229, 179, 179, 1)" stroke="none"/>
  <path d="M94 388h4l1 4-4 2c-1-1-1-1-1.063-3.563L94 388z" fill="rgba(180, 129, 76, 1)" stroke="none"/>
  <path d="M19 238h6v4h-6v-4z" fill="rgba(161, 161, 161, 1)" stroke="none"/>
  <path d="M205 204l3 4-2 4-4-6 3-2z" fill="rgba(22, 8, 9, 1)" stroke="none"/>
  <path d="M343 172c4.392 1.464 4.88 3.978 7 8l-4 1-3-9z" fill="rgba(155, 140, 75, 1)" stroke="none"/>
  <path d="M306 109h2v3h3l1 5c-1.875-.25-1.875-.25-4-1-1.721-2.582-2-3.85-2-7z" fill="rgba(153, 122, 80, 1)" stroke="none"/>
  <path d="M232 106l4 2v5l-5 1 1-8z" fill="rgba(248, 243, 228, 1)" stroke="none"/>
  <path d="M380 68l4 1a617.075 617.075 0 0 1-3.875 3l-2.18 1.688C376 75 376 75 374 75v-3h2l1-2h3v-2z" fill="rgba(43, 20, 21, 1)" stroke="none"/>
  <path d="M391 64l1 4c-4.108 1.587-5.592 2.102-10 1l9-5z" fill="rgba(221, 181, 182, 1)" stroke="none"/>
  <path d="M96 386v2h-4l-1 4-3-2v-3c2.763-.597 5.16-1 8-1z" fill="rgba(158, 139, 112, 1)" stroke="none"/>
  <path d="M347 200l1 4h2c.125 2.875.125 2.875 0 6l-2 2v-6h-2l1-6z" fill="rgba(168, 143, 85, 1)" stroke="none"/>
  <path d="M290 199h2v5h2l-1 3-5-2 2-1v-5z" fill="rgba(149, 110, 68, 1)" stroke="none"/>
  <path d="M310 120h12v2l-9 2v-2h-3v-2z" fill="rgba(244, 235, 215, 1)" stroke="none"/>
  <path d="M205 92h1l2 9-2 1v-2h-2c-.625-2.313-.625-2.313-1-5l2-3z" fill="rgba(252, 249, 238, 1)" stroke="none"/>
  <path d="M192 70l4 4c-1.875 1.063-1.875 1.063-4 2l-2-1v-4l2-1z" fill="rgba(245, 247, 248, 1)" stroke="none"/>
  <path d="M122 61h2v2l4 2-4 1-1 6h-1V61z" fill="rgba(239, 192, 196, 1)" stroke="none"/>
  <path d="M41 423c2.438.688 2.438.688 5 2 .813 2.625.813 2.625 1 5l-2 1c-4-5.75-4-5.75-4-8z" fill="rgba(38, 38, 38, 1)" stroke="none"/>
  <path d="M96 398l2 2-4 8-2-1v-3h2l.438-1.875C95 400 95 400 96 398z" fill="rgba(113, 110, 108, 1)" stroke="none"/>
  <path d="M175 286c3.27.564 4.826 1.5 7 4l-7 1v-5z" fill="rgba(101, 101, 101, 1)" stroke="none"/>
  <path d="M328 224h6l2 4h-7l1-3-2-1z" fill="rgba(3, 1, 15, 1)" stroke="none"/>
  <path d="M266 221l8 1-2 4c-3.161-1.37-3.993-1.99-6-5z" fill="rgba(212, 170, 173, 1)" stroke="none"/>
  <path d="M221.688 165.875l2.449.055L226 166l-1 3-11-1c3.204-2.136 4.02-2.231 7.688-2.125z" fill="rgba(35, 20, 12, 1)" stroke="none"/>
  <path d="M332 84l4 1c-4.75 4-4.75 4-7 4v2l2 1h-3v-4h2v-2h2v-2z" fill="rgba(153, 123, 85, 1)" stroke="none"/>
  <path d="M64 407l1 5h-5v-4c2-1 2-1 4-1z" fill="rgba(158, 143, 124, 1)" stroke="none"/>
  <path d="M166 354h2a101.168 101.168 0 0 1-2 6l-2 1-2-2a105.022 105.022 0 0 1 4-5z" fill="rgba(119, 119, 119, 1)" stroke="none"/>
  <path d="M60 294c2.154 2.622 3.4 4.644 4 8l-5-1 1-2-1-3 1-2z" fill="rgba(131, 131, 131, 1)" stroke="none"/>
  <path d="M365 82l2 3c-.875 2.688-.875 2.688-2 5l-3-2c1.875-4.875 1.875-4.875 3-6z" fill="rgba(212, 175, 177, 1)" stroke="none"/>
  <path d="M305 67h4l1 6c-2.5-1.313-2.5-1.313-5-3v-3z" fill="rgba(156, 130, 104, 1)" stroke="none"/>
  <path d="M51 410l5 1v7c-2.724-2.353-3.814-4.625-5-8z" fill="rgba(136, 138, 134, 1)" stroke="none"/>
  <path d="M34 267v2c-2.709 1.354-5.01 1.065-8 1v-2c4.625-2.125 4.625-2.125 8-1z" fill="rgba(164, 164, 164, 1)" stroke="none"/>
  <path d="M204 196c6.75.875 6.75.875 9 2-5.625 2.125-5.625 2.125-9 1v-3zm0 4l3 2h-3v-2z" fill="rgba(30, 32, 30, 1)" stroke="none"/>
  <path d="M341 186l2 1v7c-1.563-1.188-1.563-1.188-3-3 .313-2.688.313-2.688 1-5z" fill="rgba(231, 235, 228, 1)" stroke="none"/>
  <path d="M331 73l10 1-4 4-6-3v-2z" fill="rgba(231, 224, 207, 1)" stroke="none"/>
  <path d="M231 68h3v8h-2l-1-8z" fill="rgba(252, 248, 235, 1)" stroke="none"/>
  <path d="M86 390l5 1 1 5-4-2v-3l-2-1z" fill="rgba(135, 120, 106, 1)" stroke="none"/>
  <path d="M169 318h3l1 2c-.938 2.125-.938 2.125-2 4h-3l1-6z" fill="rgba(100, 100, 100, 1)" stroke="none"/>
  <path d="M164 260l5 4-3 3c-1.46-2.647-2-3.894-2-7z" fill="rgba(16, 16, 16, 1)" stroke="none"/>
  <path d="M283 239l7 1-1 3-7-1 1-3z" fill="rgba(246, 240, 226, 1)" stroke="none"/>
  <path d="M200 207c2.9 2.395 3.502 4.312 4 8l-4-2v-6z" fill="rgba(182, 159, 55, 1)" stroke="none"/>
  <path d="M343 157l4 2-3 3-4-2 3-1v-2z" fill="rgba(19, 20, 25, 1)" stroke="none"/>
  <path d="M126 116h2l1 2 3 1c-1.375 1.5-1.375 1.5-3 3h-2l-1-6z" fill="rgba(219, 183, 186, 1)" stroke="none"/>
  <path d="M153 94l3 1-5 5-1-2-2-1 5-1v-2z" fill="rgba(221, 176, 177, 1)" stroke="none"/>
  <path d="M291 420h2v2l-2 1a113.158 113.158 0 0 0-3 5l-1-3c1.813-2.688 1.813-2.688 4-5z" fill="rgba(28, 28, 28, 1)" stroke="none"/>
  <path d="M62 416h3c-.375 2.938-.375 2.938-1 6l-2 1v-7z" fill="rgba(185, 130, 69, 1)" stroke="none"/>
  <path d="M187 293l7 2-4 4-3-6z" fill="rgba(232, 232, 232, 1)" stroke="none"/>
  <path d="M264 222c3.796.542 5.472 2.201 8 5-3.599 0-5.095-.958-8-3v-2z" fill="rgba(20, 5, 3, 1)" stroke="none"/>
  <path d="M270 215l-1.938 1.875c-2.1 1.951-2.1 1.951-3.062 4.125l-3-4c3.228-2.152 4.284-2.2 8-2z" fill="rgba(232, 180, 186, 1)" stroke="none"/>
  <path d="M338 204l4 1v5l-4-2v-4z" fill="rgba(7, 4, 19, 1)" stroke="none"/>
  <path d="M291 192h2c1.158 3.473 1.069 6.36 1 10-1.884-3.265-2.493-6.281-3-10z" fill="rgba(247, 239, 222, 1)" stroke="none"/>
  <path d="M336 170l5 2c0 3 0 3-1 5l-2-2v-3h-2v-2z" fill="rgba(26, 9, 9, 1)" stroke="none"/>
  <path d="M306 112c2.463 2.463 2.998 4.707 4 8l-4 1v-9z" fill="rgba(245, 238, 227, 1)" stroke="none"/>
  <path d="M149 100l3 1-5 5-1-3 3-3z" fill="rgba(37, 20, 20, 1)" stroke="none"/>
  <path d="M152 78c3.688.498 5.605 1.1 8 4l-2 1-3-1v-2h-3v-2z" fill="rgba(225, 181, 185, 1)" stroke="none"/>
  <path d="M309 67l9 2v1h-9v-3z" fill="rgba(139, 105, 74, 1)" stroke="none"/>
  <path d="M140 65l1 3c2.015.733 2.015.733 4 1v3l-7-4 2-1v-2z" fill="rgba(34, 15, 15, 1)" stroke="none"/>
  <path d="M186 46c2.125.938 2.125.938 4 2l-1 4-5-5 2-1z" fill="rgba(15, 15, 15, 1)" stroke="none"/>
</svg>
</g></svg></g></g>
<!-- /image 51320 -->
</defs><rect x="0" y="0" width="250" height="250" fill="rgba(255, 255, 255, 1)"></rect><use xlink:href="#transformed-51320" transform="translate(-250, -250)"></use><use xlink:href="#transformed-51320" transform="translate(0, -250)"></use><use xlink:href="#transformed-51320" transform="translate(250, -250)"></use><use xlink:href="#transformed-51320" transform="translate(-250, 0)"></use><use xlink:href="#transformed-51320" transform="translate(0, 0)"></use><use xlink:href="#transformed-51320" transform="translate(250, 0)"></use><use xlink:href="#transformed-51320" transform="translate(-250, 250)"></use><use xlink:href="#transformed-51320" transform="translate(0, 250)"></use><use xlink:href="#transformed-51320" transform="translate(250, 250)"></use></svg>